<svg width="25" height="25" viewBox="0 0 25 25" fill="none" xmlns="http://www.w3.org/2000/svg">
<g clip-path="url(#clip0_298_164)">
<path d="M23.8457 2.79594C24.7204 2.75742 25.0456 3.09081 24.9938 3.96745C24.9168 5.28373 24.8279 6.60002 24.7748 7.91764C24.7562 8.38252 24.6169 8.74115 24.1829 8.92046C23.7674 9.0918 23.4861 8.83678 23.2073 8.56316C22.2106 7.58425 22.2066 7.58823 21.1992 8.59637C18.3244 11.4733 15.4496 14.3503 12.5734 17.2246C11.724 18.0734 11.1055 18.0774 10.2693 17.2432C9.17967 16.1567 8.07938 15.0795 7.01228 13.9718C6.67383 13.6211 6.48138 13.5547 6.10444 13.9505C4.96965 15.1459 3.78707 16.2962 2.61777 17.4584C1.88778 18.1849 1.19363 18.1982 0.506121 17.5129C-0.190683 16.8195 -0.170774 16.174 0.583102 15.4116C2.1904 13.7858 3.80034 12.1627 5.41162 10.5409C6.20664 9.74131 6.84903 9.74663 7.6613 10.5555C8.78283 11.6726 9.90568 12.7883 11.0153 13.9173C11.2581 14.1644 11.3882 14.2879 11.7147 13.9611C14.417 11.2542 17.1431 8.5698 19.872 5.89074C20.1321 5.63572 20.1852 5.47766 19.8852 5.22662C19.5986 4.98886 19.3583 4.69665 19.0876 4.4403C18.8049 4.172 18.6748 3.86119 18.8407 3.49459C18.988 3.16784 19.2628 3.03104 19.6331 3.0151C21.0373 2.95533 22.4415 2.87032 23.8457 2.79594Z" fill="white"/>
<path d="M22.5017 16.8246C22.5017 18.9153 22.503 21.0046 22.5004 23.0953C22.499 23.8856 22.3836 23.9972 21.5793 23.9985C20.7657 24.0011 19.952 23.9918 19.1384 24.0011C18.6421 24.0065 18.4297 23.7913 18.4324 23.2839C18.443 20.0935 18.443 16.903 18.4297 13.7139C18.4284 13.4111 18.5571 13.2291 18.7509 13.0378C19.7384 12.0656 20.7152 11.0827 21.7053 10.1144C21.8646 9.95897 21.9841 9.63886 22.2548 9.73715C22.588 9.85935 22.5017 10.21 22.5017 10.4889C22.503 12.4029 22.503 14.3169 22.503 16.2309C22.5017 16.4288 22.5017 16.6267 22.5017 16.8246Z" fill="white"/>
<path d="M11.3748 10.9406C10.8346 11.0323 10.5639 10.7786 10.6395 10.1649C10.6807 9.82754 10.5838 9.63761 10.1949 9.60042C9.8737 9.56987 9.56179 9.43704 9.24591 9.34406C8.69245 9.18202 8.55707 8.82472 8.70307 8.28413C8.96984 7.2999 8.9725 7.30787 9.96395 7.62266C10.5187 7.79799 11.0788 8.01582 11.696 7.81127C12.0265 7.70236 12.2667 7.5164 12.3026 7.19497C12.3371 6.88815 12.1075 6.66367 11.8327 6.54015C11.335 6.31567 10.8174 6.13503 10.3263 5.89595C9.12513 5.31019 8.65528 4.51059 8.79066 3.34041C8.89684 2.41861 9.43571 1.81028 10.2559 1.47158C10.6289 1.3175 10.8479 1.16475 10.7842 0.729088C10.7112 0.238967 10.9156 -0.0200405 11.4438 0.00121133C11.911 0.021135 12.4393 -0.0559031 12.3756 0.665332C12.3397 1.06646 12.5229 1.22319 12.8812 1.26968C13.0113 1.28695 13.1427 1.30953 13.2688 1.34672C14.1302 1.59776 14.3505 2.56073 13.7028 3.21423C13.4997 3.41878 13.2967 3.31783 13.0989 3.2315C12.5839 3.00437 12.0477 2.92998 11.4916 2.98843C11.2142 3.01765 10.966 3.10797 10.9076 3.41878C10.8532 3.70701 11.0483 3.87436 11.2713 3.98328C11.8208 4.25159 12.3902 4.4827 12.933 4.76429C14.17 5.40583 14.7181 6.62648 14.3279 7.83651C14.0744 8.6215 13.5289 9.15413 12.7644 9.41048C12.3464 9.54994 12.2402 9.77043 12.2455 10.1769C12.2534 10.9194 12.2083 10.9419 11.3748 10.9406Z" fill="white"/>
<path d="M16.9263 15.0117C16.9263 15.6294 16.9263 16.1925 16.9263 16.7557C16.9263 18.8676 16.929 20.9808 16.925 23.0927C16.9236 23.8857 16.8082 23.9959 16.0052 23.9986C15.1916 23.9999 14.378 23.988 13.5644 24.0026C13.0653 24.0119 12.8463 23.8047 12.8517 23.296C12.8663 21.9319 12.8556 20.5678 12.857 19.2036C12.857 19.0296 12.8596 18.8742 13.0109 18.7281C14.2426 17.5354 15.4623 16.3293 16.6887 15.1299C16.7285 15.0901 16.7936 15.0768 16.9263 15.0117Z" fill="white"/>
<path d="M7.42176 16.4453C8.02035 17.0536 8.62955 17.6527 9.2162 18.273C9.70064 18.7843 10.266 19.147 10.9642 19.2426C11.2522 19.2811 11.3159 19.3781 11.3132 19.6464C11.3013 20.8777 11.2986 22.1103 11.3132 23.3415C11.3186 23.7878 11.1274 23.9977 10.6921 23.9977C9.76833 23.999 8.84457 23.995 7.92213 24.0004C7.52661 24.0017 7.27444 23.825 7.27178 23.4239C7.26249 21.1221 7.26647 18.8189 7.26647 16.517C7.31691 16.4931 7.37 16.4692 7.42176 16.4453Z" fill="white"/>
<path d="M5.74771 16.5471C5.74771 18.8436 5.74904 21.1388 5.74639 23.4354C5.74639 23.8192 5.5181 23.9932 5.16107 23.9959C4.19616 24.0039 3.23126 24.0039 2.26635 23.9959C1.90136 23.9932 1.689 23.79 1.68634 23.4234C1.67838 22.2174 1.68634 21.01 1.67971 19.804C1.67838 19.5702 1.74607 19.4387 2.0009 19.4095C2.71629 19.3258 3.24055 18.9034 3.71836 18.404C4.33951 17.7558 4.96729 17.1129 5.59243 16.4688C5.64552 16.494 5.69595 16.5206 5.74771 16.5471Z" fill="white"/>
</g>
<defs>
<clipPath id="clip0_298_164">
<rect width="25" height="25" fill="white"/>
</clipPath>
</defs>
</svg>
