<svg width="25" height="25" viewBox="0 0 25 25" fill="none" xmlns="http://www.w3.org/2000/svg">
<g clip-path="url(#clip0_298_173)">
<path d="M15.7424 24.9967C14.7635 24.5739 14.4372 23.8386 14.4623 22.7759C14.5238 20.2389 14.525 17.6993 14.4635 15.1623C14.4347 13.9591 15.2994 13.2012 16.3762 13.2313C18.6227 13.2928 20.8729 13.2476 23.1219 13.2514C24.3694 13.2527 24.9768 13.8712 24.9781 15.1372C24.9806 17.6341 24.9404 20.131 24.9969 22.6266C25.0208 23.7018 24.7334 24.5086 23.7419 24.9967C21.0737 24.9967 18.4081 24.9967 15.7424 24.9967ZM15.3609 19.1234C15.3609 20.4547 15.3584 21.7872 15.3621 23.1184C15.3646 23.8712 15.6131 24.1234 16.3686 24.1234C18.5963 24.1272 20.8252 24.1259 23.0529 24.1234C23.8034 24.1222 24.0833 23.8612 24.0845 23.1259C24.0908 20.4622 24.092 17.7997 24.0833 15.136C24.0807 14.4308 23.7971 14.1535 23.0918 14.151C20.8428 14.1435 18.5938 14.1435 16.3448 14.151C15.6307 14.1535 15.3646 14.4258 15.3621 15.1284C15.3571 16.4597 15.3609 17.7922 15.3609 19.1234Z" fill="white"/>
<path d="M0 8.38998C0.195783 8.2369 0.389056 8.12523 0.666416 8.129C1.91391 8.14782 3.16265 8.13653 4.46536 8.13653C4.30974 8.52423 3.96335 8.76012 3.85542 9.13276C3.81024 9.2896 3.66591 9.26702 3.54543 9.26827C3.31702 9.27204 3.08735 9.27078 2.85894 9.26953C2.44101 9.26702 1.97666 9.16789 1.86621 9.77894C1.85366 9.84669 1.76581 9.93828 1.69804 9.95209C1.09312 10.0826 1.19729 10.5506 1.19854 10.9709C1.19854 12.1566 1.20356 13.341 1.19478 14.5267C1.19227 14.8341 1.18976 15.0989 1.58007 15.1855C1.70055 15.2118 1.85743 15.3586 1.88379 15.4753C1.99297 15.9458 2.33183 15.9119 2.68825 15.9107C6.10065 15.9057 9.51431 15.9044 12.9267 15.9107C13.8416 15.9119 13.7236 15.7589 13.7337 16.7526C13.7349 16.853 13.7249 16.9533 13.7211 17.0374C13.5291 17.183 13.3346 17.1227 13.1551 17.1227C9.05623 17.1265 4.95607 17.1227 0.857179 17.1303C0.537149 17.1303 0.245984 17.0989 0 16.8781C0 14.05 0 11.2206 0 8.38998Z" fill="white"/>
<path d="M9.47504 5.21386C10.0925 5.98927 10.6974 6.74711 11.3977 7.62541C10.6686 7.62541 10.0787 7.61913 9.48884 7.62917C9.28302 7.63293 9.20396 7.49743 9.10732 7.36192C8.92785 7.10972 8.74336 6.86129 8.51244 6.5451C7.37539 8.11976 6.26344 9.65803 5.16028 11.1875C4.13744 10.8061 4.03578 9.59278 4.60807 8.91022C5.62213 7.70194 6.5772 6.44347 7.58623 5.16995C7.22981 4.66807 6.85707 4.1712 6.51821 3.65176C6.36259 3.41211 6.16806 3.50245 5.97102 3.49492C5.10882 3.4648 4.37338 2.83996 4.25792 2.05075C4.1274 1.15866 4.54532 0.407087 5.36736 0.122269C6.01997 -0.103578 6.65124 -0.0320595 7.16078 0.467313C7.65024 0.946611 7.90752 1.53256 7.63769 2.21512C7.50466 2.55012 7.54105 2.78601 7.78955 3.03695C8.0644 3.31424 8.2514 3.67058 8.57645 3.94034C8.74211 3.73707 8.89397 3.54009 9.05712 3.35314C9.40099 2.96292 9.61686 2.62039 9.42233 2.00684C9.14622 1.14109 9.91179 0.158656 10.7853 0.0306757C11.837 -0.122398 12.7582 0.536322 12.8648 1.52001C12.974 2.52754 12.2662 3.4372 11.2308 3.48362C10.7665 3.50495 10.5217 3.67559 10.2996 4.03319C10.0486 4.4372 9.75742 4.81361 9.47504 5.21386ZM7.00893 1.7697C7.0152 1.19379 6.56716 0.748367 5.98608 0.750877C5.42007 0.753386 4.99713 1.16242 4.98332 1.72202C4.96826 2.30295 5.40124 2.76593 5.96977 2.77973C6.53829 2.79228 7.00391 2.34059 7.00893 1.7697ZM12.1294 1.75966C12.1269 1.19002 11.6751 0.747112 11.099 0.753386C10.538 0.758405 10.1226 1.17246 10.1164 1.7308C10.1101 2.32177 10.5393 2.77723 11.1041 2.77973C11.6701 2.78099 12.1319 2.32177 12.1294 1.75966ZM8.5275 4.90019C8.41831 4.96794 8.27022 5.0106 8.25893 5.1825C8.24638 5.37823 8.36058 5.49743 8.54381 5.50621C8.7032 5.51374 8.81741 5.38701 8.83623 5.24272C8.86259 5.05201 8.70697 4.96794 8.5275 4.90019Z" fill="white"/>
<path d="M5.62502 12.6099C5.62878 11.2084 6.74826 10.0817 8.14886 10.0704C9.54947 10.0579 10.7417 11.2448 10.7292 12.6426C10.7166 14.034 9.57959 15.1595 8.17773 15.1658C6.72818 15.172 5.62 14.0629 5.62502 12.6099ZM8.34214 11.6175C8.89685 11.7329 8.89685 11.7329 9.1077 11.3904C8.63581 11.1909 8.2091 10.8533 7.64811 11.1796C7.34816 11.354 7.16744 11.5836 7.15865 11.9173C7.14987 12.2335 7.30423 12.5284 7.60795 12.5961C8.19404 12.7279 8.07607 13.1043 8.03717 13.4506C7.70584 13.7342 7.30549 12.8948 7.06076 13.5748C7.31176 13.9738 7.91543 13.8496 8.14886 14.3715C8.24173 14.1294 8.38104 14.0202 8.6195 13.97C8.95835 13.8985 9.2081 13.6526 9.24449 13.2774C9.2834 12.8897 9.0713 12.6237 8.72492 12.5209C8.22793 12.3728 8.24424 12.0478 8.34214 11.6175Z" fill="white"/>
<path d="M16.3513 12.4709C15.9271 12.4972 15.5644 12.5323 15.1565 12.6892C15.1565 11.9351 15.1527 11.2726 15.159 10.6101C15.1615 10.3542 15.1753 10.1183 14.8352 10.0493C14.647 10.0104 14.4675 9.85857 14.4424 9.6804C14.3734 9.19609 14.0408 9.2538 13.7082 9.25506C11.7943 9.25882 9.8804 9.25757 7.96649 9.25757C7.76694 9.25757 7.56865 9.25757 7.28125 9.25757C7.69541 8.54991 7.99159 8.01666 8.93662 8.05681C11.0953 8.14841 13.2614 8.08442 15.4251 8.08693C16.2433 8.08818 16.3513 8.2011 16.3525 9.03172C16.3525 10.1685 16.3513 11.3065 16.3513 12.4709Z" fill="white"/>
<path d="M12.2025 13.3798C11.7983 13.3484 11.4808 12.9896 11.5009 12.5881C11.5235 12.1565 11.8962 11.844 12.3418 11.8867C12.7534 11.9256 13.0308 12.2681 12.9981 12.6972C12.9668 13.1063 12.6116 13.4112 12.2025 13.3798Z" fill="white"/>
<path d="M4.06494 13.3824C3.6558 13.3648 3.34957 13.0298 3.35961 12.6082C3.36966 12.1816 3.67839 11.883 4.10635 11.8868C4.54561 11.8905 4.8945 12.2581 4.86187 12.6797C4.82924 13.0775 4.46403 13.3999 4.06494 13.3824Z" fill="white"/>
<path d="M19.7249 14.8844C20.5971 14.8844 21.4694 14.8806 22.3416 14.8856C23.0419 14.8894 23.2327 15.0789 23.2415 15.7551C23.259 17.1968 23.2051 17.2508 21.7505 17.2508C20.2144 17.2508 18.677 17.2533 17.1408 17.2495C16.438 17.247 16.2033 17.0224 16.1958 16.3273C16.1845 15.2721 16.0402 14.8016 17.6064 14.8794C18.3117 14.9132 19.0196 14.8844 19.7249 14.8844Z" fill="white"/>
<path d="M21.3594 21.4628C21.3594 21.38 21.3594 21.2972 21.3594 21.2144C21.3594 20.2081 21.7886 19.8994 22.7826 20.1905C23.0097 20.257 23.1239 20.3925 23.1214 20.6385C23.1139 21.237 23.1189 21.8367 23.1189 22.4352C23.1189 22.4766 23.1277 22.5243 23.1101 22.5582C22.8089 23.1429 22.2705 22.7853 21.8438 22.8631C21.5627 22.9145 21.3606 22.7828 21.3619 22.454C21.3631 22.124 21.3619 21.7928 21.3619 21.4628C21.3619 21.4628 21.3606 21.4628 21.3594 21.4628Z" fill="white"/>
<path d="M17.2218 21.1317C17.0775 21.1317 16.9331 21.1266 16.7888 21.1317C16.465 21.143 16.3659 20.9673 16.3596 20.6687C16.3533 20.365 16.4788 20.1931 16.7763 20.1743C17.0436 20.1568 17.3122 20.1668 17.5795 20.168C17.9008 20.1706 18.1317 20.2433 18.1304 20.6524C18.1292 21.0501 17.9346 21.1542 17.5908 21.1329C17.469 21.1266 17.3448 21.1329 17.2218 21.1317Z" fill="white"/>
<path d="M19.7224 21.1342C19.5768 21.1342 19.4312 21.1304 19.2856 21.1342C19.0045 21.1405 18.8689 21.0137 18.8602 20.7239C18.8514 20.4403 18.9129 20.2095 19.2329 20.1844C19.5642 20.1593 19.8993 20.1568 20.2306 20.1806C20.5344 20.2019 20.636 20.3989 20.6272 20.7001C20.6184 21.0275 20.4628 21.1455 20.1604 21.1342C20.0135 21.1304 19.8679 21.1342 19.7224 21.1342Z" fill="white"/>
<path d="M17.1972 22.88C16.4379 22.89 16.276 22.767 16.3663 22.2777C16.3914 22.146 16.4354 22.0217 16.5646 21.9941C17.0302 21.895 17.5072 21.8636 17.964 22.0117C18.2238 22.0958 18.1096 22.3655 18.1146 22.5562C18.1196 22.7432 18.0079 22.8674 17.8134 22.8787C17.6088 22.8887 17.403 22.88 17.1972 22.88Z" fill="white"/>
<path d="M19.7405 22.8886C19.5761 22.8886 19.4117 22.8899 19.2473 22.8886C18.9548 22.8861 18.862 22.718 18.8595 22.4494C18.857 22.1973 18.9046 21.9789 19.1946 21.9551C19.5209 21.9275 19.8509 21.9325 20.1797 21.9375C20.5136 21.9413 20.6416 22.1144 20.6278 22.452C20.614 22.7694 20.4759 22.8999 20.1722 22.8911C20.0279 22.8873 19.8848 22.8899 19.7405 22.8899C19.7405 22.8899 19.7405 22.8899 19.7405 22.8886Z" fill="white"/>
<path d="M17.2745 18.4828C17.4415 18.4828 17.6084 18.4778 17.774 18.4841C18.0326 18.4941 18.1317 18.6359 18.1254 18.8919C18.1192 19.134 18.1154 19.38 17.8092 19.4063C17.4578 19.4364 17.1026 19.4327 16.7499 19.4226C16.4224 19.4126 16.3546 19.1943 16.3596 18.9057C16.3646 18.6171 16.4964 18.4841 16.775 18.4816C16.942 18.4791 17.1076 18.4816 17.2745 18.4816C17.2745 18.4803 17.2745 18.4816 17.2745 18.4828Z" fill="white"/>
<path d="M19.7254 19.4227C19.5597 19.4227 19.3916 19.434 19.2271 19.4202C18.941 19.3951 18.8569 19.2132 18.8594 18.9446C18.8619 18.6787 18.9385 18.4917 19.2347 18.4829C19.5258 18.4741 19.817 18.4792 20.1069 18.4766C20.4069 18.4741 20.6278 18.5268 20.6303 18.9158C20.6328 19.306 20.4483 19.4352 20.0994 19.4302C19.9751 19.429 19.8496 19.4302 19.7254 19.4302C19.7254 19.4277 19.7254 19.4252 19.7254 19.4227Z" fill="white"/>
<path d="M22.2869 19.4228C22.0999 19.4228 21.9129 19.4354 21.7272 19.4203C21.4423 19.3965 21.3569 19.2145 21.3594 18.9473C21.3619 18.6838 21.4335 18.4943 21.7297 18.483C21.9995 18.473 22.2693 18.4793 22.5391 18.4768C22.8479 18.4743 23.1165 18.4868 23.129 18.9184C23.1416 19.3639 22.8893 19.4391 22.5366 19.4304C22.4538 19.4291 22.371 19.4304 22.2881 19.4304C22.2869 19.4278 22.2869 19.4253 22.2869 19.4228Z" fill="white"/>
<path d="M8.08409 12.2418C7.79041 12.228 7.6875 12.0624 7.6875 11.8717C7.68876 11.6709 7.81175 11.5266 8.05773 11.5492C8.14809 11.77 8.10919 11.9921 8.08409 12.2418Z" fill="white"/>
<path d="M8.3947 12.875C8.9193 13.2 8.91679 13.3091 8.41102 13.5977C8.32568 13.3794 8.34325 13.1598 8.3947 12.875Z" fill="white"/>
</g>
<defs>
<clipPath id="clip0_298_173">
<rect width="25" height="25" fill="white"/>
</clipPath>
</defs>
</svg>
