<svg width="25" height="25" viewBox="0 0 25 25" fill="none" xmlns="http://www.w3.org/2000/svg">
<g clip-path="url(#clip0_298_194)">
<path d="M25.0017 21.8475C24.2988 21.9504 23.5905 21.8746 22.8822 21.8962C22.6586 21.9044 22.5521 21.8205 22.5547 21.5661C22.5627 19.9911 22.5601 18.4134 22.5601 16.8357C22.5601 16.6787 22.5494 16.4758 22.7544 16.4866C23.5027 16.5245 24.2615 16.3459 25.0017 16.5813C25.0017 18.3349 25.0017 20.0912 25.0017 21.8475Z" fill="white"/>
<path d="M0 5.11329C0.596443 4.9428 1.19022 4.7669 1.78933 4.60453C2.02631 4.53958 2.18074 4.58018 2.25796 4.88868C2.60145 6.25801 2.97955 7.61922 3.35233 8.98314C3.43487 9.28894 3.37097 9.45943 3.04079 9.52708C2.58015 9.6218 2.11418 9.71381 1.67749 9.8843C1.28874 10.0358 1.20354 9.83018 1.12632 9.54332C0.780168 8.22541 0.436681 6.9102 0.0905315 5.59229C0.077218 5.53275 0.0319523 5.47863 0 5.42451C0 5.32167 0 5.21613 0 5.11329Z" fill="white"/>
<path d="M7.61864 2C7.85828 2 8.09793 2 8.33757 2C9.16566 2.14884 9.99642 2.29768 10.8245 2.45193C11.2133 2.52229 11.5461 2.69549 11.8337 2.98235C12.5207 3.66701 13.2289 4.33544 13.9186 5.0174C14.0384 5.13376 14.1502 5.2799 14.2088 5.43415C14.3712 5.85902 14.0677 6.22977 13.639 6.10799C13.2875 6.00786 12.9414 5.85361 12.6192 5.675C11.6153 5.12294 10.5343 4.82796 9.42661 4.61688C9.2775 4.58982 9.12306 4.59794 8.97129 4.60064C8.52662 4.60876 8.21242 4.85773 8.25769 5.20954C8.31094 5.61817 8.57189 5.87796 8.98726 5.83196C9.93784 5.72642 10.8698 5.75619 11.7858 6.04575C12.1213 6.15129 12.4541 6.27848 12.7204 6.52745C12.96 6.75206 13.1118 7.01997 13.0106 7.35013C12.8934 7.72358 12.5633 7.83995 12.2251 7.89678C11.9934 7.93467 11.7538 7.93737 11.5168 7.93737C10.529 7.94008 9.64229 8.27564 8.77957 8.72758C7.7784 9.24987 6.76658 9.4366 5.7015 8.84394C5.29145 8.61662 4.8095 8.53544 4.32756 8.6924C3.97874 8.80606 3.76839 8.63827 3.67786 8.31082C3.40094 7.29059 3.13467 6.27036 2.86574 5.24742C2.80716 5.0201 2.85775 4.84691 3.11337 4.77384C4.59649 4.34626 5.67488 3.23402 6.94498 2.44381C7.16865 2.30039 7.39231 2.14884 7.61864 2Z" fill="white"/>
<path d="M18.5024 23.0017C18.1961 23.0017 17.8873 23.0017 17.5811 22.999C16.8142 22.8908 16.1672 22.4686 15.4935 22.1331C13.9332 21.3591 12.4421 20.4606 11.0388 19.416C10.7113 19.1725 10.5569 18.8396 10.6128 18.4364C10.6687 18.0521 10.8977 17.7788 11.2678 17.657C11.598 17.5488 11.9282 17.5731 12.2477 17.7328C12.8761 18.0521 13.5071 18.3715 14.1409 18.68C14.3166 18.7666 14.4524 18.8775 14.519 19.0642C14.7666 19.7678 15.2938 20.1278 15.9888 20.2306C16.4388 20.2983 16.8967 20.3118 17.3494 20.3253C17.5624 20.3307 17.7781 20.2468 17.7674 19.9843C17.7568 19.73 17.5677 19.6677 17.3334 19.6677C16.8462 19.665 16.3509 19.757 15.8769 19.5757C15.6905 19.5026 15.5015 19.4188 15.3364 19.3078C15.0781 19.1319 14.929 18.8802 15.0409 18.5582C15.1394 18.274 15.3843 18.0819 15.6639 18.1279C16.8382 18.3119 17.8234 17.8356 18.8006 17.2809C19.7059 16.7667 20.7071 16.9399 21.6789 16.9155C21.8786 16.9101 21.884 17.0481 21.884 17.1916C21.884 18.5338 21.884 19.8761 21.884 21.2184C21.884 21.3374 21.8946 21.4619 21.7562 21.5242C20.6724 22.0248 19.7086 22.788 18.5024 23.0017Z" fill="white"/>
<path d="M13.8249 6.79436C14.1205 6.74023 14.424 6.82683 14.6716 6.62657C14.8261 6.50209 14.8767 6.66987 14.9432 6.74835C16.69 8.80235 18.434 10.859 20.2127 12.9563C18.8201 14.2445 17.4355 15.5245 16.0349 16.8181C14.0672 14.5043 12.1235 12.2176 10.1797 9.93624C10.856 8.94036 11.7826 8.46949 12.9995 8.58856C12.8637 8.71034 12.7172 8.85106 12.5628 8.98366C12.2832 9.22181 11.9451 9.42748 12.2699 9.88212C12.3445 9.98766 12.3178 10.1663 12.23 10.2772C11.9637 10.6074 12.1448 10.8347 12.3578 11.0891C13.3217 12.2419 14.2776 13.4002 15.2202 14.5692C15.3879 14.7803 15.5184 14.8453 15.75 14.7018C15.8991 14.6098 16.1015 14.5638 16.2346 14.6748C16.6181 15.0022 16.8551 14.7451 17.108 14.4935C17.3024 14.3013 17.5047 14.12 17.7018 13.9306C17.9947 13.6464 18.466 13.4353 18.0959 12.886C18.0586 12.8292 18.0613 12.6911 18.1039 12.637C18.4953 12.1391 18.0985 11.8522 17.8296 11.5248C16.9403 10.4423 16.0509 9.36253 15.1696 8.27464C15.0178 8.08792 14.9166 7.99049 14.6424 8.11227C14.0592 8.36936 13.7157 8.07438 13.8489 7.45467C13.9021 7.22735 13.8196 7.01897 13.8249 6.79436Z" fill="white"/>
<path d="M16.0625 6.81411C16.2968 6.60573 16.4992 6.42442 16.7308 6.21875C18.5415 8.45947 20.3414 10.684 22.1547 12.9274C20.858 14.1235 19.5586 15.3224 18.2592 16.5212C18.0462 16.3994 17.9237 16.2127 17.7746 16.0206C18.648 15.206 19.5187 14.3968 20.3894 13.5877C20.9405 13.0762 20.9512 12.8435 20.4666 12.2481C19.0048 10.4458 17.543 8.64349 16.0625 6.81411Z" fill="white"/>
<path d="M16.5668 11.6644C16.5615 12.2923 16.0076 12.8443 15.4005 12.8308C14.7775 12.8146 14.2369 12.2571 14.2502 11.6428C14.2636 11.0149 14.8147 10.4737 15.4272 10.4845C16.0582 10.4954 16.5721 11.0258 16.5668 11.6644Z" fill="white"/>
<path d="M13.1618 8.39305L13.1484 8.36328L13.1777 8.36869L13.1618 8.39305Z" fill="white"/>
</g>
<defs>
<clipPath id="clip0_298_194">
<rect width="25" height="25" fill="white"/>
</clipPath>
</defs>
</svg>
