<svg width="25" height="25" viewBox="0 0 25 25" fill="none" xmlns="http://www.w3.org/2000/svg">
<g clip-path="url(#clip0_298_205)">
<path d="M20.1594 17.3656C21.6015 16.3191 23.0004 15.3051 24.4586 14.2504C24.6419 16.0352 24.8171 17.7631 25.0004 19.5479C24.4613 19.3045 23.9653 19.0909 23.4802 18.8556C23.2915 18.7637 23.2106 18.7961 23.0947 18.9773C20.9519 22.3818 17.8899 24.3748 13.9114 24.9021C8.33191 25.6404 2.74431 22.2115 0.800912 16.9086C0.310346 15.5701 0.0408046 14.1963 0.000373379 12.7713C-0.00501746 12.5522 0.0461955 12.4765 0.269915 12.49C0.59067 12.5089 0.91412 12.5117 1.23487 12.49C1.47746 12.4738 1.52328 12.5711 1.53407 12.7902C1.71735 16.8248 3.54215 19.9129 6.9815 21.9762C11.9869 24.9806 18.6041 23.3229 21.7012 18.3581C21.8279 18.1552 21.7874 18.0903 21.588 18.0065C21.1298 17.8172 20.6823 17.6036 20.1594 17.3656Z" fill="white"/>
<path d="M5.29121 6.40141C3.91385 7.55879 2.58501 8.67561 1.21843 9.82218C0.911157 8.05365 0.611965 6.34192 0.304688 4.5761C0.892289 4.79243 1.42598 4.97902 1.94889 5.18724C2.178 5.27918 2.31008 5.25484 2.46911 5.04392C4.50684 2.33434 7.19957 0.673987 10.5392 0.152083C17.0891 -0.870091 23.1025 3.36733 24.5769 9.6464C24.7737 10.482 24.8599 11.3338 24.9085 12.191C24.9219 12.4533 24.833 12.5155 24.5931 12.4993C24.2831 12.4804 23.9705 12.4831 23.6605 12.4966C23.4502 12.5074 23.3855 12.4479 23.3748 12.2235C23.2077 8.343 21.4988 5.31974 18.2616 3.21049C13.6686 0.219687 7.30738 1.30406 3.93542 5.60368C3.77908 5.80108 3.78986 5.87409 4.03245 5.94981C4.43137 6.07691 4.82221 6.23104 5.29121 6.40141Z" fill="white"/>
<path d="M8.46895 7.19493C7.94065 7.48698 7.7924 7.97643 8.05386 8.42532C8.29106 8.83095 8.83823 8.97156 9.24523 8.73089C9.66572 8.48211 9.81127 7.92235 9.52556 7.51402C9.29914 7.18952 9.41505 6.8488 9.40696 6.51618C9.40157 6.3296 9.59833 6.41613 9.70076 6.41613C11.6091 6.41072 13.5175 6.40802 15.4285 6.41613C15.6765 6.41613 15.8301 6.3999 15.7951 6.08892C15.7708 5.8807 15.9245 5.79688 16.1159 5.79688C16.3126 5.79688 16.442 5.89152 16.442 6.09433C16.4501 6.72981 16.4528 7.36259 16.4474 7.99806C16.4447 8.22251 16.3207 8.35501 16.0889 8.34149C15.876 8.33068 15.7762 8.20629 15.7843 7.98725C15.7897 7.81959 15.7951 7.65193 15.7843 7.48698C15.7789 7.39774 15.8517 7.25983 15.725 7.22738C15.6307 7.20304 15.5498 7.3085 15.4824 7.38152C15.1752 7.70872 15.1698 8.22792 15.469 8.56864C15.752 8.88774 16.2668 8.94452 16.6145 8.69304C16.9784 8.43073 17.1239 7.93587 16.8679 7.57351C16.6307 7.23819 16.7466 6.88936 16.7088 6.54863C16.6954 6.41613 16.7843 6.41072 16.8787 6.41342C17.2345 6.41613 17.5902 6.3945 17.9433 6.42154C18.4797 6.4621 18.884 6.9164 18.884 7.49239C18.8867 11.0321 18.8867 14.5746 18.876 18.1143C18.8733 18.7633 18.4474 19.1825 17.8086 19.1825C14.2452 19.1879 10.6846 19.1879 7.12125 19.1852C6.42583 19.1852 6.02151 18.7444 6.01882 18.0062C6.01612 14.6206 6.01882 11.2377 6.01882 7.85204C6.01882 7.66275 6.00265 7.47616 6.04308 7.28687C6.15359 6.76497 6.53634 6.42695 7.07003 6.41613C7.45817 6.40802 7.84631 6.40802 8.23445 6.41613C8.39618 6.41883 8.48243 6.39179 8.46626 6.2025C8.4447 5.95372 8.53904 5.78606 8.82205 5.80228C9.0916 5.8158 9.13203 5.99698 9.12933 6.22143C9.12394 6.7893 9.12394 7.35718 9.12933 7.92505C9.13203 8.16843 9.07003 8.34961 8.78432 8.3442C8.51747 8.33879 8.45817 8.16572 8.46356 7.93857C8.47435 7.70331 8.46895 7.47075 8.46895 7.19493ZM12.4636 9.67194C10.6091 9.67194 8.75736 9.67735 6.90292 9.66653C6.66033 9.66383 6.58755 9.71791 6.58755 9.97481C6.59833 12.6573 6.59294 15.3399 6.59564 18.0251C6.59564 18.4524 6.77084 18.6281 7.2048 18.6281C10.69 18.6308 14.1752 18.6308 17.6576 18.6281C18.1617 18.6281 18.318 18.4686 18.318 17.971C18.318 15.3101 18.3126 12.6492 18.3261 9.98833C18.3261 9.7125 18.2371 9.66653 17.9892 9.66653C16.1482 9.67735 14.3072 9.67194 12.4636 9.67194Z" fill="white"/>
<path d="M9.66171 11.3988C9.65632 12.4426 9.76953 12.3101 8.73988 12.3182C8.56198 12.3209 8.38408 12.3074 8.20888 12.3209C7.91778 12.3425 7.81266 12.2046 7.82074 11.9288C7.83152 11.5745 7.82613 11.2203 7.82074 10.8633C7.81805 10.601 7.92317 10.4766 8.1981 10.4847C8.56198 10.4983 8.92856 10.4956 9.29244 10.4847C9.56468 10.4766 9.67519 10.601 9.66171 10.866C9.65363 11.0445 9.66171 11.2203 9.66171 11.3988Z" fill="white"/>
<path d="M8.74215 15.0573C8.55347 15.0573 8.36479 15.0519 8.17611 15.06C7.9443 15.0681 7.82031 14.9762 7.82301 14.7301C7.8257 14.3407 7.82301 13.9513 7.82031 13.5619C7.82031 13.3483 7.92004 13.2266 8.14107 13.2266C8.53999 13.2266 8.93891 13.2266 9.33783 13.2266C9.55886 13.2266 9.65859 13.3374 9.65589 13.5592C9.6505 13.9378 9.64781 14.3163 9.65859 14.6949C9.66667 14.9518 9.55616 15.0654 9.30549 15.06C9.1195 15.0519 8.93082 15.0573 8.74215 15.0573Z" fill="white"/>
<path d="M9.66424 16.8871C9.65885 17.9092 9.77476 17.7957 8.75589 17.793C7.76397 17.7902 7.81519 17.9444 7.82327 16.8735C7.83136 15.8378 7.72893 15.9703 8.73432 15.9703C9.77745 15.9703 9.65616 15.8432 9.66424 16.8871Z" fill="white"/>
<path d="M14.6047 11.4205C14.5885 12.4345 14.7529 12.3101 13.6963 12.3183C13.5292 12.321 13.3621 12.3047 13.1977 12.3183C12.8985 12.3453 12.7664 12.2344 12.7826 11.9235C12.8014 11.5692 12.796 11.2123 12.7853 10.8553C12.7772 10.5795 12.8958 10.4767 13.1653 10.4848C13.5211 10.4984 13.8769 10.4984 14.23 10.4848C14.4969 10.4767 14.6262 10.5741 14.6101 10.8526C14.5939 11.0419 14.6047 11.2312 14.6047 11.4205Z" fill="white"/>
<path d="M15.2549 11.4027C15.263 10.3833 15.1228 10.4887 16.1498 10.4887C17.1983 10.4914 17.0662 10.3562 17.0743 11.4054C17.0743 11.5488 17.077 11.6948 17.077 11.8381C17.0743 12.287 17.0447 12.3194 16.6134 12.3194C16.2926 12.3194 15.9692 12.3059 15.6484 12.3194C15.3681 12.3303 15.2306 12.2329 15.2522 11.9355C15.2684 11.7597 15.2549 11.5812 15.2549 11.4027Z" fill="white"/>
<path d="M14.6007 16.9563C14.5845 17.919 14.7571 17.7811 13.6951 17.7919C13.4956 17.7946 13.2961 17.7865 13.0967 17.7919C12.8676 17.7973 12.7786 17.6891 12.7813 17.4647C12.7867 17.0753 12.7867 16.6859 12.7813 16.2965C12.7786 16.0531 12.8918 15.9585 13.1263 15.9612C13.5037 15.9693 13.881 15.9693 14.2584 15.9612C14.4956 15.9557 14.6115 16.0504 14.6034 16.2938C14.5953 16.4966 14.6007 16.6967 14.6007 16.9563Z" fill="white"/>
<path d="M12.1323 11.3961C12.1242 12.4508 12.2563 12.3129 11.2105 12.3156C10.1674 12.3156 10.3129 12.4291 10.3102 11.4124C10.3075 10.3523 10.1997 10.4903 11.2294 10.4903C12.2455 10.4903 12.1269 10.3659 12.1323 11.3961Z" fill="white"/>
<path d="M12.1324 14.1551C12.1189 15.161 12.2726 15.0583 11.2267 15.0556C10.1755 15.0529 10.3103 15.1827 10.3103 14.1335C10.3103 13.114 10.1836 13.2357 11.2133 13.2276C11.4019 13.2276 11.5906 13.2357 11.7793 13.2276C12.0381 13.214 12.1405 13.3384 12.1324 13.5899C12.127 13.7765 12.1324 13.9658 12.1324 14.1551Z" fill="white"/>
<path d="M14.6031 14.1324C14.5896 15.187 14.7405 15.0572 13.6866 15.0545C12.6516 15.0518 12.7891 15.187 12.7864 14.1513C12.7864 13.0751 12.657 13.2319 13.7001 13.2292C14.7351 13.2265 14.5896 13.0994 14.6031 14.1324Z" fill="white"/>
<path d="M17.0746 14.1473C17.0638 15.1749 17.1986 15.0505 16.1743 15.0532C15.1123 15.0559 15.2579 15.1667 15.2579 14.1338C15.2579 13.1467 15.1042 13.2225 16.1554 13.2252C17.2013 13.2279 17.0665 13.1143 17.0746 14.1473Z" fill="white"/>
<path d="M12.1265 16.8892C12.1184 17.9168 12.2505 17.7924 11.2236 17.7924C10.1858 17.7924 10.299 17.9357 10.3017 16.8756C10.3044 15.8508 10.1724 15.9698 11.202 15.9698C12.2613 15.967 12.1157 15.8535 12.1265 16.8892Z" fill="white"/>
</g>
<defs>
<clipPath id="clip0_298_205">
<rect width="25" height="25" fill="white"/>
</clipPath>
</defs>
</svg>
