<svg width="15" height="15" viewBox="0 0 15 15" fill="none" xmlns="http://www.w3.org/2000/svg">
<g clip-path="url(#clip0_3232_871)">
<path d="M8.74546 9.51796C8.82718 9.53593 8.9069 9.5559 8.98862 9.57187C9.40519 9.65772 9.68822 9.40217 9.56863 9.00086C9.461 8.63949 9.56863 8.44582 9.89751 8.32204C10.053 8.26414 10.2025 8.19027 10.3559 8.12238C10.6948 7.97065 10.9459 8.00658 11.1392 8.37994C11.3087 8.70537 11.7232 8.71136 11.8887 8.39192C12.09 8.00259 12.3511 7.96266 12.7039 8.13237C12.8673 8.21023 13.0328 8.28211 13.1982 8.35199C13.4713 8.46579 13.5629 8.6335 13.4812 8.94296C13.3517 9.43611 13.5988 9.6697 14.1131 9.54592C14.3961 9.47803 14.5675 9.55989 14.6751 9.81944C14.7489 9.99913 14.8286 10.1768 14.9083 10.3545C15.0598 10.6919 15.0399 10.9435 14.6592 11.1372C14.3323 11.3029 14.3203 11.7241 14.6373 11.8899C15.0518 12.1035 15.0638 12.381 14.8864 12.7424C14.8127 12.8921 14.7529 13.0478 14.6851 13.1996C14.5715 13.4631 14.416 13.5729 14.0991 13.4871C13.6048 13.3533 13.3556 13.6129 13.4852 14.116C13.5609 14.4075 13.4732 14.5692 13.2201 14.679C13.0427 14.7569 12.8613 14.8288 12.6859 14.9106C12.3491 15.0683 12.1 15.0384 11.9026 14.669C11.7312 14.3476 11.3067 14.3356 11.1472 14.6511C10.9459 15.0444 10.6848 15.0723 10.332 14.9066C10.1686 14.8288 10.0012 14.7629 9.83572 14.693C9.56863 14.5752 9.47296 14.4055 9.55667 14.096C9.68424 13.6248 9.42313 13.3513 8.96072 13.4831C8.62587 13.5769 8.46243 13.4611 8.34284 13.1816C8.27307 13.0159 8.2073 12.8462 8.12957 12.6845C7.96613 12.3391 8.02393 12.0995 8.38669 11.9038C8.72552 11.7221 8.70958 11.3129 8.36077 11.1252C8.0319 10.9475 7.96613 10.7299 8.11362 10.4124C8.21727 10.1848 8.31692 9.95521 8.42256 9.7296C8.48435 9.59383 8.57404 9.49001 8.74546 9.51796ZM11.5379 12.8462C12.2594 12.8362 12.8574 12.2213 12.8454 11.5025C12.8334 10.7778 12.2255 10.1868 11.502 10.1968C10.7745 10.2068 10.1885 10.8097 10.1965 11.5385C10.2045 12.2592 10.8164 12.8582 11.5379 12.8462Z" fill="#283942"/>
<path d="M7.11271 2.68744C7.62695 2.68744 8.14318 2.67346 8.65742 2.69343C8.91254 2.70341 9.02017 2.62155 9.08395 2.37398C9.23942 1.76104 9.49255 1.62528 10.1244 1.76304C10.232 1.787 10.3197 1.82893 10.3277 1.93674C10.3357 2.05254 10.238 2.1344 10.1403 2.11044C9.41881 1.93474 9.41681 2.49377 9.29722 2.92902C9.11186 3.59986 8.92649 4.27069 8.75907 4.94552C8.69529 5.20507 8.57968 5.31089 8.30263 5.3049C7.57911 5.28693 6.85559 5.28893 6.13207 5.3049C5.87695 5.31089 5.75935 5.21905 5.69956 4.97148C5.54808 4.35055 5.38464 3.72963 5.20724 3.1147C5.11755 2.80523 5.18931 2.67146 5.52814 2.68145C6.05434 2.69742 6.58452 2.68744 7.11271 2.68744Z" fill="#283942"/>
<path d="M1.57005 13.8181C1.16543 13.6883 1.00797 13.3748 1.00797 12.9875C1.00199 9.93877 1.00598 6.89205 1 3.84334C1 3.65367 1.0877 3.53387 1.2033 3.41009C2.1959 2.35991 3.19248 1.30973 4.17312 0.249567C4.35251 0.0559031 4.53986 0 4.793 0C6.73833 0.00798616 8.68366 0.00399308 10.629 0.00399308C11.3266 0.00399308 11.486 0.127779 11.6993 0.820578C11.5917 0.822574 11.4821 0.824571 11.3744 0.826567C11.3087 0.592972 11.1651 0.435246 10.9339 0.361374C10.8682 0.169706 10.7027 0.239585 10.5772 0.239585C8.75541 0.235592 6.93565 0.235592 5.1139 0.237588C4.98235 0.237588 4.82887 0.193664 4.74317 0.353388C4.71726 0.371356 4.69134 0.389325 4.66543 0.407294C4.46213 0.439239 4.50399 0.598962 4.50399 0.728737C4.50199 1.48742 4.50199 2.24611 4.50399 3.00479C4.50399 3.14056 4.48206 3.2883 4.64749 3.35818C4.58571 3.7495 4.32062 3.87728 3.96384 3.87728C3.21441 3.87728 2.46298 3.88926 1.71355 3.87129C1.44248 3.8653 1.36076 3.94117 1.36076 4.22068C1.37272 7.09969 1.37073 9.9787 1.36674 12.8577C1.36674 13.2051 1.48235 13.4507 1.83514 13.5485C1.83912 13.7302 1.60991 13.6803 1.57005 13.8181ZM4.11333 3.52789C4.21099 3.46599 4.29869 3.38813 4.30068 3.26634C4.30467 2.42779 4.30268 1.58925 4.30268 0.650872C3.38383 1.6711 2.47096 2.5396 1.66372 3.50992C1.69163 3.68162 1.81919 3.67363 1.94675 3.67363C2.56464 3.67363 3.18451 3.67363 3.80239 3.67363C3.92995 3.67363 4.05552 3.67164 4.11333 3.52789Z" fill="#283942"/>
<path d="M11.3788 0.828255C11.4864 0.826259 11.5961 0.824262 11.7037 0.822266C11.7117 1.65682 11.7256 2.49137 11.7276 3.32593C11.7316 4.8433 11.7296 6.36266 11.7256 7.88003C11.7256 8.02179 11.7754 8.23542 11.5542 8.23941C11.3369 8.2434 11.3688 8.03776 11.3688 7.89002C11.3728 5.5361 11.3748 3.18218 11.3788 0.828255Z" fill="#283942"/>
<path d="M6.29249 7.68421C7.37876 7.68421 8.46305 7.68222 9.54932 7.68621C9.69881 7.68621 9.936 7.61034 9.934 7.86789C9.93201 8.09151 9.71276 8.02961 9.57324 8.03161C7.37478 8.0356 5.17631 8.0356 2.97785 8.03361C2.83434 8.03361 2.62506 8.07753 2.63303 7.85392C2.64101 7.6363 2.85029 7.68621 2.99579 7.68621C4.09402 7.68421 5.19226 7.68621 6.29249 7.68421Z" fill="#283942"/>
<path d="M1.57031 13.8179C1.61018 13.6802 1.83939 13.7301 1.8354 13.5484C3.8784 13.5444 5.92139 13.5404 7.96439 13.5364C8.10391 13.5364 8.26934 13.5204 8.26336 13.7261C8.25938 13.8718 8.1358 13.8858 8.01821 13.8858C5.9194 13.8838 3.8206 13.8798 1.72179 13.8758C1.66997 13.8738 1.62014 13.8379 1.57031 13.8179Z" fill="#283942"/>
<path d="M5.5511 9.3641C4.69005 9.3641 3.829 9.3661 2.96596 9.3621C2.82046 9.3621 2.61915 9.40004 2.62513 9.17443C2.63111 8.98076 2.81647 9.01271 2.95002 9.01271C4.68606 9.01071 6.42411 9.01071 8.16015 9.01271C8.29569 9.01271 8.48105 8.98675 8.48105 9.17842C8.48305 9.40203 8.27974 9.3621 8.13424 9.3621C7.27519 9.3661 6.41215 9.3641 5.5511 9.3641Z" fill="#283942"/>
<path d="M4.81949 10.6916C4.19364 10.6916 3.56778 10.6916 2.94193 10.6916C2.80042 10.6916 2.62701 10.7036 2.62502 10.5139C2.62302 10.3203 2.79842 10.3363 2.93794 10.3363C4.21756 10.3363 5.49518 10.3363 6.77479 10.3363C6.9163 10.3363 7.08373 10.3303 7.07177 10.5299C7.0618 10.6916 6.90833 10.6896 6.78077 10.6896C6.12701 10.6916 5.47325 10.6916 4.81949 10.6916Z" fill="#283942"/>
<path d="M4.11475 12.0253C3.71412 12.0253 3.3115 12.0233 2.91088 12.0253C2.77734 12.0253 2.63582 12.0074 2.62585 11.8536C2.6119 11.664 2.77136 11.648 2.91486 11.648C3.73206 11.646 4.54727 11.646 5.36446 11.648C5.50399 11.648 5.6754 11.646 5.67341 11.8377C5.67141 12.0233 5.50399 12.0233 5.36247 12.0233C4.94391 12.0253 4.52933 12.0253 4.11475 12.0253Z" fill="#283942"/>
<path d="M4.74219 0.355721C4.82789 0.195998 4.98137 0.239921 5.11292 0.239921C6.93467 0.237925 8.75443 0.237925 10.5762 0.241918C10.7018 0.241918 10.8652 0.172039 10.933 0.363707C8.86804 0.359714 6.80511 0.357717 4.74219 0.355721Z" fill="#283942"/>
<path d="M8.0743 6.50083C7.8132 6.47089 7.61587 6.33312 7.58797 6.01967C7.56206 5.72418 7.78729 5.47262 8.08028 5.47661C8.38524 5.4806 8.5706 5.64632 8.60249 5.95179C8.63239 6.23729 8.3952 6.49085 8.0743 6.50083Z" fill="#283942"/>
<path d="M5.8438 5.97575C5.84778 5.68425 6.08896 5.44866 6.38395 5.47461C6.68691 5.50257 6.86231 5.67826 6.86031 5.99172C6.85633 6.30917 6.661 6.46889 6.368 6.49684C6.08497 6.5228 5.83981 6.26524 5.8438 5.97575Z" fill="#283942"/>
<path d="M4.64702 3.35811C4.48159 3.28823 4.50351 3.14049 4.50351 3.00472C4.50152 2.24604 4.50152 1.48735 4.50351 0.728669C4.50351 0.598894 4.46166 0.437175 4.66695 0.407227C4.66097 1.39152 4.653 2.37581 4.64702 3.35811Z" fill="#283942"/>
<path d="M1.66406 3.50977C2.48126 3.51576 3.29647 3.52174 4.11366 3.52773C4.05586 3.67149 3.93029 3.67348 3.80273 3.67348C3.18485 3.67348 2.56497 3.67348 1.94709 3.67348C1.82152 3.67348 1.69197 3.68147 1.66406 3.50977Z" fill="#283942"/>
</g>
<defs>
<clipPath id="clip0_3232_871">
<rect width="15" height="15" fill="white"/>
</clipPath>
</defs>
</svg>
