<svg width="15" height="15" viewBox="0 0 15 15" fill="none" xmlns="http://www.w3.org/2000/svg">
<g clip-path="url(#clip0_3235_915)">
<mask id="mask0_3235_915" style="mask-type:luminance" maskUnits="userSpaceOnUse" x="0" y="0" width="15" height="15">
<path d="M15 0H0V15H15V0Z" fill="white"/>
</mask>
<g mask="url(#mask0_3235_915)">
<path d="M8.30294 10.8364C7.65362 10.8364 7.01357 10.8364 6.36424 10.8364C4.58324 10.8364 3.52577 9.96447 3.18256 8.22058C2.8579 6.53233 2.53323 4.86264 2.18074 3.18368C2.02305 2.42304 1.72622 2.19114 0.937753 2.18186C0.575986 2.18186 0.279153 2.052 0.102908 1.72734C-0.0455094 1.43978 -0.0362333 1.12439 0.149288 0.846111C0.269877 0.669866 0.436846 0.540001 0.659471 0.521449C2.07871 0.40086 3.41446 1.02236 3.75767 2.54363C4.08234 3.99997 4.36062 5.46559 4.65745 6.9312C4.75021 7.37645 4.8337 7.83098 4.94501 8.27623C5.0656 8.75859 5.39953 9.05542 5.89117 9.1018C7.33823 9.24094 8.7853 9.12963 10.2416 9.16673C10.3901 9.16673 10.4364 9.07397 10.5014 8.98121C11.1507 8.10926 11.6238 7.13528 12.1247 6.17984C12.2638 5.90156 12.403 5.62328 12.5421 5.345C12.774 4.87192 13.2285 4.6864 13.6552 4.89047C14.0912 5.09454 14.286 5.5769 14.0726 6.03143C13.414 7.41356 12.7276 8.77714 11.8371 10.0294C11.4382 10.5952 10.9281 10.9014 10.1953 10.8457C9.57376 10.7993 8.94299 10.8364 8.30294 10.8364Z" fill="#283942"/>
<path d="M10.2726 4.17617C10.2819 5.26147 9.69752 6.08704 9.0482 6.87551C8.98327 6.95899 8.87195 7.01465 8.77919 6.94971C8.68643 6.87551 8.71426 6.75492 8.76064 6.66216C8.92761 6.32822 8.99254 5.96645 9.02037 5.59541C9.0853 4.56577 8.53802 3.83296 7.86086 3.15581C7.75883 3.05377 7.69389 3.10015 7.61041 3.18364C7.39706 3.39698 7.19299 3.61961 6.97036 3.81441C6.71991 4.02776 6.4509 3.91644 6.38597 3.60106C6.19117 2.55286 6.08914 1.50467 6.03348 0.4472C6.01493 0.0947094 6.10769 -0.0166032 6.47873 0.00194892C7.5362 0.0668813 8.5844 0.159642 9.62331 0.354439C9.99436 0.419371 10.0685 0.706929 9.81811 0.985211C9.64187 1.17073 9.46562 1.35625 9.2801 1.52322C9.12241 1.65309 9.12241 1.74585 9.27082 1.90354C9.7068 2.35807 10.05 2.86825 10.2077 3.48975C10.2633 3.71237 10.2726 3.94427 10.2726 4.17617Z" fill="#283942"/>
<path d="M10.6196 14.0642C9.83107 14.0642 9.22813 13.4891 9.21885 12.7191C9.20958 11.9492 9.84035 11.3092 10.6103 11.3185C11.3709 11.3185 11.9739 11.9307 11.9832 12.7006C11.9832 13.4798 11.408 14.0642 10.6196 14.0642Z" fill="#283942"/>
<path d="M5.71818 14.0641C4.93899 14.0641 4.32677 13.4611 4.33604 12.7005C4.34532 11.9399 4.96682 11.3184 5.72745 11.3184C6.46954 11.3184 7.11886 11.9677 7.10958 12.7098C7.10958 13.4704 6.49736 14.0641 5.71818 14.0641Z" fill="#283942"/>
</g>
</g>
<defs>
<clipPath id="clip0_3235_915">
<rect width="15" height="15" fill="white"/>
</clipPath>
</defs>
</svg>
