<svg width="15" height="15" viewBox="0 0 15 15" fill="none" xmlns="http://www.w3.org/2000/svg">
<g clip-path="url(#clip0_3235_907)">
<path d="M14.9973 14.9933C14.3351 14.9933 13.673 14.9865 13.0108 14.9978C12.8132 15.0008 12.7544 14.942 12.7589 14.7443C12.7718 14.195 12.7559 13.6449 12.7672 13.0956C12.7718 12.8994 12.7431 12.8066 12.5108 12.8142C11.9618 12.8323 11.4113 12.8278 10.8623 12.8157C10.6767 12.8119 10.6322 12.8738 10.636 13.0496C10.6466 13.5989 10.6307 14.1489 10.6443 14.6982C10.6496 14.9125 10.6157 15.0091 10.3653 15.0001C9.80343 14.9797 9.24084 14.9857 8.679 14.9978C8.48141 15.0016 8.39695 14.9684 8.39846 14.7397C8.40902 13.1786 8.40374 11.6168 8.40374 10.0549C8.40374 9.93189 8.37885 9.8074 8.55532 9.76514C8.89242 9.68516 9.225 9.58934 9.55306 9.50257C9.65261 9.6248 9.48669 9.85041 9.68277 9.88587C9.89921 9.9251 10.139 9.92359 10.3509 9.87078C10.4739 9.8406 10.4128 9.64442 10.403 9.52973C10.3721 9.18189 10.4347 8.90347 10.7853 8.72842C10.9475 8.64769 11.0877 8.50282 11.2069 8.36097C11.3887 8.14517 11.5915 8.01917 11.8826 8.06897C12.0666 8.10066 12.1383 8.00408 12.1119 7.83205C12.044 7.38914 12.2107 7.00659 12.3887 6.61726C12.6835 5.97289 12.8178 5.28476 12.8012 4.58079C12.7936 4.2503 12.9022 4.19447 13.1994 4.20503C13.7982 4.22541 14.3977 4.20277 14.9973 4.19824C14.9973 7.79658 14.9973 11.3949 14.9973 14.9933ZM13.8019 11.2108C13.8902 10.9143 13.8298 10.7536 13.4249 10.7604C13.0674 10.7664 12.946 10.8509 12.9874 11.2101C13.0199 11.4938 12.9068 11.7767 13.4128 11.7601C13.857 11.745 13.854 11.5466 13.8019 11.2108ZM12.1051 11.2689C12.1488 10.9633 12.1624 10.7438 11.725 10.7581C11.3638 10.7702 11.2416 10.8532 11.2884 11.2123C11.3223 11.4749 11.1835 11.7714 11.682 11.7563C12.0908 11.745 12.1858 11.6107 12.1051 11.2689ZM11.3027 9.44145C11.2491 9.73873 11.2763 9.9251 11.6903 9.91756C12.0621 9.91077 12.1594 9.80513 12.1217 9.45805C12.0915 9.1751 12.2069 8.88914 11.6948 8.908C11.2431 8.9246 11.2642 9.13436 11.3027 9.44145ZM13.808 5.7488C13.8442 5.45076 13.86 5.22893 13.4249 5.24402C13.0591 5.25609 12.949 5.35191 12.9882 5.70428C13.0199 5.98421 12.9 6.27093 13.4113 6.25207C13.854 6.23622 13.8577 6.04834 13.808 5.7488ZM13.8049 7.56871C13.869 7.25483 13.8185 7.08959 13.4135 7.09034C13.0199 7.09034 12.9663 7.23295 12.9859 7.56494C13.0033 7.8577 12.9354 8.0999 13.4037 8.09387C13.8494 8.08783 13.8615 7.88939 13.8049 7.56871ZM13.8072 9.42485C13.8434 9.12757 13.8728 8.89593 13.4294 8.91328C13.0704 8.92762 12.9437 9.00911 12.989 9.36902C13.0236 9.64366 12.8909 9.94019 13.4068 9.92209C13.8442 9.90699 13.8645 9.73119 13.8072 9.42485ZM10.3917 11.2561C10.4761 10.9369 10.4241 10.7498 9.99423 10.7596C9.6428 10.7672 9.54627 10.8683 9.58096 11.1965C9.61037 11.4734 9.47387 11.788 9.99574 11.7556C10.3819 11.733 10.4769 11.6115 10.3917 11.2561Z" fill="#283942"/>
<path d="M8.10635 0C8.57091 0.150905 9.05658 0.229376 9.50077 0.449698C9.71721 0.556841 9.81072 0.637575 9.64481 0.879779C9.43365 1.18687 9.25567 1.51811 9.08297 1.84935C8.99247 2.02364 8.91178 2.03722 8.73833 1.95423C8.07015 1.63431 7.37256 1.57621 6.66517 1.80407C6.47588 1.86519 6.38463 1.84633 6.31299 1.64864C6.17799 1.2744 6.02415 0.906942 5.86502 0.542505C5.79338 0.379527 5.82053 0.298038 5.99549 0.250503C6.27603 0.174296 6.55356 0.0852616 6.83184 0.00150905C7.25643 0 7.68101 0 8.10635 0Z" fill="#283942"/>
<path d="M5.40573 9.4894C5.78582 9.59126 6.10784 9.68331 6.43288 9.76254C6.57164 9.79649 6.6003 9.87496 6.59955 10.004C6.59653 11.6021 6.59502 13.2002 6.60106 14.7975C6.60181 14.9778 6.52187 14.9967 6.37632 14.9952C5.77677 14.9899 5.17722 14.9854 4.57843 14.9974C4.38386 15.0012 4.35671 14.919 4.35897 14.7537C4.36652 14.1924 4.35445 13.6302 4.36576 13.0689C4.36953 12.878 4.32504 12.8093 4.12066 12.8154C3.57164 12.8297 3.02187 12.8304 2.47285 12.8154C2.26169 12.8093 2.23002 12.8923 2.23303 13.0749C2.24284 13.6242 2.22775 14.1735 2.24133 14.7228C2.24661 14.9303 2.19457 15.005 1.97436 14.999C1.40045 14.9839 0.825792 14.9869 0.251885 14.9982C0.0618401 15.0012 0 14.9544 0 14.753C0.00678733 11.3199 0.00603318 7.88678 0 4.45368C0 4.2477 0.0708899 4.20544 0.259427 4.20922C0.821267 4.22053 1.38311 4.22129 1.94495 4.20922C2.14329 4.20469 2.19683 4.26581 2.19382 4.46274C2.17949 5.37647 2.37858 6.24342 2.80995 7.05227C2.94344 7.30202 2.87406 7.56686 2.88235 7.82416C2.88763 7.98713 2.91554 8.10182 3.10784 8.06938C3.41403 8.01882 3.62896 8.1486 3.81222 8.38175C3.89517 8.48814 4.00151 8.59 4.11916 8.65338C4.51659 8.86918 4.67195 9.18834 4.59276 9.63049C4.55505 9.84101 4.64404 9.9308 4.85822 9.89911C4.90724 9.89156 4.95852 9.89156 5.00754 9.89911C5.30618 9.94362 5.5 9.87722 5.40573 9.4894ZM1.98944 11.2346C2.09201 10.9034 1.9917 10.7608 1.5822 10.76C1.21041 10.7593 1.15008 10.8943 1.17949 11.2067C1.20588 11.4859 1.08069 11.79 1.60106 11.7598C2.0098 11.7356 2.05279 11.5772 1.98944 11.2346ZM3.69683 11.298C3.73152 10.9849 3.76999 10.7276 3.30392 10.76C2.97662 10.7827 2.83484 10.8377 2.87783 11.1901C2.91176 11.4663 2.77074 11.7854 3.2911 11.756C3.66968 11.7341 3.77828 11.6232 3.69683 11.298ZM1.17572 7.56083C1.23906 7.71928 1.06259 7.97657 1.27903 8.05202C1.47738 8.12144 1.74133 8.11238 1.93891 8.03844C2.0905 7.98185 1.98643 7.74418 2.00377 7.58799C2.01508 7.48915 2.00603 7.38879 2.00528 7.28844C2.00452 7.21374 2.0083 7.12094 1.90875 7.11792C1.68552 7.11188 1.44646 7.07491 1.24284 7.14131C1.10483 7.18658 1.21267 7.41067 1.17572 7.56083ZM3.69759 9.42073C3.73379 9.12194 3.75339 8.89785 3.31599 8.91369C2.95249 8.92652 2.83484 9.01706 2.87858 9.37245C2.91176 9.64785 2.78205 9.94362 3.29789 9.92325C3.73756 9.9059 3.75189 9.72405 3.69759 9.42073ZM1.99246 5.76052C2.06033 5.42778 2.02338 5.23311 1.58899 5.24443C1.22775 5.25348 1.14706 5.37043 1.18024 5.68884C1.20814 5.95444 1.06259 6.2653 1.57692 6.2487C1.98265 6.23663 2.07919 6.10912 1.99246 5.76052ZM2.00603 9.41772C1.99698 8.86314 2.07919 8.95444 1.54525 8.92426C1.25189 8.90766 1.13876 8.99443 1.18024 9.2902C1.2006 9.43658 1.18401 9.58748 1.18401 9.73688C1.18401 9.81082 1.1825 9.87043 1.28356 9.90137C1.74359 10.0432 2.00603 9.8727 2.00603 9.41772ZM5.40196 11.2407C5.46456 10.926 5.41931 10.757 5.01207 10.7585C4.62293 10.76 4.56033 10.8943 4.58296 11.2308C4.60256 11.5221 4.5279 11.7673 5 11.759C5.44042 11.7507 5.4638 11.5636 5.40196 11.2407Z" fill="#283942"/>
<path d="M7.66599 9.14495C5.44653 9.12835 3.64186 7.76341 3.10038 5.81975C2.54985 3.84591 3.36207 1.75813 5.08907 0.680667C5.3123 0.54108 5.45408 0.50788 5.51969 0.814973C5.53477 0.886653 5.5672 0.957578 5.60415 1.02171C5.96086 1.6442 6.00988 2.09541 5.35377 2.68771C4.27534 3.6618 4.36358 5.43343 5.35302 6.51467C6.37489 7.63137 8.04759 7.79737 9.24669 6.87383C9.46388 6.70632 9.57926 6.71688 9.76554 6.88213C10.0355 7.12207 10.3198 7.34918 10.6155 7.55667C10.8078 7.69249 10.7799 7.77322 10.623 7.91507C9.73311 8.7194 8.69088 9.1276 7.66599 9.14495Z" fill="#283942"/>
<path d="M12.0781 4.79158C12.0638 5.52498 11.8006 6.37986 11.2787 7.15778C11.1566 7.33962 11.0744 7.40375 10.8828 7.23474C10.594 6.9782 10.287 6.74052 9.97406 6.51341C9.81192 6.39571 9.82474 6.31572 9.92353 6.15577C10.7003 4.89495 10.5389 3.52096 9.49141 2.47216C9.3534 2.33408 9.32399 2.2443 9.4356 2.07302C9.63922 1.76064 9.82248 1.43318 9.99367 1.10119C10.106 0.883129 10.192 0.85823 10.3949 1.02347C11.4454 1.87911 12.0804 3.2033 12.0781 4.79158Z" fill="#283942"/>
<path d="M7.49328 6.48134C7.30851 6.50851 7.16673 6.47908 7.20821 6.23763C7.23309 6.09352 7.13506 6.04749 7.02947 5.99543C6.83038 5.89659 6.68407 5.73436 6.63053 5.5246C6.60112 5.40992 6.44652 5.20393 6.68785 5.16243C6.83717 5.13678 7.08754 4.97606 7.16447 5.31183C7.2067 5.49518 7.36809 5.55629 7.54757 5.53139C7.69463 5.51102 7.79946 5.42501 7.8334 5.27335C7.87714 5.07717 7.72631 5.01907 7.59433 4.9489C7.40806 4.8493 7.21952 4.75348 7.03626 4.64633C6.4616 4.31132 6.42993 3.59 6.96688 3.19462C7.05889 3.12672 7.22932 3.1237 7.2067 2.9494C7.17804 2.72984 7.24365 2.64231 7.48724 2.64457C7.72932 2.64684 7.8349 2.71097 7.79493 2.95997C7.77683 3.07541 7.8794 3.09804 7.95406 3.13653C8.13807 3.2316 8.27608 3.37118 8.35074 3.5651C8.40278 3.6994 8.49931 3.91369 8.36055 3.95821C8.20745 4.00725 7.93898 4.11817 7.83189 3.81485C7.76703 3.63225 7.61319 3.58321 7.43747 3.61263C7.28966 3.63753 7.19011 3.7326 7.16371 3.88275C7.12978 4.07818 7.2889 4.13024 7.41786 4.20116C7.59207 4.29699 7.76854 4.39055 7.94199 4.48713C8.53928 4.82063 8.57925 5.55856 8.01967 5.95167C7.91107 6.02787 7.75874 6.05805 7.79192 6.24442C7.8349 6.49719 7.67276 6.50096 7.49328 6.48134Z" fill="#283942"/>
</g>
<defs>
<clipPath id="clip0_3235_907">
<rect width="15" height="15" fill="white"/>
</clipPath>
</defs>
</svg>
