<svg width="25" height="25" viewBox="0 0 25 25" fill="none" xmlns="http://www.w3.org/2000/svg">
<mask id="mask0_1316_337" style="mask-type:luminance" maskUnits="userSpaceOnUse" x="0" y="2" width="25" height="21">
<path d="M24.3644 2H0V22.625H24.3644V2Z" fill="white"/>
</mask>
<g mask="url(#mask0_1316_337)">
<path d="M17.4025 11.6732C16.1664 11.6732 14.9303 11.6618 13.6941 11.677C12.7412 11.6883 11.8151 11.4877 10.8775 11.3836C9.84995 11.2681 8.82623 11.111 7.80059 10.9785C7.67048 10.9615 7.59776 10.9596 7.60543 10.7835C7.66665 9.27301 7.05434 8.08993 5.79526 7.24191C5.64793 7.14159 5.6307 7.0886 5.73212 6.94662C6.06123 6.48665 6.41715 6.0513 6.81323 5.6462C6.93379 5.52316 6.99504 5.52127 7.12323 5.64433C8.65784 7.1378 10.2001 8.62753 11.7405 10.1191C11.9203 10.2933 12.1021 10.4693 12.2839 10.6416C12.3604 10.7135 12.4293 10.8195 12.5575 10.7608C12.6819 10.704 12.6551 10.581 12.6551 10.4788C12.657 8.7922 12.6551 7.10562 12.6551 5.41905C12.6551 4.70544 12.659 3.99182 12.6532 3.2782C12.6513 3.13055 12.6704 3.05294 12.8522 3.05294C13.786 3.04726 14.7006 3.15894 15.5981 3.41638C15.753 3.45991 15.7492 3.51102 15.6995 3.63406C15.6172 3.83282 15.5158 3.9975 15.3436 4.14704C14.7293 4.67515 14.3351 5.36606 14.1151 6.12321C13.9888 6.5567 14.0099 7.04884 14.3639 7.43499C14.4213 7.49747 14.4423 7.57128 14.4538 7.65268C14.5973 8.69188 15.2555 9.1632 16.2544 9.32031C17.8942 9.57776 19.5379 9.60614 21.1873 9.4869C21.6351 9.45473 21.637 9.43958 21.7403 9.88252C21.8666 10.4125 21.9164 10.9539 21.9623 11.4953C21.9795 11.7016 21.8609 11.6789 21.7327 11.6789C20.2899 11.6732 18.8471 11.6732 17.4025 11.6732Z" fill="white"/>
<path d="M3.64519 14.1372C1.60542 14.1354 -0.00382017 12.5264 6.81155e-06 10.4934C0.00383378 8.53807 1.64943 6.91774 3.63944 6.91018C5.65244 6.90259 7.30761 8.54943 7.30378 10.5559C7.30186 12.5321 5.65628 14.141 3.64519 14.1372ZM4.39144 11.4323C4.38764 11.7635 4.14269 12.0021 3.77722 12.0437C3.42131 12.0835 3.07881 12.0248 2.7516 11.879C2.69802 11.8544 2.64827 11.773 2.57173 11.8734C2.41674 12.0835 2.44927 12.2349 2.69419 12.322C2.85492 12.3787 3.02139 12.4526 3.18597 12.4507C3.4615 12.4469 3.52272 12.5699 3.48064 12.8027C3.47681 12.8293 3.48256 12.8558 3.47872 12.8822C3.4615 13.0394 3.49211 13.1189 3.68919 13.1208C3.88631 13.1208 3.92264 13.0413 3.89586 12.8879C3.84419 12.5907 3.93986 12.4412 4.25942 12.3522C4.66508 12.2387 4.92342 11.9301 4.97125 11.4986C5.021 11.0613 4.81817 10.7395 4.45078 10.518C4.29194 10.4215 4.114 10.3533 3.94369 10.2738C3.75044 10.183 3.54953 10.1016 3.362 9.99937C3.15725 9.88579 3.04053 9.70787 3.08264 9.46746C3.12472 9.23275 3.28356 9.10215 3.51125 9.04157C3.8595 8.94881 4.18672 9.02265 4.512 9.14379C4.55983 9.16084 4.60578 9.23465 4.67656 9.1646C4.83731 9.00939 4.79903 8.78414 4.59236 8.7103C4.50817 8.68003 4.41825 8.62893 4.33597 8.63649C3.9705 8.67246 3.89203 8.48316 3.93986 8.1784C3.96283 8.03265 3.91117 7.98155 3.75044 7.97776C3.55717 7.97209 3.48256 8.03075 3.517 8.21627C3.56675 8.48885 3.48639 8.63649 3.18786 8.71789C2.77073 8.83147 2.52389 9.14379 2.49519 9.57917C2.4684 9.97855 2.69993 10.2492 3.03669 10.4347C3.19169 10.5218 3.36008 10.5862 3.52464 10.6581C3.71217 10.7414 3.91308 10.802 4.08147 10.9231C4.27092 11.0499 4.4125 11.2071 4.39144 11.4323Z" fill="white"/>
<path d="M12.3186 10.2387C11.3906 9.33956 10.4913 8.46693 9.59001 7.5943C8.59118 6.62704 7.59235 5.65975 6.58776 4.69817C6.46721 4.5827 6.44426 4.52402 6.58584 4.3953C8.14151 2.97942 9.97846 2.22415 12.0833 2.08975C12.2421 2.08029 12.3455 2.07082 12.3435 2.29419C12.3359 4.90829 12.3378 7.52425 12.3378 10.1383C12.3378 10.1554 12.332 10.1705 12.3186 10.2387Z" fill="white"/>
<path d="M13.9714 20.8915C13.9714 21.4007 13.9638 21.908 13.9752 22.4172C13.9791 22.5818 13.9351 22.6311 13.7648 22.6273C13.2156 22.6159 12.6645 22.614 12.1154 22.6273C11.924 22.6329 11.8934 22.561 11.8972 22.3963C11.9049 21.8966 11.901 21.3969 11.901 20.8972C11.901 20.4902 11.901 20.4902 11.4782 20.4902C10.7204 20.4902 9.96267 20.4883 9.20494 20.4902C9.08439 20.4902 8.99828 20.4864 9.00211 20.3255C9.01933 19.5059 8.95236 18.6825 9.03272 17.8647C9.14753 16.6798 10.0469 15.8469 11.26 15.8072C12.1077 15.7788 12.9554 15.8034 13.803 15.7939C13.958 15.792 13.9791 15.8564 13.9772 15.9832C13.9714 16.3126 13.9657 16.6438 13.9791 16.9732C13.9848 17.1379 13.914 17.1606 13.7743 17.1587C13.3227 17.153 12.8731 17.1511 12.4215 17.1606C12.2933 17.1625 12.0866 17.0868 12.079 17.3045C12.0694 17.5335 12.2799 17.4578 12.4062 17.4597C12.8578 17.4672 13.3074 17.4672 13.759 17.4597C13.9121 17.4578 13.9886 17.4805 13.981 17.6603C13.9657 17.9802 13.9695 18.302 13.9791 18.6238C13.9848 18.7752 13.9408 18.8225 13.7839 18.8207C13.3055 18.8112 12.8272 18.815 12.3507 18.8188C12.2282 18.8188 12.0694 18.798 12.0732 18.9834C12.0771 19.1576 12.2321 19.1216 12.3411 19.1216C12.7927 19.1235 13.2443 19.133 13.694 19.1178C13.9102 19.1103 13.9906 19.1557 13.9829 19.3904C13.958 19.8902 13.9714 20.3918 13.9714 20.8915Z" fill="white"/>
<path d="M12.7229 11.9424C11.9365 12.6296 11.1883 13.2826 10.4382 13.9357C9.13323 15.0733 7.82443 16.209 6.52515 17.3523C6.3874 17.4735 6.32234 17.4848 6.19987 17.3334C5.52631 16.4968 5.01734 15.5749 4.66526 14.566C4.60784 14.4013 4.62698 14.3426 4.81643 14.2802C6.18265 13.8278 7.08773 12.9192 7.47615 11.5374C7.53165 11.3367 7.58523 11.2534 7.82443 11.2894C9.09687 11.4711 10.3732 11.6301 11.6495 11.7986C11.9863 11.8383 12.3249 11.8875 12.7229 11.9424Z" fill="white"/>
<path d="M8.68906 19.4323C7.89304 18.9743 7.22523 18.4405 6.62823 17.8177C6.51726 17.7022 6.63398 17.6663 6.68945 17.6171C7.32284 17.0606 7.95812 16.5059 8.59337 15.9532C10.0208 14.7096 11.4483 13.4697 12.8738 12.2242C12.9944 12.1201 13.0518 12.069 13.1551 12.2564C14.2535 14.2345 15.3633 16.2087 16.4693 18.183C16.4942 18.2285 16.5133 18.2758 16.5516 18.3553C15.8245 18.3553 15.126 18.3515 14.4276 18.3572C14.2382 18.3591 14.2917 18.2303 14.2898 18.1357C14.286 17.3691 14.2879 16.6025 14.2879 15.8339C14.2879 15.5103 14.2669 15.4876 13.9339 15.4876C13.0135 15.4894 12.0931 15.4516 11.1766 15.5103C9.68598 15.603 8.71201 16.6668 8.69098 18.1452C8.68331 18.5578 8.68906 18.9667 8.68906 19.4323Z" fill="white"/>
<path d="M14.5039 6.03646C14.7278 4.94234 15.6903 4.0508 16.7561 3.89937C18.2352 3.68925 19.7162 3.65707 21.2011 3.80094C21.6565 3.84447 22.11 3.91829 22.5539 4.03565C23.283 4.22873 23.7097 4.75496 24.0331 5.38339C24.3698 6.03646 24.366 6.03833 23.6389 6.03833C20.6825 6.03833 17.7262 6.03833 14.768 6.03833C14.6819 6.03646 14.5939 6.03646 14.5039 6.03646Z" fill="white"/>
<path d="M16.1913 13.6444C17.0103 13.6822 17.8216 13.8052 18.6367 13.8866C19.7217 13.9945 20.8028 14.1195 21.8859 14.2368C22.1097 14.2614 22.3336 14.2898 22.5575 14.3031C22.7316 14.3126 22.7622 14.3921 22.7354 14.5454C22.435 16.1979 21.6677 17.5911 20.3857 18.7003C20.29 18.7836 20.2383 18.8195 20.1369 18.6908C18.8338 17.0402 17.5231 15.3953 16.2162 13.7466C16.1932 13.7163 16.1435 13.686 16.1932 13.6387L16.1913 13.6444Z" fill="white"/>
<path d="M14.2891 20.6478C14.2891 20.0496 14.2929 19.4533 14.2852 18.8552C14.2833 18.7075 14.3197 18.6583 14.4766 18.6602C15.441 18.6678 16.4054 18.6678 17.3717 18.6602C17.5401 18.6583 17.5841 18.7056 17.5822 18.8703C17.5726 19.495 17.5707 20.1196 17.5822 20.7424C17.586 20.9279 17.5209 20.9714 17.3487 20.9639C17.0961 20.9525 16.8436 20.9601 16.591 20.9601C16.4819 20.9601 16.3824 20.9828 16.3824 21.1134C16.3824 21.2421 16.4819 21.2667 16.591 21.2667C16.8608 21.2667 17.1325 21.2724 17.4023 21.2648C17.5286 21.261 17.5803 21.2989 17.5783 21.4295C17.5726 21.7778 17.5726 22.1261 17.5783 22.4725C17.5803 22.5955 17.5248 22.6221 17.4157 22.6221C16.4245 22.6202 15.4314 22.6183 14.4402 22.6239C14.2642 22.6258 14.2871 22.5217 14.2871 22.4157C14.2891 21.8251 14.2891 21.2365 14.2891 20.6478Z" fill="white"/>
<path d="M23.8806 7.65625C23.7984 8.19385 23.5821 8.59513 23.0387 8.79767C22.3633 9.04753 21.6648 9.15165 20.9568 9.19518C19.4892 9.28604 18.0216 9.26522 16.5635 9.04374C16.3243 9.00779 16.089 8.95101 15.8555 8.88663C15.1513 8.69165 14.9543 8.4664 14.8203 7.72629C16.3166 8.05943 17.8379 8.02349 19.3533 8.02349C20.8612 8.02536 22.3805 8.0954 23.8806 7.65625Z" fill="white"/>
<path d="M22.743 3.7425C20.4794 3.26171 18.2502 3.29956 15.9961 3.716C16.2008 3.23331 16.4228 2.77334 16.7653 2.37773C16.9777 2.13354 17.2743 2.1184 17.5536 2.0919C18.7668 1.98022 19.9819 1.96318 21.1969 2.08054C21.6198 2.12029 21.947 2.28119 22.1651 2.65787C22.3661 3.00617 22.5708 3.35067 22.743 3.7425Z" fill="white"/>
<path d="M19.4705 6.34952C20.2626 6.34952 21.0567 6.35521 21.8489 6.34575C22.0403 6.34385 22.0957 6.39874 22.0862 6.58423C22.0709 6.88712 22.0747 7.18997 22.0843 7.49283C22.0881 7.62156 22.046 7.65753 21.9178 7.66509C20.2971 7.74459 18.6763 7.72564 17.0556 7.67265C16.9121 7.66886 16.8777 7.61776 16.8815 7.48527C16.8911 7.17292 16.8949 6.86061 16.8796 6.55016C16.8719 6.38169 16.9274 6.34575 17.0901 6.34762C17.8842 6.35521 18.6783 6.34952 19.4705 6.34952Z" fill="white"/>
<path d="M9.79598 20.797C10.3088 20.797 10.8235 20.8046 11.3363 20.7932C11.5162 20.7895 11.5908 20.8235 11.5851 21.0242C11.5698 21.4955 11.5755 21.9687 11.5832 22.4419C11.5851 22.5801 11.5449 22.6275 11.4014 22.6275C10.3375 22.6237 9.2755 22.6237 8.21162 22.6275C8.09873 22.6275 8.05089 22.5991 8.05281 22.4798C8.05853 21.9725 8.06045 21.4633 8.05089 20.956C8.04706 20.7857 8.14273 20.7989 8.25561 20.7989C8.77036 20.7989 9.28317 20.797 9.79598 20.797Z" fill="white"/>
<path d="M15.5107 6.34788C15.8073 6.34788 16.1058 6.35544 16.4024 6.34598C16.5306 6.34219 16.5746 6.37626 16.5707 6.50688C16.5631 6.83625 16.565 7.16559 16.5688 7.49496C16.5707 7.60097 16.5554 7.66155 16.4234 7.6464C15.9412 7.59341 15.4552 7.57446 14.9883 7.42871C14.5195 7.28296 14.3262 6.94224 14.397 6.45576C14.4162 6.32893 14.4889 6.34788 14.5654 6.34788C14.8792 6.34788 15.1949 6.34788 15.5107 6.34788Z" fill="white"/>
<path d="M23.3858 6.34995C23.6556 6.34995 23.9274 6.35751 24.1972 6.34615C24.3349 6.34049 24.3713 6.38782 24.3598 6.51275C24.3311 6.80045 24.2316 7.04652 23.9733 7.20932C23.5255 7.49136 23.0204 7.56141 22.5095 7.6163C22.4195 7.62576 22.4004 7.58979 22.4004 7.51598C22.4004 7.16769 22.4042 6.81937 22.3985 6.47298C22.3966 6.35374 22.4559 6.34805 22.5497 6.34995C22.8271 6.35374 23.1065 6.35185 23.3858 6.34995Z" fill="white"/>
<path d="M16.1908 13.6386C16.1813 13.6404 16.1717 13.6442 16.1641 13.6461L16.1717 13.6348C16.1775 13.6386 16.1813 13.6423 16.187 13.6461L16.1908 13.6386Z" fill="white"/>
</g>
</svg>
