<svg width="26" height="25" viewBox="0 0 26 25" fill="none" xmlns="http://www.w3.org/2000/svg">
<g clip-path="url(#clip0_1316_383)">
<mask id="mask0_1316_383" style="mask-type:luminance" maskUnits="userSpaceOnUse" x="1" y="1" width="25" height="24">
<path d="M25.2397 1H1V24.4375H25.2397V1Z" fill="white"/>
</mask>
<g mask="url(#mask0_1316_383)">
<path d="M22.4511 13.9318C22.3135 13.9318 22.2163 13.9318 22.1192 13.9318C16.3819 13.9318 10.644 13.9305 4.90673 13.9372C4.68948 13.9372 4.62539 13.8934 4.63348 13.6673C4.65239 13.1242 4.63954 13.1235 5.18204 13.1235C10.9868 13.1235 16.7915 13.1228 22.5962 13.1262C22.7548 13.1262 22.8681 13.1073 22.9754 12.9602C23.1576 12.7106 23.5159 12.6505 23.7972 12.7774C24.0793 12.9042 24.2621 13.2072 24.2196 13.5128C23.9564 15.4156 23.3984 17.2063 22.221 18.7616C20.6213 20.8742 18.5255 22.1831 15.9177 22.6669C15.3125 22.7789 14.7025 22.8201 14.0872 22.8194C11.1595 22.8153 8.23182 22.8153 5.30417 22.8221C5.10714 22.8228 5.03629 22.7951 5.03764 22.5718C5.0491 20.9146 5.04642 19.2575 5.03967 17.5997C5.03898 17.4269 5.09498 17.3332 5.2387 17.2407C6.96129 16.1342 8.83907 15.5512 10.8909 15.5478C12.8342 15.5451 14.7774 15.5465 16.7206 15.5478C17.4318 15.5485 17.9662 16.066 17.9682 16.7515C17.9702 17.4519 17.4372 17.9701 16.7098 17.9701C14.6485 17.9708 12.5879 17.9728 10.5266 17.9661C10.3478 17.9654 10.2837 17.9944 10.2884 18.1934C10.3012 18.7777 10.2911 18.7784 10.8714 18.7784C12.7728 18.7784 14.6742 18.7784 16.5749 18.7784C17.7111 18.7784 18.425 18.2407 18.7192 17.1462C18.7536 17.0187 18.8339 16.9965 18.9223 16.958C19.6982 16.6233 20.4735 16.2873 21.2528 15.9594C21.4174 15.8899 21.5294 15.7867 21.6077 15.6261C21.8783 15.0708 22.1576 14.5202 22.4511 13.9318Z" fill="white"/>
<path d="M11.4138 6.25712C11.1871 6.25712 11.0022 6.25577 10.8173 6.25712C10.4462 6.2598 10.2978 6.40555 10.2971 6.77599C10.2957 8.51612 10.2964 10.2562 10.2964 11.9971C10.2964 12.1907 10.291 12.3837 10.2985 12.5773C10.3025 12.6833 10.2748 12.7224 10.1601 12.7224C8.80662 12.7177 7.45312 12.7339 6.09958 12.7116C5.38302 12.7001 4.6813 12.0267 4.65499 11.3034C4.61383 10.1814 4.57199 9.05321 4.9458 7.96218C5.22446 7.14843 5.57871 6.37721 6.10702 5.69237C6.23858 5.52233 6.38365 5.44137 6.61508 5.4434C7.97671 5.45621 9.33899 5.45487 10.7006 5.44405C10.8969 5.44271 11.0137 5.4994 11.0966 5.66943C11.1891 5.85496 11.2937 6.03512 11.4138 6.25712ZM8.66224 8.27593C8.88893 8.27593 9.11633 8.27658 9.34302 8.27524C9.39093 8.27524 9.44762 8.29346 9.48271 8.24352C9.65071 8.00399 9.40512 7.5074 9.09877 7.4723C8.99893 7.46083 8.89702 7.4649 8.79649 7.46962C8.71149 7.47365 8.6629 7.44599 8.6818 7.35693C8.74793 7.04858 8.56371 7.04049 8.34174 7.06274C8.23377 7.07355 8.12312 7.07083 8.01449 7.06274C7.90652 7.05465 7.85121 7.08905 7.87415 7.20105C7.92543 7.45205 7.79452 7.47974 7.58468 7.47299C7.21493 7.46083 7.06783 7.61737 7.0658 7.98849C7.06377 8.32449 7.06243 8.66118 7.06649 8.99721C7.06987 9.33187 7.22505 9.48368 7.56443 9.48705C7.85052 9.48977 8.13593 9.48774 8.42202 9.48774C8.55696 9.48774 8.68718 9.43983 8.69258 9.68274C8.69799 9.94452 8.55158 9.89055 8.40987 9.89121C8.01449 9.89258 7.61977 9.89055 7.22437 9.89324C7.17105 9.89324 7.1063 9.86558 7.06852 9.93508C6.9113 10.2252 7.15958 10.6753 7.49224 10.6982C7.58399 10.7043 7.67712 10.7029 7.76955 10.6989C7.84243 10.6962 7.88965 10.7225 7.87143 10.7981C7.78371 11.1671 8.03808 11.1071 8.2493 11.1037C8.34983 11.1024 8.45102 11.0983 8.55158 11.1051C8.64671 11.1111 8.70002 11.0808 8.67977 10.9802C8.6258 10.7185 8.75668 10.6847 8.98137 10.6948C9.33427 10.7103 9.48471 10.5471 9.48808 10.1928C9.4908 9.8568 9.4908 9.52012 9.48808 9.18412C9.48471 8.83324 9.33224 8.68412 8.97665 8.68143C8.69055 8.6794 8.40515 8.67805 8.11905 8.68212C7.97062 8.68412 7.8539 8.70437 7.86268 8.47227C7.87008 8.26443 7.96252 8.26983 8.10693 8.27524C8.2918 8.28199 8.47733 8.27658 8.66224 8.27593Z" fill="white"/>
<path d="M14.7384 7.47178C14.7384 5.79843 14.7411 4.1251 14.7344 2.45176C14.7337 2.27094 14.7661 2.21223 14.9624 2.21493C15.8956 2.22708 16.8288 2.2237 17.7626 2.21696C17.9178 2.21561 17.9751 2.2426 17.9744 2.41735C17.967 4.25868 17.9684 6.10003 17.9731 7.9414C17.9731 8.07024 17.9353 8.15934 17.8442 8.2484C17.4178 8.66606 16.9988 9.09112 16.5757 9.51284C16.4293 9.65924 16.291 9.80499 16.3922 10.0391C16.4887 10.2618 16.6756 10.3218 16.8881 10.2942C17.1284 10.2632 17.1715 10.3617 17.1668 10.5803C17.1526 11.2273 17.1547 11.8751 17.1661 12.5222C17.1688 12.6942 17.1135 12.7266 16.9556 12.7246C16.2829 12.7165 15.6102 12.7144 14.9375 12.7252C14.7674 12.7279 14.7337 12.6746 14.7344 12.5154C14.7405 10.8353 14.7384 9.15321 14.7384 7.47178ZM15.5461 8.2774C15.5461 8.36984 15.5515 8.46296 15.5448 8.55471C15.538 8.65121 15.5711 8.6809 15.6709 8.68628C15.8605 8.6964 16.0029 8.68628 15.9536 8.43124C15.9334 8.32599 15.9429 8.21262 15.9523 8.10399C15.9651 7.95084 15.9509 7.86515 15.7499 7.86581C15.5535 7.86649 15.5259 7.9434 15.5454 8.10062C15.5522 8.15934 15.5461 8.21871 15.5461 8.2774ZM17.1621 8.29224C17.1621 8.21668 17.1533 8.13974 17.1641 8.06553C17.187 7.91034 17.1297 7.87121 16.9738 7.86853C16.797 7.86515 16.7336 7.91171 16.7559 8.08984C16.7714 8.21396 16.7653 8.34218 16.7572 8.46768C16.7485 8.60937 16.7566 8.69574 16.9482 8.69103C17.1229 8.68696 17.1945 8.64649 17.1648 8.46834C17.154 8.41099 17.1621 8.35096 17.1621 8.29224ZM17.1621 3.44767C17.1621 3.38019 17.1533 3.31205 17.1634 3.24592C17.1898 3.07319 17.1331 3.01382 16.9495 3.02124C16.8004 3.02731 16.7356 3.05295 16.7545 3.21489C16.7701 3.34781 16.7694 3.48478 16.7545 3.6177C16.735 3.79111 16.7876 3.84239 16.9691 3.84374C17.1533 3.84509 17.1783 3.77019 17.1628 3.62377C17.1567 3.56642 17.1621 3.50704 17.1621 3.44767ZM17.1621 5.06906C17.1621 4.99349 17.1526 4.9159 17.1641 4.84234C17.1911 4.66962 17.1128 4.64193 16.9563 4.63721C16.7829 4.63184 16.741 4.69256 16.7559 4.84978C16.768 4.98337 16.7707 5.12034 16.7552 5.25259C16.735 5.42599 16.8079 5.45296 16.9644 5.45768C17.1378 5.46309 17.1857 5.40168 17.1641 5.24515C17.1553 5.18781 17.1621 5.12774 17.1621 5.06906ZM15.9503 3.44429C15.9503 3.37682 15.9415 3.30867 15.9523 3.24255C15.9813 3.06442 15.9118 3.01786 15.735 3.02124C15.5785 3.02394 15.5272 3.06307 15.5434 3.21826C15.5576 3.35118 15.5529 3.48748 15.5448 3.62108C15.536 3.76412 15.5474 3.84711 15.7364 3.84306C15.9132 3.83969 15.9806 3.79583 15.9516 3.61973C15.9422 3.56372 15.9503 3.50367 15.9503 3.44429ZM15.9503 5.07243C15.9503 5.01371 15.9489 4.95434 15.9503 4.89565C15.955 4.75259 15.9806 4.63318 15.7472 4.63318C15.511 4.63318 15.5434 4.75665 15.5454 4.89768C15.5474 5.01506 15.5569 5.13449 15.5434 5.25056C15.5238 5.41721 15.5859 5.45768 15.7492 5.45837C15.9159 5.45971 15.9759 5.41115 15.9516 5.24853C15.9429 5.19118 15.9503 5.13112 15.9503 5.07243ZM15.5461 6.64387C15.5461 6.71134 15.5562 6.78018 15.5441 6.84562C15.5063 7.04737 15.6021 7.07706 15.7789 7.07368C15.93 7.07099 15.9617 7.01903 15.9523 6.88474C15.9422 6.7424 15.9368 6.59731 15.9529 6.45631C15.9739 6.27953 15.8949 6.25928 15.7424 6.25321C15.5657 6.24578 15.5252 6.31393 15.5448 6.46778C15.5522 6.52581 15.5461 6.58518 15.5461 6.64387ZM16.7579 6.64253C16.7579 6.71809 16.7674 6.79568 16.7559 6.86924C16.7289 7.04196 16.8079 7.06896 16.9637 7.07368C17.1371 7.07909 17.1789 7.01768 17.1641 6.86046C17.1519 6.72687 17.1493 6.5899 17.1648 6.45765C17.185 6.28424 17.1121 6.25793 16.9556 6.25253C16.7822 6.24712 16.735 6.30853 16.7566 6.46574C16.7647 6.52378 16.7579 6.58384 16.7579 6.64253Z" fill="white"/>
<path d="M4.23951 19.9908C4.23951 21.3956 4.23548 22.8011 4.24423 24.2059C4.24561 24.3928 4.20376 24.4434 4.01281 24.4393C3.3482 24.4259 2.68359 24.4286 2.01898 24.438C1.85502 24.4407 1.81183 24.3968 1.81251 24.2322C1.8179 21.4057 1.8179 18.5786 1.81251 15.7522C1.81251 15.5896 1.85097 15.5423 2.01763 15.545C2.69034 15.5552 3.36372 15.5545 4.03643 15.545C4.20039 15.543 4.24423 15.5862 4.24289 15.7508C4.23614 17.1637 4.23951 18.5773 4.23951 19.9908ZM2.62354 17.3425C2.62354 18.0058 2.62354 18.0017 3.2814 17.9761C3.40353 17.9714 3.43794 17.9383 3.43389 17.8189C3.42579 17.5416 3.41702 17.2629 3.43591 16.9869C3.44873 16.7947 3.38868 16.7521 3.20246 16.7555C2.62354 16.7663 2.62354 16.7575 2.62354 17.3425Z" fill="white"/>
<path d="M13.9327 9.8918C13.9327 10.7669 13.928 11.6414 13.9368 12.5165C13.9381 12.6805 13.8963 12.725 13.731 12.723C12.9233 12.7142 12.1157 12.7142 11.308 12.723C11.1434 12.725 11.1009 12.6811 11.1016 12.5165C11.1076 10.7669 11.1076 9.01667 11.1016 7.26708C11.1009 7.10314 11.142 7.05861 11.3074 7.06061C12.115 7.06939 12.9227 7.06939 13.7303 7.06061C13.8949 7.05861 13.9381 7.10245 13.9368 7.26708C13.928 8.14155 13.9327 9.01667 13.9327 9.8918ZM11.9133 8.26705C11.9133 8.34261 11.9227 8.42021 11.9112 8.49377C11.8856 8.65636 11.9578 8.67999 12.1056 8.68674C12.2891 8.69483 12.3397 8.63411 12.3201 8.46136C12.3059 8.33721 12.3093 8.20902 12.3194 8.08352C12.3309 7.93577 12.3073 7.86289 12.1244 7.86424C11.9423 7.86489 11.8849 7.91889 11.9119 8.09096C11.9207 8.1483 11.9133 8.20833 11.9133 8.26705ZM13.1251 8.25152C13.1251 8.31024 13.1264 8.36961 13.1251 8.4283C13.1204 8.57136 13.0947 8.69077 13.3282 8.69077C13.5643 8.69077 13.5319 8.5673 13.5299 8.42627C13.5279 8.30889 13.5184 8.18946 13.5319 8.07339C13.5515 7.90674 13.4894 7.86627 13.3262 7.86558C13.1595 7.86424 13.0994 7.9128 13.1237 8.07542C13.1318 8.13277 13.1251 8.19283 13.1251 8.25152ZM12.3168 9.91002C12.3168 9.84255 12.3059 9.77374 12.3188 9.70827C12.3579 9.50383 12.2574 9.47955 12.0826 9.48089C11.9294 9.48224 11.9004 9.53824 11.9106 9.67117C11.9207 9.80477 11.9241 9.94105 11.9099 10.074C11.8924 10.242 11.9349 10.304 12.1218 10.3027C12.2992 10.3014 12.337 10.2373 12.3181 10.0855C12.3114 10.0288 12.3168 9.96874 12.3168 9.91002ZM13.5286 9.89383C13.5286 9.80139 13.5239 9.70827 13.5299 9.61652C13.5367 9.52136 13.5056 9.48899 13.4044 9.48427C13.2169 9.47549 13.0711 9.48155 13.121 9.73864C13.1413 9.84389 13.1318 9.95724 13.1224 10.0659C13.1102 10.2177 13.121 10.3061 13.3241 10.3047C13.5184 10.3034 13.5502 10.2298 13.5293 10.0706C13.5225 10.0126 13.5286 9.95321 13.5286 9.89383ZM12.3168 11.5287C12.3168 11.4531 12.3073 11.3755 12.3188 11.302C12.3458 11.1293 12.2668 11.1023 12.1109 11.0975C11.9375 11.0921 11.8957 11.1535 11.9106 11.3108C11.9227 11.4444 11.9254 11.5813 11.9099 11.7136C11.8896 11.887 11.9625 11.9133 12.1191 11.9187C12.2925 11.9241 12.3397 11.8627 12.3181 11.7055C12.3107 11.6468 12.3168 11.5874 12.3168 11.5287ZM13.5286 11.5267C13.5286 11.4592 13.5184 11.3904 13.5306 11.3249C13.5684 11.1232 13.4726 11.0935 13.2958 11.0969C13.1446 11.0996 13.1129 11.1515 13.1224 11.2858C13.1325 11.4282 13.1379 11.5732 13.1217 11.7143C13.1008 11.891 13.1797 11.9113 13.3322 11.9174C13.509 11.9248 13.5495 11.8566 13.5299 11.7028C13.5225 11.6454 13.5286 11.5854 13.5286 11.5267Z" fill="white"/>
<path d="M7.22841 4.64284C6.99428 4.64284 6.78716 4.63881 6.58 4.64488C6.49566 4.64756 6.46531 4.60034 6.43225 4.53825C6.07462 3.875 5.71566 3.21242 5.33984 2.51879C5.68125 2.61325 5.99634 2.6922 6.30537 2.78801C6.58606 2.87505 6.81819 2.79948 7.01994 2.60583C7.22641 2.40813 7.43084 2.20774 7.62584 1.99857C7.723 1.89466 7.77766 1.90816 7.85053 2.01881C7.93284 2.14499 8.02797 2.26374 8.12041 2.38317C8.42809 2.77856 8.86937 2.815 9.22969 2.47156C9.38825 2.32109 9.54747 2.16995 9.69253 2.00667C9.79644 1.88927 9.85516 1.91018 9.93409 2.02893C10.0312 2.17603 10.1406 2.31502 10.2499 2.45334C10.5184 2.79408 10.8106 2.8602 11.2033 2.6814C11.3605 2.60988 11.5035 2.5026 11.6749 2.46818C11.7437 2.53701 11.6763 2.58424 11.658 2.63012C11.4104 3.24278 11.1554 3.85273 10.9104 4.46675C10.8612 4.58953 10.8112 4.65366 10.6628 4.64691C10.3632 4.63206 10.0623 4.64284 9.73303 4.64284C9.8855 4.33516 10.0191 4.04773 10.1709 3.77042C10.2418 3.64087 10.2087 3.59296 10.0872 3.53089C9.53803 3.25155 9.54006 3.2475 9.26881 3.78931C9.19728 3.93168 9.12509 4.07337 9.05356 4.21575C8.83697 4.64756 8.66559 4.72922 8.196 4.64622C8.09681 4.62869 8.08128 4.56122 8.04956 4.49644C7.90991 4.21103 7.76416 3.92831 7.63731 3.63682C7.58131 3.50795 7.53138 3.47623 7.40519 3.54911C7.23247 3.64897 6.96325 3.6908 6.89444 3.83384C6.82222 3.98498 7.02937 4.18606 7.10628 4.36891C7.14137 4.45256 7.17984 4.53353 7.22841 4.64284Z" fill="white"/>
<path d="M22.2418 9.47727C20.7243 9.47727 19.2575 9.47727 17.7879 9.47727C17.7609 9.41184 17.823 9.39227 17.8533 9.36259C18.518 8.69527 19.1859 8.03199 19.8472 7.3613C19.9511 7.25605 20.0078 7.23584 20.1238 7.35321C20.8127 8.05427 21.5117 8.74721 22.2418 9.47727Z" fill="white"/>
<path d="M20.0027 10.2932C20.6079 10.2932 21.2132 10.2993 21.8184 10.2892C21.9736 10.2865 22.0148 10.3256 22.0127 10.4822C22.0033 11.163 22.0039 11.8438 22.0121 12.5246C22.0141 12.6771 21.9803 12.7209 21.8204 12.7209C21.2003 12.7203 21.2003 12.727 21.2003 12.0995C21.2003 11.7884 21.2044 11.4774 21.199 11.1663C21.1936 10.86 21.0364 10.7008 20.7314 10.6981C20.2355 10.6933 19.7396 10.6927 19.2436 10.6981C18.9393 10.7014 18.7821 10.8613 18.7787 11.169C18.774 11.6231 18.7733 12.0772 18.7801 12.5306C18.7821 12.6615 18.7646 12.7189 18.6087 12.7209C17.9691 12.7297 17.9691 12.7364 17.9691 12.0941C17.9691 11.5563 17.9765 11.0179 17.965 10.4801C17.9616 10.3189 18.0109 10.2872 18.162 10.2892C18.7753 10.2986 19.3894 10.2932 20.0027 10.2932Z" fill="white"/>
<path d="M19.5859 12.0936C19.5859 11.5012 19.5859 11.5066 20.1858 11.5039C20.3396 11.5033 20.4091 11.5269 20.3983 11.7043C20.3814 11.981 20.3875 12.259 20.3969 12.5363C20.4017 12.6705 20.3747 12.7218 20.2229 12.7239C19.5859 12.7313 19.5859 12.7373 19.5859 12.0936Z" fill="white"/>
<path d="M22.4157 2.62083C22.1991 2.62218 21.9811 2.61476 21.7652 2.62757C21.6283 2.63567 21.604 2.58372 21.6013 2.45822C21.5871 1.81587 21.5837 1.81587 22.2153 1.81655C22.2821 1.81655 22.3489 1.81857 22.4157 1.81992L22.4089 1.8125C22.4089 2.08374 22.4089 2.35566 22.4089 2.6269L22.4157 2.62083Z" fill="white"/>
<path d="M23.2188 1.82006C23.4353 1.81871 23.6533 1.82614 23.8692 1.81331C24.0062 1.80522 24.0305 1.85717 24.0332 1.98267C24.0473 2.62502 24.0507 2.62502 23.4192 2.62434C23.3523 2.62434 23.2856 2.62232 23.2188 2.62097L23.2255 2.62839C23.2255 2.35715 23.2255 2.08523 23.2255 1.81399L23.2188 1.82006Z" fill="white"/>
<path d="M23.2178 2.61786C23.2192 2.83513 23.2118 3.05239 23.2239 3.2683C23.232 3.40527 23.18 3.42957 23.0552 3.43227C22.4129 3.44643 22.4129 3.44981 22.4135 2.81758C22.4135 2.75078 22.4156 2.68399 22.4169 2.61719L22.4102 2.62461C22.6814 2.62461 22.9533 2.62461 23.2246 2.62461L23.2178 2.61786Z" fill="white"/>
<path d="M1.81616 4.64418C1.81481 4.42759 1.82223 4.20965 1.80941 3.99374C1.80131 3.85678 1.85326 3.83248 1.97877 3.82978C2.62111 3.81562 2.62111 3.81224 2.62044 4.44378C2.62044 4.51059 2.61841 4.5774 2.61706 4.64418L2.62449 4.63743C2.35324 4.63743 2.08133 4.63743 1.81008 4.63743L1.81616 4.64418Z" fill="white"/>
<path d="M25.2412 4.25912C25.2412 4.63969 25.2412 4.63969 24.8647 4.63969C24.4336 4.63969 24.4336 4.63969 24.4336 4.21259C24.4336 3.83203 24.4336 3.83203 24.8101 3.83203C25.2412 3.83203 25.2412 3.83203 25.2412 4.25912Z" fill="white"/>
<path d="M1.81801 5.44438C1.60142 5.44572 1.38348 5.43831 1.16757 5.45112C1.02993 5.45922 1.00631 5.40728 1.00361 5.28178C0.989442 4.63944 0.986068 4.63944 1.61829 4.64009C1.68509 4.64009 1.75189 4.64212 1.81869 4.64347L1.81127 4.63672C1.81127 4.90797 1.81127 5.17987 1.81127 5.45112L1.81801 5.44438Z" fill="white"/>
<path d="M2.61719 4.64556C2.83378 4.64421 3.05172 4.65162 3.26763 4.6395C3.4046 4.6314 3.42889 4.68265 3.43159 4.80815C3.44576 5.45118 3.44913 5.45118 2.81758 5.44984C2.75078 5.44984 2.68399 5.44781 2.61719 5.44646L2.62394 5.45387C2.62394 5.18265 2.62394 4.91071 2.62394 4.6395L2.61719 4.64556Z" fill="white"/>
<path d="M3.0482 1.81352C2.62109 1.81352 2.62109 1.81352 2.62109 1.38236C2.62109 1.00586 2.62109 1.00586 3.00164 1.00586C3.42875 1.00586 3.42875 1.00586 3.42875 1.43701C3.42875 1.81352 3.42875 1.81352 3.0482 1.81352Z" fill="white"/>
<path d="M1.00781 8.25833C1.00781 7.87305 1.00781 7.87305 1.40455 7.87305C1.81547 7.87305 1.81547 7.87305 1.81547 8.29542C1.81547 8.68136 1.81547 8.68136 1.41872 8.68136C1.00781 8.6807 1.00781 8.6807 1.00781 8.25833Z" fill="white"/>
<path d="M2.62015 5.44402C2.6215 5.6613 2.61408 5.87855 2.62622 6.09445C2.63432 6.23142 2.58237 6.25573 2.45754 6.25842C1.8152 6.27258 1.8152 6.27595 1.81587 5.64373C1.81587 5.57695 1.8179 5.51014 1.81925 5.44336L1.8125 5.45077C2.08374 5.45077 2.35566 5.45077 2.6269 5.45077L2.62015 5.44402Z" fill="white"/>
<path d="M21.9975 5.85453C21.6055 5.85453 21.6055 5.85453 21.6055 5.46388C21.6055 5.04688 21.6055 5.04688 22.0218 5.04688C22.4138 5.04688 22.4138 5.04688 22.4138 5.43756C22.4131 5.85453 22.4131 5.85453 21.9975 5.85453Z" fill="white"/>
<path d="M22.4171 1.81801C22.4157 1.60075 22.4231 1.38348 22.411 1.16757C22.4029 1.0306 22.4548 1.00631 22.5797 1.00361C23.222 0.989442 23.222 0.986068 23.2213 1.61829C23.2213 1.68509 23.2193 1.75189 23.218 1.81869L23.2247 1.81127C22.9535 1.81127 22.6816 1.81127 22.4103 1.81127L22.4171 1.81801Z" fill="white"/>
</g>
</g>
<defs>
<clipPath id="clip0_1316_383">
<rect width="25" height="25" fill="white" transform="translate(0.5)"/>
</clipPath>
</defs>
</svg>
