<svg width="25" height="25" viewBox="0 0 25 25" fill="none" xmlns="http://www.w3.org/2000/svg">
<mask id="mask0_1316_358" style="mask-type:luminance" maskUnits="userSpaceOnUse" x="1" y="3" width="23" height="19">
<path d="M23.6063 3H1V21.75H23.6063V3Z" fill="white"/>
</mask>
<g mask="url(#mask0_1316_358)">
<path d="M13.1261 16.2627C13.6958 16.3384 14.2208 16.4199 14.7488 16.4753C15.8226 16.5878 16.8897 16.5752 17.948 16.3112C18.4566 16.1846 18.8816 15.9429 19.2694 15.597C20.0001 14.9448 20.7853 14.3698 21.7252 14.0466C22.1513 13.9 22.5885 13.8365 23.0315 13.9714C23.3256 14.0607 23.5493 14.2266 23.5997 14.559C23.6492 14.8861 23.4803 15.0831 23.2266 15.2549C22.1745 15.9672 21.2458 16.8334 20.2641 17.6335C19.0161 18.6506 17.5627 19.1994 15.9998 19.5144C14.9434 19.7269 13.8938 19.6231 12.8398 19.5357C11.3574 19.413 9.87348 19.3067 8.39008 19.5144C7.60688 19.624 6.84213 19.8147 6.10845 20.1137C5.9488 20.1787 5.87068 20.1884 5.79013 20.0011C5.22965 18.6924 4.6561 17.3895 4.08398 16.0861C4.0403 15.9871 4.00925 15.9216 4.14658 15.8672C4.9778 15.5378 5.70473 15.0292 6.4355 14.526C7.1886 14.0073 7.98345 13.571 8.89425 13.3886C9.84728 13.1979 10.7877 13.2828 11.7237 13.5089C12.3022 13.6487 12.8675 13.8399 13.4605 13.9267C14.3373 14.0553 15.2171 14.0257 16.0973 14.0121C16.4375 14.0068 16.7723 14.0107 17.0901 14.1645C17.7132 14.4663 17.7869 15.2296 17.226 15.6377C16.7519 15.9827 16.1939 16.0259 15.6387 16.0623C14.9613 16.107 14.2805 16.0444 13.6031 16.1084C13.4507 16.1235 13.3008 16.1434 13.1261 16.2627Z" fill="white"/>
<path d="M3.687 21.747C3.58268 21.7383 3.47834 21.7266 3.37401 21.7208C3.00522 21.699 2.81113 21.5073 2.66749 21.1584C2.14876 19.8948 1.59412 18.6463 1.04482 17.3953C0.973004 17.2313 0.971548 17.1556 1.16031 17.078C1.87363 16.7844 2.57918 16.4724 3.28473 16.1608C3.41283 16.1041 3.46669 16.1152 3.52735 16.2579C4.11207 17.6243 4.70553 18.9874 5.30045 20.3495C5.34655 20.4543 5.34363 20.5426 5.3024 20.6465C5.03453 21.3244 4.42313 21.7412 3.687 21.747ZM4.3445 20.6688C4.34015 20.4655 4.15962 20.2869 3.9568 20.2854C3.753 20.284 3.55453 20.4863 3.56083 20.6897C3.56715 20.8939 3.74475 21.0643 3.9534 21.0657C4.17565 21.0667 4.34938 20.8906 4.3445 20.6688Z" fill="white"/>
<path d="M16.6499 7.81075C17.9353 7.81075 19.2203 7.81028 20.5057 7.81075C20.7998 7.81075 20.8483 7.8549 20.8483 8.14218C20.8473 9.58918 20.841 11.0357 20.8449 12.4827C20.8454 12.7161 20.758 12.7899 20.5295 12.7894C17.9431 12.7826 15.3562 12.7841 12.7699 12.7821C12.4773 12.7821 12.4375 12.7419 12.4375 12.4425C12.4375 11.0119 12.4385 9.58095 12.4404 8.15043C12.4409 7.8452 12.4792 7.8093 12.7946 7.8088C14.08 7.80833 15.3645 7.81075 16.6499 7.81075C16.6499 7.80978 16.6494 7.81125 16.6499 7.81075ZM16.6455 12.3241C16.6455 12.3289 16.6455 12.3333 16.6455 12.3381C17.5913 12.3381 18.537 12.3362 19.4823 12.3406C19.6172 12.341 19.6784 12.3245 19.6847 12.1615C19.7007 11.75 19.853 11.5773 20.2631 11.4778C20.363 11.4535 20.3907 11.4181 20.3907 11.3201C20.3892 10.6412 20.3926 9.96236 20.3975 9.28348C20.398 9.18643 20.3708 9.14908 20.2655 9.13113C19.8792 9.06416 19.7002 8.84773 19.6982 8.44545C19.6973 8.30715 19.6779 8.2499 19.5173 8.25038C17.6097 8.2567 15.7022 8.25573 13.7947 8.25185C13.656 8.25135 13.5977 8.27368 13.5977 8.4343C13.5982 8.82443 13.4138 9.04813 13.0251 9.12045C12.898 9.14423 12.8917 9.19518 12.8912 9.29173C12.8902 9.95458 12.8883 10.6174 12.8815 11.2798C12.8805 11.3953 12.9063 11.438 13.0363 11.4593C13.3818 11.5156 13.5958 11.7704 13.5929 12.1149C13.5914 12.2852 13.6375 12.3289 13.8073 12.3275C14.7541 12.3197 15.6998 12.3241 16.6455 12.3241Z" fill="white"/>
<path d="M14.5835 7.44918C14.8863 7.23372 14.7214 7.0668 14.6199 6.87998C14.5326 6.71938 14.4627 6.54323 14.4215 6.36563C14.3894 6.22783 14.3327 6.17637 14.1983 6.16812C14.091 6.16182 13.9217 6.1754 13.8984 6.0769C13.8566 5.90172 13.8566 5.7018 13.8993 5.52712C13.9221 5.43395 14.0978 5.45336 14.2016 5.44268C14.3429 5.42813 14.3928 5.3699 14.4171 5.23791C14.4545 5.03119 14.5229 4.82641 14.6476 4.659C14.7641 4.50227 14.7345 4.38727 14.6146 4.26693C14.4792 4.13154 14.4627 4.02382 14.6248 3.8763C14.8951 3.62979 14.8868 3.61233 15.1998 3.82535C15.2891 3.88601 15.3478 3.88455 15.4337 3.82778C15.6094 3.71229 15.7986 3.60213 16.0043 3.57641C16.2378 3.54779 16.2999 3.40755 16.2994 3.22218C16.2989 3.03003 16.3896 2.98538 16.5546 3.00431C16.6104 3.01062 16.6682 3.01062 16.724 3.00431C16.8972 2.98393 16.9986 3.03197 16.9977 3.23237C16.9967 3.41677 17.0636 3.53857 17.2864 3.56332C17.4746 3.58418 17.6644 3.66619 17.8158 3.78556C17.9827 3.91754 18.1152 3.89668 18.2491 3.75741C18.3913 3.61038 18.5097 3.65357 18.6179 3.7972C18.7174 3.92919 18.9566 4.01993 18.7479 4.24315C18.6082 4.3926 18.5606 4.54157 18.7154 4.72257C18.7848 4.80409 18.8299 4.92298 18.8455 5.03071C18.8853 5.31215 19.0245 5.45481 19.3157 5.4388C19.4059 5.43395 19.4443 5.49266 19.4472 5.5771C19.4511 5.6819 19.453 5.78673 19.4579 5.89153C19.4642 6.03518 19.4152 6.12543 19.2536 6.12105C19.0279 6.11475 18.9081 6.21763 18.8794 6.45055C18.8654 6.56603 18.812 6.68442 18.7494 6.78487C18.6077 7.01197 18.5174 7.22598 18.8557 7.4453C18.318 7.4453 17.8575 7.4453 17.3538 7.4453C18.0385 7.08185 18.4296 6.5505 18.4379 5.78868C18.4432 5.27867 18.2433 4.8468 17.8711 4.49936C17.1238 3.80157 15.9451 3.87872 15.3041 4.64251C14.7116 5.34854 14.6214 6.71062 15.9616 7.4487C15.5147 7.44917 15.0872 7.44918 14.5835 7.44918Z" fill="white"/>
<path d="M16.6568 4.35742C16.7136 4.37343 16.8184 4.32685 16.8019 4.43166C16.7718 4.61848 16.9091 4.61945 17.0178 4.65003C17.1314 4.68205 17.2212 4.74562 17.2978 4.83005C17.3687 4.90721 17.472 5.00377 17.4288 5.09742C17.3798 5.20369 17.225 5.2003 17.1163 5.24251C17.0246 5.27794 17.0217 5.17506 16.9892 5.12994C16.8897 4.99116 16.7621 4.92516 16.5932 4.96058C16.4909 4.98194 16.421 5.04696 16.403 5.15517C16.3856 5.26338 16.4215 5.34587 16.5268 5.38906C16.7277 5.47058 16.9319 5.54435 17.129 5.6341C17.4405 5.77532 17.5487 5.95875 17.5273 6.2795C17.5089 6.56287 17.3366 6.77395 17.0314 6.85887C16.8849 6.89965 16.7529 6.92585 16.7975 7.1277C16.8218 7.2364 16.7451 7.24077 16.6655 7.23737C16.5864 7.23397 16.4855 7.25387 16.5122 7.12285C16.5486 6.94137 16.454 6.88557 16.2977 6.85985C16.158 6.83655 16.0483 6.75067 15.96 6.64197C15.8833 6.54782 15.7838 6.4372 15.8202 6.32365C15.8566 6.21057 16.0158 6.25377 16.1167 6.2135C16.2084 6.17662 16.2492 6.2198 16.287 6.31395C16.3589 6.49155 16.518 6.5522 16.701 6.5459C16.8514 6.54105 16.9679 6.47747 17.0018 6.3183C17.0368 6.15477 16.9242 6.08392 16.8004 6.03395C16.6146 5.95922 16.42 5.9044 16.2371 5.82287C15.9935 5.7137 15.8644 5.51037 15.878 5.24591C15.8921 4.96835 16.0245 4.75581 16.3006 4.65536C16.4122 4.6146 16.5675 4.62528 16.5374 4.42681C16.5239 4.34044 16.6078 4.36373 16.6568 4.35742Z" fill="white"/>
<path d="M15.2905 11.98C14.879 11.9824 14.4675 11.9824 14.056 11.9897C13.9672 11.9911 13.9327 11.963 13.9104 11.8771C13.8275 11.5641 13.644 11.3273 13.3427 11.1982C13.2369 11.1531 13.2335 11.0828 13.2345 10.9881C13.2393 10.5199 13.2422 10.0521 13.2374 9.58382C13.2364 9.4732 13.2655 9.40915 13.3708 9.36352C13.6557 9.24027 13.8415 9.01317 13.9099 8.72107C13.9478 8.55947 14.0342 8.58762 14.1317 8.5881C15.4472 8.59197 16.7632 8.59685 18.0787 8.60072C18.4499 8.6017 18.8211 8.60413 19.1928 8.59975C19.304 8.5983 19.3549 8.62207 19.3869 8.74727C19.4626 9.0423 19.6553 9.26115 19.9328 9.3878C20.0328 9.4334 20.0556 9.48677 20.0546 9.58625C20.0498 10.0623 20.0512 10.5388 20.0517 11.0148C20.0517 11.0968 20.0561 11.1696 19.9547 11.2089C19.6757 11.3162 19.5078 11.5365 19.385 11.798C19.2093 11.8888 19.0216 11.8907 18.8289 11.8897C17.7298 11.8854 16.6307 11.8863 15.5316 11.8902C15.4467 11.8912 15.3274 11.8354 15.2905 11.98ZM16.654 11.6427C17.3785 11.6384 17.9928 11.0231 17.9957 10.2991C17.9986 9.5717 17.3552 8.93165 16.6336 8.9438C15.9029 8.95593 15.2968 9.56783 15.2963 10.2942C15.2953 11.0357 15.9106 11.6471 16.654 11.6427Z" fill="white"/>
<path d="M15.293 11.9803C15.3298 11.8357 15.4487 11.8915 15.5336 11.891C16.6327 11.8872 17.7318 11.8862 18.8309 11.8906C19.0235 11.8915 19.2113 11.8896 19.387 11.7988C19.3773 11.8454 19.3676 11.892 19.3584 11.9386C19.3457 11.9522 19.3331 11.9658 19.3205 11.9789C18.2593 11.9828 17.198 11.9876 16.1368 11.99C15.8554 11.9915 15.5744 11.9842 15.293 11.9803Z" fill="white"/>
<path d="M19.3203 11.9797C19.3329 11.9662 19.3455 11.9526 19.3582 11.9395C19.362 11.9686 19.3543 11.9865 19.3203 11.9797Z" fill="white"/>
<path d="M16.641 9.31293C16.6846 9.32168 16.7778 9.28916 16.7744 9.35856C16.7676 9.50316 16.8773 9.49976 16.9569 9.53761C17.0311 9.57303 17.1005 9.61768 17.1364 9.69143C17.1675 9.75451 17.264 9.84721 17.1602 9.89088C17.0709 9.92823 16.9501 10.0957 16.8424 9.90156C16.8045 9.83361 16.7487 9.78896 16.672 9.78073C16.6046 9.77343 16.543 9.79626 16.5148 9.86466C16.4838 9.93941 16.5202 9.99278 16.5866 10.02C16.7055 10.069 16.8288 10.1058 16.9472 10.1558C17.1398 10.2373 17.266 10.3732 17.2606 10.5955C17.2553 10.8211 17.1408 10.9759 16.9292 11.0496C16.8443 11.0792 16.7618 11.0841 16.7647 11.2108C16.7671 11.3112 16.6745 11.2753 16.6167 11.2772C16.5609 11.2792 16.4964 11.285 16.5085 11.1947C16.5211 11.1001 16.4663 11.0763 16.3848 11.0569C16.2814 11.0327 16.1887 10.9706 16.1349 10.8793C16.0888 10.8007 15.9616 10.6847 16.0698 10.626C16.1548 10.5799 16.3328 10.4038 16.4343 10.6576C16.4741 10.7575 16.5745 10.7779 16.6798 10.7721C16.7637 10.7677 16.8205 10.7333 16.837 10.6522C16.854 10.5717 16.7933 10.5358 16.7322 10.511C16.6133 10.463 16.491 10.4232 16.3721 10.3752C16.1795 10.297 16.0795 10.1456 16.0859 9.94328C16.0922 9.74578 16.1834 9.58663 16.3819 9.51578C16.4425 9.49393 16.5177 9.49538 16.5095 9.40513C16.5007 9.30081 16.5701 9.31293 16.641 9.31293Z" fill="white"/>
</g>
</svg>
