<svg width="25" height="25" viewBox="0 0 25 25" fill="none" xmlns="http://www.w3.org/2000/svg">
<mask id="mask0_1316_372" style="mask-type:luminance" maskUnits="userSpaceOnUse" x="0" y="4" width="25" height="17">
<path d="M24.25 4H0V20.0229H24.25V4Z" fill="white"/>
</mask>
<g mask="url(#mask0_1316_372)">
<path d="M12.1137 20.0241C10.841 20.0012 9.59099 19.8869 8.38644 19.4755C8.11371 19.3841 7.86371 19.2698 7.61371 19.1327C7.04553 18.8127 6.75008 18.3098 6.68189 17.6698C6.50008 16.3441 6.68189 15.1098 7.47735 14.0355C8.15917 13.1212 9.06826 12.5269 10.1592 12.2069C12.1364 11.6355 14.0455 11.8412 15.7501 13.0527C16.8637 13.8527 17.4773 14.9727 17.591 16.3441C17.6364 16.9155 17.591 17.4641 17.4773 18.0127C17.3637 18.5612 17.0001 18.9041 16.5455 19.1555C15.9092 19.5212 15.2046 19.7041 14.4773 19.8184C13.6819 19.9555 12.9092 20.0241 12.1137 20.0241Z" fill="white"/>
<path d="M15.7736 7.56771C15.8645 9.55628 14.2736 11.2706 12.2509 11.362C10.2736 11.4763 8.54635 9.87631 8.45544 7.93345C8.3418 5.92201 9.79635 4.1163 11.8873 4.00201C14.0009 3.88772 15.6827 5.44201 15.7736 7.56771Z" fill="white"/>
<path d="M4.15854 17.5793C3.22672 17.5564 2.22671 17.465 1.24944 17.1221C0.431257 16.8478 0.0448936 16.2764 -0.000560956 15.4078C-0.0687427 13.6021 0.90853 12.1393 2.63581 11.6135C4.22672 11.1335 5.72672 11.2935 7.09035 12.2993C7.2949 12.4593 7.47672 12.665 7.63581 12.8478C7.70399 12.9164 7.70399 12.985 7.63581 13.0535C6.47672 14.1964 5.99945 15.5907 6.09035 17.2135C6.09035 17.3735 6.06763 17.4193 5.90854 17.4421C5.36308 17.5335 4.7949 17.5793 4.15854 17.5793Z" fill="white"/>
<path d="M20.0224 17.5792C19.4542 17.5792 18.886 17.5335 18.3178 17.442C18.1815 17.442 18.136 17.3963 18.136 17.2363C18.2042 16.0478 17.9769 14.9278 17.3178 13.9449C17.1133 13.6478 16.9087 13.3506 16.636 13.122C16.5224 13.0078 16.5224 12.9392 16.636 12.8249C17.1815 12.162 17.886 11.7506 18.7042 11.5449C20.0451 11.1792 21.3178 11.3163 22.5224 12.0478C23.8178 12.8249 24.4314 14.2878 24.1814 15.8192C24.0678 16.4135 23.7496 16.802 23.2269 17.0306C22.6815 17.282 22.0678 17.4192 21.4769 17.4878C20.9996 17.5563 20.5224 17.5792 20.0224 17.5792Z" fill="white"/>
<path d="M7.02337 8.13897C7.02337 9.71611 5.75064 10.9961 4.18246 10.9961C2.65973 10.9961 1.36429 9.69325 1.38701 8.13897C1.38701 6.58468 2.65973 5.30469 4.20519 5.30469C5.77337 5.30469 7.02337 6.56183 7.02337 8.13897Z" fill="white"/>
<path d="M22.8399 8.16183C22.8399 9.73897 21.5671 10.9961 19.9762 10.9961C18.4534 10.9961 17.1807 9.69325 17.2034 8.13897C17.2034 6.56183 18.4762 5.30469 20.0671 5.30469C21.6125 5.30469 22.8626 6.58468 22.8399 8.16183Z" fill="white"/>
</g>
</svg>
