<svg width="15" height="15" viewBox="0 0 15 15" fill="none" xmlns="http://www.w3.org/2000/svg">
<g clip-path="url(#clip0_374_161)">
<path d="M7.33169 3.4361C7.57357 3.4361 7.81546 3.43481 8.05718 3.43739C8.09761 3.43787 8.14128 3.44801 8.17764 3.46556C8.57764 3.65798 8.93447 3.91463 9.25866 4.21315C9.47343 4.41104 9.67814 4.62084 9.8749 4.8366C10.3876 5.3987 10.7989 6.02762 11.1101 6.72046C11.2835 7.10641 11.4147 7.50557 11.4767 7.92453C11.5535 8.44396 11.5261 8.95244 11.2864 9.43291C11.0871 9.83271 10.7757 10.1258 10.3894 10.3454C10.0044 10.5642 9.58691 10.6906 9.15444 10.7742C8.50995 10.8988 7.85816 10.9136 7.20506 10.8911C6.70392 10.8737 6.20489 10.8315 5.71479 10.7159C5.25326 10.607 4.81429 10.4467 4.42581 10.1697C3.91802 9.80743 3.61704 9.31875 3.52142 8.70545C3.44788 8.23319 3.50291 7.76979 3.62564 7.31267C3.83376 6.53739 4.20568 5.84052 4.67371 5.19147C5.04806 4.6722 5.47453 4.19947 5.9846 3.80724C6.15262 3.6781 6.33703 3.57006 6.51512 3.45381C6.53395 3.44157 6.55976 3.43465 6.58233 3.43449C6.83217 3.4332 7.08201 3.43368 7.33185 3.43368C7.33169 3.43449 7.33169 3.43529 7.33169 3.4361ZM7.69906 8.80334C7.71838 8.79996 7.73169 8.79674 7.74533 8.79545C7.92942 8.77661 8.1054 8.73024 8.26514 8.63573C8.54794 8.46843 8.70329 8.22112 8.70557 7.89297C8.70784 7.55967 8.54842 7.31316 8.24793 7.17082C8.08981 7.09595 7.91692 7.05135 7.74939 6.99692C7.71205 6.98485 7.69841 6.97084 7.69874 6.93155C7.70036 6.66991 7.69923 6.4081 7.69939 6.14645C7.69939 6.12777 7.70215 6.10893 7.70393 6.08671C7.94436 6.1363 8.13624 6.22824 8.20735 6.48152C8.24111 6.60164 8.37651 6.66073 8.49453 6.62434C8.61855 6.58602 8.68836 6.4659 8.65508 6.34208C8.56238 5.99654 8.32537 5.78964 7.99452 5.67822C7.90036 5.6465 7.8015 5.62863 7.69793 5.60286C7.69793 5.51511 7.69987 5.42543 7.69744 5.3359C7.695 5.25105 7.65133 5.18809 7.57812 5.14703C7.41708 5.0567 7.23169 5.16845 7.22503 5.35989C7.22211 5.4433 7.22454 5.52703 7.22454 5.60608C7.13445 5.63024 7.04987 5.64795 6.96854 5.67548C6.74532 5.751 6.55684 5.87385 6.43265 6.07963C6.26187 6.36269 6.2807 6.73624 6.48006 6.97326C6.59532 7.11028 6.74646 7.19723 6.91204 7.25938C7.01432 7.29786 7.11951 7.32861 7.22114 7.36194C7.22114 7.67335 7.22114 7.9804 7.22114 8.28858C7.21204 8.28794 7.20588 8.28874 7.20052 8.28697C6.98201 8.21677 6.82438 8.08635 6.76139 7.85835C6.73249 7.75401 6.6458 7.68381 6.55116 7.67866C6.36869 7.66868 6.25018 7.82872 6.30668 8.01148C6.39937 8.31112 6.59645 8.52398 6.87584 8.66068C6.98444 8.71382 7.10328 8.74618 7.22454 8.79062C7.22454 8.86694 7.22325 8.95276 7.22487 9.03842C7.22747 9.18285 7.32909 9.28783 7.46383 9.28735C7.6002 9.28687 7.6976 9.18382 7.6989 9.03762C7.69955 8.96146 7.69906 8.88546 7.69906 8.80334Z" fill="#283942"/>
<path d="M11.3091 5.89524C11.1415 5.62973 10.9755 5.36631 10.8008 5.08953C10.9445 5.03607 11.0893 4.97939 11.2362 4.92932C11.2803 4.91434 11.2982 4.89889 11.3027 4.84962C11.3177 4.68667 11.341 4.52469 11.3612 4.36223C11.3727 4.26916 11.4432 4.20121 11.5407 4.20057C11.8128 4.19847 12.0849 4.19896 12.357 4.20105C12.4549 4.20186 12.5224 4.26691 12.5342 4.36319C12.5547 4.52952 12.5753 4.69601 12.5945 4.8625C12.5984 4.89583 12.6114 4.91209 12.6451 4.92529C12.8203 4.99388 12.9945 5.06537 13.1672 5.13992C13.199 5.15361 13.2164 5.15007 13.2409 5.13059C13.3698 5.02818 13.4995 4.92674 13.6295 4.82595C13.7231 4.75349 13.8162 4.75913 13.8995 4.84157C14.0778 5.01788 14.2559 5.19419 14.4335 5.37114C14.5362 5.47355 14.5396 5.55647 14.4487 5.67095C14.3528 5.79171 14.258 5.9136 14.1602 6.03307C14.1369 6.06173 14.1352 6.08121 14.1507 6.11631C14.225 6.28586 14.2951 6.45734 14.3633 6.62947C14.3761 6.66199 14.3896 6.67616 14.4253 6.68002C14.5974 6.69822 14.7692 6.71883 14.9408 6.74024C15.0289 6.75119 15.0948 6.82461 15.0956 6.91977C15.0977 7.1877 15.0979 7.45563 15.0953 7.72356C15.0943 7.82451 15.0234 7.89214 14.9208 7.90373C14.7508 7.92305 14.581 7.94286 14.4115 7.96524C14.3958 7.96733 14.3761 7.9873 14.3698 8.0034C14.2942 8.19179 14.2208 8.38098 14.1419 8.58225C14.2341 8.69866 14.3377 8.83101 14.4429 8.96208C14.5417 9.08541 14.5398 9.16415 14.4292 9.27493C14.252 9.45237 14.074 9.62932 13.8953 9.80531C13.8175 9.88195 13.7206 9.88533 13.6339 9.81787C13.5041 9.71675 13.3735 9.61644 13.2451 9.51355C13.2156 9.48988 13.1953 9.49117 13.1605 9.50614C12.9912 9.57892 12.8201 9.64784 12.6484 9.71466C12.614 9.72802 12.5977 9.74348 12.5937 9.78051C12.5752 9.94926 12.5542 10.1175 12.5334 10.2859C12.5239 10.3626 12.4672 10.4225 12.3906 10.436C12.361 10.4412 12.3305 10.4424 12.3005 10.4424C12.0586 10.4429 11.8167 10.4428 11.5748 10.4424C11.438 10.4423 11.3738 10.3835 11.3586 10.247C11.3527 10.1954 11.3458 10.1441 11.3378 10.0929C11.3303 10.0451 11.3397 10.0077 11.3751 9.96874C11.6449 9.67247 11.8201 9.32597 11.9154 8.93921C11.926 8.89654 11.9389 8.87674 11.9886 8.87577C12.3904 8.86756 12.7341 8.71895 13.0302 8.45134C13.1802 8.31577 13.2958 8.15507 13.3774 7.97506C13.6761 7.31748 13.5054 6.53463 12.9013 6.08411C12.4203 5.72553 11.8914 5.66918 11.332 5.88655C11.3227 5.89041 11.3134 5.89363 11.3091 5.89524Z" fill="#283942"/>
<path d="M0.955449 8.72509C0.884669 8.55183 0.811778 8.38776 0.75155 8.21934C0.725576 8.14672 0.701388 8.10534 0.612588 8.101C0.464372 8.09391 0.316968 8.0675 0.169239 8.04995C0.0698871 8.0382 0.00202924 7.97041 0.00137989 7.87155C-0.000405849 7.60362 -0.000568188 7.33586 0.00154222 7.06793C0.00235392 6.96375 0.0651793 6.89854 0.171512 6.88518C0.337098 6.86441 0.503009 6.84444 0.66892 6.82673C0.703985 6.82303 0.717459 6.81063 0.730771 6.77682C0.798629 6.60453 0.870545 6.43385 0.94441 6.26398C0.957884 6.23291 0.961942 6.21359 0.938403 6.18477C0.835642 6.05934 0.736128 5.93133 0.635315 5.80445C0.557555 5.70671 0.562587 5.61606 0.651387 5.52783C0.830772 5.34959 1.01016 5.17134 1.18987 4.99342C1.28143 4.90277 1.37104 4.89923 1.47315 4.97925C1.60107 5.07957 1.73046 5.17811 1.85789 5.27906C1.8816 5.2979 1.89734 5.29871 1.92608 5.28647C2.10108 5.21176 2.27722 5.1393 2.45449 5.07007C2.48874 5.0567 2.50222 5.03786 2.50563 5.00646C2.52381 4.84577 2.54313 4.6854 2.55888 4.52455C2.56862 4.4252 2.64784 4.34663 2.7493 4.34631C3.01326 4.3455 3.27739 4.3455 3.54135 4.34631C3.64769 4.34663 3.71652 4.4025 3.73178 4.50813C3.75678 4.68202 3.77626 4.85656 3.79817 5.03078C3.79915 5.03867 3.80093 5.0464 3.80207 5.05219C3.9334 5.09921 4.06295 5.14558 4.19201 5.19179C4.02951 5.46745 3.87155 5.73554 3.71262 6.00524C3.6222 5.98269 3.52642 5.95355 3.42885 5.93503C2.60855 5.77949 1.7962 6.31165 1.61341 7.12219C1.42688 7.94964 1.93549 8.77258 2.76472 8.97611C2.88842 9.00654 3.01895 9.01153 3.14687 9.02312C3.18388 9.0265 3.19833 9.03745 3.20775 9.07191C3.3084 9.43967 3.48177 9.76975 3.736 10.0564C3.76408 10.0879 3.77236 10.1169 3.76571 10.1583C3.75158 10.2468 3.74655 10.337 3.73259 10.4256C3.71652 10.5278 3.65012 10.5874 3.54768 10.588C3.27771 10.59 3.00758 10.5896 2.73761 10.5871C2.64102 10.5861 2.5743 10.5241 2.56017 10.4233C2.53907 10.2732 2.51991 10.1227 2.50725 9.97166C2.50157 9.90403 2.47835 9.87263 2.4105 9.84848C2.24848 9.79068 2.09101 9.71967 1.93354 9.65027C1.9014 9.6361 1.88192 9.63562 1.85432 9.65768C1.72737 9.75928 1.59831 9.85814 1.47023 9.95845C1.37558 10.0325 1.28386 10.0322 1.19993 9.94976C1.01097 9.76427 0.823467 9.57717 0.636776 9.38927C0.565672 9.31762 0.564211 9.22198 0.628659 9.13938C0.68418 9.06821 0.740349 8.99768 0.796194 8.927C0.851227 8.85663 0.907234 8.78611 0.955449 8.72509Z" fill="#283942"/>
<path d="M10.8161 12.3442C10.5598 12.5257 10.3145 12.7107 10.0579 12.8788C9.50217 13.243 8.90769 13.5254 8.25654 13.68C7.50686 13.8579 6.76481 13.8396 6.03168 13.5934C5.4531 13.3992 4.94482 13.0873 4.48978 12.6869C4.20244 12.4339 3.94367 12.1552 3.7263 11.8399C3.7138 11.8219 3.7026 11.803 3.6875 11.7797C3.84091 11.637 3.99448 11.4942 4.14806 11.3516C4.22566 11.4541 4.29725 11.5551 4.37533 11.6507C4.61365 11.9426 4.88865 12.1966 5.19401 12.4186C5.62113 12.7292 6.09077 12.9477 6.60961 13.058C6.9187 13.1237 7.23186 13.1417 7.54663 13.1171C8.40005 13.0503 9.14795 12.7076 9.8452 12.2397C10.0532 12.1001 10.2497 11.9436 10.4512 11.7945C10.4622 11.7865 10.4713 11.7758 10.4835 11.7642C10.3999 11.6287 10.3174 11.4947 10.2345 11.3601C10.7265 11.3601 11.2157 11.3601 11.7157 11.3601C11.5071 11.8562 11.3038 12.3392 11.0954 12.8348C10.998 12.6638 10.9058 12.5017 10.8161 12.3442Z" fill="#283942"/>
<path d="M7.31141 3.23782C7.0877 3.23782 6.86384 3.2367 6.64013 3.23879C6.59143 3.23927 6.55231 3.22832 6.51335 3.19757C6.06513 2.84414 5.73736 2.40699 5.57161 1.85938C5.52924 1.71962 5.507 1.57471 5.55246 1.42899C5.59239 1.30131 5.73249 1.20518 5.86642 1.19971C6.03769 1.19278 6.18607 1.26089 6.33916 1.32047C6.5851 1.41611 6.82 1.54524 7.09176 1.56456C7.24826 1.57567 7.3942 1.53011 7.54177 1.49227C7.84713 1.41402 8.15119 1.33061 8.45752 1.25622C8.60217 1.22112 8.75038 1.2047 8.90087 1.22241C8.965 1.22998 9.00672 1.26315 9.01045 1.32208C9.01597 1.40677 9.01776 1.49404 9.00315 1.57712C8.95444 1.8523 8.84535 2.10718 8.71678 2.35386C8.55493 2.66429 8.35931 2.95106 8.10654 3.19709C8.07732 3.22559 8.04875 3.23911 8.00671 3.23879C7.77489 3.2367 7.54306 3.23782 7.31141 3.23782Z" fill="#283942"/>
<path d="M7.70312 8.32758C7.70312 8.03807 7.70312 7.75711 7.70312 7.4668C7.87245 7.51462 8.0416 7.54972 8.16368 7.6803C8.27505 7.79945 8.25216 8.03518 8.12082 8.16028C8.00654 8.26897 7.86222 8.30697 7.70312 8.32758Z" fill="#283942"/>
<path d="M7.22368 6.88284C7.10664 6.8252 6.99738 6.78349 6.90176 6.72118C6.77709 6.63987 6.75436 6.45679 6.84105 6.31929C6.92839 6.18082 7.06767 6.12672 7.22368 6.08984C7.22368 6.35085 7.22368 6.60396 7.22368 6.88284Z" fill="#283942"/>
</g>
<defs>
<clipPath id="clip0_374_161">
<rect width="15" height="15" fill="white"/>
</clipPath>
</defs>
</svg>
