<svg width="15" height="15" viewBox="0 0 15 15" fill="none" xmlns="http://www.w3.org/2000/svg">
<path d="M1 13.5938C1 14.3701 1.62388 15 2.39286 15H12.6071C13.3761 15 14 14.3701 14 13.5938V5.625H1V13.5938ZM10.2857 7.85156C10.2857 7.6582 10.4424 7.5 10.6339 7.5H11.7946C11.9862 7.5 12.1429 7.6582 12.1429 7.85156V9.02344C12.1429 9.2168 11.9862 9.375 11.7946 9.375H10.6339C10.4424 9.375 10.2857 9.2168 10.2857 9.02344V7.85156ZM10.2857 11.6016C10.2857 11.4082 10.4424 11.25 10.6339 11.25H11.7946C11.9862 11.25 12.1429 11.4082 12.1429 11.6016V12.7734C12.1429 12.9668 11.9862 13.125 11.7946 13.125H10.6339C10.4424 13.125 10.2857 12.9668 10.2857 12.7734V11.6016ZM6.57143 7.85156C6.57143 7.6582 6.72812 7.5 6.91964 7.5H8.08036C8.27187 7.5 8.42857 7.6582 8.42857 7.85156V9.02344C8.42857 9.2168 8.27187 9.375 8.08036 9.375H6.91964C6.72812 9.375 6.57143 9.2168 6.57143 9.02344V7.85156ZM6.57143 11.6016C6.57143 11.4082 6.72812 11.25 6.91964 11.25H8.08036C8.27187 11.25 8.42857 11.4082 8.42857 11.6016V12.7734C8.42857 12.9668 8.27187 13.125 8.08036 13.125H6.91964C6.72812 13.125 6.57143 12.9668 6.57143 12.7734V11.6016ZM2.85714 7.85156C2.85714 7.6582 3.01384 7.5 3.20536 7.5H4.36607C4.55759 7.5 4.71429 7.6582 4.71429 7.85156V9.02344C4.71429 9.2168 4.55759 9.375 4.36607 9.375H3.20536C3.01384 9.375 2.85714 9.2168 2.85714 9.02344V7.85156ZM2.85714 11.6016C2.85714 11.4082 3.01384 11.25 3.20536 11.25H4.36607C4.55759 11.25 4.71429 11.4082 4.71429 11.6016V12.7734C4.71429 12.9668 4.55759 13.125 4.36607 13.125H3.20536C3.01384 13.125 2.85714 12.9668 2.85714 12.7734V11.6016ZM12.6071 1.875H11.2143V0.46875C11.2143 0.210937 11.0054 0 10.75 0H9.82143C9.56607 0 9.35714 0.210937 9.35714 0.46875V1.875H5.64286V0.46875C5.64286 0.210937 5.43393 0 5.17857 0H4.25C3.99464 0 3.78571 0.210937 3.78571 0.46875V1.875H2.39286C1.62388 1.875 1 2.50488 1 3.28125V4.6875H14V3.28125C14 2.50488 13.3761 1.875 12.6071 1.875Z" fill="#283942"/>
</svg>
