<svg width="15" height="15" viewBox="0 0 15 15" fill="none" xmlns="http://www.w3.org/2000/svg">
<g clip-path="url(#clip0_1871_3115)">
<path d="M0.9375 15.0018H14.0625V13.1268H0.9375V15.0018ZM12.1875 7.50178H10.2375C9.76113 7.50178 9.375 7.11565 9.375 6.63928V6.36213C9.375 5.56028 9.63516 4.79739 10.0037 4.08518C10.2706 3.56926 10.3816 2.96047 10.2688 2.31506C10.0705 1.17893 9.1418 0.243774 8.00537 0.0460205C6.2291 -0.263061 4.6875 1.09543 4.6875 2.81428C4.6875 3.22913 4.77891 3.62112 4.94209 3.97385C5.33262 4.81907 5.625 5.70588 5.625 6.63723V6.63928C5.625 7.11565 5.23887 7.50178 4.7625 7.50178H2.8125C1.25918 7.50178 0 8.76096 0 10.3143V11.2518C0 11.7695 0.419824 12.1893 0.9375 12.1893H14.0625C14.5802 12.1893 15 11.7695 15 11.2518V10.3143C15 8.76096 13.7408 7.50178 12.1875 7.50178Z" fill="#283942"/>
</g>
<defs>
<clipPath id="clip0_1871_3115">
<rect width="15" height="15" fill="white"/>
</clipPath>
</defs>
</svg>
