<svg width="15" height="15" viewBox="0 0 15 15" fill="none" xmlns="http://www.w3.org/2000/svg">
<g clip-path="url(#clip0_971_337)">
<path d="M9.49498 6.80133C9.49429 8.82535 9.49498 10.8494 9.49429 12.8734C9.49429 13.4481 9.29717 13.649 8.72914 13.6497C6.07448 13.6504 3.41982 13.6504 0.765153 13.6497C0.204686 13.6497 0.0068745 13.4439 0.0068745 12.8636C0.0055008 9.54054 0.00893504 6.21751 6.02768e-06 2.89448C-0.000680819 2.62401 0.0570143 2.53338 0.335874 2.54251C0.987692 2.56499 1.6402 2.55094 2.29201 2.54954C2.78517 2.54813 2.93902 2.38655 2.94108 1.87088C2.94314 1.33273 2.94933 0.794583 2.93834 0.256434C2.9349 0.0590198 2.99466 -0.000696432 3.18972 6.11173e-06C5.07787 0.00703154 6.96601 0.00211374 8.85415 0.00773409C9.29442 0.00913917 9.49429 0.243789 9.49498 0.729246C9.49635 2.75327 9.49498 4.7773 9.49498 6.80133ZM4.74131 8.28721C5.79425 8.28721 6.84718 8.2865 7.89943 8.28791C8.07664 8.28791 8.28269 8.29915 8.28132 8.05677C8.27995 7.84179 8.09038 7.83688 7.92072 7.83758C5.81485 7.83969 3.70967 7.83969 1.60379 7.83828C1.42659 7.83828 1.21435 7.82985 1.22122 8.06942C1.22809 8.30336 1.44032 8.28931 1.61753 8.28931C2.6581 8.2865 3.70005 8.28791 4.74131 8.28721ZM4.74474 6.39596C3.95556 6.39596 3.16706 6.39596 2.37787 6.39596C2.06948 6.39596 1.76039 6.39807 1.452 6.39736C1.316 6.39736 1.22122 6.46902 1.21573 6.5997C1.21023 6.72967 1.30021 6.81187 1.43346 6.8224C1.50145 6.82802 1.57014 6.82662 1.63882 6.82662C3.70829 6.82662 5.77776 6.82662 7.84723 6.82521C8.02375 6.82521 8.26964 6.88001 8.27995 6.61796C8.29094 6.33976 8.03886 6.39877 7.86578 6.39807C6.82589 6.39455 5.78532 6.39596 4.74474 6.39596ZM4.74543 11.1908C5.47761 11.1908 6.2091 11.1908 6.94128 11.1908C7.30737 11.1908 7.67346 11.1908 8.03955 11.1901C8.18791 11.1901 8.29093 11.1149 8.28544 10.9632C8.28063 10.8339 8.18928 10.7566 8.0526 10.7566C7.99559 10.7566 7.93858 10.7566 7.88089 10.7566C5.81073 10.7559 3.74057 10.7552 1.67042 10.7545C1.60173 10.7545 1.53305 10.7545 1.46436 10.7559C1.31807 10.7595 1.21366 10.829 1.21916 10.9829C1.22397 11.1142 1.316 11.188 1.45131 11.1887C1.53167 11.1894 1.61135 11.1901 1.69171 11.1901C2.70962 11.1908 3.72752 11.1908 4.74543 11.1908ZM4.78252 9.73164C5.82309 9.73164 6.86367 9.73164 7.90424 9.73164C8.07664 9.73164 8.28887 9.75482 8.28132 9.50331C8.27445 9.28412 8.07801 9.29536 7.91317 9.29536C5.80936 9.29606 3.70554 9.29606 1.60173 9.29536C1.4259 9.29536 1.21641 9.28201 1.22397 9.5286C1.23015 9.7492 1.43002 9.73304 1.5928 9.73234C2.65536 9.73164 3.7186 9.73234 4.78252 9.73164ZM4.76192 5.36954C5.39175 5.36954 6.02091 5.36814 6.65006 5.37025C6.79842 5.37095 6.94609 5.35058 6.95433 5.16862C6.96395 4.96277 6.81009 4.93678 6.64662 4.93678C5.38763 4.93818 4.12864 4.93748 2.86965 4.93607C2.71099 4.93607 2.54821 4.94942 2.54889 5.15597C2.54958 5.36744 2.71786 5.36814 2.87309 5.36814C3.50293 5.36744 4.13208 5.36814 4.76192 5.36954Z" fill="#283942"/>
<path d="M6.22266 13.9296C7.13754 13.9296 8.05173 13.9296 8.96661 13.9296C9.58752 13.9296 9.77159 13.749 9.77228 13.1251C9.77434 9.14735 9.77915 5.16955 9.76679 1.19175C9.76541 0.834855 9.86638 0.801836 10.1645 0.876305C11.2291 1.14468 12.2992 1.39127 13.3666 1.6491C13.9517 1.79031 14.0919 2.02426 13.9524 2.63477C13.0561 6.55918 12.1584 10.4836 11.2593 14.4073C11.1515 14.8787 10.9035 15.0712 10.4749 14.9749C9.05933 14.656 7.64649 14.3202 6.23296 13.9914C6.22884 13.971 6.22609 13.9499 6.22266 13.9296Z" fill="#283942"/>
<path d="M0.472656 2.15578C1.16775 1.54456 1.86283 0.932648 2.62523 0.261719C2.62523 0.907356 2.62867 1.47923 2.62317 2.0511C2.6218 2.20566 2.5016 2.22814 2.37866 2.22814C1.75431 2.22814 1.12997 2.22814 0.505625 2.22814C0.494635 2.20425 0.483646 2.17966 0.472656 2.15578Z" fill="#283942"/>
</g>
<defs>
<clipPath id="clip0_971_337">
<rect width="15" height="15" fill="white"/>
</clipPath>
</defs>
</svg>
