<svg width="15" height="15" viewBox="0 0 15 15" fill="none" xmlns="http://www.w3.org/2000/svg">
<path d="M13.75 2H1.25C0.559896 2 0 2.5599 0 3.25V12.4167C0 13.1068 0.559896 13.6667 1.25 13.6667H13.75C14.4401 13.6667 15 13.1068 15 12.4167V3.25C15 2.5599 14.4401 2 13.75 2ZM4.58333 4.5C5.5026 4.5 6.25 5.2474 6.25 6.16667C6.25 7.08594 5.5026 7.83333 4.58333 7.83333C3.66406 7.83333 2.91667 7.08594 2.91667 6.16667C2.91667 5.2474 3.66406 4.5 4.58333 4.5ZM7.5 10.6667C7.5 10.9427 7.23958 11.1667 6.91667 11.1667H2.25C1.92708 11.1667 1.66667 10.9427 1.66667 10.6667V10.1667C1.66667 9.33854 2.45052 8.66667 3.41667 8.66667H3.54687C3.86719 8.79948 4.21615 8.875 4.58333 8.875C4.95052 8.875 5.30208 8.79948 5.61979 8.66667H5.75C6.71615 8.66667 7.5 9.33854 7.5 10.1667V10.6667ZM13.3333 9.29166C13.3333 9.40625 13.2396 9.5 13.125 9.5H9.375C9.26042 9.5 9.16667 9.40625 9.16667 9.29166V8.875C9.16667 8.76042 9.26042 8.66667 9.375 8.66667H13.125C13.2396 8.66667 13.3333 8.76042 13.3333 8.875V9.29166ZM13.3333 7.625C13.3333 7.73958 13.2396 7.83333 13.125 7.83333H9.375C9.26042 7.83333 9.16667 7.73958 9.16667 7.625V7.20833C9.16667 7.09375 9.26042 7 9.375 7H13.125C13.2396 7 13.3333 7.09375 13.3333 7.20833V7.625ZM13.3333 5.95833C13.3333 6.07292 13.2396 6.16667 13.125 6.16667H9.375C9.26042 6.16667 9.16667 6.07292 9.16667 5.95833V5.54167C9.16667 5.42708 9.26042 5.33333 9.375 5.33333H13.125C13.2396 5.33333 13.3333 5.42708 13.3333 5.54167V5.95833Z" fill="#283942"/>
</svg>
