<svg width="15" height="15" viewBox="0 0 15 15" fill="none" xmlns="http://www.w3.org/2000/svg">
<path d="M7.5 2C3.35781 2 0 5.35782 0 9.50001C0 10.875 0.371094 12.163 1.01719 13.2709C1.16328 13.5214 1.44167 13.6667 1.73177 13.6667H13.2682C13.5583 13.6667 13.8367 13.5214 13.9828 13.2709C14.6289 12.163 15 10.875 15 9.50001C15 5.35782 11.6422 2 7.5 2ZM7.5 3.66667C7.88307 3.66667 8.19219 3.93047 8.28958 4.28256C8.26068 4.34141 8.22083 4.39271 8.19974 4.45625L7.95964 5.17683C7.82604 5.26771 7.67396 5.33334 7.50026 5.33334C7.0401 5.33334 6.66693 4.96016 6.66693 4.5C6.66693 4.03985 7.03984 3.66667 7.5 3.66667ZM2.5 11.1667C2.03984 11.1667 1.66667 10.7935 1.66667 10.3333C1.66667 9.87319 2.03984 9.50001 2.5 9.50001C2.96016 9.50001 3.33333 9.87319 3.33333 10.3333C3.33333 10.7935 2.96016 11.1667 2.5 11.1667ZM3.75 7.00001C3.28984 7.00001 2.91667 6.62683 2.91667 6.16667C2.91667 5.70652 3.28984 5.33334 3.75 5.33334C4.21016 5.33334 4.58333 5.70652 4.58333 6.16667C4.58333 6.62683 4.21016 7.00001 3.75 7.00001ZM10.1763 5.11433L8.57917 9.906C8.93568 10.2117 9.16667 10.6599 9.16667 11.1667C9.16667 11.4719 9.07865 11.7539 8.93542 12H6.06458C5.92135 11.7539 5.83333 11.4719 5.83333 11.1667C5.83333 10.2828 6.52344 9.56694 7.39323 9.51069L8.99062 4.71876C9.09922 4.39167 9.45234 4.21224 9.78125 4.3237C10.1086 4.43282 10.2852 4.78698 10.1763 5.11433ZM10.5581 6.60391L10.9622 5.39167C11.0526 5.35808 11.1479 5.3336 11.25 5.3336C11.7102 5.3336 12.0833 5.70678 12.0833 6.16693C12.0833 6.62709 11.7102 7.00027 11.25 7.00027C10.9536 7.00001 10.706 6.83673 10.5581 6.60391ZM12.5 11.1667C12.0398 11.1667 11.6667 10.7935 11.6667 10.3333C11.6667 9.87319 12.0398 9.50001 12.5 9.50001C12.9602 9.50001 13.3333 9.87319 13.3333 10.3333C13.3333 10.7935 12.9602 11.1667 12.5 11.1667Z" fill="#283942"/>
</svg>
