<svg width="15" height="15" viewBox="0 0 15 15" fill="none" xmlns="http://www.w3.org/2000/svg">
<g clip-path="url(#clip0_391_2)">
<path d="M8.61532 5.51541C8.62271 5.24795 8.56292 4.99908 8.39462 4.78597C8.17096 4.50277 7.87422 4.35546 7.50367 4.34616C6.94267 4.33186 6.59352 3.80623 6.81792 3.31922C6.95522 3.02173 7.28665 2.85438 7.62694 2.91088C7.95763 2.96595 8.21082 3.23055 8.23887 3.55093C8.24034 3.56881 8.24034 3.58597 8.24256 3.60385C8.25806 3.73257 8.32966 3.80194 8.43964 3.79622C8.55184 3.78978 8.62418 3.70182 8.61459 3.57095C8.59096 3.26702 8.46695 3.00885 8.22706 2.8079C8.10157 2.70277 7.96058 2.61839 7.79745 2.58692C7.69632 2.56761 7.6727 2.52041 7.68377 2.43317C7.6882 2.39455 7.68747 2.35307 7.67935 2.31446C7.66015 2.22149 7.59889 2.16142 7.50145 2.15999C7.39737 2.15856 7.30363 2.22578 7.31913 2.31803C7.35677 2.53901 7.21505 2.57548 7.05265 2.6377C6.57802 2.82149 6.30933 3.31851 6.39939 3.81195C6.49092 4.30969 6.92126 4.67655 7.44314 4.69944C7.85798 4.71803 8.1215 4.90397 8.2182 5.24652C8.33187 5.64771 8.06097 6.0582 7.62841 6.13901C7.21283 6.21696 6.80242 5.92375 6.75518 5.51612C6.7323 5.31446 6.66143 5.23078 6.53226 5.25295C6.40899 5.27441 6.36027 5.38239 6.39053 5.56404C6.49166 6.15903 6.91979 6.49872 7.58782 6.51088C7.59889 6.55093 7.56124 6.5638 7.54131 6.58311C7.18109 6.93353 6.81866 7.28108 6.45918 7.63293C6.40382 7.68728 6.3492 7.71231 6.26874 7.71231C5.01978 7.71016 3.77157 7.71016 2.52261 7.71231C2.43994 7.71231 2.3986 7.70087 2.37351 7.6079C2.25319 7.16308 1.9594 6.87059 1.50027 6.74759C1.40357 6.72113 1.37109 6.68966 1.37109 6.59097C1.37478 5.20933 1.37405 3.82697 1.37183 2.44533C1.37183 2.36881 1.38807 2.3309 1.4737 2.31016C1.94169 2.19503 2.24138 1.90468 2.36908 1.45629C2.39565 1.36261 2.4333 1.34258 2.52483 1.34258C5.82437 1.34473 9.12391 1.34401 12.4227 1.34687C12.4803 1.34687 12.5755 1.29753 12.5977 1.39193C12.622 1.49562 12.701 1.59002 12.5755 1.71016C11.2808 2.95236 9.99419 4.20313 8.70464 5.45105C8.68323 5.47465 8.66552 5.50826 8.61532 5.51541ZM3.52059 3.46869C2.91383 3.46797 2.42665 3.94068 2.42887 4.52709C2.43034 5.10564 2.91752 5.5812 3.51321 5.58549C4.11185 5.58978 4.60937 5.11136 4.61232 4.52852C4.61527 3.94211 4.12736 3.46869 3.52059 3.46869Z" fill="#283942"/>
<path d="M5.98919 8.09321C5.67252 8.39786 5.35511 8.70108 5.03992 9.00716C5.00154 9.04434 4.95872 9.04148 4.9137 9.04148C3.54147 9.04148 2.16998 9.04506 0.797759 9.04005C0.343795 9.03862 0.000553614 8.69035 0.000553614 8.24911C-0.000184538 5.77188 -0.000184538 3.29464 0.000553614 0.817406C0.000553614 0.338979 0.351914 0.00501002 0.847215 0.00501002C5.26432 0.00501002 9.68069 0.00930085 14.0978 4.065e-06C14.6234 -0.00142621 15.0028 0.374736 14.9998 0.875332C14.9865 3.31752 14.9939 5.75972 14.9939 8.20191C14.9939 8.71752 14.6573 9.04291 14.1229 9.04291C12.341 9.04363 10.5584 9.04291 8.77645 9.04291C8.7329 9.04291 8.68861 9.04291 8.64506 9.04291C8.63842 9.03219 8.63177 9.02146 8.62513 9.01145C8.86134 8.78832 9.11452 8.5795 9.32785 8.33707C9.5242 8.11395 9.74195 8.04816 10.0387 8.05459C10.9223 8.0739 11.8073 8.06174 12.6916 8.06174C12.888 8.06174 12.9278 8.02599 12.9514 7.83719C13.0075 7.38236 13.2976 7.10775 13.7708 7.05912C13.9384 7.04196 13.9834 6.99619 13.9834 6.83242C13.9841 5.87414 13.9849 4.91586 13.9826 3.95757C13.9826 3.86961 14.004 3.79881 14.0587 3.72658C14.6743 2.90632 14.5828 1.81931 13.8409 1.10489C13.7826 1.04911 13.7272 0.990469 13.6667 0.936119C13.5641 0.843866 13.4689 0.843151 13.3685 0.939694C13.243 1.06055 13.1227 1.18642 13.0016 1.30799C12.9788 1.29011 12.9684 1.28654 12.9669 1.28081C12.9027 0.985463 12.9027 0.985463 12.5868 0.985463C9.17727 0.985463 5.76774 0.985463 2.35821 0.985463C2.09395 0.985463 2.07181 1.00406 2.03859 1.25149C1.98323 1.66627 1.67247 1.95304 1.23844 1.9888C1.06054 2.00382 1.01256 2.0503 1.01256 2.21836C1.01182 3.75519 1.01182 5.29202 1.01182 6.82885C1.01182 6.99547 1.05833 7.04196 1.23474 7.06127C1.70716 7.11419 1.99135 7.38952 2.0445 7.84792C2.06517 8.02384 2.10946 8.06246 2.30064 8.06246C3.48094 8.06317 4.66199 8.06317 5.84229 8.06317C5.88658 8.06317 5.93013 8.06317 5.97442 8.06317C5.97885 8.07176 5.98402 8.08248 5.98919 8.09321Z" fill="#283942"/>
<path d="M14.0897 2.70023C14.0845 2.99415 13.9243 3.38319 13.5966 3.70071C11.5932 5.64374 9.58766 7.5839 7.58579 9.52765C7.51345 9.59773 7.47876 9.60059 7.40568 9.52836C7.0462 9.17151 6.68156 8.81894 6.31322 8.46996C6.23645 8.39701 6.2239 8.35554 6.30731 8.27544C8.10471 6.53909 9.89842 4.79987 11.6936 3.06138C12.2738 2.49928 12.8547 1.93933 13.432 1.37437C13.4999 1.30786 13.5346 1.30715 13.6017 1.37437C13.9177 1.69117 14.0933 2.10309 14.0897 2.70023Z" fill="#283942"/>
<path d="M0.671876 12.6572C0.6704 11.1776 2.01236 10.0849 3.51819 10.3445C3.89391 10.4088 4.21132 10.3109 4.47853 10.0541C4.94061 9.60931 5.40122 9.16378 5.85888 8.71468C5.92974 8.64531 5.96812 8.63029 6.04932 8.71039C6.41101 9.07153 6.77861 9.42624 7.1499 9.77809C7.2215 9.84602 7.22741 9.87963 7.15286 9.95115C6.70111 10.3809 6.25748 10.8186 5.8072 11.2498C5.51416 11.5309 5.39753 11.8556 5.46692 12.2575C5.68246 13.519 4.84022 14.7061 3.56765 14.9528C2.05444 15.246 0.673353 14.1504 0.671876 12.6572ZM1.44546 12.6379C1.43808 13.5175 2.1563 14.2291 3.05906 14.2363C3.96994 14.2434 4.70588 13.5511 4.71548 12.6794C4.72507 11.7869 4.0039 11.0703 3.08785 11.0618C2.19173 11.0532 1.45284 11.7626 1.44546 12.6379Z" fill="#283942"/>
<path d="M9.04742 9.40385C9.27994 9.40385 9.51246 9.40671 9.74424 9.40242C9.81362 9.40099 9.86308 9.4203 9.9118 9.46821C10.1089 9.66416 10.3082 9.85725 10.509 10.0496C10.7717 10.3013 11.084 10.4165 11.4531 10.3457C12.7441 10.099 13.9953 10.9049 14.2699 12.1621C14.543 13.4151 13.7443 14.6501 12.4761 14.9347C10.7481 15.323 9.21572 13.8949 9.5346 12.1986C9.60251 11.8375 9.47481 11.53 9.20908 11.2732C8.75511 10.8334 8.30263 10.3915 7.84497 9.95522C7.7682 9.88228 7.78371 9.85152 7.84423 9.77214C8.0834 9.45748 8.39194 9.33806 8.78612 9.40099C8.87248 9.41529 8.96106 9.40313 9.04742 9.40385ZM13.5494 12.6541C13.5502 11.7738 12.812 11.058 11.9085 11.063C11.0057 11.068 10.2801 11.7738 10.2779 12.6506C10.2757 13.5266 11.0006 14.2339 11.9048 14.2367C12.8179 14.2389 13.5487 13.5366 13.5494 12.6541Z" fill="#283942"/>
<path d="M10.0234 7.70851C11.2259 6.54355 12.4173 5.39004 13.6101 4.23438C13.6315 4.25011 13.6175 4.28372 13.6175 4.31232C13.6182 5.0718 13.616 5.83128 13.6197 6.59075C13.6205 6.68014 13.599 6.7159 13.5024 6.74165C13.0388 6.86465 12.7413 7.15643 12.6166 7.60768C12.5996 7.66846 12.5885 7.71066 12.5066 7.71066C11.6828 7.70708 10.8583 7.70851 10.0234 7.70851Z" fill="#283942"/>
<path d="M4.24514 4.519C4.24588 4.90375 3.92478 5.21912 3.5284 5.22341C3.12905 5.22699 2.79467 4.90589 2.79689 4.51972C2.7991 4.13927 3.12832 3.82174 3.52175 3.82031C3.91445 3.8196 4.2444 4.13783 4.24514 4.519Z" fill="#283942"/>
<path d="M3.08192 11.4238C3.77874 11.4238 4.34859 11.9795 4.34712 12.6567C4.34564 13.3325 3.7721 13.8832 3.07233 13.881C2.37477 13.8796 1.80492 13.3232 1.80861 12.6467C1.81156 11.9688 2.37847 11.4238 3.08192 11.4238Z" fill="#283942"/>
<path d="M11.9216 11.4238C12.6198 11.4267 13.1838 11.9795 13.1816 12.6603C13.1794 13.3304 12.6102 13.8796 11.9179 13.8803C11.2107 13.8811 10.6409 13.3275 10.6445 12.6431C10.6482 11.9666 11.2196 11.421 11.9216 11.4238Z" fill="#283942"/>
</g>
<defs>
<clipPath id="clip0_391_2">
<rect width="15" height="15" fill="white"/>
</clipPath>
</defs>
</svg>
