<svg width="14" height="15" viewBox="0 0 14 15" fill="none" xmlns="http://www.w3.org/2000/svg">
<g clip-path="url(#clip0_1531_519)">
<path d="M0.00678867 7.27386C0.00678867 5.60933 0.0143322 3.94481 8.32871e-05 2.28112C-0.00243123 1.98457 0.0503737 1.87651 0.379776 1.87902C1.60518 1.88907 1.60518 1.87567 1.60518 0.65848C1.60518 0.00758077 1.60518 0.00758077 2.25561 0.00758077C4.68379 0.00758077 7.11282 0.0151201 9.541 4.13938e-05C9.90896 -0.00247173 10.0146 0.108943 10.0121 0.472509C9.99697 2.51149 10.0062 4.54963 10.0012 6.58862C10.0012 6.70003 10.0791 6.86506 9.92908 6.91783C9.79329 6.96558 9.63488 6.97061 9.52089 6.8148C9.40941 6.66317 9.23172 6.67741 9.06241 6.67741C6.66607 6.67825 4.2689 6.67741 1.87256 6.67909C1.40821 6.67909 1.32104 6.7704 1.32021 7.2437C1.31769 8.2699 1.31853 9.29609 1.32021 10.3223C1.32021 10.5032 1.3596 10.6875 1.06456 10.6691C0.864239 10.6565 0.881841 10.84 0.881003 10.974C0.87765 11.459 0.871783 11.9449 0.882679 12.43C0.887708 12.6419 0.857534 12.7868 0.596862 12.7449C0.36385 12.7072 0.0252285 12.8731 0.00930319 12.4325C0.0059505 12.3353 0.00846502 12.2381 0.00846502 12.1409C0.00678867 10.52 0.00678867 8.89734 0.00678867 7.27386ZM2.12988 3.14312C1.40905 3.13726 0.82736 3.73203 0.861725 4.43906C0.89609 5.15111 1.53729 5.71907 2.22376 5.64536C2.98398 5.5641 3.48521 4.89309 3.34188 4.14753C3.29829 3.918 3.12395 3.68009 3.41731 3.48156C3.48856 3.43297 3.48269 3.33663 3.41396 3.26208C3.33014 3.1716 3.22872 3.16993 3.16586 3.2604C3.00409 3.49161 2.85741 3.38103 2.68727 3.27464C2.52047 3.1716 2.32517 3.14647 2.12988 3.14312ZM6.59567 3.9113C7.31733 3.9113 8.039 3.91298 8.76067 3.91046C8.91908 3.90962 9.14539 3.9557 9.13784 3.7136C9.13114 3.50836 8.91908 3.54438 8.77156 3.54438C7.32823 3.54271 5.88489 3.54187 4.44072 3.54522C4.2974 3.54522 4.09037 3.50082 4.08534 3.72198C4.08031 3.94146 4.28147 3.9113 4.42983 3.9113C5.15233 3.91214 5.874 3.9113 6.59567 3.9113ZM6.61662 4.67194C5.88322 4.67194 5.14982 4.67026 4.41642 4.67361C4.27225 4.67445 4.07193 4.63005 4.08282 4.86461C4.09204 5.06818 4.27896 5.01959 4.4072 5.02043C5.874 5.02378 7.3408 5.02378 8.80676 5.02043C8.94842 5.02043 9.15461 5.06566 9.14203 4.83278C9.13198 4.64513 8.95177 4.67278 8.81598 4.67278C8.08342 4.6711 7.35002 4.67194 6.61662 4.67194Z" fill="#1E333E"/>
<path d="M5.2889 11.0099C6.49586 11.0099 7.70283 11.0166 8.9098 11.004C9.1688 11.0015 9.28949 11.0517 9.25932 11.3391C9.21154 11.7889 9.4521 12.3938 9.16461 12.6493C8.91399 12.8729 8.32141 12.7205 7.88053 12.7221C6.93674 12.7263 5.9938 12.7205 5.05002 12.7263C4.86227 12.7272 4.70972 12.6844 4.5513 12.5739C3.93944 12.1466 3.32925 12.1659 2.69643 12.5864C2.26812 12.8704 1.78282 12.6794 1.32518 12.7079C1.21202 12.7154 1.24304 12.5538 1.2422 12.4624C1.23884 12.0746 1.25561 11.685 1.23549 11.298C1.22292 11.0526 1.31596 11.0023 1.54226 11.004C2.79114 11.0149 4.04002 11.0099 5.2889 11.0099Z" fill="#1E333E"/>
<path d="M9.6152 10.3465C9.6152 9.44516 9.62777 8.54294 9.60765 7.64157C9.60179 7.35591 9.6965 7.28973 9.96136 7.29978C10.4601 7.31905 10.9605 7.31654 11.46 7.3023C11.9981 7.28722 12.3904 7.50251 12.6636 7.96576C12.9243 8.4064 13.1716 8.86127 13.4817 9.26589C13.9351 9.85731 14.0332 10.5116 13.9921 11.2236C13.9796 11.4456 13.9142 11.5101 13.7021 11.4975C13.2747 11.4724 13.1582 11.7296 13.1657 12.1066C13.1749 12.5815 13.2805 12.7373 13.7206 12.7407C14.05 12.7432 14.0173 12.8932 13.9284 13.1001C13.8362 13.3129 13.6644 13.3933 13.4381 13.4226C13.1925 13.4553 13.1531 13.2927 13.0701 13.1311C12.7776 12.5614 12.294 12.2607 11.6603 12.2724C11.046 12.2841 10.5489 12.574 10.3142 13.152C10.1868 13.467 9.97813 13.4377 9.75769 13.41C9.48863 13.3765 9.62442 13.1428 9.6219 13.0088C9.60849 12.1225 9.6152 11.2345 9.6152 10.3465ZM11.7877 10.4831C12.232 10.4831 12.6762 10.4856 13.1204 10.4822C13.568 10.4789 13.6351 10.3566 13.3995 9.95951C13.2084 9.63783 13.009 9.32201 12.807 9.00703C11.8489 7.51675 12.2764 7.7555 10.4886 7.73372C10.4467 7.73288 10.4048 7.73791 10.3637 7.73288C10.1298 7.70775 10.0435 7.81246 10.046 8.04451C10.0544 8.75237 10.0536 9.46023 10.0469 10.1673C10.0443 10.401 10.1432 10.4889 10.3721 10.4848C10.8431 10.4772 11.3159 10.4831 11.7877 10.4831ZM10.5858 11.2881C10.7417 11.2797 10.9546 11.3225 10.9546 11.1164C10.9546 10.881 10.7291 10.9312 10.5707 10.9296C10.424 10.9279 10.2162 10.8919 10.2145 11.1005C10.2137 11.3509 10.4458 11.2663 10.5858 11.2881Z" fill="#1E333E"/>
<path d="M3.45193 8.34357C3.47623 8.35111 3.49048 8.35362 3.50306 8.35949C3.69081 8.45917 3.74529 8.83195 3.99087 8.72975C4.27082 8.61415 4.08307 8.28577 4.12917 8.0554C4.14007 8.00179 4.13085 7.94482 4.13085 7.88953C4.13085 6.96135 4.13001 6.96722 5.05032 7.03758C5.23137 7.05182 5.28753 7.10795 5.28669 7.28387C5.28082 8.33603 5.27998 9.38903 5.28669 10.4412C5.28753 10.6347 5.20203 10.6657 5.0344 10.6649C3.99506 10.659 2.95573 10.6573 1.9164 10.6665C1.70937 10.6682 1.66243 10.5945 1.66411 10.4027C1.67165 9.3639 1.67081 8.32514 1.66494 7.28638C1.66411 7.11298 1.70937 7.02167 1.89544 7.04261C1.9231 7.04596 1.95076 7.04345 1.97842 7.04261C2.83 7.01748 2.83 7.01748 2.83 7.86356C2.83 8.04367 2.82833 8.22378 2.83084 8.40388C2.83252 8.52535 2.7948 8.67279 2.93729 8.73562C3.10828 8.81101 3.17868 8.65771 3.26669 8.55635C3.32872 8.4843 3.39242 8.41226 3.45193 8.34357Z" fill="#1E333E"/>
<path d="M7.43712 8.33866C7.66343 8.4308 7.71205 8.84547 7.97607 8.724C8.23339 8.60672 8.04815 8.27164 8.09174 8.03708C8.1018 7.98347 8.09341 7.9265 8.09341 7.87121C8.09341 6.98492 8.19064 6.90701 9.07491 7.03853C9.22327 7.06031 9.2568 7.11811 9.25596 7.24964C9.25345 8.31855 9.25177 9.38663 9.2568 10.4555C9.25764 10.6214 9.19561 10.6658 9.03803 10.665C7.98278 10.6599 6.92752 10.6574 5.87226 10.6666C5.67277 10.6683 5.65014 10.5787 5.65014 10.4162C5.65433 9.37574 5.65768 8.33447 5.64846 7.29403C5.64679 7.08544 5.72474 7.04691 5.915 7.03853C6.81269 7.00084 6.81269 6.99413 6.81269 7.87289C6.81269 8.06724 6.80933 8.26159 6.81436 8.45593C6.81688 8.56232 6.7867 8.69133 6.92165 8.74243C7.05157 8.79186 7.12281 8.69552 7.19573 8.6084C7.27536 8.5129 7.36085 8.42326 7.43712 8.33866Z" fill="#1E333E"/>
<path d="M11.6794 15.0005C11.0281 14.9946 10.4925 14.4518 10.5001 13.8034C10.5076 13.1517 11.0466 12.6247 11.702 12.6289C12.3541 12.6331 12.8889 13.176 12.8813 13.8252C12.8738 14.4769 12.3315 15.0063 11.6794 15.0005ZM11.7062 13.1006C11.3223 13.0905 10.9921 13.4172 10.9904 13.8093C10.9879 14.198 11.2704 14.4962 11.6568 14.5121C12.0574 14.5289 12.3876 14.2298 12.4027 13.8386C12.417 13.4574 12.0893 13.1106 11.7062 13.1006Z" fill="#1E333E"/>
<path d="M3.62886 12.6309C4.28599 12.6242 4.82158 13.1478 4.82745 13.802C4.83331 14.4538 4.30443 14.9933 3.65317 15C2.99772 15.0067 2.46296 14.4823 2.4571 13.8263C2.45039 13.1671 2.97006 12.6376 3.62886 12.6309ZM3.65987 13.1009C3.28102 13.0883 2.93402 13.42 2.92731 13.802C2.9206 14.1723 3.22402 14.4923 3.59869 14.5107C4.00604 14.5308 4.32454 14.2443 4.33879 13.8431C4.35388 13.4452 4.0513 13.1143 3.65987 13.1009Z" fill="#1E333E"/>
<path d="M7.1202 13.0793C7.7438 13.0793 8.3674 13.0767 8.99184 13.0818C9.09913 13.0826 9.24832 13.0189 9.25754 13.2334C9.2676 13.4738 9.10416 13.4143 8.97927 13.4143C7.78739 13.4169 6.59551 13.4143 5.40279 13.4177C5.23934 13.4185 5.07338 13.4169 5.07422 13.2066C5.07506 12.9779 5.27119 13.0868 5.37429 13.0843C5.95598 13.0734 6.53851 13.0793 7.1202 13.0793Z" fill="#1E333E"/>
<path d="M0.234375 1.50145C0.575511 1.08763 0.876415 0.722385 1.179 0.355469C1.29466 0.438402 1.24605 0.543953 1.24437 0.628562C1.21755 1.58355 1.47906 1.54334 0.234375 1.50145Z" fill="#1E333E"/>
<path d="M3.76037 8.0393C3.56591 7.81982 3.39157 7.79217 3.17867 8.07197C3.17867 7.77123 3.19125 7.57185 3.17532 7.37499C3.15604 7.1396 3.2122 7.03237 3.48293 7.03321C3.74193 7.03405 3.77629 7.14546 3.76288 7.35489C3.75115 7.55761 3.76037 7.76201 3.76037 8.0393Z" fill="#1E333E"/>
<path d="M7.7455 8.04071C7.55188 7.84385 7.37922 7.75338 7.16213 8.11359C7.16213 7.77432 7.17219 7.56322 7.15878 7.35295C7.14536 7.14353 7.17805 7.03295 7.43705 7.03127C7.70024 7.0296 7.77316 7.11672 7.74969 7.36301C7.73041 7.56406 7.7455 7.76846 7.7455 8.04071Z" fill="#1E333E"/>
<path d="M2.24598 13.0803C2.19988 13.2311 2.22418 13.4095 2.03727 13.4103C1.77828 13.4112 1.51174 13.4698 1.26196 13.3676C1.2343 13.3559 1.24268 13.2403 1.24604 13.1733C1.25107 13.0744 1.33153 13.082 1.39858 13.0811C1.67434 13.0794 1.95094 13.0803 2.24598 13.0803Z" fill="#1E333E"/>
<path d="M13.9816 12.129C14.0025 12.2965 13.9748 12.4096 13.7527 12.4054C13.5306 12.4004 13.5222 12.2755 13.5197 12.1114C13.5164 11.9346 13.5558 11.8374 13.767 11.8341C14.0067 11.8299 13.9908 11.9689 13.9816 12.129Z" fill="#1E333E"/>
<path d="M2.96438 4.08194C3.06831 4.53514 2.97527 4.88865 2.60648 5.13159C2.30222 5.3318 1.97282 5.33348 1.66437 5.15002C1.33748 4.95567 1.19919 4.64991 1.24193 4.26959C1.28468 3.88173 1.61324 3.54832 2.00216 3.50811C2.25361 3.48214 2.60313 3.49052 2.64084 3.73094C2.67605 3.95293 2.35922 4.14644 2.16308 4.31147C2.05664 4.40111 1.9527 4.22854 1.84709 4.17828C1.74316 4.12801 1.64342 4.07021 1.55289 4.18833C1.43723 4.33995 1.56798 4.41032 1.66353 4.48572C2.12788 4.85514 2.17566 4.84761 2.57044 4.42373C2.67856 4.30728 2.75483 4.15063 2.96438 4.08194Z" fill="#1E333E"/>
<path d="M13.0737 10.1122C12.1877 10.1122 11.3881 10.1097 10.5885 10.1147C10.4376 10.1156 10.4016 10.0527 10.4033 9.91702C10.4083 9.3767 10.41 8.83554 10.4024 8.29521C10.3999 8.13354 10.4502 8.07657 10.6137 8.08244C10.9322 8.09333 11.2515 8.0883 11.57 8.08579C11.705 8.08495 11.8248 8.13019 11.8944 8.23825C12.2783 8.83889 12.6546 9.44371 13.0737 10.1122Z" fill="#1E333E"/>
<path d="M11.6978 13.4727C11.9116 13.4869 12.0331 13.6084 12.0323 13.8136C12.0314 14.0163 11.9099 14.1571 11.7012 14.1604C11.4724 14.1638 11.3357 14.0197 11.3441 13.7977C11.3508 13.5958 11.4866 13.4802 11.6978 13.4727Z" fill="#1E333E"/>
<path d="M3.99377 13.8205C3.96192 14.0215 3.85379 14.1589 3.64593 14.1589C3.41543 14.1589 3.29054 14.014 3.30144 13.7878C3.3115 13.5775 3.4456 13.4644 3.65766 13.4753C3.86804 13.4862 3.9703 13.6169 3.99377 13.8205Z" fill="#1E333E"/>
</g>
<defs>
<clipPath id="clip0_1531_519">
<rect width="14" height="15" fill="white"/>
</clipPath>
</defs>
</svg>
