<svg width="15" height="15" viewBox="0 0 15 15" fill="none" xmlns="http://www.w3.org/2000/svg">
<g clip-path="url(#clip0_1874_3247)">
<path d="M3.92045 9.19141C4.68539 9.19141 5.44741 9.19727 6.21236 9.18848C6.4732 9.18555 6.64319 9.3995 6.65198 9.62517C6.66077 9.83912 6.66077 10.056 6.65198 10.27C6.64905 10.3725 6.68422 10.3901 6.77801 10.3901C6.99782 10.3872 7.22056 10.3696 7.43744 10.4341C7.66898 10.5015 7.85362 10.6304 7.96793 10.8473C8.08516 11.073 8.20825 11.2957 8.30204 11.5302C8.40755 11.7881 8.60685 11.9024 8.85597 11.961C8.91458 11.9757 8.97613 11.9904 9.03182 12.0079C9.30732 12.0959 9.42455 12.2541 9.42455 12.5414C9.42455 12.9458 9.42455 13.3473 9.42455 13.7518C9.42455 13.9569 9.26628 14.1504 9.06699 14.1914C8.86769 14.2324 8.66253 14.2119 8.46031 14.2149C8.39876 14.2149 8.36652 14.1855 8.36359 14.1152C8.34014 13.5789 8.02068 13.192 7.49899 13.0982C7.18246 13.0425 6.88059 13.1099 6.62267 13.3356C6.37941 13.5466 6.26804 13.8104 6.25046 14.1211C6.2446 14.2119 6.18891 14.2178 6.12443 14.2178C5.91634 14.2178 5.70825 14.2178 5.50309 14.2178C5.04882 14.2178 4.59454 14.2149 4.14026 14.2178C4.03768 14.2178 3.99372 14.1885 3.99079 14.0771C3.97906 13.6111 3.66546 13.2242 3.20532 13.1129C2.61622 12.9693 2.0623 13.3063 1.90696 13.8954C1.88645 13.9687 1.89817 14.0478 1.87765 14.124C1.86886 14.1592 1.86886 14.1826 1.82197 14.1943C1.54647 14.2588 1.21236 14.1826 1.08047 13.913C1.04823 13.8485 1.03064 13.7782 1.03064 13.702C1.03064 13.3766 1.03064 13.0513 1.03064 12.726C1.03064 12.5882 1.09805 12.5208 1.23873 12.5208C1.77214 12.5208 2.30263 12.5179 2.83604 12.5208C3.09981 12.5238 3.30497 12.3215 3.29032 12.0666C3.27566 11.8145 3.21998 11.6885 3.0324 11.6211C2.95034 11.5918 2.86241 11.58 2.77156 11.58C2.26159 11.58 1.75456 11.58 1.2446 11.58C1.07461 11.58 1.03064 11.539 1.03064 11.3807C1.03064 11.199 1.06875 11.158 1.24166 11.1551C2.04471 11.1551 2.84776 11.1492 3.65081 11.158C3.88821 11.1609 4.06406 10.9734 4.06113 10.7418C4.06113 10.6568 4.06699 10.5718 4.03475 10.4898C3.97613 10.3344 3.83838 10.2377 3.67132 10.2377C2.85948 10.2377 2.05057 10.2377 1.23873 10.2377C1.08926 10.2377 1.03064 10.1791 1.03064 10.0267C1.03064 9.88309 1.01306 9.73361 1.03944 9.59293C1.08926 9.31744 1.28856 9.18848 1.5875 9.18262C2.37003 9.18262 3.14671 9.19141 3.92045 9.19141ZM8.08809 11.9405C7.93276 11.6533 7.81552 11.3632 7.65433 11.0994C7.57519 10.9704 7.46089 10.8913 7.32314 10.8268C7.11798 10.736 6.90989 10.7799 6.70474 10.7653C6.64026 10.7623 6.65491 10.8122 6.65491 10.8473C6.65491 11.1844 6.65491 11.5185 6.65198 11.8555C6.65198 11.9229 6.6725 11.9405 6.73991 11.9405C7.18246 11.9405 7.62502 11.9405 8.08809 11.9405Z" fill="#283942"/>
<path d="M14.2696 7.49414C14.2696 9.94724 14.2696 12.3974 14.2725 14.8505C14.2725 14.9619 14.255 15 14.1289 15C12.2385 14.9941 10.3452 14.9941 8.45484 15C8.3464 15 8.31416 14.9707 8.32295 14.8652C8.33174 14.7362 8.33174 14.6073 8.32295 14.4783C8.31709 14.3757 8.34053 14.3376 8.45484 14.3406C8.80068 14.3494 9.14358 14.3435 9.48942 14.3435C10.82 14.3435 12.1535 14.3435 13.4841 14.3464C13.5926 14.3464 13.619 14.32 13.619 14.2116C13.616 9.73916 13.616 5.26671 13.619 0.794256C13.619 0.688746 13.5926 0.659437 13.4841 0.659437C10.1958 0.662368 6.90443 0.662368 3.61603 0.659437C3.49587 0.659437 3.47828 0.697538 3.47828 0.805979C3.48121 3.49355 3.47828 6.17819 3.48415 8.86577C3.48415 8.98593 3.45191 9.0211 3.33467 9.01231C3.19399 9.00059 3.05331 9.00645 2.91263 9.01231C2.84815 9.01524 2.81592 8.99765 2.82471 8.92731C2.82764 8.9068 2.82471 8.88921 2.82471 8.8687C2.82471 5.96131 2.82471 3.05686 2.82178 0.149472C2.82178 0.0205158 2.85695 0 2.97125 0C6.69048 0.00293083 10.4126 0.00293083 14.1319 0C14.2432 0 14.2725 0.0263775 14.2725 0.14068C14.2696 2.59086 14.2696 5.04396 14.2696 7.49414Z" fill="#283942"/>
<path d="M8.56036 5.61817C9.78545 5.61817 11.0105 5.6211 12.2356 5.61523C12.347 5.61523 12.3704 5.64747 12.3675 5.75298C12.3587 5.9728 12.3646 5.9728 12.1448 5.9728C9.71804 5.9728 7.29131 5.9728 4.86165 5.97573C4.74442 5.97573 4.71804 5.94349 4.7239 5.83212C4.7327 5.61817 4.72684 5.61817 4.94079 5.61817C6.14829 5.61817 7.35579 5.61817 8.56036 5.61817Z" fill="#283942"/>
<path d="M8.51928 7.0519C7.29126 7.0519 6.06031 7.04897 4.8323 7.05483C4.72679 7.05483 4.70041 7.02845 4.70334 6.92587C4.71213 6.7002 4.70627 6.7002 4.93194 6.7002C7.35574 6.7002 9.77954 6.7002 12.2033 6.69727C12.3235 6.69727 12.3557 6.72657 12.3499 6.84381C12.3411 7.0519 12.3469 7.0519 12.1389 7.0519C10.9314 7.0519 9.72385 7.0519 8.51928 7.0519Z" fill="#283942"/>
<path d="M8.54856 8.20326C7.31468 8.20326 6.0808 8.20326 4.84985 8.2062C4.75314 8.2062 4.72383 8.18275 4.72676 8.0831C4.73262 7.85156 4.72969 7.84863 4.95829 7.84863C7.38209 7.84863 9.80589 7.84863 12.2297 7.8457C12.3411 7.8457 12.3762 7.87208 12.3704 7.98638C12.3616 8.20033 12.3674 8.20033 12.1564 8.20033C10.9518 8.20326 9.75021 8.20326 8.54856 8.20326Z" fill="#283942"/>
<path d="M6.07768 3.17401C6.48799 3.17401 6.89831 3.17694 7.30863 3.17108C7.39948 3.17108 7.43172 3.19453 7.43172 3.29124C7.42879 3.78362 7.42879 4.276 7.43172 4.77131C7.43172 4.86217 7.40534 4.89441 7.31156 4.89148C6.49092 4.88855 5.66736 4.88855 4.84673 4.89148C4.75587 4.89148 4.72363 4.86803 4.72363 4.77131C4.72656 4.27893 4.72656 3.78655 4.72363 3.29124C4.72363 3.20039 4.75001 3.16815 4.8438 3.17108C5.25704 3.17694 5.66736 3.17401 6.07768 3.17401ZM6.08061 4.56323C6.38835 4.56323 6.69901 4.56029 7.00675 4.56616C7.08295 4.56616 7.1064 4.54271 7.10347 4.46651C7.10054 4.17636 7.10054 3.88913 7.10347 3.59898C7.10347 3.51985 7.08002 3.50226 7.00382 3.50226C6.38541 3.50519 5.76701 3.50519 5.15153 3.50226C5.07533 3.50226 5.05189 3.52571 5.05482 3.60191C5.05775 3.89206 5.05775 4.17929 5.05482 4.46944C5.05482 4.54857 5.07826 4.56616 5.15446 4.56616C5.4622 4.56029 5.77287 4.56323 6.08061 4.56323Z" fill="#283942"/>
<path d="M2.21502 11.0024C1.74022 11.0024 1.26836 11.0024 0.793564 11.0024C0.626506 11.0024 0.520996 10.8969 0.520996 10.7269C0.520996 10.5042 0.626506 10.4163 0.78184 10.4163C1.73729 10.4133 2.69274 10.4133 3.64526 10.4163C3.81818 10.4163 3.90904 10.5335 3.90611 10.7269C3.90318 10.8998 3.80353 11.0024 3.63354 11.0024C3.16168 11.0024 2.68688 11.0024 2.21502 11.0024Z" fill="#283942"/>
<path d="M7.31185 14.9733C6.84292 14.9967 6.46777 14.5805 6.46777 14.1351C6.4707 13.6954 6.85171 13.2734 7.36461 13.2968C7.74562 13.3144 8.18524 13.6866 8.16473 14.1761C8.14714 14.5571 7.78958 15.0084 7.31185 14.9733ZM6.9836 14.138C6.9836 14.3256 7.13307 14.4838 7.31478 14.475C7.52287 14.4662 7.64597 14.3373 7.65476 14.1321C7.66355 13.9592 7.4877 13.7921 7.31185 13.7951C7.16238 13.798 6.96308 13.9358 6.9836 14.138Z" fill="#283942"/>
<path d="M2.95059 14.9733C2.47287 15.0055 2.10358 14.5717 2.09772 14.1438C2.09186 13.7218 2.47873 13.2616 3.018 13.2968C3.34626 13.3173 3.82105 13.672 3.79467 14.1849C3.77709 14.5747 3.39022 15.0172 2.95059 14.9733ZM2.95059 13.798C2.75716 13.798 2.60769 13.9533 2.61355 14.1468C2.61648 14.3343 2.76595 14.4809 2.95352 14.4809C3.13231 14.4809 3.30229 14.308 3.29643 14.1321C3.28764 13.9533 3.12644 13.7951 2.95059 13.798Z" fill="#283942"/>
<path d="M1.56723 11.7764C1.9922 11.7764 2.4201 11.7764 2.84507 11.7764C3.04144 11.7764 3.12936 11.8584 3.12936 12.0519C3.13229 12.2482 3.02971 12.3596 2.83921 12.3625C2.59302 12.3655 2.34683 12.3625 2.10064 12.3625C1.50275 12.3625 0.904859 12.3625 0.304039 12.3625C0.245422 12.3625 0.186805 12.3537 0.13405 12.3332C0.0490563 12.301 -0.0124912 12.2482 0.00216299 12.1427C0.00802466 12.0958 0.00216299 12.0489 0.00216299 12.002C0.00216299 11.8438 0.0666413 11.7764 0.224906 11.7764C0.673324 11.7764 1.11881 11.7764 1.56723 11.7764Z" fill="#283942"/>
<path d="M10.7789 4.39649C11.2713 4.39649 11.7637 4.39942 12.259 4.39355C12.3469 4.39355 12.3704 4.417 12.3704 4.50493C12.3645 4.74819 12.3704 4.74819 12.1271 4.74819C11.1893 4.74819 10.2485 4.74819 9.31059 4.75112C9.21974 4.75112 9.19336 4.72767 9.19336 4.63388C9.19922 4.39649 9.19336 4.39649 9.43076 4.39649C9.87917 4.39649 10.3305 4.39649 10.7789 4.39649Z" fill="#283942"/>
<path d="M12.1035 2.21284C12.1358 2.16302 12.1211 2.12492 12.1211 2.08975C12.1211 1.89924 12.1211 1.70581 12.1182 1.5153C12.1152 1.39514 12.2032 1.43031 12.2676 1.42738C12.3292 1.42445 12.3937 1.41272 12.3907 1.5153C12.3878 1.90217 12.3878 2.28904 12.3907 2.67591C12.3907 2.74039 12.3673 2.76091 12.3028 2.76677C12.1739 2.78142 12.0889 2.74918 12.0273 2.6173C11.9247 2.39455 11.7987 2.18353 11.661 1.97251C11.661 2.0282 11.661 2.08388 11.661 2.13664C11.661 2.30077 11.6551 2.46489 11.6639 2.62902C11.6697 2.73746 11.6375 2.7697 11.5261 2.7697C11.4177 2.7697 11.3855 2.73746 11.3884 2.62902C11.3942 2.27439 11.3884 1.91683 11.3913 1.5622C11.3913 1.5153 11.362 1.43324 11.4441 1.43324C11.532 1.43324 11.6404 1.37462 11.7049 1.49479C11.8134 1.69701 11.9247 1.89924 12.0332 2.1044C12.0537 2.13371 12.0771 2.16888 12.1035 2.21284ZM12.127 2.22456C12.1211 2.22163 12.1182 2.21577 12.1123 2.21284C12.1123 2.22163 12.1064 2.2275 12.1064 2.23336C12.1064 2.23922 12.1152 2.24215 12.1182 2.24508C12.124 2.23922 12.124 2.23336 12.127 2.22456Z" fill="#283942"/>
<path d="M10.9429 13.2793C11.3826 13.2793 11.8193 13.2822 12.2589 13.2764C12.3468 13.2764 12.3703 13.2969 12.3703 13.3877C12.3644 13.631 12.3703 13.631 12.127 13.631C11.2976 13.631 10.4681 13.6281 9.63872 13.6339C9.54786 13.6339 9.52148 13.6105 9.52148 13.5167C9.52735 13.2793 9.52148 13.2793 9.75888 13.2793C10.1545 13.2793 10.5473 13.2793 10.9429 13.2793Z" fill="#283942"/>
<path d="M6.83096 2.09553C6.83096 2.28311 6.8251 2.47068 6.83389 2.65825C6.83682 2.76962 6.77234 2.76669 6.69907 2.76376C6.62873 2.76083 6.54374 2.79014 6.5496 2.66411C6.55546 2.53809 6.5496 2.41206 6.55253 2.28897C6.55546 2.22156 6.53495 2.19518 6.46167 2.19225C6.10704 2.18053 6.10704 2.18053 6.10704 2.53223C6.10704 2.55274 6.10704 2.57033 6.10704 2.59084C6.10704 2.76376 6.05136 2.80479 5.88137 2.76669C5.83448 2.75497 5.82568 2.72859 5.82568 2.69049C5.82568 2.29483 5.82568 1.89917 5.82568 1.5035C5.82568 1.44782 5.85206 1.43023 5.90482 1.42437C6.09825 1.40679 6.10997 1.41265 6.10997 1.61195C6.10997 1.94899 6.10997 1.94606 6.44702 1.94606C6.54081 1.94606 6.56132 1.91089 6.55546 1.82883C6.5496 1.72625 6.55546 1.6266 6.55253 1.52402C6.5496 1.45368 6.57598 1.4273 6.64632 1.4273C6.83389 1.42144 6.83389 1.41851 6.83389 1.60608C6.83096 1.76728 6.83096 1.93141 6.83096 2.09553Z" fill="#283942"/>
<path d="M10.6849 1.4305C10.8109 1.38947 10.8519 1.46274 10.8842 1.57118C10.9926 1.92874 11.1069 2.2863 11.2242 2.64093C11.2564 2.73765 11.2359 2.7611 11.1362 2.76696C11.0043 2.77868 10.9281 2.74351 10.9164 2.60283C10.9135 2.56766 10.8988 2.53542 10.8871 2.50025C10.8842 2.4856 10.8842 2.46508 10.8725 2.45629C10.7699 2.3713 10.6497 2.43577 10.5383 2.41819C10.4768 2.4094 10.4739 2.46215 10.4621 2.50025C10.4446 2.55887 10.427 2.62042 10.4123 2.68196C10.4006 2.74058 10.3713 2.76696 10.3068 2.76403C10.0958 2.75523 10.0811 2.79334 10.1573 2.56766C10.2658 2.23355 10.3771 1.89943 10.4768 1.56532C10.5149 1.45101 10.5618 1.39533 10.6849 1.4305ZM10.6907 1.79392C10.682 1.79392 10.6732 1.79392 10.6644 1.79392C10.6321 1.90529 10.6058 2.01667 10.5706 2.12511C10.553 2.18079 10.5794 2.18372 10.6204 2.18372C10.6526 2.18372 10.682 2.18079 10.7142 2.18372C10.7728 2.18665 10.8021 2.17493 10.7787 2.10459C10.7435 2.00494 10.7171 1.89943 10.6907 1.79392Z" fill="#283942"/>
<path d="M7.97978 2.75198C7.85082 2.79008 7.81272 2.73439 7.78928 2.64061C7.73066 2.41786 7.72773 2.42666 7.50499 2.41493C7.38482 2.40907 7.32034 2.44424 7.31155 2.56441C7.31155 2.57906 7.30276 2.59371 7.2969 2.60837C7.25586 2.75491 7.16794 2.8018 7.02726 2.75784C6.95106 2.73439 6.98916 2.68457 7.00088 2.64354C7.11225 2.29477 7.22363 1.946 7.335 1.59723C7.39068 1.42724 7.4874 1.37742 7.66325 1.42138C7.70135 1.43017 7.70721 1.45655 7.71894 1.48879C7.84496 1.88152 7.97392 2.27425 8.09408 2.66992C8.14098 2.82818 7.99736 2.7256 7.97978 2.75198ZM7.54016 1.74963C7.50792 1.86394 7.48447 1.94893 7.46102 2.02806C7.41413 2.19219 7.41999 2.19512 7.58705 2.18633C7.6398 2.1834 7.65739 2.16874 7.64273 2.11599C7.6105 2.00462 7.58119 1.89325 7.54016 1.74963Z" fill="#283942"/>
<path d="M11.3473 9.00391C11.655 9.00391 11.9657 9.00684 12.2734 9.00098C12.3438 9.00098 12.3672 9.01856 12.3672 9.09183C12.3701 9.35561 12.3731 9.35561 12.1064 9.35561C11.5466 9.35561 10.9897 9.35268 10.4299 9.35854C10.3449 9.35854 10.3156 9.33802 10.3186 9.2501C10.3244 9.00391 10.3186 9.00391 10.5618 9.00391C10.8256 9.00391 11.0864 9.00391 11.3473 9.00391Z" fill="#283942"/>
<path d="M11.3443 10.1553C11.6462 10.1553 11.9451 10.1582 12.247 10.1523C12.3349 10.1523 12.3701 10.167 12.3672 10.2637C12.3613 10.504 12.3672 10.504 12.121 10.504C11.5612 10.504 11.0043 10.5011 10.4446 10.507C10.3508 10.507 10.3156 10.4923 10.3185 10.3868C10.3273 10.1523 10.3215 10.1523 10.5589 10.1523C10.8226 10.1553 11.0835 10.1553 11.3443 10.1553Z" fill="#283942"/>
<path d="M11.3414 11.6593C11.0395 11.6593 10.7406 11.6564 10.4387 11.6622C10.3537 11.6622 10.3156 11.6505 10.3185 11.5509C10.3244 11.3076 10.3185 11.3076 10.5647 11.3076C11.1245 11.3076 11.6814 11.3105 12.2411 11.3047C12.332 11.3047 12.3701 11.3193 12.3672 11.4219C12.3584 11.6593 12.3642 11.6593 12.1268 11.6593C11.866 11.6593 11.6052 11.6593 11.3414 11.6593Z" fill="#283942"/>
<path d="M4.60943 2.09579C4.60063 1.90529 4.64753 1.73237 4.77648 1.58583C4.97578 1.36602 5.33041 1.33671 5.5385 1.52428C5.57074 1.55359 5.63229 1.58583 5.57074 1.63565C5.51799 1.67668 5.50333 1.79392 5.39196 1.72651C5.17508 1.59462 4.98457 1.67375 4.91716 1.91701C4.87613 2.06062 4.88199 2.20423 4.94061 2.34198C5.02267 2.53542 5.23369 2.59697 5.39489 2.46215C5.51212 2.35957 5.5385 2.47387 5.59419 2.5237C5.66746 2.5911 5.59126 2.62627 5.55316 2.65851C5.38024 2.80506 5.18387 2.82264 4.98164 2.74351C4.75011 2.65265 4.64753 2.46215 4.61822 2.22475C4.6065 2.18372 4.60943 2.13976 4.60943 2.09579Z" fill="#283942"/>
<path d="M8.2583 2.09549C8.2583 1.90499 8.26416 1.71155 8.25537 1.52105C8.25244 1.40088 8.33157 1.42726 8.39605 1.42726C8.46346 1.42726 8.53966 1.40381 8.53673 1.52398C8.53087 1.81999 8.53673 2.11894 8.5338 2.41495C8.5338 2.49994 8.56018 2.52339 8.63931 2.51753C8.74482 2.51167 8.85033 2.52046 8.95584 2.5146C9.04377 2.50874 9.06428 2.54977 9.05549 2.62597C9.04963 2.69338 9.07894 2.77251 8.95877 2.76665C8.75654 2.76079 8.55139 2.76372 8.34916 2.76665C8.27882 2.76665 8.25244 2.74027 8.25244 2.66993C8.2583 2.4765 8.2583 2.28599 8.2583 2.09549Z" fill="#283942"/>
<path d="M9.26367 2.09292C9.26367 1.90535 9.2666 1.71778 9.26367 1.5302C9.26367 1.45986 9.27833 1.42469 9.36039 1.42176C9.54796 1.41883 9.54796 1.41297 9.54796 1.60054C9.54796 1.87018 9.55089 2.13982 9.54503 2.40945C9.5421 2.49445 9.56848 2.51789 9.65054 2.51203C9.75898 2.50617 9.87035 2.51496 9.9788 2.5091C10.0814 2.50617 10.0667 2.57065 10.0667 2.63513C10.0667 2.69668 10.0843 2.76408 9.98173 2.76115C9.77364 2.75822 9.56555 2.75822 9.36039 2.76115C9.28126 2.76115 9.26367 2.72305 9.26367 2.65271C9.2666 2.46807 9.26367 2.2805 9.26367 2.09292Z" fill="#283942"/>
<path d="M12.127 2.22461C12.124 2.23047 12.1211 2.23927 12.1182 2.24513C12.1123 2.2422 12.1064 2.23634 12.1064 2.23341C12.1064 2.22754 12.1094 2.22168 12.1123 2.21582C12.1182 2.21875 12.124 2.22168 12.127 2.22461Z" fill="#283942"/>
</g>
<defs>
<clipPath id="clip0_1874_3247">
<rect width="15" height="15" fill="white"/>
</clipPath>
</defs>
</svg>
