<svg width="18" height="15" viewBox="0 0 18 15" fill="none" xmlns="http://www.w3.org/2000/svg">
<g clip-path="url(#clip0_344_2)">
<mask id="mask0_344_2" style="mask-type:luminance" maskUnits="userSpaceOnUse" x="0" y="0" width="18" height="15">
<path d="M17.9716 0H0V15H17.9716V0Z" fill="white"/>
</mask>
<g mask="url(#mask0_344_2)">
<path d="M17.5042 11.5352C17.0104 11.5439 16.5161 11.5396 16.022 11.5363C15.9282 11.5357 15.8887 11.5508 15.8956 11.6382C15.9058 11.7668 15.9028 11.8965 15.8965 12.0254C15.8929 12.0985 15.9249 12.1155 16.0076 12.1149C16.387 12.1117 16.7662 12.1161 17.1456 12.1117C17.2468 12.1105 17.2825 12.1308 17.2813 12.2213C17.2756 12.6668 17.281 13.1127 17.2777 13.5585C17.2744 14.0259 16.831 14.4082 16.2826 14.4214C15.7065 14.4352 15.2334 14.0822 15.2115 13.6025C15.1948 13.2406 15.2059 12.8778 15.2059 12.5156C15.2056 8.85413 15.2056 5.19246 15.2056 1.53107C15.2056 1.3447 15.1789 0.917445 14.8373 0.551605C14.5167 0.208837 14.0508 0.065917 13.7185 0C9.63495 0 5.5514 0 1.46755 0C1.29766 0.029363 0.81198 0.133032 0.421868 0.503965C0.140223 0.771525 0.0392506 1.05407 0 1.19998C0 1.88343 0 2.56657 0 3.25001C0.0838942 3.4112 0.232507 3.47023 0.440146 3.46783C0.939015 3.46184 1.43818 3.46214 1.93676 3.46903C2.05511 3.47053 2.08028 3.43936 2.07458 3.35038C2.0668 3.22573 2.06859 3.10049 2.07429 2.97585C2.07758 2.90574 2.05151 2.88446 1.96522 2.88566C1.591 2.88985 1.21677 2.88237 0.842835 2.88986C0.713701 2.89256 0.687634 2.8566 0.689131 2.75623C0.695424 2.32747 0.69063 1.89841 0.691828 1.46935C0.693326 0.965385 1.14306 0.580069 1.72882 0.578571C2.31368 0.577372 2.76222 0.960893 2.76252 1.46875C2.76342 5.45403 2.76312 9.43957 2.76312 13.4248C2.76312 13.6466 2.78529 14.0529 3.0981 14.4118C3.40012 14.7585 3.85045 14.9191 4.19352 14.9997C8.27707 14.9997 12.3606 14.9997 16.4442 14.9997C16.6078 14.9778 17.1088 14.8933 17.5186 14.5257C17.8302 14.2465 17.9342 13.9426 17.9716 13.7997C17.9716 13.1163 17.9716 12.4331 17.9716 11.7497C17.88 11.581 17.7196 11.5316 17.5042 11.5352ZM11.8603 4.87516C11.9133 4.77988 11.9876 4.70677 12.0829 4.65583C12.1781 4.60489 12.2869 4.57943 12.4092 4.57943C12.5692 4.57943 12.7043 4.62467 12.8143 4.71486C12.9242 4.80505 12.9937 4.93029 13.0228 5.09029H12.5098C12.4909 5.02617 12.4538 4.99411 12.3984 4.99411C12.3591 4.99411 12.3283 5.01239 12.3055 5.04864C12.283 5.0852 12.2716 5.13883 12.2716 5.21014C12.2716 5.28145 12.283 5.33538 12.3055 5.37163C12.328 5.40788 12.3591 5.42616 12.3984 5.42616C12.4538 5.42616 12.4906 5.3941 12.5098 5.32999H13.0228C12.9937 5.48998 12.9242 5.61523 12.8143 5.70541C12.7043 5.7956 12.5695 5.84084 12.4092 5.84084C12.2869 5.84084 12.1781 5.81537 12.0829 5.76444C11.9876 5.7135 11.9133 5.64039 11.8603 5.54511C11.8072 5.44983 11.7805 5.33807 11.7805 5.20984C11.7805 5.0822 11.8072 4.97044 11.8603 4.87516ZM11.1846 4.08476C11.2355 4.03891 11.3032 4.01584 11.3878 4.01584C11.4707 4.01584 11.5375 4.03891 11.5885 4.08476C11.6394 4.1306 11.6649 4.18842 11.6649 4.25824C11.6649 4.32655 11.6394 4.38348 11.5885 4.42842C11.5375 4.47366 11.4704 4.49614 11.3878 4.49614C11.3032 4.49614 11.2355 4.47366 11.1846 4.42842C11.1337 4.38318 11.1082 4.32655 11.1082 4.25824C11.1082 4.18842 11.1337 4.1306 11.1846 4.08476ZM11.6278 4.59471V5.82616H11.143V4.59471H11.6278ZM9.7731 4.87516C9.82912 4.77988 9.90675 4.70677 10.0056 4.65583C10.1044 4.60489 10.2159 4.57943 10.3396 4.57943C10.4634 4.57943 10.5748 4.60489 10.6738 4.65583C10.7726 4.70677 10.8502 4.77988 10.9063 4.87516C10.9623 4.97044 10.9904 5.08219 10.9904 5.21044C10.9904 5.33867 10.9623 5.45013 10.9063 5.54571C10.8502 5.64099 10.7726 5.7141 10.6738 5.76503C10.5748 5.81597 10.4634 5.84144 10.3396 5.84144C10.2159 5.84144 10.1044 5.81597 10.0056 5.76503C9.90675 5.7141 9.82912 5.64099 9.7731 5.54571C9.71707 5.45043 9.68887 5.33867 9.68887 5.21044C9.68887 5.08219 9.71707 4.97044 9.7731 4.87516ZM8.71515 4.59471L8.91375 5.36534L9.11032 4.59471H9.62565L9.21517 5.82616H8.61052L8.20005 4.59471H8.71515ZM6.76757 4.59471H7.25236V4.78258C7.29011 4.72445 7.34075 4.6771 7.40397 4.64055C7.46719 4.60429 7.54267 4.58602 7.6299 4.58602C7.77097 4.58602 7.8813 4.63336 7.96065 4.72804C8.04007 4.82272 8.0796 4.95066 8.0796 5.11246V5.82646H7.5972V5.17358C7.5972 5.11546 7.58167 5.06901 7.55017 5.03486C7.51875 5.0007 7.47708 4.98362 7.42465 4.98362C7.37071 4.98362 7.32847 5.0007 7.2979 5.03486C7.26734 5.06901 7.25206 5.11546 7.25206 5.17358V5.82646H6.76727L6.76757 4.59471ZM6.06466 4.28011H6.54945V5.82586H6.06466V4.28011ZM6.54256 8.65282C6.75619 8.65372 6.90989 8.7804 6.9072 8.94615C6.9045 9.10642 6.75409 9.22568 6.54525 9.22778C6.32113 9.23018 6.09672 9.22837 5.8723 9.22837C5.64788 9.22867 5.42377 9.23018 5.19934 9.22808C4.98392 9.22598 4.83081 9.10193 4.83411 8.93595C4.8371 8.77718 4.99051 8.65403 5.19665 8.65313C5.64549 8.65103 6.09402 8.65102 6.54256 8.65282ZM4.62377 4.66662H4.07786V4.85658H4.55815V5.22122H4.07786V5.43965H4.62377V5.82616H3.59337V4.28041H4.62377V4.66662ZM4.74152 4.88055H5.75904V5.28025H4.74152V4.88055ZM5.52294 11.2658C5.51215 11.4237 5.35066 11.5441 5.1625 11.5348C4.97314 11.5255 4.82362 11.3911 4.83231 11.2376C4.8413 11.0776 5.01538 10.9479 5.20354 10.9608C5.3929 10.974 5.53402 11.1085 5.52294 11.2658ZM5.24279 10.3819C4.99441 10.3816 4.8368 10.2719 4.83321 10.1009C4.82962 9.92498 4.99381 9.80572 5.24369 9.80572C6.36068 9.80542 7.47738 9.80543 8.5944 9.80603C8.8218 9.80603 8.97997 9.92648 8.98027 10.0952C8.98057 10.2636 8.8236 10.3817 8.5935 10.3823C8.02987 10.3832 7.46659 10.3826 6.903 10.3826C6.3496 10.3823 5.79619 10.3828 5.24279 10.3819ZM10.002 11.5375C9.7626 11.5414 9.5232 11.5384 9.2838 11.5384C8.39602 11.5384 7.50795 11.5391 6.62016 11.5382C6.32443 11.5379 6.14705 11.3617 6.23125 11.1565C6.28398 11.0279 6.41012 10.9587 6.60637 10.9584C7.16996 10.9572 7.73385 10.9578 8.29747 10.9578C8.85622 10.9575 9.41475 10.9566 9.9735 10.9578C10.2123 10.9584 10.3705 11.0806 10.366 11.255C10.3615 11.4159 10.2141 11.5342 10.002 11.5375ZM10.0382 10.3813C9.81682 10.378 9.67035 10.2585 9.67267 10.0906C9.67507 9.92587 9.82792 9.80662 10.0478 9.80572C10.4916 9.80392 10.9356 9.80392 11.3794 9.80572C11.5996 9.80662 11.7491 9.92438 11.7521 10.0925C11.7551 10.26 11.6077 10.379 11.3848 10.3817C11.1553 10.3847 10.926 10.3823 10.6965 10.3823C10.6965 10.3826 10.6965 10.382 10.6965 10.3823C10.4772 10.3826 10.2576 10.3846 10.0382 10.3813ZM12.0703 13.2691C11.6266 13.2715 11.1825 13.2712 10.7388 13.2688C10.5185 13.2676 10.3663 13.148 10.3642 12.983C10.3621 12.8098 10.5125 12.6941 10.7447 12.6926C10.9641 12.6914 11.1837 12.6923 11.403 12.6923C11.6275 12.692 11.8519 12.6899 12.0763 12.6926C12.2968 12.6953 12.4469 12.8158 12.4439 12.9818C12.4409 13.1477 12.2896 13.2679 12.0703 13.2691ZM12.7852 10.3811C12.5931 10.3817 12.4394 10.2591 12.4349 10.1017C12.4304 9.94357 12.5949 9.80392 12.7843 9.80512C12.9694 9.80632 13.1235 9.93758 13.1235 10.0946C13.1238 10.2555 12.976 10.3805 12.7852 10.3811ZM12.7597 9.22778C11.9612 9.22928 11.1624 9.22837 10.3639 9.22837C9.56542 9.22837 8.76667 9.22747 7.96815 9.22897C7.81867 9.22927 7.70662 9.18165 7.6383 9.0714C7.57837 8.97517 7.58527 8.87693 7.65502 8.7864C7.73175 8.68665 7.8474 8.65132 7.98825 8.65162C8.71185 8.65342 9.43567 8.65253 10.1593 8.65253C11.0177 8.65253 11.8764 8.65223 12.7348 8.65253C12.9329 8.65253 13.0704 8.73038 13.1139 8.86313C13.1765 9.0564 13.0138 9.22718 12.7597 9.22778ZM14.3612 5.29552H13.5819C13.5891 5.40189 13.6334 5.45493 13.7152 5.45493C13.7677 5.45493 13.8054 5.43096 13.8288 5.38302H14.3417C14.3243 5.47021 14.2875 5.54871 14.2315 5.61762C14.1754 5.68684 14.1047 5.74136 14.0196 5.78152C13.9345 5.82167 13.841 5.84144 13.7392 5.84144C13.6169 5.84144 13.5082 5.81597 13.4129 5.76503C13.3176 5.7141 13.2433 5.64099 13.1902 5.54571C13.1372 5.45043 13.1106 5.33867 13.1106 5.21044C13.1106 5.08249 13.1372 4.97074 13.1902 4.87516C13.2433 4.77988 13.3176 4.70677 13.4129 4.65583C13.5082 4.60489 13.6169 4.57943 13.7392 4.57943C13.8614 4.57943 13.9702 4.6046 14.0655 4.65464C14.1607 4.70498 14.2351 4.77659 14.2881 4.86977C14.3411 4.96295 14.3678 5.07291 14.3678 5.19934C14.3678 5.23291 14.3657 5.26496 14.3612 5.29552Z" fill="#283942"/>
<path d="M13.7386 4.95898C13.6526 4.95898 13.6026 5.00033 13.5879 5.08333H13.8761C13.8761 5.04258 13.8629 5.01172 13.8369 4.99045C13.8108 4.96948 13.7782 4.95898 13.7386 4.95898Z" fill="#283942"/>
<path d="M10.3391 5.42306C10.3844 5.42306 10.4221 5.40538 10.4527 5.36973C10.4832 5.33407 10.4985 5.28134 10.4985 5.21153C10.4985 5.14172 10.4832 5.08899 10.4527 5.05333C10.4221 5.01768 10.3844 5 10.3391 5C10.2939 5 10.2561 5.01798 10.2256 5.05333C10.195 5.08899 10.1797 5.14172 10.1797 5.21153C10.1797 5.28134 10.1947 5.33407 10.2244 5.36973C10.2543 5.40508 10.2924 5.42306 10.3391 5.42306Z" fill="#283942"/>
</g>
</g>
<defs>
<clipPath id="clip0_344_2">
<rect width="18" height="15" fill="white"/>
</clipPath>
</defs>
</svg>
