<svg width="22" height="22" viewBox="0 0 22 22" fill="none" xmlns="http://www.w3.org/2000/svg">
<g clip-path="url(#clip0_1113_2996)">
<path d="M6.3584 16.7975C4.3584 16.7975 2.3584 16.7975 0.358404 16.7988C0.236756 16.7988 0.116416 16.791 0 16.7544C0 15.7524 0 14.7491 0 13.7472C0.132112 13.7132 0.122956 13.5823 0.160889 13.4921C0.500981 12.6942 1.0896 12.2037 1.93983 12.0284C2.28646 11.9564 2.63571 11.9826 2.98496 11.9983C2.80183 12.7897 2.62132 13.5823 2.43165 14.3737C2.40157 14.5006 2.41596 14.5869 2.50883 14.6798C2.73774 14.9048 2.96141 15.1363 3.17986 15.3718C3.26357 15.462 3.32243 15.4869 3.41792 15.3809C3.64683 15.1258 3.8862 14.8812 4.12296 14.6327C4.18182 14.5712 4.20144 14.515 4.1792 14.4234C3.98169 13.6124 3.79202 12.8001 3.59974 11.9878C4.05494 11.9852 4.51275 11.9486 4.95356 12.1003C5.82211 12.3999 6.3571 13.0042 6.55592 13.9002C6.58731 14.0441 6.58077 14.1971 6.59124 14.3462C6.4879 14.672 6.41334 15.0003 6.38587 15.3456C6.34925 15.8309 6.3898 16.3149 6.3584 16.7975Z" fill="#EBEDF2"/>
<path d="M22 16.7536C21.8835 16.7902 21.7645 16.7981 21.6415 16.7981C19.6429 16.7968 17.6442 16.7968 15.6455 16.7981C15.6429 16.6987 15.6363 16.598 15.6376 16.4986C15.6468 15.7059 15.6677 14.9119 15.3407 14.1624C15.3969 14.1336 15.4166 14.0852 15.4244 14.0237C15.5565 13.0126 16.2916 12.2814 17.2073 12.0499C17.5932 11.9518 17.9986 11.974 18.3976 11.9884C18.2053 12.8007 18.0156 13.6117 17.8194 14.4227C17.7972 14.5142 17.8155 14.5718 17.8744 14.632C18.1111 14.8792 18.3505 15.1251 18.5794 15.3802C18.6736 15.4848 18.7325 15.4665 18.8175 15.3736C18.9653 15.2088 19.1092 15.0362 19.2805 14.8988C19.5526 14.6804 19.6141 14.4475 19.5134 14.1035C19.3106 13.4063 19.1602 12.6948 18.9875 11.9884C19.4074 11.9923 19.8286 11.9505 20.2432 12.0708C20.9954 12.2893 21.5225 12.7549 21.8338 13.473C21.8757 13.5698 21.8652 13.7059 22.0013 13.7477C22 14.7497 22 15.7517 22 16.7536Z" fill="#EBEDF2"/>
<path d="M6.3584 16.7973C6.3911 16.3134 6.34924 15.8294 6.38718 15.3454C6.41464 15.0014 6.4892 14.6718 6.59254 14.3461C6.93786 13.5403 7.48855 12.9281 8.28907 12.5527C8.59385 13.11 8.89339 13.6698 9.2047 14.2231C9.50032 14.7502 9.76847 15.2944 10.0929 15.8058C10.0955 15.8268 10.0929 15.8516 10.102 15.8686C10.3754 16.3827 10.6475 16.8994 10.9287 17.4095C10.9941 17.5285 11.0543 17.4501 11.0948 17.3729C11.206 17.1662 11.325 16.9622 11.4231 16.7502C11.5723 16.4285 11.8195 16.1577 11.9071 15.8058C12.1059 15.5272 12.2459 15.2159 12.4133 14.919C12.7691 14.2859 13.1184 13.6502 13.4715 13.0145C13.5252 13.0132 13.5657 13.0328 13.6037 13.0733C14.2472 13.7692 14.5768 14.5854 14.5703 15.5377C14.5638 16.3892 14.569 17.2421 14.569 18.0936C14.569 18.4023 14.6213 18.7228 14.3963 18.9883C14.3676 18.987 14.3375 18.9857 14.3087 18.9844C14.2825 18.9438 14.2551 18.9438 14.2276 18.9831C13.9267 18.9857 13.6272 18.9909 13.3264 18.9909C11.2086 18.9909 9.0909 18.9909 6.97318 18.9909C6.52321 18.9909 6.37148 18.8366 6.36886 18.3853C6.36494 17.8569 6.36101 17.3271 6.3584 16.7973Z" fill="#666D88"/>
<path d="M10.875 10.9486C10.1608 10.9172 9.53036 10.6726 8.9836 10.2083C8.47215 9.77399 8.1386 9.23115 7.97379 8.58498C7.93193 8.42016 7.90315 8.25143 7.90446 8.07876C7.90708 7.33449 7.90577 6.59152 7.90708 5.84724C8.17261 6.09446 8.43684 6.3456 8.74553 6.53789C9.05816 6.73409 9.36686 6.94338 9.73965 7.01532C9.75273 7.03233 9.76712 7.04018 9.78281 7.01925C9.78412 7.01663 9.76842 7.00355 9.76188 6.99439C9.68079 6.7511 9.58922 6.51173 9.5212 6.26451C9.41787 5.88779 9.42833 5.55293 9.52382 5.36719C10.5323 6.24489 11.7436 6.74979 12.9744 7.21807C12.9758 7.22984 12.9797 7.24292 12.9836 7.2547C12.9823 7.65496 12.9862 8.05391 12.9771 8.45417C12.9587 9.31094 12.5716 9.97281 11.8979 10.4856C11.5905 10.7197 11.219 10.8021 10.875 10.9486Z" fill="#FACEAE"/>
<path d="M5.66905 6.61328C5.67036 7.27777 5.67952 7.94225 5.67036 8.60674C5.65859 9.53153 4.88553 10.4354 4.00522 10.714C2.89992 11.0632 1.78416 10.5178 1.24917 9.64794C1.02288 9.28038 0.926082 8.87227 0.910386 8.45108C0.890765 7.90824 0.909077 7.36541 0.910386 6.82257C0.995408 6.89713 1.10005 6.87489 1.19816 6.87489C2.25636 6.8762 3.31326 6.86704 4.37147 6.88012C4.82798 6.88666 5.26487 6.83826 5.66905 6.61328Z" fill="#FBCFAD"/>
<path d="M21.0909 7.34051C21.0857 7.94483 21.138 8.54914 20.9745 9.14692C20.7626 9.91997 19.9058 10.6773 19.1105 10.7872C17.9726 10.9442 17.1419 10.485 16.569 9.52625C16.416 9.27118 16.344 8.96772 16.3336 8.66948C16.3179 8.22736 16.3323 7.78394 16.3336 7.34051C16.6501 7.40984 16.9732 7.4046 17.2937 7.3876C18.1125 7.34313 18.8555 7.08282 19.4925 6.55568C19.5814 6.48243 19.6246 6.47328 19.6887 6.57792C19.9542 7.01742 20.3964 7.20186 20.8489 7.36667C20.934 7.39806 21.0151 7.40199 21.0909 7.34051Z" fill="#FBCEAD"/>
<path d="M9.73974 7.01568C9.36695 6.94243 9.05825 6.73314 8.74563 6.53825C8.43693 6.34466 8.17271 6.09482 7.90717 5.8476C7.84569 4.54086 8.92222 3.24721 10.2329 3.04838C10.4879 3.01045 10.743 2.98691 11.0007 3.00783C11.4467 3.13733 11.8679 3.30345 12.2198 3.62916C12.6698 4.04642 12.9392 4.55525 12.9693 5.15695C13.0033 5.84237 12.9745 6.53171 12.9732 7.21843C11.7424 6.75015 10.5324 6.24524 9.52261 5.36755C9.42712 5.55329 9.41666 5.88815 9.51999 6.26486C9.58801 6.51209 9.67957 6.75146 9.76067 6.99475C9.75413 7.00129 9.74628 7.00914 9.73974 7.01568Z" fill="#454965"/>
<path d="M5.6691 6.61289C5.26492 6.83788 4.82934 6.88627 4.37152 6.88104C3.31462 6.86796 2.25642 6.87712 1.19821 6.87581C1.1001 6.87581 0.996768 6.89805 0.910438 6.82349C0.910438 6.74108 0.909129 6.65998 0.909129 6.57758C0.93529 6.55926 0.936598 6.54095 0.910438 6.52264C0.896049 5.93271 0.964067 5.36502 1.3604 4.88889C1.67957 4.50694 2.08899 4.23356 2.58343 4.22179C3.86139 4.18909 5.14196 4.20347 6.42123 4.19824C6.4971 4.19824 6.57035 4.20217 6.57035 4.30419C6.57689 4.91897 6.60697 5.53768 6.21717 6.07529C6.06413 6.28719 5.85877 6.44023 5.6691 6.61289Z" fill="#FAAA2A"/>
<path d="M21.0909 7.34051C21.0163 7.40199 20.9339 7.39807 20.8489 7.36668C20.395 7.20186 19.9542 7.01612 19.6886 6.57792C19.6245 6.47328 19.5814 6.48244 19.4924 6.55569C18.8554 7.08152 18.1124 7.34313 17.2936 7.3876C16.9744 7.40461 16.6514 7.40984 16.3335 7.34051C16.1373 5.7931 17.1432 4.83561 18.2367 4.69434C20.0039 4.46674 20.9993 5.51318 21.0882 6.82514C21.0529 6.85915 21.0555 6.89055 21.0922 6.92063C21.0922 7.05928 21.0909 7.20055 21.0909 7.34051Z" fill="#F9AB2B"/>
<path d="M11.9072 15.8059C11.8195 16.1578 11.5723 16.4299 11.4232 16.7504C11.3251 16.9636 11.206 17.1663 11.0949 17.373C11.0543 17.4488 10.9941 17.5273 10.9287 17.4096C10.6475 16.8995 10.3754 16.3828 10.1021 15.8687C10.0929 15.8517 10.0955 15.8269 10.0929 15.8059C10.2198 15.1101 10.3427 14.4142 10.4735 13.7196C10.5049 13.5561 10.4984 13.4541 10.3218 13.3481C9.91893 13.1061 9.69002 12.7373 9.71357 12.2441C10.5716 12.2441 11.4284 12.2441 12.2865 12.2441C12.31 12.7373 12.0811 13.1061 11.6783 13.3481C11.5017 13.4541 11.4951 13.5574 11.5265 13.7209C11.656 14.4155 11.7803 15.1114 11.9072 15.8059Z" fill="#E85876"/>
<path d="M14.395 18.988C14.62 18.7225 14.5677 18.402 14.5677 18.0933C14.569 17.2418 14.5624 16.3889 14.569 15.5374C14.5755 14.5851 14.2459 13.7689 13.6023 13.073C13.5657 13.0325 13.5238 13.0129 13.4702 13.0142C13.55 12.8585 13.6311 12.7029 13.7109 12.5459C14.4512 12.8873 14.9705 13.4498 15.3407 14.1626C15.6677 14.9121 15.6455 15.7061 15.6376 16.4988C15.6363 16.5982 15.6429 16.6989 15.6455 16.7983C15.6429 17.3346 15.6403 17.8709 15.6376 18.4072C15.6363 18.8297 15.4768 18.9919 15.0595 18.9932C14.8371 18.9932 14.6161 18.9893 14.395 18.988Z" fill="#454B66"/>
<path d="M12.9732 7.21958C12.9745 6.53155 13.002 5.84352 12.968 5.1581C12.9379 4.5551 12.6685 4.04758 12.2185 3.63031C11.8666 3.3033 11.4454 3.13718 10.9994 3.00899C12.4749 2.92004 13.6913 3.81736 14.0314 5.25228C14.0668 5.40271 14.0877 5.56098 14.089 5.71664C14.0942 6.33011 14.089 6.94489 14.0877 7.55837C14.0393 7.55052 13.9896 7.54659 13.9425 7.53351C13.622 7.44195 13.3015 7.34908 12.9824 7.25752C12.9772 7.24313 12.9745 7.23136 12.9732 7.21958Z" fill="#30354C"/>
<path d="M3.60238 11.9893C3.79466 12.8016 3.98433 13.6138 4.18184 14.4248C4.20408 14.5164 4.18446 14.574 4.1256 14.6341C3.88884 14.8827 3.64947 15.1273 3.42056 15.3823C3.32507 15.4883 3.26752 15.4647 3.1825 15.3732C2.96405 15.1377 2.74038 14.9062 2.51147 14.6812C2.41729 14.5897 2.4029 14.502 2.4343 14.3751C2.62396 13.5851 2.80447 12.7924 2.9876 11.9997C3.19165 11.9958 3.39702 11.9919 3.60238 11.9893Z" fill="#E85876"/>
<path d="M18.9863 11.9873C19.159 12.6936 19.3094 13.4052 19.5121 14.1024C19.6129 14.4464 19.5501 14.6806 19.2793 14.8977C19.108 15.035 18.9641 15.2077 18.8163 15.3725C18.7326 15.4654 18.6724 15.4837 18.5782 15.3791C18.3493 15.124 18.1099 14.8794 17.8732 14.6309C17.8143 14.5694 17.796 14.5118 17.8182 14.4216C18.0157 13.6106 18.2054 12.7996 18.3964 11.9873C18.5939 11.9886 18.7901 11.9886 18.9863 11.9873Z" fill="#E85876"/>
<path d="M9.71352 12.2441C9.68867 12.7373 9.91889 13.1061 10.3218 13.3481C10.4984 13.4541 10.5049 13.5561 10.4735 13.7196C10.3427 14.4142 10.2184 15.1101 10.0929 15.8059C9.76846 15.2945 9.50031 14.7517 9.20469 14.2232C8.89469 13.6699 8.59384 13.1101 8.28906 12.5528C8.73903 12.3318 9.21647 12.2441 9.71352 12.2441Z" fill="#EBEBF1"/>
<path d="M13.711 12.5463C13.6312 12.702 13.5514 12.8576 13.4703 13.0146C13.1184 13.649 12.7692 14.286 12.4121 14.9191C12.2446 15.216 12.1047 15.5273 11.9059 15.806C11.779 15.1101 11.6547 14.4155 11.5252 13.7209C11.4951 13.5574 11.5004 13.4554 11.6769 13.3481C12.0798 13.1062 12.3087 12.7373 12.2852 12.2442C12.7822 12.2428 13.2597 12.3383 13.711 12.5463Z" fill="#EBEBF1"/>
<path d="M12.9824 7.25488C13.3029 7.34775 13.622 7.44063 13.9425 7.53088C13.9896 7.54396 14.0393 7.54789 14.0877 7.55573C14.1452 8.97365 13.5645 10.0266 12.2878 10.6689C11.847 10.8899 11.3696 10.9776 10.8751 10.9488C11.2191 10.8023 11.5906 10.7199 11.8967 10.4858C12.569 9.97169 12.9562 9.30982 12.9758 8.45436C12.985 8.05541 12.9811 7.65514 12.9824 7.25488Z" fill="#E2A16F"/>
<path d="M21.0922 6.91873C21.0556 6.88864 21.053 6.85594 21.0883 6.82324C21.0896 6.85464 21.0909 6.88603 21.0922 6.91873Z" fill="#FBCEAD"/>
<path d="M0.910366 6.52246C0.936527 6.54077 0.935219 6.55909 0.909058 6.5774C0.910366 6.55909 0.910366 6.54077 0.910366 6.52246Z" fill="#FBCFAD"/>
<path d="M14.225 18.9834C14.2524 18.9454 14.2799 18.9454 14.3061 18.9847C14.2786 18.9847 14.2524 18.9834 14.225 18.9834Z" fill="#454B66"/>
<path d="M9.76064 6.99512C9.76849 7.00427 9.78288 7.01735 9.78157 7.01997C9.76718 7.04221 9.75148 7.03305 9.7384 7.01605C9.74625 7.00951 9.7541 7.00166 9.76064 6.99512Z" fill="#454965"/>
</g>
<defs>
<clipPath id="clip0_1113_2996">
<rect width="22" height="22" fill="white"/>
</clipPath>
</defs>
</svg>
