<svg width="15" height="15" viewBox="0 0 15 15" fill="none" xmlns="http://www.w3.org/2000/svg">
<g clip-path="url(#clip0_1871_3133)">
<path d="M7.5 7.5C9.86719 7.5 11.7857 5.82129 11.7857 3.75C11.7857 1.67871 9.86719 0 7.5 0C5.13281 0 3.21429 1.67871 3.21429 3.75C3.21429 5.82129 5.13281 7.5 7.5 7.5ZM10.7076 8.45508L9.10714 14.0625L8.03571 10.0781L9.10714 8.4375H5.89286L6.96429 10.0781L5.89286 14.0625L4.29241 8.45508C1.90513 8.55469 0 10.2627 0 12.375V13.5938C0 14.3701 0.719866 15 1.60714 15H13.3929C14.2801 15 15 14.3701 15 13.5938V12.375C15 10.2627 13.0949 8.55469 10.7076 8.45508Z" fill="#283942"/>
</g>
<defs>
<clipPath id="clip0_1871_3133">
<rect width="15" height="15" fill="white"/>
</clipPath>
</defs>
</svg>
