<svg width="15" height="15" viewBox="0 0 15 15" fill="none" xmlns="http://www.w3.org/2000/svg">
<g clip-path="url(#clip0_1874_3242)">
<path d="M6.95312 8.8829C6.95312 7.18676 6.95312 5.49061 6.95312 3.79447C6.95312 3.15942 7.17017 2.94238 7.80522 2.94238C9.83094 2.94238 11.8647 2.94238 13.8904 2.94238C14.5014 2.94238 14.7264 3.15942 14.7264 3.77036C14.7264 7.17872 14.7264 10.5871 14.7264 13.9954C14.7264 14.6868 14.4049 15.0003 13.7216 15.0003C11.8084 15.0003 9.89525 15.0003 7.98206 15.0003C7.26663 15.0003 6.95312 14.6868 6.95312 13.9794C6.95312 12.2752 6.95312 10.579 6.95312 8.8829ZM10.9161 8.90701C11.9531 8.90701 12.9821 8.89897 14.019 8.91505C14.2522 8.91505 14.3245 8.85074 14.3245 8.61762C14.3084 7.70926 14.3165 6.80894 14.3245 5.90058C14.3245 5.68354 14.2682 5.61923 14.0512 5.61923C11.9772 5.62727 9.90329 5.62727 7.83737 5.61923C7.60425 5.61923 7.5319 5.6755 7.53994 5.91666C7.55602 6.79286 7.55602 7.67711 7.53994 8.55332C7.5319 8.83467 7.59621 8.92309 7.89364 8.91505C8.89846 8.89897 9.90329 8.90701 10.9161 8.90701ZM12.8374 3.81859C12.6043 3.81859 12.3792 3.81859 12.1461 3.81859C11.3422 3.81859 11.3502 3.81859 11.3663 4.62245C11.3743 4.82341 11.4306 4.87968 11.6235 4.87968C12.2506 4.87164 12.8695 4.87968 13.4965 4.87968C14.3004 4.87968 14.2924 4.87968 14.2763 4.07582C14.2682 3.87486 14.212 3.81055 14.019 3.81859C13.6252 3.82663 13.2313 3.81859 12.8374 3.81859ZM14.1316 12.645C14.1316 12.3154 14.1316 11.9858 14.1316 11.6482C14.1316 11.4151 14.0351 11.2864 13.794 11.2864C13.6573 11.2864 13.5126 11.2864 13.376 11.2864C13.1589 11.2864 13.0464 11.399 13.0464 11.616C13.0464 12.2913 13.0464 12.9665 13.0464 13.6417C13.0464 13.8588 13.1509 13.9713 13.3679 13.9794C13.4965 13.9794 13.6252 13.9713 13.7538 13.9794C14.0271 13.9954 14.1557 13.8829 14.1477 13.5935C14.1235 13.288 14.1316 12.9665 14.1316 12.645ZM11.9612 9.75106C11.8245 9.75106 11.6798 9.7591 11.5432 9.75106C11.31 9.73499 11.2377 9.84753 11.2297 10.0726C11.1895 10.8925 11.1895 10.8925 12.0174 10.8925C12.0978 10.8925 12.1702 10.8845 12.2506 10.8925C12.5721 10.9247 12.6927 10.7639 12.6686 10.4585C12.6605 10.354 12.6605 10.2575 12.6686 10.153C12.6927 9.8636 12.5882 9.71891 12.2747 9.75106C12.1702 9.7591 12.0657 9.75106 11.9612 9.75106ZM10.0319 12.436C10.2168 12.436 10.3695 12.436 10.5223 12.436C10.6991 12.444 10.7875 12.3556 10.7956 12.1868C10.8036 11.9697 10.8036 11.7527 10.7956 11.5356C10.7875 11.3909 10.7152 11.2945 10.5544 11.2945C10.2329 11.2945 9.91936 11.2945 9.59782 11.2945C9.50136 11.2945 9.40489 11.3507 9.39685 11.4472C9.37274 11.7366 9.30039 12.0501 9.42097 12.3154C9.54959 12.5726 9.84702 12.3797 10.0319 12.436ZM10.1043 13.9874C10.2329 13.9874 10.3615 13.9794 10.4901 13.9874C10.7232 14.0035 10.7956 13.8829 10.8036 13.6659C10.8518 12.8379 10.8518 12.8379 10.0158 12.8379C9.88721 12.8379 9.75859 12.8298 9.62997 12.8379C9.5094 12.8459 9.42097 12.9022 9.38078 13.0388C9.20393 13.7221 9.40489 13.9874 10.1043 13.9874ZM10.0882 9.75106C9.99975 9.75106 9.91132 9.7591 9.8229 9.75106C9.50136 9.71087 9.3647 9.82341 9.38078 10.1771C9.40489 10.9086 9.28431 10.9006 10.1123 10.8925C10.2489 10.8925 10.3936 10.8925 10.5303 10.8925C10.675 10.8925 10.7634 10.8202 10.7956 10.6675C10.9563 9.96007 10.8036 9.75106 10.0882 9.75106ZM11.929 13.9874C12.6686 13.9874 12.6686 13.9874 12.6605 13.28C12.6605 13.0871 12.6766 12.8379 12.4113 12.854C12.0255 12.8781 11.6075 12.6771 11.2538 12.9906C11.2457 12.9987 11.2457 13.0147 11.2457 13.0228C11.0367 13.6257 11.2779 13.9794 11.8969 13.9794C11.9049 13.9874 11.9129 13.9874 11.929 13.9874ZM11.9129 12.436C12.0657 12.436 12.2184 12.4279 12.3711 12.436C12.4997 12.444 12.6203 12.3958 12.6364 12.2671C12.6766 11.9778 12.7329 11.6723 12.6043 11.407C12.4837 11.1739 12.2104 11.2945 12.0094 11.2945C11.1653 11.2864 11.2377 11.1739 11.2297 12.0983C11.2297 12.3395 11.3261 12.452 11.5673 12.436C11.6879 12.4279 11.8004 12.436 11.9129 12.436ZM8.2393 12.436C8.39203 12.436 8.54476 12.436 8.6975 12.436C8.85023 12.436 8.91454 12.3556 8.94669 12.2028C9.07531 11.4151 8.97885 11.2945 8.19911 11.2945C8.06245 11.2945 7.91776 11.2945 7.7811 11.2945C7.66856 11.2945 7.59621 11.3507 7.56406 11.4633C7.34702 12.1144 7.58013 12.436 8.2393 12.436ZM8.30361 9.75106C8.15891 9.75106 8.04637 9.7591 7.93383 9.75106C7.62837 9.71087 7.5319 9.83949 7.53994 10.145C7.56406 10.9167 7.4274 10.9006 8.27145 10.8925C8.40811 10.8925 8.5528 10.9006 8.68946 10.8925C8.79396 10.8845 8.91454 10.8604 8.92258 10.7398C8.94669 10.4343 9.02708 10.1048 8.88239 9.83949C8.76985 9.63852 8.48046 9.79126 8.30361 9.75106ZM8.19911 13.9874C8.29557 13.9874 8.35988 13.9874 8.42419 13.9874C8.94669 13.9874 8.94669 13.9874 8.94669 13.4649C8.94669 12.8459 8.94669 12.8459 8.31969 12.8459C8.15087 12.8459 7.9901 12.8459 7.82129 12.8459C7.70071 12.8459 7.5721 12.8861 7.56406 13.0147C7.54798 13.3041 7.46759 13.6257 7.59621 13.8749C7.70875 14.108 8.01422 13.9392 8.19911 13.9874ZM14.1316 10.3459C14.1316 9.7591 14.1316 9.7591 13.6493 9.7591C13.0383 9.7591 13.0383 9.7591 13.0383 10.2173C13.0383 10.9006 13.0383 10.9006 13.5608 10.9006C14.1316 10.8925 14.1316 10.8925 14.1316 10.3459Z" fill="#283942"/>
<path d="M6.32635 9.11609C6.32635 9.57429 6.31831 10.0164 6.32635 10.4666C6.32635 10.6354 6.26204 10.6675 6.10931 10.6916C3.21542 11.174 0.305452 8.93924 0.0321398 6.01319C-0.257249 3.02284 1.59163 0.530877 4.55786 0.0726773C6.58359 -0.240827 8.28777 0.466568 9.59806 2.06625C9.63825 2.12252 9.7106 2.17075 9.67844 2.29937C9.04339 2.29937 8.40031 2.29937 7.75722 2.29937C7.6286 2.29937 7.54822 2.21094 7.45175 2.15467C6.1897 1.38297 4.87137 1.30258 3.56912 1.9939C2.27491 2.66914 1.58359 3.80258 1.51928 5.25756C1.40674 7.62091 3.59323 9.54213 5.93246 9.15628C6.05304 9.1402 6.17362 9.13216 6.32635 9.11609Z" fill="#283942"/>
<path d="M6.31041 4.09222C5.83613 4.02791 5.83613 4.02791 5.82809 4.5263C5.82809 4.65492 5.82809 4.78354 5.82005 4.91215C5.80397 5.08096 5.82809 5.21762 6.03709 5.24174C6.29433 5.27389 6.34256 5.43466 6.33452 5.67582C6.31844 6.1099 6.33452 6.54399 6.32648 6.97003C6.32648 7.05846 6.31844 7.21119 6.29433 7.21923C5.90848 7.29157 5.7879 7.59704 5.59497 7.87839C5.46635 8.07132 5.09658 7.93466 5.07246 7.68547C5.04835 7.39608 4.89561 7.34784 4.6625 7.30765C4.48565 7.2755 4.30076 7.19511 4.13195 7.12276C3.94706 7.04238 3.89079 6.88965 3.96314 6.7128C4.02745 6.55202 4.18018 6.50379 4.34095 6.55202C4.57407 6.62437 4.84738 6.83337 5.01619 6.69672C5.19304 6.54399 5.04835 6.2144 5.08854 5.96521C5.1207 5.72405 5.04031 5.61955 4.79915 5.53112C4.23645 5.33016 3.99529 4.9845 4.02745 4.48611C4.05156 3.98772 4.34899 3.63402 4.90365 3.46521C5.06443 3.41698 5.17697 3.36874 5.16089 3.16778C5.13677 2.92662 5.25735 2.75781 5.50655 2.75781C5.77182 2.75781 5.87632 2.93466 5.87632 3.1919C5.87632 3.27228 5.83613 3.4009 5.96475 3.40894C6.48725 3.43305 6.29433 3.80283 6.31041 4.09222ZM5.79594 6.75299C6.1014 6.68064 6.28629 6.54399 6.25414 6.24656C6.23002 5.98129 6.02102 5.94109 5.79594 5.9009C5.79594 6.19029 5.79594 6.45556 5.79594 6.75299ZM5.11266 4.94431C5.11266 4.69511 5.10462 4.47807 5.11266 4.26103C5.1207 4.04399 5.03227 4.0681 4.88758 4.14849C4.7268 4.24495 4.6625 4.38161 4.67857 4.55846C4.69465 4.78354 4.86346 4.87196 5.11266 4.94431Z" fill="#283942"/>
</g>
<defs>
<clipPath id="clip0_1874_3242">
<rect width="15" height="15" fill="white"/>
</clipPath>
</defs>
</svg>
