<svg width="15" height="15" viewBox="0 0 15 15" fill="none" xmlns="http://www.w3.org/2000/svg">
<g clip-path="url(#clip0_1871_3173)">
<path d="M6.74027 5.85104C8.53079 5.85104 10.3209 5.85104 12.1114 5.85104C12.947 5.85104 13.4776 6.383 13.478 7.2202C13.4784 7.64899 13.472 8.07778 13.4818 8.50657C13.4843 8.63223 13.444 8.65006 13.3318 8.64922C12.5851 8.64412 11.8378 8.6645 11.0915 8.642C10.1888 8.61483 9.82727 9.09074 9.71258 9.77723C9.62847 10.282 9.62804 10.7898 9.76058 11.289C9.92115 11.8949 10.3222 12.2022 10.9475 12.2039C11.7367 12.2065 12.526 12.2073 13.3153 12.2014C13.4402 12.2005 13.486 12.2192 13.4826 12.3593C13.472 12.8038 13.4805 13.2487 13.4784 13.6932C13.4746 14.4459 12.927 14.9987 12.1764 14.9991C8.55331 15.0008 4.93021 15.0008 1.30755 14.9991C0.555655 14.9987 0.00299435 14.4472 0.00256955 13.697C0.000445566 11.5162 0.000445566 9.33528 0.00256955 7.15397C0.00341914 6.40295 0.55523 5.85232 1.30712 5.85147C3.1176 5.84977 4.92894 5.85104 6.74027 5.85104Z" fill="#283942"/>
<path d="M2.20361 5.34256C3.39772 4.29691 4.56039 3.27885 5.72263 2.26122C6.01319 2.00692 6.30503 1.75389 6.59431 1.49789C6.83772 1.28264 7.11002 1.2058 7.41332 1.34335C7.7213 1.48303 7.8772 1.73478 7.88272 2.0723C7.88782 2.40004 7.88102 2.72822 7.88612 3.05639C7.8874 3.13875 7.85553 3.17696 7.78629 3.21135C6.38276 3.90887 4.98051 4.6081 3.57741 5.30647C3.54512 5.32261 3.50901 5.34129 3.47418 5.34129C3.0634 5.34341 2.65262 5.34256 2.20361 5.34256Z" fill="#283942"/>
<path d="M12.4404 9.15476C12.9433 9.15476 13.4463 9.15348 13.9492 9.15518C14.4233 9.15688 14.7466 9.47868 14.7491 9.9512C14.7508 10.2632 14.7504 10.5757 14.7491 10.8877C14.747 11.3722 14.4267 11.6952 13.9446 11.6957C12.9705 11.6969 11.996 11.6961 11.022 11.6961C10.5186 11.6961 10.3253 11.5445 10.2267 11.0461C10.1418 10.6165 10.1456 10.183 10.2361 9.75379C10.3274 9.32075 10.5368 9.1556 10.9786 9.15518C11.4659 9.15391 11.9531 9.15476 12.4404 9.15476ZM12.7148 10.4203C12.7126 9.86035 12.2513 9.40524 11.6893 9.40906C11.1354 9.41288 10.683 9.86799 10.6817 10.422C10.6804 10.9833 11.1379 11.4418 11.6991 11.4414C12.2594 11.4414 12.7169 10.9811 12.7148 10.4203Z" fill="#283942"/>
<path d="M14.559 2.04593C14.4592 2.04593 14.3377 2.01112 14.2655 2.0557C14.1954 2.099 14.24 2.23104 14.2302 2.32401C14.1206 3.34334 13.6546 4.15507 12.8267 4.76132C12.7451 4.82118 12.6924 4.82373 12.6105 4.7592C12.3488 4.55329 12.0812 4.35376 11.8106 4.15932C11.709 4.08629 11.7175 4.05827 11.8212 3.99502C12.4478 3.61378 12.7566 3.05253 12.7447 2.31892C12.74 2.03872 12.7358 2.03872 12.458 2.03872C12.3522 2.03872 12.2456 2.04424 12.1402 2.03659C11.9728 2.02471 11.8972 1.87781 11.9958 1.74281C12.387 1.20958 12.7795 0.677628 13.1805 0.152042C13.336 -0.0513148 13.6117 -0.0508902 13.7689 0.154589C14.1703 0.679751 14.5628 1.21213 14.9541 1.74493C15.0552 1.88248 14.9825 2.02428 14.8135 2.03659C14.7293 2.04296 14.644 2.03787 14.5594 2.03787C14.559 2.04084 14.559 2.04339 14.559 2.04593Z" fill="#283942"/>
<path d="M4.69629 5.31577C5.23833 5.04618 5.77995 4.7766 6.32199 4.50659C7.2387 4.0502 8.15286 3.58915 9.07255 3.13913C9.53388 2.91327 10.0534 3.17182 10.1579 3.66387C10.1664 3.70505 10.1711 3.7475 10.1711 3.78953C10.1723 4.27096 10.1711 4.75282 10.1732 5.23425C10.1736 5.30813 10.1668 5.34549 10.0738 5.34506C8.28412 5.34209 6.49445 5.34251 4.70478 5.34251C4.70224 5.3336 4.69926 5.32468 4.69629 5.31577Z" fill="#283942"/>
<path d="M12.206 10.4278C12.2043 10.7089 11.9685 10.9385 11.6869 10.933C11.4129 10.9275 11.1882 10.6966 11.1895 10.4219C11.1912 10.1396 11.4252 9.91157 11.7086 9.91709C11.983 9.92218 12.2077 10.1527 12.206 10.4278Z" fill="#283942"/>
</g>
<defs>
<clipPath id="clip0_1871_3173">
<rect width="15" height="15" fill="white"/>
</clipPath>
</defs>
</svg>
