<svg width="15" height="15" viewBox="0 0 15 15" fill="none" xmlns="http://www.w3.org/2000/svg">
<g clip-path="url(#clip0_1876_3273)">
<path d="M15.0002 0.995414C14.8966 1.56582 14.9151 2.14613 14.8768 2.72181C14.8346 3.3556 14.8039 3.98938 14.7649 4.67003C14.3488 4.22771 13.9679 3.82301 13.5773 3.40775C12.8109 4.17555 12.0867 4.89978 11.3638 5.62533C10.731 6.26043 10.1084 6.9061 9.46536 7.52998C8.53277 8.43444 8.01694 8.44302 7.09522 7.53724C6.64203 7.09227 6.24317 6.58789 5.82067 6.10991C5.77209 6.05511 5.72926 5.99438 5.66406 5.91119C6.19715 5.77915 6.66568 5.56657 7.06198 5.21403C7.17704 5.1117 7.23265 5.15197 7.31702 5.24638C7.62767 5.59232 7.94535 5.931 8.24513 6.25581C9.59 4.8813 10.9259 3.51536 12.2964 2.1151C11.8655 1.69588 11.4437 1.28458 10.9553 0.8099C11.9186 0.733979 12.7796 0.655416 13.6425 0.602601C14.0951 0.574873 14.5444 0.472543 15.0008 0.533941C15.0002 0.687765 15.0002 0.84159 15.0002 0.995414Z" fill="#283942"/>
<path d="M0 8.8457C0.76256 8.8457 1.52512 8.8457 2.28576 8.8457C2.34968 8.94605 2.319 9.0464 2.319 9.13949C2.32156 10.621 2.32156 12.1018 2.32028 13.5832C2.32028 13.9734 2.29919 13.9939 1.92717 13.9945C1.40687 13.9958 0.886564 13.9906 0.366259 13.9972C0.221801 13.9992 0.0933225 13.9866 0 13.8585C0 12.1876 0 10.5166 0 8.8457Z" fill="#283942"/>
<path d="M5.00977 3.38186e-05C6.39875 0.00729591 7.52437 1.17253 7.51606 2.5959C7.50775 4.04238 6.37254 5.19309 4.96567 5.18121C3.6061 5.16999 2.48367 3.99353 2.48879 2.58402C2.49454 1.15603 3.62847 -0.00722828 5.00977 3.38186e-05ZM4.20439 3.24025C4.19096 3.74133 4.19032 3.74595 4.61923 3.81924C4.7215 3.83706 4.81098 3.83508 4.78925 3.98164C4.77455 4.08001 4.82057 4.12358 4.91581 4.11368C4.99635 4.1051 5.14528 4.13877 5.13761 4.05096C5.11588 3.78953 5.30828 3.81792 5.44059 3.77302C5.6413 3.70436 5.75635 3.56902 5.80749 3.3604C5.97496 2.67777 5.70522 2.2975 5.03023 2.26977C5.01936 2.26911 5.00913 2.26977 4.99827 2.26977C4.87746 2.26911 4.74387 2.26647 4.74195 2.1001C4.73939 1.91525 4.88321 1.9093 5.01489 1.90864C5.15295 1.90798 5.29486 1.89346 5.42909 1.91789C5.70138 1.96806 5.7327 1.83404 5.7359 1.59439C5.7391 1.3422 5.55565 1.39568 5.43676 1.34748C5.31914 1.29929 5.12994 1.3937 5.13697 1.12896C5.14017 1.02399 4.99699 1.0735 4.91901 1.06492C4.85445 1.05832 4.77583 1.06558 4.79117 1.15867C4.81993 1.33758 4.68634 1.34088 4.58471 1.38445C4.20758 1.54686 4.06824 1.86969 4.159 2.36682C4.21781 2.68701 4.46198 2.88111 4.83144 2.90091C4.89536 2.90421 4.95928 2.90157 5.02256 2.90157C5.13378 2.90157 5.24692 2.90289 5.24116 3.06398C5.23605 3.2112 5.12994 3.23695 5.01744 3.23827C4.7541 3.24223 4.49075 3.24025 4.20439 3.24025Z" fill="#283942"/>
<path d="M13.7389 9.94119C13.7389 11.1493 13.7396 12.3575 13.7389 13.565C13.7389 13.9888 13.7319 13.9961 13.3362 13.9967C12.8051 13.9974 12.2733 13.9915 11.7421 13.9994C11.5101 14.0033 11.4212 13.907 11.4218 13.6673C11.427 11.8003 11.427 9.93327 11.4199 8.06625C11.4193 7.91375 11.4813 7.82528 11.5746 7.7322C12.1646 7.14661 12.752 6.55838 13.3439 5.97477C13.4072 5.91271 13.4577 5.77671 13.567 5.83415C13.6776 5.89225 13.7466 5.99458 13.7434 6.15236C13.7319 6.67919 13.7389 7.20669 13.7389 7.73352C13.7389 8.46963 13.7389 9.20508 13.7389 9.94119Z" fill="#283942"/>
<path d="M4.86503 7.5293C5.26644 7.9604 5.59882 8.42187 6.02581 8.78894C6.12169 8.8708 6.13191 8.96455 6.13191 9.0781C6.13 10.6058 6.12808 12.1335 6.13383 13.6611C6.13447 13.8968 6.05585 14.0031 5.81935 13.9992C5.25558 13.9906 4.69181 13.9893 4.12804 13.9998C3.8877 14.0044 3.81675 13.8988 3.81739 13.6631C3.82314 12.0034 3.82122 10.3437 3.8193 8.68397C3.8193 8.55985 3.83017 8.45951 3.93692 8.36774C4.24693 8.10168 4.54479 7.82044 4.86503 7.5293Z" fill="#283942"/>
<path d="M9.94786 9.28418C9.94786 10.7538 9.9485 12.1719 9.94722 13.5899C9.94658 13.9491 9.90248 13.9953 9.56946 13.9966C9.02678 13.9986 8.48411 13.9927 7.94207 13.9993C7.75606 14.0019 7.61991 13.955 7.61927 13.7378C7.61672 12.4201 7.618 11.103 7.618 9.75093C8.46749 9.95361 9.22621 9.7549 9.94786 9.28418Z" fill="#283942"/>
<path d="M2.58485 4.875C3.03101 5.38401 3.57177 5.69298 4.21033 5.88905C3.74499 6.31554 3.30203 6.72023 2.86099 7.12757C2.80154 7.18237 2.7389 7.20151 2.66028 7.20151C1.80376 7.19953 0.947235 7.20019 0.0146484 7.20019C0.898656 6.40004 1.73089 5.64742 2.58485 4.875Z" fill="#283942"/>
</g>
<defs>
<clipPath id="clip0_1876_3273">
<rect width="15" height="15" fill="white"/>
</clipPath>
</defs>
</svg>
