<svg width="15" height="15" viewBox="0 0 15 15" fill="none" xmlns="http://www.w3.org/2000/svg">
<g clip-path="url(#clip0_1872_3214)">
<path d="M7.87992 6.39283C7.92616 6.3772 7.94691 6.37677 7.95166 6.36809C8.27753 5.76955 8.75984 5.28082 9.11293 4.70224C9.17862 4.59416 9.25166 4.56942 9.36144 4.5933C10.1908 4.77559 10.7064 5.17231 10.7544 6.07641C10.7812 6.57599 10.7678 7.07254 10.7025 7.56778C10.6969 7.61075 10.6878 7.65328 10.6779 7.69538C10.5249 8.34644 10.406 8.47058 9.74435 8.54654C8.2235 8.72059 6.70266 8.73404 5.18354 8.5066C4.89398 8.4632 4.71981 8.31259 4.61609 8.04565C4.51539 7.78697 4.4484 7.52046 4.43933 7.24528C4.42636 6.84119 4.41815 6.4358 4.4363 6.03214C4.47477 5.16102 5.04179 4.74261 5.84608 4.59373C5.95239 4.5742 6.01636 4.62108 6.07297 4.71353C6.40921 5.26042 6.87251 5.71833 7.17719 6.28822C7.21609 6.36071 7.29043 6.41627 7.31895 6.28605C7.3747 6.03257 7.44385 5.77909 7.44169 5.5178C7.43996 5.28863 7.30339 5.11415 7.17071 4.94053C7.11237 4.86457 7.00864 4.78818 7.06958 4.67663C7.12749 4.57159 7.24764 4.60154 7.34531 4.59981C7.54671 4.59677 7.74854 4.59286 7.9495 4.60502C8.13923 4.6163 8.1764 4.70007 8.07311 4.85806C8.02211 4.93662 7.9629 5.00998 7.90628 5.0842C7.76712 5.26606 7.71353 5.46919 7.75372 5.69533C7.79565 5.9271 7.838 6.15801 7.87992 6.39283Z" fill="#283942"/>
<path d="M5.45264 2.15285C5.4522 0.955335 6.40473 -0.00389447 7.58977 1.18889e-05C8.78216 0.00391825 9.73382 0.954901 9.73857 2.14678C9.74333 3.36426 8.78432 4.32739 7.57464 4.32002C6.38485 4.31264 5.45307 3.36122 5.45264 2.15285Z" fill="#283942"/>
<path d="M11.9774 14.999C11.4056 14.996 10.9259 14.9651 10.4458 14.9148C10.1346 14.8822 9.96388 14.7221 9.89905 14.4261C9.79879 13.969 9.78755 13.5059 9.87442 13.0497C9.95826 12.6079 10.5218 12.2459 10.9627 12.3114C11.0521 12.3249 11.1204 12.3787 11.1956 12.4195C11.6619 12.6738 12.1313 12.676 12.5985 12.4269C13.0583 12.1812 13.7615 12.4408 13.9023 12.9534C14.0502 13.4898 14.0285 14.0393 13.8539 14.5749C13.7947 14.7568 13.6685 14.8549 13.4788 14.8883C12.9515 14.9812 12.42 14.9864 11.9774 14.999Z" fill="#283942"/>
<path d="M7.64299 14.9999C7.11443 14.996 6.63428 14.9683 6.15456 14.9175C5.83993 14.8841 5.65496 14.7326 5.58797 14.4231C5.489 13.9656 5.46739 13.5029 5.5629 13.0476C5.68305 12.4738 6.39485 12.1609 6.90569 12.4317C7.37461 12.6804 7.84309 12.6704 8.30812 12.4157C8.57909 12.2672 9.04153 12.3267 9.27491 12.5329C9.34708 12.5967 9.34621 12.6626 9.32504 12.7464C9.16816 13.3753 9.18199 14.006 9.33195 14.6323C9.37647 14.8172 9.28873 14.8667 9.14352 14.8923C8.63182 14.9834 8.11407 14.99 7.64299 14.9999Z" fill="#283942"/>
<path d="M3.26483 15.0003C2.78987 14.992 2.31663 14.966 1.84339 14.9178C1.5145 14.8844 1.33687 14.7164 1.27118 14.4017C1.18042 13.9651 1.16054 13.525 1.2405 13.0879C1.32477 12.6265 1.85592 12.2589 2.32354 12.3105C2.40652 12.3196 2.47135 12.3626 2.54006 12.4021C3.03275 12.6838 3.52544 12.6808 4.01899 12.4038C4.26836 12.2636 4.79691 12.3474 4.98232 12.5523C5.04023 12.6165 5.03029 12.6812 5.01171 12.7537C4.85137 13.3835 4.86649 14.0137 5.0251 14.64C5.06789 14.8097 5.0009 14.8618 4.85569 14.8878C4.32973 14.9816 3.79728 14.9907 3.26483 15.0003Z" fill="#283942"/>
<path d="M3.2726 12.2316C2.48776 12.2298 1.87925 11.6148 1.88184 10.8266C1.88444 10.0266 2.50202 9.40639 3.29119 9.41116C4.06393 9.41593 4.68627 10.0462 4.68713 10.8244C4.68843 11.6213 4.073 12.2333 3.2726 12.2316Z" fill="#283942"/>
<path d="M7.59088 12.2314C6.80129 12.2314 6.19623 11.6251 6.1958 10.8334C6.19537 10.0295 6.80431 9.40972 7.59434 9.41016C8.36881 9.41059 8.99244 10.0352 8.9972 10.8156C9.00238 11.6133 8.38869 12.2314 7.59088 12.2314Z" fill="#283942"/>
<path d="M11.9 12.231C11.1186 12.2332 10.5027 11.6194 10.4971 10.833C10.4915 10.0478 11.1255 9.40713 11.9052 9.41017C12.6891 9.41321 13.2946 10.0248 13.2985 10.8165C13.3024 11.6242 12.7051 12.2288 11.9 12.231Z" fill="#283942"/>
<path d="M10.8318 2.42475C11.2242 2.47553 11.6166 2.52718 12.0091 2.5771C12.1417 2.59402 12.2092 2.64741 12.0938 2.76417C11.9157 2.94386 11.9641 3.07494 12.1219 3.2529C13.4257 4.72256 13.9089 6.43528 13.5904 8.37631C13.5766 8.46182 13.561 8.54819 13.5334 8.62979C13.4759 8.79689 13.3527 8.87372 13.1798 8.83596C13.0147 8.79993 12.9378 8.67666 12.9538 8.51477C12.9728 8.32119 13.0221 8.13021 13.0428 7.93663C13.2179 6.31549 12.7619 4.89574 11.6931 3.66914C11.5566 3.51245 11.4835 3.56367 11.3837 3.69996C11.2376 3.89875 11.2259 3.89397 11.1313 3.66871C10.9852 3.32278 10.8435 2.97468 10.6961 2.62918C10.6334 2.48334 10.6503 2.40174 10.8318 2.42475Z" fill="#283942"/>
<path d="M2.22847 7.34889C2.531 7.33717 2.53229 7.33761 2.4182 7.6193C2.28811 7.94049 2.15759 8.26168 2.02405 8.58157C1.93502 8.79555 1.91514 8.79989 1.77943 8.62671C1.53914 8.32027 1.3049 8.00863 1.06461 7.7022C0.971688 7.58414 0.964341 7.50254 1.14067 7.4995C1.3788 7.49516 1.44449 7.38058 1.45703 7.14619C1.56378 5.13572 2.45666 3.56146 4.1037 2.41776C4.34486 2.25022 4.52205 2.25847 4.63442 2.42384C4.74722 2.59007 4.68499 2.75327 4.44253 2.91908C3.24496 3.73724 2.48173 4.85273 2.1671 6.27334C2.10141 6.56979 2.05689 6.86971 2.05646 7.17528C2.05646 7.29724 2.09406 7.3745 2.22847 7.34889Z" fill="#283942"/>
</g>
<defs>
<clipPath id="clip0_1872_3214">
<rect width="15" height="15" fill="white"/>
</clipPath>
</defs>
</svg>
