<svg width="15" height="15" viewBox="0 0 15 15" fill="none" xmlns="http://www.w3.org/2000/svg">
<path d="M8.5625 3.98438V0H2.70312C2.31348 0 2 0.313477 2 0.703125V14.2969C2 14.6865 2.31348 15 2.70312 15H12.5469C12.9365 15 13.25 14.6865 13.25 14.2969V4.6875H9.26562C8.8789 4.6875 8.5625 4.37109 8.5625 3.98438ZM3.875 2.10938C3.875 1.97988 3.97988 1.875 4.10937 1.875H6.45312C6.58261 1.875 6.6875 1.97988 6.6875 2.10938V2.57812C6.6875 2.70762 6.58261 2.8125 6.45312 2.8125H4.10937C3.97988 2.8125 3.875 2.70762 3.875 2.57812V2.10938ZM3.875 3.98438C3.875 3.85488 3.97988 3.75 4.10937 3.75H6.45312C6.58261 3.75 6.6875 3.85488 6.6875 3.98438V4.45312C6.6875 4.58262 6.58261 4.6875 6.45312 4.6875H4.10937C3.97988 4.6875 3.875 4.58262 3.875 4.45312V3.98438ZM9.52373 11.25H10.9062C11.1652 11.25 11.375 11.4598 11.375 11.7188C11.375 11.9777 11.1652 12.1875 10.9062 12.1875H9.52373C9.04179 12.1875 8.60761 11.9197 8.3917 11.4885C8.30527 11.315 8.15468 11.2975 8.09375 11.2975C8.03281 11.2975 7.88222 11.3147 7.80019 11.4788L7.57549 11.9282C7.53658 12.0061 7.47674 12.0716 7.40268 12.1173C7.32863 12.1631 7.24329 12.1873 7.15625 12.1872C7.14511 12.1872 7.13427 12.1866 7.12285 12.1857C6.93388 12.1726 6.77129 12.0466 6.71181 11.8667L6.21875 10.3884L5.90791 11.3224C5.73535 11.8397 5.25224 12.1875 4.70674 12.1875H4.34375C4.08476 12.1875 3.875 11.9777 3.875 11.7188C3.875 11.4598 4.08476 11.25 4.34375 11.25H4.70674C4.84824 11.25 4.97363 11.1598 5.01846 11.0256L5.55137 9.42481C5.64805 9.1374 5.91582 8.94404 6.21875 8.94404C6.52168 8.94404 6.78945 9.13711 6.88584 9.42481L7.29248 10.6447C7.87168 10.1704 8.87597 10.3605 9.22607 11.0596C9.28525 11.1785 9.40068 11.25 9.52373 11.25ZM13.0449 3.07617L10.1768 0.205078C10.0449 0.0732422 9.86621 0 9.67871 0H9.5V3.75H13.25V3.57129C13.25 3.38672 13.1768 3.20801 13.0449 3.07617Z" fill="#283942"/>
</svg>
