<svg width="276" height="276" viewBox="0 0 276 276" fill="none" xmlns="http://www.w3.org/2000/svg">
<path fill-rule="evenodd" clip-rule="evenodd" d="M91.37 181.82C92.36 184.53 92.25 186.49 93.91 188.21C95.53 189.89 97.28 189.94 99.15 192.67C94.92 194.83 87.26 194.69 82.03 193.72C85.77 192.36 88.79 191.49 91.78 189.87C90.64 184.53 87.3 180.96 82.15 179.27L80.84 178.71L87.53 175.95C89.73 177.62 90.62 179.1 91.37 181.82ZM162.54 174.61C161.05 175.92 160.7 179.35 157.41 182.19C157.7 182.1 158.15 182.13 158.82 182.27C159.44 183.9 159.38 183.75 160.89 184.95C162.77 186.9 164.96 185.71 166.58 188.98C164.65 190.96 155.34 191.98 149.26 190.85C153.61 189.27 155.2 188.75 158.42 186.79C158.36 186.5 157.87 185.59 156.96 183.01C156.95 182.81 156.97 182.64 157.03 182.51L156.86 182.64C150.96 187.16 145.71 191.08 143.67 198.58C142.01 204.67 146.6 205.06 147.07 208.91C142.78 209.62 136.97 209.68 132.64 208.65C130.28 208.09 130.22 207.99 128.81 206.96L135.3 206.23C136.74 205.43 139.35 204.74 140.77 204.21C141.12 196.99 137.75 191.36 148.37 182.79C149.4 181.96 149.8 181.44 151.16 180.43C163.93 170.98 160.19 157.94 176.53 158.63C168.01 162.67 165.84 165.07 162.54 174.61ZM136.16 171.26C133.5 173.84 132 175.25 127.38 175.41C123.47 175.55 119.51 174.72 115.95 173.92C110.45 172.69 98.92 168.91 94.09 171.08L92.22 171.04C99.65 167.16 106.31 168.16 115.66 169.32C129.83 171.07 132.01 166.73 138.27 164.79L136.16 171.26ZM198.85 161.67C192.85 163.82 186.99 165.37 180.99 167.31C174.26 169.48 169.17 173.19 164.02 174.75C168.05 169.26 171.4 165.58 178.82 162.71C185.36 160.18 191.99 158.24 198.32 155.63C219.88 146.73 215.18 136.44 213.4 123.67C221.21 129.35 227.9 151.06 198.85 161.67ZM129.27 201.85C129.48 197.15 131.23 191.42 132.25 186.64C132.77 184.14 132.96 181.22 133.48 178.92C134.05 176.36 135.68 174.98 137.35 172.63C138.89 167.01 141.16 162.1 142.58 155.85C143.87 150.18 144.55 142.83 146.61 137.48C154.42 117.26 173 126.26 177.63 127.35C164.75 126.24 159.83 126.42 155.11 135.96C151.82 142.6 150.21 151.34 147.53 158.8C142.26 173.48 137.72 176.27 136.82 179.01C135.56 182.87 135.14 187.16 133.71 191.28C132.42 194.96 130.27 198.55 129.27 201.85ZM23.92 201.23L23.72 201.34L28.42 168.31C33.94 165.03 38.83 166.33 42.29 153.09C44.15 145.96 45.37 138.11 49.5 132.64C58.01 121.4 75.99 117.94 93.35 125.39C57.78 122.68 54.86 131.27 48.93 154.65C47.5 160.3 46.02 164.1 42.14 166.6C32.88 172.54 32.97 169.06 31.81 174.79C30.8 179.75 23.53 199.17 23.92 201.23ZM73.57 178.76C57.19 180.89 37.11 176.76 38.5 195.36C38.86 200.17 39.8 201.22 42.16 203.65C44.15 205.69 43.16 203.93 44.23 206.43C37.76 207.2 31.01 207.96 25.11 205.2C23.15 203.8 24.13 205.44 24.87 204.09C31.72 203.49 32.13 203.33 36.7 200.2C36.18 191.68 32.24 186.34 40.16 179.26C55.71 165.37 97.07 183.8 89.89 147.01C98.87 158.55 95.82 173.44 73.57 178.76ZM15.25 190.87C10.96 194.29 4.92 194.44 0 191.67C8.14 189.29 7.13 188.27 11.12 181.64C13.48 178.14 16.91 179.59 20.83 180.49C25.8 163.29 6.37 152.82 10.32 134.84C14.44 116.06 43.19 118.02 51.8 125.64C50.54 127.76 49.28 128.35 47.95 130.65C43.76 129.83 40.63 127.37 35.66 126.63C21.08 124.47 10.17 131.6 16.23 148.88C21.98 165.26 31.24 177.93 15.25 190.87ZM228.35 163.95C227.05 165.98 225.4 167.74 224.25 169.91C223.16 171.95 222.61 174.76 221.29 176.77C211.86 177.33 206.5 172.01 204.09 165.88L204.27 162.19C207.45 165.83 209.76 169.17 215.77 170.44C219.53 168.34 223.22 163.02 227.17 160.17C233.01 155.95 236.48 156.65 242.3 153.44L242.78 144.15C246.39 141.28 256.08 139.19 261.31 135.72C269.85 130.05 271.95 124.31 275.38 123.89C278.04 132.97 262.8 146.77 258.71 149.9C249.88 156.64 245.15 151.09 234.27 159.48C232.47 160.87 230.45 163.49 228.35 163.95ZM243.98 140.73C236.62 132.24 228.88 120.17 219.81 112.55C215.22 108.7 212.12 108.36 208.95 101.86C202.73 93.63 188.36 73.03 178.56 74.44C170.95 75.36 167.99 83.89 166.1 89.65C156.14 119.98 105.87 131.6 90.44 121.61C118.09 122.15 141.65 112.55 152.52 99.77C163.59 85.94 160.59 68.97 179.34 67C191.48 68.82 206.03 87.27 215.7 101.98C230.93 114.93 234.07 118.34 243.98 140.73Z" fill="white"/>
</svg>
