<svg width="15" height="15" viewBox="0 0 15 15" fill="none" xmlns="http://www.w3.org/2000/svg">
<mask id="mask0_554_20" style="mask-type:luminance" maskUnits="userSpaceOnUse" x="0" y="0" width="14" height="15">
<path d="M14 0H0V14.9667H14V0Z" fill="white"/>
</mask>
<g mask="url(#mask0_554_20)">
<path d="M14.2095 4.95508C14.2175 5.83999 14.2303 6.72571 14.2318 7.61065C14.235 9.47791 14.2359 11.3443 14.2318 13.2116C14.2294 14.1268 13.8268 14.6949 13.0492 14.925C12.8908 14.9716 12.7348 14.9659 12.5772 14.9659C8.94724 14.9667 5.31649 14.9667 1.68652 14.9659C0.696449 14.9659 0.0247326 14.3642 0.0151821 13.3507C-0.0118776 10.6264 0.00483574 7.90123 0.00801925 5.17528C0.00801925 5.11307 0.0486087 5.05085 0.0700975 4.98946C4.62567 4.98864 9.18127 4.98782 13.736 4.98454C13.8936 4.98454 14.052 4.9649 14.2095 4.95508ZM6.60101 6.54727C6.5477 6.54481 6.51427 6.56449 6.51666 6.62503C6.5509 7.87423 6.58911 9.12427 6.61536 10.3735C6.6209 10.6436 6.7427 10.7361 6.98304 10.7255C7.10163 10.7206 7.2218 10.7157 7.33957 10.7263C7.53936 10.7443 7.61975 10.6698 7.62371 10.4529C7.64524 9.17581 7.67785 7.89877 7.7073 6.62257C7.71127 6.57019 7.6898 6.54319 7.63643 6.54727C7.29104 6.54727 6.94565 6.54727 6.60101 6.54727ZM7.75905 12.3864C7.76377 12.0287 7.50675 11.793 7.09924 11.7831C6.73471 11.7741 6.45617 12.0148 6.44742 12.3463C6.43867 12.7106 6.70928 13.0249 7.04195 13.0381C7.43751 13.0528 7.75345 12.7654 7.75905 12.3873V12.3864Z" fill="#283942"/>
<path d="M14.2078 4.95454C14.0502 4.96519 13.8918 4.98402 13.7343 4.98402C9.17866 4.98647 4.62388 4.98729 0.0683056 4.98893C0.0619385 4.21534 0.0324914 3.44175 0.0555717 2.6698C0.0818354 1.7857 0.685903 1.18566 1.55102 1.15291C2.03889 1.1349 2.52755 1.15128 3.01621 1.15291C3.01144 1.39686 3.00746 1.64162 3.00269 1.88557C2.6135 2.27195 2.53074 2.67798 2.74085 3.17242C2.92071 3.59565 3.4062 3.8838 3.8686 3.84205C4.30712 3.80194 4.70904 3.4704 4.82842 3.05045C4.95178 2.61577 4.84195 2.20074 4.53951 1.96743C4.53713 1.69484 4.53554 1.42142 4.53315 1.14882C6.2554 1.14882 7.97851 1.14882 9.70074 1.14882C9.69835 1.42224 9.69596 1.69484 9.69357 1.96825C9.60443 1.97398 9.55829 2.02965 9.51454 2.10496C9.23518 2.58467 9.36089 3.27639 9.79069 3.60384C10.2992 3.99104 10.9375 3.91327 11.3458 3.41473C11.7294 2.94649 11.6857 2.34481 11.2344 1.88639C11.2288 1.64326 11.2232 1.39931 11.2169 1.15619C11.6801 1.15373 12.1425 1.14309 12.6057 1.15128C13.5663 1.16847 14.1799 1.79388 14.2014 2.79341C14.2173 3.51379 14.2054 4.23498 14.2062 4.95618L14.2078 4.95454Z" fill="#0E1215"/>
<path d="M4.53516 1.14836C4.53755 1.42096 4.53914 1.69438 4.54073 1.96698C4.53437 2.22402 4.54392 2.48352 4.51924 2.73811C4.47627 3.17443 4.15712 3.45849 3.74805 3.44866C3.33737 3.43884 3.04529 3.14087 3.023 2.698C3.00948 2.42786 3.00948 2.15607 3.00391 1.88593C3.00868 1.64199 3.01266 1.39723 3.01743 1.15328C3.03892 0.849569 2.95376 0.51394 3.21004 0.273268C3.41856 0.0776199 3.65652 -0.0656367 3.96054 0.0350522C4.2956 0.146383 4.47706 0.391967 4.52402 0.743153C4.54153 0.876587 4.53278 1.01329 4.53516 1.14836Z" fill="#283942"/>
<path d="M9.69531 1.96517C9.6977 1.69175 9.7001 1.41915 9.70249 1.14574C9.71042 0.930448 9.70406 0.714334 9.78602 0.50886C9.91494 0.187965 10.2667 -0.0412468 10.562 0.00623271C10.9393 0.0676287 11.1947 0.357417 11.213 0.74953C11.2194 0.883786 11.2178 1.01886 11.2194 1.15392C11.225 1.39706 11.2305 1.641 11.2369 1.88413C11.2322 2.12807 11.2281 2.3712 11.2218 2.61515C11.2082 3.1276 10.9345 3.44031 10.4952 3.44686C10.0407 3.45341 9.73749 3.13251 9.71439 2.61433C9.70488 2.39822 9.70167 2.18129 9.69613 1.96517H9.69531Z" fill="#283942"/>
<path d="M6.6005 6.54721C6.5725 6.57355 6.54368 6.59905 6.51568 6.62539C6.5141 6.56449 6.54689 6.54391 6.6005 6.54721Z" fill="#F34336"/>
<path d="M7.70794 6.623C7.68391 6.5975 7.66075 6.57278 7.63672 6.54728C7.68951 6.5432 7.71191 6.57032 7.70794 6.623Z" fill="#F34336"/>
<path d="M3.00318 1.88558C3.00875 2.15655 3.00875 2.42751 3.02228 2.69765C3.04456 3.14052 3.33745 3.43849 3.74732 3.44832C4.1556 3.45814 4.47554 3.17408 4.51852 2.73776C4.54398 2.48235 4.53444 2.22367 4.54001 1.96663C4.84164 2.20075 4.95227 2.61497 4.82891 3.04965C4.70953 3.47042 4.30761 3.80196 3.86909 3.84125C3.40668 3.883 2.922 3.59567 2.74134 3.17162C2.53123 2.678 2.614 2.27115 3.00318 1.88477V1.88558Z" fill="#283942"/>
<path d="M9.69535 1.96581C9.70095 2.18192 9.7041 2.39885 9.71366 2.61497C9.73676 3.13315 10.04 3.45404 10.4944 3.4475C10.9338 3.44095 11.2075 3.12824 11.2211 2.61579C11.2274 2.37184 11.2314 2.12871 11.2362 1.88477C11.6874 2.34401 11.7312 2.94487 11.3476 3.41312C10.9393 3.91165 10.301 3.98942 9.79247 3.60221C9.36191 3.27477 9.23696 2.58304 9.51626 2.10333C9.56007 2.02802 9.60621 1.97236 9.69535 1.96663V1.96581Z" fill="#283942"/>
</g>
</svg>
