<svg width="15" height="15" viewBox="0 0 15 15" fill="none" xmlns="http://www.w3.org/2000/svg">
<g clip-path="url(#clip0_374_275)">
<path d="M7.58458 11.0278C7.11244 11.0278 6.66657 11.0278 6.22069 11.0278C4.36578 11.0288 2.51088 11.0302 0.655972 11.0307C0.306364 11.0307 0.0802007 10.859 0.0134112 10.5419C0.00373823 10.4971 0.00189576 10.4497 0.00189576 10.4039C0.000974529 7.64926 0.000974529 4.89463 0.000974529 2.13951C0.000974529 1.97268 -0.00086794 1.80634 0.000513912 1.63951C0.00465947 1.25756 0.247405 1.00146 0.611292 1.00098C1.5551 0.999512 2.49936 1.00049 3.44317 1.00049C5.15528 1 6.86786 1 8.57997 1C8.61267 1 8.64538 1 8.67808 1C8.679 1.00634 8.68038 1.01268 8.68131 1.01902C8.62833 1.03171 8.5749 1.0439 8.52193 1.05756C7.80061 1.24293 7.14699 1.5761 6.56799 2.06829C6.50351 2.12292 6.4404 2.14439 6.35933 2.14439C4.6767 2.14195 2.99407 2.14146 1.31097 2.14097C1.11521 2.14097 1.07606 2.18244 1.07606 2.39219C1.07606 4.81024 1.07606 7.22828 1.07606 9.64584C1.07606 9.8512 1.10646 9.8834 1.29623 9.8834C2.85864 9.8834 4.42106 9.88389 5.98301 9.88193C6.05348 9.88193 6.10461 9.8995 6.15482 9.95364C6.55602 10.3863 7.02216 10.7229 7.53621 10.9863C7.54542 10.9912 7.55233 11.0005 7.58458 11.0278Z" fill="#283942"/>
<path d="M3.82422 13.1771C3.82422 12.9317 3.82422 12.6932 3.82422 12.4449C4.19409 12.4449 4.55844 12.4449 4.90483 12.4449C4.99419 12.1805 5.07572 11.9298 5.16323 11.6815C5.23601 11.4742 5.35715 11.3825 5.58976 11.3869C6.50777 11.4049 7.42578 11.3952 8.34379 11.3922C8.41934 11.3917 8.4654 11.4186 8.50639 11.481C8.6736 11.7376 8.75328 12.0308 8.82514 12.3274C8.83389 12.3639 8.84356 12.4005 8.85416 12.4439C9.22265 12.4439 9.58746 12.4439 9.95872 12.4439C9.95872 12.6908 9.95872 12.9288 9.95872 13.1771C7.91865 13.1771 5.87627 13.1771 3.82422 13.1771Z" fill="#283942"/>
<path d="M7.92578 4.90574C8.16438 4.75159 8.39054 4.60476 8.61809 4.4594C8.95572 4.24379 9.29381 4.02769 9.63375 3.81647C9.66691 3.79599 9.72818 3.78916 9.75904 3.80769C10.3385 4.1672 10.9156 4.53208 11.5089 4.90525C11.4477 4.94525 11.397 4.97842 11.3468 5.01159C10.8502 5.33793 10.3519 5.66184 9.85853 5.99354C9.74983 6.06671 9.67106 6.07452 9.55683 5.99647C9.04785 5.64769 8.53103 5.31159 8.01698 4.97062C7.99027 4.95306 7.96447 4.93354 7.92578 4.90574Z" fill="#283942"/>
<path d="M7.72149 5.20312C7.99602 5.38556 8.26133 5.56312 8.52757 5.73922C8.83756 5.9441 9.1494 6.14605 9.45755 6.35434C9.49072 6.37678 9.52526 6.42995 9.52526 6.46898C9.52941 7.13532 9.52849 7.80166 9.52803 8.468C9.52803 8.47873 9.52434 8.48946 9.51974 8.51678C9.39445 8.43434 9.27469 8.35629 9.15539 8.27775C8.69339 7.97239 8.23093 7.66751 7.77077 7.35922C7.74037 7.33922 7.70951 7.28995 7.70951 7.25385C7.70583 6.58361 7.70721 5.91337 7.70767 5.24264C7.70813 5.2363 7.71274 5.22947 7.72149 5.20312Z" fill="#283942"/>
<path d="M11.6905 5.17969C11.6905 5.37627 11.6905 5.54554 11.6905 5.71432C11.6896 6.21334 11.691 6.71286 11.685 7.21188C11.6845 7.2592 11.6532 7.32456 11.6164 7.34944C11.054 7.73139 10.4883 8.10749 9.92361 8.48505C9.91486 8.4909 9.90472 8.4948 9.87202 8.5109C9.87202 8.40944 9.87202 8.31968 9.87202 8.22993C9.87248 7.66115 9.87478 7.09237 9.8711 6.5231C9.87064 6.42505 9.90518 6.37188 9.98119 6.32164C10.5441 5.94944 11.1042 5.57188 11.6905 5.17969Z" fill="#283942"/>
<path d="M3.22257 4.80404C2.69793 4.80404 2.18342 4.80404 1.66016 4.80404C1.66016 4.25136 1.66016 3.70404 1.66016 3.14648C2.18065 3.14648 2.69747 3.14648 3.22257 3.14648C3.22257 3.69478 3.22257 4.24258 3.22257 4.80404Z" fill="#283942"/>
<path d="M1.65625 6.84506C1.65625 6.29189 1.65625 5.7475 1.65625 5.19336C2.17675 5.19336 2.69402 5.19336 3.21958 5.19336C3.21958 5.73824 3.21958 6.28604 3.21958 6.84506C2.70461 6.84506 2.1878 6.84506 1.65625 6.84506Z" fill="#283942"/>
<path d="M3.22143 7.23438C3.22143 7.78754 3.22143 8.33145 3.22143 8.88071C2.69817 8.88071 2.18089 8.88071 1.65625 8.88071C1.65625 8.33047 1.65625 7.78706 1.65625 7.23438C2.17905 7.23438 2.69586 7.23438 3.22143 7.23438Z" fill="#283942"/>
<path d="M4.85717 4.80355C4.4486 4.80355 4.03681 4.80355 3.61719 4.80355C3.61719 4.24892 3.61719 3.70112 3.61719 3.14453C4.13768 3.14453 4.65496 3.14453 5.18421 3.14453C5.18421 3.40404 5.18743 3.66209 5.18144 3.91965C5.18006 3.96941 5.13999 4.01721 5.12156 4.06746C5.03359 4.30892 4.94745 4.55136 4.85717 4.80355Z" fill="#283942"/>
<path d="M10.6836 1.00049C11.3676 1.00049 12.0516 1.00049 12.7352 1.00049C12.8743 1.00049 13.0134 1.00049 13.152 1C13.5261 0.999513 13.7762 1.23707 13.7845 1.62976C13.7955 2.12927 13.7877 2.62927 13.7872 3.12878C13.7872 3.13414 13.7794 3.13951 13.7688 3.15366C12.9941 2.03024 11.9683 1.31122 10.6836 1.00049Z" fill="#283942"/>
<path d="M5.21323 8.88073C4.65864 8.88073 4.14137 8.88073 3.61719 8.88073C3.61719 8.32903 3.61719 7.78464 3.61719 7.22561C3.75399 7.22561 3.88481 7.22561 4.01562 7.22561C4.24593 7.22561 4.47624 7.22854 4.70701 7.22464C4.77103 7.22366 4.7913 7.24805 4.80973 7.31098C4.91429 7.66415 5.0322 8.01342 5.13078 8.36854C5.175 8.52805 5.18513 8.69829 5.21323 8.88073Z" fill="#283942"/>
<path d="M3.61719 5.18945C4.00963 5.18945 4.39241 5.18945 4.78716 5.18945C4.68167 5.74067 4.6743 6.29043 4.72635 6.84847C4.35325 6.84847 3.98983 6.84847 3.61719 6.84847C3.61719 6.29482 3.61719 5.7475 3.61719 5.18945Z" fill="#283942"/>
<path d="M12.9139 9.62768C13.5376 10.4282 14.1111 11.1769 14.6979 11.9135C15.0254 12.3252 15.1567 12.7643 14.7352 13.1496C14.3004 13.5472 13.8711 13.3989 13.5201 12.9516C13.0323 12.3296 12.522 11.7262 12.0627 11.0818C11.7684 10.6687 11.5058 10.5989 11.0139 10.7574C8.48604 11.5721 5.82367 10.0321 5.11201 7.40329C4.38378 4.71305 5.80755 1.9872 8.3543 1.19599C10.2654 0.602328 12.3557 1.38867 13.4985 3.13062C14.6588 4.90037 14.6247 7.27256 13.4114 8.97792C13.264 9.18475 13.1033 9.38085 12.9139 9.62768ZM12.7983 6.00525C12.802 4.14769 11.4358 2.67989 9.69516 2.67013C7.91579 2.66037 6.48419 4.14427 6.48327 5.99988C6.48189 7.83061 7.96277 9.38475 9.69055 9.3667C11.4082 9.34817 12.7951 7.84866 12.7983 6.00525Z" fill="#283942"/>
</g>
<defs>
<clipPath id="clip0_374_275">
<rect width="15" height="13" fill="white" transform="translate(0 1)"/>
</clipPath>
</defs>
</svg>
