<svg width="15" height="15" viewBox="0 0 15 15" fill="none" xmlns="http://www.w3.org/2000/svg">
<g clip-path="url(#clip0_374_174)">
<path d="M11.0094 12.2933C10.7882 12.0961 10.6095 11.951 10.4474 11.7893C9.70078 11.0454 8.95745 10.2981 8.21479 9.54952C7.89528 9.22736 7.89793 9.06227 8.21811 8.73743C8.42072 8.53157 8.62332 8.32637 8.83124 8.12585C9.09961 7.86785 9.27099 7.86852 9.53604 8.13387C10.391 8.98941 11.2426 9.84829 12.0962 10.7058C12.1586 10.768 12.2237 10.8275 12.3273 10.9257C12.5027 10.4739 12.6688 10.0475 12.8335 9.62104C12.8813 9.49672 12.8993 9.34901 12.9783 9.25142C13.0866 9.11841 13.2606 8.91789 13.3709 8.93928C13.519 8.96736 13.705 9.15785 13.7489 9.31492C13.9488 10.0301 14.1043 10.7573 14.2756 11.4805C14.5061 12.4523 14.7247 13.4269 14.9718 14.394C15.1047 14.916 14.7606 15.0657 14.4012 14.9762C13.2779 14.6961 12.1506 14.4294 11.0253 14.1561C10.4574 14.0184 9.89142 13.8713 9.32214 13.741C9.1109 13.6929 8.93885 13.5779 8.97539 13.3727C9.00196 13.2223 9.1481 13.0365 9.28826 12.9737C9.81902 12.7357 10.369 12.5412 11.0094 12.2933Z" fill="#283942"/>
<path d="M4.10788 2.68979C5.04318 3.63021 5.928 4.51917 6.81082 5.40947C7.18813 5.78978 7.18481 5.94017 6.80418 6.31647C6.61486 6.50362 6.43218 6.69812 6.23821 6.88059C5.96055 7.1406 5.79846 7.13659 5.53143 6.86789C4.68447 6.0177 3.84084 5.1655 2.99522 4.31464C2.92614 4.24513 2.85107 4.1823 2.74147 4.08204C2.54351 4.5967 2.35752 5.07928 2.17152 5.56186C2.13964 5.64474 2.12967 5.74901 2.07254 5.80649C1.96427 5.91544 1.81813 6.08187 1.70786 6.06783C1.57434 6.05112 1.38701 5.89204 1.35048 5.75837C1.13459 4.97769 0.953904 4.18698 0.76525 3.39895C0.546039 2.48125 0.330814 1.56288 0.113596 0.644517C-0.00995907 0.121836 0.189988 -0.0867016 0.702144 0.0362821C2.3542 0.433306 4.00625 0.833003 5.6583 1.23136C5.88349 1.2855 6.10204 1.36304 6.11665 1.63574C6.13127 1.91112 5.91338 2.00135 5.69949 2.08222C5.18467 2.27606 4.67119 2.4739 4.10788 2.68979Z" fill="#283942"/>
<path d="M12.0308 4.39341C12.5875 4.60395 13.1156 4.79177 13.6337 5.00699C13.7732 5.06514 13.928 5.1801 13.9904 5.31044C14.1027 5.54371 13.9572 5.73153 13.6258 5.81441C12.3836 6.12387 11.1394 6.42732 9.89585 6.7321C9.47802 6.83437 9.06019 6.93396 8.64303 7.03756C8.10231 7.17191 7.89506 6.98476 8.01928 6.44804C8.40987 4.76102 8.80179 3.07401 9.21696 1.39301C9.25549 1.23727 9.4488 1.04611 9.59826 1.01804C9.7072 0.997322 9.9211 1.18982 9.98487 1.33352C10.2187 1.85954 10.4093 2.40562 10.6385 3.00115C10.7707 2.87683 10.881 2.77858 10.9853 2.67364C11.7897 1.86021 12.5908 1.04411 13.3966 0.232015C13.7048 -0.0787858 13.8676 -0.0754439 14.1778 0.230679C14.3671 0.417828 14.5544 0.60765 14.7424 0.796805C15.0699 1.12699 15.0732 1.27938 14.7537 1.60422C13.9127 2.45909 13.0704 3.31262 12.2301 4.16749C12.169 4.22832 12.1165 4.29582 12.0308 4.39341Z" fill="#283942"/>
<path d="M4.3945 11.9986C3.41536 12.9316 2.49268 13.8112 1.56934 14.6902C1.23056 15.013 1.0718 15.005 0.746302 14.6527C0.572926 14.4656 0.39955 14.2778 0.226174 14.0906C-0.0800565 13.7604 -0.0767351 13.5853 0.244774 13.2819C1.09239 12.4825 1.93801 11.6811 2.78961 10.8864C2.87663 10.8055 3.00019 10.7634 3.10647 10.7032C3.08322 10.6638 3.05997 10.6244 3.03672 10.5849C2.53055 10.3717 2.02636 10.1545 1.51819 9.94728C1.30429 9.85972 1.09106 9.76547 1.10568 9.49411C1.12162 9.19734 1.3674 9.14053 1.5999 9.09174C3.26258 8.74551 4.92526 8.39995 6.58794 8.0564C7.06356 7.95815 7.27746 8.17537 7.15191 8.64392C6.70352 10.3156 6.24717 11.9852 5.79214 13.6548C5.73435 13.8674 5.64733 14.0719 5.39025 14.0752C5.13849 14.0786 5.03686 13.8874 4.96511 13.6756C4.7851 13.1408 4.60176 12.6081 4.3945 11.9986Z" fill="#283942"/>
</g>
<defs>
<clipPath id="clip0_374_174">
<rect width="15" height="15" fill="white"/>
</clipPath>
</defs>
</svg>
