<svg width="15" height="15" viewBox="0 0 15 15" fill="none" xmlns="http://www.w3.org/2000/svg">
<path d="M11.0454 0C11.1084 0.0501747 11.1894 0.0401397 11.2603 0.0624396C11.8296 0.241953 12.2447 0.764885 12.256 1.36029C12.2695 2.05828 12.2627 2.75626 12.2627 3.45425C12.2638 4.86917 12.2616 6.28522 12.265 7.70014C12.265 7.80718 12.2335 7.87965 12.1581 7.95436C11.4257 8.67799 10.6955 9.40274 9.96873 10.1331C9.8911 10.2111 9.85285 10.2111 9.77972 10.1319C9.48158 9.80748 9.14294 9.53765 8.70079 9.42838C7.93576 9.23883 7.26185 9.40162 6.68695 9.94128C6.6757 9.95131 6.6667 9.96246 6.65545 9.9725C6.56657 10.0483 6.50019 10.1988 6.39781 10.1933C6.3123 10.1888 6.23355 10.055 6.15367 9.97584C5.47189 9.29904 4.79236 8.62001 4.10832 7.94544C4.03632 7.87408 4.00932 7.80384 4.00932 7.70349C4.01269 5.585 4.00932 3.46651 4.01269 1.34914C4.01382 0.854085 3.86869 0.421467 3.5233 0.0590946C3.51092 0.0457147 3.47829 0.0301048 3.50867 0.00334498C6.02092 0 8.53316 0 11.0454 0ZM9.09794 2.40504C9.05744 2.18316 8.9348 1.97131 8.69967 1.87542C8.47916 1.78622 8.33515 1.6959 8.36778 1.42385C8.3824 1.3012 8.2474 1.22092 8.12139 1.22761C7.99651 1.2343 7.91326 1.32015 7.90088 1.4573C7.89751 1.50078 7.89301 1.54538 7.89976 1.58886C7.91551 1.70594 7.87725 1.76503 7.75462 1.8074C7.37548 1.93897 7.17747 2.30246 7.25622 2.69048C7.3316 3.06512 7.60949 3.23236 7.94251 3.33717C8.11464 3.39069 8.2924 3.43083 8.46566 3.48212C8.57479 3.51446 8.63892 3.58916 8.65129 3.70289C8.66479 3.8222 8.61079 3.91251 8.51291 3.97383C8.40265 4.04296 8.27777 4.07307 8.14727 4.05746C7.89076 4.02624 7.71975 3.88352 7.61174 3.65383C7.53749 3.49662 7.41261 3.44756 7.27873 3.50888C7.13922 3.57355 7.10209 3.70401 7.17972 3.86791C7.27648 4.06972 7.40136 4.26485 7.60612 4.35516C7.83 4.4544 7.93913 4.57705 7.90651 4.82903C7.89076 4.94834 7.98638 5.02527 8.10789 5.03865C8.23727 5.05315 8.32278 4.99182 8.36553 4.86917C8.39028 4.79781 8.38465 4.72311 8.37903 4.65175C8.37228 4.56032 8.3959 4.52241 8.49378 4.49565C8.83243 4.40422 9.07094 4.19906 9.12269 3.84004C9.18232 3.42637 8.94831 3.11306 8.50953 2.99041C8.30703 2.93355 8.09664 2.90567 7.90538 2.81201C7.7805 2.75069 7.70625 2.65257 7.71637 2.50985C7.72762 2.36825 7.8255 2.26678 7.97738 2.22999C8.2969 2.15082 8.49378 2.24114 8.64454 2.53772C8.70529 2.65703 8.80655 2.69382 8.92693 2.6626C9.03944 2.63361 9.09906 2.5511 9.09794 2.40504ZM8.12814 6.30194C8.33965 6.30194 8.55116 6.30194 8.76267 6.30194C9.41183 6.30194 10.0621 6.30306 10.7113 6.30194C10.8823 6.30194 10.9869 6.2094 10.9858 6.06445C10.9847 5.92173 10.8789 5.83141 10.7079 5.82807C10.6888 5.82807 10.6685 5.82807 10.6494 5.82807C8.97643 5.82807 7.30348 5.82807 5.6294 5.82807C5.58552 5.82807 5.54052 5.82472 5.49664 5.8303C5.32676 5.85483 5.23563 6.04103 5.32226 6.18598C5.37851 6.28076 5.46739 6.30305 5.57427 6.30305C6.42593 6.30083 7.2776 6.30194 8.12814 6.30194ZM8.13714 7.56411C8.2654 7.56411 8.39253 7.56411 8.52079 7.56411C9.24419 7.56411 9.9676 7.56411 10.691 7.56411C10.8665 7.56411 10.9655 7.49387 10.9858 7.3623C11.0094 7.20508 10.8845 7.08913 10.6854 7.08913C8.98768 7.08913 7.28998 7.08913 5.59227 7.08913C5.56302 7.08913 5.53264 7.08578 5.50339 7.09135C5.37738 7.11477 5.30201 7.19282 5.28851 7.3177C5.27388 7.46153 5.39089 7.56411 5.56752 7.56411C6.42481 7.56523 7.28098 7.56411 8.13714 7.56411ZM8.13602 8.82628C8.96743 8.82628 9.79885 8.82628 10.6303 8.82628C10.6798 8.82628 10.7293 8.82628 10.7776 8.82182C10.898 8.81067 10.9644 8.73374 10.9824 8.62447C11.0004 8.51186 10.9464 8.42712 10.8429 8.37583C10.7731 8.34126 10.6989 8.34907 10.6258 8.34907C8.96743 8.34907 7.3091 8.34907 5.6519 8.34907C5.60802 8.34907 5.56302 8.34572 5.51914 8.3513C5.42126 8.36579 5.34476 8.41039 5.30763 8.50851C5.24013 8.68579 5.35826 8.82517 5.58327 8.82628C6.43381 8.82628 7.28548 8.82628 8.13602 8.82628Z" fill="#283942"/>
<path d="M2.47495 0C2.54695 0.0234149 2.62008 0.0457147 2.69096 0.0713595C3.19498 0.253103 3.528 0.711365 3.53025 1.26217C3.537 2.395 3.5325 3.52672 3.53137 4.65956C3.53137 4.8636 3.44024 4.94945 3.22986 4.94945C2.5852 4.95057 1.93942 4.95057 1.29476 4.94945C1.08663 4.94945 1 4.86248 1 4.6551C1 3.53676 1 2.41842 1.00113 1.3012C1.00225 0.667881 1.36677 0.199584 1.98667 0.0301048C2.0058 0.0245298 2.0238 0.0211849 2.03167 0C2.17906 0 2.32756 0 2.47495 0Z" fill="#283942"/>
<path d="M8.13109 14.9976C6.48063 14.9976 4.8313 14.9965 3.18085 14.9988C2.98734 14.9988 2.81633 14.943 2.65432 14.8415C2.55194 14.7769 2.54069 14.7334 2.63407 14.6397C3.43398 13.8514 4.22827 13.0587 5.02481 12.267C5.66834 11.627 6.31075 10.9881 6.95428 10.3481C7.66419 9.64233 8.60811 9.64121 9.32027 10.3481C10.7603 11.7787 12.1993 13.2114 13.6416 14.6397C13.735 14.7323 13.7249 14.7746 13.6213 14.8404C13.4548 14.9452 13.2793 14.9988 13.0802 14.9988C11.4309 14.9976 9.78042 14.9976 8.13109 14.9976Z" fill="#283942"/>
<path d="M2.31148 14.2866C2.23948 14.0358 2.2676 7.03807 2.33961 6.88086C2.38461 6.8842 2.40374 6.92323 2.43074 6.94887C3.61317 8.12296 4.79335 9.29816 5.97578 10.4711C6.03541 10.5302 6.06241 10.5637 5.98591 10.6406C4.7776 11.837 3.57267 13.0367 2.36661 14.2354C2.34973 14.2532 2.33286 14.2677 2.31148 14.2866Z" fill="#283942"/>
<path d="M10.2148 10.5562C11.4614 9.33414 12.7057 8.11322 13.95 6.89453C13.9871 6.97258 13.9995 7.07293 13.9995 7.17439C13.9995 9.48689 13.9995 11.8005 13.9995 14.113C13.9995 14.1654 14.0085 14.2212 13.9838 14.2557C12.7305 13.0259 11.4772 11.7949 10.2148 10.5562Z" fill="#283942"/>
<path d="M3.52519 5.56641C3.52519 6.18077 3.52519 6.75387 3.52519 7.32586C3.51506 7.33367 3.50606 7.34259 3.49594 7.35039C3.41718 7.26677 3.3418 7.18092 3.2608 7.09952C3.07066 6.90886 2.87828 6.72042 2.68815 6.52865C2.6634 6.503 2.60489 6.4807 2.65889 6.42607C2.94128 6.14843 3.2203 5.86968 3.52519 5.56641Z" fill="#283942"/>
<path d="M12.7617 5.58203C13.0554 5.87304 13.3355 6.15068 13.6168 6.4272C13.6528 6.46176 13.6381 6.48295 13.6111 6.50971C13.3344 6.78288 13.0576 7.05717 12.7628 7.34929C12.7617 6.75277 12.7617 6.1819 12.7617 5.58203Z" fill="#283942"/>
</svg>
