<svg width="15" height="15" viewBox="0 0 15 15" fill="none" xmlns="http://www.w3.org/2000/svg">
<mask id="mask0_554_2" style="mask-type:luminance" maskUnits="userSpaceOnUse" x="0" y="0" width="14" height="15">
<path d="M14 0H0V14.8114H14V0Z" fill="white"/>
</mask>
<g mask="url(#mask0_554_2)">
<path d="M5.45591 4.00316C4.0621 4.00316 2.66944 4.01373 1.27677 3.99494C0.935198 3.99025 0.814845 4.07242 0.81943 4.44573C0.83777 6.32166 0.820573 8.19876 0.829743 10.0747C0.833185 10.9082 1.33409 11.4047 2.16166 11.4106C3.42136 11.42 4.68221 11.4447 5.93963 11.3989C6.4382 11.3813 6.45313 11.6501 6.4669 11.9941C6.48522 12.4636 6.12758 12.2535 5.94651 12.2558C4.6868 12.2746 3.42709 12.2735 2.16739 12.2629C0.8286 12.2512 0.00560893 11.3918 0.00217025 10.0148C-0.00126842 7.74678 -0.000122199 5.47996 0.00217025 3.21193C0.00217025 2.25636 0.429712 1.57665 1.27907 1.17517C1.65617 0.996733 1.90949 0.946255 1.88427 1.54261C1.8602 2.10375 2.12727 2.52166 2.70955 2.64258C3.20128 2.74354 3.55547 2.5381 3.80879 2.10727C3.93487 1.89127 3.93831 1.65766 3.91883 1.42522C3.89017 1.08713 4.02542 0.986167 4.34636 0.996733C5.05244 1.01787 5.75966 1.03078 6.46457 0.993211C6.92768 0.968557 7.10192 1.09065 7.08127 1.60013C7.05607 2.19179 7.41138 2.57684 7.94898 2.65784C8.44528 2.73297 8.80747 2.50523 9.01152 2.05444C9.09633 1.86779 9.13069 1.633 9.11354 1.42756C9.07685 1.00965 9.28889 1.02608 9.56399 1.10591C10.3377 1.33248 10.975 2.15775 10.9933 3.03585C11.0185 4.24734 10.9887 5.46 11.0117 6.67152C11.0197 7.07178 10.8053 7.02834 10.544 7.05066C10.2196 7.07886 10.1623 6.94152 10.168 6.65034C10.183 5.90844 10.1566 5.16417 10.1795 4.42225C10.1899 4.08064 10.0741 3.99377 9.75311 3.99729C8.32149 4.01373 6.88982 4.00434 5.45935 4.00316H5.45591Z" fill="#283942"/>
<path d="M14.0006 11.327C14.0006 13.2464 12.4589 14.8136 10.5757 14.8112C8.67868 14.8089 7.1129 13.1924 7.13699 11.2636C7.16108 9.34775 8.72908 7.75943 10.5802 7.77353C12.4956 7.78763 14.0006 9.35129 13.9994 11.327H14.0006ZM13.1719 11.2813C13.1639 9.82907 12.0085 8.64929 10.5802 8.63405C9.15089 8.61995 7.97717 9.84785 7.99782 11.3364C8.01847 12.7756 9.15894 13.946 10.5505 13.9578C11.9867 13.9695 13.181 12.7498 13.1719 11.2813Z" fill="#283942"/>
<path d="M3.31611 1.04851C3.31611 1.26099 3.33789 1.47699 3.31038 1.68712C3.27715 1.93482 3.10177 2.05222 2.86336 2.03226C2.64901 2.01348 2.51261 1.882 2.50917 1.65543C2.50115 1.2293 2.50229 0.803157 2.51261 0.377024C2.51834 0.151631 2.65016 0.023673 2.86909 0.00254229C3.12011 -0.0209362 3.27829 0.119935 3.31268 0.353546C3.34706 0.580114 3.31955 0.817245 3.31955 1.04969H3.31611V1.04851Z" fill="#283942"/>
<path d="M8.49552 1.05574C8.49552 1.24944 8.50007 1.44431 8.49435 1.63801C8.48636 1.89745 8.3316 2.02893 8.09547 2.03597C7.85362 2.04302 7.69315 1.8998 7.68165 1.65092C7.6645 1.24357 7.6645 0.835041 7.67594 0.427692C7.68399 0.15534 7.83297 -0.00900939 8.11035 0.000382043C8.35908 0.00859954 8.48403 0.168253 8.49435 0.414778C8.50351 0.628431 8.49663 0.842085 8.49552 1.05574Z" fill="#283942"/>
<path d="M6.53979 5.06821C6.97653 4.952 7.07739 5.13748 7.07622 5.54131C7.07505 5.96275 7.004 6.1365 6.52491 6.14472C6.01595 6.15408 6.00563 5.924 5.98959 5.53074C5.9701 5.05413 6.16954 4.95434 6.53979 5.06821Z" fill="#283942"/>
<path d="M4.96942 5.64883C5.08978 6.11602 4.79978 6.11488 4.4284 6.13834C3.96189 6.16768 3.93209 5.9517 3.90228 5.55726C3.85873 4.98086 4.19228 5.0783 4.53615 5.03839C5.04048 4.97969 4.99006 5.29195 4.96827 5.64883H4.96942Z" fill="#283942"/>
<path d="M9.12876 5.59385C9.25487 6.12796 8.93165 6.11392 8.54992 6.13858C8.09031 6.16792 8.10407 5.92959 8.07193 5.57976C8.02381 5.04915 8.29547 5.05619 8.67487 5.03858C9.11161 5.01862 9.21357 5.20175 9.12876 5.59385Z" fill="#283942"/>
<path d="M4.43647 7.18275C4.85255 7.08885 5.00844 7.23207 4.99124 7.68987C4.97634 8.08551 4.94196 8.28855 4.47201 8.26155C4.07999 8.23929 3.88514 8.19351 3.90806 7.72155C3.92755 7.32477 3.96308 7.05597 4.43647 7.18155V7.18275Z" fill="#283942"/>
<path d="M6.01374 7.70529C5.90145 7.23801 6.1192 7.16289 6.53069 7.15467C6.96282 7.14645 7.07056 7.27323 7.07517 7.70877C7.07972 8.15607 6.95366 8.26641 6.52841 8.26053C6.11005 8.25585 5.90372 8.16543 6.01374 7.70529Z" fill="#283942"/>
<path d="M4.96828 9.87323C5.10468 10.4038 4.75852 10.338 4.4181 10.3745C3.93095 10.4261 3.93438 10.1702 3.90917 9.79223C3.87593 9.28739 4.13039 9.29915 4.49145 9.27449C4.97287 9.24161 5.03362 9.48113 4.96828 9.87323Z" fill="#283942"/>
<path d="M2.42019 7.18276C2.93714 7.036 2.87639 7.38586 2.91192 7.7392C2.96235 8.24044 2.71477 8.23342 2.34568 8.25922C1.85969 8.2933 1.85625 8.05144 1.83447 7.6723C1.80581 7.17922 2.03162 7.11112 2.42019 7.18276Z" fill="#283942"/>
<path d="M1.86595 9.79872C1.72381 9.21408 2.1078 9.32448 2.42874 9.28104C2.94913 9.2106 2.87118 9.54162 2.9113 9.87852C2.97434 10.4138 2.66028 10.3411 2.32787 10.3727C1.83499 10.4197 1.77883 10.1662 1.86595 9.79752V9.79872Z" fill="#283942"/>
<path d="M11.881 12.1918L10.8929 11.2761V9.94838C10.8929 9.71948 10.7118 9.53516 10.4894 9.53516C10.2659 9.53516 10.0859 9.72068 10.0859 9.94838V11.458C10.0859 11.5825 10.1409 11.694 10.2269 11.7691C10.2338 11.7774 10.2395 11.7856 10.2476 11.7927L11.3399 12.8046C11.505 12.9583 11.7606 12.9442 11.9107 12.7752C12.0609 12.6061 12.0472 12.3444 11.8821 12.1906L11.881 12.1918Z" fill="#283942"/>
</g>
</svg>
