<svg width="15" height="15" viewBox="0 0 15 15" fill="none" xmlns="http://www.w3.org/2000/svg">
<path d="M5.09704 2.37109C5.09704 2.97765 5.09704 3.5597 5.09704 4.14139C5.09704 4.71363 5.36878 4.97838 5.9581 4.98014C6.06723 4.98049 6.17636 4.98154 6.2855 4.98014C6.71657 4.97418 7.02979 4.67756 7.0327 4.26291C7.0367 3.69102 7.03342 3.11949 7.03415 2.5476C7.03415 2.35779 7.03561 2.35639 7.20258 2.44394C7.81336 2.76368 8.10657 3.29634 8.25899 3.91936C8.34993 4.29023 8.37976 4.66775 8.36558 5.04843C8.35685 5.28131 8.30592 5.33384 8.07601 5.40949C7.78571 5.5051 7.48814 5.48163 7.19349 5.46587C6.36953 5.4221 5.5463 5.43575 4.72271 5.47498C4.48625 5.48618 4.25125 5.47533 4.02316 5.40073C3.87001 5.35065 3.78198 5.26836 3.77689 5.09921C3.75652 4.43276 3.81909 3.78243 4.16176 3.18532C4.37094 2.81936 4.66741 2.54234 5.09704 2.37109Z" fill="#1E333E"/>
<path d="M6.15986 6.53886C5.40975 6.53501 4.75604 6.51085 4.12707 6.30843C3.6869 6.16659 3.3082 5.95262 3.17979 5.47808C3.15615 5.39053 3.13614 5.30123 3.23108 5.2417C3.31548 5.18881 3.39442 5.12998 3.42716 5.30193C3.46172 5.48124 3.58686 5.60941 3.76402 5.68821C4.06923 5.82409 4.39226 5.85771 4.72148 5.8409C5.61783 5.79502 6.51381 5.79607 7.4098 5.8388C7.73356 5.85421 8.05004 5.82409 8.35089 5.69591C8.52768 5.62062 8.63973 5.49384 8.7063 5.32014C8.72376 5.27496 8.68665 5.16605 8.80488 5.19582C8.90674 5.22138 8.9835 5.28232 8.96749 5.39474C8.94857 5.52816 8.89837 5.65284 8.82198 5.76771C8.62408 6.06538 8.31815 6.21072 7.98565 6.31508C7.36105 6.51085 6.71425 6.53466 6.15986 6.53886Z" fill="#1E333E"/>
<path d="M6.66017 3.31849C6.66017 3.62142 6.66163 3.92435 6.65981 4.22727C6.65836 4.47732 6.51976 4.61355 6.25784 4.62126C6.12469 4.62511 5.99155 4.62651 5.85841 4.62161C5.62887 4.6132 5.47717 4.48258 5.47462 4.26124C5.46698 3.62632 5.46698 2.99104 5.47353 2.35612C5.47572 2.13584 5.62741 2.00836 5.86023 2.00241C5.99919 1.99891 6.13852 1.99961 6.27784 2.00206C6.51976 2.00661 6.65617 2.13724 6.65908 2.37433C6.66272 2.68952 6.66017 3.004 6.66017 3.31849Z" fill="#1E333E"/>
<path d="M11.244 7.09823C10.9413 7.09823 10.639 7.10068 10.3363 7.09753C10.1064 7.09508 10.0097 6.99842 10.0064 6.77464C10.0046 6.65802 10.0017 6.5414 10.0068 6.42513C10.0148 6.24828 10.1206 6.13971 10.304 6.13831C10.9333 6.13376 11.5626 6.13341 12.1916 6.13831C12.3746 6.13971 12.4732 6.24723 12.4797 6.42898C12.4841 6.55121 12.4841 6.67378 12.4815 6.796C12.4775 6.99737 12.3793 7.09578 12.1694 7.09823C11.8609 7.10208 11.5521 7.09928 11.2436 7.09928C11.244 7.09893 11.244 7.09858 11.244 7.09823Z" fill="#1C333E"/>
<path d="M8.36517 12.2243C8.3739 11.6297 8.36517 11.0347 8.37026 10.44C8.37099 10.3458 8.34189 10.2923 8.25713 10.2478C8.10871 10.17 7.96829 10.0786 7.86279 9.94695C7.67654 9.79076 7.57504 9.59114 7.53794 9.3586C7.53176 9.30747 7.52884 9.25564 7.5183 9.20521C7.50011 9.11906 7.45973 9.19471 7.42953 9.19611C7.41389 9.22412 7.39825 9.25179 7.38261 9.27981C7.35678 9.30362 7.33095 9.32743 7.30476 9.35125C7.26474 9.37997 7.21709 9.40168 7.19708 9.45071C7.17525 9.46472 7.15379 9.47907 7.13196 9.49308C7.04793 9.54351 6.9639 9.59394 6.87987 9.64437C6.78819 9.66293 6.7038 9.69865 6.62377 9.74383C6.24835 9.84154 5.87257 9.84294 5.49678 9.74488C5.48842 9.73648 5.47932 9.73508 5.46841 9.74033C5.33236 9.67099 5.1963 9.60165 5.06025 9.53231C5.03406 9.49413 4.9955 9.47487 4.95112 9.46402C4.9111 9.41884 4.87072 9.37366 4.83071 9.32849C4.7725 9.29311 4.72703 9.24689 4.69356 9.1891C4.64518 9.15934 4.62445 9.16739 4.61571 9.22693C4.59898 9.34144 4.57243 9.45456 4.54987 9.56803C4.53823 9.59149 4.52695 9.61495 4.51531 9.63842C4.48985 9.685 4.46438 9.73122 4.43928 9.7778C4.41782 9.80197 4.39636 9.82578 4.37489 9.84994C4.33706 9.88531 4.29923 9.92069 4.26103 9.95571C4.05804 10.1935 3.77248 10.3115 3.49492 10.4376C2.62112 10.834 1.71423 11.159 0.843707 11.5632C0.441733 11.7495 0.168899 12.0447 0.0328467 12.4555C-0.0748315 12.7819 0.0874133 12.9962 0.443551 12.9962C3.11477 12.9966 5.78562 12.9969 8.45684 12.9955C8.49286 12.9955 8.54124 13.0211 8.57252 12.9626C8.40009 12.7462 8.36117 12.4944 8.36517 12.2243ZM5.09663 9.68535C5.08462 9.66994 5.07262 9.65418 5.06061 9.63877C5.07226 9.65418 5.08426 9.66959 5.09663 9.68535C5.10645 9.70461 5.11627 9.72387 5.12573 9.74313C5.11591 9.72387 5.10609 9.70461 5.09663 9.68535ZM5.17193 9.77115C5.18721 9.7799 5.20285 9.78796 5.21813 9.79496C5.20285 9.78796 5.18757 9.7799 5.17193 9.77115Z" fill="#1E333E"/>
<path d="M3.98117 7.26633C4.18016 7.32902 4.19871 7.46525 4.2249 7.62004C4.30566 8.09597 4.46718 8.53338 4.86988 8.85522C4.91935 8.8948 4.97319 8.93787 4.98884 9.00546C5.00084 9.01036 5.01248 9.01036 5.02412 9.00511C5.04813 9.02963 5.07214 9.05414 5.09651 9.0783C5.12198 9.11683 5.15545 9.14589 5.20201 9.15885C5.21401 9.14379 5.22602 9.12873 5.23802 9.11403C5.22602 9.12909 5.21401 9.14414 5.20201 9.15885C5.31223 9.27267 5.4552 9.33045 5.60398 9.37913C5.62872 9.38369 5.65382 9.38859 5.67856 9.39314C5.71021 9.41731 5.74586 9.42816 5.78624 9.42221C5.81061 9.42501 5.83535 9.42746 5.85972 9.43026C5.92884 9.46388 6.00268 9.45863 6.07653 9.45408C6.10236 9.45233 6.12782 9.45092 6.15365 9.44917C6.20531 9.46598 6.25151 9.44987 6.29662 9.42711C6.33918 9.42641 6.38501 9.44357 6.4203 9.4047C6.52179 9.39349 6.61638 9.36583 6.69604 9.30139C6.69604 9.30139 6.69641 9.30209 6.69641 9.30174C6.88339 9.24535 7.01653 9.12033 7.13621 8.97885C7.18205 8.95153 7.21952 8.91651 7.24389 8.86958C7.25408 8.86573 7.26463 8.86293 7.27518 8.86118C7.54765 8.59047 7.78119 8.29909 7.8474 7.91212C7.87396 7.75732 7.90924 7.60323 7.94962 7.45124C7.96126 7.40782 7.94489 7.34933 8.0191 7.32447C8.41417 7.19069 8.42799 6.83803 8.53203 6.53615C6.87575 7.04535 5.24457 7.0471 3.59375 6.53125C3.63777 6.66433 3.67706 6.80371 3.73053 6.93749C3.78255 7.06812 3.84403 7.22326 3.98117 7.26633ZM6.62402 9.148C6.64257 9.155 6.65676 9.16446 6.66694 9.17531C6.65676 9.16446 6.64257 9.15535 6.62402 9.148ZM5.6058 9.17566C5.59635 9.16656 5.58652 9.15745 5.57706 9.14835C5.58652 9.15745 5.59598 9.16656 5.6058 9.17566C5.65528 9.22014 5.67419 9.27442 5.67856 9.33291C5.67383 9.27442 5.65528 9.22049 5.6058 9.17566Z" fill="#1E333E"/>
<path d="M14.7264 11.0046C14.5285 10.9938 14.4252 10.894 14.3677 10.7192C14.3146 10.5574 14.4445 10.4713 14.5129 10.3644C14.594 10.2384 14.5827 10.1459 14.4754 10.0416C14.3605 9.92984 14.2568 9.92389 14.1251 10.0135C13.9916 10.1046 13.8708 10.2125 13.6693 10.1074C13.5292 10.0346 13.5078 9.93474 13.4798 9.81707C13.4088 9.51695 13.295 9.46161 12.9912 9.57823C12.9614 9.67979 12.9319 9.7817 12.9021 9.88326C12.8915 9.98937 12.8341 10.0419 12.7344 10.1014C12.5361 10.2198 12.4135 10.1011 12.2789 10.0139C12.1494 9.92984 12.0476 9.92073 11.9283 10.036C11.8126 10.1477 11.8049 10.2426 11.8944 10.3722C11.9664 10.4765 12.0825 10.5634 12.0276 10.7294C11.9661 10.9157 11.8417 10.9808 11.658 11.0043C11.4277 11.0337 11.3837 11.1034 11.4022 11.3202C11.4153 11.4757 11.5248 11.5068 11.65 11.5229C11.8275 11.5457 11.9617 11.5979 12.0232 11.7912C12.0763 11.9572 11.9734 12.0461 11.897 12.1495C11.7977 12.2836 11.81 12.3834 11.933 12.4993C12.0574 12.6166 12.1651 12.5995 12.2833 12.5081C12.4281 12.3963 12.5678 12.341 12.7577 12.4384C12.9305 12.5266 12.9039 12.6832 12.9385 12.8141C12.9737 12.9479 13.0418 12.992 13.1767 12.9987C13.3572 13.0075 13.4467 12.9406 13.4645 12.7655C13.4816 12.5981 13.5354 12.4639 13.7359 12.3988C13.9101 12.3421 13.9974 12.4464 14.1084 12.5133C14.2255 12.5841 14.323 12.6264 14.4467 12.5147C14.5747 12.3991 14.6038 12.2983 14.494 12.1537C14.4016 12.0321 14.307 11.9169 14.3972 11.7289C14.4845 11.5467 14.6377 11.5544 14.7821 11.5236C14.9287 11.4925 14.9894 11.4277 14.9967 11.2753C15.0076 11.0736 14.8941 11.0141 14.7264 11.0046ZM13.2106 11.8707C12.869 11.8777 12.5827 11.6098 12.5801 11.2806C12.5772 10.936 12.8555 10.6555 13.1975 10.6583C13.5387 10.6611 13.8203 10.9311 13.8235 11.2585C13.8268 11.5888 13.5514 11.8637 13.2106 11.8707Z" fill="#1E333E"/>
<path d="M11.7536 12.8296C11.4553 12.5999 11.3461 12.3236 11.5608 11.9705C11.3643 11.9705 11.1948 11.9747 11.0256 11.9691C10.9183 11.9656 10.8368 11.9128 10.8274 11.8017C10.8179 11.6932 10.8783 11.627 10.99 11.6056C11.0187 11.6 11.0475 11.5958 11.082 11.5902C11.0078 11.3787 10.9874 11.1724 11.078 10.9711C11.1766 10.7522 11.3821 10.6755 11.5968 10.6415C11.5404 10.354 11.3752 10.2307 11.0802 10.2899C11.0413 10.2976 10.9958 10.2857 10.9558 10.2745C10.8605 10.2479 10.8201 10.1775 10.8259 10.0878C10.8314 10.0034 10.887 9.94635 10.9718 9.93059C11.0362 9.91868 11.1057 9.91518 11.1708 9.92428C11.4094 9.9579 11.6095 9.90502 11.7506 9.70435C11.7623 9.7047 11.7739 9.7033 11.7848 9.69945C11.7863 9.74708 11.8081 9.77685 11.8609 9.7793C11.8932 9.83953 11.9431 9.87175 12.0046 9.82623C12.0853 9.76634 12.1701 9.7765 12.2607 9.78665C12.237 9.84444 12.1508 9.78245 12.1341 9.86475C12.3029 9.91938 12.4018 9.86125 12.4462 9.7005C12.4811 9.71486 12.5157 9.72922 12.5506 9.74358C12.5968 9.65042 12.5681 9.53205 12.655 9.45221C12.7183 9.30512 12.842 9.21652 12.9944 9.1927C13.2654 9.14998 13.5357 9.14893 13.7514 9.41964C13.7514 8.68455 13.7511 7.99745 13.7514 7.31034C13.7518 6.87328 13.487 6.62428 13.0282 6.61763C12.906 6.61588 12.8645 6.63794 12.8649 6.76752C12.866 7.20843 12.5848 7.46548 12.1242 7.46548C11.5669 7.46548 11.0096 7.46548 10.4523 7.46548C10.4098 7.46548 10.3676 7.46583 10.325 7.46548C9.90775 7.46128 9.63964 7.19932 9.62946 6.79519C9.628 6.73355 9.68621 6.63899 9.5527 6.61763C9.11399 6.54759 8.74293 6.84562 8.73784 7.27672C8.73602 7.42241 8.73311 7.56774 8.73093 7.71343C8.73529 8.01636 8.73966 8.31894 8.74439 8.62186C8.73129 8.71642 8.7262 8.81098 8.7422 8.90588C8.7422 8.95141 8.74257 8.99694 8.74257 9.04246C8.74221 9.17204 8.74148 9.30162 8.74111 9.43084C8.73929 9.52295 8.72438 9.61575 8.75239 9.70681C8.74366 9.71941 8.73529 9.73202 8.72656 9.74463C8.73166 9.75689 8.73675 9.76879 8.74184 9.78105C8.74039 10.6152 8.73929 11.4494 8.73711 12.2833C8.73602 12.7403 9.00158 12.9974 9.47885 12.9977C10.4545 12.9981 11.4302 12.9977 12.4054 12.9974C12.6135 12.9974 12.6135 12.9967 12.5306 12.7869C12.2818 12.9704 12.0227 13.0366 11.7536 12.8296ZM9.35008 8.19952C9.41119 8.20022 9.47231 8.20127 9.53342 8.20197C9.5396 8.20932 9.54797 8.21282 9.55779 8.21177C9.59526 8.24784 9.6331 8.28392 9.67056 8.31999C9.76442 8.4345 9.76442 8.4345 9.87246 8.24189C9.90484 8.19391 9.93721 8.14628 9.96923 8.09831C9.97723 8.0892 9.98123 8.07869 9.9805 8.06644C10.0132 8.03037 10.046 7.99429 10.0787 7.95822C10.1689 7.9141 10.2544 7.91375 10.3239 7.99219C10.3981 8.07659 10.3763 8.16309 10.3203 8.24889C10.2082 8.42085 10.0922 8.59035 9.98923 8.7672C9.91648 8.89187 9.82299 8.94441 9.67857 8.90168C9.66693 8.88942 9.65529 8.87717 9.64401 8.86491C9.54761 8.75599 9.45666 8.64218 9.35408 8.53922C9.23731 8.42295 9.22203 8.31438 9.35008 8.19952ZM10.2628 8.97627C10.2628 8.97627 10.2624 8.97592 10.2617 8.97522L10.2628 8.97627ZM9.31734 9.91973C9.41592 9.83113 9.51596 9.8602 9.60618 9.94285C9.77351 10.0959 9.77351 10.0959 9.89574 9.90222C9.96086 9.79856 10.0129 9.68544 10.1187 9.61085C10.142 9.60805 10.1653 9.6049 10.1886 9.60209C10.209 9.60595 10.2293 9.60945 10.2493 9.6133C10.2617 9.63992 10.2857 9.64587 10.3126 9.64692C10.385 9.73552 10.3879 9.82693 10.3268 9.92218C10.2057 10.1102 10.0885 10.3008 9.96377 10.4867C9.86919 10.6271 9.74041 10.6349 9.62109 10.5105C9.51851 10.4037 9.41992 10.2934 9.32061 10.1838C9.24167 10.0969 9.2253 10.0024 9.31734 9.91973ZM9.09689 9.53345C9.11835 9.5338 9.13327 9.52855 9.14418 9.52015C9.13363 9.52855 9.11871 9.5338 9.09689 9.53345ZM9.24167 9.67459C9.13363 9.73832 9.02231 9.75934 8.90881 9.74568C9.02231 9.75934 9.13363 9.73797 9.24167 9.67459ZM9.2344 9.70015C9.2344 9.7005 9.23403 9.7005 9.23403 9.70085C9.23403 9.70085 9.23403 9.7005 9.2344 9.70015ZM8.9994 9.81432C8.99139 9.81397 8.98303 9.81397 8.97502 9.81362C8.98303 9.81362 8.99103 9.81397 8.9994 9.81432ZM8.80114 9.72257C8.79532 9.72081 8.78986 9.71941 8.78404 9.71731C8.78986 9.71941 8.79532 9.72116 8.80114 9.72257ZM8.90772 9.74568C8.8979 9.74463 8.88772 9.74288 8.87753 9.74113C8.88772 9.74288 8.8979 9.74428 8.90772 9.74568ZM8.87426 9.74043C8.86516 9.73867 8.85607 9.73692 8.84697 9.73482C8.8557 9.73692 8.8648 9.73867 8.87426 9.74043ZM10.3541 11.5433C10.2206 11.7706 10.0736 11.9905 9.92921 12.2118C9.89829 12.2595 9.84445 12.2749 9.73313 12.2728C9.7375 12.2728 9.68912 12.2647 9.65492 12.2272C9.53451 12.097 9.41156 11.9688 9.29769 11.8333C9.22494 11.7468 9.24567 11.6522 9.33116 11.586C9.41847 11.5188 9.51123 11.5373 9.59381 11.6077C9.77679 11.7646 9.77606 11.7639 9.91029 11.5541C9.95431 11.4852 9.99687 11.4137 10.0511 11.3524C10.1118 11.2838 10.1922 11.2642 10.2784 11.3167C10.3687 11.3724 10.4036 11.4592 10.3541 11.5433ZM11.7161 9.11461C11.7161 9.11461 11.7157 9.11426 11.7154 9.11391C11.7157 9.11426 11.7157 9.11461 11.7161 9.11461ZM11.9067 9.72712C11.906 9.72677 11.9049 9.72642 11.9042 9.72607C11.9049 9.72642 11.9056 9.72677 11.9067 9.72712ZM11.8911 9.72677C11.8874 9.72747 11.8842 9.72852 11.8812 9.72992C11.8838 9.72852 11.8871 9.72747 11.8911 9.72677ZM11.8798 9.73097C11.8776 9.73237 11.8758 9.73342 11.874 9.73517C11.8758 9.73377 11.8776 9.73237 11.8798 9.73097ZM11.8605 9.77895C11.8612 9.77405 11.862 9.76949 11.8627 9.76459C11.8623 9.76949 11.8616 9.7744 11.8605 9.77895C11.87 9.7772 11.8801 9.77615 11.8892 9.77405C11.8801 9.7765 11.87 9.7772 11.8605 9.77895ZM11.8725 9.73762C11.8714 9.73902 11.8703 9.74043 11.8692 9.74218C11.87 9.74078 11.8714 9.73938 11.8725 9.73762ZM11.8671 9.74743C11.8667 9.74848 11.866 9.74953 11.8656 9.75058C11.8663 9.74953 11.8667 9.74848 11.8671 9.74743ZM11.8645 9.75654C11.8641 9.75759 11.8638 9.75864 11.8638 9.75969C11.8641 9.75864 11.8641 9.75759 11.8645 9.75654ZM11.9038 9.76739C11.8998 9.77019 11.8951 9.77229 11.89 9.77405C11.8954 9.77229 11.8998 9.77019 11.9038 9.76739ZM11.9216 9.40563C11.9278 9.41929 11.9347 9.43294 11.942 9.44625C11.9347 9.43294 11.9282 9.41929 11.9216 9.40563ZM11.8983 9.22002C11.882 9.2806 11.8922 9.33349 11.9125 9.38392C11.8922 9.33384 11.882 9.2806 11.8983 9.22002ZM12.0413 9.14753C12.0413 9.14753 12.0424 9.14893 12.0431 9.14963L12.0413 9.14753ZM12.0417 8.8425C11.8987 8.87051 11.7677 8.96542 11.7146 9.11321C11.687 9.13492 11.671 9.16083 11.6604 9.1892C11.6706 9.16083 11.687 9.13492 11.7146 9.11321C11.7677 8.96542 11.8987 8.87051 12.0417 8.8425C12.0635 8.83829 12.086 8.83549 12.1082 8.83444C12.0857 8.83549 12.0635 8.83829 12.0417 8.8425ZM11.0718 8.23979C11.38 8.24364 11.6881 8.24084 11.9962 8.24084C12.3043 8.24049 12.6124 8.24119 12.9206 8.24014C13.0573 8.23979 13.169 8.27901 13.1668 8.42995C13.1646 8.56898 13.0581 8.61206 12.9296 8.61206C12.3072 8.61241 11.6848 8.61171 11.0627 8.61206C10.9311 8.61206 10.8259 8.56373 10.8248 8.42925C10.8234 8.28427 10.9303 8.23804 11.0718 8.23979Z" fill="#1E333E"/>
</svg>
