<svg width="15" height="15" viewBox="0 0 15 15" fill="none" xmlns="http://www.w3.org/2000/svg">
<path d="M7.66117 8.2315C8.1299 8.3617 8.56478 8.58045 8.95019 8.87471L13.1558 7.47372C13.3745 7.4008 13.4917 7.16383 13.4188 6.94769L11.8459 2.22912C11.773 2.01038 11.536 1.8932 11.3199 1.96611L9.7288 2.49734L10.5907 5.08578L9.01008 5.6092L8.14813 3.02076L6.54403 3.55459C6.32528 3.62751 6.2081 3.86448 6.28101 4.08061L7.66117 8.2315ZM14.9786 9.49968L14.713 8.70804C14.6401 8.4893 14.4031 8.37212 14.187 8.44503L8.62728 10.2991C8.17938 9.72624 7.49191 9.35125 6.71329 9.33563L4.12485 1.57029C4.01027 1.22916 3.69257 1 3.33321 1H0.416651C0.187493 1 0 1.18749 0 1.41665V2.24995C0 2.47911 0.187493 2.6666 0.416651 2.6666H2.73167L5.13262 9.87206C4.45296 10.4033 4.04672 11.2678 4.19516 12.2287C4.354 13.2547 5.1821 14.1115 6.2081 14.2912C7.77575 14.5698 9.13247 13.385 9.16111 11.8798L14.7156 10.0257C14.9317 9.95279 15.0515 9.71842 14.9786 9.49968ZM6.66642 13.0829C5.97634 13.0829 5.41646 12.523 5.41646 11.8329C5.41646 11.1428 5.97634 10.583 6.66642 10.583C7.35649 10.583 7.91637 11.1428 7.91637 11.8329C7.91637 12.523 7.35649 13.0829 6.66642 13.0829Z" fill="#283942"/>
</svg>
