<svg width="15" height="15" viewBox="0 0 15 15" fill="none" xmlns="http://www.w3.org/2000/svg">
<path d="M7.01588 9.0923C8.91399 9.0923 10.8118 9.0909 12.7099 9.09314C13.4542 9.09398 14.0263 9.70507 13.9991 10.4615C13.9758 11.1134 13.4278 11.6744 12.7893 11.7002C12.7481 11.7018 12.7069 11.7018 12.6657 11.7018C8.88791 11.7018 5.11036 11.7021 1.33254 11.7018C0.728018 11.7018 0.229469 11.3427 0.0595346 10.7879C-0.199074 9.94302 0.416425 9.09454 1.29438 9.09342C3.20155 9.09062 5.10872 9.0923 7.01588 9.0923ZM6.99612 10.9231C7.28712 10.9231 7.52185 10.6851 7.51937 10.3929C7.5169 10.1054 7.28767 9.87387 7.00188 9.87079C6.70759 9.86743 6.47616 10.0975 6.47506 10.3943C6.47368 10.6916 6.70182 10.9231 6.99612 10.9231ZM11.3167 10.3976C11.317 10.1003 11.0875 9.86939 10.7932 9.87079C10.5076 9.87219 10.2768 10.1017 10.2718 10.3892C10.2666 10.6801 10.5019 10.9217 10.7918 10.9231C11.0869 10.9245 11.3164 10.6946 11.3167 10.3976ZM1.28696 10.9233C1.58071 10.9264 1.81379 10.6955 1.81516 10.4001C1.81654 10.1093 1.59334 9.87723 1.307 9.87079C1.01353 9.86436 0.775787 10.0931 0.77112 10.3867C0.766178 10.682 0.995137 10.9203 1.28696 10.9233ZM8.89478 10.9231C9.18825 10.9233 9.41831 10.6907 9.41748 10.3943C9.41666 10.104 9.19127 9.87415 8.90384 9.87051C8.61036 9.86659 8.37536 10.0978 8.37344 10.3923C8.37152 10.6879 8.60213 10.9228 8.89478 10.9231ZM3.7141 10.3999C3.71547 10.102 3.48706 9.87023 3.19304 9.87079C2.90258 9.87107 2.66621 10.1104 2.66895 10.401C2.6717 10.6874 2.90286 10.9205 3.18727 10.9233C3.48239 10.9259 3.71272 10.6969 3.7141 10.3999ZM12.6995 9.87079C12.4085 9.86939 12.1727 10.1057 12.1738 10.3979C12.1746 10.6854 12.403 10.9186 12.688 10.9231C12.9793 10.9275 13.2167 10.696 13.2214 10.4027C13.2258 10.1129 12.9894 9.87219 12.6995 9.87079ZM5.09444 10.9233C5.38462 10.9233 5.62072 10.6851 5.61879 10.3937C5.6166 10.1015 5.37995 9.86799 5.0884 9.87079C4.80289 9.87359 4.5742 10.1048 4.57146 10.3929C4.56844 10.6851 4.80344 10.9231 5.09444 10.9233Z" fill="#283942"/>
<path d="M3.21415 6.61489C2.94676 7.14396 2.68348 7.67528 2.41087 8.20183C2.18548 8.63713 1.62214 8.68584 1.34075 8.29673C1.18125 8.07614 1.17933 7.83988 1.30094 7.59942C1.65042 6.9091 1.99962 6.2185 2.3491 5.52818C2.41609 5.39577 2.48747 5.2656 2.54951 5.13096C2.90393 4.36282 3.53041 3.98267 4.32079 3.83486C5.16223 3.67754 5.94162 3.84858 6.67956 4.27912C7.23411 4.60272 7.79937 4.90701 8.35942 5.22053C8.40499 5.24601 8.45578 5.26084 8.45523 5.33727C8.45166 5.79328 8.45331 6.24901 8.45331 6.72798C8.12771 6.5463 7.81722 6.3733 7.50672 6.20002C7.19595 6.02675 6.88518 5.85319 6.55739 5.67039C6.55739 5.74233 6.55739 5.79244 6.55739 5.84227C6.55739 6.71398 6.55547 7.5857 6.55987 8.45769C6.56041 8.56239 6.53378 8.5901 6.43084 8.58954C5.41123 8.58562 4.39162 8.58506 3.37201 8.5901C3.2567 8.59066 3.23941 8.55007 3.24023 8.44706C3.24462 7.88299 3.24215 7.31892 3.24215 6.75485C3.24215 6.71006 3.24215 6.66528 3.24215 6.62049C3.23309 6.61853 3.22376 6.61657 3.21415 6.61489Z" fill="#283942"/>
<path d="M13.9618 13.7848C13.6428 13.9853 13.3408 14.1767 13.0369 14.3654C12.7407 14.5496 12.4431 14.7316 12.1446 14.9121C12.09 14.9451 12.0318 14.9779 11.9711 14.9925C11.8169 15.03 11.7098 14.8981 11.7526 14.7198C11.7817 14.5983 11.8199 14.4782 11.8638 14.3612C11.9121 14.2327 11.8696 14.2106 11.7458 14.2106C8.06456 14.2137 4.38337 14.2131 0.702452 14.2131C0.473767 14.2131 0.341718 14.1457 0.300813 13.9749C0.219277 13.6331 0.3085 13.3543 0.723316 13.3551C4.39078 13.3616 8.05824 13.3588 11.7254 13.3588C11.8992 13.3588 11.9014 13.3579 11.8578 13.1872C11.8336 13.0928 11.8012 13.0007 11.7707 12.9081C11.7356 12.802 11.7156 12.695 11.8108 12.6119C11.9044 12.5302 12.003 12.5733 12.0906 12.6267C12.5957 12.9355 13.0992 13.2471 13.6032 13.5584C13.7166 13.6286 13.8283 13.7006 13.9618 13.7848Z" fill="#283942"/>
<path d="M10.8254 8.56493C10.2425 8.56493 9.65972 8.56213 9.07689 8.56773C8.97256 8.56885 8.94868 8.54002 8.94923 8.43644C8.95335 7.50874 8.95362 6.58104 8.94923 5.65306C8.94868 5.54668 8.97751 5.52149 9.07936 5.52177C10.2403 5.52541 11.4016 5.52569 12.5626 5.52149C12.6738 5.52121 12.6977 5.55508 12.6971 5.66229C12.693 6.58552 12.6927 7.50846 12.6977 8.43168C12.6982 8.5445 12.6656 8.56857 12.5604 8.56773C11.9817 8.56213 11.4035 8.56493 10.8254 8.56493ZM10.8866 7.81359C10.774 7.78643 10.7502 7.83738 10.748 7.9446C10.7455 8.06077 10.7782 8.091 10.8915 8.09016C10.9986 8.08932 11.0277 8.05993 11.0258 7.95243C11.0236 7.84606 11.0118 7.77804 10.8866 7.81359ZM12.0893 7.81331C11.9943 7.79567 11.932 7.80659 11.943 7.9334C11.951 8.02466 11.9348 8.09968 12.0712 8.09044C12.1736 8.08344 12.2291 8.07673 12.2197 7.95048C12.2126 7.85502 12.2112 7.78196 12.0893 7.81331ZM11.4837 8.08288C11.5891 8.10808 11.6267 8.07253 11.6254 7.95635C11.624 7.84578 11.6048 7.80491 11.4845 7.80575C11.3668 7.80659 11.3437 7.84382 11.3431 7.95579C11.3423 8.07001 11.3769 8.10864 11.4837 8.08288Z" fill="#283942"/>
<path d="M3.31641 1.59255C3.31778 0.707954 4.01674 0 4.88892 0C5.76633 0 6.47407 0.719151 6.46693 1.60374C6.45979 2.48666 5.75672 3.19181 4.8848 3.19013C4.01427 3.18845 3.31531 2.4763 3.31641 1.59255Z" fill="#283942"/>
</svg>
