<svg width="15" height="15" viewBox="0 0 15 15" fill="none" xmlns="http://www.w3.org/2000/svg">
<path d="M6.23156 0C6.26096 0.285077 6.29036 0.570154 6.31976 0.854435C6.3244 0.899028 6.336 0.938844 6.26637 0.938844C5.94608 0.936455 5.62579 0.938047 5.30859 0.938047C5.31556 0.614748 5.39137 0.311355 5.37745 0C5.66215 0 5.94686 0 6.23156 0Z" fill="#283942"/>
<path d="M4.72266 2.50181C4.848 2.52491 4.96095 2.53924 5.07081 2.56711C5.13502 2.58383 5.15127 2.5687 5.15591 2.50261C5.16984 2.29876 5.19691 2.0949 5.20542 1.89025C5.20929 1.78673 5.23095 1.74771 5.34159 1.7501C5.65878 1.75886 5.97675 1.75727 6.29473 1.7509C6.39221 1.74931 6.4247 1.77877 6.43011 1.8791C6.44481 2.14666 6.47267 2.41343 6.49123 2.68098C6.4982 2.78769 6.52527 2.85776 6.64906 2.86812C6.78986 2.88006 6.93067 2.90713 7.0676 2.94217C7.14574 2.96208 7.1558 2.93262 7.15889 2.86812C7.16895 2.64913 7.1852 2.43015 7.19216 2.21037C7.19448 2.12516 7.2262 2.10764 7.30279 2.10924C7.52096 2.11401 7.73913 2.11322 7.9573 2.10924C8.02848 2.10764 8.05401 2.12596 8.05788 2.20479C8.07026 2.4827 8.09656 2.75982 8.10739 3.03693C8.11049 3.12134 8.14143 3.14045 8.21261 3.14762C8.63193 3.18982 9.05047 3.24158 9.46979 3.27901C9.78854 3.30768 9.78854 3.30051 9.78854 3.62938C9.78854 4.00524 9.78544 4.3811 9.79086 4.75695C9.79163 4.84534 9.77074 4.87321 9.681 4.87321C8.06407 4.87082 6.44713 4.87082 4.8302 4.87162C4.77295 4.87162 4.72189 4.88436 4.72266 4.7888C4.72421 4.03391 4.72266 3.27821 4.72266 2.50181Z" fill="#283942"/>
<path d="M3.59999 14.0337C3.48317 14.048 3.41432 13.9739 3.35861 13.8975C3.24179 13.739 3.12265 13.6952 2.93465 13.7956C2.73737 13.9007 2.72732 13.8808 2.72732 14.1165C2.72732 14.3848 2.66078 14.4533 2.40006 14.4533C2.28169 14.4533 2.16255 14.4565 2.04418 14.4525C1.89022 14.4469 1.77727 14.3593 1.80203 14.212C1.85386 13.9078 1.71693 13.7669 1.46085 13.6809C1.3858 13.6554 1.34635 13.653 1.29374 13.7135C0.994336 14.0599 0.916971 14.0106 0.630719 13.704C0.33209 13.3839 0.32358 13.36 0.634588 13.0526C0.719689 12.9682 0.710406 12.9061 0.684875 12.7962C0.62453 12.5342 0.493783 12.4363 0.233063 12.4777C0.0976735 12.4992 0.00947723 12.3909 0.00406167 12.2396C-0.00135389 12.0883 -0.00135389 11.937 0.00406167 11.7857C0.00947723 11.6288 0.0992208 11.5213 0.245441 11.5444C0.51854 11.5866 0.668628 11.4887 0.745994 11.2147C0.773845 11.1176 0.782355 11.069 0.710406 10.9973C0.413323 10.6979 0.419513 10.6685 0.711953 10.3563C1.01832 10.0298 1.08253 10.0075 1.38426 10.3515C1.45388 10.4312 1.50959 10.416 1.60165 10.393C1.84767 10.3324 1.9614 10.213 1.92194 9.93587C1.90028 9.78378 2.00937 9.69698 2.161 9.6938C2.308 9.69061 2.45499 9.69061 2.60198 9.6938C2.75517 9.69698 2.86193 9.78617 2.83795 9.93746C2.7923 10.2217 2.89984 10.3707 3.15824 10.4519C3.24566 10.4797 3.2944 10.4965 3.36094 10.4184C3.63171 10.1015 3.71836 10.1262 3.99301 10.4208C4.31485 10.7656 4.32259 10.7728 3.98682 11.1112C3.91719 11.1813 3.92648 11.2299 3.94736 11.3199C4.01003 11.5874 4.13768 11.7172 4.42239 11.6662C4.53998 11.6447 4.6305 11.7578 4.63514 11.8892C4.64056 12.0501 4.63978 12.2117 4.63514 12.3726C4.63127 12.5127 4.54308 12.6242 4.4131 12.6003C4.10441 12.543 3.96206 12.6935 3.87851 12.9706C3.85839 13.0375 3.85453 13.0717 3.90249 13.1163C3.96593 13.1752 4.02705 13.2366 4.08353 13.3019C4.16631 13.3974 4.18178 13.5081 4.09668 13.6052C3.97986 13.7398 3.8522 13.864 3.7261 13.9891C3.69129 14.0241 3.64564 14.0432 3.59999 14.0337ZM2.31341 13.0144C2.82712 13.0176 3.23947 12.6011 3.24257 12.0771C3.24566 11.5627 2.83563 11.1343 2.33662 11.1303C1.81595 11.1271 1.39818 11.5484 1.4005 12.0755C1.40128 12.5931 1.80822 13.0112 2.31341 13.0144Z" fill="#283942"/>
<path d="M13.9981 11.0527C13.9981 11.5608 13.9958 12.068 14.0004 12.576C14.0012 12.6828 13.9672 12.7465 13.879 12.7998C13.5556 12.9925 13.2268 13.1765 12.9189 13.3931C12.7061 13.542 12.4965 13.5635 12.2528 13.5316C11.5054 13.4361 10.7565 13.3564 10.0084 13.2704C9.76856 13.2426 9.52873 13.2115 9.2889 13.1852C9.16976 13.1725 9.16511 13.0913 9.16511 12.9965C9.16589 12.0784 9.16589 11.161 9.16589 10.2429C9.16589 10.1107 9.17053 9.9793 9.16434 9.84711C9.16047 9.75554 9.19683 9.70457 9.27652 9.66874C9.79564 9.43622 10.314 9.2021 10.8316 8.9656C10.8958 8.93614 10.9592 8.93056 11.025 8.93932C11.7004 9.0301 12.3765 9.12168 13.0519 9.21325C13.3049 9.24749 13.5579 9.2889 13.8117 9.31518C13.9324 9.32712 13.9765 9.37888 13.9757 9.49992C13.9726 10.0175 13.9741 10.5351 13.9741 11.0527C13.9819 11.0527 13.9896 11.0527 13.9981 11.0527ZM10.0463 11.4756C10.0463 11.4262 10.0448 11.4015 10.0463 11.3776C10.0749 10.9643 10.102 10.551 10.133 10.1378C10.1391 10.0557 10.1268 10.0183 10.0332 10.0127C9.88771 10.004 9.73994 9.98408 9.59836 9.94824C9.48463 9.91958 9.46374 9.94904 9.46452 10.0621C9.46916 10.9213 9.46684 11.7797 9.46684 12.639C9.46684 12.8962 9.46761 12.8922 9.71828 12.9216C10.5693 13.0228 11.4195 13.1239 12.2698 13.2314C12.358 13.2426 12.3727 13.2234 12.3727 13.1398C12.3704 12.2416 12.3696 11.3442 12.3734 10.4459C12.3742 10.3544 12.3386 10.3273 12.2628 10.3177C11.958 10.2779 11.6532 10.2333 11.3484 10.1935C11.0737 10.1577 11.076 10.1593 11.0698 10.4396C11.0613 10.7979 11.0474 11.1554 11.035 11.5409C10.8826 11.4341 10.7472 11.3474 10.6204 11.2494C10.5569 11.2 10.5105 11.2032 10.4455 11.2446C10.3233 11.3235 10.1941 11.3911 10.0463 11.4756ZM13.6902 9.6982C13.3807 9.89728 13.1185 10.0709 12.8508 10.2349C12.7703 10.2843 12.7471 10.3384 12.7471 10.4316C12.751 11.29 12.7494 12.1492 12.7494 13.0076C12.7494 13.0538 12.7494 13.1 12.7494 13.1653C13.0442 12.9877 13.3181 12.8189 13.5974 12.6573C13.6755 12.6119 13.6956 12.5585 13.6941 12.4709C13.6879 12.1445 13.6902 11.8172 13.6902 11.4899C13.6902 10.9062 13.6902 10.3217 13.6902 9.6982ZM13.3606 9.58991C13.0721 9.5469 12.8129 9.51744 12.5584 9.46648C12.317 9.4179 12.098 9.43303 11.886 9.58035C11.7228 9.69422 11.5387 9.77624 11.3646 9.87419C11.336 9.89011 11.2888 9.89091 11.2896 9.94983C11.6137 9.99363 11.9363 10.0398 12.2589 10.0804C12.3549 10.0924 12.4539 10.1457 12.5498 10.0884C12.8129 9.92913 13.0744 9.76668 13.3606 9.58991ZM11.2137 9.29686C11.0768 9.25625 10.953 9.22201 10.8447 9.26023C10.4819 9.39003 10.126 9.53815 9.74613 9.68785C9.80338 9.70218 9.8351 9.71572 9.86759 9.71731C10.027 9.72528 10.1964 9.81446 10.3418 9.75155C10.6351 9.62494 10.9112 9.45772 11.2137 9.29686Z" fill="#283942"/>
<path d="M7.24014 5.0294C8.13139 5.0294 9.02264 5.03338 9.91311 5.02542C10.0555 5.02382 10.0477 5.0947 10.0439 5.19264C10.0408 5.28262 10.0671 5.36464 9.91698 5.36385C8.1399 5.35748 6.36205 5.35907 4.5842 5.36225C4.48285 5.36225 4.45809 5.33359 4.46119 5.23246C4.46738 5.0286 4.46196 5.0286 4.66543 5.0286C5.52418 5.0294 6.38216 5.0294 7.24014 5.0294Z" fill="#283942"/>
<path d="M2.7896 5.18898C2.53429 5.18739 2.38111 4.92063 2.51341 4.72155C2.64957 4.5169 2.819 4.33773 3.00467 4.17847C3.12536 4.07495 3.29557 4.09566 3.40233 4.20953C3.50523 4.31862 3.52689 4.49062 3.42941 4.60848C3.28242 4.78605 3.12382 4.95328 2.96522 5.1197C2.91416 5.17146 2.84608 5.19854 2.7896 5.18898Z" fill="#283942"/>
<path d="M12.0398 5.87381C12.0406 6.03307 11.9717 6.12544 11.8534 6.178C11.7265 6.23533 11.6042 6.21065 11.5191 6.10155C11.3783 5.9192 11.2453 5.72888 11.1207 5.53458C11.041 5.41036 11.0789 5.24712 11.1865 5.15236C11.3041 5.04884 11.4696 5.0345 11.5741 5.14599C11.752 5.33471 11.8975 5.55131 12.0212 5.78223C12.039 5.81329 12.0367 5.85629 12.0398 5.87381Z" fill="#283942"/>
<path d="M12.1797 7.25355C12.1774 7.06244 12.2733 6.93264 12.4103 6.89601C12.5356 6.86177 12.6872 6.92388 12.746 7.05368C12.8482 7.27824 12.917 7.51633 12.9696 7.75841C12.9975 7.88741 12.9015 8.03553 12.7785 8.0841C12.6455 8.13666 12.4722 8.09764 12.4188 7.96625C12.3205 7.72098 12.2486 7.46378 12.1797 7.25355Z" fill="#283942"/>
<path d="M1.05509 8.34809C1.07443 8.21352 1.09686 8.00568 1.13632 7.80103C1.17191 7.6147 1.31658 7.52472 1.49375 7.55736C1.6508 7.58683 1.75292 7.73892 1.73203 7.9157C1.7096 8.10363 1.68639 8.29156 1.65931 8.47869C1.62991 8.68891 1.49762 8.80756 1.32045 8.78686C1.15257 8.76854 1.04735 8.62362 1.05509 8.34809Z" fill="#283942"/>
<path d="M8.30093 14.9993C7.94428 15.0056 7.80734 14.8886 7.82127 14.6656C7.83055 14.5239 7.92958 14.4044 8.06652 14.3877C8.27231 14.3622 8.47965 14.3415 8.68699 14.3272C8.86957 14.3144 9.00264 14.4235 9.02043 14.5876C9.04054 14.7771 8.9392 14.9141 8.7481 14.9427C8.57016 14.9698 8.39222 14.9881 8.30093 14.9993Z" fill="#283942"/>
<path d="M6.00225 14.209C6.21036 14.2576 6.45174 14.3037 6.68693 14.3738C6.82387 14.4144 6.88963 14.5888 6.85404 14.7369C6.82078 14.8747 6.67301 14.991 6.53143 14.9655C6.30862 14.9249 6.08735 14.8747 5.86918 14.8126C5.72606 14.772 5.64096 14.604 5.66958 14.467C5.7013 14.3149 5.82431 14.209 6.00225 14.209Z" fill="#283942"/>
<path d="M2.27742 5.95709C2.28051 6.00566 2.26194 6.05902 2.23641 6.11317C2.16137 6.27482 2.0871 6.43726 2.01437 6.6005C1.9285 6.79241 1.76681 6.86886 1.60047 6.79401C1.43568 6.71995 1.37224 6.54237 1.4527 6.35206C1.53394 6.16094 1.61981 5.97142 1.71574 5.78827C1.78537 5.65449 1.92618 5.60433 2.05538 5.64414C2.19463 5.68714 2.27742 5.79942 2.27742 5.95709Z" fill="#283942"/>
<path d="M5.80727 1.58159C5.64635 1.58159 5.48465 1.57841 5.32373 1.58319C5.25411 1.58478 5.22703 1.56248 5.2425 1.49081C5.25024 1.45737 5.25565 1.42392 5.25952 1.38968C5.29201 1.11496 5.29201 1.11496 5.5566 1.11496C5.7887 1.11496 6.02157 1.11814 6.25366 1.11337C6.32484 1.11177 6.35501 1.13248 6.35965 1.20653C6.36584 1.30846 6.37745 1.41039 6.39215 1.51152C6.40453 1.59513 6.3496 1.58159 6.30472 1.58159C6.13916 1.58159 5.97283 1.58159 5.80727 1.58159Z" fill="#283942"/>
<path d="M7.618 1.54268C7.5004 1.53711 7.34877 1.57533 7.27604 1.51322C7.20409 1.4519 7.28378 1.29503 7.28842 1.17957C7.30157 0.854673 7.30544 0.855469 7.61336 0.855469C7.90966 0.855469 7.90966 0.855469 7.95376 1.14771C8.01333 1.53711 8.01333 1.53711 7.618 1.54268Z" fill="#283942"/>
<path d="M7.60888 1.99231C7.4998 1.99231 7.39149 1.98993 7.2824 1.99311C7.22051 1.9947 7.20504 1.97798 7.21278 1.9095C7.24217 1.65707 7.23908 1.65627 7.49052 1.65627C7.61817 1.65627 7.74659 1.66583 7.87347 1.65389C7.98952 1.64274 8.01969 1.69211 8.02434 1.80041C8.03285 1.99231 8.03749 1.99231 7.85104 1.99231C7.7698 1.99231 7.68934 1.99231 7.60888 1.99231Z" fill="#283942"/>
</svg>
