<svg width="15" height="15" viewBox="0 0 15 15" fill="none" xmlns="http://www.w3.org/2000/svg">
<path d="M12.3125 2.14286C12.5344 2.14286 12.7143 1.96296 12.7143 1.74107V0.401786C12.7143 0.1799 12.5344 0 12.3125 0H2.40179C2.1799 0 2 0.1799 2 0.401786V1.90004C2 2.12193 2.1799 2.30183 2.40179 2.30183H5.25714C6.17147 2.30183 6.87302 2.63525 7.29854 3.21429H2.40179C2.1799 3.21429 2 3.39419 2 3.61607V4.95536C2 5.17724 2.1799 5.35714 2.40179 5.35714H7.71731C7.50915 6.56538 6.6137 7.32027 5.21428 7.32027H2.40179C2.1799 7.32027 2 7.50017 2 7.72205V9.49701C2 9.60914 2.04687 9.71618 2.12927 9.79225L7.65556 14.8935C7.72978 14.962 7.82708 15 7.92808 15H10.6924C11.0582 15 11.2337 14.5511 10.9649 14.303L5.91309 9.63971C8.47444 9.56136 10.3041 7.85193 10.5443 5.35714H12.3125C12.5344 5.35714 12.7143 5.17724 12.7143 4.95536V3.61607C12.7143 3.39419 12.5344 3.21429 12.3125 3.21429H10.3474C10.2307 2.82787 10.0702 2.46944 9.87024 2.14286H12.3125Z" fill="#283942"/>
</svg>
