<svg width="15" height="15" viewBox="0 0 15 15" fill="none" xmlns="http://www.w3.org/2000/svg">
<g clip-path="url(#clip0_1871_3119)">
<path d="M3.00021 4.2499C3.62128 4.2499 4.12516 3.74601 4.12516 3.12495C4.12516 2.50388 3.62128 2 3.00021 2C2.37915 2 1.87526 2.50388 1.87526 3.12495C1.87526 3.74601 2.37915 4.2499 3.00021 4.2499ZM11.9998 4.2499C12.6209 4.2499 13.1247 3.74601 13.1247 3.12495C13.1247 2.50388 12.6209 2 11.9998 2C11.3787 2 10.8748 2.50388 10.8748 3.12495C10.8748 3.74601 11.3787 4.2499 11.9998 4.2499ZM14.9457 12.9706L13.9145 10.3926L12.9513 11.48L12.9044 11.9066L13.5536 13.5284C13.6708 13.8213 13.952 13.9995 14.2497 13.9995C14.3434 13.9995 14.4372 13.983 14.5286 13.9455C14.9129 13.7909 15.1004 13.355 14.9457 12.9706ZM14.1442 8.05363L13.7106 6.17403C13.6028 5.7053 13.2747 5.31157 12.8318 5.12173C12.3982 4.93424 11.9178 4.96471 11.517 5.19907C10.985 5.51312 10.5866 6.00763 10.3897 6.5912L10.1249 7.38569L9.74989 7.62474V5.37485C9.74989 5.16861 9.58115 4.99986 9.37491 4.99986H5.62509C5.41885 4.99986 5.25011 5.16861 5.25011 5.37485V7.62474L4.87278 7.38569L4.60795 6.5912C4.41343 6.00529 4.01266 5.51312 3.48066 5.19907C3.07755 4.96471 2.59945 4.93424 2.16587 5.12173C1.72293 5.31157 1.39482 5.7053 1.28701 6.17403L0.85578 8.05363C0.747972 8.52236 0.872185 9.01921 1.19326 9.38248L2.76819 11.1613L3.0049 13.3315C3.04708 13.7135 3.37051 13.9995 3.75018 13.9995C3.7783 13.9995 3.80408 13.9971 3.8322 13.9948C4.24468 13.9502 4.53998 13.5799 4.49545 13.1675L4.25875 10.9926C4.22359 10.6879 4.09703 10.4043 3.89314 10.1723L2.87834 9.0239L3.29082 7.37632L3.45019 7.85442C3.54628 8.14738 3.72908 8.40283 4.02438 8.61845L5.22198 9.38013C5.32979 9.4481 5.50556 9.48794 5.62509 9.49731H9.37491C9.49444 9.48794 9.67021 9.4481 9.77802 9.38013L10.9756 8.61845C11.2709 8.40283 11.4537 8.14972 11.5498 7.85442L11.7092 7.37632L12.1217 9.0239L11.1069 10.1723C10.903 10.4043 10.7764 10.6879 10.7413 10.9926L10.5045 13.1675C10.46 13.5799 10.7577 13.9502 11.1678 13.9948C11.1959 13.9971 11.2217 13.9995 11.2498 13.9995C11.6272 13.9995 11.9529 13.7159 11.9951 13.3315L12.2318 11.1613L13.8067 9.38248C14.1255 9.01921 14.252 8.52236 14.1442 8.05363ZM1.08546 10.3926L0.0542547 12.9706C-0.100426 13.355 0.0870657 13.7909 0.471423 13.9455C0.865154 14.1002 1.29404 13.9057 1.44638 13.5284L2.09557 11.9066L2.04869 11.48L1.08546 10.3926Z" fill="#283942"/>
</g>
<defs>
<clipPath id="clip0_1871_3119">
<rect width="15" height="15" fill="white"/>
</clipPath>
</defs>
</svg>
