<svg width="15" height="15" viewBox="0 0 15 15" fill="none" xmlns="http://www.w3.org/2000/svg">
<g clip-path="url(#clip0_1871_3147)">
<path d="M3.92704 6.93669C3.84101 7.61714 3.75498 8.27412 3.66112 8.92328C3.64548 9.02495 3.72369 9.0797 3.77062 9.15009C4.26335 9.84618 4.76391 10.5423 5.25665 11.2305C5.35832 11.3635 5.42089 11.5121 5.46 11.6763C5.6477 12.4897 5.84323 13.3031 6.03876 14.1165C6.14044 14.5389 5.95273 14.883 5.58514 14.9769C5.19408 15.0707 4.87341 14.8596 4.76391 14.4138C4.59184 13.6942 4.41196 12.9747 4.24771 12.2551C4.20861 12.0752 4.13039 11.911 4.0209 11.7624C3.73151 11.3635 3.44995 10.9646 3.12146 10.511C2.98068 11.0976 2.85554 11.6216 2.72258 12.1378C2.69129 12.2551 2.66783 12.3802 2.60526 12.4819C2.14381 13.2171 1.67454 13.9523 1.20527 14.6875C1.08013 14.883 0.892421 14.9847 0.657785 14.9925C0.133765 15.0003 -0.171261 14.445 0.102481 13.9836C0.368401 13.5456 0.634322 13.0998 0.931527 12.6853C1.30694 12.1612 1.5494 11.5825 1.66672 10.949C1.74493 10.5188 1.86225 10.1043 1.96392 9.68193C2.03431 9.40037 2.07342 9.13445 1.97957 8.82942C1.87007 8.454 2.02649 8.0473 2.07342 7.64842C2.15945 6.85848 2.27677 6.06072 2.3628 5.27078C2.40191 4.89536 2.56616 4.60598 2.84772 4.37916C3.05889 4.2071 3.38738 4.16799 3.59855 4.33224C3.84101 4.51212 4.06782 4.7233 4.11475 5.05961C4.13039 5.17693 4.17732 5.27078 4.24771 5.36463C4.56056 5.82608 4.87341 6.28753 5.17843 6.74898C5.24882 6.85066 5.32704 6.90541 5.43653 6.94451C5.89798 7.07747 6.35161 7.2339 6.80524 7.36686C7.09462 7.45289 7.25105 7.62496 7.25887 7.92216C7.25887 7.99255 7.26669 8.05512 7.32926 8.10987C7.64993 8.37579 7.96278 8.64171 8.43205 8.5635C8.96389 8.46965 9.51137 8.53222 10.0432 8.52439C10.7784 8.51657 11.5058 8.50093 12.241 8.53222C13.0074 8.5635 13.7739 8.55568 14.5404 8.5635C14.8298 8.5635 14.9158 8.70428 14.7907 8.9702C14.1884 10.1747 13.5862 11.387 12.9918 12.5914C12.9058 12.7635 12.7885 12.8026 12.6164 12.8026C11.2086 12.7948 9.79294 12.7948 8.38512 12.8026C8.14266 12.8026 8.04099 12.7009 8.01752 12.4741C7.89239 11.3557 7.76725 10.2451 7.64211 9.12663C7.62647 8.9702 7.57172 8.86853 7.44658 8.78249C7.21194 8.60261 7.01641 8.34451 6.65664 8.44618C6.57843 8.46965 6.46893 8.4149 6.3829 8.38361C6.07005 8.28976 5.77284 8.16462 5.46 8.10205C4.82648 7.98473 4.34939 7.67971 4.07565 7.0853C4.06 7.04619 4.02872 7.01491 3.99743 6.98362C3.98961 6.96798 3.97397 6.96016 3.92704 6.93669ZM14.2197 9.00931C13.727 9.00931 13.2499 9.00149 12.765 9.01713C12.5695 9.02495 12.6711 9.20484 12.6555 9.30651C12.6398 9.40819 12.6398 9.51769 12.8041 9.51769C13.0857 9.50987 13.3594 9.51769 13.641 9.51769C14.0711 9.50987 14.1024 9.4864 14.2197 9.00931ZM12.8041 11.8953C12.6868 11.8562 12.6398 11.9031 12.6555 11.9814C12.6868 12.2004 12.5538 12.2082 12.3896 12.2082C11.2086 12.2004 10.0276 12.2004 8.83875 12.2082C8.67451 12.2082 8.53372 12.216 8.58065 11.9892C8.58847 11.9344 8.57283 11.8797 8.50244 11.8797C8.46333 11.8797 8.43987 11.8953 8.42423 11.9344C8.33819 12.13 8.4868 12.3568 8.69797 12.3568C9.86333 12.3568 11.0287 12.3568 12.194 12.3568C12.6477 12.3568 12.6477 12.3568 12.8041 11.8953ZM13.7426 9.95567C13.4454 9.95567 13.156 9.96349 12.8588 9.95567C12.679 9.94785 12.6477 10.0182 12.6398 10.1747C12.6242 10.4171 12.7102 10.5032 12.9449 10.4719C13.0231 10.464 13.1013 10.4719 13.1795 10.4719C13.6019 10.4719 13.6488 10.4328 13.7426 9.95567ZM13.2734 10.9099C13.1091 10.9099 12.9449 10.902 12.7885 10.9099C12.5616 10.9255 12.6711 11.0976 12.6555 11.2071C12.6398 11.3009 12.6164 11.4104 12.7885 11.4261C13.07 11.4417 13.1795 11.3478 13.2734 10.9099ZM8.58065 9.25959C8.61976 9.07188 8.54937 8.97802 8.35384 9.00931C8.25216 9.02495 8.08009 8.93892 8.11138 9.16573C8.13484 9.32216 8.06445 9.52551 8.35384 9.51769C8.55719 9.51769 8.61194 9.43947 8.58065 9.25959ZM8.58065 10.2216C8.56501 10.1121 8.65104 9.93221 8.40076 9.95567C8.29909 9.96349 8.16613 9.93221 8.20523 10.1043C8.23652 10.2372 8.12702 10.4562 8.40858 10.4719C8.61976 10.4797 8.58065 10.3467 8.58065 10.2216ZM8.58847 11.1758C8.55719 11.0741 8.65886 10.9099 8.43987 10.9099C8.30691 10.9099 8.29909 10.9959 8.32255 11.0819C8.35384 11.1992 8.25216 11.3948 8.46333 11.4104C8.66668 11.4339 8.54155 11.254 8.58847 11.1758Z" fill="#283942"/>
<path d="M10.5673 5.34894C10.0902 5.34894 9.61311 5.34112 9.1282 5.34894C8.95613 5.34894 8.88574 5.30984 8.88574 5.12213C8.89356 4.30091 8.89356 3.4875 8.88574 2.66628C8.88574 2.47857 8.94049 2.43164 9.12038 2.43164C10.0667 2.43946 11.0209 2.43946 11.9673 2.43164C12.1394 2.43164 12.2176 2.47075 12.2097 2.65846C12.2019 3.47968 12.2019 4.29308 12.2097 5.11431C12.2097 5.30202 12.1472 5.34894 11.9673 5.34894C11.5058 5.34112 11.0366 5.34894 10.5673 5.34894Z" fill="#283942"/>
<path d="M11.5607 5.47374C11.9674 5.47374 12.3741 5.48156 12.7886 5.47374C12.9451 5.47374 13.0233 5.50503 13.0233 5.68492C13.0154 6.52178 13.0154 7.35083 13.0233 8.1877C13.0233 8.32848 12.9842 8.38323 12.8277 8.38323C11.9752 8.37541 11.1227 8.37541 10.2702 8.38323C10.1294 8.38323 10.0981 8.32848 10.0981 8.19552C10.0981 7.35083 10.106 6.50614 10.0981 5.66927C10.0981 5.49721 10.1685 5.46592 10.3171 5.47374C10.7238 5.47374 11.1462 5.47374 11.5607 5.47374Z" fill="#283942"/>
<path d="M5.46004 2.92443C5.45222 3.67526 4.86563 4.26968 4.11479 4.26968C3.35614 4.26968 2.75391 3.66744 2.75391 2.91661C2.76173 2.16577 3.3796 1.56354 4.12261 1.57136C4.88127 1.57919 5.46004 2.18142 5.46004 2.92443Z" fill="#283942"/>
<path d="M9.94149 6.91273C9.94149 7.33508 9.93367 7.76524 9.94149 8.18759C9.94149 8.33619 9.89456 8.38312 9.74596 8.38312C9.26886 8.37529 8.79177 8.37529 8.31468 8.38312C8.1739 8.38312 8.11133 8.34401 8.11133 8.19541C8.11915 7.35072 8.11915 6.50603 8.11133 5.66916C8.11133 5.52056 8.16608 5.47363 8.30686 5.47363C8.78395 5.48145 9.26104 5.48145 9.73814 5.47363C9.9102 5.47363 9.93367 5.54402 9.93367 5.69263C9.93367 6.09151 9.94149 6.50603 9.94149 6.91273Z" fill="#283942"/>
<path d="M9.80879 0.9375C10.1529 0.9375 10.5049 0.945321 10.849 0.9375C10.9976 0.9375 11.0445 0.984427 11.0445 1.13303C11.0367 1.46152 11.0367 1.79001 11.0445 2.12632C11.0445 2.25928 10.9976 2.30621 10.8647 2.30621C10.1451 2.29839 9.42556 2.30621 8.70601 2.30621C8.57305 2.30621 8.5183 2.25928 8.52612 2.12632C8.53394 1.79783 8.53394 1.46934 8.52612 1.13303C8.52612 0.984427 8.57305 0.9375 8.72165 0.9375C9.08142 0.945321 9.4412 0.9375 9.80879 0.9375Z" fill="#283942"/>
<path d="M12.4912 14.5702C12.0219 14.5702 11.6621 14.2182 11.6621 13.749C11.6621 13.2875 12.0219 12.9199 12.4833 12.9199C12.937 12.9199 13.3124 13.2953 13.3124 13.749C13.3202 14.2026 12.9526 14.5702 12.4912 14.5702ZM12.4912 14.1244C12.6945 14.1244 12.8666 13.9367 12.8588 13.7333C12.8509 13.5378 12.6867 13.3657 12.4912 13.3657C12.2878 13.3579 12.1079 13.5378 12.1079 13.7411C12.1157 13.9445 12.2956 14.1244 12.4912 14.1244Z" fill="#283942"/>
<path d="M8.44002 14.5703C7.97857 14.5703 7.60315 14.2105 7.59533 13.7569C7.58751 13.3111 7.97075 12.92 8.42438 12.92C8.87801 12.9122 9.25342 13.2876 9.26125 13.7413C9.26907 14.2027 8.90929 14.5625 8.44002 14.5703ZM8.05678 13.7491C8.0646 13.9524 8.25231 14.1323 8.44784 14.1245C8.65119 14.1167 8.82326 13.929 8.80762 13.7256C8.7998 13.5301 8.61991 13.3659 8.4322 13.3659C8.23667 13.358 8.04896 13.5457 8.05678 13.7491Z" fill="#283942"/>
</g>
<defs>
<clipPath id="clip0_1871_3147">
<rect width="15" height="15" fill="white"/>
</clipPath>
</defs>
</svg>
