<svg width="15" height="15" viewBox="0 0 15 15" fill="none" xmlns="http://www.w3.org/2000/svg">
<g clip-path="url(#clip0_1871_3157)">
<path d="M11.4799 15.0005C10.9902 14.7243 10.7524 14.2181 10.4008 13.8163C10.3357 13.7425 10.2878 13.6625 10.1827 13.6476C10.1285 13.3156 9.85386 13.1257 9.67101 12.8808C9.47168 12.614 9.33435 12.3441 9.37123 12.0043C9.43715 11.8607 9.50307 11.717 9.56821 11.5734C10.1772 11.1104 10.6229 11.1724 11.1016 11.7853C11.2759 12.009 11.4516 12.2318 11.6431 12.4767C11.764 12.2672 11.9021 12.1133 11.8974 11.8936C12.187 11.6998 12.2545 11.3568 12.4326 11.0877C12.6257 10.7965 12.7787 10.4795 12.9537 10.1765C13.2087 9.73472 13.7157 9.58169 14.1599 9.8077C14.5766 10.0196 14.7634 10.5399 14.5381 10.9809C14.2289 11.5868 13.8868 12.1761 13.5532 12.7694C13.2629 13.2866 12.9505 13.792 12.6782 14.3177C12.5378 14.5901 12.3212 14.7823 12.125 14.9989C11.9092 15.0005 11.6941 15.0005 11.4799 15.0005Z" fill="#283942"/>
<path d="M9.36961 12.0038C9.33272 12.3428 9.47006 12.6128 9.66939 12.8804C9.85224 13.1252 10.1269 13.3151 10.1811 13.6471C8.74572 13.6439 7.31117 13.64 5.87583 13.6385C4.3628 13.6369 2.84899 13.64 1.33596 13.6377C0.499405 13.6361 0.000294287 13.1417 0.000294287 12.313C-0.000490478 9.65734 0.000294287 7.00248 0.00264858 4.34683C0.00264858 4.20165 0.0269763 4.05647 0.0403173 3.91129C0.284379 3.46633 0.663421 3.30545 1.16018 3.34155C1.49998 3.36588 1.84292 3.35253 2.1843 3.34233C2.68341 3.32742 3.0342 3.04098 3.23039 2.57248C3.43129 2.09299 3.33241 1.60015 3.33555 1.11517C3.3379 0.729849 3.40382 0.396324 3.69026 0.12715C3.94217 0.0243454 4.20428 -0.000767106 4.47659 1.76594e-05C6.4958 0.00551102 8.515 0.00237195 10.535 0.00315672C11.41 0.00315672 11.8895 0.483433 11.8895 1.35923C11.8903 4.76354 11.8895 8.16785 11.8903 11.5722C11.8903 11.6797 11.8942 11.7864 11.8965 11.8939C11.902 12.1137 11.7631 12.2675 11.6423 12.477C11.4508 12.2322 11.275 12.0093 11.1008 11.7856C10.6221 11.1719 10.1756 11.1099 9.56737 11.5729C9.36019 11.5023 9.14595 11.551 8.93563 11.5408C8.79045 11.5337 8.68294 11.602 8.67352 11.7503C8.66332 11.9206 8.78496 11.9842 8.93563 11.9936C9.08003 12.0014 9.22442 12.0006 9.36961 12.0038ZM5.94175 7.21672C7.61879 7.21672 9.29662 7.2175 10.9737 7.21593C11.1518 7.21593 11.4037 7.26537 11.4006 6.99855C11.3967 6.73252 11.144 6.78981 10.9666 6.78902C7.62193 6.78745 4.27648 6.78824 0.93181 6.78824C0.872953 6.78824 0.81488 6.78981 0.756023 6.78824C0.610842 6.78353 0.490772 6.8416 0.485279 6.99071C0.479001 7.16021 0.607702 7.2175 0.763086 7.21672C0.831361 7.21593 0.899635 7.21672 0.96791 7.21672C2.62533 7.21672 4.28354 7.21672 5.94175 7.21672ZM4.7442 8.48411C5.49522 8.48411 6.24624 8.48333 6.99648 8.4849C7.16991 8.4849 7.35904 8.48254 7.36139 8.25496C7.36375 8.02503 7.17619 8.02424 7.00118 8.02503C5.49914 8.0266 3.99789 8.0266 2.49585 8.02503C2.32163 8.02503 2.12936 8.02581 2.12779 8.24947C2.12622 8.46842 2.313 8.48647 2.49035 8.48568C3.24216 8.48333 3.99318 8.48411 4.7442 8.48411ZM4.76382 9.19746C4.00338 9.19746 3.24216 9.19982 2.48172 9.19589C2.31457 9.19511 2.13721 9.20453 2.12858 9.40621C2.11838 9.62359 2.29652 9.65734 2.47858 9.65734C3.99004 9.65577 5.5015 9.65577 7.01296 9.65734C7.19188 9.65734 7.37395 9.63301 7.3661 9.41092C7.35904 9.20767 7.18403 9.1959 7.01609 9.19668C6.26507 9.19903 5.51484 9.19746 4.76382 9.19746ZM4.74106 10.3691C3.99004 10.3691 3.2398 10.3707 2.48878 10.3675C2.313 10.3668 2.12622 10.3715 2.12858 10.5983C2.13093 10.796 2.30123 10.8282 2.47073 10.8282C3.99161 10.8274 5.51248 10.8274 7.03414 10.8282C7.20444 10.8282 7.36767 10.7937 7.36296 10.5881C7.35825 10.3785 7.1911 10.3675 7.02237 10.3683C6.26194 10.3707 5.5015 10.3691 4.74106 10.3691ZM4.77324 11.5384C4.0026 11.5384 3.23274 11.54 2.46289 11.5368C2.29102 11.5361 2.12544 11.562 2.12858 11.766C2.13172 11.9661 2.29966 11.9959 2.46917 11.9959C3.99004 11.9944 5.51092 11.9952 7.03179 11.9952C7.2013 11.9952 7.36924 11.9638 7.3661 11.7597C7.36296 11.5549 7.19424 11.5361 7.02551 11.5368C6.27449 11.54 5.52426 11.5384 4.77324 11.5384ZM2.80504 5.2344C2.57275 4.89852 2.3852 4.62856 2.19999 4.35782C2.12858 4.25344 2.04147 4.18203 1.90806 4.21813C1.76915 4.2558 1.7464 4.36724 1.7464 4.49358C1.74797 4.95189 1.74875 5.4094 1.74561 5.86771C1.74483 6.03094 1.777 6.17376 1.97241 6.17141C2.16625 6.16906 2.19999 6.02152 2.20078 5.86221C2.20156 5.66602 2.20078 5.47061 2.20078 5.27442C2.43934 5.51221 2.61199 5.75705 2.78072 6.00347C2.85919 6.11805 2.9565 6.19338 3.09933 6.1463C3.22725 6.10471 3.27198 5.99562 3.2712 5.86928C3.26884 5.40156 3.26727 4.93384 3.25864 4.46612C3.2555 4.3123 3.18173 4.19616 3.0083 4.2095C2.85213 4.22127 2.80269 4.33271 2.80348 4.4771C2.80661 4.70233 2.80504 4.92599 2.80504 5.2344ZM4.97178 5.18888C4.971 5.73665 5.40497 6.17612 5.95117 6.18161C6.50364 6.18711 6.96665 5.72566 6.95724 5.17868C6.94782 4.63562 6.50443 4.20479 5.95509 4.20557C5.4034 4.20714 4.97257 4.63798 4.97178 5.18888ZM10.1952 1.42829C10.203 1.28703 9.73374 0.818528 9.61916 0.832653C9.58228 0.837362 9.52499 0.852273 9.51636 0.877385C9.43317 1.10654 9.18048 1.18894 9.0761 1.39925C8.93798 1.67706 9.00783 1.97292 9.27543 2.13772C9.41512 2.22326 9.57364 2.27898 9.72353 2.34725C9.81771 2.39041 9.89854 2.4477 9.8695 2.56698C9.84282 2.68078 9.77219 2.75611 9.64663 2.76161C9.53911 2.76631 9.43396 2.76396 9.33665 2.70275C9.19853 2.61564 9.07218 2.62898 8.99213 2.77966C8.90659 2.93975 9.0039 3.03784 9.13575 3.1069C9.26994 3.17753 9.39472 3.23247 9.48497 3.38471C9.57443 3.53538 9.76042 3.50085 9.82869 3.33135C9.87735 3.20971 9.95818 3.15163 10.05 3.08101C10.4816 2.74983 10.4024 2.15106 9.89932 1.92897C9.79259 1.88188 9.68351 1.84108 9.57757 1.79164C9.51322 1.76182 9.46221 1.71551 9.4834 1.63154C9.50772 1.53737 9.58149 1.51069 9.66311 1.52325C9.73766 1.53502 9.80907 1.56876 9.88206 1.59309C10.0626 1.65509 10.1567 1.57426 10.1952 1.42829ZM8.91209 4.20557C8.43887 4.204 8.05748 4.4826 7.92878 4.89617C7.79851 5.31366 7.96958 5.78295 8.33921 6.02387C8.67823 6.24439 9.14516 6.22791 9.43239 5.98464C9.55403 5.88183 9.64741 5.75941 9.53519 5.60952C9.4214 5.45649 9.29034 5.5075 9.15929 5.61658C8.94348 5.79708 8.72139 5.75627 8.52363 5.58519C8.32194 5.41019 8.28663 5.1779 8.40356 4.94796C8.52127 4.71724 8.72767 4.61758 8.98978 4.67329C9.06433 4.68899 9.13418 4.72744 9.20716 4.75491C9.33508 4.802 9.43945 4.77374 9.50301 4.64975C9.56894 4.52026 9.50929 4.42217 9.40178 4.35232C9.24326 4.24874 9.06669 4.1993 8.91209 4.20557ZM9.88755 5.20301C9.88755 5.43687 9.88912 5.67151 9.88677 5.90537C9.8852 6.05134 9.93699 6.16513 10.0916 6.17376C10.3152 6.18632 10.5405 6.18397 10.7641 6.17455C10.885 6.16984 10.9627 6.09293 10.965 5.9658C10.9674 5.82611 10.8913 5.74842 10.7531 5.73744C10.6755 5.73116 10.597 5.7288 10.5193 5.73351C10.4024 5.74057 10.3364 5.7084 10.3372 5.57342C10.338 5.45178 10.3976 5.42667 10.5012 5.42745C10.6857 5.42902 10.9234 5.45492 10.9179 5.19124C10.9117 4.92206 10.6668 4.97543 10.4887 4.97621C10.3694 4.977 10.3411 4.92128 10.338 4.81612C10.3349 4.6937 10.3976 4.6678 10.5012 4.67172C10.5789 4.67486 10.6582 4.67643 10.7351 4.6678C10.8787 4.65132 10.9768 4.57755 10.965 4.42138C10.9548 4.28248 10.8614 4.21813 10.7265 4.21656C10.5413 4.21499 10.3561 4.21813 10.1701 4.21499C9.97387 4.21185 9.88441 4.30681 9.88677 4.50065C9.88912 4.73451 9.88755 4.96837 9.88755 5.20301ZM4.22547 5.31994C4.10305 4.96601 4.0073 4.69291 3.91392 4.41981C3.85898 4.25972 3.76089 4.16006 3.5851 4.22912C3.42109 4.29425 3.43129 4.4308 3.48151 4.57363C3.63925 5.0233 3.79542 5.47297 3.9508 5.92342C3.99789 6.06076 4.06459 6.17533 4.23175 6.17376C4.3989 6.17219 4.46247 6.05448 4.5072 5.91715C4.65317 5.47375 4.79913 5.03115 4.94824 4.58854C4.99925 4.43551 5.01494 4.2864 4.83288 4.22362C4.65317 4.16163 4.56606 4.28327 4.51505 4.43708C4.42715 4.70547 4.33926 4.97307 4.22547 5.31994ZM7.6753 5.20379C7.6753 4.9613 7.67451 4.71881 7.67608 4.47632C7.67687 4.33192 7.62507 4.22205 7.47047 4.21107C7.29783 4.19851 7.22327 4.3123 7.2217 4.4669C7.21699 4.95189 7.21699 5.43765 7.2217 5.92264C7.22327 6.0639 7.29155 6.17376 7.44615 6.17455C7.61644 6.17533 7.67765 6.06311 7.67608 5.90381C7.67373 5.66995 7.6753 5.43687 7.6753 5.20379ZM0.921608 5.1724C0.921608 5.41647 0.922393 5.65974 0.921608 5.90381C0.920824 6.06311 0.980466 6.1769 1.15468 6.1722C1.31321 6.16749 1.36736 6.0537 1.36814 5.91087C1.36971 5.43295 1.36971 4.95581 1.36814 4.47789C1.36736 4.32329 1.31164 4.20243 1.1335 4.21028C0.954569 4.21813 0.920039 4.3484 0.921608 4.49986C0.923178 4.7243 0.921608 4.94875 0.921608 5.1724ZM9.23855 8.02895C9.1224 8.02895 9.00547 8.02189 8.89011 8.03052C8.7567 8.03994 8.67509 8.1192 8.67116 8.25418C8.66803 8.37974 8.75278 8.46528 8.86422 8.47234C9.10514 8.48647 9.34763 8.48411 9.58777 8.46685C9.70705 8.45822 9.77219 8.35227 9.76277 8.23613C9.75336 8.12155 9.68351 8.03758 9.55716 8.03052C9.45122 8.02503 9.34449 8.02973 9.23855 8.02895ZM9.21893 9.65184C9.21893 9.65263 9.21893 9.65341 9.21893 9.6542C9.31546 9.6542 9.41277 9.65891 9.50929 9.65341C9.64977 9.64478 9.76356 9.57651 9.76513 9.42897C9.7667 9.26495 9.65212 9.19668 9.4936 9.19746C9.29976 9.19903 9.10671 9.19668 8.91287 9.19903C8.77868 9.2006 8.68607 9.26888 8.67273 9.40229C8.65782 9.55689 8.76141 9.63222 8.90032 9.6487C9.00547 9.66205 9.11299 9.65184 9.21893 9.65184ZM9.22364 10.3699C9.12711 10.3699 9.03059 10.3707 8.93328 10.3699C8.78731 10.3683 8.68294 10.4327 8.67195 10.5818C8.66096 10.7364 8.77083 10.8133 8.90816 10.8211C9.12005 10.8329 9.33351 10.8306 9.54539 10.8188C9.67645 10.8117 9.76591 10.7246 9.76199 10.5912C9.75806 10.4437 9.66468 10.3675 9.51322 10.3699C9.41669 10.3715 9.32016 10.3699 9.22364 10.3699Z" fill="#283942"/>
<path d="M3.68939 0.127061C3.40295 0.39702 3.33703 0.730545 3.33467 1.11508C3.33153 1.60006 3.43041 2.0929 3.22951 2.57239C3.03332 3.04089 2.68253 3.32812 2.18342 3.34224C1.84205 3.35245 1.49911 3.36579 1.1593 3.34146C0.662548 3.30614 0.283506 3.46624 0.0394439 3.9112C-0.0900423 3.49684 0.157943 3.18764 0.40279 2.94672C1.2676 2.09761 2.14183 1.25948 2.96348 0.367199C3.12906 0.187488 3.40059 0.151389 3.62033 0.043091C3.62739 0.039952 3.66584 0.0980246 3.68939 0.127061Z" fill="#455A64"/>
<path d="M6.49646 5.19952C6.49175 5.49067 6.23278 5.73944 5.94555 5.73002C5.65048 5.71982 5.42054 5.46869 5.43153 5.16813C5.44173 4.8809 5.67638 4.65254 5.96203 4.65332C6.25475 4.65568 6.50195 4.90759 6.49646 5.19952Z" fill="#283942"/>
</g>
<defs>
<clipPath id="clip0_1871_3157">
<rect width="15" height="15" fill="white"/>
</clipPath>
</defs>
</svg>
