<svg width="22" height="22" viewBox="0 0 22 22" fill="none" xmlns="http://www.w3.org/2000/svg">
<g clip-path="url(#clip0_1113_3244)">
<path d="M14.2206 14.2565C16.478 14.2578 18.7354 14.2578 20.9915 14.2591C21.1263 14.2591 21.2597 14.2539 21.3751 14.3446C21.5358 14.4716 21.5798 14.666 21.4748 14.8876C21.1612 15.5537 20.8412 16.2171 20.5237 16.8819C20.1518 17.6607 19.7747 18.437 19.4131 19.2197C19.3004 19.4633 19.1371 19.5579 18.8727 19.5579C16.8693 19.5527 14.8646 19.5553 12.8612 19.5553C12.7718 19.5553 12.6824 19.554 12.593 19.5644C12.313 19.5968 12.1135 19.808 12.1174 20.0633C12.1213 20.3238 12.3441 20.5453 12.6228 20.5635C12.6901 20.5687 12.7562 20.5687 12.8236 20.57C12.7005 20.8343 12.7355 21.1065 12.7899 21.3786C12.221 21.4123 11.7662 21.2127 11.4733 20.7112C11.1131 20.0957 11.3204 19.3143 11.9269 18.9307C11.9813 18.8957 12.1083 18.9113 12.072 18.7817C12.0163 18.4123 11.9074 18.056 11.7947 17.7009C11.7714 17.5998 11.7519 17.4988 11.726 17.399C11.3463 15.967 10.9653 14.5351 10.5844 13.1032C10.863 13.1006 11.1403 13.098 11.4189 13.0967C11.5109 13.4323 11.6081 13.7679 11.6923 14.1049C11.7208 14.2189 11.7714 14.2643 11.8906 14.2604C12.1575 14.2513 12.4245 14.2526 12.6914 14.2513C12.8379 14.2539 12.9856 14.2552 13.132 14.2578C13.4975 14.2578 13.859 14.2578 14.2206 14.2565ZM19.7151 15.0742C19.5285 15.0742 19.3418 15.0807 19.1565 15.0716C19.036 15.0651 18.9842 15.1144 18.9557 15.2258C18.8533 15.6301 18.747 16.0318 18.6369 16.4335C18.6071 16.5411 18.6097 16.5981 18.7483 16.5942C19.0386 16.5865 19.3289 16.5891 19.6192 16.5929C19.7112 16.5942 19.7695 16.5657 19.811 16.4776C20.0092 16.0526 20.2127 15.6301 20.4174 15.2089C20.4744 15.0923 20.4278 15.0703 20.3189 15.0729C20.1168 15.0781 19.9159 15.0742 19.7151 15.0742ZM12.6344 15.0742C12.4504 15.0742 12.3014 15.0807 12.1537 15.0729C12.002 15.0651 11.9567 15.1053 12.0046 15.2647C12.1187 15.6482 12.2223 16.0357 12.3143 16.4258C12.348 16.5657 12.4141 16.6007 12.545 16.5955C12.7821 16.5878 13.0206 16.58 13.2577 16.5968C13.4599 16.6111 13.4767 16.5204 13.4417 16.3597C13.3951 16.142 13.3614 15.9217 13.3212 15.7027C13.2849 15.5057 13.307 15.2569 13.1942 15.1273C13.0646 14.9783 12.8016 15.104 12.6344 15.0742ZM17.7622 15.0755C17.6132 15.0755 17.4654 15.0781 17.3164 15.0742C17.227 15.0729 17.1777 15.104 17.17 15.1986C17.1389 15.6133 17.1078 16.0279 17.0715 16.4426C17.0611 16.5657 17.1117 16.5968 17.2231 16.5942C17.424 16.5891 17.6248 16.5903 17.8244 16.5929C17.9099 16.5942 17.9579 16.5696 17.9825 16.4776C18.09 16.0603 18.2028 15.6457 18.3155 15.231C18.3479 15.1105 18.3051 15.0677 18.1859 15.0729C18.0447 15.0794 17.9034 15.0742 17.7622 15.0755ZM15.9998 15.0742C15.8585 15.0742 15.7173 15.0781 15.5773 15.0729C15.4581 15.0677 15.4244 15.1118 15.4374 15.231C15.4698 15.5329 15.4905 15.8362 15.5125 16.1394C15.5436 16.5916 15.5424 16.5916 16.0011 16.5916C16.0905 16.5916 16.1799 16.5865 16.268 16.5929C16.386 16.6007 16.4404 16.5644 16.4482 16.4348C16.4676 16.094 16.5091 15.7558 16.5298 15.415C16.5544 15.0159 16.5765 15.0807 16.2227 15.0742C16.1488 15.0729 16.075 15.0742 15.9998 15.0742ZM13.3795 18.7363C13.469 18.7363 13.5584 18.7298 13.6478 18.7376C13.7981 18.7519 13.8577 18.7208 13.8214 18.5458C13.7424 18.1674 13.6854 17.7838 13.6245 17.4029C13.6037 17.2785 13.5636 17.2046 13.4119 17.215C13.1826 17.2292 12.9506 17.224 12.7199 17.2163C12.5761 17.2111 12.5346 17.2564 12.5748 17.399C12.6629 17.6983 12.7407 18.0016 12.821 18.3022C12.9377 18.7363 12.9364 18.7363 13.3795 18.7363ZM14.507 16.5916C14.6041 16.5916 14.7 16.5891 14.7972 16.5929C14.8931 16.5968 14.9307 16.5592 14.9216 16.4608C14.8828 16.0461 14.8452 15.6314 14.8128 15.2167C14.8037 15.1001 14.748 15.069 14.6404 15.0716C14.4318 15.0781 14.2245 15.0781 14.0158 15.0716C13.8875 15.0677 13.8474 15.104 13.8746 15.2401C13.9394 15.5601 13.9873 15.8841 14.043 16.2055C14.1091 16.5929 14.1091 16.5929 14.507 16.5916ZM19.4546 17.2188C19.1203 17.2188 18.8248 17.2188 18.5306 17.2188C18.4607 17.2188 18.4244 17.2474 18.4062 17.3173C18.2935 17.7476 18.1769 18.1765 18.0628 18.6054C18.0434 18.6793 18.0512 18.7246 18.1496 18.7389C18.62 18.8076 18.7211 18.7583 18.9298 18.3242C19.0036 18.17 19.0762 18.0171 19.1488 17.8629C19.246 17.6568 19.3431 17.4521 19.4546 17.2188ZM14.6145 17.2175C14.5549 17.2175 14.4953 17.224 14.437 17.2163C14.2659 17.1916 14.2167 17.2512 14.2543 17.4249C14.3191 17.7216 14.3579 18.0236 14.4136 18.3229C14.494 18.7545 14.4966 18.748 14.9372 18.7402C15.0836 18.7376 15.1095 18.6858 15.0953 18.5549C15.0616 18.2374 15.037 17.9199 15.0149 17.6011C14.9864 17.2176 14.989 17.2175 14.6145 17.2175ZM16.36 17.456C16.4222 17.2577 16.3173 17.1864 16.0931 17.215C15.9765 17.2292 15.856 17.2201 15.7367 17.2175C15.6421 17.215 15.6033 17.2499 15.6123 17.3497C15.6525 17.7709 15.6901 18.192 15.7238 18.6145C15.7315 18.7117 15.7743 18.7428 15.865 18.7376C15.9467 18.7337 16.0283 18.7324 16.1099 18.7376C16.2253 18.7467 16.2642 18.6961 16.2706 18.5834C16.294 18.2206 16.3277 17.8577 16.36 17.456ZM17.4097 17.2175C17.3281 17.2175 17.2464 17.2227 17.1648 17.2163C17.0404 17.2059 16.995 17.2616 16.9872 17.3808C16.9613 17.7579 16.9238 18.1337 16.9004 18.5108C16.8952 18.5886 16.8253 18.7389 16.9898 18.7272C17.1402 18.7156 17.3579 18.8581 17.4265 18.5782C17.5082 18.2478 17.5989 17.9199 17.6883 17.5908C17.7881 17.2175 17.7894 17.2175 17.4097 17.2175Z" fill="#9B827A"/>
<path d="M11.7973 17.7017C11.91 18.0568 12.0189 18.4131 12.0746 18.7825C11.4046 18.785 10.7347 18.7876 10.0647 18.7876C7.10882 18.7876 4.15294 18.7889 1.19706 18.7876C0.567267 18.7876 0.159068 18.4909 0.0255934 17.9401C0.00485952 17.8546 0.000971903 17.7639 0.000971903 17.6758C-0.000323968 12.7605 -0.000323968 7.8466 0.000971903 2.93266C0.000971903 2.29638 0.458414 1.83635 1.09598 1.83376C2.01216 1.82987 2.92705 1.83376 3.84323 1.83376C3.84193 2.19272 3.84193 2.55167 3.84064 2.91063C2.99962 2.91063 2.1573 2.91581 1.31628 2.90544C1.12708 2.90285 1.07266 2.96376 1.08043 3.14648C1.09339 3.47304 1.08432 3.80219 1.08432 4.13004C1.08432 8.56192 1.08432 12.9938 1.08432 17.4257C1.08432 17.5747 1.05063 17.7095 1.29684 17.7095C4.79569 17.7004 8.29584 17.7017 11.7973 17.7017Z" fill="#E2A66E"/>
<path d="M14.2206 14.2564C13.859 14.2564 13.4962 14.2577 13.1346 14.2577C13.1359 14.1605 13.1398 14.0646 13.1398 13.9674C13.1398 10.4219 13.1398 6.87642 13.1398 3.32963C13.1398 2.89421 13.1398 2.89421 12.6979 2.91495L12.6966 2.90069C12.6953 2.54692 12.694 2.19315 12.6927 1.83937C12.8418 1.83808 12.9908 1.83289 13.1385 1.83419C13.7502 1.84197 14.2102 2.29552 14.2141 2.91106C14.2193 3.96849 14.2154 5.02462 14.2154 6.08206C14.2154 8.71008 14.2154 11.3381 14.2154 13.9661C14.2167 14.0633 14.2193 14.1605 14.2206 14.2564Z" fill="#C38858"/>
<path d="M3.83936 2.91176C3.84065 2.55281 3.84065 2.19385 3.84195 1.83489C3.98579 1.27637 4.21257 1.13642 4.78145 1.24268C5.08728 1.2997 5.39699 1.33858 5.70152 1.40078C5.82852 1.42669 5.85573 1.39171 5.85184 1.27508C5.84277 0.980915 5.93607 0.721741 6.13046 0.500147C6.19395 0.502739 6.2432 0.471638 6.29503 0.441833C6.98832 0.0478879 7.67125 0.343346 7.86822 1.1118C7.90061 1.23879 7.84878 1.42151 7.96152 1.48112C8.07685 1.54332 8.23236 1.44743 8.37102 1.42669C8.67943 1.38652 8.98008 1.2997 9.29238 1.29063C9.68762 1.4578 9.82498 1.75844 9.79259 2.1796C9.76667 2.51134 9.7874 2.84567 9.7874 3.18001C9.70317 3.22277 9.61116 3.20333 9.52305 3.20333C7.73474 3.20463 5.94774 3.20463 4.15944 3.20463C3.86009 3.20333 3.86009 3.20204 3.83936 2.91176ZM7.0907 1.60293C7.29026 1.61589 7.48334 1.44743 7.50149 1.24268C7.52092 1.03275 7.34728 0.834482 7.13346 0.818931C6.92871 0.804677 6.72526 0.991282 6.71878 1.19992C6.7123 1.39559 6.89113 1.58997 7.0907 1.60293Z" fill="#C7705D"/>
<path d="M12.7912 21.3792C12.7368 21.107 12.7018 20.8349 12.8249 20.5706C13.2305 19.7567 14.2866 19.8112 14.6508 20.4993C14.6637 20.5252 14.687 20.5446 14.7065 20.568C14.7778 20.8388 14.8063 21.1083 14.7026 21.3779C14.5134 21.7498 14.2218 21.9727 13.7955 21.9947C13.4223 22.0154 13.1372 21.8535 12.9208 21.558C12.878 21.4984 12.8352 21.4388 12.7912 21.3792ZM14.1726 20.9736C14.1687 20.7468 13.986 20.5654 13.7592 20.5641C13.5272 20.5628 13.3342 20.7597 13.3393 20.9917C13.3445 21.2133 13.5363 21.4025 13.7566 21.4038C13.9886 21.4051 14.1765 21.2107 14.1726 20.9736Z" fill="#453530"/>
<path d="M16.8926 20.5674C16.938 20.5091 16.9846 20.4521 17.0274 20.3925C17.2879 20.0297 17.7492 19.8819 18.1807 20.0219C18.6071 20.1605 18.8701 20.5428 18.8636 21.0145C18.8585 21.4512 18.5721 21.8257 18.1431 21.9579C17.731 22.0849 17.271 21.9229 17.0222 21.5627C16.9794 21.5018 16.938 21.4409 16.8952 21.38C16.8239 21.1078 16.8382 20.8383 16.8926 20.5674ZM18.2753 20.9808C18.2727 20.7489 18.0732 20.5584 17.8399 20.5662C17.617 20.5739 17.4317 20.7657 17.4343 20.9873C17.4369 21.2063 17.6274 21.4007 17.8477 21.4059C18.0745 21.4098 18.2779 21.2089 18.2753 20.9808Z" fill="#453530"/>
<path d="M12.6927 1.84046C12.694 2.19424 12.6953 2.54801 12.6966 2.90178C11.9216 2.90567 11.1467 2.90826 10.3718 2.91215C10.3718 2.55319 10.3705 2.19424 10.3705 1.83398C11.1441 1.83658 11.9178 1.83787 12.6927 1.84046Z" fill="#E2A66E"/>
<path d="M16.8927 20.5674C16.8383 20.8382 16.8227 21.1091 16.8953 21.3799C16.1644 21.3799 15.4349 21.3799 14.704 21.3786C14.8076 21.1091 14.7791 20.8382 14.7079 20.5687C15.4361 20.5674 16.1644 20.5674 16.8927 20.5674Z" fill="#9B827A"/>
<path d="M10.3692 1.83402C10.3692 2.19298 10.3705 2.55194 10.3705 2.91219C10.4016 3.14545 10.2928 3.22061 10.0725 3.18821C9.97917 3.17395 9.88328 3.18173 9.78738 3.18043C9.78738 2.8474 9.76665 2.51176 9.79256 2.18002C9.82626 1.76016 9.68889 1.45822 9.29236 1.29105C9.44657 1.24052 9.60337 1.20423 9.76665 1.21071C10.0854 1.22237 10.2824 1.42842 10.3692 1.83402Z" fill="#A25041"/>
<path d="M8.37105 1.42568C8.2324 1.44642 8.07689 1.54231 7.96156 1.48011C7.84882 1.4205 7.90065 1.23778 7.86826 1.11078C7.67128 0.342333 6.98836 0.0481708 6.29507 0.44082C6.24194 0.470625 6.19269 0.501726 6.13049 0.499134C6.40651 0.0948221 6.92486 -0.0891915 7.42636 0.0416914C7.93305 0.172574 8.31922 0.614466 8.36069 1.11338C8.36846 1.21705 8.36717 1.32201 8.37105 1.42568Z" fill="#A25041"/>
<path d="M9.78736 3.179C9.88196 3.18159 9.97915 3.17382 10.0725 3.18678C10.2928 3.21917 10.4016 3.14401 10.3705 2.91076C11.1454 2.90687 11.9204 2.90428 12.6953 2.90039L12.6966 2.91465C12.6953 6.6934 12.694 10.4709 12.6927 14.2496C12.4258 14.2522 12.1588 14.2509 11.8919 14.2587C11.7726 14.2626 11.7221 14.2172 11.6936 14.1032C11.6081 13.765 11.5122 13.4306 11.4202 13.095C11.3787 12.9227 11.3437 12.7477 11.2932 12.5767C11.231 12.368 11.0871 12.2527 10.8655 12.2527C10.136 12.2514 9.40638 12.2527 8.6768 12.2514C8.50704 12.2514 8.37097 12.3149 8.28415 12.4626C8.1105 12.7594 8.32821 13.0859 8.7092 13.0911C9.33381 13.0989 9.95971 13.0976 10.5843 13.1015C10.9653 14.5334 11.3463 15.9654 11.726 17.3973C11.7519 17.4971 11.7726 17.5982 11.7947 17.6992C8.29452 17.7005 4.79308 17.6979 1.29293 17.707C1.04671 17.707 1.08041 17.5722 1.08041 17.4232C1.08041 12.9913 1.08041 8.55946 1.08041 4.12758C1.08041 3.79973 1.08948 3.47187 1.07652 3.14401C1.06874 2.9613 1.12317 2.90039 1.31237 2.90298C2.15339 2.91335 2.9957 2.90817 3.83672 2.90817C3.85746 3.19844 3.85746 3.19844 4.1581 3.19844C5.9464 3.19844 7.73341 3.19844 9.52171 3.19715C9.61242 3.20233 9.70313 3.22177 9.78736 3.179ZM2.67692 11.6281C2.74171 11.7719 2.8713 11.7693 2.99959 11.7693C3.72139 11.7693 4.44449 11.7706 5.16629 11.7693C5.47211 11.7693 5.55375 11.6916 5.55375 11.3883C5.55634 10.6808 5.55505 9.97325 5.55375 9.26571C5.55375 8.90027 5.4747 8.83159 5.09372 8.85362C5.02763 8.84585 4.96154 8.8303 4.89675 8.8303C4.27861 8.829 3.66178 8.8277 3.04365 8.8303C2.70413 8.83159 2.6212 8.91453 2.6199 9.25275C2.6186 9.9603 2.6186 10.6665 2.6199 11.3741C2.6212 11.4622 2.60565 11.5555 2.67692 11.6281ZM2.67951 15.7386C2.75208 15.8552 2.86612 15.8721 2.99052 15.8721C3.72009 15.8708 4.44967 15.8721 5.17925 15.8708C5.46304 15.8695 5.55116 15.7813 5.55246 15.4963C5.55505 14.7745 5.55375 14.0527 5.55246 13.3296C5.55116 13.0211 5.46952 12.9447 5.14814 12.9382C4.473 12.8993 3.79785 12.9291 3.12399 12.9227C2.69247 12.9175 2.60305 13.0095 2.60176 13.4423C2.59917 14.0954 2.60046 14.7485 2.60176 15.4017C2.59917 15.5196 2.59917 15.6388 2.67951 15.7386ZM5.55505 6.23726C5.55505 5.87312 5.55634 5.50768 5.55505 5.14354C5.55375 4.82865 5.47082 4.74441 5.15981 4.74312C4.43801 4.74182 3.71491 4.74182 2.99311 4.74312C2.71709 4.74312 2.62638 4.82605 2.62508 5.09948C2.6212 5.83683 2.6212 6.57289 2.62508 7.31024C2.62638 7.57848 2.72616 7.68086 2.98663 7.68215C3.72398 7.68604 4.46004 7.68604 5.19739 7.68215C5.46045 7.68086 5.55246 7.58108 5.55505 7.31024C5.55764 6.95258 5.55505 6.59492 5.55505 6.23726ZM9.1174 11.4065C9.85475 11.4065 10.5908 11.4065 11.3282 11.4065C11.4253 11.4065 11.5225 11.4117 11.6184 11.4013C11.7895 11.3832 11.8906 11.286 11.8996 11.111C11.9074 10.9361 11.8154 10.8298 11.6495 10.7909C11.586 10.7767 11.5161 10.7806 11.45 10.7806C9.90917 10.7806 8.36838 10.7806 6.82759 10.7806C6.75373 10.7806 6.67598 10.778 6.606 10.7974C6.4492 10.8389 6.37145 10.9503 6.37922 11.1123C6.387 11.2769 6.4803 11.3728 6.63969 11.3987C6.70449 11.4091 6.77317 11.4052 6.84055 11.4052C7.59864 11.4065 8.35802 11.4065 9.1174 11.4065ZM9.0526 9.83589C9.81846 9.83589 10.5856 9.83719 11.3515 9.8346C11.5912 9.8333 11.7234 9.71019 11.7182 9.51063C11.7117 9.31884 11.5886 9.21128 11.3528 9.21128C9.81976 9.20999 8.28804 9.20999 6.75502 9.20999C6.71744 9.20999 6.67986 9.20739 6.64358 9.21387C6.48548 9.24238 6.38959 9.33309 6.37922 9.49767C6.36885 9.67132 6.45568 9.78276 6.62155 9.82293C6.69282 9.83978 6.76928 9.8346 6.84314 9.8346C7.5792 9.83589 8.31525 9.83589 9.0526 9.83589ZM9.02928 6.67656C9.79514 6.67656 10.561 6.67785 11.3282 6.67656C11.5873 6.67656 11.7117 6.57807 11.7182 6.3811C11.7247 6.17765 11.5873 6.05324 11.3294 6.05324C9.81198 6.05065 8.29452 6.05065 6.77705 6.05324C6.51918 6.05324 6.37145 6.17506 6.37145 6.36944C6.37145 6.56771 6.5114 6.67656 6.77576 6.67785C7.52607 6.67656 8.27767 6.67656 9.02928 6.67656ZM9.0526 7.63809C8.27897 7.63809 7.50533 7.6355 6.7317 7.63939C6.47771 7.64069 6.32998 7.80008 6.38052 8.01131C6.42976 8.21735 6.58915 8.264 6.77446 8.264C8.28415 8.264 9.79514 8.2653 11.3048 8.2627C11.5796 8.2627 11.7221 8.14478 11.7169 7.93614C11.7117 7.73399 11.5847 7.63939 11.3061 7.63939C10.5558 7.6368 9.80421 7.63809 9.0526 7.63809ZM9.02669 5.10467C9.61372 5.10467 10.202 5.10467 10.7891 5.10467C10.9899 5.10467 11.1908 5.10726 11.3917 5.10337C11.5821 5.09948 11.7014 5.00618 11.7156 4.80791C11.7286 4.6239 11.6042 4.4982 11.3981 4.48135C11.3463 4.47747 11.2945 4.48006 11.2426 4.48006C9.77699 4.48006 8.31266 4.48006 6.84703 4.48006C6.77317 4.48006 6.69671 4.47487 6.62544 4.49042C6.4168 4.53448 6.31184 4.75867 6.41032 4.94268C6.48807 5.08782 6.62544 5.10726 6.77446 5.10726C7.52477 5.10337 8.27508 5.10467 9.02669 5.10467ZM8.01202 13.9399C7.58827 13.9399 7.16322 13.9373 6.73947 13.9412C6.50881 13.9425 6.37663 14.054 6.37145 14.2393C6.36497 14.4298 6.50751 14.5619 6.74466 14.5632C7.57013 14.5671 8.39689 14.5671 9.22366 14.5632C9.45951 14.5619 9.60594 14.4336 9.60464 14.2457C9.60464 14.0565 9.46339 13.9412 9.21847 13.9399C8.81675 13.9373 8.41503 13.9399 8.01202 13.9399ZM7.97703 16.1377C8.37875 16.1377 8.78047 16.139 9.18219 16.1377C9.45303 16.1364 9.60853 16.0159 9.60335 15.8163C9.59816 15.6245 9.45043 15.5131 9.18996 15.5131C8.38653 15.5118 7.58309 15.5118 6.77965 15.5131C6.5114 15.5131 6.37922 15.6168 6.37663 15.8202C6.37404 16.0263 6.50881 16.1364 6.77187 16.1377C7.17359 16.139 7.57531 16.1377 7.97703 16.1377Z" fill="#E2EFFD"/>
<path d="M12.694 14.2505C12.6953 10.4718 12.6966 6.6943 12.6979 2.91554C13.1397 2.89351 13.1397 2.89351 13.1397 3.33022C13.1397 6.87572 13.1397 10.4212 13.1397 13.968C13.1397 14.0652 13.1372 14.1611 13.1346 14.2583C12.9881 14.2557 12.8404 14.2531 12.694 14.2505Z" fill="#B8DBFE"/>
<path d="M10.5857 13.1043C9.96109 13.1017 9.33519 13.1017 8.71058 13.094C8.32959 13.0901 8.11188 12.7622 8.28553 12.4655C8.37235 12.3177 8.50842 12.2542 8.67818 12.2542C9.40776 12.2542 10.1373 12.2529 10.8669 12.2555C11.0885 12.2555 11.2323 12.3722 11.2945 12.5795C11.3451 12.7493 11.3801 12.9242 11.4215 13.0978C11.1429 13.0991 10.8643 13.1017 10.5857 13.1043Z" fill="#7F6963"/>
<path d="M19.7151 15.0743C19.9159 15.0743 20.1168 15.0781 20.3189 15.073C20.4278 15.0704 20.4744 15.0924 20.4174 15.209C20.2127 15.6302 20.0092 16.0526 19.811 16.4777C19.7695 16.5658 19.7125 16.5943 19.6192 16.593C19.3289 16.5891 19.0386 16.5865 18.7483 16.5943C18.611 16.5982 18.6084 16.5412 18.6369 16.4336C18.7471 16.0319 18.8533 15.6289 18.9557 15.2259C18.9842 15.1144 19.036 15.0665 19.1565 15.0717C19.3419 15.082 19.5285 15.0743 19.7151 15.0743Z" fill="#FCFCFC"/>
<path d="M12.6344 15.0741C12.8015 15.1039 13.0646 14.9782 13.1955 15.1273C13.3095 15.2568 13.2862 15.5057 13.3225 15.7026C13.3627 15.9216 13.3963 16.1419 13.443 16.3596C13.4767 16.5203 13.4611 16.6097 13.259 16.5968C13.0218 16.5799 12.7834 16.5864 12.5463 16.5955C12.4154 16.6007 12.348 16.5657 12.3156 16.4257C12.2236 16.0357 12.1186 15.6482 12.0059 15.2646C11.9592 15.1065 12.0033 15.0651 12.1549 15.0728C12.3013 15.0806 12.4504 15.0741 12.6344 15.0741Z" fill="#FCFCFC"/>
<path d="M17.7622 15.075C17.9034 15.075 18.0447 15.0788 18.1859 15.0737C18.3064 15.0685 18.3492 15.1112 18.3155 15.2318C18.2015 15.6464 18.0887 16.0624 17.9825 16.4784C17.9591 16.5704 17.9099 16.595 17.8244 16.5937C17.6235 16.5911 17.4226 16.5885 17.2231 16.595C17.1103 16.5976 17.0598 16.5665 17.0715 16.4434C17.1077 16.0287 17.1388 15.614 17.1699 15.1994C17.1764 15.1048 17.227 15.0724 17.3164 15.075C17.4641 15.0762 17.6131 15.075 17.7622 15.075Z" fill="#FCFCFC"/>
<path d="M15.9998 15.074C16.0737 15.074 16.1489 15.0727 16.2227 15.074C16.5765 15.0804 16.5545 15.0157 16.5298 15.4148C16.5091 15.7556 16.4676 16.0938 16.4482 16.4346C16.4404 16.5642 16.3847 16.6005 16.2681 16.5927C16.18 16.5862 16.0905 16.5914 16.0011 16.5914C15.5424 16.5914 15.5437 16.5914 15.5126 16.1392C15.4918 15.8359 15.4698 15.5327 15.4374 15.2308C15.4245 15.1115 15.4582 15.0675 15.5774 15.0727C15.7186 15.0792 15.8599 15.074 15.9998 15.074Z" fill="#FCFCFC"/>
<path d="M13.3795 18.736C12.9364 18.736 12.9377 18.736 12.821 18.3019C12.7407 17.9999 12.6616 17.698 12.5748 17.3986C12.5333 17.2574 12.5748 17.212 12.7199 17.2159C12.9506 17.2237 13.1826 17.2289 13.4119 17.2146C13.5636 17.2056 13.6037 17.2781 13.6245 17.4025C13.6867 17.7848 13.7424 18.1671 13.8214 18.5455C13.8577 18.7204 13.7994 18.7528 13.6478 18.7373C13.5597 18.7282 13.469 18.736 13.3795 18.736Z" fill="#FCFCFC"/>
<path d="M14.5069 16.5926C14.1091 16.5926 14.1091 16.5926 14.043 16.2064C13.9873 15.8837 13.9393 15.5611 13.8745 15.241C13.8473 15.1062 13.8875 15.0686 14.0158 15.0725C14.2244 15.079 14.4318 15.079 14.6404 15.0725C14.748 15.0699 14.8037 15.0997 14.8127 15.2177C14.8451 15.6324 14.8827 16.047 14.9216 16.4617C14.9307 16.5602 14.8931 16.5978 14.7972 16.5939C14.7 16.5887 14.6028 16.5913 14.5069 16.5926Z" fill="#FCFCFC"/>
<path d="M19.4546 17.2181C19.3432 17.4513 19.246 17.6561 19.1488 17.8608C19.0762 18.0151 19.0024 18.1693 18.9298 18.3222C18.7225 18.755 18.6214 18.8055 18.1497 18.7369C18.0512 18.7226 18.0434 18.6772 18.0629 18.6034C18.1769 18.1744 18.2935 17.7455 18.4063 17.3153C18.4244 17.2466 18.4607 17.2168 18.5307 17.2168C18.8248 17.2181 19.119 17.2181 19.4546 17.2181Z" fill="#FCFCFC"/>
<path d="M14.6145 17.2175C14.9904 17.2175 14.9878 17.2175 15.015 17.5997C15.037 17.9185 15.0616 18.236 15.0953 18.5535C15.1096 18.6844 15.0837 18.7362 14.9372 18.7388C14.4966 18.7466 14.494 18.7531 14.4137 18.3215C14.358 18.0222 14.3178 17.7203 14.2543 17.4235C14.2167 17.2499 14.266 17.1915 14.437 17.2149C14.494 17.2239 14.5549 17.2175 14.6145 17.2175Z" fill="#FCFCFC"/>
<path d="M16.3601 17.456C16.3277 17.8578 16.294 18.2206 16.2707 18.5835C16.2629 18.6962 16.224 18.7454 16.11 18.7377C16.0283 18.7312 15.9467 18.7325 15.8651 18.7377C15.7743 18.7428 15.7316 18.713 15.7238 18.6146C15.6901 18.1921 15.6525 17.7709 15.6124 17.3498C15.6033 17.25 15.6422 17.215 15.7368 17.2176C15.856 17.2215 15.9765 17.2306 16.0931 17.215C16.3173 17.1865 16.4223 17.2578 16.3601 17.456Z" fill="#FCFCFC"/>
<path d="M17.4097 17.2167C17.7894 17.2167 17.7894 17.2167 17.6883 17.5899C17.6002 17.919 17.5082 18.2469 17.4265 18.5773C17.3578 18.8573 17.1401 18.716 16.9898 18.7264C16.8252 18.7393 16.8952 18.5877 16.9004 18.51C16.9224 18.1329 16.9613 17.7571 16.9872 17.38C16.995 17.2594 17.0403 17.2037 17.1648 17.2154C17.2464 17.2232 17.328 17.2167 17.4097 17.2167Z" fill="#FCFCFC"/>
<path d="M7.09071 1.60281C6.89115 1.58985 6.71232 1.39677 6.7188 1.20109C6.72528 0.992454 6.92873 0.805848 7.13348 0.820103C7.34859 0.834357 7.52094 1.03392 7.5015 1.24385C7.48336 1.44601 7.29028 1.61447 7.09071 1.60281Z" fill="#453530"/>
<path d="M14.1726 20.974C14.1778 21.2111 13.9899 21.4055 13.7566 21.4042C13.5363 21.4029 13.3445 21.2137 13.3393 20.9921C13.3342 20.7601 13.5272 20.5632 13.7592 20.5645C13.986 20.5671 14.1674 20.7472 14.1726 20.974Z" fill="#FCFCFC"/>
<path d="M18.2754 20.9803C18.278 21.2084 18.0745 21.4106 17.8477 21.4054C17.6287 21.4002 17.4369 21.2071 17.4344 20.9868C17.4318 20.7652 17.6171 20.5734 17.84 20.5657C18.0732 20.5579 18.2741 20.7484 18.2754 20.9803Z" fill="#FCFCFC"/>
<path d="M5.55505 6.23762C5.55505 6.59528 5.55764 6.95294 5.55376 7.3093C5.55116 7.58014 5.45916 7.67992 5.19609 7.68122C4.45874 7.68511 3.72269 7.68511 2.98534 7.68122C2.72487 7.67992 2.62509 7.57625 2.62379 7.3093C2.6212 6.57195 2.6199 5.8359 2.62379 5.09855C2.62509 4.82641 2.7158 4.74348 2.99182 4.74218C3.71362 4.74089 4.43671 4.74089 5.15852 4.74218C5.46952 4.74348 5.55246 4.82771 5.55376 5.14261C5.55635 5.50804 5.55505 5.87348 5.55505 6.23762ZM3.77064 7.02032C3.86653 7.01903 3.94169 6.97238 4.00649 6.90888C4.32268 6.59398 4.64146 6.28038 4.95247 5.9603C5.10798 5.80091 5.10798 5.6156 4.97191 5.48601C4.84362 5.3655 4.66479 5.37327 4.51447 5.51711C4.3473 5.67651 4.17884 5.8346 4.02722 6.00825C3.88986 6.16505 3.80303 6.2117 3.69029 5.97974C3.60995 5.81257 3.44537 5.76074 3.27302 5.86052C3.10197 5.95901 3.07475 6.1171 3.16028 6.28427C3.26136 6.48254 3.37799 6.67433 3.49203 6.86482C3.55423 6.9659 3.64753 7.02292 3.77064 7.02032Z" fill="#FBDA36"/>
<path d="M2.67957 15.7381C2.59922 15.6384 2.60052 15.5178 2.60052 15.3999C2.60052 14.7468 2.59793 14.0937 2.60052 13.4406C2.60181 13.0077 2.69252 12.917 3.12275 12.9209C3.7979 12.9287 4.47305 12.8989 5.1469 12.9365C5.17282 13.0816 5.22984 13.2177 5.22854 13.3719C5.22206 13.9965 5.22725 14.6211 5.22466 15.2457C5.22336 15.5787 5.1158 15.6889 4.78536 15.6889C4.16852 15.6902 3.55039 15.6889 2.93356 15.6902C2.84803 15.6915 2.75343 15.6669 2.67957 15.7381ZM5.05878 13.9084C5.06267 13.7697 5.00306 13.6764 4.88125 13.622C4.74907 13.5624 4.63115 13.5974 4.53396 13.692C4.35642 13.8617 4.17759 14.0289 4.01431 14.2116C3.88343 14.3593 3.80049 14.3814 3.69553 14.1831C3.6113 14.0224 3.46098 13.955 3.28085 14.0496C3.12146 14.1339 3.07092 14.314 3.16552 14.4915C3.26271 14.6755 3.36508 14.8557 3.47653 15.0319C3.61648 15.2522 3.82771 15.2742 4.0182 15.0889C4.3318 14.7831 4.63763 14.4695 4.94863 14.1611C5.0212 14.0898 5.06526 14.0082 5.05878 13.9084Z" fill="#85CAFE"/>
<path d="M2.67697 11.6281C2.6057 11.5555 2.62125 11.4622 2.62125 11.3754C2.61995 10.6678 2.61866 9.96157 2.62125 9.25403C2.62254 8.91581 2.70418 8.83287 3.045 8.83157C3.66313 8.82898 4.27996 8.83028 4.89809 8.83157C4.96418 8.83157 5.03027 8.84712 5.09506 8.8549C5.19355 8.97542 5.23113 9.11019 5.22984 9.26699C5.22336 9.90585 5.22854 10.5447 5.22724 11.1836C5.22595 11.492 5.13912 11.5788 4.82812 11.5801C4.19703 11.5814 3.56464 11.5801 2.93355 11.5814C2.84543 11.5814 2.75213 11.5607 2.67697 11.6281ZM5.06915 9.81644C5.06526 9.68685 5.01083 9.58577 4.89291 9.53005C4.76462 9.47044 4.64281 9.49376 4.54302 9.58966C4.36679 9.75942 4.18666 9.92658 4.02338 10.1106C3.88861 10.2622 3.80567 10.3192 3.69423 10.0847C3.6087 9.90456 3.40525 9.86568 3.25882 9.96546C3.09554 10.0769 3.07739 10.2298 3.16681 10.3957C3.26918 10.5849 3.37415 10.7741 3.48948 10.9542C3.61388 11.1499 3.81604 11.1849 3.98062 11.0268C4.32402 10.6976 4.65447 10.3568 4.9901 10.0199C5.04453 9.96287 5.06267 9.8916 5.06915 9.81644Z" fill="#44EF44"/>
<path d="M9.11744 11.4068C8.35806 11.4068 7.59868 11.4068 6.8393 11.4068C6.77192 11.4068 6.70453 11.4107 6.63844 11.4004C6.47905 11.3744 6.38575 11.2785 6.37797 11.114C6.3702 10.952 6.44795 10.8405 6.60475 10.7991C6.67473 10.7809 6.75248 10.7822 6.82634 10.7822C8.36713 10.7809 9.90792 10.7809 11.4487 10.7822C11.5161 10.7822 11.5848 10.7783 11.6483 10.7926C11.8142 10.8302 11.9062 10.9377 11.8984 11.1127C11.8906 11.2876 11.7882 11.3848 11.6172 11.4029C11.5213 11.4133 11.4241 11.4081 11.3269 11.4081C10.5908 11.4068 9.8535 11.4068 9.11744 11.4068Z" fill="#9B827A"/>
<path d="M9.05263 9.83606C8.31658 9.83606 7.57923 9.83606 6.84317 9.83606C6.76931 9.83606 6.69155 9.84254 6.62158 9.8244C6.45571 9.78422 6.36888 9.67278 6.37925 9.49913C6.38962 9.33456 6.48551 9.24385 6.64361 9.21534C6.67989 9.20886 6.71747 9.21145 6.75505 9.21145C8.28807 9.21145 9.81979 9.21015 11.3528 9.21274C11.5887 9.21274 11.7118 9.3203 11.7182 9.51209C11.7247 9.71166 11.5925 9.83476 11.3515 9.83606C10.5844 9.83736 9.81849 9.83606 9.05263 9.83606Z" fill="#9B827A"/>
<path d="M9.02929 6.67636C8.27769 6.67636 7.52608 6.67765 6.77577 6.67636C6.51141 6.67636 6.37146 6.5675 6.37146 6.36794C6.37146 6.17356 6.51789 6.05304 6.77707 6.05175C8.29453 6.04916 9.812 6.04916 11.3295 6.05175C11.5873 6.05175 11.7247 6.17615 11.7182 6.3796C11.7117 6.57658 11.5873 6.67377 11.3282 6.67506C10.561 6.67636 9.79515 6.67636 9.02929 6.67636Z" fill="#9B827A"/>
<path d="M9.05261 7.63787C9.80422 7.63787 10.5558 7.63657 11.3061 7.63787C11.5834 7.63787 11.7117 7.73247 11.7169 7.93463C11.7221 8.14326 11.5796 8.26118 11.3048 8.26118C9.79514 8.26248 8.28416 8.26118 6.77447 8.26248C6.58916 8.26248 6.42977 8.21713 6.38053 8.00979C6.32999 7.79856 6.47642 7.63917 6.73171 7.63787C7.50534 7.63528 8.27898 7.63787 9.05261 7.63787Z" fill="#9B827A"/>
<path d="M9.02668 5.10429C8.27507 5.10429 7.52476 5.103 6.77316 5.10559C6.62413 5.10559 6.48807 5.08615 6.40902 4.94101C6.31053 4.757 6.4155 4.53281 6.62413 4.48875C6.69541 4.4732 6.77186 4.47839 6.84573 4.47839C8.31136 4.47839 9.77569 4.47839 11.2413 4.47839C11.2932 4.47839 11.3463 4.47579 11.3968 4.47968C11.6029 4.49782 11.7273 4.62352 11.7143 4.80624C11.7001 5.00321 11.5808 5.09652 11.3903 5.1017C11.1895 5.10559 10.9886 5.103 10.7878 5.103C10.202 5.10429 9.61371 5.10429 9.02668 5.10429Z" fill="#9B827A"/>
<path d="M8.01208 13.9403C8.4138 13.9403 8.81551 13.9377 9.21723 13.9416C9.46215 13.9429 9.60211 14.0582 9.6034 14.2474C9.6034 14.4353 9.45827 14.5636 9.22242 14.5649C8.39695 14.5688 7.57018 14.5688 6.74342 14.5649C6.50627 14.5636 6.36373 14.4314 6.37021 14.2409C6.37669 14.0556 6.50887 13.9442 6.73823 13.9429C7.16458 13.9377 7.58833 13.9403 8.01208 13.9403Z" fill="#9B827A"/>
<path d="M7.97702 16.1373C7.5753 16.1373 7.17358 16.1386 6.77186 16.1373C6.5088 16.136 6.37403 16.0259 6.37662 15.8198C6.37922 15.6164 6.51139 15.5127 6.77964 15.5127C7.58308 15.5114 8.38652 15.5114 9.18996 15.5127C9.44913 15.5127 9.59816 15.6241 9.60334 15.8159C9.60853 16.0155 9.45432 16.136 9.18218 16.1373C8.78046 16.1386 8.37874 16.1373 7.97702 16.1373Z" fill="#9B827A"/>
<path d="M2.67957 15.7389C2.75473 15.6676 2.84803 15.6922 2.93485 15.6922C3.55169 15.6909 4.16982 15.6922 4.78665 15.6909C5.1171 15.6896 5.22595 15.5808 5.22595 15.2477C5.22725 14.6231 5.22206 13.9985 5.22984 13.3739C5.23114 13.2197 5.17412 13.0836 5.1482 12.9385C5.46958 12.945 5.55121 13.0214 5.55251 13.3298C5.55381 14.0516 5.55381 14.7734 5.55251 15.4965C5.55121 15.7816 5.4631 15.871 5.1793 15.871C4.44973 15.8723 3.72015 15.871 2.99057 15.8723C2.86487 15.8723 2.75213 15.8555 2.67957 15.7389Z" fill="#4EB1FB"/>
<path d="M2.677 11.6282C2.75216 11.5608 2.84547 11.5815 2.93229 11.5802C3.56338 11.5789 4.19576 11.5802 4.82685 11.5789C5.13786 11.5776 5.22468 11.4921 5.22598 11.1824C5.22728 10.5435 5.22339 9.90465 5.22857 9.26578C5.22987 9.10898 5.19229 8.97421 5.0938 8.8537C5.47479 8.83037 5.55384 8.89905 5.55384 9.26578C5.55513 9.97333 5.55513 10.6809 5.55384 11.3884C5.55254 11.6904 5.4722 11.7681 5.16637 11.7694C4.44457 11.7707 3.72147 11.7694 2.99967 11.7694C2.87138 11.7707 2.7418 11.772 2.677 11.6282Z" fill="#2DD52D"/>
<path d="M3.7706 7.02129C3.64749 7.02259 3.55289 6.96687 3.49199 6.86579C3.37666 6.6753 3.26132 6.48351 3.16024 6.28524C3.07472 6.11807 3.10193 5.95998 3.27299 5.86149C3.44534 5.76171 3.60991 5.81484 3.69026 5.98071C3.8017 6.21267 3.88982 6.16602 4.02718 6.00922C4.1788 5.83557 4.34856 5.67748 4.51443 5.51808C4.66475 5.37424 4.84488 5.36517 4.97187 5.48698C5.10794 5.61657 5.10794 5.80188 4.95243 5.96127C4.64143 6.28135 4.32264 6.59495 4.00645 6.90985C3.94295 6.97335 3.86649 7.02 3.7706 7.02129Z" fill="#FCFCFC"/>
<path d="M5.05881 13.9092C5.06528 14.009 5.02122 14.0893 4.94866 14.1619C4.63765 14.4703 4.33182 14.7839 4.01822 15.0898C3.82773 15.2764 3.6165 15.253 3.47655 15.0327C3.3651 14.8578 3.26143 14.6764 3.16554 14.4924C3.07223 14.3148 3.12148 14.1334 3.28087 14.0505C3.461 13.9559 3.61132 14.0233 3.69555 14.1839C3.80051 14.3822 3.88215 14.3589 4.01433 14.2125C4.17761 14.0297 4.35644 13.8613 4.53398 13.6928C4.63246 13.5995 4.74909 13.5632 4.88127 13.6228C5.00438 13.6773 5.06269 13.7719 5.05881 13.9092Z" fill="#FCFCFC"/>
<path d="M5.06918 9.81609C5.0627 9.89125 5.04456 9.96382 4.98883 10.0195C4.6532 10.3565 4.32276 10.6986 3.97935 11.0264C3.81477 11.1845 3.61262 11.1495 3.48822 10.9539C3.37288 10.7724 3.26792 10.5845 3.16554 10.3953C3.07742 10.2308 3.09557 10.0766 3.25755 9.96511C3.40528 9.86404 3.60873 9.90421 3.69296 10.0843C3.80441 10.3189 3.88864 10.2619 4.02211 10.1103C4.1841 9.92753 4.36422 9.75907 4.54176 9.58931C4.64154 9.49342 4.76335 9.47009 4.89164 9.5297C5.01086 9.58413 5.06529 9.68521 5.06918 9.81609Z" fill="#FCFCFC"/>
</g>
<defs>
<clipPath id="clip0_1113_3244">
<rect width="22" height="22" fill="white"/>
</clipPath>
</defs>
</svg>
