<svg width="15" height="15" viewBox="0 0 15 15" fill="none" xmlns="http://www.w3.org/2000/svg">
<path d="M7.35446 10.2014C9.1712 10.2014 10.9874 10.2004 12.8042 10.2019C13.7697 10.203 14.4958 10.8241 14.6517 11.7767C14.8045 12.7104 14.0815 13.6789 13.1421 13.794C12.9775 13.814 12.8108 13.8247 12.6452 13.8247C9.08249 13.8263 5.51977 13.8263 1.95706 13.8258C1.06126 13.8258 0.376712 13.3745 0.104433 12.6096C-0.309884 11.4462 0.55977 10.2091 1.80939 10.2035C3.6574 10.1953 5.50593 10.2014 7.35446 10.2014ZM11.2448 13.2241C11.8648 13.2241 12.3816 12.7063 12.3755 12.0909C12.3693 11.481 11.8571 10.974 11.2459 10.9735C10.6357 10.973 10.1229 11.479 10.1152 12.0898C10.108 12.7043 10.6249 13.2236 11.2448 13.2241ZM6.22688 12.1072C6.22945 12.7258 6.72786 13.2231 7.34574 13.2236C7.97081 13.2241 8.47075 12.7196 8.4687 12.0909C8.46614 11.4743 7.96568 10.975 7.34882 10.9735C6.72632 10.9724 6.22432 11.4795 6.22688 12.1072ZM3.42153 10.9857C2.79698 10.9893 2.30831 11.4784 2.30626 12.1026C2.30421 12.7319 2.8021 13.2277 3.43435 13.2261C4.05992 13.2246 4.55475 12.7212 4.55013 12.0893C4.54654 11.4723 4.04454 10.9822 3.42153 10.9857Z" fill="#283942"/>
<path d="M9.60156 6.12232C9.76752 5.98321 9.92071 5.85569 10.1122 5.6934C10.3292 5.91365 10.5462 6.1455 10.8016 6.41213C11.2356 5.82091 11.6186 5.32244 12.0016 4.80078C12.2313 4.85874 12.3845 5.00945 12.6016 5.13696C12.3462 5.48473 12.0909 5.83251 11.8484 6.18028C11.6313 6.4469 11.4271 6.72512 11.2228 7.00334C11.0824 7.20041 10.8782 7.26996 10.6867 7.11926C10.3165 6.80627 9.97178 6.4585 9.60156 6.12232Z" fill="#283942"/>
<path d="M8.26333 7.99866C8.22542 8.05688 8.19937 8.11482 8.15799 8.1574C7.95919 8.36105 7.75691 8.56122 7.55434 8.76139C7.44466 8.86973 7.36017 8.87495 7.23747 8.77703C7.01493 8.59946 6.79066 8.42333 6.57536 8.23735C6.48334 8.15769 6.40897 8.12901 6.2964 8.19941C6.20785 8.25474 6.10454 8.29297 6.00267 8.31876C5.8875 8.34772 5.85596 8.41522 5.84728 8.52356C5.82499 8.80253 5.79432 9.08091 5.76393 9.35901C5.74339 9.54846 5.69246 9.59713 5.50841 9.59857C5.2335 9.60089 4.9583 9.60089 4.68338 9.59857C4.51149 9.59713 4.45159 9.54093 4.43278 9.36712C4.40181 9.07917 4.36796 8.79123 4.34799 8.50241C4.34075 8.39726 4.304 8.3457 4.20388 8.32281C4.13414 8.30688 4.05832 8.28689 4.00218 8.24576C3.81697 8.11018 3.67865 8.16986 3.5273 8.31267C3.35223 8.47779 3.15545 8.61945 2.96764 8.77066C2.8377 8.87524 2.75957 8.87408 2.64035 8.75705C2.44038 8.56122 2.24274 8.36337 2.04567 8.16435C1.93425 8.05167 1.9302 7.96216 2.03236 7.83441C2.21901 7.60063 2.40682 7.36773 2.59839 7.13801C2.65134 7.07428 2.66437 7.023 2.62501 6.94479C2.56424 6.82457 2.51331 6.69827 2.47077 6.57052C2.44559 6.49462 2.40797 6.4645 2.32868 6.45754C2.04046 6.43234 1.75252 6.40192 1.46488 6.37006C1.24755 6.34602 1.20733 6.30401 1.20357 6.08791C1.19894 5.83212 1.1972 5.57604 1.20241 5.32025C1.20704 5.09517 1.24639 5.05548 1.47298 5.03028C1.75571 4.99899 2.03901 4.96857 2.32261 4.9454C2.40884 4.93845 2.44704 4.90513 2.4725 4.82373C2.5081 4.70902 2.55006 4.59314 2.61054 4.49031C2.6716 4.38631 2.64527 4.31968 2.57495 4.23655C2.38772 4.01581 2.20859 3.78812 2.02772 3.56187C1.93136 3.44166 1.93454 3.35417 2.04219 3.24438C2.2384 3.04479 2.43662 2.84723 2.63514 2.64995C2.75581 2.52973 2.82873 2.52278 2.96243 2.62823C3.19712 2.81362 3.43036 3.00105 3.65955 3.19311C3.72784 3.25046 3.78514 3.26814 3.8653 3.22034C3.93128 3.18094 4.00189 3.13865 4.07539 3.12561C4.28433 3.08795 4.36391 2.97411 4.36622 2.76177C4.36882 2.52133 4.40731 2.28119 4.4322 2.04104C4.45101 1.85883 4.51091 1.80292 4.69062 1.80205C4.9609 1.80031 5.23118 1.80031 5.50118 1.80234C5.68841 1.80379 5.7431 1.8513 5.76336 2.03496C5.79577 2.32754 5.82586 2.6204 5.85249 2.91356C5.86059 3.00076 5.89329 3.04971 5.98155 3.07694C6.10077 3.11402 6.2174 3.16298 6.32881 3.21947C6.40983 3.2606 6.46626 3.25336 6.53572 3.19514C6.76114 3.00626 6.99178 2.82318 7.22155 2.63952C7.36856 2.52191 7.43859 2.52539 7.57112 2.65661C7.7598 2.84317 7.94761 3.03117 8.13426 3.21976C8.27345 3.36054 8.27808 3.42862 8.15683 3.58041C7.97279 3.81013 7.78903 4.04014 7.60006 4.2658C7.54595 4.3304 7.53611 4.38255 7.57402 4.4596C7.63334 4.5804 7.68427 4.70641 7.72797 4.83387C7.75372 4.9089 7.7925 4.93816 7.87121 4.94482C8.16436 4.97031 8.45721 5.00015 8.7492 5.03404C8.95206 5.0578 8.99604 5.11081 8.99749 5.31445C8.99894 5.57517 8.99894 5.83588 8.9972 6.09689C8.99604 6.28953 8.94771 6.34573 8.75412 6.36774C8.46184 6.40077 8.16899 6.43205 7.87584 6.45638C7.78932 6.46363 7.74794 6.49839 7.72479 6.57805C7.70048 6.66119 7.67993 6.75157 7.63161 6.82052C7.51498 6.98679 7.56013 7.10991 7.68688 7.24809C7.85645 7.43262 8.00751 7.63423 8.1632 7.83093C8.20169 7.87786 8.22657 7.93551 8.26333 7.99866ZM5.11543 4.37241C4.36969 4.36748 3.77328 4.95003 3.76807 5.68873C3.76257 6.43002 4.35262 7.0288 5.09083 7.03112C5.82847 7.03372 6.42604 6.44827 6.42922 5.72001C6.43212 4.96741 5.8574 4.37733 5.11543 4.37241Z" fill="#283942"/>
</svg>
