<svg width="15" height="15" viewBox="0 0 15 15" fill="none" xmlns="http://www.w3.org/2000/svg">
<path d="M14.5312 10.875H1.875V1.96875C1.875 1.70977 1.66523 1.5 1.40625 1.5H0.46875C0.209766 1.5 0 1.70977 0 1.96875V11.8125C0 12.3302 0.419824 12.75 0.9375 12.75H14.5312C14.7902 12.75 15 12.5402 15 12.2813V11.3438C15 11.0848 14.7902 10.875 14.5312 10.875ZM13.5937 2.4375H10.135C9.50859 2.4375 9.19482 3.19482 9.63779 3.63779L10.587 4.58701L8.4375 6.73682L6.28799 4.5873C5.92178 4.22109 5.32822 4.22109 4.9623 4.5873L2.9499 6.59971C2.7668 6.78281 2.7668 7.07959 2.9499 7.2627L3.6126 7.92539C3.7957 8.1085 4.09248 8.1085 4.27559 7.92539L5.625 6.57568L7.77451 8.7252C8.14072 9.09141 8.73428 9.09141 9.10019 8.7252L11.9127 5.9127L12.8619 6.86191C13.3049 7.30488 14.0622 6.99111 14.0622 6.36475V2.90625C14.0625 2.64727 13.8527 2.4375 13.5937 2.4375Z" fill="#283942"/>
</svg>
