<svg width="15" height="15" viewBox="0 0 15 15" fill="none" xmlns="http://www.w3.org/2000/svg">
<g clip-path="url(#clip0_1871_3142)">
<path d="M12.5112 3.32715H0V11.6735H12.5112L15 7.50034L12.5112 3.32715ZM3.61534 8.717C3.42599 8.85426 3.17509 8.92304 2.86225 8.92304C2.54826 8.92304 2.2766 8.8441 2.04738 8.68658C1.8182 8.52895 1.70678 8.30642 1.71312 8.01017L1.71689 8.00318H2.34186C2.34186 8.15402 2.38485 8.27218 2.47088 8.34061C2.55711 8.40904 2.68748 8.44096 2.86225 8.44096C2.99524 8.44096 3.09429 8.41321 3.15951 8.36012C3.22467 8.30687 3.25735 8.23663 3.25735 8.1505C3.25735 8.05306 3.22497 7.97749 3.16046 7.92434C3.09585 7.8711 2.97996 7.81458 2.81283 7.7551C2.46339 7.64494 2.2044 7.52683 2.03596 7.40073C1.86753 7.27473 1.78341 7.09272 1.78341 6.8547C1.78341 6.62296 1.88372 6.43542 2.08448 6.29232C2.2851 6.14923 2.53996 6.07773 2.84898 6.07773C3.15538 6.07773 3.40638 6.15657 3.60212 6.3142C3.79775 6.47182 3.89233 6.68124 3.88609 6.92947L3.88222 6.94731H3.25921C3.25921 6.84676 3.2219 6.74112 3.14714 6.67208C3.07247 6.60315 2.96925 6.56529 2.83762 6.56529C2.7084 6.56529 2.60699 6.59204 2.53368 6.64921C2.46027 6.70607 2.42352 6.77561 2.42352 6.85917C2.42352 6.94038 2.46057 7.00463 2.53453 7.05345C2.60865 7.10228 2.74757 7.16316 2.9515 7.23662C3.2655 7.33029 3.50201 7.44538 3.66099 7.58219C3.81978 7.7189 3.89922 7.9069 3.89922 8.14613C3.89932 8.38933 3.80484 8.57948 3.61534 8.717ZM5.87293 8.90821L5.71521 8.35514H4.84341L4.68755 8.90821H4.04181L4.93457 6.09256H5.62405L6.51867 8.90821H5.87293ZM8.5475 8.90821H6.68716V6.09256H7.34079V8.40542H8.5475V8.90821ZM10.8101 6.59536H9.55308V7.19871H10.6089V7.70151H9.55308V8.40542H10.8101V8.90821H8.89945V6.09256H10.8101V6.59536ZM12.9008 7.91519C12.6717 7.91519 12.486 7.72951 12.486 7.50039C12.486 7.27126 12.6717 7.08558 12.9008 7.08558C13.13 7.08558 13.3156 7.27126 13.3156 7.50039C13.3156 7.72946 13.13 7.91519 12.9008 7.91519Z" fill="#283942"/>
<path d="M5.27268 6.84668L4.98584 7.85227H5.5728L5.28405 6.84668H5.27268Z" fill="#283942"/>
</g>
<defs>
<clipPath id="clip0_1871_3142">
<rect width="15" height="15" fill="white"/>
</clipPath>
</defs>
</svg>
