<svg width="15" height="15" viewBox="0 0 15 15" fill="none" xmlns="http://www.w3.org/2000/svg">
<g clip-path="url(#clip0_3125_524)">
<path d="M14.9999 7.4928C14.9999 9.06085 14.5724 10.4313 13.731 11.674C13.6332 11.8188 13.5474 11.973 13.4344 12.1075C13.2873 12.283 13.1105 12.3784 12.8734 12.3222C12.5547 12.2464 12.3805 11.8895 12.5173 11.5905C12.5691 11.4781 12.6499 11.3861 12.7204 11.2865C13.4029 10.3172 13.8338 9.24653 13.918 8.06091C14.0531 6.14961 13.5125 4.45805 12.1782 3.05523C11.1124 1.93434 9.80525 1.28617 8.27202 1.09282C6.51357 0.870519 4.93019 1.3245 3.54229 2.4045C2.24449 3.41552 1.45407 4.76127 1.17275 6.38469C0.918631 7.84968 1.10731 9.26698 1.83993 10.5693C2.83687 12.3426 4.32506 13.4754 6.34613 13.8468C7.79267 14.1125 9.17632 13.9243 10.4792 13.2216C10.6968 13.1041 10.9059 12.9738 11.1124 12.8375C11.256 12.7421 11.4099 12.7148 11.5773 12.76C11.936 12.8579 12.0694 13.2932 11.8323 13.5913C11.7447 13.7003 11.6334 13.7803 11.5161 13.8544C10.2659 14.6423 8.9069 15.0333 7.42636 14.9983C6.28664 14.9719 5.19366 14.7479 4.16952 14.2369C2.16459 13.2361 0.848089 11.6527 0.277802 9.48417C-0.283987 7.34715 -0.0018177 5.31405 1.19825 3.43937C2.04051 2.12343 3.17173 1.13967 4.62762 0.546858C5.31605 0.266635 6.03337 0.104805 6.77109 0.0366654C8.27117 -0.10302 9.70496 0.152502 11.0325 0.870519C12.9491 1.90709 14.1899 3.49388 14.7509 5.60705C14.92 6.24585 15.0024 6.89658 14.9999 7.4928Z" fill="#1E333E"/>
<path d="M3.71468 5.56445C3.83452 5.63515 3.94416 5.69818 4.05294 5.76291C5.07198 6.36594 6.08592 6.97749 7.09391 7.59926C7.14745 7.63248 7.1704 7.66655 7.16955 7.73128C7.167 9.0157 7.16785 10.2993 7.16785 11.5837C7.16785 11.6944 7.1466 11.7089 7.05311 11.651C5.95928 10.9781 4.84761 10.3351 3.76398 9.64599C3.72658 9.62214 3.70703 9.59915 3.70703 9.5506C3.70958 8.23807 3.70958 6.92553 3.71043 5.61385C3.71128 5.60278 3.71213 5.59086 3.71468 5.56445Z" fill="#1E333E"/>
<path d="M11.2605 5.88477C11.2605 6.07045 11.2605 6.24165 11.2605 6.41285C11.2622 7.56269 11.2631 8.71169 11.2665 9.86154C11.2665 9.91605 11.2486 9.94416 11.2019 9.97056C10.1403 10.5617 9.0516 11.1017 7.96542 11.6468C7.89827 11.68 7.89062 11.6621 7.89062 11.5965C7.89232 10.2934 7.89147 8.99021 7.89062 7.68705C7.89062 7.6385 7.89997 7.60954 7.94842 7.58484C9.02865 7.02951 10.108 6.47161 11.1883 5.91543C11.2036 5.90606 11.2206 5.90095 11.2605 5.88477Z" fill="#1E333E"/>
<path d="M10.8715 5.34491C10.6582 5.45989 10.4534 5.57232 10.246 5.67964C9.35869 6.13958 8.47054 6.59782 7.58409 7.05776C7.54074 7.0799 7.50929 7.08331 7.4651 7.05605C6.35682 6.37722 5.26384 5.67368 4.16406 4.98206C4.17426 4.94714 4.20571 4.94374 4.22866 4.93096C5.25024 4.38414 6.27438 3.84329 7.31467 3.3331C7.38181 3.29988 7.43025 3.30414 7.49315 3.34076C8.60907 3.98723 9.70205 4.67373 10.8239 5.31169C10.8375 5.3185 10.8486 5.32872 10.8715 5.34491Z" fill="#1E333E"/>
</g>
<defs>
<clipPath id="clip0_3125_524">
<rect width="15" height="15" fill="white"/>
</clipPath>
</defs>
</svg>
