<svg width="15" height="15" viewBox="0 0 15 15" fill="none" xmlns="http://www.w3.org/2000/svg">
<g clip-path="url(#clip0_3128_531)">
<path d="M11.3999 5.47704C12.2666 6.90688 12.5632 8.38106 12.2582 9.95093C11.6797 12.9302 9.17644 14.9913 6.1676 15.0004C3.25623 15.0096 0.739637 12.9295 0.128193 10.0086C-0.75251 5.80002 3.04377 1.91157 7.25095 2.70531C7.93532 2.83408 8.57761 3.06206 9.19046 3.38856C9.40643 3.50326 9.51021 3.58418 9.26058 3.79247C9.00114 4.00849 8.81812 4.35681 8.52993 4.48628C8.22421 4.62349 7.9234 4.29699 7.60926 4.202C4.9377 3.39701 2.16868 4.98588 1.51376 7.7161C0.875669 10.3759 2.64759 13.0921 5.36894 13.5452C7.21238 13.852 8.78026 13.2539 9.94004 11.7861C11.13 10.281 11.3039 8.59216 10.5508 6.82666C10.4358 6.55787 10.4624 6.40306 10.6777 6.23559C10.806 6.13567 10.9147 6.01041 11.0276 5.8915C11.1412 5.77398 11.2471 5.64873 11.3999 5.47704Z" fill="#1E333E"/>
<path d="M7.43477 5.6272C7.06875 5.98888 6.71464 6.3393 6.36054 6.68973C6.26307 6.78613 6.13756 6.73687 6.02537 6.74743C4.98479 6.84594 4.18052 7.68752 4.14265 8.72191C4.10409 9.77529 4.82772 10.6654 5.85988 10.835C6.89134 11.0039 7.96628 10.4121 8.12755 9.37773C8.26148 8.52277 8.8561 8.13224 9.34273 7.59253C9.82375 8.34475 9.80552 10.201 8.47675 11.3775C7.19286 12.5147 5.2863 12.5407 3.98208 11.4373C2.66383 10.322 2.37073 8.40948 3.29561 6.95571C4.17 5.58076 6.00293 4.97701 7.43477 5.6272Z" fill="#1E333E"/>
<path d="M15.0015 1.98222C14.5906 2.37135 14.2533 2.68729 13.9202 3.00746C13.7435 3.17775 13.5493 3.33677 13.4049 3.53169C13.0844 3.96444 12.6798 4.16287 12.1448 4.07562C11.9351 4.04114 11.8005 4.15513 11.6617 4.29446C10.1057 5.86222 8.54557 7.42506 6.9868 8.9893C6.89635 9.08008 6.8066 9.17296 6.71334 9.26092C6.39499 9.55998 5.99181 9.57405 5.71273 9.29892C5.41823 9.00901 5.42804 8.59807 5.7513 8.27157C6.66355 7.34977 7.58072 6.43289 8.49648 5.51461C9.23063 4.77858 9.95567 4.03199 10.706 3.31355C10.9338 3.09542 10.9044 2.84913 10.8946 2.60426C10.8806 2.26298 10.9934 2.016 11.2424 1.77745C11.8223 1.22297 12.3713 0.637519 12.9961 0C13.0683 0.54745 13.1489 0.993573 13.1784 1.44251C13.1952 1.70216 13.3032 1.77675 13.536 1.79927C13.9826 1.8429 14.4279 1.90904 15.0015 1.98222Z" fill="#1E333E"/>
</g>
<defs>
<clipPath id="clip0_3128_531">
<rect width="15" height="15" fill="white"/>
</clipPath>
</defs>
</svg>
