<svg width="15" height="15" viewBox="0 0 15 15" fill="none" xmlns="http://www.w3.org/2000/svg">
<g clip-path="url(#clip0_1874_3236)">
<path d="M14.342 1.74291C14.3366 1.05715 14.0168 0.536728 13.4123 0.214176C12.7998 -0.111086 12.1872 -0.0622964 11.6234 0.33615C11.1734 0.655991 10.9187 1.09509 10.9241 1.66701C10.9295 2.2552 10.9241 2.84338 10.9241 3.43156C10.9159 3.43156 10.9078 3.43156 10.8997 3.43156C10.8997 4.0875 10.8997 4.74616 10.897 5.40211C10.897 5.478 10.9132 5.49968 10.9918 5.49968C12.0788 5.49697 13.163 5.49697 14.2499 5.49968C14.3285 5.49968 14.3448 5.47529 14.3448 5.40211C14.3448 4.18237 14.3502 2.96264 14.342 1.74291Z" fill="#283942"/>
<path d="M5.25351 3.50459C5.22369 3.58861 5.29146 3.54253 5.32127 3.54253C5.54624 3.54524 5.77393 3.54795 5.9989 3.54795C6.02059 3.54795 6.05582 3.55338 6.04498 3.51001C5.91759 3.16848 5.79019 2.82425 5.65195 2.4502C5.5083 2.82425 5.37819 3.16306 5.25351 3.50459Z" fill="#283942"/>
<path d="M10.6205 8.23966C10.6232 8.199 10.6313 8.16105 10.6313 8.1204C10.6313 7.74906 10.6286 7.38043 10.6286 7.00909C10.6286 5.30417 10.6286 3.59655 10.6286 1.89163C10.6286 1.84826 10.6259 1.80489 10.6232 1.76153C10.6177 1.76695 10.6123 1.76966 10.6096 1.77508C10.6123 1.76966 10.6177 1.76424 10.6232 1.76153C10.6259 1.73984 10.6313 1.71816 10.6313 1.69647C10.6611 1.00258 10.962 0.455056 11.5339 0.0593208C11.5529 0.0457683 11.5827 0.0430577 11.5854 0.00782103C11.5393 -0.00302104 11.4959 -0.00302104 11.4499 0.0105315C11.4201 0.00782103 11.393 0.00511051 11.3631 0.00511051C8.50354 0.00511051 5.64666 0.00511051 2.78706 0.00511051C2.73556 0.00511051 2.68677 0.0132421 2.63527 0.0159526C1.87904 0.0403472 1.0198 0.688161 1.00896 1.69376C0.992698 3.49897 1.00354 5.30146 1.00354 7.10666C1.00354 7.12022 1.00625 7.13648 1.00896 7.15003C1.00083 7.41024 0.998119 7.67316 1.00896 7.93337C1.00625 7.95777 1.00354 7.98487 1.00354 8.00927C1.00354 9.45668 1.00354 10.9041 1.00354 12.3488C1.00354 12.3732 1.00625 12.4003 1.00896 12.4247C1.00625 12.487 1.0442 12.4545 1.0713 12.4518C1.10654 12.4545 1.14178 12.4599 1.17972 12.4599C1.65677 12.4599 2.13383 12.4626 2.61088 12.4599C2.91717 12.4599 3.22616 12.4545 3.53245 12.4518C3.57582 12.4545 3.61919 12.4572 3.66256 12.4572C3.78453 12.5033 3.77098 12.6063 3.76827 12.7039C3.74116 13.4357 3.71406 14.1676 3.68153 14.8994C3.67882 14.9834 3.70593 14.9916 3.77911 14.9916C6.02613 14.9888 8.27315 14.9916 10.5229 14.9888C10.5554 14.9888 10.5961 15.0078 10.6232 14.9726C10.6259 14.9428 10.6313 14.9157 10.6313 14.8858C10.6313 12.7608 10.6313 10.6358 10.6313 8.51071C10.6313 8.4809 10.6259 8.45379 10.6259 8.42398C10.6367 8.36705 10.634 8.30471 10.6205 8.23966ZM8.45475 3.36073C8.6743 3.68328 8.89114 4.01125 9.10799 4.33652C9.13238 4.37175 9.15677 4.4097 9.17033 4.45036C9.19201 4.50999 9.16491 4.55878 9.11883 4.5913C9.07004 4.62654 9.01583 4.63196 8.96704 4.5913C8.93993 4.56962 8.91825 4.53709 8.89656 4.50999C8.67972 4.18473 8.46288 3.85947 8.23791 3.52336C8.12678 3.6887 8.02107 3.8432 7.91807 4.00041C7.80152 4.1766 7.68496 4.35007 7.56841 4.52625C7.50607 4.62112 7.43289 4.64551 7.36241 4.59673C7.28923 4.54794 7.28381 4.47204 7.34615 4.37717C7.57383 4.03565 7.79881 3.69412 8.0292 3.35531C8.06986 3.29568 8.06444 3.26044 8.02649 3.20623C7.80965 2.88639 7.59552 2.56113 7.37868 2.23858C7.36783 2.2196 7.35428 2.20334 7.34344 2.18437C7.2811 2.08679 7.28923 2.01631 7.36241 1.96752C7.4356 1.91874 7.50065 1.94042 7.56841 2.04071C7.6931 2.22773 7.81778 2.41476 7.94246 2.60179C8.03733 2.74273 8.1322 2.88639 8.2352 3.04089C8.45204 2.71292 8.66075 2.40121 8.86946 2.08679C8.89114 2.05426 8.91283 2.01902 8.93993 1.98921C8.98601 1.935 9.04564 1.92687 9.10527 1.96481C9.17033 2.00547 9.19201 2.0651 9.15677 2.13287C9.11883 2.20605 9.07004 2.27381 9.02396 2.34429C8.83151 2.6316 8.64449 2.91892 8.44662 3.20352C8.40867 3.26315 8.41409 3.3011 8.45475 3.36073ZM6.70105 4.47746C6.69834 4.55065 6.6631 4.59402 6.60347 4.61299C6.5357 4.63196 6.47878 4.60757 6.45168 4.54252C6.41373 4.45578 6.38121 4.36904 6.34597 4.2796C6.29718 4.1522 6.24568 4.0221 6.1996 3.89199C6.18063 3.83778 6.15623 3.81068 6.09118 3.81339C5.79844 3.81881 5.503 3.81881 5.21026 3.81339C5.14792 3.81339 5.12082 3.83507 5.10184 3.88928C5.02866 4.08715 4.95276 4.28231 4.87958 4.48017C4.83621 4.5913 4.76845 4.64009 4.68984 4.61028C4.60582 4.58046 4.58142 4.50728 4.62479 4.39073C4.92024 3.61552 5.21568 2.84031 5.51113 2.0651C5.53823 1.99463 5.57076 1.93771 5.65479 1.93771C5.73339 1.93771 5.76592 1.99463 5.79031 2.05968C6.08847 2.8376 6.38392 3.61823 6.68207 4.39615C6.6902 4.42867 6.69563 4.45578 6.70105 4.47746ZM2.52956 1.94042C3.03372 1.94042 3.54058 1.94042 4.04474 1.94042C4.15587 1.94042 4.22363 1.98921 4.22634 2.07052C4.22906 2.15997 4.16671 2.20876 4.04474 2.20876C3.87127 2.20876 3.69508 2.21418 3.52161 2.20605C3.44029 2.20334 3.41861 2.22773 3.42132 2.30905C3.42403 3.00565 3.42403 3.70497 3.42403 4.40157C3.42403 4.44223 3.42674 4.48288 3.4159 4.52083C3.40235 4.57233 3.36169 4.60757 3.30748 4.61841C3.23701 4.62925 3.19364 4.58588 3.15569 4.53438C3.15569 3.82152 3.15298 3.11136 3.15298 2.3985C3.15298 2.35513 3.14756 2.31176 3.14485 2.26839C3.16924 2.19792 3.11774 2.20876 3.0798 2.20876C2.89819 2.20876 2.71659 2.20876 2.53498 2.20876C2.41301 2.20876 2.35067 2.15997 2.35338 2.07052C2.35609 1.9865 2.41843 1.94042 2.52956 1.94042ZM2.18262 5.72972C2.18262 5.74327 2.18533 5.75683 2.18262 5.77038C2.19888 5.75141 2.21785 5.73243 2.24496 5.72972C4.57058 5.72972 6.8962 5.72972 9.22183 5.72972C9.2652 5.72972 9.30856 5.72701 9.35193 5.7243C9.37362 5.73243 9.39259 5.74056 9.41427 5.74599C9.46306 5.79748 9.48746 5.85712 9.45222 5.92488C9.41427 5.99806 9.3438 5.99806 9.27333 5.99806C7.2296 5.99806 5.18316 5.99806 3.13943 5.99806C2.8738 5.99806 2.60817 5.99806 2.34525 5.99806C2.1799 5.99806 2.1284 5.92488 2.18533 5.77038C2.18262 5.75683 2.1799 5.74056 2.18262 5.72972ZM6.12642 11.3784C6.09389 11.4408 6.03697 11.4462 5.97734 11.4462C5.76321 11.4462 5.54908 11.4462 5.33495 11.4462C4.34832 11.4462 3.35898 11.4462 2.37235 11.4462C2.34254 11.4462 2.31272 11.4489 2.28561 11.4462C2.2043 11.4381 2.15822 11.3893 2.15822 11.3107C2.15822 11.2348 2.2043 11.1914 2.28019 11.1833C2.31001 11.1806 2.33711 11.1806 2.36693 11.1806C2.96324 11.1806 3.55956 11.1806 4.15316 11.1806C4.76032 11.1806 5.36747 11.1806 5.97192 11.1806C6.11286 11.1806 6.18334 11.2727 6.12642 11.3784ZM5.96921 10.3566C4.75761 10.3566 3.546 10.3566 2.33169 10.3566C2.24767 10.3566 2.17719 10.3403 2.15822 10.2482C2.13925 10.156 2.19888 10.1099 2.27748 10.0828C2.3344 10.0828 2.38861 10.0828 2.44554 10.0828C2.4889 10.0855 2.53227 10.0909 2.57564 10.0909C3.68153 10.0909 4.79013 10.0909 5.89602 10.0909C5.92042 10.0909 5.94752 10.0909 5.97192 10.0909C6.08576 10.0937 6.1481 10.1424 6.14539 10.2265C6.14539 10.3078 6.08305 10.3566 5.96921 10.3566ZM2.26935 8.99318C2.31272 8.99318 2.3588 8.99047 2.40217 8.99047C2.44554 8.99318 2.4889 8.99861 2.53227 8.99861C3.67069 8.99861 4.81182 8.99861 5.95023 9.00132C6.018 9.00132 6.10744 8.9715 6.13455 9.08263C6.15894 9.1775 6.11829 9.25068 6.02342 9.26695C5.99631 9.27237 5.9665 9.26966 5.93668 9.26966C4.74405 9.26966 3.54872 9.26966 2.35609 9.26966C2.31001 9.26966 2.26122 9.27237 2.21785 9.24797C2.17448 9.22087 2.15551 9.18021 2.15551 9.12871C2.16093 9.05011 2.20972 9.01758 2.26935 8.99318ZM9.23267 12.0723C9.11883 12.4816 8.8803 12.7689 8.43578 12.834C8.38157 12.8421 8.37344 12.8665 8.37344 12.9126C8.37615 12.9776 8.37344 13.0427 8.37344 13.1077C8.37344 13.1972 8.32736 13.246 8.24333 13.2487C8.1593 13.2514 8.11052 13.1999 8.1078 13.1132C8.1078 13.0779 8.1078 13.04 8.1078 13.0047C8.1078 12.8367 8.1078 12.8367 7.94788 12.796C7.7446 12.7472 7.56841 12.6524 7.42204 12.506C7.39223 12.4762 7.36241 12.441 7.33802 12.4057C7.28923 12.3353 7.28923 12.2675 7.3597 12.2133C7.42746 12.1618 7.49523 12.1753 7.54944 12.2431C7.78796 12.5304 8.10238 12.6117 8.45475 12.5548C8.77459 12.5033 9.04835 12.0859 8.97517 11.7688C8.92638 11.5546 8.74478 11.4137 8.48457 11.3757C8.30838 11.3513 8.12949 11.3649 7.95331 11.3324C7.59281 11.2646 7.30278 11.0098 7.23773 10.6981C7.15641 10.3078 7.40578 9.8985 7.81507 9.75213C7.87199 9.73044 7.93433 9.70876 7.99396 9.70334C8.09425 9.69792 8.11594 9.64913 8.10509 9.56239C8.09967 9.52445 8.10509 9.48379 8.10509 9.44313C8.10509 9.32929 8.15117 9.26966 8.2352 9.26695C8.31923 9.26424 8.37072 9.32658 8.37072 9.43771C8.37072 9.48921 8.37615 9.54071 8.37072 9.5895C8.35988 9.6681 8.39783 9.68708 8.46559 9.69792C8.6987 9.72773 8.89928 9.83073 9.09172 9.96084C9.09443 9.96355 9.09985 9.96355 9.10256 9.96626C9.18659 10.034 9.20827 10.1262 9.15677 10.1939C9.10256 10.2617 9.03209 10.259 8.93722 10.1885C8.6472 9.97168 8.32736 9.89308 7.97228 9.98523C7.83133 10.0205 7.71207 10.0937 7.62262 10.2102C7.39494 10.5057 7.47625 10.8363 7.82049 11.0098C7.95602 11.0776 8.10509 11.0938 8.25417 11.0965C8.43307 11.0965 8.60925 11.1155 8.7773 11.1833C9.1378 11.3242 9.33567 11.6983 9.23267 12.0723ZM9.40885 8.16106C9.24893 8.19087 9.0863 8.1719 8.92367 8.17461C8.74749 8.18003 8.5713 8.17732 8.39241 8.17732C8.2623 8.17732 8.1322 8.18003 8.00209 8.18003C7.93704 8.18003 7.86928 8.18003 7.80423 8.17732C7.67412 8.1719 7.54402 8.16648 7.41391 8.18003C7.40036 8.18003 7.3841 8.17732 7.37054 8.17732C7.1022 8.17732 6.83386 8.17732 6.56552 8.17732C6.39747 8.17732 6.22942 8.17732 6.06408 8.17732C5.67918 8.17732 5.29429 8.17732 4.90939 8.17732C4.78471 8.17732 4.66274 8.18003 4.53805 8.18003C4.39982 8.18003 4.26158 8.17732 4.12606 8.17732C3.99595 8.17732 3.86314 8.17732 3.73303 8.17732C3.34814 8.17732 2.96324 8.17732 2.57835 8.17732C2.49161 8.17732 2.40217 8.17732 2.31543 8.17732C2.22869 8.1719 2.17448 8.12853 2.15551 8.04179C2.16906 7.91711 2.26393 7.90356 2.36151 7.89271C2.50788 7.90898 2.65425 7.90898 2.7979 7.89271C3.02288 7.90356 3.24785 7.90356 3.47282 7.89271C3.65443 7.90898 3.83603 7.90627 4.01763 7.89271C4.05287 7.90356 4.08811 7.90085 4.12063 7.89271C4.25345 7.90627 4.38627 7.90356 4.51908 7.89271C4.576 7.90085 4.63292 7.90356 4.68984 7.89C4.84976 7.90627 5.01239 7.90627 5.17232 7.89C5.39729 7.90356 5.62226 7.90356 5.84723 7.89271C5.99089 7.90356 6.13455 7.90627 6.28092 7.89271C6.28634 7.85748 6.28905 7.82224 6.29176 7.787C6.28905 7.82224 6.28363 7.85748 6.28092 7.89271C6.34055 7.90356 6.40018 7.90085 6.4571 7.89271C6.58178 7.90356 6.70376 7.90085 6.82844 7.89271C7.0236 7.90085 7.22147 7.90627 7.41662 7.89C7.54673 7.90627 7.67683 7.89813 7.80694 7.89542C7.88012 7.89542 7.95059 7.89542 8.02378 7.89271C8.14846 7.90085 8.27044 7.90356 8.39512 7.89271C8.65262 7.89542 8.91012 7.89542 9.16762 7.89813C9.25164 7.89813 9.33567 7.88729 9.41698 7.91711C9.48746 8.00385 9.48475 8.08516 9.40885 8.16106ZM9.41698 7.06601C9.36819 7.0904 9.31398 7.08498 9.26248 7.09311C5.19129 7.08227 2.66238 7.07956 2.52685 7.09311C2.51601 7.09311 2.45367 7.08769 2.36693 7.08769C2.29104 7.0904 2.21514 7.0904 2.16635 7.01722C2.13654 6.86272 2.16906 6.8329 2.37506 6.8058C2.57293 6.80851 2.77351 6.81393 2.97138 6.81393C3.35085 6.81393 3.73303 6.81122 4.1125 6.80851C4.1369 6.80851 4.16129 6.80851 4.18569 6.80851C4.37271 6.80851 4.51908 6.80851 4.59769 6.81122C6.83115 6.82206 7.69039 6.81122 9.17304 6.81122C9.21641 6.81122 9.25977 6.8058 9.30314 6.8058C9.32483 6.80851 9.34922 6.81122 9.37091 6.81664C9.48746 6.89524 9.49559 6.94132 9.41698 7.06601Z" fill="#283942"/>
<path d="M3.432 12.7342C2.72455 12.7342 2.01711 12.7369 1.30966 12.7369C1.28256 12.7314 1.25545 12.726 1.22021 12.7423C1.94934 13.4335 2.67034 14.1219 3.39405 14.8077C3.40489 14.805 3.41573 14.805 3.42658 14.8023C3.42658 14.6966 3.42386 14.5881 3.42658 14.4824C3.44555 13.9132 3.46723 13.344 3.48621 12.7748C3.49434 12.726 3.45639 12.7342 3.432 12.7342Z" fill="#283942"/>
</g>
<defs>
<clipPath id="clip0_1874_3236">
<rect width="15" height="15" fill="white"/>
</clipPath>
</defs>
</svg>
