<svg width="15" height="15" viewBox="0 0 15 15" fill="none" xmlns="http://www.w3.org/2000/svg">
<g clip-path="url(#clip0_3235_964)">
<mask id="mask0_3235_964" style="mask-type:luminance" maskUnits="userSpaceOnUse" x="0" y="0" width="15" height="15">
<path d="M15 0H0V15H15V0Z" fill="white"/>
</mask>
<g mask="url(#mask0_3235_964)">
<path d="M6.73929 5.85104C8.52981 5.85104 10.3199 5.85104 12.1104 5.85104C12.946 5.85104 13.4766 6.383 13.477 7.2202C13.4774 7.64899 13.471 8.07778 13.4808 8.50657C13.4833 8.63223 13.443 8.65006 13.3308 8.64922C12.5841 8.64412 11.8368 8.6645 11.0905 8.642C10.1878 8.61483 9.82629 9.09074 9.7116 9.77723C9.62749 10.282 9.62706 10.7898 9.7596 11.289C9.92017 11.8949 10.3212 12.2022 10.9465 12.2039C11.7357 12.2065 12.525 12.2073 13.3143 12.2014C13.4392 12.2005 13.485 12.2192 13.4816 12.3593C13.471 12.8038 13.4795 13.2487 13.4774 13.6932C13.4736 14.4459 12.926 14.9987 12.1754 14.9991C8.55233 15.0008 4.92923 15.0008 1.30657 14.9991C0.554678 14.9987 0.00201779 14.4472 0.00159299 13.697C-0.000530996 11.5162 -0.000530996 9.33528 0.00159299 7.15397C0.00244258 6.40295 0.554253 5.85232 1.30614 5.85147C3.11662 5.84977 4.92796 5.85104 6.73929 5.85104Z" fill="#283942"/>
<path d="M2.20312 5.34256C3.39724 4.29691 4.55991 3.27885 5.72215 2.26122C6.01271 2.00692 6.30454 1.75389 6.59382 1.49789C6.83723 1.28264 7.10954 1.2058 7.41284 1.34335C7.72082 1.48303 7.87672 1.73478 7.88224 2.0723C7.88733 2.40004 7.88054 2.72822 7.88563 3.05639C7.88691 3.13875 7.85505 3.17696 7.78581 3.21135C6.38228 3.90887 4.98003 4.6081 3.57693 5.30647C3.54464 5.32261 3.50853 5.34129 3.4737 5.34129C3.06292 5.34341 2.65214 5.34256 2.20312 5.34256Z" fill="#283942"/>
<path d="M12.4389 9.15476C12.9418 9.15476 13.4448 9.15348 13.9477 9.15518C14.4218 9.15688 14.7451 9.47868 14.7476 9.9512C14.7493 10.2632 14.7489 10.5757 14.7476 10.8877C14.7455 11.3722 14.4252 11.6952 13.9431 11.6957C12.969 11.6969 11.9945 11.6961 11.0205 11.6961C10.5171 11.6961 10.3238 11.5445 10.2252 11.0461C10.1403 10.6165 10.1441 10.183 10.2346 9.75379C10.3259 9.32075 10.5353 9.1556 10.9771 9.15518C11.4644 9.15391 11.9516 9.15476 12.4389 9.15476ZM12.7133 10.4203C12.7111 9.86035 12.2498 9.40524 11.6878 9.40906C11.1339 9.41288 10.6815 9.86799 10.6802 10.422C10.6789 10.9833 11.1364 11.4418 11.6976 11.4414C12.2579 11.4414 12.7154 10.9811 12.7133 10.4203Z" fill="#283942"/>
<path d="M14.5546 2.04593C14.4548 2.04593 14.3333 2.01112 14.2611 2.0557C14.191 2.099 14.2356 2.23104 14.2258 2.32401C14.1162 3.34334 13.6502 4.15507 12.8223 4.76132C12.7407 4.82118 12.688 4.82373 12.6061 4.7592C12.3444 4.55329 12.0768 4.35376 11.8062 4.15932C11.7046 4.08629 11.7131 4.05827 11.8168 3.99502C12.4434 3.61378 12.7522 3.05253 12.7403 2.31892C12.7356 2.03872 12.7314 2.03872 12.4536 2.03872C12.3478 2.03872 12.2412 2.04424 12.1358 2.03659C11.9684 2.02471 11.8928 1.87781 11.9914 1.74281C12.3826 1.20958 12.7751 0.677628 13.1761 0.152042C13.3316 -0.0513148 13.6073 -0.0508902 13.7645 0.154589C14.1659 0.679751 14.5584 1.21213 14.9497 1.74493C15.0508 1.88248 14.9781 2.02428 14.8091 2.03659C14.7249 2.04296 14.6396 2.03787 14.555 2.03787C14.5546 2.04084 14.5546 2.04339 14.5546 2.04593Z" fill="#283942"/>
<path d="M4.69531 5.31577C5.23735 5.04618 5.77897 4.7766 6.32101 4.50659C7.23772 4.0502 8.15188 3.58915 9.07157 3.13913C9.5329 2.91327 10.0524 3.17182 10.1569 3.66387C10.1654 3.70505 10.1701 3.7475 10.1701 3.78953C10.1713 4.27096 10.1701 4.75282 10.1722 5.23425C10.1726 5.30813 10.1658 5.34549 10.0728 5.34506C8.28314 5.34209 6.49347 5.34251 4.7038 5.34251C4.70126 5.3336 4.69828 5.32468 4.69531 5.31577Z" fill="#283942"/>
<path d="M12.204 10.4278C12.2023 10.7089 11.9665 10.9385 11.6849 10.933C11.4109 10.9275 11.1862 10.6966 11.1875 10.4219C11.1892 10.1396 11.4232 9.91157 11.7066 9.91709C11.981 9.92218 12.2057 10.1527 12.204 10.4278Z" fill="#283942"/>
</g>
</g>
<defs>
<clipPath id="clip0_3235_964">
<rect width="15" height="15" fill="white"/>
</clipPath>
</defs>
</svg>
