<svg width="15" height="15" viewBox="0 0 15 15" fill="none" xmlns="http://www.w3.org/2000/svg">
<g clip-path="url(#clip0_3235_925)">
<mask id="mask0_3235_925" style="mask-type:luminance" maskUnits="userSpaceOnUse" x="0" y="0" width="15" height="15">
<path d="M15 0H0V15H15V0Z" fill="white"/>
</mask>
<g mask="url(#mask0_3235_925)">
<path d="M15.0002 0.995414C14.8966 1.56582 14.9151 2.14613 14.8768 2.72181C14.8346 3.3556 14.8039 3.98938 14.7649 4.67003C14.3488 4.22771 13.9679 3.82301 13.5773 3.40775C12.8109 4.17555 12.0867 4.89978 11.3638 5.62533C10.731 6.26043 10.1084 6.9061 9.46536 7.52998C8.53277 8.43444 8.01694 8.44302 7.09522 7.53724C6.64203 7.09227 6.24317 6.58789 5.82067 6.10991C5.77209 6.05511 5.72926 5.99438 5.66406 5.91119C6.19715 5.77915 6.66568 5.56657 7.06198 5.21403C7.17704 5.1117 7.23265 5.15197 7.31702 5.24638C7.62767 5.59232 7.94535 5.931 8.24513 6.25581C9.59 4.8813 10.9259 3.51536 12.2964 2.1151C11.8655 1.69588 11.4437 1.28458 10.9553 0.8099C11.9186 0.733979 12.7796 0.655416 13.6425 0.602601C14.0951 0.574873 14.5444 0.472543 15.0008 0.533941C15.0002 0.687765 15.0002 0.84159 15.0002 0.995414Z" fill="#283942"/>
<path d="M0 8.8457C0.76256 8.8457 1.52512 8.8457 2.28576 8.8457C2.34968 8.94605 2.319 9.0464 2.319 9.13949C2.32156 10.621 2.32156 12.1018 2.32028 13.5832C2.32028 13.9734 2.29919 13.9939 1.92717 13.9945C1.40687 13.9958 0.886564 13.9906 0.366259 13.9972C0.221801 13.9992 0.0933225 13.9866 0 13.8585C0 12.1876 0 10.5166 0 8.8457Z" fill="#283942"/>
<path d="M5.01318 3.38185e-05C6.40216 0.00729591 7.52778 1.17253 7.51947 2.5959C7.51117 4.04238 6.37596 5.19309 4.96908 5.18121C3.60951 5.16999 2.48708 3.99353 2.4922 2.58402C2.49795 1.15603 3.63188 -0.00722828 5.01318 3.38185e-05ZM4.2078 3.24025C4.19437 3.74133 4.19373 3.74595 4.62264 3.81924C4.72491 3.83706 4.81439 3.83508 4.79266 3.98164C4.77796 4.08001 4.82399 4.12358 4.91922 4.11368C4.99976 4.1051 5.14869 4.13877 5.14102 4.05096C5.11929 3.78953 5.31169 3.81792 5.444 3.77302C5.64471 3.70436 5.75976 3.56902 5.8109 3.3604C5.97837 2.67777 5.70863 2.2975 5.03364 2.26977C5.02277 2.26911 5.01254 2.26977 5.00168 2.26977C4.88087 2.26911 4.74728 2.26647 4.74536 2.1001C4.74281 1.91525 4.88663 1.9093 5.01831 1.90864C5.15637 1.90798 5.29827 1.89346 5.4325 1.91789C5.70479 1.96806 5.73611 1.83404 5.73931 1.59439C5.74251 1.3422 5.55906 1.39568 5.44017 1.34748C5.32255 1.29929 5.13335 1.3937 5.14038 1.12896C5.14358 1.02399 5.00041 1.0735 4.92243 1.06492C4.85787 1.05832 4.77924 1.06558 4.79458 1.15867C4.82334 1.33758 4.68975 1.34088 4.58812 1.38445C4.21099 1.54686 4.07165 1.86969 4.16241 2.36682C4.22122 2.68701 4.46539 2.88111 4.83485 2.90091C4.89877 2.90421 4.96269 2.90157 5.02597 2.90157C5.1372 2.90157 5.25033 2.90289 5.24457 3.06398C5.23946 3.2112 5.13335 3.23695 5.02085 3.23827C4.75751 3.24223 4.49416 3.24025 4.2078 3.24025Z" fill="#283942"/>
<path d="M13.7409 9.94119C13.7409 11.1493 13.7416 12.3575 13.7409 13.565C13.7409 13.9888 13.7339 13.9961 13.3382 13.9967C12.8071 13.9974 12.2753 13.9915 11.7441 13.9994C11.5121 14.0033 11.4232 13.907 11.4238 13.6673C11.429 11.8003 11.429 9.93327 11.4219 8.06625C11.4213 7.91375 11.4833 7.82528 11.5766 7.7322C12.1666 7.14661 12.754 6.55838 13.3459 5.97477C13.4092 5.91271 13.4597 5.77671 13.569 5.83415C13.6796 5.89225 13.7486 5.99458 13.7454 6.15236C13.7339 6.67919 13.7409 7.20669 13.7409 7.73352C13.7409 8.46963 13.7409 9.20508 13.7409 9.94119Z" fill="#283942"/>
<path d="M4.86796 7.5293C5.26937 7.9604 5.60175 8.42187 6.02874 8.78894C6.12462 8.8708 6.13484 8.96455 6.13484 9.0781C6.13293 10.6058 6.13101 12.1335 6.13676 13.6611C6.1374 13.8968 6.05878 14.0031 5.82228 13.9992C5.25851 13.9906 4.69474 13.9893 4.13097 13.9998C3.89063 14.0044 3.81968 13.8988 3.82032 13.6631C3.82607 12.0034 3.82415 10.3437 3.82223 8.68397C3.82223 8.55985 3.8331 8.45951 3.93985 8.36774C4.24986 8.10168 4.54772 7.82044 4.86796 7.5293Z" fill="#283942"/>
<path d="M9.94737 9.28418C9.94737 10.7538 9.94801 12.1719 9.94673 13.5899C9.94609 13.9491 9.90199 13.9953 9.56897 13.9966C9.02629 13.9986 8.48362 13.9927 7.94158 13.9993C7.75557 14.0019 7.61942 13.955 7.61878 13.7378C7.61623 12.4201 7.61751 11.103 7.61751 9.75093C8.467 9.95361 9.22572 9.7549 9.94737 9.28418Z" fill="#283942"/>
<path d="M2.58583 4.875C3.03199 5.38401 3.57275 5.69298 4.21131 5.88905C3.74597 6.31554 3.30301 6.72023 2.86197 7.12757C2.80252 7.18237 2.73988 7.20151 2.66126 7.20151C1.80474 7.19953 0.948212 7.20019 0.015625 7.20019C0.899633 6.40004 1.73187 5.64742 2.58583 4.875Z" fill="#283942"/>
</g>
</g>
<defs>
<clipPath id="clip0_3235_925">
<rect width="15" height="15" fill="white"/>
</clipPath>
</defs>
</svg>
