<svg width="15" height="15" viewBox="0 0 15 15" fill="none" xmlns="http://www.w3.org/2000/svg">
<path d="M8.67556 13.7873C7.06772 13.7873 5.45575 13.8002 3.84377 13.7787C3.43511 13.7723 3.18124 13.5002 3.18124 13.0523C3.17917 10.213 3.17917 7.37373 3.18124 4.53444C3.18124 4.02873 3.45987 3.76516 3.92014 3.76301C5.8995 3.75016 7.87886 3.7523 9.85822 3.76087C10.335 3.76301 10.5971 4.05444 10.6013 4.53658C10.6157 6.04944 10.6033 7.5623 10.6157 9.07516C10.6178 9.29587 10.4981 9.35373 10.3515 9.43301C8.60126 10.3652 8.06668 11.7237 8.68794 13.633C8.69826 13.663 8.68382 13.7016 8.67556 13.7873ZM3.82726 8.75801C3.82726 9.69873 4.00889 9.89587 4.8737 9.89587C5.73026 9.89587 5.94697 9.68158 5.94491 8.82658C5.94285 7.87944 5.75502 7.6673 4.91085 7.66516C4.01096 7.66516 3.82726 7.84944 3.82726 8.75801ZM3.82726 5.84587C3.8252 6.79944 3.99445 6.98587 4.86338 6.98801C5.76121 6.98801 5.94491 6.79944 5.94697 5.8823C5.94697 4.99087 5.74264 4.76373 4.9253 4.76158C4.02747 4.7573 3.82726 4.9523 3.82726 5.84587ZM3.82726 11.638C3.8252 12.583 4.01302 12.7952 4.85719 12.7973C5.72819 12.7994 5.94491 12.5787 5.94697 11.6852C5.94904 10.7573 5.76947 10.5709 4.87783 10.5709C4.0027 10.5709 3.82726 10.7487 3.82726 11.638ZM8.20497 8.63158C8.65492 8.63158 9.10487 8.63373 9.55482 8.62944C9.70549 8.6273 9.86235 8.58444 9.87473 8.40016C9.88918 8.18373 9.73232 8.12373 9.55275 8.12159C8.67143 8.11944 7.78805 8.12158 6.90673 8.11944C6.72922 8.11944 6.55791 8.1623 6.55791 8.3723C6.55791 8.58659 6.73542 8.6273 6.90879 8.6273C7.34016 8.63373 7.7736 8.63158 8.20497 8.63158ZM8.28547 5.19873C7.80249 5.19873 7.31952 5.19873 6.83655 5.19873C6.66937 5.19873 6.54759 5.27587 6.56204 5.45801C6.57442 5.61016 6.6962 5.65944 6.83655 5.65944C7.74883 5.65944 8.65905 5.66158 9.57133 5.65944C9.72406 5.65944 9.87473 5.62516 9.87061 5.43016C9.86854 5.24159 9.72819 5.19658 9.57133 5.19658C9.14408 5.19873 8.71478 5.19659 8.28547 5.19873ZM7.74264 9.5123V9.51444C8.02953 9.51444 8.31643 9.52301 8.60332 9.5123C8.75812 9.50587 8.89228 9.42659 8.8737 9.2423C8.85925 9.10087 8.74986 9.02158 8.60538 9.02158C8.01302 9.02158 7.42272 9.0173 6.83036 9.02373C6.67143 9.02587 6.54759 9.1073 6.55998 9.29373C6.5703 9.45016 6.69414 9.50801 6.82829 9.5123C7.1317 9.51873 7.43717 9.5123 7.74264 9.5123ZM7.68898 6.55944C7.97587 6.55944 8.26483 6.55944 8.55172 6.55944C8.70446 6.55944 8.85925 6.52516 8.86751 6.33873C8.8737 6.15873 8.74367 6.09016 8.57855 6.0923C8.0027 6.09444 7.42891 6.0923 6.85306 6.09444C6.69414 6.09444 6.55172 6.14801 6.5641 6.34087C6.57442 6.53159 6.73335 6.55944 6.88196 6.56159C7.15028 6.56587 7.42066 6.56159 7.68898 6.55944ZM7.43923 10.9866C7.24316 10.9866 7.08216 10.9823 6.92117 10.9887C6.76018 10.9952 6.56617 10.9973 6.56204 11.2244C6.55791 11.4473 6.73542 11.473 6.90673 11.4709C7.06772 11.4687 7.2349 11.4966 7.3897 11.4644C7.63738 11.413 8.08526 11.6573 8.077 11.2094C8.07288 10.8344 7.6415 11.0509 7.43923 10.9866ZM7.06152 12.373C7.21013 12.3366 7.50735 12.4587 7.50322 12.1116C7.49909 11.8094 7.23284 11.8844 7.05327 11.8844C6.85719 11.8823 6.56617 11.8073 6.56823 12.133C6.5703 12.4137 6.83242 12.3644 7.06152 12.373Z" fill="#283942"/>
<path d="M8.89067 12.3732C8.88241 10.886 10.0052 9.6946 11.4252 9.68174C12.8226 9.66888 14.0011 10.8903 13.999 12.3475C13.997 13.826 12.8597 14.996 11.4252 14.9939C10.0155 14.9896 8.89686 13.8346 8.89067 12.3732ZM12.4366 13.1596C12.4366 12.6132 12.1043 12.2403 11.4789 12.1139C11.159 12.0496 10.9258 11.921 10.9237 11.5525C10.9237 11.2825 11.062 11.081 11.3282 11.036C11.6647 10.9803 11.8855 11.1346 11.9474 11.4925C11.9784 11.6767 12.0465 11.8417 12.2508 11.7817C12.4387 11.726 12.4345 11.5482 12.4098 11.3639C12.3313 10.796 11.7637 10.6653 11.5037 10.2582C11.4583 10.1896 11.2766 10.2367 11.2395 10.361C11.192 10.5196 11.0888 10.5903 10.9629 10.6675C10.5646 10.9075 10.3664 11.276 10.4634 11.7453C10.5625 12.2275 10.8721 12.5339 11.3571 12.581C11.6832 12.6132 11.9185 12.7246 11.9474 13.0953C11.9722 13.4039 11.8071 13.6075 11.5305 13.6546C11.1941 13.7125 10.9877 13.5325 10.9216 13.181C10.8865 12.9967 10.7999 12.8467 10.5935 12.9303C10.3974 13.0096 10.4366 13.1939 10.4676 13.3632C10.5646 13.8925 11.1177 14.0146 11.353 14.4282C11.4149 14.5375 11.58 14.4539 11.6131 14.351C11.6874 14.1282 11.8752 14.0617 12.0321 13.946C12.2942 13.7489 12.4056 13.4617 12.4366 13.1596Z" fill="#283942"/>
<path d="M9.77066 14.9935C8.14631 14.9935 6.64166 14.9935 5.13495 14.9935C4.48686 14.9935 3.83877 15.0085 3.19068 14.9892C2.47035 14.9678 2.00802 14.4921 2.00596 13.7485C1.99976 10.4614 1.99564 7.17208 2.00802 3.88494C2.01215 2.94423 3.11431 2.25423 3.95229 2.63137C4.16488 2.7278 4.04311 2.9228 4.06787 3.07065C4.09677 3.23994 4.00389 3.26565 3.85322 3.29565C2.97809 3.46923 2.70565 3.81637 2.70565 4.74851C2.70152 7.43994 2.70152 10.1292 2.70565 12.8207C2.70771 13.8299 3.15147 14.2735 4.13599 14.2735C5.46726 14.2757 6.79852 14.2735 8.13186 14.2735C8.99254 14.2757 8.99254 14.2757 9.77066 14.9935Z" fill="#283942"/>
<path d="M6.90057 3.28952C6.2339 3.28952 5.5693 3.27452 4.90263 3.29595C4.61574 3.30452 4.51048 3.21452 4.54556 2.9188C4.56414 2.7538 4.54969 2.58237 4.54969 2.41523C4.54969 1.61809 4.54763 1.60952 5.31336 1.51952C5.5404 1.4938 5.60439 1.38237 5.64979 1.17237C5.81904 0.373088 6.20707 0.00880207 6.86135 0.000230639C7.54247 -0.0104836 7.97178 0.351659 8.12657 1.1788C8.19469 1.54309 8.39283 1.5388 8.62399 1.5088C9.13999 1.44452 9.26796 1.68237 9.25351 2.18809C9.22255 3.28952 9.24525 3.28952 8.19675 3.28952C7.76538 3.28952 7.334 3.28952 6.90057 3.28952ZM7.7984 1.18523C7.78395 0.673088 7.33194 0.240231 6.83865 0.268088C6.35361 0.293802 5.9759 0.718088 5.98622 1.22594C5.99654 1.75094 6.43824 2.1838 6.92946 2.15166C7.39799 2.12166 7.81078 1.66309 7.7984 1.18523Z" fill="#283942"/>
<path d="M11.7557 6.31785C11.7557 7.15571 11.7413 7.99571 11.764 8.83356C11.7723 9.16142 11.6608 9.21071 11.3718 9.23213C10.9941 9.25999 11.0746 9.02642 11.0726 8.81856C11.0705 7.45785 11.0726 6.09713 11.0705 4.73642C11.0684 3.83642 10.763 3.44428 9.91467 3.29856C9.72684 3.26642 9.65667 3.20856 9.68763 3.02642C9.7124 2.88285 9.58856 2.64285 9.85275 2.63642C10.3316 2.62571 10.8311 2.54428 11.2604 2.85928C11.5886 3.09928 11.7578 3.42928 11.7537 3.85571C11.7475 4.67642 11.7516 5.49499 11.7516 6.31571C11.7557 6.31785 11.7557 6.31785 11.7557 6.31785Z" fill="#283942"/>
<path d="M4.87915 9.37315C4.39617 9.47815 4.26202 9.26601 4.25789 8.77315C4.25376 8.27387 4.41888 8.14315 4.87708 8.13887C5.34974 8.13244 5.48802 8.28458 5.48389 8.77529C5.47977 9.25744 5.36625 9.48672 4.87915 9.37315Z" fill="#283942"/>
<path d="M4.89912 5.2927C5.46465 5.14913 5.45639 5.49627 5.48322 5.92056C5.51831 6.46913 5.26238 6.50127 4.84339 6.51842C4.33152 6.53984 4.27579 6.29556 4.25928 5.8477C4.23658 5.2927 4.47806 5.20056 4.89912 5.2927Z" fill="#283942"/>
<path d="M5.45534 11.6663C5.57918 12.1848 5.34182 12.2941 4.88155 12.2941C4.42954 12.2941 4.24791 12.1956 4.25823 11.6791C4.26648 11.1906 4.39858 11.0298 4.87329 11.0384C5.31911 11.0491 5.58124 11.1327 5.45534 11.6663Z" fill="#283942"/>
<path d="M7.31711 1.21128C7.30679 1.48342 7.16024 1.63342 6.88367 1.63771C6.62567 1.64199 6.48119 1.47699 6.46262 1.23485C6.44198 0.954135 6.61329 0.774135 6.87335 0.761278C7.13341 0.750564 7.30472 0.900564 7.31711 1.21128Z" fill="#283942"/>
</svg>
