<svg width="15" height="15" viewBox="0 0 15 15" fill="none" xmlns="http://www.w3.org/2000/svg">
<g clip-path="url(#clip0_3235_950)">
<path d="M12.6765 8.22992C12.6765 10.207 12.6774 12.1841 12.6765 14.1612C12.6765 14.8384 12.5255 15.0006 11.8813 15.0006C9.02624 15.0015 6.17122 15.0015 3.31619 14.9997C2.69152 14.9997 2.5298 14.8311 2.52802 14.1975C2.52713 13.8204 2.54046 13.4423 2.52269 13.0661C2.51114 12.8214 2.59911 12.7507 2.82836 12.7652C3.10827 12.7833 3.39084 12.7797 3.67074 12.7652C4.18878 12.738 4.56732 12.3446 4.5771 11.8396C4.58776 11.3166 4.20478 10.9005 3.66541 10.8706C3.3704 10.8543 3.07361 10.8579 2.77771 10.8697C2.58755 10.8769 2.51647 10.8126 2.52269 10.6131C2.53513 10.2215 2.53513 9.8281 2.52269 9.43648C2.51647 9.23433 2.59377 9.17541 2.78127 9.18176C3.07628 9.19173 3.37395 9.19626 3.66807 9.1745C4.22077 9.13462 4.58687 8.73394 4.5771 8.20726C4.5691 7.69689 4.211 7.32432 3.66896 7.28534C3.37484 7.26449 3.07716 7.26993 2.78215 7.27809C2.59733 7.28262 2.51736 7.22551 2.52447 7.02154C2.53779 6.62993 2.53779 6.23651 2.52447 5.8449C2.51736 5.64365 2.58844 5.5811 2.7786 5.58926C3.05939 5.60195 3.34107 5.60105 3.62187 5.59017C4.18967 5.56751 4.58598 5.15958 4.57799 4.6202C4.57088 4.09443 4.18523 3.72095 3.62898 3.69013C3.27799 3.67018 2.80615 3.84695 2.60533 3.62123C2.37163 3.35925 2.5529 2.87427 2.52891 2.48719C2.52269 2.38203 2.52624 2.27597 2.52802 2.16991C2.53779 1.65139 2.71284 1.47099 3.22911 1.4583C3.52501 1.45105 3.82091 1.4583 4.11681 1.4583C6.69104 1.4583 9.26527 1.45739 11.8386 1.4583C12.5353 1.4583 12.6757 1.59972 12.6757 2.29863C12.6765 4.27573 12.6765 6.25283 12.6765 8.22992ZM7.40635 7.68148C7.18954 7.66517 7.09801 7.52828 7.05803 7.39865C6.91763 6.94268 6.54709 7.09407 6.34183 7.1965C6.08503 7.32432 6.31161 7.58993 6.39336 7.77395C6.53465 8.09304 6.803 8.2961 7.12734 8.3804C7.33438 8.43479 7.44723 8.50278 7.40902 8.73394C7.38058 8.90346 7.44278 8.97507 7.62317 8.97416C7.83198 8.97326 7.82932 8.83728 7.8151 8.70221C7.79289 8.49825 7.8773 8.43207 8.06568 8.36952C8.69213 8.16103 9.00669 7.71502 9.00758 7.10313C9.00847 6.53203 8.74456 6.19662 8.09234 5.92467C7.98304 5.87934 7.80355 5.89657 7.81954 5.69351C7.84353 5.37714 7.7609 5.0517 7.89507 4.6474C7.97505 4.76706 8.03103 4.82326 8.05591 4.89125C8.2203 5.34541 8.59883 5.13963 8.78366 5.03176C8.98626 4.91391 8.76144 4.66462 8.65126 4.50598C8.56951 4.38814 8.44155 4.29839 8.32337 4.21137C8.13766 4.07539 7.81777 4.14338 7.75201 3.80525C7.74579 3.77262 7.46233 3.66837 7.41613 3.90225C7.38858 4.03913 7.31216 4.05636 7.20908 4.08718C6.66971 4.24763 6.35338 4.59573 6.33294 5.18858C6.3125 5.79051 6.60129 6.18212 7.12467 6.42234C7.24641 6.47764 7.42146 6.47401 7.41168 6.69792C7.39569 7.02064 7.40635 7.34608 7.40635 7.68148ZM7.54675 11.4181C8.3447 11.4181 9.14354 11.4226 9.94148 11.4145C10.0997 11.4127 10.3485 11.4952 10.3422 11.2078C10.3369 10.963 10.113 11.0202 9.96281 11.0202C8.38113 11.0165 6.79945 11.0174 5.21777 11.0202C5.06315 11.0202 4.84456 10.9821 4.85789 11.2287C4.87033 11.4653 5.08626 11.4154 5.24087 11.4163C6.0095 11.4199 6.77812 11.4181 7.54675 11.4181ZM7.54586 10.1544C8.34381 10.1544 9.14176 10.159 9.93971 10.1508C10.0979 10.149 10.3458 10.2288 10.3405 9.94232C10.336 9.69121 10.1094 9.7583 9.96281 9.7583C8.38113 9.75286 6.80034 9.75376 5.21865 9.75558C5.06138 9.75558 4.84723 9.72203 4.85878 9.96498C4.87033 10.1998 5.08537 10.1535 5.24087 10.1544C6.00861 10.1563 6.77723 10.1544 7.54586 10.1544ZM7.61695 12.2847C6.819 12.2847 6.02105 12.2829 5.22399 12.2865C5.06937 12.2875 4.85789 12.2439 4.85878 12.4914C4.85967 12.7017 5.04716 12.6845 5.19289 12.6845C6.803 12.6854 8.41312 12.6845 10.0241 12.6827C10.1716 12.6827 10.3529 12.6981 10.3449 12.4787C10.3378 12.2648 10.1556 12.2865 10.0099 12.2865C9.21196 12.2847 8.41401 12.2856 7.61695 12.2847Z" fill="#283942"/>
<path d="M13.6273 0.0703125C13.9285 0.149179 13.9979 0.380338 13.9979 0.65773C13.9979 4.73158 13.9961 8.80634 13.9996 12.8802C13.9996 13.183 13.9108 13.4123 13.614 13.5175C13.2186 13.658 13.0853 13.5637 13.0853 13.1394C13.0853 9.53336 13.0853 5.92636 13.0853 2.32027C13.0853 1.36934 12.7734 1.05569 11.8288 1.05569C9.35855 1.05569 6.88828 1.06022 4.41802 1.04572C4.23497 1.04481 3.92574 1.22702 3.86532 0.893422C3.80667 0.575238 3.79778 0.213541 4.21186 0.073032C4.22875 0.130142 4.24208 0.192691 4.31849 0.190878C7.28104 0.106573 10.2436 0.177281 13.2061 0.152805C13.3501 0.151898 13.5047 0.192691 13.6273 0.0703125Z" fill="#283942"/>
<path d="M2.61132 11.2889C2.95165 11.2889 3.29198 11.2852 3.6323 11.2898C3.94864 11.2934 4.14413 11.4693 4.16368 11.7811C4.185 12.1183 3.99218 12.3395 3.6634 12.3504C2.95431 12.3721 2.24256 12.3812 1.53435 12.3522C1.21535 12.3395 0.96566 12.1537 1.00387 11.7675C1.03852 11.4185 1.26689 11.2852 1.59034 11.2861C1.93066 11.287 2.27099 11.2861 2.61132 11.2861C2.61132 11.288 2.61132 11.2889 2.61132 11.2889Z" fill="#283942"/>
<path d="M2.60841 7.68964C2.93274 7.68964 3.25619 7.69054 3.58052 7.68964C3.92885 7.68964 4.16077 7.85825 4.16521 8.21723C4.16966 8.57167 3.95284 8.76385 3.60007 8.76566C2.92297 8.76929 2.24587 8.77201 1.56877 8.76566C1.22133 8.76204 0.999184 8.58255 1.00807 8.21632C1.01696 7.851 1.24888 7.69054 1.59365 7.68873C1.93131 7.68782 2.26986 7.68964 2.60841 7.68964Z" fill="#283942"/>
<path d="M3.95303 4.22242C4.1894 4.38378 4.21872 4.61403 4.12186 4.85788C4.02767 5.09539 3.82596 5.17154 3.5816 5.17063C2.91605 5.1661 2.24961 5.1661 1.58406 5.17063C1.29705 5.17244 1.08468 5.05822 1.01981 4.76814C0.953169 4.46899 1.05091 4.2333 1.36992 4.14355C2.22651 4.32032 3.09199 4.20429 3.95303 4.22242Z" fill="#283942"/>
<path d="M13.6264 0.0699759C13.5046 0.192355 13.3491 0.151562 13.2061 0.152468C10.2427 0.17785 7.28011 0.106236 4.31757 0.190542C4.24204 0.192355 4.22782 0.129805 4.21094 0.0726954C4.32556 -0.026114 4.4633 0.00470728 4.59392 0.00470728C7.47649 0.00380077 10.3591 0.00289426 13.2416 0.00470728C13.3722 0.00470728 13.51 -0.026114 13.6264 0.0699759Z" fill="#283942"/>
<path d="M3.9503 4.22299C3.08927 4.20486 2.22378 4.3209 1.36719 4.14413C2.23089 4.08611 3.09637 3.95013 3.9503 4.22299Z" fill="#283942"/>
<path d="M8.2916 7.13728C8.30582 7.36754 8.24184 7.5162 8.11833 7.62952C8.04902 7.69388 7.96994 7.80085 7.86064 7.74102C7.77178 7.69297 7.81443 7.58057 7.81177 7.49626C7.80644 7.34759 7.80022 7.19802 7.8171 7.05116C7.83043 6.92969 7.72735 6.73389 7.88908 6.70125C8.04724 6.67043 8.17609 6.82363 8.24984 6.97774C8.28005 7.0421 8.28716 7.11825 8.2916 7.13728Z" fill="#283942"/>
<path d="M7.3954 4.72266C7.3954 5.03993 7.3954 5.33455 7.3954 5.65273C7.12616 5.58565 7.02842 5.40707 7.03997 5.16322C7.04974 4.94203 7.14038 4.7707 7.3954 4.72266Z" fill="#283942"/>
</g>
<defs>
<clipPath id="clip0_3235_950">
<rect width="15" height="15" fill="white"/>
</clipPath>
</defs>
</svg>
