<svg width="15" height="15" viewBox="0 0 15 15" fill="none" xmlns="http://www.w3.org/2000/svg">
<g clip-path="url(#clip0_3235_987)">
<path d="M12.0261 8.23246C13.6805 8.24151 15.0146 9.54955 15.0011 11.1487C14.989 12.7362 13.624 14.0145 11.9561 13.9989C10.3206 13.9834 8.99463 12.6831 9.00002 11.1008C9.00675 9.50814 10.361 8.22469 12.0261 8.23246ZM12.0059 9.13424C11.8781 9.14847 11.6721 9.0799 11.7004 9.30761C11.7286 9.5379 11.5981 9.59612 11.419 9.67893C11.0206 9.86394 10.82 10.287 10.9061 10.692C10.9869 11.0762 11.3315 11.3803 11.7529 11.4294C11.909 11.4476 12.0692 11.4385 12.224 11.4631C12.3802 11.4877 12.4825 11.586 12.4959 11.7464C12.5067 11.8861 12.4448 12.0233 12.3156 12.0543C12.0611 12.1152 11.7811 12.2277 11.5644 11.9586C11.4002 11.7542 11.1431 11.8008 10.999 11.8887C10.8361 11.9871 10.9923 12.1811 11.0744 12.3144C11.1565 12.4477 11.279 12.5589 11.4311 12.6003C11.6223 12.6521 11.7111 12.7297 11.7004 12.9367C11.6883 13.189 11.9117 13.0984 12.049 13.1088C12.1769 13.1191 12.3452 13.1321 12.3129 12.9341C12.2738 12.7064 12.4111 12.6443 12.5888 12.5602C13.0061 12.3623 13.1973 11.9392 13.0977 11.5109C13.0034 11.1008 12.6252 10.8188 12.1473 10.8019C12.0288 10.7981 11.9077 10.8097 11.7932 10.7903C11.6209 10.7605 11.5079 10.6532 11.5011 10.4798C11.4958 10.3258 11.5859 10.1874 11.7354 10.1654C11.9777 10.1318 12.2456 10.0153 12.4461 10.2974C12.5915 10.5018 12.858 10.4591 13.0075 10.3582C13.1663 10.2508 13.0182 10.0619 12.9321 9.92734C12.8325 9.77337 12.6844 9.65564 12.5027 9.61294C12.3573 9.5793 12.2981 9.51849 12.3182 9.38265C12.3559 9.13553 12.2025 9.11224 12.0059 9.13424Z" fill="#283942"/>
<path d="M9.00121 8.58068C9.00121 7.47577 8.9891 6.44591 9.00929 5.41604C9.01467 5.12882 8.93525 5.03049 8.64045 5.06672C8.46007 5.08871 8.27161 5.08095 8.08988 5.06413C7.72777 5.03049 7.53931 4.71351 7.75604 4.44311C8.37795 3.66424 9.02006 2.89831 9.67697 2.14402C9.87351 1.91761 10.1387 1.97583 10.3231 2.19577C10.9423 2.93065 11.5575 3.66812 12.1566 4.41852C12.3854 4.70575 12.2104 5.0279 11.8321 5.06801C11.7541 5.07577 11.6746 5.07189 11.5966 5.07189C10.9477 5.07577 10.9477 5.07577 10.9477 5.7162C10.9477 6.20785 10.9477 6.70079 10.9477 7.19243C10.9477 7.3037 10.9693 7.42402 10.8118 7.46801C10.1225 7.65949 9.5464 8.0334 9.00121 8.58068Z" fill="#283942"/>
<path d="M6.00284 8.45354C6.00284 7.84804 6.00957 7.24254 6.00015 6.63834C5.99476 6.31747 6.1388 6.17516 6.47129 6.18292C6.81187 6.19068 7.15378 6.19068 7.49436 6.18292C7.78512 6.17645 7.948 6.30324 7.94935 6.58141C7.95339 7.82993 7.95339 9.07844 7.94935 10.3257C7.948 10.5805 7.80801 10.7255 7.53474 10.7267C7.16725 10.7293 6.79975 10.7306 6.43226 10.7267C6.14687 10.7242 6.00015 10.5922 6.00149 10.3063C6.00688 9.68912 6.00284 9.07068 6.00284 8.45354Z" fill="#283942"/>
<path d="M2.99728 8.99191C2.99728 8.58824 3.01074 8.18328 2.99324 7.78091C2.97709 7.41735 3.1467 7.27762 3.5115 7.29315C3.83861 7.30609 4.16842 7.3022 4.49687 7.29444C4.79033 7.28797 4.94379 7.41735 4.94379 7.69811C4.94648 8.56884 4.94648 9.43956 4.94379 10.3103C4.94245 10.5859 4.79437 10.7282 4.50361 10.7282C4.14957 10.7269 3.79419 10.7282 3.44016 10.7282C3.12785 10.7282 2.99055 10.5781 2.99593 10.2805C3.00266 9.85099 2.99728 9.42145 2.99728 8.99191Z" fill="#283942"/>
<path d="M4.11968e-05 9.56267C4.11968e-05 9.31038 0.00273347 9.05809 4.11968e-05 8.80709C-0.00265108 8.54704 0.126578 8.40084 0.398498 8.39566C0.778108 8.38919 1.15906 8.39178 1.53868 8.39437C1.81598 8.39696 1.94386 8.55092 1.94655 8.80192C1.95194 9.3065 1.95059 9.80979 1.9479 10.3144C1.94655 10.5667 1.81867 10.7219 1.54406 10.7258C1.16445 10.731 0.783493 10.7336 0.403882 10.7258C0.134655 10.7206 -0.00265108 10.5809 4.11968e-05 10.3182C0.00273347 10.066 4.11968e-05 9.81496 4.11968e-05 9.56267Z" fill="#283942"/>
</g>
<defs>
<clipPath id="clip0_3235_987">
<rect width="15" height="15" fill="white"/>
</clipPath>
</defs>
</svg>
