<svg width="25" height="25" viewBox="0 0 25 25" fill="none" xmlns="http://www.w3.org/2000/svg">
<g clip-path="url(#clip0_3131_537)">
<path d="M0.078953 6.62891C1.09377 7.21974 2.07269 7.79902 3.06024 8.35952C3.33583 8.51554 3.28415 8.75534 3.28415 8.98792C3.28703 10.4051 3.30138 11.8236 3.27698 13.2408C3.26837 13.7002 3.38607 13.9905 3.81525 14.2144C4.63915 14.6449 5.42574 15.1447 6.23386 15.607C6.95011 16.0158 7.12092 15.9234 7.12667 15.113C7.13528 13.8634 7.15107 12.6138 7.11949 11.3643C7.10513 10.7778 7.26733 10.7763 7.70082 11.0479C8.56922 11.5925 9.76059 11.9045 10.2601 12.6774C10.7625 13.456 10.3878 14.6825 10.3922 15.711C10.4051 18.6623 10.3965 21.615 10.3965 24.5562C10.1051 24.6472 9.95006 24.4536 9.77637 24.354C6.67883 22.5612 3.58702 20.7584 0.489472 18.9657C0.212443 18.8053 -0.0014282 18.6782 7.18254e-06 18.2795C0.0186671 14.4831 0.0114902 10.6853 0.014361 6.88893C0.0157964 6.82681 0.0445039 6.7647 0.078953 6.62891Z" fill="white"/>
<path d="M25.0023 19.5905C24.9966 22.5851 22.6038 24.9947 19.6311 25.0004C16.6456 25.0048 14.2169 22.5432 14.2384 19.5298C14.2585 16.5511 16.6771 14.1559 19.6555 14.166C22.6268 14.1747 25.0095 16.5915 25.0023 19.5905ZM18.4355 21.5262C18.5288 21.4684 18.6781 21.3962 18.8044 21.2936C19.9527 20.359 21.0967 19.42 22.2421 18.4825C22.4703 18.2961 22.7445 18.091 22.5019 17.779C22.245 17.4481 21.9995 17.714 21.7785 17.8945C20.7981 18.6948 19.8091 19.4836 18.8417 20.2998C18.5618 20.5367 18.4025 20.5742 18.2015 20.2189C17.9661 19.8043 17.6718 19.4243 17.4092 19.0256C17.2599 18.7974 17.0661 18.6587 16.8149 18.8263C16.5508 19.0011 16.647 19.2308 16.7934 19.4489C17.1939 20.0441 17.5857 20.6436 17.9862 21.2387C18.0795 21.376 18.1785 21.5175 18.4355 21.5262Z" fill="white"/>
<path d="M21.5552 6.58789C21.5552 8.91656 21.5552 11.1196 21.5552 13.324C21.5552 13.9177 21.1561 13.5782 20.9638 13.5436C18.3744 13.0799 16.2199 13.8282 14.6668 15.9748C13.2271 17.9669 13.0994 20.1497 14.1615 22.3657C14.3553 22.7687 14.3166 22.9233 13.9405 23.1241C13.1625 23.5372 12.4032 23.9894 11.6482 24.4459C11.3123 24.6495 11.1587 24.6741 11.1602 24.1931C11.1702 20.4689 11.1688 16.7462 11.1602 13.0221C11.1587 12.7129 11.2793 12.554 11.5348 12.4067C14.8347 10.4998 18.1304 8.57997 21.5552 6.58789Z" fill="white"/>
<path d="M14.051 1.78722C12.1103 2.91689 10.2644 3.99455 8.4171 5.06788C6.99464 5.89563 5.565 6.71037 4.15115 7.55401C3.8124 7.75625 3.55834 7.81115 3.19519 7.58001C2.31243 7.02096 1.39379 6.51969 0.40625 5.94619C0.640217 5.79595 0.80385 5.68183 0.97466 5.58215C4.06647 3.78364 7.16689 1.99669 10.2472 0.176511C10.6592 -0.0661794 10.9462 -0.0546228 11.3324 0.186623C12.1965 0.726898 13.0864 1.22239 14.051 1.78722Z" fill="white"/>
<path d="M21.0782 5.8703C20.9461 6.15344 20.6964 6.21267 20.4997 6.32824C17.4323 8.11952 14.3563 9.89492 11.2932 11.6963C10.9143 11.9188 10.6329 11.926 10.2612 11.6934C9.39421 11.1503 8.49997 10.6504 7.54688 10.0914C7.71912 9.97437 7.83826 9.88481 7.96601 9.80969C11.1195 7.97506 14.2759 6.14766 17.4223 4.30004C17.7711 4.09491 18.0266 4.06024 18.3854 4.28559C19.2639 4.84031 20.1753 5.34447 21.0782 5.8703Z" fill="white"/>
<path d="M17.1568 3.59223C15.5865 4.50376 14.0822 5.37774 12.5765 6.25171C10.821 7.27014 9.05549 8.27124 7.32012 9.3229C6.88233 9.5887 6.57085 9.58004 6.1632 9.30412C5.63355 8.94586 5.06227 8.65261 4.50391 8.32758C4.62304 8.05455 4.87567 7.99822 5.07232 7.88265C8.14403 6.08847 11.2244 4.30874 14.2918 2.50446C14.6664 2.28343 14.9492 2.25165 15.3209 2.50157C15.8879 2.88294 16.4951 3.20364 17.1568 3.59223Z" fill="white"/>
<path d="M4.03681 8.93164C4.77746 9.36213 5.40472 9.74205 6.04634 10.0931C6.28892 10.226 6.37647 10.3863 6.3736 10.6594C6.36212 12.0014 6.36786 13.342 6.36786 14.8053C5.60855 14.3691 4.91956 13.9689 4.22771 13.576C4.02102 13.459 4.03537 13.2712 4.03537 13.0776C4.03681 11.7356 4.03681 10.3936 4.03681 8.93164Z" fill="white"/>
</g>
<defs>
<clipPath id="clip0_3131_537">
<rect width="25" height="25" fill="white"/>
</clipPath>
</defs>
</svg>
