<svg width="25" height="25" viewBox="0 0 25 25" fill="none" xmlns="http://www.w3.org/2000/svg">
<g clip-path="url(#clip0_3132_574)">
<path d="M12.5303 24.9986C9.73509 24.9986 6.93986 25.0023 4.14463 24.9986C2.12752 24.9949 1.00793 23.9184 1.00606 21.9445C0.998601 16.3828 0.996735 10.8211 1.00793 5.25751C1.01166 3.37406 2.11632 2.30308 4.01961 2.27723C4.20621 2.27538 4.39654 2.25138 4.57754 2.28092C5.42656 2.4231 5.74751 2.09996 5.63555 1.24502C5.55158 0.600589 5.77736 0.00785653 6.53121 0.00416349C7.2832 0.000470455 7.53324 0.572891 7.42502 1.2284C7.27014 2.17567 7.69931 2.31046 8.54833 2.29385C11.2801 2.2403 14.0138 2.25507 16.7474 2.29015C17.3576 2.29754 17.5946 2.1332 17.5069 1.53308C17.477 1.32258 17.4901 1.10284 17.5069 0.888645C17.5554 0.355002 17.8689 0.0152426 18.3951 0.000470455C18.925 -0.0143017 19.2366 0.319918 19.3262 0.846175C19.4046 1.31334 19.0818 1.95778 19.5128 2.21075C19.8841 2.42864 20.4794 2.27169 20.9757 2.27723C22.8361 2.29938 23.9706 3.42391 23.9725 5.29074C23.9799 10.8525 23.9333 16.416 24.0005 21.9777C24.0229 23.7688 22.392 25.0023 20.916 25.0005C18.1208 24.9949 15.3256 24.9986 12.5303 24.9986ZM12.5117 8.45567C9.3451 8.45567 6.17855 8.48153 3.01199 8.43721C2.28799 8.42798 2.14991 8.64033 2.15364 9.31246C2.18536 13.5207 2.1667 17.7289 2.1723 21.9389C2.17416 23.2352 2.73582 23.8353 4.01402 23.839C9.66419 23.8501 15.3144 23.8501 20.9664 23.8372C22.1979 23.8335 22.782 23.237 22.7857 22.0091C22.7969 17.74 22.7764 13.469 22.8044 9.19982C22.8081 8.57016 22.6029 8.44275 22.0113 8.44644C18.8466 8.47045 15.6801 8.45567 12.5117 8.45567ZM7.4642 3.93171C7.41009 4.63338 7.5575 5.37753 6.70102 5.49755C5.54225 5.66005 5.73444 4.626 5.51239 3.94094C4.81638 4.90297 4.84064 5.69328 5.53665 6.27309C6.14123 6.77904 7.08541 6.73841 7.64333 6.18261C8.27963 5.54741 8.24978 4.77741 7.4642 3.93171ZM19.3654 3.93171C19.3094 4.67401 19.3934 5.45139 18.494 5.51233C17.449 5.58434 17.5405 4.6777 17.4397 3.93355C16.7194 4.8088 16.7138 5.60465 17.3408 6.20292C17.9398 6.7735 18.9213 6.76611 19.5091 6.18815C20.1248 5.58434 20.1006 4.77187 19.3654 3.93171Z" fill="white"/>
<path d="M10.171 13.5808C8.72859 13.5808 8.74911 13.5808 8.71739 11.7768C8.70433 11.064 8.70433 10.6042 9.69889 10.6541C11.6582 10.7501 11.66 10.6818 11.66 11.7195C11.66 13.5808 11.66 13.5808 10.171 13.5808Z" fill="white"/>
<path d="M19.3188 13.5808C17.8876 13.5808 17.9417 13.579 17.8633 11.7602C17.8242 10.8701 18.0667 10.6209 18.9717 10.6578C20.8209 10.7353 20.8246 10.6818 20.8228 12.1941C20.8228 13.5808 20.8228 13.5808 19.3188 13.5808Z" fill="white"/>
<path d="M10.171 14.709C11.6638 14.709 11.6638 14.709 11.6638 16.2065C11.6638 17.6117 11.6638 17.6117 10.2606 17.6117C8.73047 17.6117 8.73047 17.6117 8.73047 16.0643C8.73233 14.709 8.73233 14.709 10.171 14.709Z" fill="white"/>
<path d="M20.8219 16.2452C20.8219 17.6135 20.8219 17.6134 18.9149 17.6134C17.8867 17.6134 17.8867 17.6134 17.8867 15.7429C17.8867 14.707 17.8867 14.707 19.8423 14.707C20.8219 14.7089 20.8219 14.7089 20.8219 16.2452Z" fill="white"/>
<path d="M5.49032 13.5817C5.27387 13.5817 5.05368 13.554 4.84283 13.5872C4.25691 13.6777 4.13002 13.4247 4.12256 12.8745C4.09644 10.6439 4.07778 10.6716 6.32068 10.666C6.95884 10.6642 7.14544 10.8728 7.0652 11.449C7.03908 11.6281 7.06147 11.8146 7.06147 11.9992C7.05774 13.5817 7.05774 13.5817 5.49032 13.5817Z" fill="white"/>
<path d="M4.14062 16.1531C4.14062 14.7073 4.14062 14.7073 5.95808 14.7091C7.06274 14.7091 7.06274 14.7091 7.06088 16.5759C7.06088 17.6155 7.06087 17.6155 5.20983 17.6137C4.14062 17.6137 4.14062 17.6137 4.14062 16.1531Z" fill="white"/>
<path d="M7.05679 20.2097C7.05679 21.6204 7.05679 21.6204 5.21321 21.6204C4.13281 21.6204 4.13281 21.6204 4.13281 19.8071C4.13281 18.7288 4.13281 18.7288 6.03984 18.7306C7.05679 18.7306 7.05679 18.7306 7.05679 20.2097Z" fill="white"/>
<path d="M11.662 20.1523C11.662 21.6166 11.662 21.6166 10.5798 21.6166C8.72872 21.6166 8.72872 21.6166 8.73058 19.8403C8.73058 18.7324 8.73618 18.821 10.6824 18.701C12.0987 18.6142 11.5631 19.543 11.662 20.1523Z" fill="white"/>
<path d="M14.8149 10.6816C16.2163 10.6816 16.1304 10.6872 16.2424 12.6426C16.3245 14.094 15.3318 13.5345 14.7179 13.5622C13.3165 13.6231 13.3147 13.5807 13.3165 11.8172C13.3184 10.6816 13.3184 10.6816 14.8149 10.6816Z" fill="white"/>
<path d="M14.8467 17.6137C13.3203 17.6137 13.3203 17.6137 13.3203 16.1346C13.3203 14.7091 13.3203 14.7091 14.7926 14.7091C16.2182 14.7073 16.2182 14.7073 16.2182 16.0829C16.2182 16.1439 16.2182 16.2066 16.2182 16.2676C16.2182 17.6137 16.2182 17.6137 14.8467 17.6137Z" fill="white"/>
<path d="M16.2143 20.1467C16.2143 21.6203 16.2143 21.6203 14.6916 21.6166C13.3164 21.6147 13.3164 21.6147 13.3164 20.2686C13.3164 18.7342 13.3164 18.7342 14.8446 18.7305C16.2143 18.7305 16.2143 18.7305 16.2143 20.1467Z" fill="white"/>
</g>
<defs>
<clipPath id="clip0_3132_574">
<rect width="25" height="25" fill="white"/>
</clipPath>
</defs>
</svg>
