<svg width="25" height="25" viewBox="0 0 25 25" fill="none" xmlns="http://www.w3.org/2000/svg">
<path d="M4.35865 21.0145C4.55135 20.0299 4.22781 19.3275 3.66755 18.6764C2.84083 17.7168 2.07241 16.7073 1.23856 15.7561C0.190598 14.5609 -0.200751 13.2347 0.0966269 11.6466C0.510577 9.43231 0.825798 7.19898 1.1886 4.93945C1.70009 5.1585 1.8916 5.55136 1.8809 6.05731C1.8583 7.10731 1.81904 8.15612 1.79168 9.20493C1.78693 9.39421 1.77384 9.52993 1.53713 9.59302C1.08154 9.71445 1.03515 10.0002 1.23618 10.4109C1.84402 11.6502 2.43045 12.9002 3.01807 14.149C3.15368 14.4371 3.30593 14.7192 3.67468 14.5371C4.02321 14.3656 3.87333 14.0728 3.75319 13.8204C3.20482 12.6656 2.6517 11.5121 2.09739 10.3537C2.87057 10.1299 3.51291 10.4097 3.90426 11.1645C4.27539 11.8823 4.62273 12.6133 4.95341 13.3514C5.28409 14.0871 5.74444 14.7037 6.37964 15.2121C7.51919 16.1228 8.04971 17.3323 8.02116 18.793C8.01403 19.1478 7.8808 19.3549 7.54179 19.5073C6.50097 19.9764 5.47917 20.4811 4.35865 21.0145Z" fill="white"/>
<path d="M22.9105 10.2971C22.3859 11.4078 21.8649 12.5078 21.3451 13.609C21.2773 13.7519 21.1929 13.8888 21.1477 14.0376C21.0882 14.2364 21.087 14.4471 21.3166 14.5471C21.545 14.6459 21.7484 14.5935 21.8637 14.3543C22.5204 12.9852 23.1793 11.6162 23.8241 10.2412C23.9549 9.9614 23.8502 9.70426 23.5457 9.63759C23.1746 9.55664 23.1686 9.32331 23.1675 9.02688C23.1615 8.05664 23.1365 7.0864 23.1175 6.11616C23.1068 5.61021 23.2436 5.18997 23.7967 4.93164C24.0239 6.32569 24.2463 7.68045 24.464 9.0364C24.6175 9.99235 24.7507 10.9519 24.922 11.9043C25.1658 13.2578 24.8268 14.4447 23.9597 15.4947C23.1782 16.44 22.4097 17.3959 21.608 18.3245C20.9633 19.0721 20.3792 19.8281 20.5969 20.9959C19.3943 20.4269 18.2952 19.9054 17.1937 19.3864C16.9974 19.2935 16.9867 19.1185 16.976 18.94C16.8987 17.6471 17.2127 16.4245 18.2096 15.6126C19.3872 14.6543 20.0367 13.4114 20.6362 12.0947C20.767 11.8078 20.8907 11.5174 21.0347 11.2388C21.4308 10.4733 21.9958 10.1876 22.9105 10.2971Z" fill="white"/>
<path d="M17.3268 3.44336C17.3268 5.5005 17.3244 7.49336 17.3292 9.48622C17.3292 9.67907 17.2531 9.75407 17.0711 9.81241C15.7043 10.2445 14.3411 10.6898 12.9102 11.1517C12.9102 9.51003 12.9102 7.93145 12.9102 6.35288C12.9102 4.88145 12.9102 4.88026 14.2959 4.42669C15.2856 4.10288 16.2753 3.78384 17.3268 3.44336Z" fill="white"/>
<path d="M12.1026 11.1645C10.6645 10.6978 9.32036 10.2538 7.96908 9.82999C7.75972 9.76451 7.68359 9.67641 7.68359 9.46451C7.68835 7.48713 7.68597 5.50856 7.68597 3.46094C9.11696 3.91808 10.4956 4.36451 11.8802 4.79546C12.086 4.85975 12.1014 4.98475 12.1014 5.15022C12.1014 7.1276 12.1026 9.10618 12.1026 11.1645Z" fill="white"/>
<path d="M10.3067 21.4886C10.3293 21.6279 10.1973 21.6517 10.095 21.7005C8.47608 22.4719 6.85596 23.241 5.2406 24.0195C5.03006 24.1207 4.92776 24.0898 4.8326 23.8743C4.59945 23.3529 4.36274 22.8314 4.0951 22.3267C3.96187 22.0755 4.10699 22.0207 4.27234 21.941C5.87461 21.1791 7.47569 20.4172 9.07797 19.6564C9.19335 19.6017 9.33966 19.4624 9.43244 19.6481C9.7322 20.2505 10.0105 20.86 10.3067 21.4886Z" fill="white"/>
<path d="M20.9931 22.1172C20.6696 22.7863 20.3805 23.4125 20.0629 24.0232C19.9701 24.203 19.8202 24.0458 19.7084 23.9922C18.1276 23.2411 16.5503 22.4815 14.9647 21.7387C14.7137 21.6208 14.6399 21.528 14.7838 21.2577C15.08 20.7042 15.2037 19.8661 15.6486 19.6411C16.0554 19.4351 16.718 20.0506 17.2675 20.3042C18.3928 20.822 19.5038 21.372 20.6208 21.9101C20.7481 21.972 20.8682 22.047 20.9931 22.1172Z" fill="white"/>
<path d="M16.2139 2.95839C15.0411 3.33577 13.867 3.71196 12.6954 4.0941C12.5348 4.14648 12.3849 4.13101 12.2338 4.0822C11.08 3.70839 9.92736 3.3322 8.60938 2.90244C9.42776 2.62982 10.1212 2.45363 10.7672 2.17148C11.9293 1.66434 13.0486 1.64767 14.2132 2.17387C14.8508 2.46196 15.5466 2.62148 16.2151 2.83934C16.2151 2.87863 16.2139 2.9191 16.2139 2.95839Z" fill="white"/>
</svg>
