<svg width="25" height="25" viewBox="0 0 25 25" fill="none" xmlns="http://www.w3.org/2000/svg">
<g clip-path="url(#clip0_3132_567)">
<path d="M8.18645 4.05554C10.3774 4.05554 12.5697 4.05554 14.7607 4.05554C15.9628 4.05554 16.2946 4.37855 16.2986 5.55027C16.3025 6.7743 16.3025 6.7743 17.506 6.773C19.5297 6.77169 20.3132 7.34447 20.9518 9.28121C21.1967 10.0227 21.4745 10.755 21.701 11.5017C21.7984 11.8221 21.9603 11.949 22.2882 12C22.8926 12.0928 23.4877 12.2367 24.0855 12.3714C24.6727 12.5034 24.9914 12.8722 24.994 13.4764C25.0006 14.5644 25.0085 15.6525 24.994 16.7405C24.9835 17.4793 24.599 17.8429 23.8524 17.8717C23.7208 17.8769 23.5851 17.8939 23.4587 17.8704C22.9492 17.7749 22.7741 17.975 22.6727 18.4863C22.3817 19.9549 21.1453 20.937 19.697 20.9461C18.2381 20.9553 16.9503 19.9326 16.6831 18.4497C16.5896 17.9344 16.3815 17.8625 15.9286 17.8664C13.6059 17.886 11.2833 17.8847 8.96066 17.8677C8.56566 17.8651 8.41555 17.9567 8.33919 18.3738C8.0561 19.9222 6.82631 20.9422 5.32396 20.9474C3.8361 20.9514 2.56155 19.9196 2.29689 18.383C2.21263 17.8965 2.0217 17.8664 1.62801 17.869C0.227056 17.8756 0.000585196 17.6363 0.000585196 16.237C0.000585196 12.6473 -0.000731495 9.05759 0.000585196 5.46789C0.000585196 4.41909 0.360042 4.05816 1.41471 4.05685C3.67283 4.05293 5.92964 4.05554 8.18645 4.05554ZM9.77306 11.4455C9.28062 11.9202 8.97515 12.3099 8.58146 12.5715C8.06926 12.9128 8.07716 13.2972 8.36157 13.7196C8.60647 14.0845 9.11867 14.023 9.54791 13.6046C10.3129 12.8578 11.0621 12.0967 11.8284 11.3513C12.2458 10.9446 12.2142 10.5654 11.8152 10.1744C11.0529 9.42506 10.2879 8.67835 9.54001 7.91595C9.19108 7.56025 8.81714 7.36147 8.41029 7.7564C8.00343 8.15265 8.19962 8.53843 8.55117 8.88105C8.91458 9.23544 9.26877 9.59768 9.73093 10.0619C8.16275 10.0619 6.76706 10.0606 5.37137 10.0619C5.02113 10.0619 4.66957 10.0449 4.32328 10.0828C3.95724 10.1234 3.71365 10.3509 3.71102 10.7289C3.70839 11.1316 3.94934 11.3736 4.34698 11.4324C4.53922 11.4612 4.74067 11.4429 4.93686 11.4429C6.48134 11.4455 8.02713 11.4455 9.77306 11.4455ZM18.0959 11.6312C18.3368 11.6312 18.5778 11.6312 18.8187 11.6312C20.0314 11.6312 19.9998 11.6404 19.6456 10.4503C18.932 8.04934 18.8016 8.46258 16.7094 8.40242C16.3433 8.39196 16.2841 8.52927 16.292 8.84313C16.3104 9.60422 16.3315 10.3666 16.2867 11.1251C16.2591 11.5933 16.4592 11.6626 16.849 11.6377C17.2624 11.6116 17.6798 11.6325 18.0959 11.6312ZM6.74862 17.937C6.76179 17.1367 6.11793 16.4685 5.32396 16.458C4.55502 16.4489 3.86376 17.1354 3.85585 17.9161C3.84927 18.6615 4.49445 19.3075 5.27525 19.3363C6.08896 19.3664 6.73546 18.7531 6.74862 17.937ZM18.2473 17.8769C18.2341 18.689 18.8635 19.3402 19.664 19.3415C20.4383 19.3429 21.1005 18.7282 21.1348 17.975C21.1703 17.2047 20.5107 16.4933 19.7312 16.4606C18.9504 16.4305 18.2604 17.087 18.2473 17.8769Z" fill="white"/>
</g>
<defs>
<clipPath id="clip0_3132_567">
<rect width="25" height="25" fill="white"/>
</clipPath>
</defs>
</svg>
