<svg width="22" height="22" viewBox="0 0 22 22" fill="none" xmlns="http://www.w3.org/2000/svg">
<g clip-path="url(#clip0_4202_31855)">
<path opacity="0.4" d="M0 14.6992C0.0757671 14.6851 0.151534 14.6592 0.227301 14.6592C1.30698 14.6569 2.38666 14.6616 3.46634 14.6534C3.66035 14.6516 3.70685 14.7215 3.70627 14.9079C3.70111 17.1044 3.70053 19.3009 3.70685 21.4975C3.70742 21.7002 3.64715 21.762 3.45142 21.7608C2.38609 21.7531 1.32076 21.7573 0.255427 21.7561C0.170476 21.7561 0.084951 21.7443 0 21.7384C0 19.392 0 17.0456 0 14.6992ZM2.83782 16.1351C2.83495 15.5803 2.3947 15.1347 1.84941 15.1353C1.30756 15.1359 0.863859 15.5867 0.860989 16.1387C0.858119 16.6906 1.32937 17.1685 1.86433 17.1567C2.40503 17.145 2.84069 16.6877 2.83782 16.1351Z" fill="#595B5F"/>
<path d="M5.59381 14.9285C5.39119 14.3448 5.27869 13.7664 5.24425 13.174C5.10994 10.837 5.96633 8.86965 7.42083 7.13511C8.27321 6.11884 9.28631 5.30007 10.4343 4.65821C10.5158 4.61295 10.6386 4.60061 10.7293 4.62353C12.1597 4.98678 13.5872 4.99089 15.0153 4.61001C15.0825 4.59179 15.1749 4.59826 15.234 4.63294C17.569 5.98953 19.3375 7.85397 20.16 10.526C20.7467 12.4322 20.5595 14.2831 19.6417 16.0535C19.5677 16.1963 19.4753 16.268 19.3226 16.3051C18.2113 16.5743 17.1029 16.854 15.9917 17.1233C15.9228 17.1397 15.8321 17.1138 15.765 17.0798C15.5365 16.9634 15.3276 16.7906 15.0882 16.7171C13.0574 16.0935 11.0244 15.4798 8.98726 14.8785C7.86625 14.547 6.7395 14.6017 5.59381 14.9285ZM13.2182 14.9761C13.4684 14.8832 13.6883 14.8315 13.8794 14.7257C14.4247 14.423 14.7157 13.9498 14.6503 13.3039C14.59 12.7114 14.2381 12.3393 13.7009 12.1489C13.4856 12.0725 13.2572 12.0378 13.0414 11.9625C12.7664 11.8667 12.4743 11.7886 12.2332 11.6328C11.8268 11.3695 11.8589 10.7676 12.2688 10.5113C12.7997 10.1792 13.7692 10.3509 13.9024 11.018C13.9437 11.2266 14.1624 11.3172 14.3438 11.2584C14.5349 11.1967 14.6325 11.0015 14.5757 10.7829C14.4494 10.2956 14.1463 9.96468 13.6986 9.77189C13.5494 9.70783 13.3904 9.66727 13.2073 9.60673C13.2073 9.38513 13.2216 9.15825 13.2032 8.93372C13.186 8.72506 13.0328 8.60985 12.8342 8.61867C12.6407 8.6269 12.5076 8.76209 12.4978 8.97193C12.4909 9.12534 12.4857 9.28051 12.4978 9.43333C12.5104 9.59262 12.457 9.65316 12.3003 9.69842C11.3131 9.98526 10.905 11.1267 11.4933 11.932C11.7493 12.2823 12.1115 12.4675 12.5093 12.5862C12.7831 12.6679 13.0615 12.7343 13.337 12.809C13.399 12.826 13.4604 12.8454 13.5201 12.8695C13.7594 12.9659 13.915 13.1399 13.9357 13.4061C13.9563 13.6777 13.8341 13.8869 13.6119 14.0321C13.046 14.4024 12.2579 14.1914 11.8744 13.5666C11.8142 13.4679 11.7723 13.3568 11.7126 13.258C11.6058 13.0811 11.4204 13.0241 11.2499 13.1081C11.0668 13.1981 10.9934 13.3844 11.0737 13.5866C11.266 14.0703 11.5547 14.5135 12.0334 14.6869C12.48 14.8491 12.5351 15.1177 12.5007 15.5174C12.4777 15.7896 12.6247 15.9412 12.8497 15.943C13.0735 15.9448 13.2073 15.7972 13.2164 15.5245C13.2233 15.3341 13.2182 15.1448 13.2182 14.9761Z" fill="#292D32"/>
<path opacity="0.4" d="M16.2156 17.8388C17.1151 17.6149 18.0145 17.388 18.9157 17.1664C19.6165 16.9942 20.3174 16.8172 21.0228 16.6691C21.218 16.628 21.439 16.6515 21.6358 16.6979C21.9441 16.7708 22.0635 17.0335 21.9682 17.3445C21.8585 17.7013 21.602 17.9093 21.2805 18.0522C20.1142 18.57 18.9484 19.0896 17.782 19.6068C16.3735 20.2316 14.9597 20.8453 13.5563 21.483C12.2223 22.089 10.8694 22.1525 9.47751 21.7275C7.86918 21.2367 6.25626 20.7618 4.64334 20.2892C4.47402 20.2399 4.42465 20.1699 4.4258 19.9912C4.43441 18.7228 4.43039 17.4544 4.43039 16.186C4.43039 16.1137 4.43039 16.042 4.43039 15.9485C5.4653 15.7534 6.45372 15.3842 7.51388 15.403C8.26868 15.4166 8.97814 15.6381 9.69104 15.8527C11.3895 16.3635 13.0868 16.8754 14.7847 17.388C14.8736 17.415 14.9626 17.4438 15.047 17.4832C15.3678 17.6337 15.5159 17.877 15.4689 18.1685C15.4235 18.4518 15.1451 18.7052 14.8139 18.6946C14.4885 18.684 14.1613 18.6282 13.8422 18.5582C12.0966 18.1762 10.3534 17.7835 8.60906 17.395C8.56716 17.3856 8.52468 17.3797 8.48163 17.375C8.2463 17.3504 8.09017 17.455 8.04597 17.6648C8.00522 17.8588 8.12576 18.041 8.35019 18.0939C8.83694 18.2091 9.32598 18.3161 9.81445 18.4236C11.343 18.761 12.8698 19.1066 14.4007 19.4305C15.2232 19.6045 16.0067 19.1072 16.1777 18.3314C16.2116 18.1768 16.203 18.0128 16.2156 17.8388Z" fill="#595B5F"/>
<path d="M12.8401 4.19548C12.2891 4.11848 11.7375 4.04618 11.1881 3.95978C11.121 3.9492 11.036 3.87749 11.0079 3.81283C10.6561 2.99641 10.3094 2.17822 9.97014 1.35591C9.80023 0.943294 9.87485 0.564764 10.1768 0.240897C10.4247 -0.0241916 10.7628 -0.0718017 11.0791 0.104532C11.148 0.142738 11.2163 0.18447 11.2794 0.231493C11.6186 0.481887 11.9487 0.464253 12.2937 0.230317C12.444 0.128631 12.6289 0.0151896 12.7953 0.0198919C13.002 0.0257697 13.2275 0.112761 13.4049 0.227966C13.7625 0.461314 14.0885 0.470131 14.441 0.227378C14.8606 -0.0618095 15.1665 -0.0682751 15.4632 0.173302C15.791 0.440154 15.9138 0.919782 15.7405 1.34827C15.4782 1.99718 15.1998 2.63904 14.9289 3.28383C14.926 3.2903 14.922 3.29676 14.9191 3.30323C14.6201 4.00974 14.6206 4.01385 13.8756 4.08674C13.5341 4.12024 13.1908 4.13494 12.8481 4.15786C12.8458 4.17138 12.843 4.18372 12.8401 4.19548Z" fill="#292D32"/>
<path d="M2.10972 16.1381C2.09078 16.3174 1.99779 16.4114 1.84166 16.4049C1.68611 16.3985 1.58968 16.2962 1.596 16.1328C1.60288 15.9711 1.69874 15.8783 1.86061 15.883C2.02592 15.8889 2.09537 15.9952 2.10972 16.1381Z" fill="#292D32"/>
</g>
<defs>
<clipPath id="clip0_4202_31855">
<rect width="22" height="22" fill="white"/>
</clipPath>
</defs>
</svg>
