<svg width="22" height="22" viewBox="0 0 22 22" fill="none" xmlns="http://www.w3.org/2000/svg">
<g clip-path="url(#clip0_4202_31838)">
<path d="M10.8159 12.3283C13.5966 12.3283 16.3773 12.3283 19.158 12.3283C19.5433 12.3283 19.651 12.4604 19.5789 12.852C19.1749 15.0481 18.7691 17.2442 18.3646 19.4403C18.3121 19.7251 18.2671 20.0112 18.2137 20.296C18.1661 20.551 18.0727 20.6303 17.8168 20.6303C13.1453 20.6312 8.47391 20.6312 3.80202 20.6303C3.51501 20.6303 3.43491 20.5542 3.3735 20.2208C3.12876 18.8868 2.88758 17.5524 2.64328 16.2184C2.44304 15.1242 2.23968 14.0305 2.0381 12.9368C2.02431 12.8616 2.00874 12.7869 2.00206 12.7108C1.98248 12.4888 2.10352 12.3439 2.318 12.3288C2.37718 12.3246 2.43681 12.3278 2.49599 12.3278C5.26913 12.3283 8.04227 12.3283 10.8159 12.3283Z" fill="#B6B8BA"/>
<path d="M11.0888 8.70602C9.75567 8.71198 8.5996 7.74852 8.2485 6.32878C8.22181 6.22056 8.13503 6.09996 8.04248 6.04126C7.51117 5.70283 7.16452 4.90858 7.34163 4.29135C7.40215 4.0804 7.56323 3.88597 7.71764 3.72363C7.80708 3.62963 7.85603 3.55442 7.87516 3.42648C7.94948 2.93122 7.98418 2.41991 8.13503 1.94942C8.38512 1.16893 8.94446 0.733285 9.75878 0.675505C9.82063 0.670919 9.9163 0.63515 9.93455 0.587917C10.113 0.131638 10.4863 0.00186219 10.9037 2.79001e-05C12.4732 -0.00593354 14.0475 0.943311 14.3047 2.9757C14.3096 3.01376 14.3172 3.05137 14.3181 3.08943C14.3256 3.37787 14.4093 3.59982 14.6184 3.83461C14.9624 4.22073 14.8992 4.73158 14.7604 5.20436C14.6429 5.60378 14.4227 5.92982 14.0275 6.10271C13.9692 6.12839 13.9212 6.2201 13.9011 6.29118C13.5923 7.38671 12.9769 8.19563 11.8916 8.55057C11.6348 8.63494 11.3576 8.65604 11.0888 8.70602Z" fill="#B6B8BA"/>
<path d="M10.8109 12.007C9.16537 12.007 7.51982 12.007 5.87427 12.007C5.58681 12.007 5.51517 11.8919 5.66201 11.6347C6.44696 10.264 7.59591 9.41013 9.11242 9.09876C9.2112 9.07858 9.36161 9.14782 9.43993 9.22578C10.3931 10.1764 11.6034 10.2181 12.5846 9.31658C12.7172 9.19506 12.857 9.168 13.0154 9.21982C14.3005 9.64033 15.2839 10.4511 15.9549 11.6571C16.0844 11.8901 16.0083 12.007 15.748 12.007C14.102 12.007 12.4565 12.007 10.8109 12.007Z" fill="#292D32"/>
<path d="M10.7888 21.3306C13.0875 21.3306 15.3868 21.3306 17.6856 21.3306C17.7523 21.3306 17.8208 21.3232 17.8854 21.337C18.0589 21.3746 18.1608 21.4879 18.1595 21.6731C18.1586 21.8501 18.0545 21.9538 17.8929 21.9909C17.8293 22.0056 17.7599 21.9982 17.6936 21.9982C13.1107 21.9982 8.5278 21.9982 3.94446 21.9982C3.60183 21.9982 3.44163 21.8877 3.44742 21.6575C3.45276 21.4319 3.60227 21.3306 3.93645 21.3306C6.22056 21.3306 8.50466 21.3306 10.7888 21.3306Z" fill="#292D32"/>
</g>
<defs>
<clipPath id="clip0_4202_31838">
<rect width="17.6" height="22" fill="white" transform="translate(2)"/>
</clipPath>
</defs>
</svg>
