<svg width="22" height="22" viewBox="0 0 22 22" fill="none" xmlns="http://www.w3.org/2000/svg">
<path d="M19.3325 6.39839C18.5533 5.53673 17.2516 5.10589 15.3633 5.10589H15.1433V5.06923C15.1433 3.52923 15.1433 1.62256 11.6966 1.62256H10.3033C6.85662 1.62256 6.85662 3.53839 6.85662 5.06923V5.11506H6.63662C4.73912 5.11506 3.44662 5.54589 2.66745 6.40756C1.75995 7.41589 1.78745 8.77256 1.87912 9.69839L1.88829 9.76256L1.97995 10.7251C1.98912 10.7342 2.00745 10.7526 2.02579 10.7617C2.32829 10.9634 2.63995 11.1651 2.96995 11.3484C3.09829 11.4309 3.23579 11.5042 3.37329 11.5776C4.94079 12.4392 6.66412 13.0167 8.41495 13.3009C8.49745 14.1626 8.87329 15.1709 10.8808 15.1709C12.8883 15.1709 13.2825 14.1717 13.3466 13.2826C15.2166 12.9801 17.0225 12.3292 18.6541 11.3759C18.7091 11.3484 18.7458 11.3209 18.7916 11.2934C19.2133 11.0551 19.6075 10.7984 19.9925 10.5142C20.0108 10.5051 20.0291 10.4867 20.0383 10.4684L20.075 10.1384L20.1208 9.70756C20.13 9.65256 20.13 9.60672 20.1391 9.54256C20.2125 8.61672 20.1941 7.35173 19.3325 6.39839ZM11.9991 12.6776C11.9991 13.6492 11.9991 13.7959 10.8716 13.7959C9.74412 13.7959 9.74412 13.6217 9.74412 12.6867V11.5317H11.9991V12.6776ZM8.16745 5.10589V5.06923C8.16745 3.51089 8.16745 2.93339 10.3033 2.93339H11.6966C13.8325 2.93339 13.8325 3.52006 13.8325 5.06923V5.11506H8.16745V5.10589Z" fill="#292D32"/>
<path opacity="0.4" d="M18.7921 11.2752C18.7463 11.3027 18.7005 11.3302 18.6546 11.3577C17.023 12.311 15.2171 12.9527 13.3471 13.2644C13.2738 14.1444 12.8888 15.1527 10.8813 15.1527C8.8738 15.1527 8.4888 14.1535 8.41547 13.2827C6.66464 13.0077 4.9413 12.4302 3.3738 11.5594C3.2363 11.486 3.0988 11.4127 2.97047 11.3302C2.64047 11.1469 2.3288 10.9452 2.0263 10.7435C2.00797 10.7344 1.98964 10.716 1.98047 10.7069L2.53964 16.6744C2.73214 18.4985 3.4838 20.3777 7.51714 20.3777H14.5021C18.5355 20.3777 19.2871 18.4985 19.4796 16.6652L20.0571 10.4502C20.048 10.4685 20.0296 10.4869 20.0113 10.496C19.6171 10.7802 19.2138 11.046 18.7921 11.2752Z" fill="#595B5F"/>
</svg>
