<svg width="30" height="30" viewBox="0 0 30 30" fill="none" xmlns="http://www.w3.org/2000/svg">
<circle cx="15" cy="15" r="14.75" fill="white" stroke="#C8C8C8" stroke-width="0.5"/>
<g clip-path="url(#clip0_3093_27637)">
<path d="M16.3518 13.5898C15.9084 13.8174 15.4073 13.908 14.9123 13.8503C14.4172 13.7925 13.9505 13.589 13.5713 13.2655C13.1922 12.942 12.9177 12.5131 12.7827 12.0334C12.6477 11.5536 12.6583 11.0445 12.8131 10.5708C12.968 10.097 13.2601 9.67997 13.6525 9.37256C14.0448 9.06515 14.5196 8.88124 15.0166 8.84417C15.5137 8.8071 16.0105 8.91855 16.4441 9.16437C16.8776 9.41019 17.2284 9.77929 17.4518 10.2248C17.6011 10.5183 17.6911 10.8383 17.7166 11.1666C17.7421 11.4948 17.7026 11.8249 17.6004 12.1379C17.4983 12.4509 17.3354 12.7406 17.1212 12.9906C16.9069 13.2406 16.6455 13.4459 16.3518 13.5948V13.5898ZM13.6668 5.47649C15.7252 4.72566 18.0785 4.76649 19.8402 6.29483C20.2122 6.6011 20.5047 6.99278 20.6927 7.43649C20.8702 8.01149 20.0685 7.37816 19.9593 7.29649C19.4037 6.91668 18.8016 6.60999 18.1677 6.38399C14.6977 5.32149 11.4143 7.25566 9.38599 10.2632C8.55943 11.5896 7.92849 13.0283 7.51266 14.5348C7.47443 14.7194 7.41487 14.899 7.33516 15.0698C7.24599 15.2398 7.29433 14.614 7.29433 14.5932C7.36875 13.9634 7.4885 13.3398 7.65266 12.7273C8.59266 9.44983 10.6752 6.72066 13.6668 5.47066V5.47649ZM13.6977 22.9707V15.6682C13.9052 15.689 14.1027 15.699 14.311 15.699C15.2568 15.7019 16.185 15.4439 16.9935 14.9532V22.9698C16.9935 23.6548 16.8685 24.1615 16.5602 24.4915C16.4074 24.6589 16.2201 24.7912 16.0112 24.8789C15.8022 24.9667 15.5767 25.008 15.3502 24.9998C15.1268 25.0078 14.9045 24.9665 14.699 24.8787C14.4934 24.791 14.3097 24.6591 14.161 24.4923C13.8543 24.1557 13.6943 23.6482 13.6943 22.9715L13.6977 22.9707Z" fill="#003A9B"/>
</g>
<defs>
<clipPath id="clip0_3093_27637">
<rect width="20" height="20" fill="white" transform="translate(4 5)"/>
</clipPath>
</defs>
</svg>
