<svg width="30" height="30" viewBox="0 0 30 30" fill="none" xmlns="http://www.w3.org/2000/svg">
<g clip-path="url(#clip0_3093_27631)">
<path d="M9.64698 0.00129093C10.0461 0.000157181 10.4453 0.000157181 10.8444 0.000157181C11.2311 0.000157181 11.6166 0.00129093 12.0033 0.00129093C12.4024 0.00129093 12.8015 0.00129093 13.2007 0.00129093C13.5862 0.00129093 13.9729 0.00129093 14.3584 0.00129093C14.7575 0.00129093 15.1567 0.00129093 15.5558 0.000157181C15.9413 0.000157181 16.328 0.000157181 16.7135 0.000157181C17.1127 0.000157181 17.5118 0.000157181 17.911 0.000157181C18.2965 0.000157181 18.6832 0.000157181 19.0687 0.000157181C19.4678 0.000157181 19.867 0.000157181 20.2661 0.000157181C20.6516 0.000157181 21.0383 0.000157181 21.4238 0.000157181C21.823 0.000157181 22.2221 0.000157181 22.6212 -0.000976562C23.0068 -0.000976562 23.3934 0.000157181 23.779 0.000157181C24.1634 0.000157181 24.5489 0.000157181 24.9333 0.000157181C25.3336 0.000157181 25.7338 0.000157181 26.1341 0.000157181C26.5367 -0.00324405 26.9347 0.0296345 27.3304 0.10106C28.1491 0.34028 28.8238 0.79151 29.3408 1.47289C29.427 1.61234 29.5143 1.75293 29.6005 1.89238C29.6991 2.15314 29.7978 2.4139 29.8964 2.67353C29.9588 3.02385 29.9985 3.37645 29.9951 3.73244C29.9951 4.13265 29.9951 4.53287 29.9951 4.93194C29.9951 5.31628 29.9951 5.70176 29.9951 6.08609C29.9951 6.48631 29.9951 6.88652 29.9951 7.28786C29.9951 7.68694 29.9951 8.08602 29.9951 8.4851C29.9951 8.8717 29.9951 9.25718 29.9951 9.64378C29.9951 10.0281 29.9951 10.4136 29.9951 10.7979C29.9951 11.1981 29.9951 11.5984 29.9951 11.9997C29.9951 12.3988 29.9951 12.7979 29.9951 13.1969C29.9951 13.5835 29.9951 13.969 29.9951 14.3556C29.9951 14.74 29.9951 15.1254 29.9951 15.5098C29.9951 15.91 29.9951 16.3102 29.9951 16.7115C29.9951 17.1106 29.9951 17.5097 29.9951 17.9088C29.9951 18.2954 29.9951 18.6809 29.9951 19.0675C29.9951 19.4382 29.9951 19.8089 29.9951 20.1797C29.9951 20.6082 29.9951 21.0356 29.9951 21.4642C29.9951 21.8213 29.9951 22.1785 29.9951 22.5356C29.9951 22.9494 29.9951 23.3644 29.9951 23.7782C29.9951 24.1625 29.9951 24.548 29.9951 24.9323C29.9951 25.3325 29.9951 25.7327 29.9951 26.133C29.9996 26.5354 29.9667 26.9345 29.901 27.3302C29.8862 27.3619 29.8681 27.3925 29.859 27.4254C29.664 28.0966 29.3057 28.6635 28.7818 29.1283C28.3589 29.5036 27.8599 29.7303 27.3315 29.9049C27.3032 29.9072 27.2748 29.9083 27.2454 29.9106C27.2091 29.9027 27.1784 29.9117 27.1546 29.9401C26.9846 29.9582 26.8156 29.9763 26.6455 29.9956C26.6104 29.9934 26.5741 29.9911 26.5389 29.9911C19.3873 29.9911 12.2346 29.9911 5.08298 29.9922C4.53303 29.9922 3.98421 29.9968 3.43426 30.0002C3.40478 29.999 3.3753 29.9979 3.34582 29.9968C3.33221 29.9968 3.31747 29.9956 3.30386 29.9956C3.08955 29.9639 2.87411 29.9333 2.6598 29.9015C2.40013 29.8256 2.15974 29.6929 1.89214 29.6396C1.74926 29.5036 1.58031 29.4061 1.41363 29.3052C1.25828 29.1612 1.09613 29.024 0.94872 28.8721C0.525769 28.4367 0.278576 27.9005 0.0926138 27.3313C0.0234449 26.9345 -0.00603689 26.5354 -0.00150122 26.1341C-0.00150122 25.7339 -0.00150122 25.3337 -0.00150122 24.9335C-0.00150122 24.5491 -0.00150122 24.1636 -0.00150122 23.7793C-0.00150122 23.3791 -0.00150122 22.98 -0.00150122 22.5798C-0.00150122 22.1943 -0.00150122 21.8089 -0.00150122 21.4245C-0.00150122 21.0379 -0.00150122 20.6524 -0.00150122 20.2658C-0.00150122 19.8668 -0.00150122 19.4677 -0.00150122 19.0686C-0.00150122 18.682 -0.00150122 18.2965 -0.00036731 17.9099C-0.00036731 17.5108 -0.00036731 17.1118 -0.00036731 16.7127C-0.00036731 16.3261 -0.00036731 15.9406 -0.00036731 15.554C-0.00036731 15.1549 -0.000367309 14.7558 0.000766606 14.3568C0.000766606 13.9702 0.000766606 13.5847 0.000766606 13.1981C0.000766606 12.799 0.000766606 12.3999 0.000766606 12.0008C0.000766606 11.6142 0.000766606 11.2288 -0.00036731 10.8422C-0.00036731 10.4431 -0.00036731 10.044 -0.00036731 9.64492C-0.00036731 9.25831 -0.00036731 8.87284 -0.00036731 8.48623C-0.00036731 8.08715 -0.00036731 7.68808 -0.00036731 7.289C-0.00036731 6.88879 -0.00036731 6.48857 -0.00036731 6.08836C-0.00036731 5.70402 -0.00036731 5.31855 -0.00036731 4.93421C-0.00036731 4.5476 -0.00036731 4.16213 -0.00036731 3.77552C-0.00490297 3.40479 0.0347841 3.03746 0.0971494 2.67126C0.165184 2.48759 0.240023 2.30506 0.275174 2.11005C0.414646 1.8799 0.554117 1.64975 0.693589 1.42074C0.915836 1.15771 1.15736 0.913955 1.4227 0.692875C1.66649 0.553424 1.91028 0.41284 2.15407 0.273389C2.32869 0.215569 2.50218 0.156614 2.67681 0.0987929C3.02719 0.0455069 3.3787 -0.00551154 3.73475 0.000157181C4.13502 0.000157181 4.53416 0.000157181 4.93443 0.000157181C5.31883 0.000157181 5.70436 0.000157181 6.08876 0.000157181C6.48903 0.000157181 6.8893 0.000157181 7.28957 0.000157181C7.68871 0.000157181 8.08785 0.000157181 8.48699 0.000157181C8.87479 0.00129093 9.26032 0.00129093 9.64698 0.00129093ZM15.8994 13.121C15.8994 12.5586 15.8994 12.0462 15.8994 11.5326C15.8994 11.2582 15.862 11.2152 15.5978 11.2152C14.3913 11.214 13.1859 11.214 11.9794 11.2152C11.713 11.2152 11.6665 11.2628 11.6665 11.5281C11.6654 12.2559 11.6676 12.9838 11.6676 13.7117C11.6676 17.5006 11.6665 21.2896 11.6665 25.0797C11.6665 25.3609 11.7084 25.4028 11.9863 25.4028C13.2494 25.4028 14.5126 25.4028 15.7758 25.4017C16.0366 25.4017 16.0842 25.3529 16.0933 25.091C16.0956 25.0344 16.091 24.9765 16.091 24.9198C16.0888 22.6365 16.0808 20.3531 16.091 18.0698C16.0944 17.4088 16.1387 16.7501 16.4097 16.1265C16.6761 15.5143 17.1047 15.0948 17.7409 14.8828C17.8497 14.8465 17.9575 14.8624 18.0697 14.8329C19.2195 14.5336 20.4566 14.8341 20.8501 16.3419C20.9963 16.902 21.036 17.4734 21.0383 18.0471C21.044 20.3951 21.0406 22.7431 21.0406 25.0899C21.0406 25.3688 21.0734 25.4028 21.3433 25.4028C22.5918 25.4028 23.8413 25.4028 25.0898 25.4028C25.3982 25.4028 25.4447 25.3552 25.4447 25.0412C25.4447 22.4653 25.4515 19.8894 25.4413 17.3124C25.4379 16.3079 25.3551 15.3091 25.1057 14.3307C24.9889 13.8738 24.8392 13.4203 24.6101 13.0201C24.3902 12.6357 24.1146 12.2718 23.7631 11.9714C23.2018 11.4929 22.5521 11.2072 21.8536 11.0224C21.3615 10.892 20.8501 10.8807 20.3421 10.8648C19.3 10.8331 18.3112 11.0088 17.437 11.621C17.2714 11.7378 17.1002 11.8455 16.9471 11.9816C16.5729 12.316 16.2543 12.7015 15.8994 13.121ZM4.46839 18.2954C4.46726 20.5572 4.46726 22.8202 4.46839 25.082C4.46839 25.3699 4.50128 25.4017 4.78589 25.4017C6.02072 25.4028 7.25556 25.4017 8.49039 25.404C8.84644 25.404 8.90087 25.3518 8.8986 25.0003C8.89293 24.0661 8.88386 23.1308 8.88386 22.1966C8.88386 18.6638 8.88726 15.1311 8.88953 11.5995C8.88953 11.2401 8.85664 11.2129 8.49833 11.214C7.28504 11.2174 6.07175 11.2174 4.85846 11.2174C4.47973 11.2174 4.46839 11.2265 4.46839 11.5961C4.46839 13.8273 4.46839 16.0608 4.46839 18.2954ZM6.77478 9.25604C8.15929 9.28212 9.26145 7.98738 9.24331 6.67904C9.22517 5.27207 8.06404 4.15533 6.65458 4.15193C5.28368 4.14853 4.08853 5.38204 4.12482 6.74933C4.16224 8.16198 5.33017 9.27985 6.77478 9.25604Z" fill="#2969B2"/>
<path d="M15.8997 13.1212C16.2547 12.7017 16.5733 12.3162 16.9486 11.9806C17.1017 11.8446 17.2718 11.7357 17.4385 11.6201C18.3127 11.0079 19.3015 10.8322 20.3436 10.8639C20.8515 10.8798 21.3618 10.8911 21.8551 11.0215C22.5536 11.2063 23.2033 11.492 23.7646 11.9704C24.1161 12.2709 24.3928 12.6348 24.6116 13.0191C24.8407 13.4194 24.9903 13.8729 25.1071 14.3298C25.3566 15.3093 25.4382 16.3081 25.4428 17.3115C25.453 19.8874 25.4462 22.4632 25.4462 25.0402C25.4462 25.3543 25.3986 25.4019 25.0913 25.4019C23.8428 25.4019 22.5932 25.4019 21.3448 25.4019C21.0749 25.4019 21.042 25.3679 21.042 25.089C21.042 22.741 21.0454 20.393 21.0398 18.0462C21.0386 17.4725 20.9978 16.9 20.8515 16.341C20.4569 14.8331 19.221 14.5327 18.0712 14.832C17.9601 14.8615 17.8512 14.8456 17.7424 14.8819C17.1062 15.0939 16.6776 15.5134 16.4111 16.1256C16.139 16.7492 16.0948 17.409 16.0925 18.0688C16.0823 20.3522 16.0914 22.6356 16.0925 24.9189C16.0925 24.9756 16.0959 25.0334 16.0948 25.0901C16.0868 25.352 16.0392 25.4008 15.7773 25.4008C14.5141 25.4019 13.2509 25.4019 11.9877 25.4019C11.7099 25.4019 11.668 25.3599 11.668 25.0788C11.668 21.2898 11.6691 17.5008 11.6691 13.7107C11.6691 12.9829 11.668 12.255 11.668 11.5271C11.668 11.2618 11.7145 11.2142 11.9809 11.2142C13.1874 11.2131 14.3928 11.2131 15.5993 11.2142C15.8635 11.2142 15.9009 11.2573 15.9009 11.5317C15.8997 12.0464 15.8997 12.5588 15.8997 13.1212Z" fill="#FEFEFE"/>
<path d="M4.46765 18.2956C4.46765 16.0621 4.46765 13.8286 4.46765 11.594C4.46765 11.2244 4.47899 11.2153 4.85771 11.2153C6.071 11.2153 7.28429 11.2153 8.49758 11.2119C8.8559 11.2108 8.88878 11.238 8.88878 11.5974C8.88652 15.1302 8.88425 18.6629 8.88311 22.1945C8.88311 23.1287 8.89219 24.0641 8.89785 24.9983C8.90012 25.3497 8.84456 25.403 8.48964 25.4019C7.25481 25.4008 6.01998 25.4008 4.78514 25.3996C4.50053 25.3996 4.46765 25.3679 4.46765 25.0799C4.46651 22.8192 4.46651 20.5574 4.46765 18.2956Z" fill="#FEFEFE"/>
<path d="M6.77381 9.25598C5.3292 9.27979 4.16127 8.16192 4.12385 6.74927C4.08757 5.38197 5.28271 4.14846 6.65362 4.15186C8.06307 4.15526 9.2242 5.272 9.24348 6.67898C9.26049 7.98732 8.15832 9.28205 6.77381 9.25598Z" fill="#FEFEFE"/>
</g>
<defs>
<clipPath id="clip0_3093_27631">
<rect width="30" height="30" fill="white"/>
</clipPath>
</defs>
</svg>
