<svg width="22" height="22" viewBox="0 0 22 22" fill="none" xmlns="http://www.w3.org/2000/svg">
<path opacity="0.4" d="M18.901 7.74567C17.9385 3.51067 14.2444 1.604 10.9994 1.604C10.9994 1.604 10.9994 1.604 10.9902 1.604C7.75436 1.604 4.05102 3.5015 3.08852 7.7365C2.01602 12.4665 4.91269 16.4723 7.53436 18.9932C8.50602 19.9282 9.75269 20.3957 10.9994 20.3957C12.246 20.3957 13.4927 19.9282 14.4552 18.9932C17.0769 16.4723 19.9735 12.4757 18.901 7.74567Z" fill="#595B5F"/>
<path d="M11.0008 12.3385C12.5955 12.3385 13.8883 11.0457 13.8883 9.45098C13.8883 7.85625 12.5955 6.56348 11.0008 6.56348C9.40606 6.56348 8.11328 7.85625 8.11328 9.45098C8.11328 11.0457 9.40606 12.3385 11.0008 12.3385Z" fill="#292D32"/>
</svg>
