<svg width="30" height="30" viewBox="0 0 30 30" fill="none" xmlns="http://www.w3.org/2000/svg">
<path d="M15 30C23.2843 30 30 23.2843 30 15C30 6.71573 23.2843 0 15 0C6.71573 0 0 6.71573 0 15C0 23.2843 6.71573 30 15 30Z" fill="#265DF5"/>
<path d="M19.51 20.5564L19.4765 22.0769L19.3794 26.4668V26.6363C11.9614 20.2165 10.6977 18.6507 10.4787 18.1747L10.4711 18.1586C10.4447 18.069 10.4385 17.9747 10.4528 17.8823C10.458 17.8481 10.4653 17.8143 10.4743 17.7809C10.482 17.7539 10.4895 17.728 10.4992 17.7C10.5791 17.49 10.6925 17.2943 10.8348 17.1204C10.9367 16.9887 11.0478 16.8644 11.1672 16.7481C11.4224 16.4957 11.6958 16.2624 11.9852 16.05C12.1287 15.9421 12.2787 15.8341 12.4373 15.7262C12.7438 15.5168 13.0751 15.3075 13.4183 15.1035C16.0837 17.5899 19.4668 20.5165 19.51 20.5564Z" fill="url(#paint0_linear_3093_27641)"/>
<path d="M19.6109 6.13574L19.5774 7.66165L19.5602 8.41703L19.5256 9.93542L19.5083 10.6973L19.4749 12.2167C19.422 12.2383 16.0389 13.5505 13.4317 15.1012C13.0886 15.3052 12.7583 15.5145 12.4508 15.7239C12.2932 15.8318 12.1422 15.9397 11.9986 16.0477C11.7097 16.2606 11.4364 16.494 11.1806 16.7458C11.0616 16.8623 10.9506 16.9866 10.8482 17.1181C10.613 17.4181 10.4716 17.7127 10.4512 17.99L10.4792 16.7221V16.7134L10.4846 16.517V16.4458L10.5072 15.6462L10.5504 14.0609L10.5709 13.2861L10.6141 11.7149C11.1504 9.51557 18.7249 6.4843 19.6109 6.13574Z" fill="white"/>
<path d="M12.6266 7.81776C13.8562 7.81776 14.8529 6.82102 14.8529 5.59149C14.8529 4.36197 13.8562 3.36523 12.6266 3.36523C11.3971 3.36523 10.4004 4.36197 10.4004 5.59149C10.4004 6.82102 11.3971 7.81776 12.6266 7.81776Z" fill="white"/>
<defs>
<linearGradient id="paint0_linear_3093_27641" x1="17.9765" y1="22.8593" x2="9.17835" y2="12.7101" gradientUnits="userSpaceOnUse">
<stop stop-color="white"/>
<stop offset="1" stop-color="#265DF5"/>
</linearGradient>
</defs>
</svg>
