<svg width="90" height="80" viewBox="0 0 90 80" fill="none" xmlns="http://www.w3.org/2000/svg">
<g clip-path="url(#clip0_3244_740)">
<path d="M44.6753 23.9066V0C43.7073 0 42.7394 0.00653008 41.765 0.0130602C39.8292 0.0326504 38.6258 0.992572 38.2726 2.8014C37.8868 4.77349 37.5336 6.7521 37.1478 8.72419C36.8796 10.089 35.9771 11.0032 34.6299 11.4929C33.3023 11.9762 31.9812 12.4594 30.6798 13.0144C29.2148 13.6413 27.7891 13.5369 26.4484 12.6488C24.7219 11.506 22.9888 10.3763 21.2491 9.25312C19.8104 8.32585 18.1492 8.44339 16.9001 9.58616C15.3566 10.9771 13.8328 12.4006 12.3286 13.8372C11.001 15.0975 10.8768 16.5929 11.9493 18.0361C13.1331 19.6359 14.356 21.2097 15.5463 22.8096C16.4619 24.0503 16.6189 25.3563 15.9518 26.7537C15.4024 27.9161 14.8727 29.0784 14.3887 30.2669C13.774 31.7623 12.6295 32.6047 10.9552 32.8789C8.89516 33.2055 6.83508 33.5254 4.78153 33.8781C3.08114 34.1784 2.01513 35.393 2.00859 37.019C1.99551 39.0303 1.99551 41.0285 2.02167 43.0398C2.04783 44.7506 3.05498 45.8738 4.87963 46.1938C6.99858 46.5595 9.11752 46.886 11.2365 47.2451C12.7341 47.4933 13.774 48.3095 14.3102 49.6025C14.8531 50.8954 15.4351 52.1753 16.0237 53.4552C16.6123 54.7351 16.5011 55.9824 15.6248 57.1447C14.4149 58.7577 13.1985 60.3836 12.0016 62.0031C10.8964 63.492 11.0272 64.9482 12.4006 66.2607C13.7936 67.5733 15.2062 68.8793 16.6123 70.1853C18.2277 71.6872 19.7973 71.8047 21.6677 70.5706C23.2634 69.5192 24.8527 68.4613 26.4484 67.4165C27.8153 66.5219 29.241 66.4044 30.7713 67.0443C31.9812 67.5471 33.2042 68.0304 34.4402 68.4679C36.0883 69.0491 37.0039 70.1396 37.2851 71.7394C37.6056 73.6005 37.9653 75.4485 38.3053 77.3096C38.5212 78.4524 39.1621 79.3013 40.5224 79.8368C40.712 79.8694 41.0979 79.9935 41.4838 79.9935C42.5432 80.0065 43.6092 80.0131 44.6687 80.0196V56.0934C42.4255 56.0738 40.1431 55.6363 37.9653 54.7547C29.241 51.2154 25.2843 41.6684 29.1232 33.4536C31.8766 27.5961 38.1353 24.0242 44.6753 23.9066Z" fill="url(#paint0_linear_3244_740)"/>
<path d="M43.9966 23.9066V0C44.9645 0 45.9324 0.00653008 46.9069 0.0130602C48.8427 0.0326504 50.0461 0.992572 50.3992 2.8014C50.7851 4.77349 51.1382 6.7521 51.5241 8.72419C51.7922 10.089 52.6948 11.0032 54.042 11.4929C55.3696 11.9762 56.6907 12.4594 57.9921 13.0144C59.4571 13.6413 60.8828 13.5369 62.2235 12.6488C63.95 11.506 65.6831 10.3763 67.4227 9.25312C68.8615 8.32585 70.5227 8.44339 71.7718 9.58616C73.3152 10.9771 74.839 12.4006 76.3432 13.8372C77.6708 15.0975 77.7951 16.5929 76.7226 18.0361C75.5388 19.6359 74.3158 21.2097 73.1256 22.8096C72.21 24.0503 72.053 25.3563 72.7201 26.7537C73.2695 27.9161 73.7992 29.0784 74.2831 30.2669C74.8979 31.7623 76.0424 32.6047 77.7166 32.8789C79.7767 33.2055 81.8368 33.5254 83.8903 33.8781C85.5907 34.1784 86.6567 35.393 86.6633 37.019C86.6764 39.0303 86.6764 41.0285 86.6502 43.0398C86.624 44.7506 85.6169 45.8738 83.7922 46.1938C81.6733 46.5595 79.5544 46.886 77.4354 47.2451C75.9378 47.4933 74.8979 48.3095 74.3616 49.6025C73.8188 50.8954 73.2368 52.1753 72.6482 53.4552C72.0596 54.7351 72.1707 55.9824 73.0471 57.1447C74.257 58.7577 75.4734 60.3836 76.6702 62.0031C77.7755 63.492 77.6447 64.9482 76.2713 66.2607C74.8783 67.5733 73.4657 68.8793 72.0596 70.1853C70.4442 71.6872 68.8746 71.8048 67.0042 70.5706C65.4084 69.5192 63.8192 68.4613 62.2235 67.4165C60.8566 66.5219 59.4309 66.4044 57.9006 67.0443C56.6907 67.5471 55.4677 68.0304 54.2316 68.4679C52.5836 69.0491 51.668 70.1396 51.3868 71.7395C51.0663 73.6005 50.7066 75.4485 50.3665 77.3096C50.1507 78.4524 49.5098 79.3013 48.1495 79.8368C47.9598 79.8694 47.574 79.9935 47.1881 79.9935C46.1286 80.0065 45.0626 80.0131 44.0032 80.0196V56.0934C46.2464 56.0738 48.5288 55.6363 50.7066 54.7547C59.4309 51.2154 63.3876 41.6684 59.5486 33.4536C56.7953 27.5961 50.5366 24.0242 43.9966 23.9066Z" fill="url(#paint1_linear_3244_740)"/>
<path d="M41.5655 34.6417H36V28.9932H53.6383V34.6482H48.0728V53.6181H41.572V34.6417H41.5655Z" fill="url(#paint2_linear_3244_740)"/>
</g>
<defs>
<linearGradient id="paint0_linear_3244_740" x1="2.00205" y1="39.9989" x2="44.6776" y2="39.9989" gradientUnits="userSpaceOnUse">
<stop stop-color="#FBEE43"/>
<stop offset="0.04" stop-color="#FCE528"/>
<stop offset="0.12" stop-color="#FCD417"/>
<stop offset="0.2" stop-color="#FBCA14"/>
<stop offset="0.28" stop-color="#FCC612"/>
<stop offset="0.67" stop-color="#F18F40"/>
<stop offset="1" stop-color="#E83E39"/>
</linearGradient>
<linearGradient id="paint1_linear_3244_740" x1="86.6698" y1="39.9989" x2="43.9943" y2="39.9989" gradientUnits="userSpaceOnUse">
<stop stop-color="#FBEE43"/>
<stop offset="0.04" stop-color="#FCE528"/>
<stop offset="0.12" stop-color="#FCD417"/>
<stop offset="0.2" stop-color="#FBCA14"/>
<stop offset="0.28" stop-color="#FCC612"/>
<stop offset="0.67" stop-color="#F18F40"/>
<stop offset="1" stop-color="#E83E39"/>
</linearGradient>
<linearGradient id="paint2_linear_3244_740" x1="36" y1="41" x2="53.6362" y2="41.3043" gradientUnits="userSpaceOnUse">
<stop stop-color="#FBEE43"/>
<stop stop-color="#FCD417"/>
<stop offset="0.04" stop-color="#FCE528"/>
<stop offset="0.489908" stop-color="#E83E39"/>
<stop offset="0.63645" stop-color="#F18F40"/>
<stop offset="0.913445" stop-color="#FCC612"/>
<stop offset="1" stop-color="#FBCA14"/>
</linearGradient>
<clipPath id="clip0_3244_740">
<rect width="90" height="80" fill="white"/>
</clipPath>
</defs>
</svg>
