<svg width="30" height="30" viewBox="0 0 30 30" fill="none" xmlns="http://www.w3.org/2000/svg">
<g clip-path="url(#clip0_3104_27647)">
<path d="M15.0217 10.1371C16.9185 10.1371 18.816 10.142 20.7128 10.1309C20.9375 10.1296 21.0099 10.1916 21.0402 10.4101C21.4598 13.4524 21.4654 16.4936 21.047 19.5365C21.0124 19.7873 20.94 19.8715 20.6708 19.8708C16.8771 19.8603 13.0827 19.8609 9.2884 19.869C9.06313 19.8696 8.99753 19.8077 8.96659 19.5873C8.53523 16.514 8.53709 13.4425 8.97277 10.3699C9.0031 10.155 9.08912 10.1315 9.26922 10.1321C11.1871 10.1371 13.1044 10.1352 15.0223 10.1352C15.0217 10.1358 15.0217 10.1364 15.0217 10.1371Z" fill="#2969B2"/>
<path d="M15.0134 9.04298C13.1673 9.04298 11.3212 9.03864 9.47505 9.04793C9.2244 9.04917 9.17242 9.00211 9.22626 8.74394C9.65266 6.6959 10.2418 4.70667 11.2896 2.87903C11.6962 2.16952 12.1733 1.51078 12.7891 0.9641C14.2924 -0.371957 15.9596 -0.314998 17.3781 1.11207C18.4698 2.21039 19.1487 3.55759 19.7032 4.97723C20.1841 6.20927 20.5127 7.48527 20.7838 8.77861C20.8351 9.02378 20.7609 9.04731 20.5517 9.04669C18.7056 9.0405 16.8595 9.04298 15.0134 9.04298Z" fill="#2969B2"/>
<path d="M15.0134 20.9577C16.8285 20.9577 18.6431 20.9577 20.4582 20.9577C20.8264 20.9577 20.8289 20.9583 20.7571 21.3106C20.3413 23.35 19.7478 25.3275 18.6994 27.1427C18.2433 27.9321 17.7036 28.6589 16.9832 29.2329C15.644 30.3002 14.1302 30.2501 12.8566 29.101C11.7017 28.059 10.9944 26.7273 10.4157 25.3151C9.87483 23.9945 9.50907 22.6225 9.22191 21.2264C9.17488 20.9967 9.21944 20.9515 9.44471 20.9522C11.3007 20.9602 13.1573 20.9565 15.0134 20.9565C15.0134 20.9571 15.0134 20.9577 15.0134 20.9577Z" fill="#2969B2"/>
<path d="M7.56692 19.8452C6.70111 19.8507 5.83592 19.86 4.97011 19.8619C3.68161 19.865 2.3925 19.8575 1.104 19.8681C0.894198 19.8699 0.798891 19.8136 0.73329 19.6074C-0.243914 16.5347 -0.245152 13.4664 0.733909 10.3937C0.79951 10.1882 0.88739 10.1071 1.1009 10.1318C1.29399 10.1547 1.49079 10.1498 1.68574 10.1566C1.76619 10.2755 1.88997 10.2315 1.99642 10.2321C3.64758 10.2346 5.29935 10.2346 6.95052 10.2321C7.05696 10.2321 7.18074 10.2761 7.26057 10.1566C7.30018 10.1566 7.34041 10.1566 7.38002 10.1566C7.40353 10.2098 7.42519 10.2061 7.445 10.1541C7.50565 10.1479 7.5663 10.1448 7.62633 10.1343C7.85841 10.0928 7.89863 10.1913 7.86831 10.4079C7.66903 11.8393 7.55949 13.2782 7.54773 14.7244C7.53473 16.3465 7.64056 17.9606 7.86336 19.5672C7.89059 19.7622 7.91658 19.9362 7.62323 19.8464C7.6059 19.7876 7.58672 19.7969 7.56692 19.8452Z" fill="#2969B2"/>
<path d="M22.1618 19.5797C22.2491 18.5328 22.3772 17.4895 22.4255 16.4383C22.5121 14.558 22.4156 12.6877 22.1916 10.8216C22.1724 10.6619 22.142 10.5028 22.1303 10.3424C22.1216 10.231 22.1161 10.1004 22.3005 10.1561C22.3785 10.2818 22.5047 10.2316 22.6099 10.2316C24.4851 10.2347 26.3609 10.2347 28.2367 10.2322C28.3438 10.2322 28.4682 10.2768 28.5486 10.1567C28.5883 10.1567 28.6285 10.1567 28.6681 10.1567C28.6897 10.2081 28.7114 10.2093 28.7331 10.1567C28.7529 10.1561 28.7721 10.1555 28.7919 10.1548C28.8117 10.2013 28.8309 10.2143 28.8494 10.1542C29.0295 10.1146 29.1737 10.0954 29.2517 10.3387C30.2512 13.4554 30.2555 16.5677 29.2368 19.6794C29.2276 19.7085 29.2108 19.7345 29.1978 19.7623C29.1657 19.7883 29.1341 19.8149 29.1019 19.841C29.0623 19.8416 29.0227 19.8428 28.9825 19.8434C28.9206 19.7512 28.8593 19.7363 28.7993 19.8447C28.3376 19.8509 27.8765 19.8608 27.4149 19.862C25.8324 19.8645 24.2499 19.8632 22.6675 19.8626C22.5654 19.8626 22.4632 19.8515 22.3617 19.8453C22.3054 19.7475 22.2157 19.7679 22.129 19.7797C22.1371 19.7351 22.1451 19.6899 22.1526 19.6453C22.199 19.6292 22.2175 19.61 22.1618 19.5797Z" fill="#2969B2"/>
<path d="M28.2984 20.974C28.4383 20.9679 28.5775 20.9617 28.7632 20.9536C27.716 23.3205 26.2029 25.2621 24.2014 26.8222C22.4308 28.2023 20.4504 29.1384 18.2441 29.6033C18.5121 29.2349 18.8197 28.908 19.0784 28.5421C20.3223 26.7801 21.0402 24.794 21.557 22.7237C21.6938 22.1745 21.8064 21.6192 21.9302 21.0663C23.944 21.0663 25.9578 21.0675 27.9722 21.0632C28.0824 21.0626 28.226 21.1332 28.2984 20.974Z" fill="#2969B2"/>
<path d="M21.9863 9.01949C21.795 8.6313 21.782 8.19916 21.6849 7.78806C21.1712 5.61124 20.4737 3.51057 19.2044 1.64084C18.9055 1.20064 18.5775 0.783358 18.1895 0.412506C18.3318 0.348117 18.4556 0.413744 18.58 0.446557C23.229 1.68046 26.5796 4.48135 28.6645 8.81023C28.7728 9.03559 28.7079 9.08264 28.4906 9.02878C28.4238 8.89195 28.2963 8.93529 28.1905 8.93529C26.2126 8.93281 24.2346 8.93281 22.2567 8.93591C22.1626 8.93591 22.0438 8.887 21.9863 9.01949Z" fill="#2969B2"/>
<path d="M8.09076 21.1838C8.3575 22.3787 8.62299 23.5736 9.02898 24.732C9.72583 26.7187 10.2036 27.5706 11.7991 29.6199C11.6889 29.6069 11.6054 29.6063 11.5261 29.5859C7.21443 28.4727 3.96038 25.9826 1.79494 22.084C1.62289 21.7738 1.41619 21.476 1.36049 21.1083C1.33883 20.9665 1.31345 20.9708 1.50345 20.9702C1.561 21.1244 1.6953 21.0637 1.7968 21.0637C3.76606 21.0674 5.73532 21.0668 7.70458 21.0643C7.81041 21.0643 7.9379 21.1089 8.00598 20.9727C8.09695 20.9919 8.08024 21.0612 8.07715 21.125C8.03011 21.1516 7.98122 21.1981 8.0233 21.2402C8.06601 21.2816 8.07467 21.2123 8.09076 21.1838Z" fill="#2969B2"/>
<path d="M1.30859 8.93069C1.78327 7.76922 2.44237 6.7161 3.22216 5.73851C5.39008 3.02058 8.16945 1.25114 11.5405 0.408521C11.6191 0.38871 11.7001 0.378185 11.8425 0.351562C11.4953 0.736035 11.1877 1.0846 10.9191 1.4635C9.85217 2.96919 9.18193 4.65505 8.6695 6.41397C8.42195 7.26464 8.26166 8.1345 8.05186 8.99322C7.93118 8.91273 7.79441 8.9344 7.66197 8.9344C5.72737 8.93378 3.79276 8.93378 1.85816 8.93378C1.67559 8.93378 1.4924 8.93192 1.30859 8.93069Z" fill="#2969B2"/>
<path d="M1.30802 8.93066C1.4912 8.9319 1.67439 8.93376 1.85758 8.93376C3.79218 8.93376 5.72679 8.93376 7.66139 8.93438C7.79383 8.93438 7.93061 8.91271 8.05129 8.99319C7.98197 9.08978 7.8811 9.04087 7.79693 9.04087C5.70142 9.04396 3.60528 9.04458 1.50977 9.03963C1.44108 9.03963 1.27955 9.13869 1.30802 8.93066Z" fill="#2969B2"/>
<path d="M8.00643 20.9725C7.93836 21.1087 7.81087 21.0642 7.70504 21.0642C5.73578 21.0666 3.76652 21.0666 1.79725 21.0635C1.69576 21.0635 1.56146 21.1242 1.50391 20.9701C3.35373 20.9657 5.20293 20.9602 7.05275 20.9571C7.37023 20.9564 7.68833 20.9676 8.00643 20.9725Z" fill="#2969B2"/>
<path d="M21.9863 9.01946C22.0439 8.88759 22.1627 8.93588 22.2568 8.93588C24.2347 8.9334 26.2126 8.9334 28.1906 8.93526C28.297 8.93526 28.4239 8.89254 28.4907 9.02875C26.7535 9.03308 25.0157 9.04051 23.2785 9.03989C22.8484 9.04051 22.4164 9.07208 21.9863 9.01946Z" fill="#2969B2"/>
<path d="M28.2971 20.9736C28.2247 21.1327 28.0811 21.0622 27.971 21.0628C25.9572 21.0671 23.9433 21.0659 21.9289 21.0659C21.9171 20.9538 21.997 20.9575 22.07 20.9575C24.1457 20.9625 26.2214 20.9681 28.2971 20.9736Z" fill="#2969B2"/>
<path d="M28.549 10.1565C28.4685 10.2759 28.3441 10.2314 28.237 10.232C26.3618 10.2345 24.486 10.2345 22.6102 10.2314C22.505 10.2314 22.3788 10.2815 22.3008 10.1558C22.8547 10.1503 23.408 10.1385 23.9618 10.1397C25.4905 10.1428 27.0197 10.1503 28.549 10.1565Z" fill="#2969B2"/>
<path d="M7.26038 10.1567C7.17993 10.2762 7.05615 10.2317 6.95032 10.2323C5.29916 10.2348 3.64738 10.2348 1.99622 10.2323C1.88978 10.2323 1.766 10.2756 1.68555 10.1567C2.50679 10.1512 3.32804 10.14 4.14929 10.1406C5.18591 10.1406 6.22314 10.1506 7.26038 10.1567Z" fill="#2969B2"/>
<path d="M22.127 19.7788C22.2142 19.767 22.3033 19.7466 22.3597 19.8444C22.273 19.8555 22.1734 19.9125 22.127 19.7788Z" fill="#2969B2"/>
<path d="M8.09094 21.1837C8.07423 21.2122 8.06618 21.2821 8.0241 21.2406C7.9814 21.1985 8.03091 21.1521 8.07794 21.1255C8.08599 21.1379 8.09527 21.1496 8.10022 21.1633C8.10208 21.1676 8.09465 21.1763 8.09094 21.1837Z" fill="#2969B2"/>
<path d="M22.1616 19.5796C22.2173 19.6099 22.1988 19.6291 22.1523 19.6446C22.1554 19.6229 22.1585 19.6013 22.1616 19.5796Z" fill="#2969B2"/>
<path d="M7.56641 19.8453C7.58621 19.797 7.6054 19.7877 7.62396 19.8465C7.60416 19.8459 7.58497 19.8453 7.56641 19.8453Z" fill="#2969B2"/>
<path d="M7.44584 10.1543C7.42604 10.2063 7.40438 10.21 7.38086 10.1568C7.40252 10.1562 7.42418 10.1549 7.44584 10.1543Z" fill="#2969B2"/>
</g>
<defs>
<clipPath id="clip0_3104_27647">
<rect width="30" height="30" fill="white"/>
</clipPath>
</defs>
</svg>
