<svg width="22" height="22" viewBox="0 0 22 22" fill="none" xmlns="http://www.w3.org/2000/svg">
<g clip-path="url(#clip0_4202_31846)">
<path d="M11.0055 1.75861e-06C17.0543 -0.00340026 21.9881 4.92952 21.9992 10.9749C22.0102 17.0611 17.0603 22.0544 10.8992 22C4.8768 21.9473 -0.00764556 17.0433 8.98444e-06 10.98C0.00766353 4.91337 4.92273 0.00425428 11.0055 1.75861e-06ZM11.0259 1.78521C5.94674 1.78351 1.79287 5.8991 1.78692 10.9383C1.78097 16.0609 5.89145 20.2122 10.9724 20.2139C16.0728 20.2156 20.208 16.0873 20.2122 10.9911C20.2165 5.93652 16.0754 1.78691 11.0259 1.78521Z" fill="#292D32"/>
<path d="M10.9982 18.6997C6.78736 18.7082 3.3292 15.2704 3.29518 11.0919C3.26031 6.79771 6.72016 3.31064 10.9523 3.30129C15.2431 3.29193 18.6944 6.72542 18.697 11.0018C18.7004 15.2577 15.266 18.6903 10.9982 18.6997ZM10.2651 8.43408C10.2651 9.25907 10.2668 10.0832 10.2642 10.9082C10.2634 11.1753 10.3374 11.4091 10.5551 11.5733C11.5298 12.3081 12.5019 13.0472 13.4902 13.7642C13.6399 13.8722 13.8763 13.9215 14.0634 13.9037C14.3798 13.8739 14.578 13.6502 14.646 13.3381C14.7132 13.0294 14.5899 12.7853 14.3432 12.6007C13.5429 12.0019 12.7434 11.4015 11.9363 10.8112C11.7866 10.7015 11.7262 10.5901 11.7279 10.3996C11.7373 8.91802 11.7339 7.43644 11.7322 5.95486C11.7322 5.57809 11.5604 5.30082 11.2644 5.18601C10.7669 4.99294 10.2702 5.3493 10.2668 5.91319C10.2608 6.75349 10.2651 7.59379 10.2651 8.43408Z" fill="#B6B8BA"/>
</g>
<defs>
<clipPath id="clip0_4202_31846">
<rect width="22" height="22" fill="white"/>
</clipPath>
</defs>
</svg>
