<svg width="25" height="25" viewBox="0 0 25 25" fill="none" xmlns="http://www.w3.org/2000/svg">
<path d="M8.08527 15.7168C8.08527 14.1623 8.092 12.6078 8.08167 11.0534C8.07808 10.5141 8.02195 9.97528 8.00802 9.43567C8.00353 9.26376 8.12344 9.07413 8.07224 8.92111C7.95144 8.56034 8.02105 8.20149 8.01072 7.84342C8.00353 7.60021 8.08167 7.35546 8.07988 7.11186C8.07718 6.82355 8.00039 6.53524 8.00892 6.24848C8.03003 5.557 8.03183 4.86013 8.13646 4.17636C8.24334 3.48064 8.99014 3.00039 9.81239 3.00039C12.2455 3 14.6781 2.99961 17.1111 3.00077C18.1449 3.00116 18.8944 3.63829 18.8993 4.52826C18.9052 5.51113 18.8437 6.49708 18.9182 7.47571C18.9824 8.31712 19.039 9.16355 18.9649 9.99455C18.8746 11.0052 18.9177 12.0104 18.9088 13.0175C18.8868 15.4905 18.902 17.9635 18.902 20.4365C18.902 20.9321 18.708 21.3527 18.25 21.6703C17.9424 21.8834 17.5889 21.9979 17.1956 21.9983C14.7252 22.0006 12.2549 22.0006 9.785 21.9983C8.85273 21.9971 8.08841 21.3384 8.08661 20.5348C8.08302 18.9286 8.08527 17.3229 8.08527 15.7168ZM18.3744 12.5107C18.3748 12.5107 18.3748 12.5107 18.3753 12.5107C18.3753 9.87044 18.3753 7.2298 18.3753 4.58955C18.3753 3.87495 17.8732 3.43786 17.033 3.4367C14.6673 3.43323 12.3016 3.434 9.93633 3.43901C9.75311 3.4394 9.55822 3.46137 9.38847 3.51687C8.8671 3.68762 8.59676 4.06844 8.59631 4.59726C8.59496 7.53314 8.59496 10.4686 8.59451 13.4045C8.59406 15.743 8.59361 18.0814 8.59496 20.4199C8.59541 20.9699 8.94389 21.4039 9.51331 21.5169C9.77153 21.5681 10.0477 21.5627 10.3162 21.5627C12.5544 21.5654 14.7926 21.5612 17.0312 21.5639C17.8413 21.5646 18.3748 21.1222 18.3748 20.4318C18.3744 17.7916 18.3744 15.1509 18.3744 12.5107Z" fill="white"/>
<path d="M17.4815 5H9V5.34227H17.4815V5Z" fill="white"/>
<path d="M17.4815 15H9V15.3423H17.4815V15Z" fill="white"/>
<path d="M17.4815 18H9V18.3423H17.4815V18Z" fill="white"/>
<path d="M17.4815 6.50781H9V6.85008H17.4815V6.50781Z" fill="white"/>
<path d="M17.4815 16.5078H9V16.8501H17.4815V16.5078Z" fill="white"/>
<path d="M13.2418 5.69531H9V6.03758H13.2418V5.69531Z" fill="white"/>
<path d="M13.2418 15.6953H9V16.0376H13.2418V15.6953Z" fill="white"/>
<path d="M13.2418 18.6953H9V19.0376H13.2418V18.6953Z" fill="white"/>
<path d="M13.2418 7.25195H9V7.59422H13.2418V7.25195Z" fill="white"/>
<path d="M13.2418 17.252H9V17.5942H13.2418V17.252Z" fill="white"/>
<path d="M16 11.3535C16 11.4511 16 11.5489 16 11.6465C15.9873 11.7393 15.9776 11.8328 15.9613 11.9252C15.8517 12.5495 15.5452 13.0589 15.0532 13.4555C14.7034 13.7374 14.3036 13.9092 13.858 13.9726C13.7876 13.9826 13.717 13.9909 13.6464 14C13.5488 14 13.451 14 13.3534 14C13.3394 13.9971 13.3253 13.993 13.3111 13.9909C13.2051 13.9767 13.0974 13.9701 12.9932 13.9477C12.4068 13.8214 11.923 13.5246 11.5472 13.0571C11.2649 12.7057 11.0908 12.3053 11.0274 11.8579C11.0174 11.7875 11.0091 11.7169 11 11.6465C11 11.5489 11 11.4511 11 11.3535C11.0127 11.2607 11.0224 11.1672 11.0387 11.0748C11.1483 10.4505 11.4548 9.94109 11.9468 9.54446C12.2966 9.26238 12.6964 9.09078 13.142 9.02739C13.2124 9.01743 13.283 9.00906 13.3536 9C13.4512 9 13.549 9 13.6466 9C13.6606 9.00294 13.6747 9.00702 13.6889 9.00906C13.7949 9.02332 13.9026 9.02988 14.0068 9.0523C14.5932 9.17862 15.077 9.47541 15.4528 9.94291C15.7353 10.2943 15.9094 10.6947 15.9726 11.1421C15.9826 11.2123 15.9909 11.2829 16 11.3535ZM13.1164 11.9025C13.0011 11.7866 12.8927 11.6768 12.7836 11.5677C12.7055 11.4894 12.6289 11.4092 12.5472 11.335C12.4372 11.2351 12.2837 11.217 12.1573 11.2824C11.9341 11.3979 11.8952 11.6768 12.0779 11.8606C12.3314 12.1153 12.5861 12.3691 12.8402 12.6233C13.012 12.7952 13.2169 12.7954 13.3887 12.6236C13.8064 12.2061 14.2239 11.7889 14.6414 11.371C14.7471 11.265 14.8562 11.1622 14.9556 11.0506C15.0847 10.9055 15.0589 10.6753 14.9083 10.5557C14.755 10.4339 14.5635 10.4498 14.4168 10.5963C14.0245 10.9884 13.6323 11.3805 13.2404 11.773C13.1995 11.8142 13.1601 11.857 13.1164 11.9025Z" fill="#85C340"/>
<path d="M13.2901 20.6457C12.6718 20.6457 12.0557 20.6435 11.4374 20.6479C11.1967 20.6501 10.9935 20.5957 11.0002 20.3152C11.0046 20.0544 11.2033 20.0022 11.4264 20.0022C12.6961 20.0022 13.9636 20 15.2334 20C15.4542 20 15.6485 20.05 15.6507 20.3174C15.653 20.5783 15.4763 20.6457 15.2444 20.6457C14.593 20.6435 13.9416 20.6457 13.2901 20.6457Z" fill="white"/>
</svg>
