<svg width="25" height="25" viewBox="0 0 25 25" fill="none" xmlns="http://www.w3.org/2000/svg">
<g clip-path="url(#clip0_2617_1140)">
<path d="M2.92471 13.3264C2.92471 12.0641 2.93018 10.8018 2.92179 9.53956C2.91887 9.10169 2.87329 8.66414 2.86199 8.22596C2.85834 8.08636 2.9557 7.93237 2.91413 7.80812C2.81604 7.51516 2.87256 7.22377 2.86417 6.933C2.85834 6.73551 2.92179 6.53676 2.92033 6.33895C2.91814 6.10484 2.85579 5.87072 2.86271 5.63786C2.87985 5.07636 2.88131 4.51048 2.96628 3.95524C3.05307 3.3903 3.65949 3.00031 4.32718 3.00031C6.30291 3 8.27826 2.99969 10.254 3.00063C11.0934 3.00094 11.702 3.51831 11.7061 4.241C11.7108 5.03911 11.6608 5.83974 11.7214 6.63441C11.7735 7.31767 11.8195 8.00499 11.7593 8.67979C11.686 9.50044 11.721 10.3167 11.7137 11.1345C11.6958 13.1427 11.7082 15.1508 11.7082 17.1589C11.7082 17.5614 11.5507 17.9029 11.1788 18.1608C10.929 18.3339 10.642 18.4268 10.3225 18.4272C8.31655 18.429 6.31057 18.429 4.30494 18.4272C3.54791 18.4262 2.92726 17.8913 2.9258 17.2387C2.92288 15.9345 2.92471 14.6306 2.92471 13.3264ZM11.2798 10.723C11.2801 10.723 11.2801 10.723 11.2805 10.723C11.2805 8.57901 11.2805 6.43473 11.2805 4.29076C11.2805 3.71048 10.8728 3.35555 10.1905 3.35462C8.26951 3.3518 6.34849 3.35242 4.42783 3.35649C4.27905 3.35681 4.12079 3.37465 3.98295 3.41972C3.55958 3.55837 3.34005 3.8676 3.33969 4.29702C3.33859 6.68105 3.33859 9.06476 3.33823 11.4488C3.33787 13.3477 3.3375 15.2466 3.33859 17.1455C3.33896 17.5921 3.62193 17.9445 4.08432 18.0362C4.294 18.0779 4.51827 18.0735 4.73633 18.0735C6.55379 18.0757 8.37125 18.0722 10.1891 18.0744C10.8469 18.0751 11.2801 17.7157 11.2801 17.1552C11.2798 15.0112 11.2798 12.8669 11.2798 10.723Z" fill="white"/>
<path d="M10.5552 4.625H3.66797V4.90293H10.5552V4.625Z" fill="white"/>
<path d="M10.5552 12.7441H3.66797V13.0221H10.5552V12.7441Z" fill="white"/>
<path d="M10.5552 15.1797H3.66797V15.4576H10.5552V15.1797Z" fill="white"/>
<path d="M10.5552 5.84766H3.66797V6.12559H10.5552V5.84766Z" fill="white"/>
<path d="M10.5552 13.9688H3.66797V14.2467H10.5552V13.9688Z" fill="white"/>
<path d="M7.11245 5.18945H3.66797V5.46739H7.11245V5.18945Z" fill="white"/>
<path d="M7.11245 13.3086H3.66797V13.5865H7.11245V13.3086Z" fill="white"/>
<path d="M7.11245 15.7441H3.66797V16.0221H7.11245V15.7441Z" fill="white"/>
<path d="M7.11245 6.45312H3.66797V6.73106H7.11245V6.45312Z" fill="white"/>
<path d="M7.11245 14.5723H3.66797V14.8502H7.11245V14.5723Z" fill="white"/>
<path d="M9.35312 9.78418C9.35312 9.86341 9.35312 9.94283 9.35312 10.0221C9.34282 10.0974 9.33492 10.1734 9.32168 10.2484C9.2327 10.7554 8.98378 11.169 8.58429 11.4911C8.30026 11.72 7.97559 11.8595 7.61379 11.911C7.55662 11.919 7.49926 11.9258 7.4419 11.9332C7.36266 11.9332 7.28324 11.9332 7.20401 11.9332C7.19261 11.9308 7.18121 11.9275 7.16963 11.9258C7.08359 11.9143 6.99608 11.9089 6.91151 11.8907C6.43536 11.7882 6.04249 11.5471 5.73731 11.1675C5.50806 10.8822 5.36669 10.557 5.31521 10.1938C5.30712 10.1366 5.30032 10.0792 5.29297 10.0221C5.29297 9.94283 5.29297 9.86341 5.29297 9.78418C5.30326 9.70881 5.31117 9.63289 5.32441 9.55788C5.41339 9.05087 5.66231 8.63724 6.0618 8.31517C6.34583 8.08611 6.6705 7.94676 7.0323 7.89529C7.08947 7.8872 7.14683 7.8804 7.20419 7.87305C7.28343 7.87305 7.36285 7.87305 7.44208 7.87305C7.45348 7.87544 7.46488 7.87875 7.47646 7.8804C7.5625 7.89198 7.65001 7.89731 7.73457 7.91551C8.21073 8.01809 8.6036 8.2591 8.90877 8.63871C9.13821 8.92402 9.27958 9.24923 9.33087 9.61248C9.33896 9.66947 9.34577 9.72683 9.35312 9.78418ZM7.01152 10.23C6.91795 10.1359 6.82989 10.0467 6.74128 9.95809C6.67785 9.89448 6.61571 9.8294 6.54934 9.76911C6.46 9.68804 6.33535 9.67333 6.23277 9.72646C6.0515 9.82021 6.01988 10.0467 6.16824 10.196C6.37414 10.4028 6.58097 10.6089 6.78724 10.8153C6.92677 10.9548 7.09315 10.955 7.23269 10.8155C7.57187 10.4765 7.91088 10.1377 8.24988 9.79834C8.33574 9.7123 8.42435 9.62884 8.50506 9.53821C8.60985 9.42037 8.58889 9.23342 8.46663 9.13635C8.34217 9.03745 8.18664 9.05032 8.06751 9.16926C7.74891 9.48766 7.4305 9.80606 7.11227 10.1248C7.07899 10.1583 7.04701 10.193 7.01152 10.23Z" fill="#85C340"/>
<path d="M7.15261 17.329C6.65053 17.329 6.15023 17.3273 5.64814 17.3308C5.45269 17.3326 5.28772 17.2884 5.2931 17.0607C5.29668 16.8488 5.45807 16.8065 5.63918 16.8065C6.67025 16.8065 7.69953 16.8047 8.7306 16.8047C8.90992 16.8047 9.06772 16.8453 9.06951 17.0624C9.07131 17.2743 8.92785 17.329 8.73957 17.329C8.21058 17.3273 7.6816 17.329 7.15261 17.329Z" fill="white"/>
</g>
<path d="M14.4308 6.85742C13.7207 6.85742 13.1445 7.43277 13.1445 8.14314C13.1445 8.8535 13.7207 9.42885 14.4308 9.42885C15.1398 9.42885 15.716 8.8535 15.716 8.14314C15.716 7.43277 15.1398 6.85742 14.4308 6.85742ZM15.2218 7.96658C15.0495 8.10783 14.8782 8.25011 14.7059 8.39135C14.6851 8.409 14.6643 8.42562 14.6436 8.44327C14.6249 8.45885 14.6041 8.46716 14.5803 8.45574C14.5564 8.44431 14.5481 8.42458 14.5481 8.39862C14.5491 8.3415 14.5481 8.28438 14.5481 8.22622C14.5481 8.22207 14.5481 8.21791 14.547 8.2096C14.5034 8.21583 14.4609 8.21999 14.4183 8.22933C14.2325 8.26984 14.0747 8.36123 13.946 8.50351C13.8525 8.60736 13.7882 8.7268 13.7518 8.86285C13.7404 8.90543 13.6979 8.92308 13.6657 8.89712C13.6563 8.88985 13.648 8.87635 13.6439 8.86492C13.6148 8.74757 13.6044 8.62917 13.619 8.50974C13.6605 8.17845 13.8276 7.92816 14.1141 7.75784C14.2242 7.69241 14.3446 7.65294 14.4723 7.63737C14.4972 7.63425 14.5211 7.63217 14.5481 7.62906V7.52313C14.5481 7.49405 14.5491 7.46497 14.5481 7.43693C14.5481 7.412 14.5564 7.39331 14.5792 7.38292C14.6021 7.3715 14.6228 7.37773 14.6415 7.39331C14.6934 7.43693 14.7453 7.47847 14.7972 7.52209C14.9384 7.63841 15.0796 7.75472 15.2197 7.87104C15.2561 7.90116 15.2571 7.9375 15.2218 7.96658Z" fill="#F7941D"/>
<g clip-path="url(#clip1_2617_1140)">
<path d="M16.2274 13.7641C16.0797 13.6827 15.932 13.5999 15.7843 13.5177C15.7518 13.5006 15.7199 13.4827 15.6844 13.4627V13.4806C15.6844 13.6756 15.6844 13.8699 15.6836 14.0649C15.6836 14.0834 15.6897 14.0927 15.7063 14.102C15.879 14.1977 16.0517 14.2941 16.2251 14.3906C16.2297 14.3934 16.2357 14.3963 16.2433 14.3999C16.2441 14.392 16.2441 14.387 16.2441 14.3813C16.2448 14.1849 16.2441 13.9877 16.2448 13.7913C16.2448 13.7777 16.2395 13.7713 16.2274 13.7641ZM16.519 13.5641C16.3372 13.4649 16.1562 13.3663 15.9737 13.2677C15.9676 13.2641 15.9563 13.2649 15.9502 13.2684C15.8843 13.302 15.8184 13.3363 15.7533 13.3706C15.7487 13.3734 15.7442 13.3763 15.7374 13.3806C15.7404 13.382 15.7419 13.3834 15.7434 13.3841C15.9229 13.4841 16.1032 13.5841 16.2827 13.6834C16.2895 13.6863 16.3016 13.6856 16.3085 13.682C16.3736 13.6491 16.4372 13.6149 16.5016 13.5806C16.5084 13.577 16.516 13.5734 16.5243 13.5684C16.5213 13.5656 16.5198 13.5649 16.519 13.5641ZM16.8576 13.382C16.6743 13.2856 16.491 13.1899 16.3077 13.0941C16.3009 13.0906 16.2888 13.0913 16.2819 13.0949C16.2214 13.1256 16.1608 13.1577 16.1002 13.1891C16.0903 13.1941 16.0805 13.1999 16.0691 13.2056C16.0737 13.2091 16.0759 13.2113 16.0782 13.2127C16.2585 13.3106 16.4387 13.4091 16.6198 13.507C16.6251 13.5099 16.6357 13.5091 16.6425 13.5063C16.666 13.4949 16.6894 13.482 16.7129 13.4691C16.7637 13.4427 16.8144 13.4156 16.8674 13.3877C16.8621 13.3841 16.8599 13.3827 16.8576 13.382ZM17.0992 13.9499C17.0833 13.9377 17.0628 13.9391 17.0469 13.9541C17.0325 13.9677 17.0182 13.982 17.0038 13.9956C16.9863 14.012 16.9682 14.0284 16.9507 14.0449L16.922 14.0727L16.9083 14.0856C16.8962 14.0741 16.8848 14.0627 16.8727 14.052C16.8705 14.0499 16.8682 14.0477 16.8659 14.0449C16.8599 14.0399 16.8538 14.0341 16.8477 14.0284C16.8356 14.0184 16.8197 14.017 16.8061 14.0234C16.7955 14.0284 16.7894 14.0363 16.7864 14.0449C16.7834 14.057 16.7864 14.0706 16.7977 14.0813C16.825 14.107 16.8515 14.1327 16.8788 14.1584C16.897 14.1756 16.9189 14.1756 16.9371 14.1584L17.0712 14.032C17.0825 14.0213 17.0939 14.0113 17.1045 13.9999C17.106 13.9984 17.1075 13.997 17.1083 13.9956C17.1181 13.9806 17.1143 13.9613 17.0992 13.9499ZM17.0992 13.9499C17.0833 13.9377 17.0628 13.9391 17.0469 13.9541C17.0325 13.9677 17.0182 13.982 17.0038 13.9956C16.9863 14.012 16.9682 14.0284 16.9507 14.0449L16.922 14.0727L16.9083 14.0856C16.8962 14.0741 16.8848 14.0627 16.8727 14.052C16.8705 14.0499 16.8682 14.0477 16.8659 14.0449C16.8599 14.0399 16.8538 14.0341 16.8477 14.0284C16.8356 14.0184 16.8197 14.017 16.8061 14.0234C16.7955 14.0284 16.7894 14.0363 16.7864 14.0449C16.7834 14.057 16.7864 14.0706 16.7977 14.0813C16.825 14.107 16.8515 14.1327 16.8788 14.1584C16.897 14.1756 16.9189 14.1756 16.9371 14.1584L17.0712 14.032C17.0825 14.0213 17.0939 14.0113 17.1045 13.9999C17.106 13.9984 17.1075 13.997 17.1083 13.9956C17.1181 13.9806 17.1143 13.9613 17.0992 13.9499ZM16.8576 13.382C16.6743 13.2856 16.491 13.1899 16.3077 13.0941C16.3009 13.0906 16.2888 13.0913 16.2819 13.0949C16.2214 13.1256 16.1608 13.1577 16.1002 13.1891C16.0903 13.1941 16.0805 13.1999 16.0691 13.2056C16.0737 13.2091 16.0759 13.2113 16.0782 13.2127C16.2585 13.3106 16.4387 13.4091 16.6198 13.507C16.6251 13.5099 16.6357 13.5091 16.6425 13.5063C16.666 13.4949 16.6894 13.482 16.7129 13.4691C16.7637 13.4427 16.8144 13.4156 16.8674 13.3877C16.8621 13.3841 16.8599 13.3827 16.8576 13.382ZM16.519 13.5641C16.3372 13.4649 16.1562 13.3663 15.9737 13.2677C15.9676 13.2641 15.9563 13.2649 15.9502 13.2684C15.8843 13.302 15.8184 13.3363 15.7533 13.3706C15.7487 13.3734 15.7442 13.3763 15.7374 13.3806C15.7404 13.382 15.7419 13.3834 15.7434 13.3841C15.9229 13.4841 16.1032 13.5841 16.2827 13.6834C16.2895 13.6863 16.3016 13.6856 16.3085 13.682C16.3736 13.6491 16.4372 13.6149 16.5016 13.5806C16.5084 13.577 16.516 13.5734 16.5243 13.5684C16.5213 13.5656 16.5198 13.5649 16.519 13.5641ZM16.2274 13.7641C16.0797 13.6827 15.932 13.5999 15.7843 13.5177C15.7518 13.5006 15.7199 13.4827 15.6844 13.4627V13.4806C15.6844 13.6756 15.6844 13.8699 15.6836 14.0649C15.6836 14.0834 15.6897 14.0927 15.7063 14.102C15.879 14.1977 16.0517 14.2941 16.2251 14.3906C16.2297 14.3934 16.2357 14.3963 16.2433 14.3999C16.2441 14.392 16.2441 14.387 16.2441 14.3813C16.2448 14.1849 16.2441 13.9877 16.2448 13.7913C16.2448 13.7777 16.2395 13.7713 16.2274 13.7641ZM16.2274 13.7641C16.0797 13.6827 15.932 13.5999 15.7843 13.5177C15.7518 13.5006 15.7199 13.4827 15.6844 13.4627V13.4806C15.6844 13.6756 15.6844 13.8699 15.6836 14.0649C15.6836 14.0834 15.6897 14.0927 15.7063 14.102C15.879 14.1977 16.0517 14.2941 16.2251 14.3906C16.2297 14.3934 16.2357 14.3963 16.2433 14.3999C16.2441 14.392 16.2441 14.387 16.2441 14.3813C16.2448 14.1849 16.2441 13.9877 16.2448 13.7913C16.2448 13.7777 16.2395 13.7713 16.2274 13.7641ZM16.519 13.5641C16.3372 13.4649 16.1562 13.3663 15.9737 13.2677C15.9676 13.2641 15.9563 13.2649 15.9502 13.2684C15.8843 13.302 15.8184 13.3363 15.7533 13.3706C15.7487 13.3734 15.7442 13.3763 15.7374 13.3806C15.7404 13.382 15.7419 13.3834 15.7434 13.3841C15.9229 13.4841 16.1032 13.5841 16.2827 13.6834C16.2895 13.6863 16.3016 13.6856 16.3085 13.682C16.3736 13.6491 16.4372 13.6149 16.5016 13.5806C16.5084 13.577 16.516 13.5734 16.5243 13.5684C16.5213 13.5656 16.5198 13.5649 16.519 13.5641ZM16.8576 13.382C16.6743 13.2856 16.491 13.1899 16.3077 13.0941C16.3009 13.0906 16.2888 13.0913 16.2819 13.0949C16.2214 13.1256 16.1608 13.1577 16.1002 13.1891C16.0903 13.1941 16.0805 13.1999 16.0691 13.2056C16.0737 13.2091 16.0759 13.2113 16.0782 13.2127C16.2585 13.3106 16.4387 13.4091 16.6198 13.507C16.6251 13.5099 16.6357 13.5091 16.6425 13.5063C16.666 13.4949 16.6894 13.482 16.7129 13.4691C16.7637 13.4427 16.8144 13.4156 16.8674 13.3877C16.8621 13.3841 16.8599 13.3827 16.8576 13.382ZM17.0992 13.9499C17.0833 13.9377 17.0628 13.9391 17.0469 13.9541C17.0325 13.9677 17.0182 13.982 17.0038 13.9956C16.9863 14.012 16.9682 14.0284 16.9507 14.0449L16.922 14.0727L16.9083 14.0856C16.8962 14.0741 16.8848 14.0627 16.8727 14.052C16.8705 14.0499 16.8682 14.0477 16.8659 14.0449C16.8599 14.0399 16.8538 14.0341 16.8477 14.0284C16.8356 14.0184 16.8197 14.017 16.8061 14.0234C16.7955 14.0284 16.7894 14.0363 16.7864 14.0449C16.7834 14.057 16.7864 14.0706 16.7977 14.0813C16.825 14.107 16.8515 14.1327 16.8788 14.1584C16.897 14.1756 16.9189 14.1756 16.9371 14.1584L17.0712 14.032C17.0825 14.0213 17.0939 14.0113 17.1045 13.9999C17.106 13.9984 17.1075 13.997 17.1083 13.9956C17.1181 13.9806 17.1143 13.9613 17.0992 13.9499ZM17.0992 13.9499C17.0833 13.9377 17.0628 13.9391 17.0469 13.9541C17.0325 13.9677 17.0182 13.982 17.0038 13.9956C16.9863 14.012 16.9682 14.0284 16.9507 14.0449L16.922 14.0727L16.9083 14.0856C16.8962 14.0741 16.8848 14.0627 16.8727 14.052C16.8705 14.0499 16.8682 14.0477 16.8659 14.0449C16.8599 14.0399 16.8538 14.0341 16.8477 14.0284C16.8356 14.0184 16.8197 14.017 16.8061 14.0234C16.7955 14.0284 16.7894 14.0363 16.7864 14.0449C16.7834 14.057 16.7864 14.0706 16.7977 14.0813C16.825 14.107 16.8515 14.1327 16.8788 14.1584C16.897 14.1756 16.9189 14.1756 16.9371 14.1584L17.0712 14.032C17.0825 14.0213 17.0939 14.0113 17.1045 13.9999C17.106 13.9984 17.1075 13.997 17.1083 13.9956C17.1181 13.9806 17.1143 13.9613 17.0992 13.9499ZM16.8576 13.382C16.6743 13.2856 16.491 13.1899 16.3077 13.0941C16.3009 13.0906 16.2888 13.0913 16.2819 13.0949C16.2214 13.1256 16.1608 13.1577 16.1002 13.1891C16.0903 13.1941 16.0805 13.1999 16.0691 13.2056C16.0737 13.2091 16.0759 13.2113 16.0782 13.2127C16.2585 13.3106 16.4387 13.4091 16.6198 13.507C16.6251 13.5099 16.6357 13.5091 16.6425 13.5063C16.666 13.4949 16.6894 13.482 16.7129 13.4691C16.7637 13.4427 16.8144 13.4156 16.8674 13.3877C16.8621 13.3841 16.8599 13.3827 16.8576 13.382ZM16.519 13.5641C16.3372 13.4649 16.1562 13.3663 15.9737 13.2677C15.9676 13.2641 15.9563 13.2649 15.9502 13.2684C15.8843 13.302 15.8184 13.3363 15.7533 13.3706C15.7487 13.3734 15.7442 13.3763 15.7374 13.3806C15.7404 13.382 15.7419 13.3834 15.7434 13.3841C15.9229 13.4841 16.1032 13.5841 16.2827 13.6834C16.2895 13.6863 16.3016 13.6856 16.3085 13.682C16.3736 13.6491 16.4372 13.6149 16.5016 13.5806C16.5084 13.577 16.516 13.5734 16.5243 13.5684C16.5213 13.5656 16.5198 13.5649 16.519 13.5641ZM16.2274 13.7641C16.0797 13.6827 15.932 13.5999 15.7843 13.5177C15.7518 13.5006 15.7199 13.4827 15.6844 13.4627V13.4806C15.6844 13.6756 15.6844 13.8699 15.6836 14.0649C15.6836 14.0834 15.6897 14.0927 15.7063 14.102C15.879 14.1977 16.0517 14.2941 16.2251 14.3906C16.2297 14.3934 16.2357 14.3963 16.2433 14.3999C16.2441 14.392 16.2441 14.387 16.2441 14.3813C16.2448 14.1849 16.2441 13.9877 16.2448 13.7913C16.2448 13.7777 16.2395 13.7713 16.2274 13.7641ZM16.2274 13.7641C16.0797 13.6827 15.932 13.5999 15.7843 13.5177C15.7518 13.5006 15.7199 13.4827 15.6844 13.4627V13.4806C15.6844 13.6756 15.6844 13.8699 15.6836 14.0649C15.6836 14.0834 15.6897 14.0927 15.7063 14.102C15.879 14.1977 16.0517 14.2941 16.2251 14.3906C16.2297 14.3934 16.2357 14.3963 16.2433 14.3999C16.2441 14.392 16.2441 14.387 16.2441 14.3813C16.2448 14.1849 16.2441 13.9877 16.2448 13.7913C16.2448 13.7777 16.2395 13.7713 16.2274 13.7641ZM16.519 13.5641C16.3372 13.4649 16.1562 13.3663 15.9737 13.2677C15.9676 13.2641 15.9563 13.2649 15.9502 13.2684C15.8843 13.302 15.8184 13.3363 15.7533 13.3706C15.7487 13.3734 15.7442 13.3763 15.7374 13.3806C15.7404 13.382 15.7419 13.3834 15.7434 13.3841C15.9229 13.4841 16.1032 13.5841 16.2827 13.6834C16.2895 13.6863 16.3016 13.6856 16.3085 13.682C16.3736 13.6491 16.4372 13.6149 16.5016 13.5806C16.5084 13.577 16.516 13.5734 16.5243 13.5684C16.5213 13.5656 16.5198 13.5649 16.519 13.5641ZM16.8576 13.382C16.6743 13.2856 16.491 13.1899 16.3077 13.0941C16.3009 13.0906 16.2888 13.0913 16.2819 13.0949C16.2214 13.1256 16.1608 13.1577 16.1002 13.1891C16.0903 13.1941 16.0805 13.1999 16.0691 13.2056C16.0737 13.2091 16.0759 13.2113 16.0782 13.2127C16.2585 13.3106 16.4387 13.4091 16.6198 13.507C16.6251 13.5099 16.6357 13.5091 16.6425 13.5063C16.666 13.4949 16.6894 13.482 16.7129 13.4691C16.7637 13.4427 16.8144 13.4156 16.8674 13.3877C16.8621 13.3841 16.8599 13.3827 16.8576 13.382ZM17.0992 13.9499C17.0833 13.9377 17.0628 13.9391 17.0469 13.9541C17.0325 13.9677 17.0182 13.982 17.0038 13.9956C16.9863 14.012 16.9682 14.0284 16.9507 14.0449L16.922 14.0727L16.9083 14.0856C16.8962 14.0741 16.8848 14.0627 16.8727 14.052C16.8705 14.0499 16.8682 14.0477 16.8659 14.0449C16.8599 14.0399 16.8538 14.0341 16.8477 14.0284C16.8356 14.0184 16.8197 14.017 16.8061 14.0234C16.7955 14.0284 16.7894 14.0363 16.7864 14.0449C16.7834 14.057 16.7864 14.0706 16.7977 14.0813C16.825 14.107 16.8515 14.1327 16.8788 14.1584C16.897 14.1756 16.9189 14.1756 16.9371 14.1584L17.0712 14.032C17.0825 14.0213 17.0939 14.0113 17.1045 13.9999C17.106 13.9984 17.1075 13.997 17.1083 13.9956C17.1181 13.9806 17.1143 13.9613 17.0992 13.9499ZM17.0992 13.9499C17.0833 13.9377 17.0628 13.9391 17.0469 13.9541C17.0325 13.9677 17.0182 13.982 17.0038 13.9956C16.9863 14.012 16.9682 14.0284 16.9507 14.0449L16.922 14.0727L16.9083 14.0856C16.8962 14.0741 16.8848 14.0627 16.8727 14.052C16.8705 14.0499 16.8682 14.0477 16.8659 14.0449C16.8599 14.0399 16.8538 14.0341 16.8477 14.0284C16.8356 14.0184 16.8197 14.017 16.8061 14.0234C16.7955 14.0284 16.7894 14.0363 16.7864 14.0449C16.7834 14.057 16.7864 14.0706 16.7977 14.0813C16.825 14.107 16.8515 14.1327 16.8788 14.1584C16.897 14.1756 16.9189 14.1756 16.9371 14.1584L17.0712 14.032C17.0825 14.0213 17.0939 14.0113 17.1045 13.9999C17.106 13.9984 17.1075 13.997 17.1083 13.9956C17.1181 13.9806 17.1143 13.9613 17.0992 13.9499ZM16.8576 13.382C16.6743 13.2856 16.491 13.1899 16.3077 13.0941C16.3009 13.0906 16.2888 13.0913 16.2819 13.0949C16.2214 13.1256 16.1608 13.1577 16.1002 13.1891C16.0903 13.1941 16.0805 13.1999 16.0691 13.2056C16.0737 13.2091 16.0759 13.2113 16.0782 13.2127C16.2585 13.3106 16.4387 13.4091 16.6198 13.507C16.6251 13.5099 16.6357 13.5091 16.6425 13.5063C16.666 13.4949 16.6894 13.482 16.7129 13.4691C16.7637 13.4427 16.8144 13.4156 16.8674 13.3877C16.8621 13.3841 16.8599 13.3827 16.8576 13.382ZM16.519 13.5641C16.3372 13.4649 16.1562 13.3663 15.9737 13.2677C15.9676 13.2641 15.9563 13.2649 15.9502 13.2684C15.8843 13.302 15.8184 13.3363 15.7533 13.3706C15.7487 13.3734 15.7442 13.3763 15.7374 13.3806C15.7404 13.382 15.7419 13.3834 15.7434 13.3841C15.9229 13.4841 16.1032 13.5841 16.2827 13.6834C16.2895 13.6863 16.3016 13.6856 16.3085 13.682C16.3736 13.6491 16.4372 13.6149 16.5016 13.5806C16.5084 13.577 16.516 13.5734 16.5243 13.5684C16.5213 13.5656 16.5198 13.5649 16.519 13.5641ZM16.2274 13.7641C16.0797 13.6827 15.932 13.5999 15.7843 13.5177C15.7518 13.5006 15.7199 13.4827 15.6844 13.4627V13.4806C15.6844 13.6756 15.6844 13.8699 15.6836 14.0649C15.6836 14.0834 15.6897 14.0927 15.7063 14.102C15.879 14.1977 16.0517 14.2941 16.2251 14.3906C16.2297 14.3934 16.2357 14.3963 16.2433 14.3999C16.2441 14.392 16.2441 14.387 16.2441 14.3813C16.2448 14.1849 16.2441 13.9877 16.2448 13.7913C16.2448 13.7777 16.2395 13.7713 16.2274 13.7641ZM16.2274 13.7641C16.0797 13.6827 15.932 13.5999 15.7843 13.5177C15.7518 13.5006 15.7199 13.4827 15.6844 13.4627V13.4806C15.6844 13.6756 15.6844 13.8699 15.6836 14.0649C15.6836 14.0834 15.6897 14.0927 15.7063 14.102C15.879 14.1977 16.0517 14.2941 16.2251 14.3906C16.2297 14.3934 16.2357 14.3963 16.2433 14.3999C16.2441 14.392 16.2441 14.387 16.2441 14.3813C16.2448 14.1849 16.2441 13.9877 16.2448 13.7913C16.2448 13.7777 16.2395 13.7713 16.2274 13.7641ZM16.519 13.5641C16.3372 13.4649 16.1562 13.3663 15.9737 13.2677C15.9676 13.2641 15.9563 13.2649 15.9502 13.2684C15.8843 13.302 15.8184 13.3363 15.7533 13.3706C15.7487 13.3734 15.7442 13.3763 15.7374 13.3806C15.7404 13.382 15.7419 13.3834 15.7434 13.3841C15.9229 13.4841 16.1032 13.5841 16.2827 13.6834C16.2895 13.6863 16.3016 13.6856 16.3085 13.682C16.3736 13.6491 16.4372 13.6149 16.5016 13.5806C16.5084 13.577 16.516 13.5734 16.5243 13.5684C16.5213 13.5656 16.5198 13.5649 16.519 13.5641ZM16.8576 13.382C16.6743 13.2856 16.491 13.1899 16.3077 13.0941C16.3009 13.0906 16.2888 13.0913 16.2819 13.0949C16.2214 13.1256 16.1608 13.1577 16.1002 13.1891C16.0903 13.1941 16.0805 13.1999 16.0691 13.2056C16.0737 13.2091 16.0759 13.2113 16.0782 13.2127C16.2585 13.3106 16.4387 13.4091 16.6198 13.507C16.6251 13.5099 16.6357 13.5091 16.6425 13.5063C16.666 13.4949 16.6894 13.482 16.7129 13.4691C16.7637 13.4427 16.8144 13.4156 16.8674 13.3877C16.8621 13.3841 16.8599 13.3827 16.8576 13.382ZM17.0992 13.9499C17.0833 13.9377 17.0628 13.9391 17.0469 13.9541C17.0325 13.9677 17.0182 13.982 17.0038 13.9956C16.9863 14.012 16.9682 14.0284 16.9507 14.0449L16.922 14.0727L16.9083 14.0856C16.8962 14.0741 16.8848 14.0627 16.8727 14.052C16.8705 14.0499 16.8682 14.0477 16.8659 14.0449C16.8599 14.0399 16.8538 14.0341 16.8477 14.0284C16.8356 14.0184 16.8197 14.017 16.8061 14.0234C16.7955 14.0284 16.7894 14.0363 16.7864 14.0449C16.7834 14.057 16.7864 14.0706 16.7977 14.0813C16.825 14.107 16.8515 14.1327 16.8788 14.1584C16.897 14.1756 16.9189 14.1756 16.9371 14.1584L17.0712 14.032C17.0825 14.0213 17.0939 14.0113 17.1045 13.9999C17.106 13.9984 17.1075 13.997 17.1083 13.9956C17.1181 13.9806 17.1143 13.9613 17.0992 13.9499ZM17.0992 13.9499C17.0833 13.9377 17.0628 13.9391 17.0469 13.9541C17.0325 13.9677 17.0182 13.982 17.0038 13.9956C16.9863 14.012 16.9682 14.0284 16.9507 14.0449L16.922 14.0727L16.9083 14.0856C16.8962 14.0741 16.8848 14.0627 16.8727 14.052C16.8705 14.0499 16.8682 14.0477 16.8659 14.0449C16.8599 14.0399 16.8538 14.0341 16.8477 14.0284C16.8356 14.0184 16.8197 14.017 16.8061 14.0234C16.7955 14.0284 16.7894 14.0363 16.7864 14.0449C16.7834 14.057 16.7864 14.0706 16.7977 14.0813C16.825 14.107 16.8515 14.1327 16.8788 14.1584C16.897 14.1756 16.9189 14.1756 16.9371 14.1584L17.0712 14.032C17.0825 14.0213 17.0939 14.0113 17.1045 13.9999C17.106 13.9984 17.1075 13.997 17.1083 13.9956C17.1181 13.9806 17.1143 13.9613 17.0992 13.9499ZM16.8576 13.382C16.6743 13.2856 16.491 13.1899 16.3077 13.0941C16.3009 13.0906 16.2888 13.0913 16.2819 13.0949C16.2214 13.1256 16.1608 13.1577 16.1002 13.1891C16.0903 13.1941 16.0805 13.1999 16.0691 13.2056C16.0737 13.2091 16.0759 13.2113 16.0782 13.2127C16.2585 13.3106 16.4387 13.4091 16.6198 13.507C16.6251 13.5099 16.6357 13.5091 16.6425 13.5063C16.666 13.4949 16.6894 13.482 16.7129 13.4691C16.7637 13.4427 16.8144 13.4156 16.8674 13.3877C16.8621 13.3841 16.8599 13.3827 16.8576 13.382ZM16.519 13.5641C16.3372 13.4649 16.1562 13.3663 15.9737 13.2677C15.9676 13.2641 15.9563 13.2649 15.9502 13.2684C15.8843 13.302 15.8184 13.3363 15.7533 13.3706C15.7487 13.3734 15.7442 13.3763 15.7374 13.3806C15.7404 13.382 15.7419 13.3834 15.7434 13.3841C15.9229 13.4841 16.1032 13.5841 16.2827 13.6834C16.2895 13.6863 16.3016 13.6856 16.3085 13.682C16.3736 13.6491 16.4372 13.6149 16.5016 13.5806C16.5084 13.577 16.516 13.5734 16.5243 13.5684C16.5213 13.5656 16.5198 13.5649 16.519 13.5641ZM16.2274 13.7641C16.0797 13.6827 15.932 13.5999 15.7843 13.5177C15.7518 13.5006 15.7199 13.4827 15.6844 13.4627V13.4806C15.6844 13.6756 15.6844 13.8699 15.6836 14.0649C15.6836 14.0834 15.6897 14.0927 15.7063 14.102C15.879 14.1977 16.0517 14.2941 16.2251 14.3906C16.2297 14.3934 16.2357 14.3963 16.2433 14.3999C16.2441 14.392 16.2441 14.387 16.2441 14.3813C16.2448 14.1849 16.2441 13.9877 16.2448 13.7913C16.2448 13.7777 16.2395 13.7713 16.2274 13.7641ZM16.2274 13.7641C16.0797 13.6827 15.932 13.5999 15.7843 13.5177C15.7518 13.5006 15.7199 13.4827 15.6844 13.4627V13.4806C15.6844 13.6756 15.6844 13.8699 15.6836 14.0649C15.6836 14.0834 15.6897 14.0927 15.7063 14.102C15.879 14.1977 16.0517 14.2941 16.2251 14.3906C16.2297 14.3934 16.2357 14.3963 16.2433 14.3999C16.2441 14.392 16.2441 14.387 16.2441 14.3813C16.2448 14.1849 16.2441 13.9877 16.2448 13.7913C16.2448 13.7777 16.2395 13.7713 16.2274 13.7641ZM16.519 13.5641C16.3372 13.4649 16.1562 13.3663 15.9737 13.2677C15.9676 13.2641 15.9563 13.2649 15.9502 13.2684C15.8843 13.302 15.8184 13.3363 15.7533 13.3706C15.7487 13.3734 15.7442 13.3763 15.7374 13.3806C15.7404 13.382 15.7419 13.3834 15.7434 13.3841C15.9229 13.4841 16.1032 13.5841 16.2827 13.6834C16.2895 13.6863 16.3016 13.6856 16.3085 13.682C16.3736 13.6491 16.4372 13.6149 16.5016 13.5806C16.5084 13.577 16.516 13.5734 16.5243 13.5684C16.5213 13.5656 16.5198 13.5649 16.519 13.5641ZM16.8576 13.382C16.6743 13.2856 16.491 13.1899 16.3077 13.0941C16.3009 13.0906 16.2888 13.0913 16.2819 13.0949C16.2214 13.1256 16.1608 13.1577 16.1002 13.1891C16.0903 13.1941 16.0805 13.1999 16.0691 13.2056C16.0737 13.2091 16.0759 13.2113 16.0782 13.2127C16.2585 13.3106 16.4387 13.4091 16.6198 13.507C16.6251 13.5099 16.6357 13.5091 16.6425 13.5063C16.666 13.4949 16.6894 13.482 16.7129 13.4691C16.7637 13.4427 16.8144 13.4156 16.8674 13.3877C16.8621 13.3841 16.8599 13.3827 16.8576 13.382ZM17.0992 13.9499C17.0833 13.9377 17.0628 13.9391 17.0469 13.9541C17.0325 13.9677 17.0182 13.982 17.0038 13.9956C16.9863 14.012 16.9682 14.0284 16.9507 14.0449L16.922 14.0727L16.9083 14.0856C16.8962 14.0741 16.8848 14.0627 16.8727 14.052C16.8705 14.0499 16.8682 14.0477 16.8659 14.0449C16.8599 14.0399 16.8538 14.0341 16.8477 14.0284C16.8356 14.0184 16.8197 14.017 16.8061 14.0234C16.7955 14.0284 16.7894 14.0363 16.7864 14.0449C16.7834 14.057 16.7864 14.0706 16.7977 14.0813C16.825 14.107 16.8515 14.1327 16.8788 14.1584C16.897 14.1756 16.9189 14.1756 16.9371 14.1584L17.0712 14.032C17.0825 14.0213 17.0939 14.0113 17.1045 13.9999C17.106 13.9984 17.1075 13.997 17.1083 13.9956C17.1181 13.9806 17.1143 13.9613 17.0992 13.9499ZM17.0992 13.9499C17.0833 13.9377 17.0628 13.9391 17.0469 13.9541C17.0325 13.9677 17.0182 13.982 17.0038 13.9956C16.9863 14.012 16.9682 14.0284 16.9507 14.0449L16.922 14.0727L16.9083 14.0856C16.8962 14.0741 16.8848 14.0627 16.8727 14.052C16.8705 14.0499 16.8682 14.0477 16.8659 14.0449C16.8599 14.0399 16.8538 14.0341 16.8477 14.0284C16.8356 14.0184 16.8197 14.017 16.8061 14.0234C16.7955 14.0284 16.7894 14.0363 16.7864 14.0449C16.7834 14.057 16.7864 14.0706 16.7977 14.0813C16.825 14.107 16.8515 14.1327 16.8788 14.1584C16.897 14.1756 16.9189 14.1756 16.9371 14.1584L17.0712 14.032C17.0825 14.0213 17.0939 14.0113 17.1045 13.9999C17.106 13.9984 17.1075 13.997 17.1083 13.9956C17.1181 13.9806 17.1143 13.9613 17.0992 13.9499ZM16.8576 13.382C16.6743 13.2856 16.491 13.1899 16.3077 13.0941C16.3009 13.0906 16.2888 13.0913 16.2819 13.0949C16.2214 13.1256 16.1608 13.1577 16.1002 13.1891C16.0903 13.1941 16.0805 13.1999 16.0691 13.2056C16.0737 13.2091 16.0759 13.2113 16.0782 13.2127C16.2585 13.3106 16.4387 13.4091 16.6198 13.507C16.6251 13.5099 16.6357 13.5091 16.6425 13.5063C16.666 13.4949 16.6894 13.482 16.7129 13.4691C16.7637 13.4427 16.8144 13.4156 16.8674 13.3877C16.8621 13.3841 16.8599 13.3827 16.8576 13.382ZM16.519 13.5641C16.3372 13.4649 16.1562 13.3663 15.9737 13.2677C15.9676 13.2641 15.9563 13.2649 15.9502 13.2684C15.8843 13.302 15.8184 13.3363 15.7533 13.3706C15.7487 13.3734 15.7442 13.3763 15.7374 13.3806C15.7404 13.382 15.7419 13.3834 15.7434 13.3841C15.9229 13.4841 16.1032 13.5841 16.2827 13.6834C16.2895 13.6863 16.3016 13.6856 16.3085 13.682C16.3736 13.6491 16.4372 13.6149 16.5016 13.5806C16.5084 13.577 16.516 13.5734 16.5243 13.5684C16.5213 13.5656 16.5198 13.5649 16.519 13.5641ZM16.2274 13.7641C16.0797 13.6827 15.932 13.5999 15.7843 13.5177C15.7518 13.5006 15.7199 13.4827 15.6844 13.4627V13.4806C15.6844 13.6756 15.6844 13.8699 15.6836 14.0649C15.6836 14.0834 15.6897 14.0927 15.7063 14.102C15.879 14.1977 16.0517 14.2941 16.2251 14.3906C16.2297 14.3934 16.2357 14.3963 16.2433 14.3999C16.2441 14.392 16.2441 14.387 16.2441 14.3813C16.2448 14.1849 16.2441 13.9877 16.2448 13.7913C16.2448 13.7777 16.2395 13.7713 16.2274 13.7641ZM16.2274 13.7641C16.0797 13.6827 15.932 13.5999 15.7843 13.5177C15.7518 13.5006 15.7199 13.4827 15.6844 13.4627V13.4806C15.6844 13.6756 15.6844 13.8699 15.6836 14.0649C15.6836 14.0834 15.6897 14.0927 15.7063 14.102C15.879 14.1977 16.0517 14.2941 16.2251 14.3906C16.2297 14.3934 16.2357 14.3963 16.2433 14.3999C16.2441 14.392 16.2441 14.387 16.2441 14.3813C16.2448 14.1849 16.2441 13.9877 16.2448 13.7913C16.2448 13.7777 16.2395 13.7713 16.2274 13.7641ZM16.519 13.5641C16.3372 13.4649 16.1562 13.3663 15.9737 13.2677C15.9676 13.2641 15.9563 13.2649 15.9502 13.2684C15.8843 13.302 15.8184 13.3363 15.7533 13.3706C15.7487 13.3734 15.7442 13.3763 15.7374 13.3806C15.7404 13.382 15.7419 13.3834 15.7434 13.3841C15.9229 13.4841 16.1032 13.5841 16.2827 13.6834C16.2895 13.6863 16.3016 13.6856 16.3085 13.682C16.3736 13.6491 16.4372 13.6149 16.5016 13.5806C16.5084 13.577 16.516 13.5734 16.5243 13.5684C16.5213 13.5656 16.5198 13.5649 16.519 13.5641ZM16.8576 13.382C16.6743 13.2856 16.491 13.1899 16.3077 13.0941C16.3009 13.0906 16.2888 13.0913 16.2819 13.0949C16.2214 13.1256 16.1608 13.1577 16.1002 13.1891C16.0903 13.1941 16.0805 13.1999 16.0691 13.2056C16.0737 13.2091 16.0759 13.2113 16.0782 13.2127C16.2585 13.3106 16.4387 13.4091 16.6198 13.507C16.6251 13.5099 16.6357 13.5091 16.6425 13.5063C16.666 13.4949 16.6894 13.482 16.7129 13.4691C16.7637 13.4427 16.8144 13.4156 16.8674 13.3877C16.8621 13.3841 16.8599 13.3827 16.8576 13.382ZM17.0992 13.9499C17.0833 13.9377 17.0628 13.9391 17.0469 13.9541C17.0325 13.9677 17.0182 13.982 17.0038 13.9956C16.9863 14.012 16.9682 14.0284 16.9507 14.0449L16.922 14.0727L16.9083 14.0856C16.8962 14.0741 16.8848 14.0627 16.8727 14.052C16.8705 14.0499 16.8682 14.0477 16.8659 14.0449C16.8599 14.0399 16.8538 14.0341 16.8477 14.0284C16.8356 14.0184 16.8197 14.017 16.8061 14.0234C16.7955 14.0284 16.7894 14.0363 16.7864 14.0449C16.7834 14.057 16.7864 14.0706 16.7977 14.0813C16.825 14.107 16.8515 14.1327 16.8788 14.1584C16.897 14.1756 16.9189 14.1756 16.9371 14.1584L17.0712 14.032C17.0825 14.0213 17.0939 14.0113 17.1045 13.9999C17.106 13.9984 17.1075 13.997 17.1083 13.9956C17.1181 13.9806 17.1143 13.9613 17.0992 13.9499ZM21.6134 16.1463C21.5975 16.1341 21.577 16.1356 21.5611 16.1506L21.4354 16.2691C21.4316 16.2727 21.427 16.277 21.4225 16.282C21.4104 16.2699 21.3983 16.2591 21.3869 16.2477L21.3801 16.2413C21.374 16.2356 21.368 16.2299 21.3619 16.2249C21.3498 16.2149 21.3339 16.2127 21.3203 16.2191C21.3096 16.2241 21.3036 16.232 21.3006 16.2413C21.2968 16.2534 21.3006 16.267 21.3119 16.2777C21.3384 16.3034 21.3657 16.3284 21.393 16.3541C21.4111 16.3713 21.4331 16.3713 21.4513 16.3541C21.4914 16.3163 21.5316 16.2791 21.5717 16.2413L21.5853 16.2284C21.5967 16.2177 21.6081 16.207 21.6187 16.1963C21.6202 16.1949 21.6217 16.1927 21.6225 16.1913C21.6315 16.177 21.6285 16.157 21.6134 16.1463ZM21.6134 16.1463C21.5975 16.1341 21.577 16.1356 21.5611 16.1506L21.4354 16.2691C21.4316 16.2727 21.427 16.277 21.4225 16.282C21.4104 16.2699 21.3983 16.2591 21.3869 16.2477L21.3801 16.2413C21.374 16.2356 21.368 16.2299 21.3619 16.2249C21.3498 16.2149 21.3339 16.2127 21.3203 16.2191C21.3096 16.2241 21.3036 16.232 21.3006 16.2413C21.2968 16.2534 21.3006 16.267 21.3119 16.2777C21.3384 16.3034 21.3657 16.3284 21.393 16.3541C21.4111 16.3713 21.4331 16.3713 21.4513 16.3541C21.4914 16.3163 21.5316 16.2791 21.5717 16.2413L21.5853 16.2284C21.5967 16.2177 21.6081 16.207 21.6187 16.1963C21.6202 16.1949 21.6217 16.1927 21.6225 16.1913C21.6315 16.177 21.6285 16.157 21.6134 16.1463ZM17.0992 13.9499C17.0833 13.9377 17.0628 13.9391 17.0469 13.9541C17.0325 13.9677 17.0182 13.982 17.0038 13.9956C16.9863 14.012 16.9682 14.0284 16.9507 14.0449L16.922 14.0727L16.9083 14.0856C16.8962 14.0741 16.8848 14.0627 16.8727 14.052C16.8705 14.0499 16.8682 14.0477 16.8659 14.0449C16.8599 14.0399 16.8538 14.0341 16.8477 14.0284C16.8356 14.0184 16.8197 14.017 16.8061 14.0234C16.7955 14.0284 16.7894 14.0363 16.7864 14.0449C16.7834 14.057 16.7864 14.0706 16.7977 14.0813C16.825 14.107 16.8515 14.1327 16.8788 14.1584C16.897 14.1756 16.9189 14.1756 16.9371 14.1584L17.0712 14.032C17.0825 14.0213 17.0939 14.0113 17.1045 13.9999C17.106 13.9984 17.1075 13.997 17.1083 13.9956C17.1181 13.9806 17.1143 13.9613 17.0992 13.9499ZM16.8576 13.382C16.6743 13.2856 16.491 13.1899 16.3077 13.0941C16.3009 13.0906 16.2888 13.0913 16.2819 13.0949C16.2214 13.1256 16.1608 13.1577 16.1002 13.1891C16.0903 13.1941 16.0805 13.1999 16.0691 13.2056C16.0737 13.2091 16.0759 13.2113 16.0782 13.2127C16.2585 13.3106 16.4387 13.4091 16.6198 13.507C16.6251 13.5099 16.6357 13.5091 16.6425 13.5063C16.666 13.4949 16.6894 13.482 16.7129 13.4691C16.7637 13.4427 16.8144 13.4156 16.8674 13.3877C16.8621 13.3841 16.8599 13.3827 16.8576 13.382ZM16.519 13.5641C16.3372 13.4649 16.1562 13.3663 15.9737 13.2677C15.9676 13.2641 15.9563 13.2649 15.9502 13.2684C15.8843 13.302 15.8184 13.3363 15.7533 13.3706C15.7487 13.3734 15.7442 13.3763 15.7374 13.3806C15.7404 13.382 15.7419 13.3834 15.7434 13.3841C15.9229 13.4841 16.1032 13.5841 16.2827 13.6834C16.2895 13.6863 16.3016 13.6856 16.3085 13.682C16.3736 13.6491 16.4372 13.6149 16.5016 13.5806C16.5084 13.577 16.516 13.5734 16.5243 13.5684C16.5213 13.5656 16.5198 13.5649 16.519 13.5641ZM16.2274 13.7641C16.0797 13.6827 15.932 13.5999 15.7843 13.5177C15.7518 13.5006 15.7199 13.4827 15.6844 13.4627V13.4806C15.6844 13.6756 15.6844 13.8699 15.6836 14.0649C15.6836 14.0834 15.6897 14.0927 15.7063 14.102C15.879 14.1977 16.0517 14.2941 16.2251 14.3906C16.2297 14.3934 16.2357 14.3963 16.2433 14.3999C16.2441 14.392 16.2441 14.387 16.2441 14.3813C16.2448 14.1849 16.2441 13.9877 16.2448 13.7913C16.2448 13.7777 16.2395 13.7713 16.2274 13.7641ZM16.2274 13.7641C16.0797 13.6827 15.932 13.5999 15.7843 13.5177C15.7518 13.5006 15.7199 13.4827 15.6844 13.4627V13.4806C15.6844 13.6756 15.6844 13.8699 15.6836 14.0649C15.6836 14.0834 15.6897 14.0927 15.7063 14.102C15.879 14.1977 16.0517 14.2941 16.2251 14.3906C16.2297 14.3934 16.2357 14.3963 16.2433 14.3999C16.2441 14.392 16.2441 14.387 16.2441 14.3813C16.2448 14.1849 16.2441 13.9877 16.2448 13.7913C16.2448 13.7777 16.2395 13.7713 16.2274 13.7641ZM16.519 13.5641C16.3372 13.4649 16.1562 13.3663 15.9737 13.2677C15.9676 13.2641 15.9563 13.2649 15.9502 13.2684C15.8843 13.302 15.8184 13.3363 15.7533 13.3706C15.7487 13.3734 15.7442 13.3763 15.7374 13.3806C15.7404 13.382 15.7419 13.3834 15.7434 13.3841C15.9229 13.4841 16.1032 13.5841 16.2827 13.6834C16.2895 13.6863 16.3016 13.6856 16.3085 13.682C16.3736 13.6491 16.4372 13.6149 16.5016 13.5806C16.5084 13.577 16.516 13.5734 16.5243 13.5684C16.5213 13.5656 16.5198 13.5649 16.519 13.5641ZM16.8576 13.382C16.6743 13.2856 16.491 13.1899 16.3077 13.0941C16.3009 13.0906 16.2888 13.0913 16.2819 13.0949C16.2214 13.1256 16.1608 13.1577 16.1002 13.1891C16.0903 13.1941 16.0805 13.1999 16.0691 13.2056C16.0737 13.2091 16.0759 13.2113 16.0782 13.2127C16.2585 13.3106 16.4387 13.4091 16.6198 13.507C16.6251 13.5099 16.6357 13.5091 16.6425 13.5063C16.666 13.4949 16.6894 13.482 16.7129 13.4691C16.7637 13.4427 16.8144 13.4156 16.8674 13.3877C16.8621 13.3841 16.8599 13.3827 16.8576 13.382ZM17.0992 13.9499C17.0833 13.9377 17.0628 13.9391 17.0469 13.9541C17.0325 13.9677 17.0182 13.982 17.0038 13.9956C16.9863 14.012 16.9682 14.0284 16.9507 14.0449L16.922 14.0727L16.9083 14.0856C16.8962 14.0741 16.8848 14.0627 16.8727 14.052C16.8705 14.0499 16.8682 14.0477 16.8659 14.0449C16.8599 14.0399 16.8538 14.0341 16.8477 14.0284C16.8356 14.0184 16.8197 14.017 16.8061 14.0234C16.7955 14.0284 16.7894 14.0363 16.7864 14.0449C16.7834 14.057 16.7864 14.0706 16.7977 14.0813C16.825 14.107 16.8515 14.1327 16.8788 14.1584C16.897 14.1756 16.9189 14.1756 16.9371 14.1584L17.0712 14.032C17.0825 14.0213 17.0939 14.0113 17.1045 13.9999C17.106 13.9984 17.1075 13.997 17.1083 13.9956C17.1181 13.9806 17.1143 13.9613 17.0992 13.9499ZM20.8173 15.9606C20.6696 15.8784 20.5219 15.7963 20.3735 15.7141C20.3417 15.6963 20.3099 15.6784 20.2743 15.6591V15.6763C20.2743 15.8713 20.2743 16.0663 20.2735 16.2613C20.2735 16.2799 20.2796 16.2891 20.2962 16.2984C20.4689 16.3941 20.6416 16.4906 20.8143 16.587C20.8196 16.5899 20.8257 16.592 20.8332 16.5963C20.8332 16.5877 20.834 16.5827 20.834 16.5777C20.834 16.3806 20.834 16.1841 20.8348 15.9877C20.8348 15.9741 20.8294 15.967 20.8173 15.9606ZM21.1089 15.7599C20.9272 15.6613 20.7454 15.562 20.5636 15.4634C20.5575 15.4606 20.5462 15.4613 20.5401 15.4641C20.4742 15.4977 20.4083 15.5327 20.3432 15.567C20.3386 15.5691 20.3341 15.572 20.3265 15.5763C20.3303 15.5784 20.3318 15.5791 20.3333 15.5799C20.5129 15.6799 20.6924 15.7799 20.8726 15.8791C20.8794 15.8827 20.8916 15.882 20.8984 15.8784C20.9635 15.8449 21.0271 15.8106 21.0915 15.777C21.0983 15.7734 21.1059 15.7691 21.1142 15.7641C21.1104 15.7613 21.1097 15.7606 21.1089 15.7599ZM21.4475 15.5777C21.2642 15.482 21.0809 15.3856 20.8976 15.2906C20.8908 15.287 20.8787 15.287 20.8719 15.2906C20.8105 15.3213 20.7507 15.3534 20.6901 15.3849C20.6802 15.3906 20.6704 15.3956 20.659 15.402C20.6636 15.4049 20.6651 15.407 20.6681 15.4084C20.8484 15.507 21.0286 15.6056 21.2097 15.7027C21.215 15.7063 21.2256 15.7049 21.2316 15.702C21.2559 15.6906 21.2794 15.6777 21.3028 15.6649C21.3536 15.6384 21.4043 15.6113 21.4573 15.5834C21.452 15.5806 21.4498 15.5791 21.4475 15.5777ZM21.6134 16.1463C21.5975 16.1341 21.577 16.1356 21.5611 16.1506L21.4354 16.2691C21.4316 16.2727 21.427 16.277 21.4225 16.282C21.4104 16.2699 21.3983 16.2591 21.3869 16.2477L21.3801 16.2413C21.374 16.2356 21.368 16.2299 21.3619 16.2249C21.3498 16.2149 21.3339 16.2127 21.3203 16.2191C21.3096 16.2241 21.3036 16.232 21.3006 16.2413C21.2968 16.2534 21.3006 16.267 21.3119 16.2777C21.3384 16.3034 21.3657 16.3284 21.393 16.3541C21.4111 16.3713 21.4331 16.3713 21.4513 16.3541C21.4914 16.3163 21.5316 16.2791 21.5717 16.2413L21.5853 16.2284C21.5967 16.2177 21.6081 16.207 21.6187 16.1963C21.6202 16.1949 21.6217 16.1927 21.6225 16.1913C21.6315 16.177 21.6285 16.157 21.6134 16.1463ZM20.8173 15.9606C20.6696 15.8784 20.5219 15.7963 20.3735 15.7141C20.3417 15.6963 20.3099 15.6784 20.2743 15.6591V15.6763C20.2743 15.8713 20.2743 16.0663 20.2735 16.2613C20.2735 16.2799 20.2796 16.2891 20.2962 16.2984C20.4689 16.3941 20.6416 16.4906 20.8143 16.587C20.8196 16.5899 20.8257 16.592 20.8332 16.5963C20.8332 16.5877 20.834 16.5827 20.834 16.5777C20.834 16.3806 20.834 16.1841 20.8348 15.9877C20.8348 15.9741 20.8294 15.967 20.8173 15.9606ZM21.1089 15.7599C20.9272 15.6613 20.7454 15.562 20.5636 15.4634C20.5575 15.4606 20.5462 15.4613 20.5401 15.4641C20.4742 15.4977 20.4083 15.5327 20.3432 15.567C20.3386 15.5691 20.3341 15.572 20.3265 15.5763C20.3303 15.5784 20.3318 15.5791 20.3333 15.5799C20.5129 15.6799 20.6924 15.7799 20.8726 15.8791C20.8794 15.8827 20.8916 15.882 20.8984 15.8784C20.9635 15.8449 21.0271 15.8106 21.0915 15.777C21.0983 15.7734 21.1059 15.7691 21.1142 15.7641C21.1104 15.7613 21.1097 15.7606 21.1089 15.7599ZM21.4475 15.5777C21.2642 15.482 21.0809 15.3856 20.8976 15.2906C20.8908 15.287 20.8787 15.287 20.8719 15.2906C20.8105 15.3213 20.7507 15.3534 20.6901 15.3849C20.6802 15.3906 20.6704 15.3956 20.659 15.402C20.6636 15.4049 20.6651 15.407 20.6681 15.4084C20.8484 15.507 21.0286 15.6056 21.2097 15.7027C21.215 15.7063 21.2256 15.7049 21.2316 15.702C21.2559 15.6906 21.2794 15.6777 21.3028 15.6649C21.3536 15.6384 21.4043 15.6113 21.4573 15.5834C21.452 15.5806 21.4498 15.5791 21.4475 15.5777ZM16.2274 13.7641C16.0797 13.6827 15.932 13.5999 15.7843 13.5177C15.7518 13.5006 15.7199 13.4827 15.6844 13.4627V13.4806C15.6844 13.6756 15.6844 13.8699 15.6836 14.0649C15.6836 14.0834 15.6897 14.0927 15.7063 14.102C15.879 14.1977 16.0517 14.2941 16.2251 14.3906C16.2297 14.3934 16.2357 14.3963 16.2433 14.3999C16.2441 14.392 16.2441 14.387 16.2441 14.3813C16.2448 14.1849 16.2441 13.9877 16.2448 13.7913C16.2448 13.7777 16.2395 13.7713 16.2274 13.7641ZM16.519 13.5641C16.3372 13.4649 16.1562 13.3663 15.9737 13.2677C15.9676 13.2641 15.9563 13.2649 15.9502 13.2684C15.8843 13.302 15.8184 13.3363 15.7533 13.3706C15.7487 13.3734 15.7442 13.3763 15.7374 13.3806C15.7404 13.382 15.7419 13.3834 15.7434 13.3841C15.9229 13.4841 16.1032 13.5841 16.2827 13.6834C16.2895 13.6863 16.3016 13.6856 16.3085 13.682C16.3736 13.6491 16.4372 13.6149 16.5016 13.5806C16.5084 13.577 16.516 13.5734 16.5243 13.5684C16.5213 13.5656 16.5198 13.5649 16.519 13.5641ZM16.8576 13.382C16.6743 13.2856 16.491 13.1899 16.3077 13.0941C16.3009 13.0906 16.2888 13.0913 16.2819 13.0949C16.2214 13.1256 16.1608 13.1577 16.1002 13.1891C16.0903 13.1941 16.0805 13.1999 16.0691 13.2056C16.0737 13.2091 16.0759 13.2113 16.0782 13.2127C16.2585 13.3106 16.4387 13.4091 16.6198 13.507C16.6251 13.5099 16.6357 13.5091 16.6425 13.5063C16.666 13.4949 16.6894 13.482 16.7129 13.4691C16.7637 13.4427 16.8144 13.4156 16.8674 13.3877C16.8621 13.3841 16.8599 13.3827 16.8576 13.382ZM17.0992 13.9499C17.0833 13.9377 17.0628 13.9391 17.0469 13.9541C17.0325 13.9677 17.0182 13.982 17.0038 13.9956C16.9863 14.012 16.9682 14.0284 16.9507 14.0449L16.922 14.0727L16.9083 14.0856C16.8962 14.0741 16.8848 14.0627 16.8727 14.052C16.8705 14.0499 16.8682 14.0477 16.8659 14.0449C16.8599 14.0399 16.8538 14.0341 16.8477 14.0284C16.8356 14.0184 16.8197 14.017 16.8061 14.0234C16.7955 14.0284 16.7894 14.0363 16.7864 14.0449C16.7834 14.057 16.7864 14.0706 16.7977 14.0813C16.825 14.107 16.8515 14.1327 16.8788 14.1584C16.897 14.1756 16.9189 14.1756 16.9371 14.1584L17.0712 14.032C17.0825 14.0213 17.0939 14.0113 17.1045 13.9999C17.106 13.9984 17.1075 13.997 17.1083 13.9956C17.1181 13.9806 17.1143 13.9613 17.0992 13.9499ZM21.6134 16.1463C21.5975 16.1341 21.577 16.1356 21.5611 16.1506L21.4354 16.2691C21.4316 16.2727 21.427 16.277 21.4225 16.282C21.4104 16.2699 21.3983 16.2591 21.3869 16.2477L21.3801 16.2413C21.374 16.2356 21.368 16.2299 21.3619 16.2249C21.3498 16.2149 21.3339 16.2127 21.3203 16.2191C21.3096 16.2241 21.3036 16.232 21.3006 16.2413C21.2968 16.2534 21.3006 16.267 21.3119 16.2777C21.3384 16.3034 21.3657 16.3284 21.393 16.3541C21.4111 16.3713 21.4331 16.3713 21.4513 16.3541C21.4914 16.3163 21.5316 16.2791 21.5717 16.2413L21.5853 16.2284C21.5967 16.2177 21.6081 16.207 21.6187 16.1963C21.6202 16.1949 21.6217 16.1927 21.6225 16.1913C21.6315 16.177 21.6285 16.157 21.6134 16.1463ZM21.6134 16.1463C21.5975 16.1341 21.577 16.1356 21.5611 16.1506L21.4354 16.2691C21.4316 16.2727 21.427 16.277 21.4225 16.282C21.4104 16.2699 21.3983 16.2591 21.3869 16.2477L21.3801 16.2413C21.374 16.2356 21.368 16.2299 21.3619 16.2249C21.3498 16.2149 21.3339 16.2127 21.3203 16.2191C21.3096 16.2241 21.3036 16.232 21.3006 16.2413C21.2968 16.2534 21.3006 16.267 21.3119 16.2777C21.3384 16.3034 21.3657 16.3284 21.393 16.3541C21.4111 16.3713 21.4331 16.3713 21.4513 16.3541C21.4914 16.3163 21.5316 16.2791 21.5717 16.2413L21.5853 16.2284C21.5967 16.2177 21.6081 16.207 21.6187 16.1963C21.6202 16.1949 21.6217 16.1927 21.6225 16.1913C21.6315 16.177 21.6285 16.157 21.6134 16.1463ZM21.4475 15.5777C21.2642 15.482 21.0809 15.3856 20.8976 15.2906C20.8908 15.287 20.8787 15.287 20.8719 15.2906C20.8105 15.3213 20.7507 15.3534 20.6901 15.3849C20.6802 15.3906 20.6704 15.3956 20.659 15.402C20.6636 15.4049 20.6651 15.407 20.6681 15.4084C20.8484 15.507 21.0286 15.6056 21.2097 15.7027C21.215 15.7063 21.2256 15.7049 21.2316 15.702C21.2559 15.6906 21.2794 15.6777 21.3028 15.6649C21.3536 15.6384 21.4043 15.6113 21.4573 15.5834C21.452 15.5806 21.4498 15.5791 21.4475 15.5777ZM21.1089 15.7599C20.9272 15.6613 20.7454 15.562 20.5636 15.4634C20.5575 15.4606 20.5462 15.4613 20.5401 15.4641C20.4742 15.4977 20.4083 15.5327 20.3432 15.567C20.3386 15.5691 20.3341 15.572 20.3265 15.5763C20.3303 15.5784 20.3318 15.5791 20.3333 15.5799C20.5129 15.6799 20.6924 15.7799 20.8726 15.8791C20.8794 15.8827 20.8916 15.882 20.8984 15.8784C20.9635 15.8449 21.0271 15.8106 21.0915 15.777C21.0983 15.7734 21.1059 15.7691 21.1142 15.7641C21.1104 15.7613 21.1097 15.7606 21.1089 15.7599ZM20.8173 15.9606C20.6696 15.8784 20.5219 15.7963 20.3735 15.7141C20.3417 15.6963 20.3099 15.6784 20.2743 15.6591V15.6763C20.2743 15.8713 20.2743 16.0663 20.2735 16.2613C20.2735 16.2799 20.2796 16.2891 20.2962 16.2984C20.4689 16.3941 20.6416 16.4906 20.8143 16.587C20.8196 16.5899 20.8257 16.592 20.8332 16.5963C20.8332 16.5877 20.834 16.5827 20.834 16.5777C20.834 16.3806 20.834 16.1841 20.8348 15.9877C20.8348 15.9741 20.8294 15.967 20.8173 15.9606ZM17.0992 13.9499C17.0833 13.9377 17.0628 13.9391 17.0469 13.9541C17.0325 13.9677 17.0182 13.982 17.0038 13.9956C16.9863 14.012 16.9682 14.0284 16.9507 14.0449L16.922 14.0727L16.9083 14.0856C16.8962 14.0741 16.8848 14.0627 16.8727 14.052C16.8705 14.0499 16.8682 14.0477 16.8659 14.0449C16.8599 14.0399 16.8538 14.0341 16.8477 14.0284C16.8356 14.0184 16.8197 14.017 16.8061 14.0234C16.7955 14.0284 16.7894 14.0363 16.7864 14.0449C16.7834 14.057 16.7864 14.0706 16.7977 14.0813C16.825 14.107 16.8515 14.1327 16.8788 14.1584C16.897 14.1756 16.9189 14.1756 16.9371 14.1584L17.0712 14.032C17.0825 14.0213 17.0939 14.0113 17.1045 13.9999C17.106 13.9984 17.1075 13.997 17.1083 13.9956C17.1181 13.9806 17.1143 13.9613 17.0992 13.9499ZM16.8576 13.382C16.6743 13.2856 16.491 13.1899 16.3077 13.0941C16.3009 13.0906 16.2888 13.0913 16.2819 13.0949C16.2214 13.1256 16.1608 13.1577 16.1002 13.1891C16.0903 13.1941 16.0805 13.1999 16.0691 13.2056C16.0737 13.2091 16.0759 13.2113 16.0782 13.2127C16.2585 13.3106 16.4387 13.4091 16.6198 13.507C16.6251 13.5099 16.6357 13.5091 16.6425 13.5063C16.666 13.4949 16.6894 13.482 16.7129 13.4691C16.7637 13.4427 16.8144 13.4156 16.8674 13.3877C16.8621 13.3841 16.8599 13.3827 16.8576 13.382ZM16.519 13.5641C16.3372 13.4649 16.1562 13.3663 15.9737 13.2677C15.9676 13.2641 15.9563 13.2649 15.9502 13.2684C15.8843 13.302 15.8184 13.3363 15.7533 13.3706C15.7487 13.3734 15.7442 13.3763 15.7374 13.3806C15.7404 13.382 15.7419 13.3834 15.7434 13.3841C15.9229 13.4841 16.1032 13.5841 16.2827 13.6834C16.2895 13.6863 16.3016 13.6856 16.3085 13.682C16.3736 13.6491 16.4372 13.6149 16.5016 13.5806C16.5084 13.577 16.516 13.5734 16.5243 13.5684C16.5213 13.5656 16.5198 13.5649 16.519 13.5641ZM16.2274 13.7641C16.0797 13.6827 15.932 13.5999 15.7843 13.5177C15.7518 13.5006 15.7199 13.4827 15.6844 13.4627V13.4806C15.6844 13.6756 15.6844 13.8699 15.6836 14.0649C15.6836 14.0834 15.6897 14.0927 15.7063 14.102C15.879 14.1977 16.0517 14.2941 16.2251 14.3906C16.2297 14.3934 16.2357 14.3963 16.2433 14.3999C16.2441 14.392 16.2441 14.387 16.2441 14.3813C16.2448 14.1849 16.2441 13.9877 16.2448 13.7913C16.2448 13.7777 16.2395 13.7713 16.2274 13.7641ZM16.2274 13.7641C16.0797 13.6827 15.932 13.5999 15.7843 13.5177C15.7518 13.5006 15.7199 13.4827 15.6844 13.4627V13.4806C15.6844 13.6756 15.6844 13.8699 15.6836 14.0649C15.6836 14.0834 15.6897 14.0927 15.7063 14.102C15.879 14.1977 16.0517 14.2941 16.2251 14.3906C16.2297 14.3934 16.2357 14.3963 16.2433 14.3999C16.2441 14.392 16.2441 14.387 16.2441 14.3813C16.2448 14.1849 16.2441 13.9877 16.2448 13.7913C16.2448 13.7777 16.2395 13.7713 16.2274 13.7641ZM16.519 13.5641C16.3372 13.4649 16.1562 13.3663 15.9737 13.2677C15.9676 13.2641 15.9563 13.2649 15.9502 13.2684C15.8843 13.302 15.8184 13.3363 15.7533 13.3706C15.7487 13.3734 15.7442 13.3763 15.7374 13.3806C15.7404 13.382 15.7419 13.3834 15.7434 13.3841C15.9229 13.4841 16.1032 13.5841 16.2827 13.6834C16.2895 13.6863 16.3016 13.6856 16.3085 13.682C16.3736 13.6491 16.4372 13.6149 16.5016 13.5806C16.5084 13.577 16.516 13.5734 16.5243 13.5684C16.5213 13.5656 16.5198 13.5649 16.519 13.5641ZM16.8576 13.382C16.6743 13.2856 16.491 13.1899 16.3077 13.0941C16.3009 13.0906 16.2888 13.0913 16.2819 13.0949C16.2214 13.1256 16.1608 13.1577 16.1002 13.1891C16.0903 13.1941 16.0805 13.1999 16.0691 13.2056C16.0737 13.2091 16.0759 13.2113 16.0782 13.2127C16.2585 13.3106 16.4387 13.4091 16.6198 13.507C16.6251 13.5099 16.6357 13.5091 16.6425 13.5063C16.666 13.4949 16.6894 13.482 16.7129 13.4691C16.7637 13.4427 16.8144 13.4156 16.8674 13.3877C16.8621 13.3841 16.8599 13.3827 16.8576 13.382ZM17.0992 13.9499C17.0833 13.9377 17.0628 13.9391 17.0469 13.9541C17.0325 13.9677 17.0182 13.982 17.0038 13.9956C16.9863 14.012 16.9682 14.0284 16.9507 14.0449L16.922 14.0727L16.9083 14.0856C16.8962 14.0741 16.8848 14.0627 16.8727 14.052C16.8705 14.0499 16.8682 14.0477 16.8659 14.0449C16.8599 14.0399 16.8538 14.0341 16.8477 14.0284C16.8356 14.0184 16.8197 14.017 16.8061 14.0234C16.7955 14.0284 16.7894 14.0363 16.7864 14.0449C16.7834 14.057 16.7864 14.0706 16.7977 14.0813C16.825 14.107 16.8515 14.1327 16.8788 14.1584C16.897 14.1756 16.9189 14.1756 16.9371 14.1584L17.0712 14.032C17.0825 14.0213 17.0939 14.0113 17.1045 13.9999C17.106 13.9984 17.1075 13.997 17.1083 13.9956C17.1181 13.9806 17.1143 13.9613 17.0992 13.9499ZM17.0992 13.9499C17.0833 13.9377 17.0628 13.9391 17.0469 13.9541C17.0325 13.9677 17.0182 13.982 17.0038 13.9956C16.9863 14.012 16.9682 14.0284 16.9507 14.0449L16.922 14.0727L16.9083 14.0856C16.8962 14.0741 16.8848 14.0627 16.8727 14.052C16.8705 14.0499 16.8682 14.0477 16.8659 14.0449C16.8599 14.0399 16.8538 14.0341 16.8477 14.0284C16.8356 14.0184 16.8197 14.017 16.8061 14.0234C16.7955 14.0284 16.7894 14.0363 16.7864 14.0449C16.7834 14.057 16.7864 14.0706 16.7977 14.0813C16.825 14.107 16.8515 14.1327 16.8788 14.1584C16.897 14.1756 16.9189 14.1756 16.9371 14.1584L17.0712 14.032C17.0825 14.0213 17.0939 14.0113 17.1045 13.9999C17.106 13.9984 17.1075 13.997 17.1083 13.9956C17.1181 13.9806 17.1143 13.9613 17.0992 13.9499ZM16.8576 13.382C16.6743 13.2856 16.491 13.1899 16.3077 13.0941C16.3009 13.0906 16.2888 13.0913 16.2819 13.0949C16.2214 13.1256 16.1608 13.1577 16.1002 13.1891C16.0903 13.1941 16.0805 13.1999 16.0691 13.2056C16.0737 13.2091 16.0759 13.2113 16.0782 13.2127C16.2585 13.3106 16.4387 13.4091 16.6198 13.507C16.6251 13.5099 16.6357 13.5091 16.6425 13.5063C16.666 13.4949 16.6894 13.482 16.7129 13.4691C16.7637 13.4427 16.8144 13.4156 16.8674 13.3877C16.8621 13.3841 16.8599 13.3827 16.8576 13.382ZM16.519 13.5641C16.3372 13.4649 16.1562 13.3663 15.9737 13.2677C15.9676 13.2641 15.9563 13.2649 15.9502 13.2684C15.8843 13.302 15.8184 13.3363 15.7533 13.3706C15.7487 13.3734 15.7442 13.3763 15.7374 13.3806C15.7404 13.382 15.7419 13.3834 15.7434 13.3841C15.9229 13.4841 16.1032 13.5841 16.2827 13.6834C16.2895 13.6863 16.3016 13.6856 16.3085 13.682C16.3736 13.6491 16.4372 13.6149 16.5016 13.5806C16.5084 13.577 16.516 13.5734 16.5243 13.5684C16.5213 13.5656 16.5198 13.5649 16.519 13.5641ZM16.2274 13.7641C16.0797 13.6827 15.932 13.5999 15.7843 13.5177C15.7518 13.5006 15.7199 13.4827 15.6844 13.4627V13.4806C15.6844 13.6756 15.6844 13.8699 15.6836 14.0649C15.6836 14.0834 15.6897 14.0927 15.7063 14.102C15.879 14.1977 16.0517 14.2941 16.2251 14.3906C16.2297 14.3934 16.2357 14.3963 16.2433 14.3999C16.2441 14.392 16.2441 14.387 16.2441 14.3813C16.2448 14.1849 16.2441 13.9877 16.2448 13.7913C16.2448 13.7777 16.2395 13.7713 16.2274 13.7641ZM16.2274 13.7641C16.0797 13.6827 15.932 13.5999 15.7843 13.5177C15.7518 13.5006 15.7199 13.4827 15.6844 13.4627V13.4806C15.6844 13.6756 15.6844 13.8699 15.6836 14.0649C15.6836 14.0834 15.6897 14.0927 15.7063 14.102C15.879 14.1977 16.0517 14.2941 16.2251 14.3906C16.2297 14.3934 16.2357 14.3963 16.2433 14.3999C16.2441 14.392 16.2441 14.387 16.2441 14.3813C16.2448 14.1849 16.2441 13.9877 16.2448 13.7913C16.2448 13.7777 16.2395 13.7713 16.2274 13.7641ZM16.519 13.5641C16.3372 13.4649 16.1562 13.3663 15.9737 13.2677C15.9676 13.2641 15.9563 13.2649 15.9502 13.2684C15.8843 13.302 15.8184 13.3363 15.7533 13.3706C15.7487 13.3734 15.7442 13.3763 15.7374 13.3806C15.7404 13.382 15.7419 13.3834 15.7434 13.3841C15.9229 13.4841 16.1032 13.5841 16.2827 13.6834C16.2895 13.6863 16.3016 13.6856 16.3085 13.682C16.3736 13.6491 16.4372 13.6149 16.5016 13.5806C16.5084 13.577 16.516 13.5734 16.5243 13.5684C16.5213 13.5656 16.5198 13.5649 16.519 13.5641ZM16.8576 13.382C16.6743 13.2856 16.491 13.1899 16.3077 13.0941C16.3009 13.0906 16.2888 13.0913 16.2819 13.0949C16.2214 13.1256 16.1608 13.1577 16.1002 13.1891C16.0903 13.1941 16.0805 13.1999 16.0691 13.2056C16.0737 13.2091 16.0759 13.2113 16.0782 13.2127C16.2585 13.3106 16.4387 13.4091 16.6198 13.507C16.6251 13.5099 16.6357 13.5091 16.6425 13.5063C16.666 13.4949 16.6894 13.482 16.7129 13.4691C16.7637 13.4427 16.8144 13.4156 16.8674 13.3877C16.8621 13.3841 16.8599 13.3827 16.8576 13.382ZM17.0992 13.9499C17.0833 13.9377 17.0628 13.9391 17.0469 13.9541C17.0325 13.9677 17.0182 13.982 17.0038 13.9956C16.9863 14.012 16.9682 14.0284 16.9507 14.0449L16.922 14.0727L16.9083 14.0856C16.8962 14.0741 16.8848 14.0627 16.8727 14.052C16.8705 14.0499 16.8682 14.0477 16.8659 14.0449C16.8599 14.0399 16.8538 14.0341 16.8477 14.0284C16.8356 14.0184 16.8197 14.017 16.8061 14.0234C16.7955 14.0284 16.7894 14.0363 16.7864 14.0449C16.7834 14.057 16.7864 14.0706 16.7977 14.0813C16.825 14.107 16.8515 14.1327 16.8788 14.1584C16.897 14.1756 16.9189 14.1756 16.9371 14.1584L17.0712 14.032C17.0825 14.0213 17.0939 14.0113 17.1045 13.9999C17.106 13.9984 17.1075 13.997 17.1083 13.9956C17.1181 13.9806 17.1143 13.9613 17.0992 13.9499ZM17.0992 13.9499C17.0833 13.9377 17.0628 13.9391 17.0469 13.9541C17.0325 13.9677 17.0182 13.982 17.0038 13.9956C16.9863 14.012 16.9682 14.0284 16.9507 14.0449L16.922 14.0727L16.9083 14.0856C16.8962 14.0741 16.8848 14.0627 16.8727 14.052C16.8705 14.0499 16.8682 14.0477 16.8659 14.0449C16.8599 14.0399 16.8538 14.0341 16.8477 14.0284C16.8356 14.0184 16.8197 14.017 16.8061 14.0234C16.7955 14.0284 16.7894 14.0363 16.7864 14.0449C16.7834 14.057 16.7864 14.0706 16.7977 14.0813C16.825 14.107 16.8515 14.1327 16.8788 14.1584C16.897 14.1756 16.9189 14.1756 16.9371 14.1584L17.0712 14.032C17.0825 14.0213 17.0939 14.0113 17.1045 13.9999C17.106 13.9984 17.1075 13.997 17.1083 13.9956C17.1181 13.9806 17.1143 13.9613 17.0992 13.9499ZM16.8576 13.382C16.6743 13.2856 16.491 13.1899 16.3077 13.0941C16.3009 13.0906 16.2888 13.0913 16.2819 13.0949C16.2214 13.1256 16.1608 13.1577 16.1002 13.1891C16.0903 13.1941 16.0805 13.1999 16.0691 13.2056C16.0737 13.2091 16.0759 13.2113 16.0782 13.2127C16.2585 13.3106 16.4387 13.4091 16.6198 13.507C16.6251 13.5099 16.6357 13.5091 16.6425 13.5063C16.666 13.4949 16.6894 13.482 16.7129 13.4691C16.7637 13.4427 16.8144 13.4156 16.8674 13.3877C16.8621 13.3841 16.8599 13.3827 16.8576 13.382ZM16.519 13.5641C16.3372 13.4649 16.1562 13.3663 15.9737 13.2677C15.9676 13.2641 15.9563 13.2649 15.9502 13.2684C15.8843 13.302 15.8184 13.3363 15.7533 13.3706C15.7487 13.3734 15.7442 13.3763 15.7374 13.3806C15.7404 13.382 15.7419 13.3834 15.7434 13.3841C15.9229 13.4841 16.1032 13.5841 16.2827 13.6834C16.2895 13.6863 16.3016 13.6856 16.3085 13.682C16.3736 13.6491 16.4372 13.6149 16.5016 13.5806C16.5084 13.577 16.516 13.5734 16.5243 13.5684C16.5213 13.5656 16.5198 13.5649 16.519 13.5641ZM16.2274 13.7641C16.0797 13.6827 15.932 13.5999 15.7843 13.5177C15.7518 13.5006 15.7199 13.4827 15.6844 13.4627V13.4806C15.6844 13.6756 15.6844 13.8699 15.6836 14.0649C15.6836 14.0834 15.6897 14.0927 15.7063 14.102C15.879 14.1977 16.0517 14.2941 16.2251 14.3906C16.2297 14.3934 16.2357 14.3963 16.2433 14.3999C16.2441 14.392 16.2441 14.387 16.2441 14.3813C16.2448 14.1849 16.2441 13.9877 16.2448 13.7913C16.2448 13.7777 16.2395 13.7713 16.2274 13.7641ZM16.2274 13.7641C16.0797 13.6827 15.932 13.5999 15.7843 13.5177C15.7518 13.5006 15.7199 13.4827 15.6844 13.4627V13.4806C15.6844 13.6756 15.6844 13.8699 15.6836 14.0649C15.6836 14.0834 15.6897 14.0927 15.7063 14.102C15.879 14.1977 16.0517 14.2941 16.2251 14.3906C16.2297 14.3934 16.2357 14.3963 16.2433 14.3999C16.2441 14.392 16.2441 14.387 16.2441 14.3813C16.2448 14.1849 16.2441 13.9877 16.2448 13.7913C16.2448 13.7777 16.2395 13.7713 16.2274 13.7641ZM16.519 13.5641C16.3372 13.4649 16.1562 13.3663 15.9737 13.2677C15.9676 13.2641 15.9563 13.2649 15.9502 13.2684C15.8843 13.302 15.8184 13.3363 15.7533 13.3706C15.7487 13.3734 15.7442 13.3763 15.7374 13.3806C15.7404 13.382 15.7419 13.3834 15.7434 13.3841C15.9229 13.4841 16.1032 13.5841 16.2827 13.6834C16.2895 13.6863 16.3016 13.6856 16.3085 13.682C16.3736 13.6491 16.4372 13.6149 16.5016 13.5806C16.5084 13.577 16.516 13.5734 16.5243 13.5684C16.5213 13.5656 16.5198 13.5649 16.519 13.5641ZM16.8576 13.382C16.6743 13.2856 16.491 13.1899 16.3077 13.0941C16.3009 13.0906 16.2888 13.0913 16.2819 13.0949C16.2214 13.1256 16.1608 13.1577 16.1002 13.1891C16.0903 13.1941 16.0805 13.1999 16.0691 13.2056C16.0737 13.2091 16.0759 13.2113 16.0782 13.2127C16.2585 13.3106 16.4387 13.4091 16.6198 13.507C16.6251 13.5099 16.6357 13.5091 16.6425 13.5063C16.666 13.4949 16.6894 13.482 16.7129 13.4691C16.7637 13.4427 16.8144 13.4156 16.8674 13.3877C16.8621 13.3841 16.8599 13.3827 16.8576 13.382ZM17.0992 13.9499C17.0833 13.9377 17.0628 13.9391 17.0469 13.9541C17.0325 13.9677 17.0182 13.982 17.0038 13.9956C16.9863 14.012 16.9682 14.0284 16.9507 14.0449L16.922 14.0727L16.9083 14.0856C16.8962 14.0741 16.8848 14.0627 16.8727 14.052C16.8705 14.0499 16.8682 14.0477 16.8659 14.0449C16.8599 14.0399 16.8538 14.0341 16.8477 14.0284C16.8356 14.0184 16.8197 14.017 16.8061 14.0234C16.7955 14.0284 16.7894 14.0363 16.7864 14.0449C16.7834 14.057 16.7864 14.0706 16.7977 14.0813C16.825 14.107 16.8515 14.1327 16.8788 14.1584C16.897 14.1756 16.9189 14.1756 16.9371 14.1584L17.0712 14.032C17.0825 14.0213 17.0939 14.0113 17.1045 13.9999C17.106 13.9984 17.1075 13.997 17.1083 13.9956C17.1181 13.9806 17.1143 13.9613 17.0992 13.9499ZM17.0992 13.9499C17.0833 13.9377 17.0628 13.9391 17.0469 13.9541C17.0325 13.9677 17.0182 13.982 17.0038 13.9956C16.9863 14.012 16.9682 14.0284 16.9507 14.0449L16.922 14.0727L16.9083 14.0856C16.8962 14.0741 16.8848 14.0627 16.8727 14.052C16.8705 14.0499 16.8682 14.0477 16.8659 14.0449C16.8599 14.0399 16.8538 14.0341 16.8477 14.0284C16.8356 14.0184 16.8197 14.017 16.8061 14.0234C16.7955 14.0284 16.7894 14.0363 16.7864 14.0449C16.7834 14.057 16.7864 14.0706 16.7977 14.0813C16.825 14.107 16.8515 14.1327 16.8788 14.1584C16.897 14.1756 16.9189 14.1756 16.9371 14.1584L17.0712 14.032C17.0825 14.0213 17.0939 14.0113 17.1045 13.9999C17.106 13.9984 17.1075 13.997 17.1083 13.9956C17.1181 13.9806 17.1143 13.9613 17.0992 13.9499ZM16.8576 13.382C16.6743 13.2856 16.491 13.1899 16.3077 13.0941C16.3009 13.0906 16.2888 13.0913 16.2819 13.0949C16.2214 13.1256 16.1608 13.1577 16.1002 13.1891C16.0903 13.1941 16.0805 13.1999 16.0691 13.2056C16.0737 13.2091 16.0759 13.2113 16.0782 13.2127C16.2585 13.3106 16.4387 13.4091 16.6198 13.507C16.6251 13.5099 16.6357 13.5091 16.6425 13.5063C16.666 13.4949 16.6894 13.482 16.7129 13.4691C16.7637 13.4427 16.8144 13.4156 16.8674 13.3877C16.8621 13.3841 16.8599 13.3827 16.8576 13.382ZM16.519 13.5641C16.3372 13.4649 16.1562 13.3663 15.9737 13.2677C15.9676 13.2641 15.9563 13.2649 15.9502 13.2684C15.8843 13.302 15.8184 13.3363 15.7533 13.3706C15.7487 13.3734 15.7442 13.3763 15.7374 13.3806C15.7404 13.382 15.7419 13.3834 15.7434 13.3841C15.9229 13.4841 16.1032 13.5841 16.2827 13.6834C16.2895 13.6863 16.3016 13.6856 16.3085 13.682C16.3736 13.6491 16.4372 13.6149 16.5016 13.5806C16.5084 13.577 16.516 13.5734 16.5243 13.5684C16.5213 13.5656 16.5198 13.5649 16.519 13.5641ZM16.2274 13.7641C16.0797 13.6827 15.932 13.5999 15.7843 13.5177C15.7518 13.5006 15.7199 13.4827 15.6844 13.4627V13.4806C15.6844 13.6756 15.6844 13.8699 15.6836 14.0649C15.6836 14.0834 15.6897 14.0927 15.7063 14.102C15.879 14.1977 16.0517 14.2941 16.2251 14.3906C16.2297 14.3934 16.2357 14.3963 16.2433 14.3999C16.2441 14.392 16.2441 14.387 16.2441 14.3813C16.2448 14.1849 16.2441 13.9877 16.2448 13.7913C16.2448 13.7777 16.2395 13.7713 16.2274 13.7641ZM16.2274 13.7641C16.0797 13.6827 15.932 13.5999 15.7843 13.5177C15.7518 13.5006 15.7199 13.4827 15.6844 13.4627V13.4806C15.6844 13.6756 15.6844 13.8699 15.6836 14.0649C15.6836 14.0834 15.6897 14.0927 15.7063 14.102C15.879 14.1977 16.0517 14.2941 16.2251 14.3906C16.2297 14.3934 16.2357 14.3963 16.2433 14.3999C16.2441 14.392 16.2441 14.387 16.2441 14.3813C16.2448 14.1849 16.2441 13.9877 16.2448 13.7913C16.2448 13.7777 16.2395 13.7713 16.2274 13.7641ZM16.519 13.5641C16.3372 13.4649 16.1562 13.3663 15.9737 13.2677C15.9676 13.2641 15.9563 13.2649 15.9502 13.2684C15.8843 13.302 15.8184 13.3363 15.7533 13.3706C15.7487 13.3734 15.7442 13.3763 15.7374 13.3806C15.7404 13.382 15.7419 13.3834 15.7434 13.3841C15.9229 13.4841 16.1032 13.5841 16.2827 13.6834C16.2895 13.6863 16.3016 13.6856 16.3085 13.682C16.3736 13.6491 16.4372 13.6149 16.5016 13.5806C16.5084 13.577 16.516 13.5734 16.5243 13.5684C16.5213 13.5656 16.5198 13.5649 16.519 13.5641ZM16.8576 13.382C16.6743 13.2856 16.491 13.1899 16.3077 13.0941C16.3009 13.0906 16.2888 13.0913 16.2819 13.0949C16.2214 13.1256 16.1608 13.1577 16.1002 13.1891C16.0903 13.1941 16.0805 13.1999 16.0691 13.2056C16.0737 13.2091 16.0759 13.2113 16.0782 13.2127C16.2585 13.3106 16.4387 13.4091 16.6198 13.507C16.6251 13.5099 16.6357 13.5091 16.6425 13.5063C16.666 13.4949 16.6894 13.482 16.7129 13.4691C16.7637 13.4427 16.8144 13.4156 16.8674 13.3877C16.8621 13.3841 16.8599 13.3827 16.8576 13.382ZM17.0992 13.9499C17.0833 13.9377 17.0628 13.9391 17.0469 13.9541C17.0325 13.9677 17.0182 13.982 17.0038 13.9956C16.9863 14.012 16.9682 14.0284 16.9507 14.0449L16.922 14.0727L16.9083 14.0856C16.8962 14.0741 16.8848 14.0627 16.8727 14.052C16.8705 14.0499 16.8682 14.0477 16.8659 14.0449C16.8599 14.0399 16.8538 14.0341 16.8477 14.0284C16.8356 14.0184 16.8197 14.017 16.8061 14.0234C16.7955 14.0284 16.7894 14.0363 16.7864 14.0449C16.7834 14.057 16.7864 14.0706 16.7977 14.0813C16.825 14.107 16.8515 14.1327 16.8788 14.1584C16.897 14.1756 16.9189 14.1756 16.9371 14.1584L17.0712 14.032C17.0825 14.0213 17.0939 14.0113 17.1045 13.9999C17.106 13.9984 17.1075 13.997 17.1083 13.9956C17.1181 13.9806 17.1143 13.9613 17.0992 13.9499ZM17.0992 13.9499C17.0833 13.9377 17.0628 13.9391 17.0469 13.9541C17.0325 13.9677 17.0182 13.982 17.0038 13.9956C16.9863 14.012 16.9682 14.0284 16.9507 14.0449L16.922 14.0727L16.9083 14.0856C16.8962 14.0741 16.8848 14.0627 16.8727 14.052C16.8705 14.0499 16.8682 14.0477 16.8659 14.0449C16.8599 14.0399 16.8538 14.0341 16.8477 14.0284C16.8356 14.0184 16.8197 14.017 16.8061 14.0234C16.7955 14.0284 16.7894 14.0363 16.7864 14.0449C16.7834 14.057 16.7864 14.0706 16.7977 14.0813C16.825 14.107 16.8515 14.1327 16.8788 14.1584C16.897 14.1756 16.9189 14.1756 16.9371 14.1584L17.0712 14.032C17.0825 14.0213 17.0939 14.0113 17.1045 13.9999C17.106 13.9984 17.1075 13.997 17.1083 13.9956C17.1181 13.9806 17.1143 13.9613 17.0992 13.9499ZM16.8576 13.382C16.6743 13.2856 16.491 13.1899 16.3077 13.0941C16.3009 13.0906 16.2888 13.0913 16.2819 13.0949C16.2214 13.1256 16.1608 13.1577 16.1002 13.1891C16.0903 13.1941 16.0805 13.1999 16.0691 13.2056C16.0737 13.2091 16.0759 13.2113 16.0782 13.2127C16.2585 13.3106 16.4387 13.4091 16.6198 13.507C16.6251 13.5099 16.6357 13.5091 16.6425 13.5063C16.666 13.4949 16.6894 13.482 16.7129 13.4691C16.7637 13.4427 16.8144 13.4156 16.8674 13.3877C16.8621 13.3841 16.8599 13.3827 16.8576 13.382ZM16.519 13.5641C16.3372 13.4649 16.1562 13.3663 15.9737 13.2677C15.9676 13.2641 15.9563 13.2649 15.9502 13.2684C15.8843 13.302 15.8184 13.3363 15.7533 13.3706C15.7487 13.3734 15.7442 13.3763 15.7374 13.3806C15.7404 13.382 15.7419 13.3834 15.7434 13.3841C15.9229 13.4841 16.1032 13.5841 16.2827 13.6834C16.2895 13.6863 16.3016 13.6856 16.3085 13.682C16.3736 13.6491 16.4372 13.6149 16.5016 13.5806C16.5084 13.577 16.516 13.5734 16.5243 13.5684C16.5213 13.5656 16.5198 13.5649 16.519 13.5641ZM16.2274 13.7641C16.0797 13.6827 15.932 13.5999 15.7843 13.5177C15.7518 13.5006 15.7199 13.4827 15.6844 13.4627V13.4806C15.6844 13.6756 15.6844 13.8699 15.6836 14.0649C15.6836 14.0834 15.6897 14.0927 15.7063 14.102C15.879 14.1977 16.0517 14.2941 16.2251 14.3906C16.2297 14.3934 16.2357 14.3963 16.2433 14.3999C16.2441 14.392 16.2441 14.387 16.2441 14.3813C16.2448 14.1849 16.2441 13.9877 16.2448 13.7913C16.2448 13.7777 16.2395 13.7713 16.2274 13.7641ZM16.2274 13.7641C16.0797 13.6827 15.932 13.5999 15.7843 13.5177C15.7518 13.5006 15.7199 13.4827 15.6844 13.4627V13.4806C15.6844 13.6756 15.6844 13.8699 15.6836 14.0649C15.6836 14.0834 15.6897 14.0927 15.7063 14.102C15.879 14.1977 16.0517 14.2941 16.2251 14.3906C16.2297 14.3934 16.2357 14.3963 16.2433 14.3999C16.2441 14.392 16.2441 14.387 16.2441 14.3813C16.2448 14.1849 16.2441 13.9877 16.2448 13.7913C16.2448 13.7777 16.2395 13.7713 16.2274 13.7641ZM16.519 13.5641C16.3372 13.4649 16.1562 13.3663 15.9737 13.2677C15.9676 13.2641 15.9563 13.2649 15.9502 13.2684C15.8843 13.302 15.8184 13.3363 15.7533 13.3706C15.7487 13.3734 15.7442 13.3763 15.7374 13.3806C15.7404 13.382 15.7419 13.3834 15.7434 13.3841C15.9229 13.4841 16.1032 13.5841 16.2827 13.6834C16.2895 13.6863 16.3016 13.6856 16.3085 13.682C16.3736 13.6491 16.4372 13.6149 16.5016 13.5806C16.5084 13.577 16.516 13.5734 16.5243 13.5684C16.5213 13.5656 16.5198 13.5649 16.519 13.5641ZM16.8576 13.382C16.6743 13.2856 16.491 13.1899 16.3077 13.0941C16.3009 13.0906 16.2888 13.0913 16.2819 13.0949C16.2214 13.1256 16.1608 13.1577 16.1002 13.1891C16.0903 13.1941 16.0805 13.1999 16.0691 13.2056C16.0737 13.2091 16.0759 13.2113 16.0782 13.2127C16.2585 13.3106 16.4387 13.4091 16.6198 13.507C16.6251 13.5099 16.6357 13.5091 16.6425 13.5063C16.666 13.4949 16.6894 13.482 16.7129 13.4691C16.7637 13.4427 16.8144 13.4156 16.8674 13.3877C16.8621 13.3841 16.8599 13.3827 16.8576 13.382ZM17.0992 13.9499C17.0833 13.9377 17.0628 13.9391 17.0469 13.9541C17.0325 13.9677 17.0182 13.982 17.0038 13.9956C16.9863 14.012 16.9682 14.0284 16.9507 14.0449L16.922 14.0727L16.9083 14.0856C16.8962 14.0741 16.8848 14.0627 16.8727 14.052C16.8705 14.0499 16.8682 14.0477 16.8659 14.0449C16.8599 14.0399 16.8538 14.0341 16.8477 14.0284C16.8356 14.0184 16.8197 14.017 16.8061 14.0234C16.7955 14.0284 16.7894 14.0363 16.7864 14.0449C16.7834 14.057 16.7864 14.0706 16.7977 14.0813C16.825 14.107 16.8515 14.1327 16.8788 14.1584C16.897 14.1756 16.9189 14.1756 16.9371 14.1584L17.0712 14.032C17.0825 14.0213 17.0939 14.0113 17.1045 13.9999C17.106 13.9984 17.1075 13.997 17.1083 13.9956C17.1181 13.9806 17.1143 13.9613 17.0992 13.9499ZM17.0992 13.9499C17.0833 13.9377 17.0628 13.9391 17.0469 13.9541C17.0325 13.9677 17.0182 13.982 17.0038 13.9956C16.9863 14.012 16.9682 14.0284 16.9507 14.0449L16.922 14.0727L16.9083 14.0856C16.8962 14.0741 16.8848 14.0627 16.8727 14.052C16.8705 14.0499 16.8682 14.0477 16.8659 14.0449C16.8599 14.0399 16.8538 14.0341 16.8477 14.0284C16.8356 14.0184 16.8197 14.017 16.8061 14.0234C16.7955 14.0284 16.7894 14.0363 16.7864 14.0449C16.7834 14.057 16.7864 14.0706 16.7977 14.0813C16.825 14.107 16.8515 14.1327 16.8788 14.1584C16.897 14.1756 16.9189 14.1756 16.9371 14.1584L17.0712 14.032C17.0825 14.0213 17.0939 14.0113 17.1045 13.9999C17.106 13.9984 17.1075 13.997 17.1083 13.9956C17.1181 13.9806 17.1143 13.9613 17.0992 13.9499ZM16.8576 13.382C16.6743 13.2856 16.491 13.1899 16.3077 13.0941C16.3009 13.0906 16.2888 13.0913 16.2819 13.0949C16.2214 13.1256 16.1608 13.1577 16.1002 13.1891C16.0903 13.1941 16.0805 13.1999 16.0691 13.2056C16.0737 13.2091 16.0759 13.2113 16.0782 13.2127C16.2585 13.3106 16.4387 13.4091 16.6198 13.507C16.6251 13.5099 16.6357 13.5091 16.6425 13.5063C16.666 13.4949 16.6894 13.482 16.7129 13.4691C16.7637 13.4427 16.8144 13.4156 16.8674 13.3877C16.8621 13.3841 16.8599 13.3827 16.8576 13.382ZM16.519 13.5641C16.3372 13.4649 16.1562 13.3663 15.9737 13.2677C15.9676 13.2641 15.9563 13.2649 15.9502 13.2684C15.8843 13.302 15.8184 13.3363 15.7533 13.3706C15.7487 13.3734 15.7442 13.3763 15.7374 13.3806C15.7404 13.382 15.7419 13.3834 15.7434 13.3841C15.9229 13.4841 16.1032 13.5841 16.2827 13.6834C16.2895 13.6863 16.3016 13.6856 16.3085 13.682C16.3736 13.6491 16.4372 13.6149 16.5016 13.5806C16.5084 13.577 16.516 13.5734 16.5243 13.5684C16.5213 13.5656 16.5198 13.5649 16.519 13.5641ZM16.2274 13.7641C16.0797 13.6827 15.932 13.5999 15.7843 13.5177C15.7518 13.5006 15.7199 13.4827 15.6844 13.4627V13.4806C15.6844 13.6756 15.6844 13.8699 15.6836 14.0649C15.6836 14.0834 15.6897 14.0927 15.7063 14.102C15.879 14.1977 16.0517 14.2941 16.2251 14.3906C16.2297 14.3934 16.2357 14.3963 16.2433 14.3999C16.2441 14.392 16.2441 14.387 16.2441 14.3813C16.2448 14.1849 16.2441 13.9877 16.2448 13.7913C16.2448 13.7777 16.2395 13.7713 16.2274 13.7641ZM17.0992 13.9499C17.0833 13.9377 17.0628 13.9391 17.0469 13.9541C17.0325 13.9677 17.0182 13.982 17.0038 13.9956C16.9863 14.012 16.9682 14.0284 16.9507 14.0449L16.922 14.0727L16.9083 14.0856C16.8962 14.0741 16.8848 14.0627 16.8727 14.052C16.8705 14.0499 16.8682 14.0477 16.8659 14.0449C16.8599 14.0399 16.8538 14.0341 16.8477 14.0284C16.8356 14.0184 16.8197 14.017 16.8061 14.0234C16.7955 14.0284 16.7894 14.0363 16.7864 14.0449C16.7834 14.057 16.7864 14.0706 16.7977 14.0813C16.825 14.107 16.8515 14.1327 16.8788 14.1584C16.897 14.1756 16.9189 14.1756 16.9371 14.1584L17.0712 14.032C17.0825 14.0213 17.0939 14.0113 17.1045 13.9999C17.106 13.9984 17.1075 13.997 17.1083 13.9956C17.1181 13.9806 17.1143 13.9613 17.0992 13.9499ZM17.0992 13.9499C17.0833 13.9377 17.0628 13.9391 17.0469 13.9541C17.0325 13.9677 17.0182 13.982 17.0038 13.9956C16.9863 14.012 16.9682 14.0284 16.9507 14.0449L16.922 14.0727L16.9083 14.0856C16.8962 14.0741 16.8848 14.0627 16.8727 14.052C16.8705 14.0499 16.8682 14.0477 16.8659 14.0449C16.8599 14.0399 16.8538 14.0341 16.8477 14.0284C16.8356 14.0184 16.8197 14.017 16.8061 14.0234C16.7955 14.0284 16.7894 14.0363 16.7864 14.0449C16.7834 14.057 16.7864 14.0706 16.7977 14.0813C16.825 14.107 16.8515 14.1327 16.8788 14.1584C16.897 14.1756 16.9189 14.1756 16.9371 14.1584L17.0712 14.032C17.0825 14.0213 17.0939 14.0113 17.1045 13.9999C17.106 13.9984 17.1075 13.997 17.1083 13.9956C17.1181 13.9806 17.1143 13.9613 17.0992 13.9499Z" fill="white"/>
<path d="M21.6425 12H15.3575C15.1598 12 15 12.1507 15 12.3371V19.6629C15 19.8486 15.1598 20 15.3575 20H21.6425C21.8402 20 22 19.8486 22 19.6629V12.3371C22 12.1507 21.8402 12 21.6425 12ZM21.5955 15.6021C21.5955 15.6564 21.5955 15.7107 21.5948 15.765C21.5948 15.77 21.5925 15.7786 21.5887 15.7807C21.5584 15.7971 21.5274 15.8129 21.4933 15.8307V15.6736C21.4751 15.6836 21.4592 15.6914 21.4441 15.6993C21.3888 15.7286 21.3335 15.7579 21.2782 15.7871C21.2676 15.7921 21.2638 15.7986 21.2638 15.81C21.2646 15.8407 21.2646 15.8721 21.2638 15.9029C21.2638 15.9336 21.2433 15.9543 21.213 15.9536C21.1835 15.9536 21.1631 15.9329 21.1631 15.9029C21.1623 15.8857 21.1631 15.8686 21.1631 15.8493C21.1547 15.8529 21.1487 15.8557 21.1434 15.8586C21.0782 15.8929 21.0123 15.9271 20.948 15.9621C20.9411 15.9657 20.9343 15.9743 20.9343 15.9807V16.5857C20.9343 16.5886 20.9351 16.5907 20.9358 16.5957C21.0025 16.5586 21.0676 16.5221 21.1366 16.4843C21.1366 16.5221 21.1373 16.5564 21.1366 16.5907C21.1358 16.5943 21.1297 16.5993 21.1252 16.6014C21.0608 16.6379 20.9972 16.6743 20.932 16.7093C20.8987 16.7279 20.8639 16.7264 20.8306 16.7079C20.6268 16.5943 20.4231 16.4807 20.2193 16.3671C20.1943 16.3529 20.1815 16.3314 20.1709 16.3079V15.58C20.1822 15.5457 20.2087 15.525 20.2413 15.5079C20.4382 15.4057 20.6336 15.3036 20.829 15.2C20.8654 15.1814 20.8995 15.1807 20.9358 15.2C21.1373 15.3057 21.3388 15.4107 21.5403 15.5164C21.5758 15.535 21.5948 15.5636 21.5955 15.6021ZM17.7237 13.8971V13.6179H21.4592V13.8971H17.7237ZM20.7033 14.1736V14.4536H17.6979V14.1736H20.7033ZM17.7237 13.2993V13.02H20.7033V13.2993H17.7237ZM15.5264 12.535H21.4592V12.8021H15.5264V12.535ZM16.6746 13.7071C16.6739 13.7371 16.6534 13.7579 16.6239 13.7579C16.5944 13.7579 16.5731 13.7371 16.5731 13.7064V13.6536C16.5648 13.6571 16.5588 13.6593 16.5535 13.6621C16.4883 13.6964 16.4232 13.7307 16.358 13.7664C16.352 13.7693 16.3452 13.7786 16.3452 13.785C16.3444 13.9864 16.3444 14.1886 16.3444 14.39C16.3444 14.3921 16.3452 14.3943 16.3459 14.4C16.4126 14.3629 16.4777 14.3264 16.5466 14.2879C16.5466 14.3257 16.5474 14.36 16.5466 14.3943C16.5466 14.3979 16.5398 14.4029 16.5353 14.4057C16.4717 14.4414 16.4073 14.4779 16.3421 14.5136C16.3088 14.5314 16.2747 14.5307 16.2414 14.5121C16.0369 14.3986 15.8332 14.2843 15.6294 14.1707C15.6044 14.1571 15.5915 14.1357 15.5809 14.1121V13.3843C15.5923 13.3493 15.6188 13.3286 15.6521 13.3114C15.8483 13.21 16.0437 13.1071 16.2391 13.0043C16.2755 12.985 16.3096 12.985 16.3459 13.0036C16.5474 13.1093 16.7489 13.215 16.9503 13.32C16.9867 13.3393 17.0056 13.3671 17.0056 13.4064C17.0056 13.4607 17.0056 13.515 17.0049 13.5686C17.0049 13.5743 17.0034 13.5821 16.9988 13.5843C16.9685 13.6014 16.9375 13.6171 16.9034 13.635V13.4779C16.8852 13.4871 16.8693 13.495 16.8541 13.5036C16.7989 13.5329 16.7436 13.5621 16.6883 13.5907C16.6777 13.5964 16.6739 13.6029 16.6739 13.6136C16.6746 13.645 16.6746 13.6757 16.6746 13.7071ZM16.6807 14.03C16.6822 14.0207 16.683 14.0107 16.6845 14.0021C16.6852 13.9993 16.686 13.9971 16.686 13.995C16.6989 13.935 16.7314 13.8864 16.7814 13.8479C16.8155 13.8221 16.8534 13.8057 16.8958 13.7979C16.9003 13.7971 16.9049 13.7964 16.9094 13.7957C16.917 13.795 16.9246 13.7943 16.9314 13.7929H16.9632C16.9647 13.7936 16.9662 13.7936 16.9678 13.7936C16.9784 13.795 16.989 13.7957 16.9996 13.7979C17.0003 13.7979 17.0011 13.7979 17.0018 13.7986C17.0435 13.8071 17.0814 13.8236 17.1132 13.8479C17.1291 13.8593 17.1427 13.8729 17.1556 13.8879C17.1859 13.9236 17.2048 13.9636 17.2116 14.0086C17.2124 14.0157 17.2132 14.0229 17.2139 14.03V14.0593C17.2132 14.0686 17.2116 14.0779 17.2101 14.0871C17.198 14.15 17.1654 14.2014 17.1132 14.2414C17.0761 14.27 17.0329 14.2871 16.9859 14.2936C16.9784 14.2943 16.9708 14.295 16.9632 14.2964H16.9314C16.9306 14.2957 16.9291 14.2957 16.9269 14.295C16.9163 14.2936 16.9041 14.2936 16.8935 14.2907C16.8307 14.2779 16.7792 14.2486 16.739 14.2014C16.7087 14.1657 16.6905 14.1257 16.6837 14.0807C16.6822 14.0736 16.6815 14.0664 16.6807 14.0593V14.03ZM15.5203 14.7479H21.4592V15.015H15.5203V14.7479ZM15.5203 15.2864H18.9075V15.5657H15.5203V15.2864ZM15.5203 15.8457H19.9391V16.1129H15.5203V15.8457ZM18.9135 16.3521V16.6321H15.5264V16.3521H18.9135ZM15.5264 17.3557H18.9135V17.635H15.5264V17.3557ZM15.5249 18.3743H18.9135V18.6536H15.5249V18.3743ZM21.4547 19.1714H15.5249V18.8921H21.4547V19.1714ZM21.4554 18.135H15.5264V17.8557H21.4554V18.135ZM21.4592 17.14H15.5264V16.86H21.4592V17.14ZM21.7281 16.2557C21.7266 16.265 21.7258 16.2743 21.7243 16.2836C21.7122 16.3464 21.6796 16.3979 21.6274 16.4371C21.5895 16.4657 21.5471 16.4829 21.5001 16.4893C21.4918 16.4907 21.485 16.4914 21.4774 16.4921H21.4456C21.4441 16.4921 21.4425 16.4914 21.441 16.4914C21.4297 16.49 21.4183 16.4893 21.4077 16.4871C21.3448 16.4743 21.2933 16.4443 21.2532 16.3971C21.2229 16.3621 21.2047 16.3214 21.1979 16.2764C21.1964 16.2693 21.1956 16.2629 21.1949 16.2557V16.2257C21.1964 16.2164 21.1971 16.2071 21.1987 16.1979C21.1994 16.1957 21.2002 16.1936 21.2002 16.1907C21.213 16.1314 21.2449 16.0821 21.2956 16.0436C21.3297 16.0179 21.3676 16.0014 21.41 15.9943C21.4145 15.9929 21.4191 15.9921 21.4229 15.9921C21.4312 15.9907 21.438 15.99 21.4456 15.9893H21.4774C21.4789 15.9893 21.4804 15.99 21.4819 15.99C21.4925 15.9914 21.5031 15.9921 21.5137 15.9943C21.5145 15.9943 21.5153 15.9943 21.5153 15.9943C21.5577 16.0029 21.5955 16.0193 21.6274 16.0436C21.6433 16.0557 21.6569 16.0686 21.6698 16.0843C21.7001 16.1193 21.7182 16.1593 21.7251 16.2043C21.7266 16.2114 21.7273 16.2186 21.7281 16.2257V16.2557Z" fill="white"/>
</g>
<defs>
<clipPath id="clip0_2617_1140">
<rect width="9.74436" height="15.4286" fill="white" transform="translate(2.85547 3)"/>
</clipPath>
<clipPath id="clip1_2617_1140">
<rect width="7" height="8" fill="white" transform="translate(15 12)"/>
</clipPath>
</defs>
</svg>
