<svg width="25" height="25" viewBox="0 0 25 25" fill="none" xmlns="http://www.w3.org/2000/svg">
<g clip-path="url(#clip0_2615_1073)">
<path d="M16.436 5.82884C16.5063 5.9688 16.4858 6.10527 16.434 6.24718C16.3348 6.52089 16.2432 6.79694 16.1519 7.07337C16.1342 7.12663 16.1128 7.15113 16.0508 7.15696C15.9497 7.16668 15.8501 7.19351 15.7391 7.21528C15.7514 7.17718 15.7604 7.14724 15.7703 7.11769C15.8877 6.77283 16.0046 6.42797 16.1239 6.0835C16.1397 6.03762 16.1361 6.0038 16.1033 5.96608C15.3895 5.15 14.6764 4.33353 13.963 3.51668C13.9559 3.50851 13.948 3.50113 13.9349 3.48791C13.9258 3.50579 13.9171 3.51901 13.912 3.53378C13.7733 3.93735 13.6347 4.34131 13.4988 4.74566C13.4913 4.76782 13.4996 4.80514 13.515 4.82342C13.6481 4.98049 13.7852 5.13445 13.9199 5.28997C13.974 5.35256 13.9796 5.42838 13.9393 5.4937C13.9021 5.55357 13.8287 5.58973 13.7591 5.56912C13.72 5.55746 13.6805 5.53063 13.6529 5.5007C13.5545 5.39417 13.4613 5.28375 13.3562 5.16361C13.3293 5.23787 13.3056 5.30047 13.2835 5.36423C13.1504 5.75147 13.0168 6.13871 12.8865 6.52711C12.8794 6.5485 12.8916 6.58504 12.9078 6.60371C13.1816 6.92018 13.4573 7.23511 13.7327 7.55042C13.7477 7.56792 13.7631 7.58502 13.7785 7.60291C13.6612 7.64101 13.5501 7.67717 13.4257 7.7176C13.419 7.71021 13.4024 7.69116 13.3858 7.67211C13.1389 7.38946 12.8928 7.10681 12.6443 6.82532C12.6281 6.80705 12.5929 6.78916 12.5708 6.79344C11.5409 6.99289 10.5118 7.19467 9.48273 7.39607C9.46218 7.39996 9.44204 7.4054 9.41043 7.41279C9.70435 7.74948 9.99155 8.07801 10.289 8.41899C10.1567 8.44581 10.0382 8.47109 9.91886 8.49208C9.90543 8.49441 9.88409 8.47731 9.87224 8.46409C9.57201 8.12156 9.27098 7.7802 8.9739 7.43495C8.8704 7.31442 8.86092 7.17523 8.91623 7.02788C9.10466 6.52517 9.29113 6.02168 9.47838 5.51897C9.67235 4.9976 9.86632 4.47622 10.0611 3.95524C10.0804 3.90353 10.1053 3.85337 10.1274 3.80244C10.1673 3.76862 10.2072 3.73518 10.2471 3.70135C10.293 3.68891 10.338 3.67336 10.3842 3.66403C11.4572 3.44942 12.5309 3.23713 13.6031 3.01902C13.7568 2.98792 13.8966 2.98753 14.0297 3.07501C14.8321 3.99256 15.634 4.91051 16.436 5.82884ZM13.0085 5.10607C12.9817 5.10957 12.9667 5.11112 12.952 5.11384C11.9095 5.31641 10.867 5.51936 9.82444 5.72075C9.78257 5.72892 9.76163 5.7468 9.74741 5.78607C9.61112 6.1562 9.47324 6.52595 9.33537 6.89569C9.31246 6.95712 9.28994 7.01894 9.26466 7.08775C9.29034 7.08426 9.30535 7.0827 9.31997 7.07998C10.3621 6.87664 11.4042 6.67252 12.4472 6.47035C12.5214 6.45596 12.5609 6.41903 12.5835 6.35021C12.6609 6.11693 12.7415 5.88482 12.8213 5.65233C12.8821 5.47348 12.9437 5.29425 13.0085 5.10607ZM9.90859 5.3549C9.93664 5.3514 9.95402 5.35023 9.97061 5.34673C11.0068 5.14534 12.043 4.94316 13.0796 4.74293C13.1215 4.73477 13.1425 4.71883 13.1563 4.67801C13.276 4.32265 13.3984 3.96768 13.5201 3.61271C13.547 3.53417 13.5735 3.45564 13.6027 3.36893C13.5675 3.37477 13.5442 3.37827 13.5213 3.38293C13.2535 3.4362 12.9856 3.49024 12.7178 3.5435C11.9719 3.69241 11.2261 3.84171 10.4798 3.98945C10.4285 3.99956 10.4024 4.02211 10.385 4.0711C10.3135 4.2721 10.2369 4.47156 10.1622 4.6714C10.0789 4.89612 9.99589 5.12045 9.90859 5.3549Z" fill="white"/>
<path d="M17.1389 12.2047C16.7438 12.277 16.3492 12.3509 15.9541 12.4217C15.5302 12.4975 15.106 12.569 14.6821 12.6452C14.5371 12.6713 14.4225 12.6324 14.3257 12.5212C13.8051 11.922 13.2836 11.3241 12.7594 10.7284C12.6535 10.6079 12.6294 10.4851 12.6859 10.3358C12.9565 9.62233 13.2244 8.90772 13.4914 8.19273C13.5388 8.06598 13.6257 7.99134 13.7596 7.96451C14.5284 7.80899 15.2972 7.6527 16.0659 7.49679C16.1995 7.46957 16.3109 7.50768 16.4005 7.61071C16.9319 8.22034 17.464 8.82919 17.9965 9.43804C18.0827 9.53641 18.1052 9.64605 18.0633 9.76891C17.8081 10.5107 17.5529 11.2529 17.2973 11.9948C17.2835 12.0348 17.2649 12.0733 17.2483 12.1126C17.212 12.1429 17.1752 12.174 17.1389 12.2047ZM13.1683 10.674C13.1924 10.7012 13.2062 10.7176 13.2204 10.7339C13.6652 11.2432 14.1104 11.7521 14.5537 12.263C14.5888 12.3035 14.6201 12.3108 14.671 12.3015C15.2668 12.1958 15.8633 12.0923 16.4594 11.9881C16.5574 11.971 16.6553 11.9524 16.7604 11.9333C16.7446 11.9123 16.7351 11.8987 16.7241 11.8859C16.2595 11.3536 15.7941 10.8218 15.3304 10.2887C15.3039 10.2584 15.2798 10.2522 15.2407 10.26C14.6197 10.3848 13.9983 10.508 13.3772 10.6313C13.3121 10.6445 13.2465 10.6581 13.1683 10.674ZM17.0279 11.7047C17.035 11.6899 17.0401 11.681 17.0433 11.6713C17.2693 11.015 17.4956 10.3587 17.7188 9.70125C17.7267 9.67793 17.7157 9.63749 17.6983 9.61766C17.2376 9.08696 16.775 8.5582 16.3128 8.02905C16.301 8.01583 16.2872 8.00417 16.2737 7.99172C16.2658 8.00106 16.2615 8.00378 16.2603 8.00767C16.1702 8.26621 16.0798 8.52476 15.9929 8.78409C15.9861 8.80392 15.9992 8.83774 16.0142 8.85602C16.1118 8.97226 16.2137 9.08502 16.3124 9.2001C16.3697 9.26697 16.3741 9.35095 16.3271 9.41432C16.2591 9.5053 16.1347 9.51113 16.0549 9.42404C15.9881 9.35134 15.9245 9.27552 15.8514 9.19193C15.8388 9.22537 15.8305 9.24675 15.823 9.26853C15.7424 9.50064 15.663 9.73314 15.58 9.96447C15.5638 10.0103 15.567 10.0407 15.6006 10.0792C16.0628 10.6056 16.523 11.134 16.9836 11.6616C16.9963 11.6752 17.0105 11.6876 17.0279 11.7047ZM13.0521 10.3459C13.0762 10.3428 13.0892 10.3416 13.1019 10.3393C13.796 10.2016 14.4901 10.0632 15.1846 9.92676C15.2265 9.91859 15.2423 9.89604 15.2541 9.86105C15.3063 9.70786 15.3596 9.55546 15.4121 9.40266C15.4497 9.29341 15.4872 9.18416 15.5275 9.06558C15.4267 9.08502 15.3375 9.10251 15.2478 9.12001C14.6434 9.2382 14.0385 9.35639 13.4345 9.47575C13.41 9.48042 13.3749 9.4948 13.3678 9.51347C13.2615 9.78601 13.1592 10.0605 13.0521 10.3459ZM15.9407 7.87392C15.9213 7.87548 15.9131 7.87509 15.9048 7.87703C15.2261 8.01428 14.5474 8.1523 13.8683 8.28876C13.8304 8.29654 13.8142 8.31559 13.8019 8.34864C13.7158 8.58114 13.6281 8.81286 13.5412 9.04497C13.5341 9.06363 13.5293 9.08346 13.521 9.1099C13.7249 9.07024 13.9196 9.03214 14.1144 8.99404C14.6078 8.89762 15.1008 8.80158 15.5939 8.70361C15.6199 8.69855 15.6575 8.68261 15.6646 8.66278C15.7578 8.40346 15.8471 8.14258 15.9407 7.87392Z" fill="white"/>
<path d="M8.70671 11.5515C8.65535 11.4333 8.67392 11.3206 8.71895 11.2024C8.98522 10.5029 9.24753 9.80234 9.50905 9.10134C9.55725 8.97188 9.64495 8.89645 9.78163 8.86885C10.5464 8.71449 11.3113 8.55937 12.0757 8.40385C12.2124 8.37585 12.3269 8.41046 12.4182 8.51427C12.5454 8.65929 12.6722 8.80469 12.7982 8.95127C12.8109 8.96566 12.8247 8.9917 12.8196 9.00609C12.7812 9.11729 12.7382 9.22693 12.6924 9.34823C12.5667 9.20476 12.4494 9.07024 12.3242 8.92678C12.2989 8.99326 12.2772 9.04847 12.2566 9.10446C12.1831 9.30274 12.1108 9.50103 12.0358 9.69853C12.0216 9.73625 12.0267 9.76152 12.0532 9.79068C12.1278 9.87232 12.1997 9.9563 12.272 10.0403C12.3427 10.1223 12.3376 10.2226 12.261 10.2868C12.1847 10.3509 12.0836 10.34 12.0113 10.2592C11.9714 10.2145 11.9323 10.169 11.8868 10.1169C11.8742 10.1445 11.8647 10.1628 11.8576 10.1822C11.7703 10.4166 11.6826 10.6507 11.5985 10.8863C11.5902 10.9092 11.5937 10.9481 11.6087 10.9652C12.0792 11.5076 12.5517 12.048 13.0242 12.5884C13.0297 12.5947 13.0364 12.5993 13.0507 12.6118C13.1352 12.3668 13.2182 12.1281 13.3055 11.8746C13.3944 11.9761 13.4753 12.0675 13.5532 12.1608C13.5619 12.1713 13.5575 12.1977 13.552 12.214C13.4718 12.4508 13.3916 12.688 13.3082 12.9236C13.2652 13.0453 13.1743 13.1172 13.0447 13.1398C12.2546 13.2782 11.4641 13.4158 10.674 13.555C10.5777 13.5721 10.4939 13.5418 10.4113 13.5017C9.84247 12.852 9.27439 12.2016 8.70671 11.5515ZM9.14995 11.5403C9.17128 11.5644 9.18116 11.576 9.19104 11.5873C9.64732 12.1098 10.1048 12.6316 10.5587 13.1557C10.6018 13.2055 10.6405 13.2171 10.7037 13.2058C11.3725 13.0865 12.0421 12.9699 12.7117 12.8524C12.7323 12.8489 12.752 12.8435 12.7808 12.8373C12.7635 12.8147 12.7528 12.7992 12.7405 12.7852C12.2799 12.2576 11.8193 11.7304 11.3599 11.202C11.3283 11.1658 11.299 11.1585 11.2528 11.167C10.6808 11.2697 10.1083 11.37 9.53591 11.471C9.41187 11.4928 9.28782 11.5154 9.14995 11.5403ZM12.0129 8.76698C11.9923 8.7697 11.9836 8.77009 11.9749 8.77204C11.2793 8.91317 10.5836 9.05352 9.8883 9.19699C9.86301 9.20204 9.8326 9.23004 9.82311 9.25453C9.73897 9.46914 9.65917 9.6857 9.57818 9.90148C9.56475 9.93725 9.55172 9.97302 9.53631 10.015C9.55567 10.0142 9.56594 10.015 9.57581 10.0131C10.2695 9.88438 10.9632 9.75607 11.6565 9.62505C11.6779 9.62116 11.7032 9.59589 11.7122 9.57451C11.7474 9.49131 11.7766 9.40538 11.8082 9.32063C11.8758 9.13867 11.9426 8.9571 12.0129 8.76698ZM11.5558 9.99674C11.5404 9.99674 11.536 9.99596 11.5321 9.99674C10.8336 10.1262 10.1352 10.2553 9.43715 10.3867C9.41424 10.391 9.38619 10.4178 9.3775 10.4407C9.28703 10.674 9.20012 10.9085 9.11203 11.1429C9.10571 11.1604 9.10097 11.1783 9.09306 11.2039C9.10571 11.2016 9.11203 11.2004 9.11874 11.1993C9.81403 11.0768 10.5093 10.9543 11.2042 10.8291C11.2291 10.8249 11.2591 10.7949 11.2686 10.7704C11.3571 10.5411 11.4416 10.3101 11.527 10.0799C11.536 10.0543 11.5447 10.0282 11.5558 9.99674Z" fill="white"/>
<path d="M7.38505 15.9294C10.9077 15.9283 14.4303 15.9298 17.9526 15.9275C18.6973 15.9271 19.2772 15.4776 19.4522 14.7712C19.9555 12.7425 20.4572 10.713 20.9589 8.68346C21.0818 8.18659 20.9348 7.9988 20.4217 7.99802C20.1894 7.99763 19.9571 7.99724 19.7244 7.99763C19.1942 10.1982 18.6637 12.3992 18.1335 14.6001C14.908 14.55 11.6824 14.4991 8.45682 14.4489C7.99698 12.2985 7.53675 10.1481 7.07691 7.99763C6.89756 7.9988 6.71781 8.00074 6.53846 8.00346C6.34607 8.00657 6.28681 7.93737 6.24771 7.76863C6.06993 7.00232 5.88149 6.23872 5.69148 5.47474C5.63222 5.23564 5.48882 5.12288 5.25495 5.12172C4.65289 5.11861 4.05163 5.11783 3.44997 5.12211C3.18529 5.12366 3.00159 5.30251 3.00001 5.54317C2.99843 5.79122 3.18647 5.97162 3.46064 5.97396C3.88057 5.97784 4.30051 5.97551 4.72005 5.97551H4.92034C5.65711 9.02055 6.38874 12.0419 7.11918 15.0613C6.04228 15.4298 5.57415 15.999 5.63854 16.845C5.70491 17.7206 6.24454 18.2085 7.37952 18.4212C6.03872 19.1689 6.12801 20.6319 6.7743 21.3465C7.51739 22.1684 8.78905 22.224 9.56493 21.4507C9.9584 21.0592 10.1555 20.579 10.1196 20.0285C10.0722 19.3057 9.69885 18.7758 9.01423 18.4123H17.2648C15.9268 19.1525 15.9706 20.6257 16.6802 21.3908C17.3995 22.1669 18.6712 22.2042 19.4336 21.4484C19.8247 21.0607 20.0104 20.5915 19.9851 20.0444C19.9508 19.3038 19.5608 18.784 18.8699 18.3998C19.1054 18.3998 19.2796 18.408 19.453 18.3983C19.7738 18.3796 19.9717 18.0954 19.8615 17.8139C19.7584 17.5511 19.5281 17.5336 19.2855 17.5336C15.3619 17.5351 11.4379 17.5351 7.51463 17.5348C7.40836 17.5348 7.3009 17.532 7.19543 17.5208C6.85173 17.4838 6.54478 17.1712 6.51436 16.8334C6.46696 16.3104 6.83159 15.9294 7.38505 15.9294ZM18.0877 19.1109C18.6625 19.1113 19.1192 19.5674 19.1156 20.1389C19.1125 20.6902 18.64 21.1478 18.0802 21.1424C17.5204 21.1369 17.0507 20.6692 17.0558 20.1222C17.0614 19.5666 17.5267 19.1105 18.0877 19.1109ZM8.21742 19.1105C8.78194 19.1125 9.24928 19.5682 9.25165 20.1191C9.25482 20.6762 8.7772 21.1455 8.2111 21.1424C7.6521 21.1389 7.19108 20.6778 7.19148 20.1218C7.19187 19.5674 7.65684 19.109 8.21742 19.1105Z" fill="white"/>
</g>
<defs>
<clipPath id="clip0_2615_1073">
<rect width="18" height="19" fill="white" transform="translate(3 3)"/>
</clipPath>
</defs>
</svg>
