<svg width="15" height="15" viewBox="0 0 15 15" fill="none" xmlns="http://www.w3.org/2000/svg">
<g clip-path="url(#clip0_1871_3163)">
<path d="M7.69233 1.04668e-05C11.112 -0.00598889 14.1296 2.56774 14.6456 5.93338C14.6756 6.14935 14.7656 6.44932 14.4176 6.43132C14.0936 6.41333 13.6617 6.6893 13.4577 6.20335C13.3677 5.98137 13.3617 5.7234 13.2957 5.48942C12.6658 3.20967 10.656 1.51185 8.29827 1.26588C5.91652 1.0199 3.63676 2.24377 2.53888 4.36155C2.3529 4.71551 2.08293 5.09947 2.83885 5.08147C3.08482 5.07547 3.13282 5.27345 3.00683 5.47143C2.52688 6.20335 2.04693 6.92927 1.55499 7.64919C1.399 7.87717 1.21302 7.85317 1.09303 7.6012C0.739072 6.89328 0.38511 6.18535 0.0491459 5.46543C-0.0888394 5.16546 0.0791427 5.02747 0.361113 5.06947C0.85906 5.15946 0.997045 4.87149 1.15303 4.46953C2.19092 1.78782 4.81864 0.00600983 7.69233 1.04668e-05Z" fill="#283942"/>
<path d="M7.72241 3.85733C8.88029 3.85733 10.0382 3.86933 11.196 3.85133C11.58 3.84533 11.712 3.95932 11.634 4.34327C11.382 5.63914 11.142 6.935 10.9081 8.23686C10.8601 8.51283 10.7401 8.61482 10.4641 8.61482C9.04227 8.60882 7.62042 8.60282 6.19857 8.61482C5.86861 8.61482 5.80262 8.43484 5.74262 8.17087C5.56264 7.33696 5.32867 6.51504 5.17868 5.67513C5.09469 5.19518 4.89071 4.99721 4.41676 5.0752C3.86482 5.16519 3.60085 4.99121 3.65484 4.36727C3.68484 3.97131 3.78683 3.83933 4.18879 3.85133C5.36466 3.86933 6.54054 3.85733 7.72241 3.85733ZM7.05648 5.0812C6.95449 5.0812 6.8585 5.0812 6.75651 5.0812C6.57653 5.0872 6.36656 5.0572 6.36656 5.32717C6.36656 5.56714 6.52854 5.62714 6.72652 5.62714C6.94849 5.62714 7.17047 5.62714 7.38645 5.62114C7.56043 5.61514 7.71041 5.56714 7.71641 5.35717C7.72241 5.14719 7.59642 5.0752 7.41044 5.0752C7.29646 5.0752 7.17647 5.0812 7.05648 5.0812ZM9.59421 5.0572C9.40823 5.17719 8.97028 4.88922 8.97028 5.35117C8.97028 5.74713 9.35424 5.60314 9.58821 5.60914C9.82219 5.61514 10.1821 5.74113 10.1821 5.32717C10.1821 4.93121 9.82819 5.13519 9.59421 5.0572ZM7.26646 7.38495C7.45844 7.37895 7.70441 7.43295 7.71641 7.13298C7.73441 6.79101 7.45844 6.83301 7.24846 6.83901C7.04448 6.84501 6.75051 6.76702 6.76251 7.10898C6.77451 7.41495 7.03848 7.39695 7.26646 7.38495ZM9.42623 7.38495C9.63021 7.39695 9.88818 7.39095 9.87018 7.07898C9.85818 6.79101 9.59421 6.84501 9.39623 6.83901C9.19225 6.83301 8.95228 6.82701 8.95228 7.11498C8.95228 7.40895 9.19225 7.38495 9.42623 7.38495Z" fill="#283942"/>
<path d="M8.02223 14.0628C4.71058 14.0688 1.96888 12.107 1.03298 9.26931C0.966983 9.07133 0.673014 8.69937 1.11697 8.63937C1.45893 8.59138 1.94488 8.3634 2.18485 8.88535C2.29884 9.12532 2.37083 9.3773 2.49082 9.61727C4.38062 13.4089 9.59406 13.9668 12.2218 10.6612C12.4258 10.4032 12.8577 10.0492 12.0658 9.95923C11.8018 9.92924 11.8498 9.71326 11.9878 9.54528C12.5877 8.83135 13.1877 8.11143 13.7936 7.39751C13.9676 7.19353 14.1596 7.18153 14.2556 7.4575C14.4955 8.17142 14.7115 8.89135 14.9275 9.60527C15.0055 9.86924 14.8795 10.0132 14.6155 9.96523C14.1536 9.88124 13.9976 10.1692 13.7936 10.5052C12.4198 12.7969 10.368 13.9488 8.02223 14.0628Z" fill="#283942"/>
<path d="M7.54245 9.5991C7.48245 9.97106 7.29047 10.217 6.90052 10.193C6.51656 10.169 6.31858 9.91707 6.33658 9.54511C6.35457 9.19114 6.58855 8.99316 6.93051 8.99316C7.32047 8.99316 7.50045 9.24514 7.54245 9.5991Z" fill="#283942"/>
<path d="M9.70791 10.2052C9.34795 10.1392 9.13197 9.9292 9.14997 9.54525C9.17397 9.19128 9.39594 8.9873 9.74391 8.9873C10.1219 8.9933 10.3558 9.23328 10.3438 9.60524C10.3378 9.9772 10.0979 10.1812 9.70791 10.2052Z" fill="#283942"/>
</g>
<defs>
<clipPath id="clip0_1871_3163">
<rect width="15" height="15" fill="white"/>
</clipPath>
</defs>
</svg>
