<svg width="25" height="25" viewBox="0 0 25 25" fill="none" xmlns="http://www.w3.org/2000/svg">
<g clip-path="url(#clip0_2628_1335)">
<path d="M19.0715 5.03041C18.546 4.43503 18.0082 3.85352 17.4836 3.25675C17.3258 3.07772 17.1557 2.99954 16.9367 3C13.8281 3.00417 10.7194 3.00232 7.61076 3.00417C7.15552 3.00417 6.97397 3.22067 6.97306 3.74712C6.97215 4.26756 6.97306 4.78708 6.97306 5.31862V7.16908C6.97306 9.0422 6.97261 10.9144 6.97306 12.7875C6.97306 13.1067 7.06977 13.2617 7.2691 13.2626C7.44061 13.2635 7.5396 13.1585 7.56104 12.9619C7.57107 12.8708 7.56651 12.7773 7.56651 12.6848C7.56651 9.77775 7.56606 6.87069 7.56606 3.96363V3.71428H16.6174C16.6211 3.79755 16.6275 3.87897 16.6279 3.96039C16.6293 4.56179 16.6284 5.16318 16.6311 5.76458C16.6338 6.31324 16.8856 6.62828 17.3591 6.64031C17.953 6.65604 18.5474 6.64771 19.1413 6.64956C19.2197 6.65002 19.2982 6.64956 19.3908 6.64956V21.288H7.56651V21.0489C7.56651 18.9051 7.56697 16.7618 7.56651 14.6181C7.56651 14.3507 7.45156 14.186 7.27321 14.1874C7.09577 14.1892 6.97854 14.3586 6.97306 14.6213C6.97215 14.6518 6.97306 14.6828 6.97306 14.7138C6.97306 15.0377 6.97352 15.3615 6.97352 15.6853C6.97352 17.5279 6.97306 19.371 6.97352 21.214C6.97352 21.7844 7.15552 21.9963 7.64041 21.9963H16.9641C17.0777 21.9921 17.1917 21.9912 17.3067 21.9935C17.9863 22.0069 18.6664 21.9875 19.3461 22C19.6581 22.006 19.8834 21.8862 19.9988 21.5351V6.12773C19.6905 5.76134 19.3876 5.38801 19.0715 5.03041ZM18.848 5.95564C18.3727 5.9561 17.8974 5.95148 17.4225 5.95564C17.2715 5.95703 17.2168 5.8955 17.22 5.71092C17.23 5.13681 17.2236 4.56271 17.2236 3.93309C17.8385 4.61684 18.4183 5.26172 19.0227 5.9339C18.9442 5.94407 18.8959 5.95564 18.848 5.95564Z" fill="white"/>
<path d="M15.7071 5.12891H8.16016V5.69607H15.7071V5.12891Z" fill="white"/>
<path d="M12.8886 6.24414H8.16016V6.8113H12.8886V6.24414Z" fill="white"/>
<path d="M15.7071 7.35742H8.16016V7.92459H15.7071V7.35742Z" fill="white"/>
<path d="M12.8886 8.47266H8.16016V9.03982H12.8886V8.47266Z" fill="white"/>
<path d="M15.7071 9.70898H8.16016V10.2761H15.7071V9.70898Z" fill="white"/>
<path d="M12.8886 10.8223H8.16016V11.3894H12.8886V10.8223Z" fill="white"/>
<path d="M15.7071 16.6816H8.16016V17.2488H15.7071V16.6816Z" fill="white"/>
<path d="M12.8886 17.7949H8.16016V18.3621H12.8886V17.7949Z" fill="white"/>
<path d="M15.7071 18.9102H8.16016V19.4773H15.7071V18.9102Z" fill="white"/>
<path d="M12.8886 20.0234H8.16016V20.5906H12.8886V20.0234Z" fill="white"/>
<path d="M10.7318 12.6172C9.82083 12.6172 9.08203 13.3747 9.08203 14.3089C9.08203 15.243 9.82083 16.0006 10.7318 16.0006C11.6428 16.0006 12.3816 15.243 12.3816 14.3089C12.3816 13.3747 11.6432 12.6172 10.7318 12.6172ZM11.1262 15.273C11.1181 15.2766 11.1104 15.2798 11.1023 15.2834C10.9343 15.0971 10.766 14.9108 10.5931 14.7191C10.8258 14.388 11.0706 14.0399 11.3153 13.6914C11.3136 13.6889 11.3114 13.686 11.3097 13.6835C11.2967 13.6914 11.2829 13.6983 11.2702 13.7073C10.91 13.968 10.5505 14.2294 10.1888 14.4883C10.1656 14.5049 10.1247 14.5114 10.0973 14.5039C9.96767 14.4678 9.84019 14.4251 9.69159 14.3786C10.3318 14.0272 10.9558 13.6849 11.5956 13.3339C11.4368 13.9915 11.2815 14.632 11.1262 15.273Z" fill="#27AAE1"/>
</g>
<defs>
<clipPath id="clip0_2628_1335">
<rect width="15" height="19" fill="white" transform="translate(5 3)"/>
</clipPath>
</defs>
</svg>
