<svg width="25" height="25" viewBox="0 0 25 25" fill="none" xmlns="http://www.w3.org/2000/svg">
<g clip-path="url(#clip0_508_41)">
<path d="M0.405279 0C5.53323 0 10.6578 0 15.7858 0C16.0671 0.143621 16.2245 0.357381 16.2245 0.684703C16.2212 2.19105 16.2212 3.69739 16.2279 5.2004C16.2279 5.334 16.1844 5.38744 16.0571 5.4008C15.7891 5.43086 15.5245 5.46426 15.2566 5.50768C15.0857 5.5344 15.0154 5.50434 15.0188 5.30394C15.0288 4.01136 15.0188 2.71543 15.0288 1.42285C15.0288 1.21911 14.9752 1.169 14.7709 1.17234C11.5287 1.17902 8.28979 1.17568 5.04756 1.17902C4.99397 1.17902 4.93033 1.14896 4.87674 1.21242C6.10263 1.56981 7.32516 1.92719 8.5477 2.28791C9.00991 2.42151 9.12379 2.57515 9.12379 3.05277C9.12379 5.12692 9.12379 7.20441 9.12379 9.27856C9.12379 9.36206 9.12379 9.44556 9.12379 9.58584C9.74009 8.84436 10.3162 8.15965 10.8822 7.46827C11.0832 7.22111 11.3277 7.08417 11.6425 7.03073C13.0259 6.78357 14.4125 6.52973 15.7925 6.26921C16.3351 6.16567 16.871 6.10554 17.4035 6.30929C18.1002 6.57649 18.8002 6.83701 19.4902 7.12091C20.2572 7.43821 20.5486 8.13293 20.2572 8.91784C19.996 9.6159 19.7347 10.314 19.4534 11.002C19.373 11.1991 19.4433 11.2391 19.6108 11.2826C20.4448 11.4896 21.2788 11.7101 22.1128 11.9172C22.5382 12.024 22.8028 12.2812 22.8631 12.7121C22.8865 12.8724 22.9468 12.8824 23.0774 12.8858C23.476 12.8958 23.6535 13.0795 23.6602 13.4736C23.6636 13.7408 23.6669 14.0114 23.6569 14.2786C23.6535 14.4122 23.6837 14.4656 23.8277 14.4589C24.032 14.4456 24.2363 14.4522 24.4406 14.4556C24.7823 14.4589 24.9397 14.5992 24.9966 14.9432C24.9966 16.0855 24.9966 17.2245 24.9933 18.3667C24.923 18.7174 24.7555 18.841 24.3435 18.8444C23.1277 18.8444 21.9118 18.8444 20.696 18.8444C20.2338 18.8444 20.2237 18.841 20.3912 18.4035C20.6625 17.7054 20.5855 17.0574 20.1701 16.4362C19.795 15.8751 19.44 15.3039 19.0782 14.7328C18.951 14.5357 18.9811 14.4723 19.2223 14.4589C19.4567 14.4456 19.6945 14.4456 19.9323 14.4556C20.0864 14.4656 20.1266 14.4088 20.1233 14.2619C20.1166 13.9846 20.1233 13.7074 20.1333 13.4335C20.14 13.3033 20.0998 13.2532 19.9658 13.2231C19.6108 13.143 19.2558 13.0461 18.9041 12.9459C18.7701 12.9092 18.7065 12.9359 18.6562 13.0762C18.4921 13.5337 18.3146 13.9846 18.1337 14.4355C18.0768 14.5758 18.0835 14.6827 18.1706 14.8163C18.6294 15.5177 19.0715 16.2258 19.5271 16.9272C19.7615 17.2879 19.8017 17.6553 19.6543 18.0595C19.3395 18.9178 19.038 19.7829 18.7333 20.6446C18.482 21.3527 18.2342 22.0641 17.9763 22.7722C17.7351 23.4402 17.0853 23.7241 16.4891 23.4302C15.9934 23.1864 15.7992 22.6486 16.0068 22.0541C16.4925 20.6814 16.9815 19.3086 17.4739 17.9359C17.5275 17.7856 17.5174 17.672 17.4303 17.5351C16.8475 16.6366 16.2714 15.7315 15.6953 14.8263C15.5982 14.676 15.4977 14.5291 15.4073 14.3721C15.3403 14.2585 15.2231 14.2184 15.1226 14.2151C15.0087 14.2118 15.0355 14.352 15.0121 14.4289C14.8178 15.0635 14.6369 15.7014 14.4494 16.3393C14.2216 17.1075 14.0809 17.9158 13.7393 18.6339C13.0326 20.1202 12.2287 21.5564 11.4483 23.0094C11.254 23.3734 10.9224 23.5404 10.4971 23.5371C10.3195 23.5337 10.2827 23.4736 10.286 23.31C10.2927 22.505 10.2927 21.7001 10.2894 20.8918C10.2894 20.7749 10.3162 20.6713 10.3698 20.5678C10.8219 19.7161 11.2674 18.8611 11.7229 18.0094C11.8033 17.8591 11.867 17.7021 11.9105 17.5384C12.5904 15.1236 13.2838 12.7121 14.2551 10.3908C14.5498 9.68938 14.801 8.97128 15.079 8.24649C14.9987 8.24983 14.9417 8.24649 14.8848 8.25651C14.0374 8.41349 13.19 8.57382 12.3426 8.72412C12.2053 8.7475 12.1048 8.79426 12.0143 8.90448C11.2071 9.8831 10.3932 10.8617 9.58266 11.837C9.48218 11.9572 9.3884 12.0842 9.24437 12.1476C9.12044 12.2011 9.11375 12.2846 9.11375 12.3981C9.11709 13.2198 9.11709 14.0414 9.11709 14.8631C9.11709 17.996 9.11709 21.1289 9.11709 24.2619C9.11709 24.4689 9.10705 24.6693 8.94627 24.823C8.72856 25.0301 8.48406 25.0167 8.21945 24.9399C5.65715 24.1917 3.09486 23.4436 0.529207 22.6987C0.133976 22.5818 0.00334941 22.4048 0.00334941 21.994C0.0100482 14.9365 0.0100482 7.87241 0 0.808283C0 0.454242 0.0870847 0.177021 0.405279 0ZM6.27345 13.7976C6.27345 14.342 6.2701 14.8864 6.27345 15.4309C6.27679 15.7448 6.42082 15.9486 6.67872 16.0254C7.1041 16.149 7.42899 15.8784 7.43569 15.3741C7.44239 14.3086 7.43904 13.2465 7.43569 12.181C7.43569 12.0541 7.42564 11.9238 7.35865 11.8036C7.21798 11.5631 6.96677 11.4596 6.69212 11.5264C6.45766 11.5832 6.28014 11.8103 6.27679 12.0908C6.2701 12.662 6.27345 13.2298 6.27345 13.7976ZM21.865 14.4556C21.9956 14.4556 22.1262 14.4556 22.2568 14.4556C22.6621 14.4556 22.6554 14.4556 22.6554 14.0414C22.6554 13.9011 22.6152 13.8644 22.4779 13.8677C22.1597 13.8778 21.8415 13.8711 21.5267 13.8711C21.108 13.8711 21.1113 13.8711 21.118 14.2953C21.1214 14.4222 21.1515 14.4656 21.2822 14.4589C21.4764 14.4456 21.6707 14.4556 21.865 14.4556Z" fill="white"/>
<path d="M12.54 22.7026C12.7477 22.3118 12.942 21.9478 13.1295 21.5837C13.1865 21.4735 13.2803 21.5035 13.364 21.5035C13.8463 21.5002 14.3286 21.4935 14.8076 21.5069C14.9784 21.5102 15.0253 21.4635 15.0253 21.2931C15.0186 20.0573 15.0253 18.8182 15.0186 17.5824C15.0153 17.058 15.2564 16.5937 15.3703 16.0994C15.3837 16.0493 15.4004 15.9992 15.4306 15.9023C15.7052 16.3299 15.9564 16.724 16.2076 17.1181C16.211 17.1248 16.2143 17.1348 16.2143 17.1415C16.1742 17.8663 16.3483 18.6078 16.1239 19.3192C15.8694 20.1208 15.5713 20.909 15.2866 21.7006C15.1894 21.9711 15.1157 22.2417 15.1291 22.5323C15.1325 22.6258 15.1325 22.706 14.9952 22.706C14.1879 22.7026 13.3841 22.7026 12.54 22.7026Z" fill="white"/>
<path d="M19.7181 2.34399C20.7999 2.36403 21.6808 3.27251 21.6574 4.34131C21.634 5.42682 20.7229 6.3186 19.6645 6.29188C18.5692 6.26516 17.685 5.37338 17.6984 4.31125C17.7118 3.19569 18.6094 2.32729 19.7181 2.34399Z" fill="white"/>
</g>
<defs>
<clipPath id="clip0_508_41">
<rect width="25" height="25" fill="white"/>
</clipPath>
</defs>
</svg>
