<svg width="25" height="25" viewBox="0 0 25 25" fill="none" xmlns="http://www.w3.org/2000/svg">
<g clip-path="url(#clip0_508_31)">
<path d="M14.8961 11.3591C15.3128 11.8598 15.7293 12.3608 16.1465 12.8612C16.3406 13.0941 16.536 13.3254 16.7306 13.5574C16.8251 13.6702 16.8879 13.8005 16.9408 13.9373C17.5149 15.4192 18.0765 16.906 18.6703 18.3798C18.9159 18.9893 18.6673 19.701 17.9679 19.8947C17.8106 19.921 17.6534 19.919 17.4958 19.8949C17.1122 19.7822 16.8689 19.5313 16.7237 19.1529C16.1806 17.7352 15.6261 16.3221 15.0774 14.9067C15.0482 14.8317 15.0101 14.7658 14.9586 14.7044C14.5212 14.1832 14.0851 13.6604 13.6484 13.1384C13.5166 12.9808 13.3833 12.8247 13.2383 12.6532C13.2242 12.6966 13.2151 12.7186 13.2099 12.7415C13.0867 13.2765 12.9636 13.8113 12.8417 14.3466C12.7734 14.6465 12.7103 14.9413 12.5211 15.2016C11.5326 16.5622 10.5511 17.9285 9.5759 19.2993C9.37929 19.5757 9.15968 19.8017 8.82877 19.8954C8.67544 19.9025 8.52186 19.9155 8.36927 19.8834C7.95601 19.7614 7.68446 19.4972 7.5984 19.0644C7.54201 18.7813 7.59222 18.5111 7.75569 18.2678C7.78982 18.2169 7.83755 18.1743 7.8514 18.1106C7.89047 18.0818 7.91595 18.042 7.93746 17.9994C7.97802 17.9673 8.00745 17.9267 8.02526 17.8778C8.06211 17.8265 8.09896 17.7751 8.13556 17.7237C8.2194 17.6265 8.30349 17.5297 8.35468 17.4092C8.39351 17.3841 8.41651 17.3471 8.43258 17.3047C8.50133 17.242 8.55525 17.1686 8.59333 17.0829C8.62672 17.0383 8.66011 16.9937 8.6935 16.9493C8.76126 16.8754 8.82234 16.7962 8.86562 16.7045C8.89852 16.6606 8.93141 16.617 8.96405 16.5734C9.03899 16.4822 9.11838 16.394 9.16487 16.2827C9.33527 16.096 9.47055 15.883 9.61028 15.6735C9.65133 15.6324 9.68991 15.5898 9.70648 15.5319C9.83014 15.3866 9.94094 15.232 10.0404 15.0686C10.2338 14.8458 10.3784 14.5846 10.5691 14.3611C10.7605 14.1368 10.8347 13.8722 10.8968 13.5938C11.1216 12.5871 11.3531 11.5817 11.5831 10.5762C11.6068 10.473 11.6026 10.3695 11.6026 10.2652C11.6019 9.32572 11.6024 8.3862 11.6021 7.44644C11.6021 7.29182 11.6014 7.29182 11.4671 7.36725C9.89073 8.25364 8.31486 9.14102 6.73775 10.0262C6.11082 10.378 5.38075 10.0793 5.19502 9.3994C5.06469 8.92225 5.26922 8.44084 5.71413 8.18948C6.71376 7.62537 7.71464 7.06352 8.71501 6.50116C9.83088 5.8739 10.947 5.24714 12.0624 4.61938C12.6255 4.30236 13.1466 4.42917 13.5378 4.95118C13.9236 5.46642 14.3315 5.96487 14.7296 6.47034C14.7583 6.50667 14.7915 6.53625 14.8372 6.55078C15.7589 6.84349 16.6804 7.13644 17.6022 7.42915C17.6135 7.43291 17.6266 7.4314 17.639 7.43241C17.6996 7.4517 17.7602 7.47125 17.8208 7.49055C17.8413 7.49681 17.8621 7.50308 17.8826 7.50909C17.9232 7.53165 17.9657 7.54743 18.0122 7.55094C18.0693 7.58452 18.1302 7.60532 18.1969 7.60507C18.2452 7.63815 18.3001 7.65043 18.3562 7.66021C18.5954 7.7607 18.8461 7.82661 19.0925 7.90429C19.5863 8.05967 19.8529 8.49948 19.8334 8.95182C19.8114 9.4648 19.458 9.8565 18.9616 9.94246C18.7855 9.97303 18.6105 9.94847 18.4386 9.89284C17.8242 9.69411 17.2089 9.49864 16.5936 9.30291C16.5508 9.28938 16.5061 9.28161 16.4623 9.27109C16.3775 9.23099 16.2875 9.20793 16.1957 9.19089L16.1848 9.1919L16.1858 9.20292C16.1727 9.17235 16.149 9.16959 16.1213 9.17761C16.0817 9.1295 16.0275 9.12223 15.9706 9.12123C15.9311 9.09241 15.8866 9.07787 15.8381 9.07486C15.5025 8.93979 15.1523 8.85032 14.81 8.73555C14.4633 8.61952 14.1138 8.51226 13.7668 8.39723C13.6996 8.37493 13.6795 8.38821 13.6798 8.45863C13.6813 8.9255 13.681 9.39238 13.68 9.859C13.68 9.90461 13.6983 9.9387 13.7255 9.97102C13.913 10.1921 14.1002 10.4133 14.2877 10.6344C14.3013 10.6507 14.3149 10.6672 14.3287 10.6835C14.3349 10.6905 14.3414 10.6975 14.3475 10.7045C14.5308 10.9221 14.7136 11.1406 14.8961 11.3591Z" fill="white"/>
<path d="M17.4961 19.8943C17.6534 19.9184 17.8107 19.9204 17.9682 19.8941C18.4544 19.8951 18.9407 19.8956 19.4266 19.8973C19.507 19.8976 19.5809 19.874 19.6539 19.8449C19.8799 19.7552 20.1045 19.7535 20.3261 19.8585C20.4119 19.8991 20.5019 19.8973 20.5924 19.8973C21.6514 19.8973 22.7102 19.8973 23.7689 19.8976C23.9903 19.8976 23.9984 19.9061 23.9989 20.1291C23.9994 20.3171 23.9999 20.5048 23.9987 20.6927C23.9974 20.8719 23.9841 20.8857 23.8085 20.8857C22.8732 20.8862 21.9381 20.8887 21.0027 20.8832C20.8583 20.8824 20.7648 20.912 20.7065 21.0606C20.6424 21.2233 20.5111 21.3368 20.3637 21.4275C20.2314 21.5092 20.0686 21.5328 19.9321 21.5423C19.5735 21.5673 19.2951 21.3917 19.1506 21.0463C19.0984 20.9218 19.0287 20.8834 18.8996 20.8834C14.6394 20.8865 10.3792 20.8865 6.11902 20.8837C5.98745 20.8837 5.90608 20.9165 5.85266 21.0478C5.78342 21.2183 5.64962 21.3385 5.49381 21.4328C5.41591 21.4799 5.33702 21.5077 5.24848 21.4651C5.2188 21.5523 5.14486 21.5551 5.07388 21.5533C4.71849 21.5448 4.43952 21.3989 4.29682 21.0586C4.23722 20.9168 4.1561 20.8822 4.01563 20.8829C3.0803 20.8882 2.14521 20.8857 1.20988 20.8854C1.0098 20.8854 1.00139 20.8767 1.00065 20.6739C0.999911 20.482 0.999663 20.2898 1.00065 20.0978C1.00164 19.9119 1.01524 19.8976 1.19751 19.8973C2.23573 19.8968 3.27394 19.8961 4.31241 19.8978C4.50679 19.8981 4.69623 19.8928 4.88246 19.8181C5.06646 19.7444 5.2559 19.7675 5.43669 19.8462C5.51385 19.8798 5.592 19.8973 5.67608 19.8973C6.52486 19.8966 7.37363 19.8971 8.22241 19.8963C8.27137 19.8963 8.32059 19.8873 8.36956 19.8823C8.5219 19.9144 8.67573 19.9013 8.82906 19.8943C8.92774 19.8953 9.02666 19.8971 9.12534 19.8971C11.7305 19.8973 14.3357 19.8973 16.9409 19.8971C17.1256 19.8976 17.3109 19.8956 17.4961 19.8943ZM20.0592 20.9042C19.9546 20.8724 19.9081 20.91 19.873 20.9744C19.8144 21.0817 19.8117 21.1711 19.8738 21.2669C19.8567 21.1072 19.8938 20.9827 20.0592 20.9042ZM5.00463 21.2573C4.99227 21.103 5.03579 20.9787 5.20743 20.8982C5.00612 20.893 4.91881 21.0726 5.00463 21.2573Z" fill="white"/>
<path d="M12.8569 3.62148C11.8667 3.61447 11.0661 2.80802 11.0728 1.81388C11.08 0.739539 11.9582 -0.0318197 12.9407 0.00100943C13.8654 0.0318337 14.6563 0.853313 14.6511 1.8239C14.6462 2.81905 13.8385 3.6285 12.8569 3.62148Z" fill="white"/>
<path d="M7.37968 23.4617C7.37968 22.9941 7.38166 22.5265 7.37795 22.0588C7.37721 21.9681 7.39946 21.9351 7.49443 21.9356C8.2198 21.9391 8.94492 21.9388 9.67028 21.9358C9.75733 21.9356 9.78528 21.9644 9.78132 22.0508C9.77539 22.1799 9.77242 22.3102 9.78207 22.439C9.79023 22.5465 9.7425 22.5601 9.65322 22.5593C9.2083 22.5558 8.76314 22.5576 8.31798 22.5578C8.15574 22.5578 8.1555 22.5581 8.155 22.7194C8.15475 22.8197 8.15995 22.9202 8.15376 23.0199C8.14783 23.1141 8.18418 23.1427 8.27495 23.1415C8.60041 23.1372 8.92612 23.1392 9.25158 23.1402C9.46328 23.141 9.43064 23.1237 9.43336 23.3304C9.43459 23.4389 9.4289 23.5477 9.43509 23.6559C9.43954 23.7386 9.41036 23.7627 9.32998 23.762C8.98399 23.7582 8.63751 23.765 8.29152 23.7577C8.18097 23.7554 8.1461 23.79 8.15327 23.899C8.16143 24.0238 8.15945 24.1496 8.15376 24.2747C8.14981 24.3619 8.18047 24.389 8.26654 24.3882C8.72382 24.3845 9.18135 24.3902 9.63862 24.384C9.75041 24.3824 9.79171 24.4115 9.78207 24.5283C9.77193 24.6486 9.77662 24.7704 9.78083 24.8914C9.7833 24.9639 9.76426 24.9967 9.68537 24.9964C8.94788 24.9942 8.21015 24.9939 7.47267 24.9967C7.37894 24.9969 7.37894 24.9453 7.37894 24.8771C7.38017 24.4055 7.37968 23.9336 7.37968 23.4617Z" fill="white"/>
<path d="M13.3996 24.9964C13.2883 24.9964 13.177 24.9944 13.0657 24.9972C13.0079 24.9984 12.9762 24.9764 12.9574 24.9195C12.9174 24.7969 12.8669 24.6776 12.8291 24.5546C12.8073 24.4832 12.7724 24.4553 12.6975 24.4561C12.4007 24.4596 12.1039 24.4596 11.8074 24.4561C11.7369 24.4553 11.7043 24.4824 11.6835 24.5471C11.6442 24.6699 11.597 24.7899 11.5566 24.9127C11.5374 24.9718 11.5077 24.9994 11.4416 24.9982C11.2233 24.9944 11.0049 24.9951 10.7865 24.9974C10.7091 24.9982 10.6851 24.9809 10.7165 24.8969C11.0769 23.9391 11.4342 22.98 11.7908 22.0207C11.8131 21.9611 11.845 21.9368 11.9088 21.9375C12.1396 21.9405 12.3703 21.9405 12.601 21.9375C12.6651 21.9365 12.698 21.9616 12.72 22.0205C13.0764 22.9798 13.433 23.9391 13.7928 24.8972C13.8262 24.9856 13.7941 24.9984 13.7206 24.9972C13.614 24.9951 13.5069 24.9967 13.3996 24.9964ZM12.2726 22.9141C12.2615 22.9149 12.2501 22.9156 12.239 22.9166C12.1386 23.2149 12.0382 23.5131 11.9378 23.8113C11.9202 23.8637 11.936 23.888 11.9939 23.8875C12.1707 23.8857 12.3478 23.886 12.5246 23.8875C12.5731 23.888 12.5929 23.8744 12.5756 23.8223C12.4742 23.5196 12.3735 23.2169 12.2726 22.9141Z" fill="white"/>
<path d="M18.5335 23.4698C18.5335 23.0024 18.5355 22.535 18.5318 22.0676C18.531 21.9764 18.5471 21.9348 18.6512 21.9356C19.3719 21.9398 20.0928 21.9391 20.8135 21.9361C20.9025 21.9358 20.9396 21.9576 20.9339 22.0546C20.926 22.1877 20.9275 22.3217 20.9334 22.4551C20.9374 22.5395 20.9055 22.5601 20.8271 22.5596C20.3658 22.5566 19.9046 22.5616 19.4434 22.5556C19.3343 22.554 19.2964 22.5846 19.3054 22.6951C19.3143 22.8029 19.3123 22.9122 19.3058 23.0204C19.3004 23.1136 19.3335 23.1432 19.4258 23.142C19.7676 23.1375 20.1096 23.1447 20.4511 23.1377C20.5612 23.1354 20.5966 23.1685 20.5877 23.2785C20.5783 23.3946 20.5793 23.5126 20.5874 23.6289C20.5946 23.7306 20.5657 23.7655 20.4596 23.7632C20.122 23.7562 19.7841 23.7662 19.4466 23.7577C19.3279 23.7547 19.2982 23.7965 19.3054 23.9068C19.3133 24.0273 19.3123 24.1491 19.3056 24.2697C19.3004 24.3637 19.3333 24.39 19.4253 24.3892C19.8823 24.3847 20.3396 24.3907 20.7966 24.3847C20.904 24.3832 20.9438 24.4095 20.9339 24.5225C20.9238 24.6386 20.925 24.7566 20.9337 24.8726C20.9413 24.9754 20.9003 24.9979 20.807 24.9977C20.1358 24.9944 19.4644 24.9959 18.7932 24.9962C18.5332 24.9962 18.5332 24.9962 18.5332 24.7346C18.5335 24.3128 18.5335 23.8913 18.5335 23.4698Z" fill="white"/>
<path d="M15.3386 24.7282C15.0818 24.0348 14.8254 23.3411 14.5682 22.6479C14.493 22.4454 14.4173 22.2429 14.3394 22.0415C14.3115 21.9695 14.3179 21.9347 14.4067 21.9365C14.6248 21.9405 14.8432 21.9415 15.0611 21.936C15.1442 21.9339 15.163 21.9821 15.1845 22.0447C15.4016 22.682 15.6202 23.3188 15.8386 23.9556C15.848 23.9829 15.8591 24.0095 15.8809 24.0668C15.9465 23.8794 16.0036 23.718 16.0592 23.5561C16.2321 23.0531 16.406 22.5504 16.5749 22.046C16.6013 21.9665 16.6355 21.9329 16.7218 21.9357C16.9315 21.9422 17.1417 21.9402 17.3514 21.9367C17.434 21.9352 17.4513 21.9595 17.4212 22.0385C17.3232 22.2946 17.2302 22.5527 17.1355 22.8101C17.1012 22.9015 17.0668 22.993 17.0324 23.0842C16.9785 23.2301 16.9105 23.3709 16.8761 23.524C16.838 23.5802 16.8202 23.6441 16.8039 23.709C16.7517 23.8107 16.7156 23.9185 16.6829 24.028C16.6644 24.0806 16.6458 24.1335 16.6271 24.1861C16.5791 24.2698 16.5511 24.3613 16.5247 24.4533C16.47 24.5974 16.4151 24.7415 16.3605 24.8856C16.3392 24.9698 16.2892 25.0011 16.2004 24.9981C15.9964 24.9916 15.7916 24.9886 15.5878 24.9993C15.479 25.0051 15.4197 24.9673 15.3893 24.8678C15.3724 24.8207 15.3554 24.7743 15.3386 24.7282Z" fill="white"/>
<path d="M3.86284 23.4605C3.86284 22.9972 3.86556 22.5338 3.86086 22.0704C3.85987 21.9659 3.89178 21.9318 3.99441 21.9364C4.16308 21.9439 4.33249 21.9446 4.5009 21.9361C4.60774 21.9308 4.64163 21.9617 4.64088 22.0744C4.63569 22.7924 4.63816 23.5104 4.63841 24.2284C4.63841 24.3875 4.63866 24.3875 4.7999 24.3875C5.23666 24.3875 5.67341 24.3898 6.10992 24.3858C6.19647 24.385 6.22541 24.4106 6.22096 24.4985C6.21428 24.6319 6.21675 24.7657 6.22022 24.8992C6.22195 24.9667 6.20266 24.997 6.13069 24.997C5.40557 24.9952 4.6807 24.995 3.95558 24.9972C3.86086 24.9975 3.86284 24.9418 3.86284 24.8754C3.86334 24.4041 3.86284 23.9324 3.86284 23.4605Z" fill="white"/>
</g>
<defs>
<clipPath id="clip0_508_31">
<rect width="25" height="25" fill="white"/>
</clipPath>
</defs>
</svg>
