<svg width="25" height="25" viewBox="0 0 25 25" fill="none" xmlns="http://www.w3.org/2000/svg">
<path d="M16.9631 21.5701C17.7304 20.8879 18.1806 20.1452 17.7425 19.2381C17.3213 18.3644 16.6169 17.6773 15.7782 17.2201C15.092 16.8456 14.4082 17.0607 13.8527 17.618C13.25 18.2235 12.6436 18.8278 12.0615 19.4531C11.8279 19.704 11.6935 19.7819 11.4031 19.4878C10.2727 18.3422 9.46181 18.3582 8.33505 19.5285C7.81101 20.0723 7.126 20.5209 7.11752 21.4218C7.1151 21.6603 6.91783 21.5799 6.79922 21.5701C5.97745 21.5046 5.16536 21.3921 4.42226 20.9892C3.46736 20.4727 3.10185 19.5916 3.01956 18.5621C2.77024 15.4245 4.93178 12.492 7.95503 11.8395C8.34958 11.7542 8.66667 11.6813 8.84821 12.2522C9.04427 12.8664 9.62762 13.1815 10.1977 13.4027C11.7202 13.9934 13.2608 13.9959 14.7846 13.4114C15.4575 13.1531 16.0602 12.7502 16.2756 11.9976C16.3712 11.6627 16.5443 11.7826 16.7258 11.8036C18.9818 12.057 21.1179 13.9823 21.7557 16.3451C21.9167 16.9408 22.005 17.5463 22.0002 18.1679C21.9845 20.0389 21.0961 21.1338 19.3073 21.444C18.5751 21.5676 17.8357 21.622 16.9631 21.5701Z" fill="white"/>
<path d="M7.72243 5.2283C7.72122 2.35757 9.67943 0.122025 12.365 0.0046251C14.4176 -0.0855875 16.3468 1.14773 16.9701 3.36844C17.7858 6.27254 17.1093 8.96656 15.0446 11.1465C13.5208 12.7555 11.3363 12.6282 9.80409 11.0167C8.65676 9.81061 8.09277 8.3153 7.85556 6.68159C7.78173 6.17615 7.6716 5.66701 7.72243 5.2283Z" fill="white"/>
<path d="M11.7143 24.9989C11.5001 24.9606 11.3439 24.8469 11.1975 24.6961C10.3334 23.8051 9.4668 22.9153 8.59057 22.0355C8.23354 21.6759 8.21055 21.3447 8.5821 20.9863C8.85925 20.7181 9.13156 20.4425 9.39298 20.1571C9.74638 19.7727 10.0744 19.7999 10.4193 20.1719C10.7509 20.5303 11.1176 20.8565 11.4383 21.2248C11.6525 21.4719 11.782 21.4608 12.0047 21.2248C12.8301 20.3523 13.6773 19.5009 14.5209 18.6457C15.0328 18.1279 15.1974 18.1279 15.7082 18.6494C17.014 19.9791 17.0661 19.7814 15.7263 21.137C14.5814 22.295 13.4462 23.4616 12.3085 24.6281C12.1367 24.8049 11.9684 24.9779 11.7143 24.9989Z" fill="white"/>
</svg>
