<svg width="25" height="25" viewBox="0 0 25 25" fill="none" xmlns="http://www.w3.org/2000/svg">
<g clip-path="url(#clip0_508_21)">
<path d="M0 19.2438C0.197354 19.1998 0.163175 19.0171 0.190739 18.8906C1.54576 12.6186 7.92172 9.23998 13.8699 11.646C14.3793 11.8518 14.8677 12.1026 15.3275 12.403C15.6935 12.6417 16.0695 12.8694 16.3969 13.2039C13.989 15.3272 13.4432 17.8576 14.7343 20.8104C14.6384 20.8148 14.5513 20.8225 14.4653 20.8225C9.76957 20.8236 5.07387 20.8247 0.37817 20.8225C0.252481 20.8225 0.125689 20.7961 0 20.7829C0 20.2691 0 19.7565 0 19.2438Z" fill="white"/>
<path d="M10.795 1C11.1798 1.14192 11.5734 1.26294 11.9471 1.42796C13.9306 2.3037 15.0684 4.52713 14.6186 6.62734C14.1423 8.84858 12.2625 10.3789 9.98242 10.4031C7.85452 10.4251 5.89642 8.89699 5.40469 6.82978C4.76963 4.16518 6.41461 1.62929 9.12795 1.08361C9.17315 1.07481 9.21174 1.0286 9.25364 1C9.76742 1 10.2812 1 10.795 1Z" fill="white"/>
<path d="M18.4103 22.7475C16.3067 22.0291 14.6143 19.7693 14.9913 17.1982C15.3375 14.8373 17.407 13.0154 19.8116 12.9549C21.031 12.9241 22.1435 13.2927 23.0255 13.9616C23.2107 14.1024 24.5316 15.1343 24.9042 16.987C25.1358 18.1389 24.8943 19.074 24.783 19.4855C24.6903 19.8298 24.5448 20.3502 24.1534 20.9245C24.1534 20.9245 23.7025 21.5879 22.9638 22.0918C22.0354 22.7244 20.235 23.3702 18.4103 22.7475ZM17.8535 14.9308C19.4853 16.5558 21.0917 18.129 22.6628 19.7385C23.0376 20.1225 23.149 19.9564 23.3199 19.6054C24.0586 18.0938 23.6925 16.2642 22.4224 15.1651C21.1347 14.0496 19.3298 13.9418 17.8535 14.9308ZM16.9682 15.8472C16.0035 17.0871 16.0266 18.876 16.9803 20.172C17.9494 21.49 19.7477 22.0324 21.2394 21.457C22.1832 21.0928 22.1832 21.0928 21.4919 20.4019C21.3882 20.2985 21.2857 20.194 21.1832 20.0906C19.7796 18.678 18.3772 17.2654 16.9682 15.8472Z" fill="#D71F26"/>
</g>
<defs>
<clipPath id="clip0_508_21">
<rect width="25" height="25" fill="white"/>
</clipPath>
</defs>
</svg>
