<svg width="15" height="15" viewBox="0 0 15 15" fill="none" xmlns="http://www.w3.org/2000/svg">
<g clip-path="url(#clip0_3227_786)">
<path d="M2.00174 7.46743C2.00174 5.60383 2.00007 3.74022 2.00174 1.87741C2.0034 0.680576 2.68773 0.0138024 3.92401 0.0114039C5.47582 0.00820598 7.02845 0.0241957 8.58026 0.000211096C8.99485 -0.00618481 9.09725 0.132127 9.08976 0.50149C9.06978 1.45928 9.09309 2.41786 9.0781 3.37565C9.07311 3.67146 9.17134 3.7722 9.48104 3.7682C10.4784 3.75381 11.4774 3.77859 12.4748 3.75541C12.8619 3.74661 13.0026 3.83935 13.0001 4.2383C12.9834 7.28595 12.9934 10.3344 12.9893 13.3828C12.9884 14.2743 12.3132 14.977 11.3783 14.985C8.80088 15.0058 6.22258 15.005 3.64429 14.9866C2.70355 14.9802 2.0084 14.2255 2.00424 13.2581C1.99591 11.3274 2.00257 9.3974 2.00174 7.46743ZM5.798 5.11614C6.21259 5.11614 6.62802 5.12253 7.04261 5.11454C7.38727 5.10814 7.64618 4.94265 7.70029 4.61566C7.77688 4.14876 7.71528 3.68345 7.45137 3.27012C7.21993 2.90715 6.8861 2.83919 6.50314 3.06385C6.01695 3.35007 5.54242 3.34367 5.05873 3.05506C4.69825 2.83999 4.36857 2.90715 4.14047 3.25173C3.86907 3.66027 3.8033 4.12317 3.87406 4.59247C3.92734 4.94505 4.19208 5.10814 4.55256 5.11454C4.96715 5.12173 5.38258 5.11694 5.798 5.11614ZM5.793 1.03715C5.21191 1.03475 4.74154 1.48166 4.73488 2.0421C4.72822 2.60734 5.18027 3.06305 5.7622 3.07664C6.36411 3.09023 6.83947 2.63692 6.83698 2.0525C6.83448 1.48486 6.3766 1.03955 5.793 1.03715ZM8.36714 9.50613C8.3663 9.71959 8.34882 9.95624 8.48952 10.1217C8.96322 10.6766 9.6234 10.978 10.2927 11.2498C10.4068 11.2962 10.6091 11.3034 10.6374 11.0795C10.6682 10.8381 10.4967 10.8788 10.3469 10.8749C10.1862 10.8701 10.0163 10.8053 9.96306 10.6766C9.8948 10.5143 10.1187 10.4943 10.2062 10.4079C10.5608 10.0562 10.6574 9.30865 10.3926 8.83935C10.157 8.42202 9.68584 8.24773 9.14304 8.37805C8.6452 8.49717 8.37047 8.89692 8.36714 9.50613ZM6.32748 10.579C6.17097 10.3304 6.04026 10.0818 5.86876 9.8635C5.73972 9.6996 5.70226 9.60686 5.89707 9.45816C6.13017 9.27987 6.12601 9.00885 6.04359 8.75941C5.95784 8.50117 5.72973 8.39964 5.46166 8.38604C5.26852 8.37645 5.07371 8.39164 4.88057 8.37805C4.65163 8.36126 4.56005 8.43881 4.56588 8.66986C4.5792 9.22791 4.57088 9.78595 4.57004 10.3448C4.57004 10.4967 4.55922 10.6334 4.79565 10.6334C5.03708 10.6326 4.99712 10.4823 5.02043 10.34C5.0529 10.1457 4.88723 9.83712 5.14448 9.78275C5.39673 9.72919 5.47249 10.0546 5.60153 10.2353C5.62484 10.268 5.64732 10.3024 5.6623 10.3392C5.78052 10.6286 5.99614 10.6902 6.32748 10.579ZM6.72875 9.47655C6.72875 9.67562 6.70211 9.87949 6.73624 10.073C6.76954 10.2616 6.55725 10.5918 6.92439 10.6126C7.36313 10.6366 7.15 10.2608 7.15333 10.0786C7.15749 9.77316 7.26655 9.66603 7.56709 9.7068C7.60788 9.7124 7.65034 9.7052 7.69114 9.7068C7.83766 9.71319 7.92757 9.67162 7.92341 9.50693C7.91924 9.35502 7.82767 9.33664 7.70446 9.34063C7.6212 9.34303 7.53795 9.33344 7.45553 9.34143C7.23908 9.36302 7.16249 9.27348 7.16415 9.06721C7.16582 8.86574 7.19662 8.72663 7.45387 8.74581C7.57708 8.75541 7.70279 8.74342 7.82684 8.74022C7.95338 8.73702 7.98501 8.66347 7.98501 8.55474C7.98501 8.43961 7.93173 8.40203 7.81518 8.37965C6.92855 8.20936 6.72792 8.35726 6.72792 9.19753C6.72875 9.29027 6.72875 9.38301 6.72875 9.47655Z" fill="#283942"/>
<path d="M12.8959 3.10068C11.946 3.10068 10.9952 3.10227 10.0454 3.09908C9.86553 3.09828 9.81474 2.97835 9.81474 2.82965C9.81391 2.04615 9.80892 1.26185 9.81724 0.478353C9.81974 0.277682 9.90965 0.0858045 10.1369 0.300067C11.0835 1.1891 12.0134 2.09412 12.9492 2.99354C12.9317 3.02952 12.9142 3.0655 12.8959 3.10068Z" fill="#283942"/>
<path d="M10.0674 9.51678C10.0641 9.96529 9.82096 10.2811 9.46881 10.2939C9.14912 10.3059 8.88105 10.0277 8.82861 9.62951C8.77116 9.18979 9.01842 8.77885 9.37557 8.71969C9.77101 8.65493 10.0707 9.00111 10.0674 9.51678Z" fill="#283942"/>
<path d="M5.01562 9.06086C5.02978 8.89137 4.96068 8.6819 5.26205 8.71068C5.48766 8.73227 5.62752 8.8434 5.61587 9.06246C5.60421 9.27192 5.46435 9.39584 5.24207 9.40943C4.93237 9.42942 5.04726 9.19677 5.01562 9.06086Z" fill="#283942"/>
</g>
<defs>
<clipPath id="clip0_3227_786">
<rect width="15" height="15" fill="white"/>
</clipPath>
</defs>
</svg>
