<svg width="25" height="25" viewBox="0 0 25 25" fill="none" xmlns="http://www.w3.org/2000/svg">
<g clip-path="url(#clip0_309_32)">
<path d="M6.48712 19.6521C6.09389 19.6353 5.6999 19.6498 5.30667 19.6498C6.18212 19.4863 6.90849 19.0816 7.43634 18.3575C7.96647 17.6311 8.13304 16.8157 7.98701 15.9342C7.75199 14.5209 6.43692 13.4241 4.98114 13.3914C3.44321 13.3564 2.05513 14.4783 1.81934 16.0521C1.71362 16.7602 1.83227 17.4333 2.18975 18.0517C2.71 18.9515 3.50254 19.4657 4.5263 19.6346C4.0631 19.6498 3.60066 19.6072 3.14506 19.6642C1.61398 19.8559 0.418327 20.9558 0.0752989 22.4633C0.0540022 22.5584 0.0684536 22.6641 0 22.747C0 23.2627 0 23.7777 0 24.2934C0.0486781 24.3154 0.0342268 24.3679 0.0486781 24.4044C0.192431 24.7733 0.508078 24.9992 0.902066 24.9992C3.58164 25 6.26046 25.0007 8.94003 24.9992C9.38879 24.9992 9.80103 24.6455 9.81548 24.1983C9.83373 23.6476 9.85883 23.0939 9.76224 22.5439C9.48766 20.9794 8.07067 19.7205 6.48712 19.6521Z" fill="#FDFDFD"/>
<path d="M0.0654112 11.0556C0.231221 11.4085 0.504275 11.6032 0.898263 11.604C3.57708 11.6055 6.25513 11.6048 8.93395 11.6032C9.43214 11.6032 9.81852 11.213 9.82308 10.7156C9.82537 10.4205 9.82385 10.1253 9.82385 9.82947C9.82385 7.84349 8.22279 6.2462 6.2346 6.24848C5.91895 6.24848 5.60406 6.24848 5.28842 6.24848C6.95336 6.00052 7.96647 4.64433 8.03493 3.27674C8.10642 1.87188 7.1648 0.51646 5.80106 0.128544C5.62992 0.0806255 5.45575 0.0425946 5.28385 0C5.02601 0 4.76817 0 4.51033 0C4.40385 0.0638919 4.27835 0.0600888 4.16274 0.0889923C2.73282 0.449525 1.75165 1.73117 1.78207 3.20601C1.81174 4.65955 2.8857 5.92217 4.32094 6.19219C4.37646 6.20284 4.43123 6.21805 4.48371 6.24848C4.19544 6.24848 3.90794 6.24848 3.61967 6.24848C1.83988 6.24772 0.397791 7.43809 0.0547628 9.18675C0.0448751 9.23847 0.060087 9.30616 0 9.34343C0 9.88043 0 10.4174 0 10.9544C0.0501993 10.9696 0.0486781 11.0191 0.0654112 11.0556Z" fill="#FDFDFD"/>
<path d="M24.9745 6.76502C24.7433 5.38222 23.6625 4.46263 22.2661 4.46263C18.889 4.46263 15.512 4.46263 12.1349 4.46111C12.0969 4.46111 12.0497 4.48469 12.011 4.42308C12.0832 4.35538 12.1593 4.28921 12.2292 4.21695C12.5829 3.85565 12.5951 3.30573 12.2597 2.95736C11.9045 2.58846 11.3538 2.57173 10.9788 2.93835C10.3764 3.52783 9.78089 4.12415 9.19067 4.7258C8.82862 5.0947 8.83395 5.62866 9.19675 5.99527C9.79002 6.59388 10.3856 7.19021 10.9857 7.78197C11.3333 8.12501 11.887 8.1212 12.2323 7.78349C12.5852 7.43817 12.5951 6.88748 12.2543 6.52466C12.1752 6.44024 12.0931 6.35961 11.9881 6.25236C12.0596 6.25236 12.0999 6.25236 12.1403 6.25236C15.5226 6.25236 18.905 6.25236 22.2874 6.25236C22.8182 6.25236 23.2115 6.62431 23.213 7.15522C23.2183 9.23323 23.2176 11.3112 23.2145 13.3892C23.2138 13.9011 22.8221 14.2776 22.3109 14.2784C21.7633 14.2792 21.2157 14.2814 20.668 14.2761C20.5608 14.2754 20.5319 14.305 20.5327 14.4108C20.538 14.915 20.5395 15.4201 20.5327 15.9251C20.5311 16.0453 20.5623 16.0796 20.684 16.078C21.2316 16.0712 21.7793 16.0757 22.3269 16.075C23.5347 16.0727 24.5942 15.2566 24.9122 14.0898C24.9395 13.9901 24.9335 13.8791 25.0012 13.7916C25.0012 11.4611 25.0012 9.13054 25.0012 6.80001C24.9928 6.78708 24.9768 6.77719 24.9745 6.76502Z" fill="#FDFDFD"/>
<path d="M17.4707 11.6034C15.6513 11.5958 13.832 11.5958 12.0126 11.6034C10.9448 11.6079 10.0138 12.4142 9.85711 13.4714C9.77496 14.0252 9.83201 14.585 9.82897 15.1418C9.82897 15.2277 9.82821 15.3144 9.82821 15.4004C9.82592 15.7814 9.8168 16.1625 9.82364 16.5428C9.83809 17.308 10.1697 17.9119 10.7896 18.3554C11.2452 18.6809 11.7654 18.7828 12.3146 18.7463C12.4758 18.7357 12.5047 18.7882 12.5032 18.9388C12.4941 19.615 12.4979 20.2911 12.5002 20.9673C12.5017 21.2518 12.7268 21.4526 13.0037 21.4237C13.1467 21.4085 13.244 21.3172 13.3399 21.2214C14.1286 20.4311 14.9181 19.6423 15.7046 18.8505C15.7783 18.7768 15.8514 18.7456 15.9563 18.7471C16.4499 18.7524 16.9436 18.7517 17.438 18.7494C18.623 18.744 19.6285 17.7636 19.6467 16.5778C19.6604 15.6491 19.6597 14.7204 19.6467 13.7924C19.6277 12.6036 18.6405 11.6087 17.4707 11.6034ZM12.3701 15.335C12.3701 15.2848 12.3686 15.2338 12.3678 15.1836C12.3686 15.2346 12.3701 15.2848 12.3701 15.335C12.3298 15.3388 12.3047 15.3289 12.2903 15.3099C12.3055 15.3296 12.3298 15.3388 12.3701 15.335ZM11.5335 14.5629C11.5487 14.5644 11.5631 14.5652 11.5783 14.5652C11.5631 14.5644 11.5487 14.5637 11.5335 14.5629C11.5289 14.5713 11.5236 14.5774 11.5175 14.5819C11.5236 14.5766 11.5289 14.5705 11.5335 14.5629ZM10.9212 14.5941C10.9235 14.5964 10.9265 14.5987 10.9288 14.6017C10.9265 14.5994 10.9242 14.5972 10.9212 14.5941C10.9128 14.5797 10.9014 14.5713 10.89 14.5675C10.9022 14.5721 10.9128 14.5804 10.9212 14.5941ZM10.5667 14.7561C10.5667 14.7614 10.5675 14.766 10.5683 14.7713C10.5675 14.7668 10.5667 14.7614 10.5667 14.7561ZM10.7577 15.2095L10.7607 15.2072C10.7584 15.2079 10.7577 15.2095 10.7577 15.2095ZM10.7326 15.3114C10.7196 15.3235 10.7021 15.3296 10.6778 15.3289C10.7021 15.3304 10.7204 15.3243 10.7326 15.3114ZM10.7607 15.2064L10.7637 15.2041C10.763 15.2041 10.7615 15.2049 10.7607 15.2064ZM10.709 14.7546C10.7204 14.7538 10.7318 14.7516 10.7432 14.7493C10.7318 14.7516 10.7204 14.7531 10.709 14.7546ZM10.8892 15.1745C10.8908 15.3175 10.9014 15.3213 10.9836 15.3532C10.9006 15.322 10.8908 15.3182 10.8892 15.1745ZM10.9851 14.6915C10.9661 14.6808 10.9577 14.6648 10.9546 14.6466C10.9569 14.6656 10.9653 14.6816 10.9851 14.6915C10.9858 14.712 10.9919 14.728 11.0026 14.7386C10.9912 14.728 10.9858 14.712 10.9851 14.6915ZM11.3707 15.0908C11.3707 15.1068 11.3707 15.1227 11.3707 15.1387C11.3715 15.1235 11.3715 15.1068 11.3707 15.0908ZM12.6287 15.3357L12.6295 15.3342C12.6295 15.3342 12.6295 15.335 12.6287 15.3357ZM13.2722 14.6899C13.2722 14.6899 13.2729 14.6907 13.2737 14.6907L13.2722 14.6899ZM13.333 14.6025C13.3247 14.5888 13.3064 14.5759 13.2729 14.5622C13.257 14.5363 13.241 14.5203 13.2243 14.5104C13.2083 14.5006 13.1923 14.4975 13.1756 14.4983C13.1916 14.4975 13.2075 14.5006 13.2243 14.5104C13.2402 14.5203 13.2562 14.5371 13.2729 14.5622C13.3064 14.5759 13.3247 14.5888 13.333 14.6025C13.3361 14.6078 13.3376 14.6131 13.3384 14.6185C13.3384 14.6131 13.3361 14.6078 13.333 14.6025ZM15.5608 14.5006C15.5753 14.5028 15.5897 14.5059 15.6034 14.5112C15.5897 14.5066 15.5753 14.5028 15.5608 14.5006ZM15.0124 14.7554C14.9843 14.7607 14.9645 14.7713 14.9508 14.7858C14.9645 14.7721 14.9843 14.7607 15.0124 14.7554ZM14.0799 14.5614L14.0777 14.5637C14.0769 14.5637 14.0799 14.5614 14.0799 14.5614ZM14.0343 14.6732C14.0427 14.6687 14.051 14.6626 14.0571 14.655C14.051 14.6626 14.0434 14.6679 14.0343 14.6732ZM13.7437 15.3091C13.7164 15.3053 13.6913 15.2977 13.6677 15.287C13.6913 15.2984 13.7164 15.3053 13.7437 15.3091ZM14.4967 14.5629C14.4967 14.8109 14.4967 15.0596 14.4967 15.3083C14.4967 15.0589 14.4967 14.8109 14.4967 14.5629ZM15.3988 15.3357L15.3996 15.3365C15.3996 15.3365 15.3996 15.3357 15.3988 15.3357ZM15.6711 15.3121C15.6802 15.3243 15.6962 15.3334 15.7213 15.3357C15.6954 15.3327 15.6802 15.3243 15.6711 15.3121ZM15.8217 15.3821C15.8278 15.3791 15.8331 15.3753 15.8377 15.3707C15.8331 15.376 15.8278 15.3791 15.8217 15.3821ZM16.6234 14.5614C16.5861 14.5219 16.5435 14.4998 16.4986 14.4945C16.5435 14.4998 16.5861 14.5226 16.6234 14.5614ZM16.4309 15.0125C16.4842 15.001 16.5367 14.9904 16.5899 14.979C16.5367 14.9904 16.4842 15.0018 16.4309 15.0125ZM16.4401 14.7584C16.4545 14.7561 16.4667 14.7607 16.4758 14.7706C16.4667 14.7599 16.4545 14.7561 16.4401 14.7584ZM16.6584 15.3015C16.6584 15.2825 16.6561 15.2657 16.65 15.2513C16.6553 15.2657 16.6576 15.2825 16.6584 15.3015ZM16.6066 15.3395C16.6226 15.3388 16.6386 15.338 16.6553 15.3357C16.6393 15.338 16.6226 15.3388 16.6066 15.3395ZM16.1716 14.6899C16.1936 14.6687 16.2149 14.6474 16.237 14.6261C16.2149 14.6474 16.1929 14.6687 16.1716 14.6899ZM16.4081 15.3798C16.361 15.3593 16.3146 15.3289 16.2682 15.3038C16.253 15.2977 16.24 15.2893 16.2294 15.2779C16.24 15.2886 16.253 15.2977 16.2682 15.3038C16.3153 15.3289 16.3617 15.3593 16.4081 15.3798C16.4317 15.3905 16.4553 15.3981 16.4796 15.4019C16.456 15.3981 16.4317 15.3905 16.4081 15.3798ZM16.7063 14.8345C16.7116 14.8299 16.7162 14.8261 16.7215 14.8215C16.7162 14.8261 16.7108 14.8299 16.7063 14.8345Z" fill="#FDFDFD"/>
</g>
<defs>
<clipPath id="clip0_309_32">
<rect width="25" height="25" fill="white"/>
</clipPath>
</defs>
</svg>
