<svg width="25" height="25" viewBox="0 0 25 25" fill="none" xmlns="http://www.w3.org/2000/svg">
<g clip-path="url(#clip0_365_4)">
<path d="M18.75 12.4961V5.20443C18.75 2.33255 16.4135 -0.00390625 13.5417 -0.00390625H5.20833C2.33646 -0.00390625 0 2.33255 0 5.20443V18.594C0 19.4201 0.453125 20.1763 1.18125 20.5669C1.5125 20.7451 1.87604 20.8326 2.23854 20.8326C2.67187 20.8326 3.10417 20.7065 3.47917 20.4576L7.60729 17.7044H13.5417C16.4135 17.7044 18.75 15.368 18.75 12.4961ZM9.375 14.5836C8.8 14.5836 8.33333 14.1169 8.33333 13.5419C8.33333 12.9669 8.8 12.5003 9.375 12.5003C9.95 12.5003 10.4167 12.9669 10.4167 13.5419C10.4167 14.1169 9.95 14.5836 9.375 14.5836ZM10.8823 10.0305C10.4167 10.2867 10.4167 10.3617 10.4167 10.4169C10.4167 10.993 9.95 11.4586 9.375 11.4586C8.8 11.4586 8.33333 10.993 8.33333 10.4169C8.33333 9.05443 9.41458 8.45964 9.87604 8.20547C10.1781 8.03984 10.4958 7.64818 10.399 7.09505C10.3271 6.68672 9.98021 6.33984 9.57292 6.26901C9.25417 6.21068 8.94583 6.29193 8.70625 6.49401C8.46875 6.69193 8.33333 6.98359 8.33333 7.29297C8.33333 7.86901 7.86667 8.33464 7.29167 8.33464C6.71667 8.33464 6.25 7.86901 6.25 7.29297C6.25 6.36693 6.65729 5.49401 7.36667 4.89818C8.07604 4.30234 9.00937 4.05026 9.93229 4.21797C11.1917 4.43776 12.2281 5.47318 12.45 6.73568C12.6823 8.06068 12.0521 9.38463 10.8812 10.0315L10.8823 10.0305ZM25 9.37109V22.7607C25 23.5867 24.5469 24.343 23.8187 24.7336C23.4875 24.9117 23.124 24.9992 22.7615 25.0003C22.3281 25.0003 21.8958 24.8742 21.5219 24.6253L17.3927 21.8711H11.4583C9.94792 21.8711 8.59687 21.2138 7.64479 20.1836L8.2375 19.7878H13.5417C17.5615 19.7878 20.8333 16.5159 20.8333 12.4961V5.20443C20.8333 4.88359 20.8052 4.57109 20.7656 4.26068C23.1729 4.71901 25 6.83255 25 9.37109Z" fill="white"/>
</g>
<defs>
<clipPath id="clip0_365_4">
<rect width="25" height="25" fill="white"/>
</clipPath>
</defs>
</svg>
