<svg width="25" height="25" viewBox="0 0 25 25" fill="none" xmlns="http://www.w3.org/2000/svg">
<g clip-path="url(#clip0_306_131)">
<path d="M13.997 16.3984C11.7433 16.4024 9.4896 16.4009 7.23587 16.4009C5.42166 16.4009 3.60696 16.4009 1.79274 16.4009C1.35323 16.4009 0.914204 16.4004 0.474691 16.4009C0.167032 16.4014 -0.00193664 16.5465 1.67494e-05 16.8055C0.00197014 17.0611 0.17045 17.1991 0.483481 17.2016C0.572849 17.2026 0.66417 17.2126 0.751584 17.1996C0.930808 17.1731 0.982085 17.2341 0.98062 17.4262C0.971341 18.776 0.975248 20.1258 0.975736 21.4756C0.975736 21.8727 1.0988 22.0007 1.47971 22.0007C5.31178 22.0007 9.14385 22.0007 12.9759 22.0007C13.3441 22.0007 13.4745 21.8682 13.4745 21.4951C13.475 20.2288 13.4745 18.962 13.4745 17.6957C13.4745 17.2041 13.4745 17.2051 13.9463 17.2011C14.042 17.2001 14.1392 17.2156 14.2315 17.1621C14.4107 17.0586 14.4922 16.9006 14.44 16.7035C14.3833 16.485 14.2232 16.3979 13.997 16.3984Z" fill="white"/>
<path d="M12.1363 9.15861C12.3257 9.25463 12.4742 9.17962 12.6241 9.05559C13.1613 8.61149 13.7068 8.17789 14.241 7.72979C14.3573 7.63227 14.4691 7.59726 14.6141 7.59776C16.0626 7.60176 17.5105 7.60226 18.959 7.59926C19.6021 7.59776 20.1164 7.06764 20.1178 6.40799C20.1208 5.34125 20.1203 4.27501 20.1178 3.20827C20.1164 2.51812 19.6046 2.001 18.9258 2C17.9579 2 16.9895 2.001 16.0216 2.001C15.0532 2.001 14.0853 2 13.1169 2.0015C12.4239 2.0025 11.9175 2.51712 11.9165 3.22628C11.9146 5.05119 11.917 6.8756 11.9141 8.70051C11.9136 8.89655 11.9478 9.06309 12.1363 9.15861ZM17.1174 5.9999C16.3795 6.0024 15.6411 6.0024 14.9032 5.9989C14.6322 5.9979 14.4642 5.84587 14.4579 5.61131C14.451 5.37276 14.6312 5.20422 14.9072 5.20172C15.2803 5.19822 15.6533 5.20072 16.0264 5.20072C16.3912 5.20072 16.7565 5.19822 17.1213 5.20122C17.407 5.20372 17.5789 5.35776 17.5774 5.60231C17.576 5.84587 17.4041 5.9989 17.1174 5.9999ZM14.9125 3.60186C15.6504 3.59986 16.3888 3.59986 17.1267 3.60236C17.408 3.60336 17.5833 3.7654 17.5784 4.00795C17.5735 4.242 17.4046 4.39654 17.136 4.39954C16.7546 4.40354 16.3737 4.40054 15.9923 4.40054C15.6353 4.40054 15.2783 4.40304 14.9218 4.40004C14.6322 4.39754 14.4584 4.24701 14.4574 4.00595C14.4559 3.7654 14.6351 3.60286 14.9125 3.60186Z" fill="white"/>
<path d="M1.95344 14.9911C1.94465 15.6252 1.951 15.6197 2.57901 15.6042C2.71477 15.6007 2.73724 15.5542 2.73577 15.4322C2.72991 15.0241 2.73138 14.6155 2.73577 14.2074C2.7387 13.9118 2.83881 13.6513 3.05271 13.4507C3.78377 12.7641 4.52068 12.0839 5.25125 11.3968C5.32548 11.3268 5.37285 11.3263 5.4544 11.3793C5.63168 11.4943 5.81725 11.5963 5.99891 11.7033C6.13028 11.7869 6.26213 11.8704 6.3935 11.9539C6.3852 12.0279 6.38373 12.1034 6.3681 12.1759C6.2089 12.9206 6.05214 13.6658 5.88317 14.4084C5.83092 14.6385 5.87292 14.8105 6.06191 14.9546C6.26995 15.1136 6.47408 15.2801 6.666 15.4592C6.78369 15.5692 6.90968 15.5892 7.06009 15.6072C7.45272 15.6547 7.77064 15.5392 8.04167 15.2466C8.15253 15.1266 8.2878 15.0291 8.4177 14.9291C8.58227 14.8025 8.62085 14.637 8.57886 14.4425C8.41086 13.6708 8.24483 12.8981 8.07097 12.1279C8.0446 12.0104 8.06365 11.9484 8.16913 11.8879C8.4304 11.7378 8.69118 11.5848 8.93877 11.4123C9.07355 11.3183 9.14827 11.3438 9.26108 11.4498C9.96088 12.1084 10.6685 12.7581 11.3737 13.4102C11.3898 13.4257 11.4059 13.4407 11.422 13.4562C11.6359 13.7143 11.7375 14.0089 11.7194 14.3504C11.7087 14.558 11.7175 14.767 11.7175 14.9751C11.7175 15.6332 11.7175 15.6292 12.3533 15.6037C12.471 15.5992 12.5037 15.5672 12.5018 15.4487C12.4949 15.0491 12.4954 14.649 12.5008 14.2489C12.5042 13.9699 12.4554 13.7048 12.3406 13.4522C12.2639 13.2622 12.1697 13.0842 12.0115 12.9506C11.8435 12.7381 11.6252 12.581 11.4308 12.398C11.3952 12.3325 11.3434 12.2855 11.2775 12.254C10.7808 11.7869 10.29 11.3128 9.78605 10.8547C9.49744 10.5921 9.37047 10.278 9.3734 9.88743C9.38023 8.92072 9.37682 7.9545 9.37535 6.98778C9.3734 5.79251 8.41575 4.80379 7.2608 4.80079C6.04384 4.79779 5.08228 5.7625 5.07935 6.99328C5.07691 7.9515 5.07203 8.90971 5.0818 9.86793C5.08619 10.279 4.94945 10.6036 4.64863 10.8777C3.94394 11.5198 3.24951 12.1734 2.55166 12.8236C2.26793 13.0882 2.0848 13.4132 1.99983 13.7978C1.91046 14.1924 1.9593 14.593 1.95344 14.9911ZM11.0343 12.401C11.0343 12.401 11.0333 12.4 11.0328 12.399L11.0343 12.401ZM6.83496 12.2C6.8462 12.202 6.85694 12.203 6.8672 12.2025C6.85694 12.2025 6.8462 12.202 6.83496 12.2ZM6.83448 12.2C6.82715 12.2045 6.82129 12.209 6.81592 12.214C6.7998 12.2295 6.79248 12.2475 6.78857 12.267C6.79199 12.2475 6.7998 12.229 6.81592 12.214C6.82129 12.2095 6.82715 12.2045 6.83448 12.2ZM7.6842 14.506C7.30231 14.8981 7.127 14.8961 6.75585 14.496C6.69823 14.434 6.69188 14.3819 6.71044 14.2984C6.77734 14.0014 6.83008 13.7003 6.88819 13.4012C6.89503 13.3832 6.90187 13.3652 6.90871 13.3472C6.91652 13.2982 6.92482 13.2497 6.93263 13.2007C6.96096 13.1732 6.97024 13.1402 6.95949 13.1012C6.96731 13.0506 6.97463 13.0006 6.98245 12.9501C7.05179 12.8456 7.064 12.7216 7.07767 12.6035C7.09623 12.443 7.16167 12.369 7.32185 12.402C7.462 13.0386 7.60069 13.6758 7.74525 14.3114C7.76478 14.3984 7.74085 14.4475 7.6842 14.506ZM7.7135 12.35L7.71204 12.3485C7.71204 12.3485 7.71301 12.349 7.7135 12.35ZM5.79332 10.4921C5.85046 10.3205 5.87292 10.1365 5.85729 9.91544C6.78222 10.5686 7.67932 10.5631 8.58472 9.92444C8.5896 10.038 8.56811 10.14 8.6023 10.216C8.76638 10.5771 8.57739 10.7361 8.29073 10.8847C7.97379 11.0492 7.67492 11.2502 7.37215 11.4423C7.27155 11.5063 7.19195 11.5168 7.08451 11.4483C6.68651 11.1932 6.28362 10.9467 5.87878 10.7036C5.78746 10.6491 5.75425 10.6096 5.79332 10.4921Z" fill="white"/>
<path d="M24.9982 9.55295C24.9958 8.93831 24.4757 8.40619 23.8765 8.40319C22.5433 8.39669 21.2096 8.39719 19.876 8.40269C19.3065 8.40519 18.7738 8.8983 18.7596 9.47743C18.7381 10.3341 18.7596 11.1918 18.7625 12.049C18.762 12.0665 18.7611 12.0845 18.7606 12.102C18.7596 12.3011 18.7586 12.5006 18.7576 12.6997C18.7591 12.7507 18.7611 12.8012 18.7625 12.8522C18.7977 12.8387 18.8304 12.8222 18.8602 12.8037C18.8304 12.8227 18.7977 12.8387 18.7625 12.8522C18.7611 12.9177 18.7596 12.9837 18.7581 13.0492C18.7576 13.1833 18.7572 13.3173 18.7567 13.4513C18.7547 13.7844 18.7464 14.1175 18.7518 14.45C18.7615 15.0632 19.2777 15.5958 19.8764 15.5988C21.2101 15.6043 22.5433 15.6053 23.877 15.5983C24.4782 15.5953 24.9953 15.0662 24.9978 14.4485C25.0046 12.8172 25.0041 11.1853 24.9982 9.55295ZM19.1566 12.2576C19.1405 12.2391 19.119 12.22 19.0931 12.2015C19.119 12.22 19.1405 12.2386 19.1566 12.2576ZM19.1913 12.3136C19.1957 12.3261 19.1976 12.3386 19.1976 12.3511C19.1976 12.3391 19.1957 12.3261 19.1913 12.3136ZM20.9503 10.0025C21.2585 9.99855 21.5666 10.0015 21.8748 10.0015C22.1829 10.0015 22.4911 9.99855 22.7992 10.0025C23.0658 10.006 23.2368 10.1611 23.2407 10.3941C23.2446 10.6287 23.0756 10.7977 22.8129 10.7997C22.1888 10.8047 21.5642 10.8037 20.9401 10.8002C20.6783 10.7987 20.5089 10.6327 20.5113 10.3971C20.5133 10.1681 20.6886 10.006 20.9503 10.0025ZM23.2402 12.0085C23.2348 12.2441 23.0663 12.3976 22.7992 12.4006C22.4828 12.4041 22.1668 12.4016 21.8503 12.4016C21.5505 12.4011 21.2502 12.4041 20.9503 12.4006C20.6847 12.3976 20.5137 12.2416 20.5108 12.008C20.5084 11.7764 20.6827 11.6054 20.9396 11.6039C21.5642 11.6004 22.1883 11.6004 22.8129 11.6044C23.0741 11.6054 23.246 11.7744 23.2402 12.0085ZM22.81 13.9999C22.1858 14.0044 21.5612 14.0039 20.9371 13.9999C20.6764 13.9984 20.5059 13.8289 20.5113 13.5934C20.5162 13.3723 20.6861 13.2073 20.9298 13.2033C21.2458 13.1973 21.5622 13.2018 21.8782 13.2018C22.1863 13.2018 22.4945 13.1983 22.8026 13.2028C23.0683 13.2063 23.2387 13.3643 23.2407 13.5979C23.2431 13.8319 23.0737 13.9979 22.81 13.9999Z" fill="white"/>
<path d="M3.51247 8.09337C3.51295 8.42695 3.6536 8.60499 3.91096 8.59999C4.16197 8.59499 4.28601 8.42595 4.2948 8.10038C4.30945 7.56876 4.26013 7.03664 4.33729 6.50552C4.53067 5.17272 5.73543 4.05396 7.04518 4.00395C8.77881 3.93794 10.1384 5.26574 10.1511 7.03814C10.154 7.42922 10.1467 7.82081 10.154 8.2119C10.1579 8.43345 10.3152 8.58899 10.5203 8.59949C10.7273 8.60999 10.9256 8.46646 10.9261 8.25491C10.9266 7.59026 10.9969 6.92061 10.867 6.26246C10.5647 4.73612 9.40927 3.53085 7.93104 3.26929C6.36246 2.99223 5.08543 3.53935 4.15464 4.86565C3.61697 5.63182 3.45093 6.51202 3.51198 7.44323C3.51247 7.66028 3.51247 7.87682 3.51247 8.09337Z" fill="white"/>
<path d="M15.8081 8.40141C14.2405 8.3309 13.0157 9.52117 13.1031 11.1255C13.1304 11.6241 13.0098 12.0227 12.814 12.4363C12.7857 12.4958 12.7608 12.5568 12.7349 12.6174C12.6543 12.8049 12.668 12.9709 12.8423 13.0985C12.8433 13.128 12.8545 13.1455 12.8868 13.1395C12.9737 13.2165 13.0753 13.2085 13.1778 13.19C13.211 13.1905 13.2447 13.191 13.2779 13.191C13.359 13.1875 13.4406 13.1835 13.5216 13.18C13.6193 13.17 13.717 13.1605 13.8146 13.1505C14.0544 13.1285 14.262 13.2 14.4793 13.3135C15.2245 13.7031 15.9844 13.7086 16.7408 13.3295C16.7359 13.319 16.7315 13.3085 16.7276 13.298C16.731 13.3085 16.7354 13.319 16.7408 13.3295C16.8717 13.28 16.9904 13.2115 17.0875 13.1075C17.2072 13.051 17.3029 12.9649 17.381 12.8574C17.5437 12.7354 17.6604 12.5749 17.7571 12.3963C18.1204 11.8187 18.2259 11.194 18.1155 10.5169C17.9334 9.40014 16.9088 8.45093 15.8081 8.40141ZM13.5275 12.0012C13.5138 11.9997 13.5001 11.9992 13.486 12.0002C13.4996 11.9992 13.5138 11.9997 13.5275 12.0012ZM13.0211 12.3293C13.0367 12.2748 13.066 12.2243 13.13 12.1988C13.1407 12.1788 13.1549 12.1663 13.1715 12.1593C13.1549 12.1668 13.1407 12.1793 13.13 12.1993C13.066 12.2243 13.0362 12.2748 13.0211 12.3293ZM12.9859 13.0019C13.023 12.9959 13.046 12.9829 13.0606 12.9649C13.046 12.9824 13.023 12.9959 12.9859 13.0019ZM16.7135 13.1415C16.7105 13.173 16.7096 13.204 16.7135 13.2355C16.7096 13.204 16.71 13.173 16.7135 13.1415ZM16.6016 12.5018C16.5191 12.5513 16.4361 12.6009 16.3535 12.6504C16.3135 12.6484 16.2769 12.6544 16.2539 12.6934C16.1831 12.6934 16.1177 12.7089 16.0615 12.7564C15.9888 12.7434 15.9199 12.7509 15.8579 12.7969C15.561 12.8249 15.2733 12.7684 14.9871 12.6979C15.0174 12.7564 15.0257 12.8114 15.0213 12.8654C15.0199 12.8834 15.0169 12.9009 15.013 12.9189C15.0091 12.9364 15.0038 12.9544 14.9979 12.9719C15.0038 12.9544 15.0091 12.9369 15.013 12.9189C15.0169 12.9014 15.0199 12.8834 15.0213 12.8654C15.0257 12.8119 15.0174 12.7569 14.9871 12.6979C14.9325 12.6434 14.8651 12.6154 14.7923 12.5974C14.6932 12.5323 14.594 12.4668 14.4949 12.4018C14.4807 12.3958 14.4666 12.3893 14.4524 12.3833C14.408 12.3438 14.3572 12.3448 14.3039 12.3578C14.2707 12.3573 14.2375 12.3563 14.2043 12.3558C14.0451 12.3528 13.8859 12.3493 13.7272 12.3463C13.7043 12.3558 13.6818 12.3663 13.6588 12.3758C13.6818 12.3663 13.7047 12.3558 13.7272 12.3463C13.7448 12.2958 13.7619 12.2448 13.7795 12.1943C13.9367 11.9502 13.9968 11.7072 13.9206 11.4006C13.7282 10.6244 14.0774 9.83774 14.7459 9.44565C15.4335 9.04206 16.2573 9.14408 16.8326 9.70471C17.3962 10.2533 17.5353 11.076 17.1891 11.8062C17.1681 11.8507 17.15 11.8967 17.1305 11.9417C16.9781 12.1523 16.7994 12.3363 16.6016 12.5018Z" fill="white"/>
<path d="M4.29478 14.4024C4.06721 14.4054 3.91631 14.5654 3.90849 14.82C3.9041 14.9695 3.90752 15.119 3.90752 15.2686C3.90752 15.6021 3.90752 15.6021 4.24008 15.6021C4.68839 15.6021 4.68839 15.6021 4.68839 15.137C4.68839 15.029 4.69131 14.921 4.6879 14.813C4.67911 14.5654 4.51942 14.3999 4.29478 14.4024Z" fill="white"/>
<path d="M9.93753 15.6032C9.9932 15.5957 10.0508 15.6022 10.108 15.6022C10.5436 15.6022 10.5436 15.6022 10.5441 15.1496C10.5441 15.0416 10.5465 14.9336 10.5436 14.8256C10.5367 14.5705 10.3893 14.408 10.1627 14.4025C9.92532 14.397 9.76905 14.562 9.76319 14.8321C9.7588 15.0316 9.77149 15.2317 9.7588 15.4302C9.74952 15.5782 9.80568 15.6203 9.93753 15.6032Z" fill="white"/>
</g>
<defs>
<clipPath id="clip0_306_131">
<rect width="25" height="25" fill="white"/>
</clipPath>
</defs>
</svg>
