<svg width="25" height="25" viewBox="0 0 25 25" fill="none" xmlns="http://www.w3.org/2000/svg">
<g clip-path="url(#clip0_309_17)">
<path d="M13.0048 24.9886C13.0015 23.4847 12.9803 21.9819 13.0015 20.4779C13.0148 19.5718 13.4394 18.8914 14.2775 18.5048C15.2279 18.0657 16.1827 17.6366 17.1331 17.1975C17.3232 17.1092 17.4832 17.088 17.6978 17.1729C18.4992 17.4925 19.3206 17.4969 20.1254 17.1874C20.3722 17.0925 20.5711 17.1081 20.799 17.2143C21.5315 17.5539 22.2563 17.9182 23.0088 18.2053C24.0225 18.593 24.725 19.2366 24.9907 20.3148C24.9907 21.8768 24.9907 23.4388 24.9907 24.9997C20.9947 24.9964 16.9997 24.993 13.0048 24.9886Z" fill="#FDFDFD"/>
<path d="M24.9938 0.346323C24.7814 0.474815 24.8948 0.680401 24.8937 0.844647C24.8837 2.46029 24.8815 4.07705 24.8926 5.69269C24.8948 6.08152 24.777 6.27817 24.3568 6.27817C21.1033 6.27146 17.8498 6.2737 14.5974 6.2737C14.5874 6.22342 14.5663 6.16867 14.5774 6.16085C15.4911 5.51727 15.6456 4.60666 15.5744 3.56197C15.5111 2.61895 15.5611 1.66811 15.5611 0.720625C15.5611 0.46029 15.5411 0.187664 15.8668 0.0848708C18.6134 0.0837535 21.359 0.0882227 24.1045 0.0725803C24.3213 0.071463 24.5703 0.241295 24.7692 0.0111278C25.1138 -0.0570287 24.9637 0.204424 24.9938 0.346323ZM20.2163 1.82901C21.3623 1.82901 22.5083 1.81225 23.6543 1.83794C24.0267 1.84576 24.0256 1.66141 24.0134 1.39772C24.0011 1.14521 24.0778 0.901631 23.6477 0.9061C21.3745 0.927329 19.1003 0.927329 16.8272 0.9061C16.4248 0.902748 16.4403 1.09381 16.4348 1.37761C16.4292 1.67481 16.4437 1.84912 16.8327 1.83906C17.9609 1.81001 19.0892 1.82901 20.2163 1.82901ZM20.213 3.60554C21.3579 3.60554 22.5028 3.5899 23.6465 3.61448C24.0056 3.6223 24.0323 3.46141 24.0156 3.18431C24 2.92956 24.0712 2.68934 23.6465 2.69381C21.3756 2.71392 19.1047 2.71392 16.8338 2.69381C16.4403 2.69046 16.4392 2.86811 16.4359 3.15973C16.4326 3.45694 16.447 3.62565 16.8349 3.6156C17.9598 3.58655 19.0858 3.60554 20.213 3.60554ZM19.3126 5.41448C20.144 5.41448 20.9755 5.3966 21.8058 5.42342C22.1515 5.43459 22.2627 5.33403 22.2315 4.99102C22.206 4.71057 22.2771 4.46923 21.8214 4.47817C20.1596 4.51057 18.4967 4.50387 16.8338 4.48152C16.4414 4.47593 16.427 4.65359 16.4359 4.94856C16.4437 5.22007 16.4059 5.44241 16.8183 5.42565C17.6497 5.3899 18.4823 5.41448 19.3126 5.41448Z" fill="#FDFDFD"/>
<path d="M0 21.5417C0.496865 21.5305 0.994842 21.5104 1.49171 21.5093C4.83527 21.5059 8.17994 21.5148 11.5235 21.4981C11.9125 21.4958 12.0181 21.5931 12.0059 21.9819C11.9737 22.983 11.9892 23.9852 11.9859 24.9875C7.99097 24.9919 3.99493 24.9953 0 24.9998C0 23.8467 0 22.6936 0 21.5417ZM7.05282 23.7305C7.69752 23.7305 8.34445 23.7059 8.98804 23.7394C9.38931 23.7607 9.34263 23.5238 9.32929 23.2824C9.31706 23.069 9.44267 22.7897 9.02139 22.7953C7.74977 22.8132 6.47815 22.8132 5.20653 22.7953C4.79303 22.7897 4.90085 23.0579 4.88973 23.278C4.87751 23.5204 4.83638 23.7562 5.22987 23.7383C5.83456 23.7081 6.44369 23.7294 7.05282 23.7305Z" fill="#FDFDFD"/>
<path d="M21.7774 11.7467C21.7085 12.4819 21.9074 13.3981 21.6762 14.2909C21.305 15.721 20.0378 16.6048 18.6195 16.4484C17.1366 16.2853 16.0429 15.1266 16.0073 13.6384C15.9817 12.5624 15.994 11.4853 16.0051 10.4093C16.014 9.55232 16.4675 9.02718 17.31 9.0026C18.695 8.96237 20.0812 8.99254 21.4661 8.97466C21.7707 8.97131 21.7829 9.12327 21.7807 9.3512C21.7718 10.0942 21.7774 10.8361 21.7774 11.7467Z" fill="#FDFDFD"/>
<path d="M6.66617 13.4566C6.66617 15.7985 6.66395 18.0409 6.66951 20.2823C6.66951 20.4935 6.61171 20.5761 6.39051 20.5728C5.688 20.5616 4.98439 20.5538 4.28189 20.575C3.94286 20.5862 3.99844 20.3784 3.99844 20.1795C3.99844 18.6923 3.98955 17.2063 4.00511 15.7191C4.00844 15.3728 3.98288 15.1951 3.54937 15.1918C3.09363 15.1884 3.10253 15.4052 3.10475 15.7337C3.11587 17.2018 3.09919 18.67 3.11698 20.1381C3.12031 20.4666 3.06029 20.6018 2.69903 20.5772C2.20217 20.5426 1.69974 20.5583 1.20065 20.5728C0.965005 20.5795 0.881638 20.5124 0.88275 20.2633C0.892754 18.4421 0.858295 16.6208 0.900535 14.7996C0.927212 13.6588 2.00653 12.6689 3.21146 12.5393C3.41376 12.518 3.46712 12.6588 3.56049 12.7504C4.06402 13.2432 4.56644 13.7381 5.04997 14.2499C5.23004 14.4409 5.3601 14.4432 5.55573 14.2856C5.88586 14.0219 6.23378 13.7784 6.66617 13.4566Z" fill="#FDFDFD"/>
<path d="M7.55804 13.4541C7.98154 13.767 8.33057 14.0039 8.65625 14.2709C8.86967 14.4463 9.0075 14.4385 9.20203 14.2318C9.68333 13.719 10.1991 13.2385 10.6826 12.7268C10.846 12.5547 10.9761 12.5435 11.2006 12.6028C12.2444 12.8776 13.128 13.3648 13.2981 14.5279C13.4104 15.291 13.3114 16.0843 13.3403 16.8631C13.3637 17.5033 13.3337 18.0609 12.7534 18.5268C12.2555 18.9268 12.0598 19.5815 12.0265 20.2162C12.0009 20.7011 11.703 20.5368 11.4618 20.5715C11.1395 20.6184 11.1095 20.4463 11.1139 20.1826C11.1272 19.2553 11.0995 18.3257 11.1284 17.3983C11.1395 17.024 10.9883 16.9793 10.6748 16.9826C10.3703 16.986 10.2046 17.0139 10.2169 17.3949C10.2458 18.3223 10.2124 19.2508 10.2336 20.1793C10.2402 20.4988 10.1435 20.5882 9.83228 20.5771C9.18646 20.5536 8.53843 20.5569 7.89261 20.5759C7.62362 20.5838 7.55359 20.4977 7.5547 20.2318C7.56248 18.0072 7.55804 15.7838 7.55804 13.4541ZM9.74113 16.1346C10.0913 16.1346 10.4425 16.1134 10.7893 16.1402C11.1939 16.1703 11.1128 15.8988 11.1161 15.6698C11.1195 15.434 11.1806 15.1882 10.7815 15.205C10.1202 15.2329 9.45657 15.2284 8.79409 15.2061C8.48174 15.1949 8.45284 15.3301 8.43172 15.5949C8.39837 16.0217 8.52398 16.2016 8.9686 16.1413C9.22203 16.1055 9.48436 16.1346 9.74113 16.1346Z" fill="#FDFDFD"/>
<path d="M9.30535 4.89788C9.30535 5.63196 9.30424 6.30012 9.30535 6.96939C9.30647 7.24202 9.25867 7.48559 8.98634 7.62638C8.09932 8.08671 7.87367 8.87666 7.89034 9.80515C7.90813 10.7437 7.89479 10.7437 6.98998 10.7437C6.12853 10.7437 6.09074 10.7415 6.13964 9.8666C6.193 8.89677 6.0774 8.04872 5.08811 7.57274C4.88025 7.4733 4.86358 7.25431 4.8658 7.03978C4.87025 6.37051 4.8758 5.70124 4.86358 5.03308C4.85802 4.77274 4.92916 4.63755 5.20038 4.55598C5.64945 4.42079 6.0974 4.39844 6.48756 4.63308C7.38236 5.17051 8.2994 5.3314 9.30535 4.89788Z" fill="#FDFDFD"/>
<path d="M3.22656 4.50121C3.7301 2.94926 4.64268 1.92691 6.17663 1.53585C7.6839 1.15038 9.3868 1.76714 10.2972 3.0163C10.4984 3.29228 10.5095 3.43864 10.1571 3.55931C9.74139 3.70233 9.34012 3.88445 8.93107 4.04647C8.38863 4.25987 7.83396 4.25876 7.3282 3.98278C6.21776 3.37831 5.15956 3.41518 4.10136 4.10568C3.85348 4.26769 3.60449 4.4744 3.22656 4.50121Z" fill="#FDFDFD"/>
<path d="M8.88281 8.82048C8.98285 8.74115 9.07178 8.63948 9.18404 8.58473C10.0811 8.14786 10.3145 7.40037 10.23 6.46518C10.1833 5.94898 10.2634 5.4216 10.2089 4.90764C10.1633 4.47076 10.4156 4.32328 10.7258 4.28305C11.0537 4.2406 10.9692 4.56797 11.0103 4.75903C11.1893 5.5892 11.3683 6.42048 11.5361 7.25289C11.744 8.2797 11.1948 8.94451 10.1433 8.95233C9.74204 8.95568 9.34077 8.95233 8.9395 8.95233C8.92172 8.90764 8.90282 8.86406 8.88281 8.82048Z" fill="#FDFDFD"/>
<path d="M5.38313 8.95174C4.77511 8.95174 4.26157 8.97408 3.75137 8.94615C3.05442 8.90816 2.53199 8.13051 2.67649 7.35174C2.76431 6.88023 2.88991 6.41542 3.01107 5.95062C3.13445 5.47911 3.64021 5.50369 3.89253 5.19531C3.94478 5.21431 3.99702 5.23218 4.04926 5.25118C4.04926 5.9428 4.02481 6.63554 4.05593 7.32492C4.09261 8.13163 4.94629 8.32827 5.38313 8.95174Z" fill="#FDFDFD"/>
<path d="M9.91793 12.1909C9.84679 12.277 9.80455 12.3362 9.75453 12.3887C8.81304 13.3764 8.82416 13.363 7.76707 12.4848C7.50696 12.268 7.52919 12.0278 7.57588 11.7921C7.62701 11.5351 7.88711 11.658 8.04718 11.6602C8.70633 11.6714 9.27767 11.9999 9.91793 12.1909Z" fill="#FDFDFD"/>
<path d="M4.23438 12.2117C4.96689 12.0084 5.54045 11.6553 6.21628 11.6587C6.36189 11.6598 6.60088 11.5447 6.642 11.7749C6.68091 11.9905 6.76872 12.2508 6.51529 12.4352C6.20072 12.6631 5.88948 12.8966 5.59158 13.1458C5.4293 13.2821 5.33148 13.262 5.18809 13.1123C4.90798 12.8218 4.60119 12.5547 4.23438 12.2117Z" fill="#FDFDFD"/>
</g>
<defs>
<clipPath id="clip0_309_17">
<rect width="25" height="25" fill="white"/>
</clipPath>
</defs>
</svg>
