<svg width="25" height="25" viewBox="0 0 25 25" fill="none" xmlns="http://www.w3.org/2000/svg">
<g clip-path="url(#clip0_373_114)">
<path d="M12.5225 13.9822C16.454 13.9822 20.3847 13.9844 24.3161 13.9766C24.5326 13.9759 24.5827 14.0275 24.5827 14.2476C24.575 17.7417 24.575 21.2365 24.5827 24.7306C24.5834 24.9514 24.5319 25.0009 24.3161 25.0009C16.4366 24.9945 8.55629 24.9945 0.676713 25.0009C0.460272 25.0009 0.410163 24.9499 0.410163 24.7299C0.417819 21.2358 0.417819 17.741 0.410163 14.2469C0.409467 14.0261 0.460968 13.9759 0.676713 13.9766C4.62555 13.9844 8.57438 13.9822 12.5225 13.9822ZM6.9382 15.2531C5.77526 15.2531 4.61232 15.2524 3.44939 15.2538C3.07844 15.2545 2.93786 15.3946 2.9142 15.7746C2.87592 16.388 2.37344 16.9046 1.77493 16.9463C1.38032 16.9732 1.25018 17.1098 1.24948 17.5039C1.24809 18.8278 1.24809 20.151 1.24948 21.4749C1.24948 21.8684 1.38171 22.0049 1.77562 22.0318C2.35187 22.0714 2.85922 22.5703 2.91211 23.1512C2.95596 23.626 3.06174 23.7251 3.52803 23.7251C5.81006 23.7251 8.09278 23.7258 10.3748 23.7237C10.5237 23.7237 10.6601 23.7463 10.8014 23.8036C11.9108 24.2522 13.0278 24.2593 14.1427 23.8242C14.3167 23.7562 14.4851 23.7223 14.6695 23.723C16.9432 23.7265 19.2169 23.7251 21.4906 23.7251C21.9214 23.7251 22.048 23.6062 22.0786 23.1774C22.1211 22.5845 22.6312 22.0722 23.2172 22.0325C23.6097 22.0056 23.7427 21.8677 23.7427 21.4742C23.7441 20.1503 23.7441 18.8271 23.7427 17.5032C23.742 17.1105 23.6104 16.9739 23.2158 16.9463C22.6403 16.906 22.1315 16.405 22.0793 15.8262C22.0369 15.3528 21.9304 15.2531 21.4627 15.2531C19.1716 15.2531 16.8806 15.2524 14.5895 15.2545C14.4573 15.2545 14.3348 15.2361 14.2116 15.1851C13.302 14.808 12.3743 14.7394 11.4132 14.9686C11.0541 15.0542 10.736 15.2644 10.3463 15.2587C9.21187 15.2425 8.07469 15.2531 6.9382 15.2531Z" fill="white"/>
<path d="M8.34298 5.50977C10.4267 5.51331 12.0837 7.21719 12.0802 9.35271C12.0768 11.4592 10.3884 13.139 8.27964 13.1341C6.23981 13.1291 4.57579 11.4054 4.58205 9.30318C4.58762 7.19526 6.26208 5.50623 8.34298 5.50977ZM9.5588 8.05145C9.61935 8.05145 9.68129 8.04437 9.74045 8.05286C9.9548 8.084 10.0202 8.0281 9.97081 7.7861C9.84066 7.14502 9.48503 6.71056 8.89417 6.47139C8.80509 6.4353 8.7515 6.41266 8.74384 6.29874C8.72088 5.93291 8.71461 5.93362 8.35133 5.93362C8.27338 5.93362 8.19335 5.94423 8.11749 5.9315C7.93724 5.90249 7.88643 5.9874 7.91427 6.15014C7.94767 6.3419 7.88017 6.43672 7.68878 6.51314C6.9636 6.80184 6.56273 7.57028 6.70401 8.34652C6.85642 9.18289 7.46816 9.69519 8.37569 9.74684C8.78073 9.76949 9.12314 10.0936 9.16142 10.4891C9.20317 10.9271 8.93523 11.3227 8.52671 11.4253C8.14672 11.5208 7.65398 11.317 7.58021 10.9299C7.50574 10.5393 7.29139 10.5825 7.03876 10.5931C6.97821 10.596 6.91627 10.6009 6.85712 10.5924C6.69357 10.5684 6.64972 10.6257 6.67826 10.7941C6.791 11.4557 7.14454 11.917 7.7549 12.1704C7.83632 12.2043 7.91427 12.2086 7.91844 12.3331C7.92262 12.4576 7.84119 12.6296 7.96438 12.6982C8.06529 12.7541 8.2184 12.711 8.34854 12.7124C8.40909 12.7124 8.47173 12.7039 8.53019 12.7138C8.71949 12.7463 8.76542 12.6607 8.7515 12.4817C8.74245 12.3664 8.69791 12.2439 8.8886 12.1696C9.66041 11.8675 10.1016 11.1075 9.9715 10.3624C9.81839 9.48716 9.20178 8.93948 8.32349 8.89985C7.86973 8.87933 7.51966 8.54676 7.49809 8.11655C7.47582 7.66581 7.78343 7.26814 8.19891 7.21012C8.64502 7.14785 9.06537 7.42452 9.14402 7.87667C9.17533 8.05569 9.24702 8.06206 9.37646 8.05357C9.43701 8.04791 9.49756 8.05145 9.5588 8.05145Z" fill="white"/>
<path d="M16.6506 13.1341C14.5711 13.1341 12.9127 11.4274 12.9141 9.28832C12.9155 7.21719 14.5983 5.50977 16.6367 5.50977C18.7385 5.50977 20.4129 7.19808 20.4123 9.31521C20.4116 11.4415 18.7434 13.1348 16.6506 13.1341ZM17.9096 8.05215C17.9618 8.05215 18.0147 8.04437 18.0655 8.05357C18.3126 8.09814 18.3446 7.99908 18.2979 7.7677C18.1699 7.13582 17.8108 6.71268 17.2331 6.47351C17.1482 6.43813 17.0849 6.42539 17.0759 6.30652C17.0473 5.93361 17.0404 5.93432 16.6646 5.93432C16.595 5.93432 16.5247 5.94281 16.4565 5.93291C16.2901 5.90885 16.2122 5.96829 16.2463 6.14448C16.2866 6.35251 16.1948 6.44167 16.0027 6.5195C15.2956 6.8082 14.8961 7.5816 15.0346 8.34014C15.1877 9.18147 15.8009 9.69872 16.7014 9.74684C17.1086 9.76877 17.4524 10.0879 17.4934 10.4827C17.5394 10.9186 17.2735 11.3156 16.865 11.4231C16.4864 11.5229 15.9937 11.3241 15.9143 10.9363C15.8329 10.5415 15.6102 10.5832 15.3513 10.5931C15.2907 10.5952 15.2288 10.6009 15.1696 10.5924C15.0075 10.5691 14.9859 10.6419 15.0096 10.787C15.1188 11.4486 15.4696 11.9135 16.0813 12.1668C16.1732 12.205 16.2456 12.2185 16.2512 12.3522C16.2651 12.7117 16.2741 12.7117 16.6221 12.7117C16.6917 12.7117 16.762 12.7025 16.8302 12.7131C17.0292 12.7442 17.1093 12.6742 17.0842 12.4619C17.0717 12.3536 17.0404 12.2418 17.215 12.1718C17.9924 11.8611 18.4344 11.1104 18.3063 10.3688C18.1532 9.48078 17.5428 8.94301 16.6374 8.89914C16.2031 8.87791 15.8552 8.54322 15.8308 8.12291C15.8057 7.68208 16.0925 7.29149 16.4989 7.21365C16.9255 7.13157 17.3626 7.38418 17.4579 7.82006C17.506 8.03941 17.5964 8.08116 17.7795 8.05357C17.8219 8.04649 17.8665 8.05215 17.9096 8.05215Z" fill="white"/>
<path d="M3.36634 0.00478779C3.09284 0.273673 2.88335 0.496566 2.65578 0.698937C2.52007 0.819936 2.54373 0.889988 2.66065 1.00745C3.53059 1.88203 4.39079 2.76723 5.26142 3.6404C5.39226 3.77131 5.4201 3.83995 5.26977 3.985C4.80418 4.43433 4.35112 4.8978 3.9071 5.36906C3.77487 5.50987 3.71015 5.48722 3.58835 5.36127C2.72955 4.47607 1.85961 3.60149 0.999411 2.71629C0.876227 2.58892 0.802456 2.56699 0.676489 2.71063C0.476751 2.93776 0.254742 3.1458 0.00141526 3.40407C0.00141526 2.91088 0.00141526 2.47429 0.00141526 2.03841C0.00141526 1.42068 0.00211121 0.802954 0.000719304 0.185932C0.000719304 0.0882839 -0.0180714 0.00124982 0.13643 0.00195741C1.18523 0.00761816 2.23403 0.00478779 3.36634 0.00478779Z" fill="white"/>
<path d="M24.996 3.40262C24.7469 3.14859 24.5311 2.94622 24.337 2.72403C24.2096 2.57898 24.1358 2.57261 23.9946 2.71837C23.1434 3.59933 22.2776 4.46542 21.4258 5.34567C21.2838 5.49214 21.2101 5.49568 21.0695 5.34567C20.6387 4.88644 20.1954 4.43783 19.7451 3.99841C19.6038 3.86043 19.5892 3.78472 19.7395 3.63471C20.6067 2.77003 21.4578 1.88907 22.3236 1.02298C22.4635 0.883582 22.4697 0.807162 22.3222 0.674842C22.103 0.478838 21.9039 0.258069 21.652 0.00262767C21.7793 0.00262767 21.8524 0.00262767 21.9248 0.00262767C22.879 0.00262767 23.8331 0.00262767 24.7873 0.00262767C24.8944 0.00262767 25.0023 -0.0334596 25.0002 0.161836C24.9905 1.2211 24.996 2.27966 24.996 3.40262Z" fill="white"/>
<path d="M9.98828 2.54611C10.8269 1.69346 11.6231 0.886098 12.4165 0.0759027C12.4798 0.0108041 12.5209 0.0115117 12.5849 0.0759027C13.3783 0.886098 14.1744 1.69346 15.0131 2.54611C14.6164 2.54611 14.274 2.5539 13.9322 2.54257C13.7847 2.53762 13.7436 2.5822 13.7464 2.7315C13.7548 3.31314 13.745 3.89549 13.7534 4.47714C13.7555 4.62644 13.7151 4.66819 13.5676 4.66677C12.8563 4.65899 12.145 4.65899 11.4345 4.66677C11.2897 4.66819 11.2445 4.63068 11.2466 4.47926C11.2556 3.89762 11.2452 3.31527 11.2535 2.73363C11.2556 2.58715 11.2194 2.53691 11.0691 2.54257C10.7316 2.5539 10.3933 2.54611 9.98828 2.54611Z" fill="white"/>
<path d="M8.75001 19.4742C8.75488 17.3535 10.4314 15.6694 12.5318 15.6758C14.6044 15.6815 16.2559 17.3981 16.2482 19.54C16.2405 21.6366 14.5417 23.3086 12.4274 23.2994C10.4057 23.2909 8.74514 21.5637 8.75001 19.4742ZM11.2714 20.7584C11.2109 20.7584 11.149 20.7655 11.0898 20.757C10.8754 20.7266 10.8086 20.7818 10.858 21.0238C10.9889 21.6649 11.3452 22.0986 11.9354 22.3378C12.0245 22.3739 12.0781 22.3958 12.0857 22.5104C12.1087 22.8763 12.1149 22.8763 12.4775 22.8763C12.5555 22.8763 12.6355 22.8664 12.7114 22.8784C12.8909 22.9074 12.9431 22.8232 12.9153 22.6598C12.8826 22.468 12.9487 22.3725 13.1401 22.296C13.866 22.0059 14.2654 21.2389 14.1249 20.4627C13.9731 19.6263 13.3621 19.1147 12.4532 19.0631C12.0488 19.0404 11.705 18.7149 11.6681 18.3201C11.6271 17.8814 11.895 17.4851 12.3028 17.3839C12.6835 17.2891 13.1749 17.4929 13.2493 17.88C13.3238 18.2698 13.5382 18.2274 13.7915 18.2168C13.8611 18.2139 13.9314 18.209 13.9996 18.2182C14.1409 18.2366 14.177 18.1828 14.1555 18.0427C14.0504 17.3705 13.6975 16.8971 13.0754 16.6395C12.9939 16.6056 12.916 16.602 12.9118 16.4775C12.9076 16.353 12.9898 16.181 12.8659 16.1131C12.765 16.0572 12.6118 16.1004 12.4817 16.0996C12.4212 16.0996 12.3585 16.1081 12.3001 16.0982C12.1101 16.0657 12.0648 16.1513 12.0788 16.3303C12.0878 16.4457 12.1323 16.5681 11.9416 16.6417C11.1838 16.9346 10.7328 17.6953 10.8525 18.4227C10.9986 19.31 11.6215 19.8704 12.5068 19.9122C12.9612 19.9334 13.3106 20.2645 13.3329 20.6955C13.3558 21.1455 13.0482 21.5439 12.632 21.6026C12.188 21.6656 11.7642 21.3868 11.6869 20.9361C11.6563 20.757 11.5839 20.75 11.4552 20.7592C11.3932 20.762 11.3327 20.7584 11.2714 20.7584Z" fill="white"/>
<path d="M15.6445 22.8765C17.4102 21.1195 17.6579 18.1597 15.6835 16.1225C15.7364 16.0751 15.799 16.1006 15.8554 16.1006C17.5988 16.0985 19.3421 16.1013 21.0855 16.0949C21.2449 16.0942 21.3026 16.1473 21.3486 16.2959C21.5671 16.9992 22.0285 17.4677 22.721 17.6877C22.8692 17.7351 22.9151 17.8009 22.9144 17.9587C22.9068 18.9819 22.9068 20.0051 22.9144 21.0283C22.9158 21.1762 22.8776 21.2405 22.7356 21.2844C22.0306 21.5024 21.5685 21.9764 21.343 22.6897C21.3124 22.7859 21.3054 22.8807 21.153 22.8807C19.4006 22.8744 17.6489 22.8765 15.8965 22.8765C15.8283 22.8765 15.7608 22.8765 15.6445 22.8765ZM19.9678 20.7587C20.496 20.7587 21.0242 20.7608 21.5525 20.758C21.9171 20.7558 22.0744 20.5981 22.0765 20.2287C22.0793 19.7355 22.0793 19.2423 22.0765 18.7491C22.0744 18.3783 21.9185 18.2191 21.5539 18.2184C20.5148 18.2163 19.4751 18.2163 18.436 18.2184C18.0699 18.2191 17.9147 18.3776 17.9126 18.7477C17.9099 19.2409 17.9099 19.7341 17.9126 20.2273C17.9147 20.5981 18.0699 20.7566 18.4346 20.7587C18.9454 20.7601 19.457 20.7587 19.9678 20.7587Z" fill="white"/>
<path d="M9.33389 16.1219C7.61141 17.8286 7.31215 20.7828 9.33458 22.8766C9.2455 22.8766 9.18008 22.8766 9.11466 22.8766C7.38801 22.8766 5.66204 22.8745 3.93539 22.8801C3.7781 22.8808 3.69807 22.8539 3.64517 22.6799C3.43082 21.9758 2.96871 21.506 2.27415 21.288C2.12452 21.2413 2.08067 21.1727 2.08207 21.0163C2.08972 19.9931 2.08972 18.97 2.08207 17.9468C2.08067 17.7975 2.12173 17.7352 2.26232 17.6913C2.96732 17.4727 3.43082 16.9979 3.65144 16.2832C3.68832 16.1636 3.72382 16.095 3.87275 16.0957C5.66831 16.1021 7.46386 16.1 9.26012 16.1014C9.27543 16.1007 9.29074 16.1092 9.33389 16.1219ZM5.00576 20.7588C5.52564 20.7588 6.04482 20.7609 6.56469 20.758C6.91685 20.7559 7.08109 20.5981 7.08387 20.2507C7.08805 19.7398 7.08875 19.2289 7.08387 18.7181C7.0804 18.3834 6.91685 18.2199 6.58348 18.2185C5.52703 18.2157 4.46988 18.215 3.41342 18.2185C3.08354 18.2199 2.92347 18.3869 2.92069 18.7251C2.91651 19.2268 2.91721 19.7292 2.92069 20.2309C2.92278 20.5981 3.08076 20.7559 3.44683 20.7573C3.96601 20.7602 4.48588 20.7588 5.00576 20.7588Z" fill="white"/>
<path d="M20.0204 19.0654C20.376 19.0654 20.7316 19.0697 21.0873 19.0626C21.207 19.0605 21.2466 19.0888 21.2515 19.2204C21.2793 19.9131 21.2842 19.9124 20.6001 19.9124C20.0447 19.9124 19.4894 19.9082 18.9347 19.9153C18.7934 19.9174 18.7461 19.8855 18.744 19.7306C18.7356 19.0647 18.7301 19.0647 19.3696 19.0647C19.5868 19.0654 19.8032 19.0654 20.0204 19.0654Z" fill="white"/>
<path d="M4.99968 19.9119C4.635 19.9119 4.27102 19.9069 3.90703 19.9147C3.78176 19.9175 3.75114 19.8793 3.74627 19.7526C3.72052 19.0642 3.71634 19.0642 4.40116 19.0642C4.95653 19.0642 5.5119 19.0691 6.06657 19.0606C6.21342 19.0585 6.2517 19.1002 6.25309 19.2496C6.26074 19.9119 6.26562 19.9112 5.62395 19.9112C5.41586 19.9119 5.20777 19.9119 4.99968 19.9119Z" fill="white"/>
</g>
<defs>
<clipPath id="clip0_373_114">
<rect width="25" height="25" fill="white"/>
</clipPath>
</defs>
</svg>
