<svg width="25" height="25" viewBox="0 0 25 25" fill="none" xmlns="http://www.w3.org/2000/svg">
<g clip-path="url(#clip0_373_92)">
<path d="M25.0013 6.52049C24.8323 6.70262 24.6107 6.66405 24.3976 6.66726C24.2114 6.67048 23.9639 6.60727 23.8563 6.70047C23.7293 6.81082 23.8165 7.06472 23.8165 7.25434C23.8143 11.7024 23.8143 16.1494 23.8143 20.5975C23.8143 21.0732 23.7487 21.1375 23.2612 21.1375C21.4791 21.1375 19.697 21.1375 17.9149 21.1375C17.5049 21.1375 17.4328 21.0657 17.4328 20.6597C17.4328 16.082 17.4317 11.5053 17.4371 6.92759C17.4371 6.72726 17.4102 6.63298 17.1809 6.66084C16.9883 6.6844 16.7903 6.66084 16.5955 6.66726C16.4545 6.67155 16.3394 6.63941 16.2673 6.50871C16.1876 6.36301 16.249 6.24517 16.3394 6.13161C16.7978 5.56381 17.2563 4.99602 17.7136 4.42715C18.5638 3.37298 19.4139 2.31881 20.263 1.26357C20.5428 0.915389 20.6859 0.912175 20.9625 1.25392C22.2808 2.88875 23.5991 4.52464 24.9184 6.15839C24.941 6.18624 24.9475 6.23767 25.0024 6.22695C25.0013 6.32551 25.0013 6.423 25.0013 6.52049Z" fill="white"/>
<path d="M16.944 14.797C16.2703 14.5849 15.7602 13.9496 15.7247 13.309C15.7096 13.0433 15.6149 12.9469 15.3491 12.9436C14.9499 12.9404 14.5517 12.9426 14.1524 12.9426C10.9627 12.9426 7.77194 12.9426 4.58224 12.9426C4.16469 12.9426 4.1238 12.979 4.06784 13.3765C3.95592 14.181 3.41892 14.6085 2.71189 14.8752C2.44608 14.9759 2.16413 15.0209 1.8768 15.0252C1.61207 15.0295 1.51522 15.1302 1.51522 15.398C1.51414 16.9536 1.51414 18.5091 1.51522 20.0647C1.51522 20.3464 1.59916 20.4428 1.89079 20.4546C2.40627 20.476 2.883 20.6078 3.30593 20.9046C3.72885 21.2013 4.01296 21.5859 4.07322 22.1151C4.10981 22.4333 4.169 22.473 4.50153 22.473C8.09909 22.473 11.6956 22.473 15.2931 22.473C15.6472 22.473 15.6752 22.4344 15.7322 22.0776C15.8452 21.3717 16.2993 20.9485 16.9407 20.6549C16.9343 20.9399 16.9805 21.181 17.1742 21.3717C17.3324 21.5281 17.5197 21.5998 17.7446 21.5988C18.3634 21.5956 18.9822 21.6041 19.5999 21.5945C19.7721 21.5913 19.8226 21.6427 19.8173 21.813C19.8054 22.1933 19.814 22.5747 19.813 22.9551C19.8119 23.6482 19.46 23.9985 18.7616 23.9996C13.6014 23.9996 8.44238 23.9996 3.28225 23.9996C2.52572 23.9996 1.76811 24.0007 1.01158 23.9996C0.354053 23.9974 0 23.6471 0 22.9979C0 19.4733 0 15.9497 0 12.4251C0 11.792 0.358357 11.4309 0.991133 11.4309C6.23197 11.4299 11.4728 11.4309 16.7137 11.4277C16.8815 11.4277 16.9504 11.4459 16.9483 11.6431C16.9375 12.6887 16.944 13.7343 16.944 14.797Z" fill="white"/>
<path d="M9.91281 21.9199C8.24585 21.9199 6.57782 21.9178 4.91087 21.9231C4.72147 21.9242 4.63 21.8974 4.56328 21.6778C4.27594 20.7382 3.55708 20.2529 2.65311 19.9873C2.64558 19.9851 2.63697 19.9851 2.62944 19.984C2.45725 19.9465 2.20759 19.9626 2.13226 19.8555C2.04294 19.7301 2.09997 19.4987 2.09997 19.3134C2.0989 18.1392 2.10212 16.9651 2.09567 15.7909C2.09459 15.6334 2.1301 15.5863 2.30121 15.5552C3.42148 15.3528 4.29101 14.831 4.60094 13.6547C4.63861 13.5101 4.72793 13.5208 4.83554 13.5208C6.12907 13.5219 7.4226 13.5219 8.71505 13.5219C10.7813 13.5219 12.8475 13.524 14.9126 13.5176C15.0912 13.5165 15.173 13.5465 15.2225 13.7383C15.4302 14.5471 15.9963 15.041 16.7399 15.3549C16.8809 15.4149 16.9497 15.4653 16.9487 15.6388C16.939 17.0401 16.9422 18.4403 16.9444 19.8416C16.9444 19.9701 16.9358 20.0537 16.7851 20.1126C15.9952 20.4233 15.4227 20.9514 15.201 21.7924C15.159 21.952 15.0611 21.9188 14.9642 21.9188C13.2801 21.9199 11.597 21.9199 9.91281 21.9199ZM9.89129 21.501C12.0005 21.5032 13.7095 19.8105 13.7127 17.7182C13.7159 15.6377 11.9909 13.9215 9.89559 13.9193C7.81001 13.9183 6.10001 15.6206 6.09786 17.7011C6.09571 19.8094 7.78203 21.4989 9.89129 21.501Z" fill="white"/>
<path d="M9.486 10.9537C7.08618 10.9537 4.6853 10.9494 2.28549 10.9601C2.0412 10.9612 1.9691 10.8926 2.00461 10.6655C2.0186 10.5702 2.00676 10.4716 2.00676 10.3741C2.01215 9.80632 2.38449 9.43672 2.95593 9.43672C7.41441 9.43564 11.8729 9.43564 16.3314 9.43886C16.5315 9.43886 16.7973 9.3478 16.9125 9.47957C17.0104 9.59098 16.9426 9.84917 16.9437 10.042C16.9459 10.2927 16.9372 10.5445 16.9469 10.7951C16.9523 10.9248 16.9103 10.959 16.7834 10.9558C16.3852 10.9483 15.9859 10.9526 15.5878 10.9526C13.5538 10.9537 11.5199 10.9537 9.486 10.9537Z" fill="white"/>
<path d="M6.66798 17.7186C6.6626 15.9585 8.11433 14.5025 9.87921 14.4961C11.6656 14.4897 13.1292 15.9317 13.1313 17.7004C13.1346 19.4799 11.6947 20.9261 9.90827 20.9368C8.13585 20.9486 6.67336 19.497 6.66798 17.7186ZM9.32715 16.703C9.32715 16.3956 9.48749 16.1888 9.78881 16.0999C10.0761 16.0152 10.3495 16.0613 10.6207 16.1706C10.795 16.2413 10.9543 16.2134 11.0264 16.0302C11.0888 15.8706 11.0415 15.7238 10.8628 15.6542C10.7423 15.6071 10.6207 15.5353 10.4969 15.5299C10.2699 15.5203 10.1569 15.4582 10.187 15.2043C10.2021 15.0714 10.117 14.9546 9.96423 14.9279C9.8437 14.9064 9.74254 14.9364 9.66506 15.0425C9.60694 15.1239 9.60802 15.2128 9.61878 15.2985C9.6403 15.4721 9.58973 15.5674 9.41216 15.6403C9.07856 15.7774 8.86763 16.042 8.78692 16.3956C8.64164 17.0341 8.90314 17.529 9.54022 17.8579C9.76944 17.9768 10.0213 18.055 10.2247 18.2211C10.4603 18.4118 10.5367 18.6528 10.4474 18.9356C10.3635 19.1981 10.159 19.3138 9.90181 19.3524C9.63815 19.392 9.38633 19.3492 9.1399 19.2485C8.9774 19.182 8.85256 19.2431 8.77831 19.3952C8.69975 19.557 8.76647 19.6781 8.91068 19.7605C9.03766 19.8323 9.17433 19.887 9.32177 19.8998C9.52839 19.918 9.6629 19.9716 9.62309 20.2298C9.59726 20.3969 9.72317 20.5051 9.88782 20.5158C10.0579 20.5255 10.1569 20.4162 10.187 20.2544C10.201 20.1762 10.1978 20.0926 10.1945 20.0123C10.1913 19.9223 10.215 19.873 10.3107 19.8323C10.7799 19.6341 11.0339 19.2827 11.049 18.7653C11.064 18.2254 10.7982 17.8611 10.343 17.6126C10.1375 17.5001 9.9158 17.4165 9.71241 17.3008C9.48534 17.1712 9.31316 16.9933 9.32715 16.703Z" fill="white"/>
</g>
<defs>
<clipPath id="clip0_373_92">
<rect width="25" height="25" fill="white"/>
</clipPath>
</defs>
</svg>
