<svg width="25" height="25" viewBox="0 0 25 25" fill="none" xmlns="http://www.w3.org/2000/svg">
<g clip-path="url(#clip0_373_83)">
<path d="M9.39215 24.4079C9.7819 24.0472 10.1001 23.7106 10.3785 23.3338C13.0908 19.6705 11.0705 14.3398 6.62409 13.434C6.26615 13.3619 5.90821 13.3138 5.55028 13.3138C5.41505 13.3138 5.35938 13.2737 5.35938 13.1214C5.36733 10.8769 5.35938 8.62438 5.36733 6.37989C5.36733 6.05925 5.61391 5.81877 5.93208 5.80273C5.99571 5.80273 6.05934 5.80273 6.13093 5.80273C11.9693 5.80273 17.8077 5.80273 23.646 5.80273C24.2187 5.80273 24.4176 6.00314 24.4176 6.57227C24.4176 12.2556 24.4176 17.947 24.4176 23.6304C24.4176 24.1675 24.1949 24.4079 23.6938 24.4079C18.9928 24.4079 14.284 24.4079 9.58305 24.4079C9.53532 24.4079 9.50351 24.4079 9.39215 24.4079ZM14.8726 18.3959C15.6123 18.3959 16.36 18.3959 17.0998 18.3959C17.6327 18.3959 17.8554 18.1715 17.8554 17.6264C17.8554 16.1354 17.8554 14.6524 17.8554 13.1615C17.8554 12.6244 17.6486 12.4079 17.1157 12.4079C15.6203 12.4079 14.1249 12.4079 12.6295 12.4079C12.1125 12.4079 11.9057 12.6164 11.9057 13.1454C11.9057 14.6524 11.9057 16.1594 11.9057 17.6665C11.9057 18.1795 12.1284 18.3959 12.6375 18.3959C13.3851 18.3959 14.1249 18.3959 14.8726 18.3959ZM21.4268 14.1875C21.4268 13.8588 21.4189 13.5302 21.4268 13.2015C21.4268 13.0572 21.4109 12.9851 21.2359 12.9931C20.5678 13.0011 19.8996 13.0011 19.2315 12.9931C19.0803 12.9931 19.0406 13.0412 19.0406 13.1855C19.0485 13.8588 19.0485 14.5322 19.0406 15.2055C19.0406 15.3578 19.0963 15.3979 19.2394 15.3899C19.9076 15.3819 20.5757 15.3819 21.2439 15.3899C21.403 15.3899 21.4268 15.3338 21.4268 15.1895C21.4189 14.8608 21.4268 14.5242 21.4268 14.1875ZM14.8964 19.5983C14.5624 19.5983 14.2283 19.6063 13.8942 19.5983C13.7351 19.5903 13.6874 19.6464 13.6874 19.8067C13.6954 20.4721 13.6954 21.1374 13.6874 21.8027C13.6874 21.939 13.7033 22.0031 13.8624 22.0031C14.5385 21.9951 15.2146 21.9951 15.8987 22.0031C16.0339 22.0031 16.0657 21.9631 16.0657 21.8268C16.0578 21.1454 16.0578 20.4641 16.0657 19.7747C16.0657 19.6384 16.0259 19.5983 15.8907 19.5983C15.5646 19.6063 15.2305 19.5983 14.8964 19.5983ZM19.0485 20.7847C19.0485 21.1294 19.0565 21.4741 19.0485 21.8268C19.0485 21.9631 19.0883 22.0031 19.2235 22.0031C19.8996 21.9951 20.5757 21.9951 21.2598 22.0031C21.3871 22.0031 21.4348 21.9711 21.4348 21.8348C21.4268 21.1534 21.4268 20.4721 21.4348 19.7827C21.4348 19.6544 21.4109 19.5983 21.2677 19.6063C20.5916 19.6144 19.9155 19.6144 19.2315 19.6063C19.0724 19.6063 19.0485 19.6785 19.0565 19.8148C19.0565 20.1274 19.0485 20.456 19.0485 20.7847ZM8.33424 9.37788C8.33424 9.71456 8.34219 10.0512 8.33424 10.3879C8.33424 10.5162 8.35015 10.5963 8.50923 10.5883C9.18534 10.5803 9.86144 10.5803 10.5455 10.5883C10.6807 10.5883 10.7205 10.5482 10.7125 10.412C10.7046 9.73861 10.7046 9.06526 10.7125 8.39191C10.7125 8.24762 10.6807 8.19953 10.5296 8.19953C9.86144 8.20754 9.19329 8.20754 8.52514 8.19953C8.35015 8.19953 8.33424 8.27167 8.33424 8.41596C8.34219 8.7366 8.33424 9.05724 8.33424 9.37788ZM13.6954 9.37788C13.6954 9.71456 13.7033 10.0512 13.6954 10.3879C13.6954 10.5162 13.7113 10.5963 13.8704 10.5883C14.5465 10.5803 15.2226 10.5803 15.9066 10.5883C16.0418 10.5883 16.0816 10.5482 16.0737 10.412C16.0657 9.73861 16.0657 9.06526 16.0737 8.39191C16.0737 8.24762 16.0418 8.19953 15.8907 8.19953C15.2226 8.20754 14.5544 8.20754 13.8863 8.19953C13.7113 8.19953 13.6954 8.27167 13.6954 8.41596C13.7033 8.7366 13.6954 9.05724 13.6954 9.37788ZM20.2496 8.20754C19.9235 8.20754 19.5974 8.21556 19.2712 8.20754C19.1122 8.19953 19.0406 8.23159 19.0406 8.41596C19.0565 9.07328 19.0485 9.72257 19.0406 10.3799C19.0406 10.5322 19.0724 10.5883 19.2394 10.5883C19.9076 10.5803 20.5757 10.5803 21.2439 10.5883C21.403 10.5883 21.4189 10.5242 21.4189 10.3959C21.4109 9.73059 21.4109 9.06526 21.4189 8.39993C21.4189 8.23159 21.3632 8.19953 21.2121 8.20754C20.9019 8.21556 20.5757 8.20754 20.2496 8.20754Z" fill="white"/>
<path d="M5.35325 24.9933C2.3227 24.9773 -0.0158277 22.5564 8.06809e-05 19.4783C0.015989 16.5684 2.47383 14.1636 5.41688 14.1877C8.37584 14.2117 10.7303 16.6646 10.7064 19.6867C10.6905 22.6125 8.26448 25.0093 5.35325 24.9933ZM4.84418 21.3139C4.54987 21.1857 4.53397 21.1616 4.42261 20.6967C4.35102 20.3921 4.12035 20.2398 3.82604 20.2879C3.56356 20.336 3.37265 20.5845 3.41243 20.865C3.51583 21.6105 3.90559 22.1236 4.61351 22.372C4.77259 22.4282 4.85213 22.4843 4.85213 22.6686C4.86009 22.9171 5.10667 23.1095 5.34529 23.1095C5.58392 23.1095 5.84641 22.9171 5.83845 22.6686C5.83845 22.4522 5.94981 22.4201 6.10889 22.364C6.90431 22.0995 7.41338 21.2498 7.23839 20.4722C7.08726 19.8229 6.67364 19.3901 6.04526 19.1817C5.92595 19.1416 5.84641 19.1256 5.84641 18.9733C5.85436 18.6526 5.84641 18.34 5.85436 18.0193C5.85436 17.9712 5.8305 17.8911 5.90209 17.8831C5.94981 17.8751 6.00549 17.9232 6.04526 17.9552C6.2123 18.0915 6.23616 18.2839 6.27593 18.4763C6.34752 18.7889 6.57024 18.9412 6.86454 18.8931C7.13498 18.853 7.32588 18.5805 7.27816 18.2919C7.1668 17.5544 6.77705 17.0334 6.06117 16.8009C5.91004 16.7528 5.84641 16.6967 5.83845 16.5203C5.8305 16.2638 5.60778 16.0795 5.35325 16.0795C5.09871 16.0714 4.85213 16.2478 4.85213 16.4963C4.85213 16.7047 4.75668 16.7528 4.58964 16.8009C3.75446 17.0494 3.2772 17.835 3.43629 18.6847C3.56356 19.3821 3.99308 19.7989 4.65328 19.9993C4.74077 20.0234 4.83622 20.0073 4.83622 20.1516C4.84418 20.5444 4.84418 20.9211 4.84418 21.3139Z" fill="white"/>
<path d="M14.8757 4.6081C11.7735 4.6081 8.66346 4.6081 5.56133 4.6081C4.96476 4.6081 4.75 4.39167 4.75 3.8065C4.75 3.13315 4.75 2.45981 4.75 1.78646C4.75 1.20129 4.95681 1.00089 5.54542 1.00089C7.97144 1.00089 10.3975 1.00089 12.8235 1.00089C16.6097 1.00089 20.3879 1.00089 24.1741 1.00089C24.3571 1.00089 24.548 0.984856 24.715 1.08906C24.8979 1.2093 25.0014 1.37764 25.0014 1.60209C25.0014 2.39568 25.0014 3.19728 25.0014 3.99087C25.0014 4.33556 24.7786 4.57604 24.4446 4.6081C24.3491 4.61612 24.2616 4.61612 24.1662 4.61612C21.064 4.6081 17.9699 4.6081 14.8757 4.6081Z" fill="white"/>
<path d="M16.4822 13.5938C16.005 14.1388 15.5834 14.6358 15.1618 15.1248C15.0982 15.197 15.0505 15.197 14.9789 15.1489C14.8516 15.0607 14.7164 14.9725 14.5812 14.8923C14.2948 14.74 13.9687 14.8202 13.8017 15.0847C13.6426 15.3412 13.6983 15.6939 13.9608 15.8783C14.2392 16.0787 14.5255 16.2711 14.8119 16.4555C15.1459 16.6719 15.4084 16.6398 15.6709 16.3432C15.9493 16.0306 16.2197 15.71 16.4981 15.3974C16.5459 15.3493 16.5697 15.2611 16.689 15.2691C16.689 15.8783 16.689 16.4795 16.689 17.0807C16.689 17.225 16.6015 17.217 16.5061 17.217C15.4402 17.217 14.3664 17.209 13.3006 17.225C13.1097 17.225 13.0938 17.1368 13.0938 16.9845C13.1017 16.0867 13.0938 15.1889 13.0938 14.2911C13.0938 13.6018 13.0938 13.6018 13.7858 13.6018C14.6528 13.5937 15.5277 13.5938 16.4822 13.5938Z" fill="white"/>
<path d="M5.86251 20.2559C6.3159 20.3921 6.37954 20.9933 6.04546 21.2498C6.00569 21.2819 5.95796 21.33 5.90229 21.314C5.8307 21.2899 5.86251 21.2178 5.86251 21.1697C5.86251 20.8651 5.86251 20.5685 5.86251 20.2559Z" fill="white"/>
<path d="M4.84422 18.4126C4.84422 18.5088 4.85218 18.597 4.84422 18.6931C4.83627 18.7653 4.8999 18.8855 4.78854 18.9096C4.709 18.9336 4.64537 18.8455 4.58969 18.7813C4.36697 18.5248 4.4147 18.0839 4.69309 17.9156C4.78059 17.8595 4.85218 17.8435 4.84422 17.9877C4.84422 18.132 4.84422 18.2683 4.84422 18.4126Z" fill="white"/>
</g>
<defs>
<clipPath id="clip0_373_83">
<rect width="25" height="25" fill="white"/>
</clipPath>
</defs>
</svg>
