<svg width="25" height="25" viewBox="0 0 25 25" fill="none" xmlns="http://www.w3.org/2000/svg">
<g clip-path="url(#clip0_373_63)">
<path d="M24.9992 21.0318C24.9915 21.034 24.9782 21.0351 24.9771 21.0394C24.7759 21.7679 24.2664 22.0057 23.5081 22.0003C20.3867 21.9796 17.2642 21.9916 14.1428 21.9916C13.3425 21.9916 12.875 21.5302 12.875 20.7365C12.875 15.1233 12.875 9.51127 12.875 3.89811C12.875 3.09142 13.3425 2.62891 14.1572 2.62891C17.3438 2.62891 20.5315 2.62891 23.7181 2.62891C24.4023 2.62891 24.8389 2.98176 24.9649 3.63537C24.966 3.7396 24.9682 3.84274 24.9682 3.94697C24.9682 9.55795 24.9682 15.17 24.9705 20.781C24.9705 20.8483 24.9318 20.9243 24.9992 20.984C24.9992 20.9992 24.9992 21.0155 24.9992 21.0318ZM18.9155 4.25097C17.6113 4.25097 16.307 4.24988 15.0027 4.25097C14.3992 4.25097 14.0831 4.55931 14.082 5.14886C14.0809 6.31817 14.0809 7.48749 14.082 8.65572C14.0831 9.2583 14.3981 9.57098 15.0138 9.57098C17.6223 9.57207 20.2309 9.57207 22.8394 9.57098C23.4407 9.57098 23.7701 9.24201 23.7712 8.64487C23.7734 7.49183 23.7723 6.3388 23.7712 5.18577C23.7701 4.57017 23.4495 4.25205 22.8284 4.25097C21.5241 4.25097 20.2198 4.25097 18.9155 4.25097ZM15.2282 20.3706C15.2282 20.3717 15.2282 20.3728 15.2282 20.3728C15.4393 20.3728 15.6516 20.3826 15.8627 20.3706C16.1655 20.3543 16.3744 20.1752 16.3998 19.8853C16.4396 19.4478 16.4385 19.007 16.3998 18.5694C16.3766 18.2958 16.1854 18.1015 15.9113 18.0895C15.4648 18.07 15.0171 18.07 14.5706 18.0895C14.2876 18.1015 14.0886 18.311 14.0787 18.5911C14.0643 19.0135 14.0643 19.438 14.0787 19.8603C14.0886 20.1491 14.2986 20.3478 14.5927 20.3674C14.8049 20.3826 15.0171 20.3706 15.2282 20.3706ZM15.2514 11.598C15.0392 11.598 14.827 11.5882 14.6159 11.6002C14.2942 11.6186 14.0864 11.8195 14.0765 12.1376C14.0632 12.5458 14.0632 12.9541 14.0787 13.3623C14.0897 13.6696 14.2942 13.8715 14.607 13.8824C15.0304 13.8965 15.4548 13.8954 15.8781 13.8824C16.1666 13.8726 16.3733 13.6869 16.3998 13.4068C16.4419 12.9682 16.4396 12.5274 16.401 12.0888C16.3755 11.7967 16.1666 11.6186 15.8638 11.6013C15.6593 11.5882 15.4559 11.5969 15.2514 11.598ZM22.5564 20.3739C22.5564 20.375 22.5564 20.3771 22.5564 20.3782C22.7521 20.3782 22.9466 20.3836 23.1423 20.3771C23.5347 20.3641 23.759 20.1524 23.7723 19.7637C23.7845 19.3967 23.7833 19.0287 23.7723 18.6606C23.7635 18.3316 23.5579 18.0993 23.2384 18.0852C22.8085 18.0667 22.3763 18.0667 21.9463 18.0863C21.6313 18.1004 21.429 18.3273 21.4246 18.6389C21.418 19.0308 21.418 19.4217 21.4246 19.8136C21.4301 20.1328 21.6446 20.3522 21.9706 20.3717C22.1652 20.3836 22.3619 20.3739 22.5564 20.3739ZM17.7528 19.2143C17.7516 19.2143 17.7516 19.2143 17.7505 19.2143C17.7505 19.3989 17.7483 19.5824 17.7505 19.767C17.7561 20.1535 17.9594 20.3663 18.3474 20.376C18.7221 20.3858 19.0979 20.3847 19.4726 20.376C19.8473 20.3684 20.0739 20.1654 20.0905 19.8039C20.1082 19.4206 20.106 19.0352 20.0905 18.6508C20.0772 18.323 19.8794 18.1015 19.571 18.0874C19.1322 18.0678 18.6912 18.0689 18.2513 18.0884C17.9606 18.1015 17.7649 18.3262 17.7528 18.6128C17.7461 18.8126 17.7528 19.0135 17.7528 19.2143ZM17.7516 12.7326C17.7505 12.7326 17.7505 12.7326 17.7516 12.7326C17.7505 12.9161 17.7483 13.1007 17.7516 13.2841C17.7583 13.6696 17.9606 13.878 18.3518 13.8878C18.7265 13.8965 19.1012 13.8965 19.4759 13.8878C19.8495 13.8791 20.075 13.6761 20.0916 13.3145C20.1082 12.9313 20.1082 12.5458 20.0916 12.1626C20.0761 11.8108 19.8529 11.6045 19.4958 11.5958C19.0968 11.5861 18.6978 11.585 18.2988 11.5991C17.9661 11.611 17.7638 11.8271 17.7539 12.1561C17.7461 12.3482 17.7516 12.5404 17.7516 12.7326ZM14.0765 15.9691C14.0754 15.9691 14.0743 15.9691 14.0743 15.9691C14.0743 16.1776 14.0643 16.386 14.0765 16.5923C14.0953 16.9115 14.3163 17.1276 14.6413 17.1363C15.0403 17.146 15.4393 17.146 15.8383 17.1363C16.1456 17.1287 16.3722 16.9365 16.3998 16.6423C16.4407 16.2047 16.4385 15.7628 16.401 15.3253C16.3755 15.0387 16.1534 14.8389 15.866 14.8324C15.4504 14.8226 15.0348 14.8226 14.6203 14.8324C14.3219 14.8389 14.0997 15.0528 14.0798 15.3459C14.0654 15.5533 14.0765 15.7617 14.0765 15.9691ZM17.7528 15.9637C17.7516 15.9637 17.7516 15.9637 17.7505 15.9637C17.7505 16.1559 17.7472 16.348 17.7516 16.5391C17.7594 16.9083 17.9849 17.1341 18.3596 17.1395C18.7254 17.1449 19.0924 17.1439 19.4583 17.1395C19.8252 17.1352 20.0695 16.9321 20.0872 16.5782C20.1071 16.1797 20.1071 15.778 20.0861 15.3796C20.0695 15.0528 19.8363 14.8378 19.5224 14.8313C19.1156 14.8226 18.7088 14.8226 18.3021 14.8313C17.9937 14.8378 17.7671 15.0615 17.7539 15.3622C17.745 15.5631 17.7528 15.7628 17.7528 15.9637ZM21.4224 12.7185C21.4224 12.903 21.4202 13.0865 21.4224 13.2711C21.4268 13.6652 21.6335 13.8802 22.037 13.8889C22.4039 13.8976 22.7709 13.8965 23.1367 13.8889C23.5313 13.8813 23.7579 13.6674 23.7712 13.2787C23.7845 12.9106 23.7833 12.5415 23.7712 12.1734C23.7601 11.826 23.538 11.6067 23.1832 11.5969C22.7919 11.5861 22.4006 11.5861 22.0093 11.5958C21.6368 11.6056 21.4268 11.8249 21.4213 12.1886C21.4202 12.3656 21.4224 12.5415 21.4224 12.7185ZM21.4224 15.9745C21.4224 16.158 21.4202 16.3426 21.4224 16.5261C21.4279 16.9039 21.66 17.1341 22.0469 17.1395C22.405 17.1439 22.7631 17.1428 23.1213 17.1395C23.517 17.1352 23.759 16.9115 23.7723 16.5163C23.7845 16.1493 23.7833 15.7802 23.7723 15.4132C23.7612 15.0615 23.5181 14.8356 23.1622 14.8313C22.7797 14.8269 22.3973 14.8259 22.0148 14.8313C21.6567 14.8367 21.4301 15.0669 21.4235 15.423C21.4202 15.6065 21.4235 15.79 21.4224 15.9745Z" fill="white"/>
<path d="M5.45154 21.9546C2.47272 21.9448 0.0233433 19.8276 0.000131691 16.5401C-0.0208693 13.5967 2.47272 11.2092 5.47586 11.2168C8.49337 11.2255 11.0091 13.6477 10.9461 16.5759C10.872 19.9992 8.31541 21.9654 5.45154 21.9546ZM0.723007 16.6465C0.724113 19.1849 2.85847 21.2716 5.45486 21.2749C8.0634 21.2782 10.2552 19.1827 10.2188 16.6519C10.1768 13.7835 8.08219 11.9638 5.46149 11.9518C2.77337 11.9388 0.720797 13.9832 0.723007 16.6465Z" fill="white"/>
<path d="M0.917969 4.77618C1.46068 3.85115 1.99012 2.94675 2.54499 2C3.09765 2.93915 3.63373 3.85006 4.19191 4.79789C3.96643 4.79789 3.78294 4.79789 3.59946 4.79789C3.21481 4.79898 3.13855 4.87172 3.13855 5.24195C3.13855 6.42756 3.13412 7.61207 3.14297 8.79768C3.14407 8.99311 3.10096 9.06585 2.89206 9.04956C2.64889 9.03002 2.40241 9.03545 2.15924 9.04848C1.99786 9.05716 1.95586 9.00505 1.95696 8.84762C1.9636 7.63813 1.96139 6.42864 1.96028 5.21915C1.96028 4.87389 1.88401 4.79898 1.53252 4.79789C1.35346 4.79681 1.1733 4.79681 0.994235 4.79572C0.977656 4.79681 0.963287 4.78812 0.917969 4.77618Z" fill="white"/>
<path d="M6.62109 4.79898C7.17817 3.85115 7.71204 2.94457 8.26691 2C8.81846 2.93915 9.35012 3.84681 9.9083 4.79898C9.66955 4.79898 9.46507 4.79789 9.25948 4.79898C8.93673 4.80115 8.85272 4.88258 8.85272 5.19309C8.85162 6.40041 8.8472 7.60882 8.85714 8.81613C8.85825 9.01156 8.80077 9.06151 8.61287 9.04956C8.37744 9.03436 8.1398 9.03111 7.90547 9.05065C7.70099 9.06802 7.66893 8.98659 7.67004 8.80853C7.67777 7.6251 7.67446 6.44058 7.67335 5.25715C7.67335 4.86521 7.60593 4.79898 7.2058 4.79898C7.02895 4.79789 6.84989 4.79898 6.62109 4.79898Z" fill="white"/>
<path d="M18.9346 4.78125C20.2146 4.78125 21.4934 4.78125 22.7734 4.78125C23.1514 4.78125 23.231 4.85942 23.231 5.22857C23.231 6.35771 23.2321 7.48686 23.231 8.61492C23.231 8.95258 23.1403 9.04378 22.7977 9.04378C20.2135 9.04486 17.6303 9.04486 15.0461 9.04378C14.698 9.04378 14.625 8.9656 14.625 8.61383C14.625 7.47709 14.625 6.34034 14.625 5.20359C14.625 4.84531 14.688 4.78234 15.0472 4.78234C16.3427 4.78125 17.6381 4.78125 18.9346 4.78125Z" fill="white"/>
<path d="M15.2516 19.8452C15.0449 19.8202 14.783 19.9266 14.6592 19.8007C14.5365 19.6758 14.6238 19.4207 14.6249 19.2231C14.626 19.0255 14.5343 18.7693 14.6625 18.6455C14.7896 18.5228 15.0493 18.6107 15.2505 18.6086C15.8783 18.6031 15.8827 18.6064 15.8761 19.2285C15.8739 19.425 15.9668 19.6813 15.8352 19.8029C15.7048 19.9245 15.4462 19.8224 15.2516 19.8452Z" fill="white"/>
<path d="M15.2057 13.3526C15.0432 13.3287 14.7768 13.4427 14.6608 13.3081C14.5624 13.1952 14.6265 12.9433 14.6265 12.7522C14.6265 12.5535 14.5602 12.2886 14.663 12.1746C14.7835 12.0411 15.0609 12.1377 15.2687 12.1323C15.4632 12.1279 15.7219 12.0704 15.8357 12.167C15.9706 12.2821 15.8777 12.5437 15.8777 12.7413C15.8777 12.9389 15.9717 13.2006 15.8346 13.3146C15.7197 13.4112 15.4621 13.345 15.2676 13.3504C15.2588 13.3526 15.2499 13.3526 15.2057 13.3526Z" fill="white"/>
<path d="M22.5811 19.8461C22.3844 19.8124 22.1191 19.9329 22.0031 19.7929C21.9058 19.6756 21.9677 19.427 21.971 19.2359C21.9743 19.0372 21.8837 18.7821 22.0042 18.6561C22.1368 18.5171 22.4043 18.6116 22.6121 18.6094C23.23 18.6029 23.2333 18.6073 23.2278 19.2163C23.2266 19.4139 23.3162 19.6702 23.1924 19.795C23.0575 19.9318 22.7912 19.8157 22.5811 19.8461Z" fill="white"/>
<path d="M19.5549 19.2395C19.5549 19.8399 19.5549 19.841 18.9547 19.8388C18.7436 19.8378 18.4618 19.9094 18.3413 19.8041C18.2009 19.6814 18.2993 19.3991 18.2971 19.1852C18.2904 18.6055 18.2949 18.6055 18.8862 18.6055C18.894 18.6055 18.9028 18.6055 18.9105 18.6055C19.5549 18.6066 19.5549 18.6066 19.5549 19.2395Z" fill="white"/>
<path d="M18.9307 13.34C18.7284 13.34 18.4576 13.4182 18.3426 13.3194C18.2067 13.2043 18.3029 12.9307 18.2984 12.7266C18.294 12.5366 18.2343 12.2836 18.3316 12.174C18.4477 12.0437 18.7129 12.1338 18.9119 12.1349C19.1197 12.136 19.385 12.0426 19.5187 12.1794C19.6403 12.3043 19.5519 12.5594 19.553 12.757C19.5585 13.3531 19.5552 13.3531 18.9307 13.34Z" fill="white"/>
<path d="M15.23 16.6146C15.0366 16.6059 14.7802 16.6689 14.6674 16.5701C14.5337 16.4539 14.6354 16.1955 14.6243 15.999C14.6166 15.8481 14.6299 15.695 14.621 15.5441C14.6133 15.4181 14.6398 15.3562 14.7901 15.3617C15.0985 15.3725 15.408 15.3703 15.7164 15.3627C15.849 15.3595 15.8833 15.4116 15.8811 15.531C15.8755 15.8339 15.8733 16.1379 15.8822 16.4409C15.8866 16.5853 15.8225 16.6167 15.6932 16.6091C15.5395 16.6005 15.3848 16.607 15.23 16.607C15.23 16.6091 15.23 16.6124 15.23 16.6146Z" fill="white"/>
<path d="M18.9061 16.615C18.7126 16.6063 18.4551 16.6693 18.3423 16.5716C18.2097 16.4554 18.3114 16.1959 18.3003 15.9994C18.2926 15.8561 18.3081 15.7117 18.2959 15.5684C18.2838 15.4207 18.3191 15.3534 18.4905 15.3621C18.7823 15.3773 19.0763 15.3708 19.3692 15.3642C19.4963 15.361 19.5648 15.3838 19.5604 15.5314C19.5505 15.8344 19.5538 16.1384 19.5593 16.4424C19.5615 16.564 19.525 16.6172 19.3935 16.6096C19.231 16.6009 19.0685 16.6074 18.9061 16.6074C18.9061 16.6096 18.9061 16.6128 18.9061 16.615Z" fill="white"/>
<path d="M22.5802 13.3361C22.3868 13.3361 22.1292 13.411 22.0154 13.3166C21.8805 13.2048 21.9756 12.9431 21.9734 12.7466C21.9712 12.5501 21.8838 12.2949 22.0076 12.1701C22.1325 12.0441 22.3923 12.1364 22.5934 12.1321C22.7957 12.1277 23.0544 12.0691 23.1837 12.1668C23.3218 12.2721 23.2257 12.5403 23.2268 12.7357C23.2279 12.9322 23.3174 13.1863 23.1903 13.3112C23.0621 13.436 22.8046 13.3372 22.6034 13.3513C22.5957 13.3524 22.5868 13.3513 22.5791 13.3513C22.5802 13.347 22.5802 13.3416 22.5802 13.3361Z" fill="white"/>
<path d="M21.9687 15.9458C21.9897 15.7851 21.8803 15.531 22.0096 15.4051C22.1389 15.2802 22.3964 15.3693 22.5976 15.3682C22.7988 15.3682 23.0552 15.2802 23.1867 15.404C23.3194 15.5289 23.2254 15.7829 23.2276 15.9794C23.2298 16.177 23.3161 16.4333 23.1945 16.5592C23.0607 16.696 22.7944 16.6026 22.5866 16.6026C22.3865 16.6026 22.1212 16.6949 22.0052 16.5603C21.9068 16.4463 21.9742 16.1955 21.9687 16.0044C21.9676 15.9979 21.9687 15.9892 21.9687 15.9458Z" fill="white"/>
<path d="M5.47739 12.4668C7.78971 12.4766 9.72069 14.3354 9.67427 16.5741C9.62122 19.1071 7.78529 20.7096 5.4575 20.7172C3.06339 20.7259 1.25841 18.9171 1.26172 16.5546C1.26504 14.3028 3.16729 12.4571 5.47739 12.4668ZM5.46081 18.9735C5.64319 18.9573 5.74598 18.8617 5.72609 18.6923C5.70177 18.4774 5.78135 18.3829 5.998 18.3894C6.02894 18.3905 6.0621 18.3786 6.09305 18.3699C6.63245 18.2179 6.95078 17.7467 6.90988 17.1593C6.8723 16.6067 6.49428 16.1952 5.93941 16.1279C5.7703 16.1072 5.72388 16.0475 5.73161 15.8879C5.74377 15.6089 5.74156 15.3277 5.73272 15.0476C5.72719 14.9043 5.76698 14.8467 5.92173 14.8532C6.15716 14.8641 6.3937 14.8576 6.63024 14.8554C6.8104 14.8532 6.93972 14.7664 6.93751 14.5862C6.9353 14.4059 6.80488 14.3234 6.62471 14.3234C6.43791 14.3223 6.2489 14.3115 6.06321 14.3256C5.83441 14.344 5.70288 14.3115 5.72609 14.0292C5.74488 13.8044 5.49508 13.6894 5.31712 13.8131C5.19443 13.8978 5.18006 14.0248 5.19112 14.1562C5.20106 14.2702 5.17122 14.3223 5.03969 14.3419C4.39971 14.4385 4.01064 14.875 4.01064 15.4764C4.01175 16.079 4.40966 16.5231 5.0419 16.6099C5.15575 16.6251 5.19333 16.6599 5.19112 16.7717C5.18448 17.092 5.18117 17.4123 5.19222 17.7315C5.19664 17.8694 5.13917 17.8889 5.022 17.8867C4.78547 17.8802 4.55003 17.8835 4.3135 17.8857C4.13554 17.8867 4.00953 17.9573 4.00843 18.1506C4.00732 18.3449 4.14217 18.4144 4.3135 18.4209C4.53345 18.4285 4.75452 18.4339 4.97337 18.4198C5.14027 18.409 5.20659 18.4502 5.18891 18.6261C5.16901 18.8183 5.2508 18.9529 5.46081 18.9735Z" fill="white"/>
<path d="M5.73358 17.2701C5.73358 17.1105 5.74243 16.9509 5.73137 16.7924C5.72143 16.6458 5.79438 16.6382 5.90822 16.6588C6.18676 16.7099 6.39567 16.9889 6.38019 17.2972C6.36582 17.6012 6.14918 17.8358 5.86843 17.877C5.74353 17.8955 5.73137 17.8412 5.73358 17.7478C5.73579 17.5893 5.73358 17.4297 5.73358 17.2701Z" fill="white"/>
<path d="M5.19135 15.4911C5.19135 15.6431 5.1814 15.7962 5.19466 15.946C5.20793 16.0947 5.13719 16.1012 5.02224 16.0784C4.75917 16.0252 4.55469 15.7668 4.55469 15.4813C4.55469 15.1958 4.75696 14.9363 5.02002 14.882C5.13277 14.8581 5.20572 14.8624 5.19466 15.0112C5.1814 15.1708 5.19135 15.3315 5.19135 15.4911Z" fill="white"/>
</g>
<defs>
<clipPath id="clip0_373_63">
<rect width="25" height="25" fill="white"/>
</clipPath>
</defs>
</svg>
