<svg width="25" height="25" viewBox="0 0 25 25" fill="none" xmlns="http://www.w3.org/2000/svg">
<g clip-path="url(#clip0_368_195)">
<path d="M13.953 20.0394C13.9641 20.1921 13.9736 20.3448 13.9847 20.4974C13.7233 20.6548 13.8168 20.9145 13.7962 21.1428C11.8456 21.1554 9.89653 21.1664 7.94591 21.1821C7.51649 21.1853 7.20592 20.9806 6.91435 20.6895C5.12854 18.9061 3.33796 17.129 1.53947 15.3599C1.17977 15.0057 1.00071 14.6075 1.0023 14.1038C1.00864 10.6725 0.986452 7.24112 1.01497 3.80978C1.02765 2.19169 2.19707 1.15914 3.82918 1.17646C4.22691 1.18118 4.40438 1.25358 4.37586 1.69116C4.34417 2.1854 4.34734 2.68908 4.40755 3.18017C4.5264 4.13087 5.27432 4.73057 6.20605 4.6802C7.095 4.63141 7.74784 3.9719 7.81598 3.0511C7.86035 2.45298 7.55294 1.55737 7.92531 1.32127C8.52111 0.941931 9.39739 1.1859 10.1564 1.21896C10.2515 1.59672 10.5652 1.48182 10.8061 1.48339C11.9676 1.49283 13.1275 1.48811 14.289 1.48811C14.3032 1.98235 14.3001 2.47816 14.3365 2.97083C14.4126 4.0144 15.1336 4.70224 16.1097 4.6865C17.081 4.66919 17.7513 3.95301 17.7877 2.88898C17.7956 2.6277 17.7909 2.36641 17.7909 2.1067C17.7909 1.10091 17.7909 1.10091 18.7828 1.19062C20.1281 1.3134 21.0694 2.32391 21.1011 3.67756C20.7984 3.92153 20.9252 4.25994 20.9252 4.55743C20.9157 7.40639 20.9157 10.2569 20.9236 13.1059C20.9252 13.4789 20.922 13.8346 20.594 14.0912C19.9111 14.2344 19.7764 13.9259 19.7922 13.2916C19.8366 11.4862 19.7906 9.68083 19.8176 7.87544C19.8255 7.40009 19.7082 7.25371 19.2107 7.25528C13.8088 7.2726 8.40702 7.27575 3.0052 7.25371C2.44902 7.25214 2.37296 7.45204 2.37771 7.92739C2.39989 10.0208 2.40465 12.1143 2.37454 14.2077C2.36662 14.7287 2.51874 14.8908 3.03373 14.8515C3.61051 14.809 4.19205 14.8357 4.77201 14.842C6.34074 14.8609 7.38656 15.8746 7.43726 17.4376C7.45469 17.9869 7.49114 18.5425 7.42934 19.084C7.35011 19.7765 7.64326 19.8867 8.26917 19.8757C10.112 19.8426 11.9565 19.8804 13.7993 19.8899C13.85 19.9402 13.9008 19.9906 13.953 20.0394ZM6.00322 18.2466C6.36609 16.564 5.49774 15.8714 4.02092 16.2476C4.65792 16.8914 5.34404 17.5824 6.00322 18.2466Z" fill="white"/>
<path d="M19.7712 14.6954C22.6488 14.6828 25.0161 17.028 24.9987 19.8754C24.9829 22.6961 22.6377 25.0051 19.7934 25.002C16.9554 24.9988 14.6071 22.6709 14.6055 19.8597C14.6055 17.0406 16.938 14.708 19.7712 14.6954ZM15.9856 19.8912C15.9967 21.9846 17.7001 23.6515 19.8235 23.6499C21.9246 23.6483 23.6328 21.9405 23.6233 19.8534C23.6138 17.708 21.8993 16.0286 19.7427 16.0537C17.632 16.0773 15.9745 17.771 15.9856 19.8912Z" fill="white"/>
<path d="M17.1192 1.97199C17.1192 2.31197 17.1398 2.65353 17.1144 2.99195C17.0653 3.63572 16.704 4.01033 16.048 4.00246C15.4284 3.99459 15.0719 3.63414 15.0466 3.01871C15.0196 2.34031 15.0228 1.65876 15.045 0.980362C15.0672 0.350758 15.4649 0.0170682 16.0607 0.00605014C16.6628 -0.00339392 17.0495 0.338166 17.1097 0.953604C17.1414 1.29044 17.116 1.63358 17.116 1.97199C17.1176 1.97199 17.1192 1.97199 17.1192 1.97199Z" fill="white"/>
<path d="M5.07349 1.98339C5.07349 1.64341 5.05606 1.30185 5.07666 0.963435C5.11627 0.332257 5.514 0.00801072 6.10663 0.00014067C6.66757 -0.00772938 7.0859 0.314943 7.12868 0.889456C7.18256 1.61665 7.1889 2.35643 7.13027 3.08363C7.08273 3.67703 6.68659 4.02646 6.06543 4.00442C5.48706 3.98396 5.13846 3.65342 5.07983 3.08048C5.04497 2.71846 5.07349 2.35014 5.07349 1.98339Z" fill="white"/>
<path d="M20.5938 14.0914C20.9218 13.8348 20.9249 13.4807 20.9233 13.1061C20.9154 10.2571 20.9154 7.40656 20.9249 4.55761C20.9265 4.26169 20.7982 3.92171 21.1008 3.67773C21.1151 7.06815 21.1293 10.457 21.1468 13.8474C21.1515 14.3794 20.8711 14.2189 20.5938 14.0914Z" fill="white"/>
<path d="M14.2888 1.48814C13.1273 1.48814 11.9674 1.49287 10.8059 1.48342C10.5651 1.48185 10.2513 1.59675 10.1562 1.21899C11.4017 1.20954 12.6472 1.2001 13.8927 1.19223C14.0971 1.18908 14.3395 1.15131 14.2888 1.48814Z" fill="white"/>
<path d="M13.7971 21.1414C13.8177 20.9148 13.7242 20.6551 13.9857 20.4961C13.9508 20.7196 14.4927 21.1084 13.7971 21.1414Z" fill="white"/>
<path d="M13.9522 20.0389C13.8999 19.9901 13.8492 19.9397 13.7969 19.8909C13.9141 19.872 13.9728 19.9161 13.9522 20.0389Z" fill="white"/>
<path d="M21.3144 19.0926C20.9674 19.1162 20.7091 19.1147 20.5269 18.8613C20.4682 18.7794 20.3779 18.6913 20.286 18.6676C19.9279 18.5764 19.5603 18.5213 19.2212 18.7243C19.1515 18.7668 19.0722 18.9274 19.1008 18.9762C19.2877 19.2957 19.6427 19.2422 19.9422 19.3083C20.3256 19.3933 20.717 19.4515 21.0957 19.557C21.6392 19.7096 22.0401 20.0119 22.0782 20.632C22.1178 21.2742 21.7549 21.6441 21.2177 21.9054C20.8739 22.0722 20.3763 21.9668 20.2163 22.5051C20.1925 22.5869 19.546 22.6294 19.5017 22.5397C19.2133 21.9495 18.5715 22.0691 18.1437 21.7858C17.7238 21.5072 17.3007 21.0869 17.6287 20.6635C17.8775 20.344 18.5192 20.3613 18.8884 20.7579C19.2941 21.1939 19.771 21.1672 20.2686 21.068C20.4366 21.035 20.6394 20.9484 20.6188 20.7123C20.6029 20.514 20.416 20.4778 20.2718 20.4479C19.7837 20.3471 19.2877 20.2779 18.8013 20.174C18.1215 20.0307 17.6223 19.6105 17.6334 18.9242C17.6445 18.2946 18.085 17.8381 18.7426 17.6949C19.0088 17.6367 19.2655 17.5847 19.4034 17.3329C19.5619 17.0448 19.9707 17.155 20.0055 17.1944C20.454 17.6981 21.2051 17.6855 21.6503 18.1671C21.8532 18.3875 22.0085 18.6519 21.8769 18.9478C21.7502 19.2359 21.4459 19.0234 21.3144 19.0926Z" fill="white"/>
<path d="M5.41472 10.2394H3.65743C3.54809 10.2394 3.46094 10.1513 3.46094 10.0443V8.29869C3.46094 8.19009 3.54967 8.10352 3.65743 8.10352H5.41472C5.52406 8.10352 5.61121 8.19166 5.61121 8.29869V10.0443C5.61121 10.1513 5.52406 10.2394 5.41472 10.2394Z" fill="white"/>
<path d="M8.75847 10.2394H7.00117C6.89184 10.2394 6.80469 10.1513 6.80469 10.0443V8.29869C6.80469 8.19009 6.89342 8.10352 7.00117 8.10352H8.75847C8.86781 8.10352 8.95496 8.19166 8.95496 8.29869V10.0443C8.95496 10.1513 8.86622 10.2394 8.75847 10.2394Z" fill="white"/>
<path d="M12.1045 10.2394H10.3488C10.2395 10.2394 10.1523 10.1513 10.1523 10.0443V8.29869C10.1523 8.19009 10.2411 8.10352 10.3488 8.10352H12.1061C12.2155 8.10352 12.3026 8.19166 12.3026 8.29869V10.0443C12.3026 10.1513 12.2139 10.2394 12.1045 10.2394Z" fill="white"/>
<path d="M15.4483 10.2394H13.6926C13.5832 10.2394 13.4961 10.1513 13.4961 10.0443V8.29869C13.4961 8.19009 13.5848 8.10352 13.6926 8.10352H15.4499C15.5592 8.10352 15.6464 8.19166 15.6464 8.29869V10.0443C15.6464 10.1513 15.5576 10.2394 15.4483 10.2394Z" fill="white"/>
<path d="M18.7936 10.2394H17.0363C16.927 10.2394 16.8398 10.1513 16.8398 10.0443V8.29869C16.8398 8.19009 16.9286 8.10352 17.0363 8.10352H18.7936C18.903 8.10352 18.9901 8.19166 18.9901 8.29869V10.0443C18.9901 10.1513 18.903 10.2394 18.7936 10.2394Z" fill="white"/>
<path d="M5.41472 13.3879H3.65743C3.54809 13.3879 3.46094 13.2997 3.46094 13.1927V11.4471C3.46094 11.3385 3.54967 11.252 3.65743 11.252H5.41472C5.52406 11.252 5.61121 11.3401 5.61121 11.4471V13.1927C5.61121 13.2997 5.52406 13.3879 5.41472 13.3879Z" fill="white"/>
<path d="M8.75847 13.3879H7.00117C6.89184 13.3879 6.80469 13.2997 6.80469 13.1927V11.4471C6.80469 11.3385 6.89342 11.252 7.00117 11.252H8.75847C8.86781 11.252 8.95496 11.3401 8.95496 11.4471V13.1927C8.95496 13.2997 8.86622 13.3879 8.75847 13.3879Z" fill="white"/>
<path d="M12.1045 13.3879H10.3488C10.2395 13.3879 10.1523 13.2997 10.1523 13.1927V11.4471C10.1523 11.3385 10.2411 11.252 10.3488 11.252H12.1061C12.2155 11.252 12.3026 11.3401 12.3026 11.4471V13.1927C12.3026 13.2997 12.2139 13.3879 12.1045 13.3879Z" fill="white"/>
<path d="M15.4483 13.3879H13.6926C13.5832 13.3879 13.4961 13.2997 13.4961 13.1927V11.4471C13.4961 11.3385 13.5848 11.252 13.6926 11.252H15.4499C15.5592 11.252 15.6464 11.3401 15.6464 11.4471V13.1927C15.6464 13.2997 15.5576 13.3879 15.4483 13.3879Z" fill="white"/>
<path d="M18.7936 13.3879H17.0363C16.927 13.3879 16.8398 13.2997 16.8398 13.1927V11.4471C16.8398 11.3385 16.9286 11.252 17.0363 11.252H18.7936C18.903 11.252 18.9901 11.3401 18.9901 11.4471V13.1927C18.9901 13.2997 18.903 13.3879 18.7936 13.3879Z" fill="white"/>
<path d="M12.1045 16.6926H10.3488C10.2395 16.6926 10.1523 16.6044 10.1523 16.4974V14.7518C10.1523 14.6432 10.2411 14.5566 10.3488 14.5566H12.1061C12.2155 14.5566 12.3026 14.6448 12.3026 14.7518V16.4974C12.3026 16.6044 12.2139 16.6926 12.1045 16.6926Z" fill="white"/>
<path d="M15.4483 16.6926H13.6926C13.5832 16.6926 13.4961 16.6044 13.4961 16.4974V14.7518C13.4961 14.6432 13.5848 14.5566 13.6926 14.5566H15.4499C15.5592 14.5566 15.6464 14.6448 15.6464 14.7518V16.4974C15.6464 16.6044 15.5576 16.6926 15.4483 16.6926Z" fill="white"/>
</g>
<defs>
<clipPath id="clip0_368_195">
<rect width="25" height="25" fill="white"/>
</clipPath>
</defs>
</svg>
