<svg width="25" height="25" viewBox="0 0 25 25" fill="none" xmlns="http://www.w3.org/2000/svg">
<g clip-path="url(#clip0_360_15)">
<path d="M10.7429 15.5719C12.0452 13.4518 13.7786 12.2093 16.2254 11.9416C15.3212 11.756 14.6828 11.1815 13.9973 10.4403C14.1894 11.5414 13.8002 12.2396 13.0257 12.7498C12.6035 13.0276 12.1584 13.2713 11.7489 13.5655C11.2415 13.9304 10.9108 14.4405 10.6666 15.0113C10.2393 16.0139 9.79168 17.0051 9.13927 17.8915C8.36351 18.9472 7.34102 19.6391 6.07564 19.999C5.79967 20.0773 5.6585 20.0167 5.48936 19.8096C4.48849 18.5873 3.47873 17.3726 2.45624 16.1679C2.30236 15.9861 2.32271 15.8611 2.41936 15.6843C3.36046 13.9746 4.28502 12.2586 5.34565 10.6158C5.85435 9.82787 6.63266 9.65488 7.42242 9.4541C8.49323 9.18136 8.50086 9.19525 8.34952 8.11816C8.24651 7.3921 8.13587 6.6673 8.02268 5.94251C7.91712 5.27201 8.01886 5.11922 8.69162 5.02578C13.2292 4.3919 17.7681 3.76686 22.3044 3.12414C23.9971 2.88422 23.8025 2.84129 24.0263 4.42725C24.3366 6.62816 24.6495 8.82906 24.9814 11.0262C25.0603 11.5502 24.9191 11.7964 24.3595 11.8735C20.8457 12.3558 17.337 12.8773 13.8218 13.3445C13.4085 13.3988 13.3259 13.5579 13.2457 13.8887C13.0321 14.7689 11.8748 15.5959 10.7429 15.5719ZM17.7388 11.7762C18.8427 11.631 19.9466 11.4871 21.0492 11.3419C21.4256 11.2926 21.8033 11.2421 22.1798 11.1878C22.3693 11.16 22.4634 11.0704 22.4685 10.8544C22.485 10.1941 22.8309 9.74958 23.4515 9.53366C23.7059 9.44527 23.7427 9.31773 23.702 9.06645C23.5329 8.01083 23.3778 6.95268 23.2442 5.892C23.2124 5.63567 23.1438 5.54728 22.8729 5.52076C22.3693 5.47278 21.8758 5.26443 21.7003 4.78081C21.4892 4.20376 21.128 4.22775 20.6715 4.33508C20.5074 4.37296 20.3383 4.38937 20.1717 4.41336C19.0068 4.57752 17.8418 4.73914 16.5192 4.92476C18.4065 5.40459 19.3374 6.52462 19.518 8.37954C19.6477 9.72559 18.8758 11.1373 17.7388 11.7762ZM13.9668 10.4251C13.0766 8.36944 13.2534 6.58775 15.3034 5.1028C13.743 5.31241 12.367 5.49677 10.9897 5.68113C10.9273 5.68997 10.8638 5.6988 10.8002 5.70259C10.5789 5.71774 10.5484 5.85285 10.5357 6.04605C10.495 6.66478 10.191 7.12567 9.59456 7.33023C9.27662 7.44008 9.25246 7.60928 9.29951 7.89339C9.46357 8.88588 9.60092 9.8809 9.75353 10.8747C9.81076 11.2446 9.74335 11.5199 9.43559 11.8116C8.69925 12.5073 7.77087 12.7725 6.86412 13.1046C6.69498 13.1665 6.42537 13.174 6.50549 13.4215C6.58942 13.6804 6.83741 13.5162 6.99638 13.472C8.27703 13.1109 9.41651 12.5275 10.308 11.5022C10.9083 10.8128 11.6459 10.2938 12.5488 10.0362C13.0982 9.8809 13.5853 9.90742 13.9668 10.4251ZM16.7341 7.26583C17.0877 7.26709 17.3878 7.45523 17.4272 6.97035C17.4654 6.50441 17.1627 6.55997 16.9046 6.56629C16.6706 6.57134 16.6667 6.44254 16.5993 6.27713C16.49 6.01322 15.891 6.02837 15.9113 6.25566C15.9558 6.74812 15.554 6.86429 15.3327 7.13072C15.0961 7.41609 15.0338 7.74061 15.1597 8.07396C15.3441 8.56642 15.7931 8.70153 16.2547 8.82401C16.5714 8.90861 17.0991 8.84422 17.0063 9.36066C16.9249 9.81019 16.4493 9.70033 16.0995 9.7117C16.0576 9.71296 16.0143 9.71043 15.9724 9.70538C15.7435 9.67508 15.4929 9.51093 15.4522 9.96298C15.4179 10.3506 15.6404 10.391 15.8935 10.4087C16.1809 10.4289 16.4124 10.4479 16.4785 10.8077C16.5179 11.0262 16.7469 10.9643 16.9084 10.9378C17.0648 10.9125 17.2187 10.8178 17.1691 10.6461C17.0648 10.2875 17.3293 10.1928 17.5379 10.0236C18.2552 9.44148 18.0924 8.51591 17.22 8.19392C16.9656 8.10048 16.6973 8.04113 16.4353 7.96537C16.2293 7.90602 15.9889 7.83657 16.0296 7.57393C16.0677 7.32896 16.3081 7.29108 16.5269 7.27719C16.6337 7.27214 16.7392 7.26583 16.7341 7.26583Z" fill="white"/>
<path d="M5.5411 20.6693C5.52076 20.8208 5.43428 20.9736 5.27785 21.1024C3.77973 22.3348 4.01501 22.3108 2.88188 20.9408C1.99802 19.8713 1.12687 18.7917 0.227745 17.736C-0.0901919 17.3635 -0.0812897 17.0668 0.292604 16.7789C1.65846 15.7233 1.44353 15.5124 2.60591 16.9367C3.48342 18.0113 4.3711 19.077 5.2575 20.1453C5.37832 20.2918 5.50168 20.4332 5.5411 20.6693Z" fill="white"/>
<path d="M12.679 15.3125C12.3966 16.228 11.5954 16.6762 10.4648 16.627C10.5882 16.0461 10.5869 16.0398 11.1236 16.007C11.6972 15.9729 12.1474 15.661 12.679 15.3125Z" fill="white"/>
<path d="M9.83984 17.4733C10.4668 16.674 11.4524 17.251 12.0641 16.7207C11.7793 17.4505 11.1892 17.6475 9.83984 17.4733Z" fill="white"/>
<path d="M21.5724 7.28838C21.7886 7.30606 21.9704 7.46769 21.9603 7.75937C21.9488 8.08641 21.7301 8.24678 21.4121 8.22152C21.1209 8.19753 20.9416 8.0056 20.9721 7.71644C21.0014 7.43864 21.1845 7.2707 21.5724 7.28838Z" fill="white"/>
<path d="M11.4234 9.60615C11.2008 9.58216 11.0266 9.42558 11.0355 9.12758C11.0457 8.79044 11.2619 8.64649 11.5785 8.673C11.8774 8.69826 12.0389 8.90156 12.0096 9.18188C11.9817 9.45336 11.8036 9.63014 11.4234 9.60615Z" fill="white"/>
</g>
<defs>
<clipPath id="clip0_360_15">
<rect width="25" height="25" fill="white"/>
</clipPath>
</defs>
</svg>
