<svg width="25" height="25" viewBox="0 0 25 25" fill="none" xmlns="http://www.w3.org/2000/svg">
<path d="M19.0677 21.9487C19.0462 21.0795 18.3248 20.3592 17.4632 20.3585C14.1773 20.3559 10.892 20.3585 7.60605 20.3599C7.51279 20.3599 7.41821 20.3566 7.32886 20.3915C7.25842 20.3934 7.19254 20.4106 7.13188 20.4468C7.11297 20.4507 7.09405 20.4547 7.07579 20.4586C7.06536 20.4639 7.05557 20.4692 7.04514 20.4744C6.89838 20.5199 6.76729 20.5943 6.65184 20.6963C6.58662 20.7345 6.52987 20.7826 6.48422 20.8432C6.44835 20.8642 6.41899 20.8919 6.40269 20.9314C6.35116 20.9775 6.30812 21.0308 6.27811 21.094C6.17245 21.2395 6.09353 21.3969 6.06222 21.576C6.02374 21.6682 6.00744 21.765 6.01005 21.8644C5.98004 22.185 6.01005 22.5064 5.99309 22.827C5.98591 22.9613 6.01983 22.9989 6.15875 22.9982C10.4087 22.9942 14.6586 22.9949 18.9086 22.9949C18.932 22.9949 18.9555 22.9923 18.979 22.9956C19.056 23.0068 19.0723 22.9692 19.0716 22.8988C19.0684 22.5821 19.0755 22.2654 19.0677 21.9487Z" fill="white"/>
<path d="M20.041 9.86917C18.0837 9.86062 16.4903 11.4619 16.4844 13.4438C16.4785 15.4204 18.0615 17.0204 20.0312 17.0276C21.9866 17.0349 23.5774 15.4309 23.5826 13.4471C23.5885 11.4823 21.9997 9.87773 20.041 9.86917ZM21.0089 15.1221C20.8817 15.2209 20.75 15.3111 20.5941 15.35C20.4982 15.3737 20.4754 15.4237 20.4695 15.5165C20.4493 15.83 20.2145 16.0084 19.9243 15.9406C19.7397 15.8978 19.6157 15.7509 19.6027 15.5284C19.5962 15.4158 19.5544 15.3677 19.4507 15.3335C19.2505 15.2677 19.062 15.1728 18.897 15.0372C18.7072 14.8818 18.6113 14.7007 18.6094 14.4947C18.6054 14.1411 18.9016 13.9442 19.2238 14.0864C19.4025 14.1654 19.5368 14.3077 19.6895 14.4235C19.8356 14.5348 19.9953 14.5809 20.1754 14.5565C20.3632 14.5315 20.5087 14.4018 20.5491 14.2227C20.5882 14.0515 20.5113 13.8876 20.3417 13.7816C20.1956 13.6907 20.028 13.6637 19.8669 13.6163C19.7279 13.5755 19.5871 13.5426 19.4462 13.5063C19.0594 13.4076 18.7881 13.1765 18.7144 12.7742C18.6354 12.3409 18.7483 11.9597 19.1103 11.6792C19.2257 11.5897 19.3549 11.5232 19.4899 11.4692C19.5466 11.4461 19.5655 11.4158 19.5734 11.3566C19.6053 11.1097 19.7579 10.9582 19.9777 10.9464C20.2138 10.9339 20.386 11.0715 20.4389 11.3289C20.4526 11.3961 20.48 11.4204 20.54 11.4408C20.7076 11.4981 20.8765 11.5567 21.0174 11.6706C21.1283 11.7602 21.2228 11.8622 21.2633 12.0058C21.3187 12.2027 21.26 12.3817 21.1002 12.4917C20.947 12.5971 20.7904 12.5878 20.6221 12.4588C20.4552 12.331 20.3039 12.1796 20.0801 12.152C19.979 12.1394 19.8838 12.1513 19.7932 12.1934C19.6581 12.2566 19.5799 12.3673 19.5825 12.5167C19.5851 12.6589 19.6725 12.7551 19.8029 12.7979C19.9582 12.8492 20.118 12.8841 20.2752 12.9296C20.4141 12.9697 20.5537 13.0092 20.6893 13.0586C21.6905 13.4194 21.6324 14.6369 21.0089 15.1221Z" fill="white"/>
<path d="M4.97132 17.0276C6.9267 17.0309 8.51228 15.4342 8.51619 13.4589C8.5201 11.4803 6.9404 9.87244 4.99154 9.86915C3.00745 9.86585 1.43036 11.454 1.42579 13.4596C1.42123 15.427 3.00875 17.0243 4.97132 17.0276ZM5.272 13.7796C5.05806 13.6564 4.81282 13.6275 4.58063 13.5577C4.51345 13.5379 4.44497 13.5228 4.37713 13.5057C3.99688 13.4062 3.73273 13.1771 3.65446 12.782C3.57033 12.358 3.68316 11.9873 4.01971 11.7022C4.07646 11.6542 4.13907 11.6087 4.20625 11.5771C4.37453 11.4988 4.52519 11.4323 4.5565 11.2005C4.57933 11.03 4.79065 10.9351 4.9798 10.947C5.15459 10.9582 5.32156 11.0774 5.35679 11.2545C5.38287 11.3862 5.4481 11.4382 5.56615 11.4751C5.78269 11.5422 5.98228 11.6456 6.1199 11.8392C6.20795 11.9636 6.24904 12.0979 6.20795 12.252C6.1362 12.5246 5.84596 12.6458 5.6105 12.4937C5.52049 12.4351 5.44158 12.3593 5.35418 12.2961C5.20155 12.1848 5.03524 12.1203 4.84218 12.1598C4.65825 12.1974 4.53367 12.3238 4.52193 12.4858C4.51019 12.6431 4.60933 12.7643 4.80369 12.8229C5.09394 12.9104 5.39527 12.9572 5.67703 13.0777C6.1512 13.2805 6.3984 13.6459 6.39905 14.1522C6.3997 14.704 6.06706 15.1708 5.53745 15.3486C5.45005 15.3782 5.41614 15.4145 5.40962 15.5119C5.39201 15.7898 5.23025 15.9478 4.97914 15.9544C4.74173 15.9609 4.57411 15.8082 4.54345 15.533C4.52976 15.4112 4.47823 15.3591 4.36866 15.3242C4.16255 15.2584 3.9734 15.1557 3.80774 15.0128C3.67207 14.8956 3.57815 14.7534 3.55337 14.571C3.52793 14.3899 3.56967 14.2326 3.71969 14.1187C3.86774 14.0067 4.02493 14.0199 4.18277 14.0963C4.34974 14.1766 4.47953 14.3089 4.62303 14.4209C4.76782 14.5341 4.92762 14.5802 5.10763 14.5578C5.30461 14.5335 5.44418 14.4071 5.48658 14.2148C5.52441 14.0429 5.45005 13.8823 5.272 13.7796Z" fill="white"/>
<path d="M9.94065 13.4899C9.93804 13.2035 9.73324 12.9889 9.46126 12.9882C9.19319 12.9876 8.98904 13.1923 8.98122 13.4728C8.97535 13.6664 8.95969 13.8593 8.93295 14.0509C8.60553 16.3535 6.35012 17.9159 4.10123 17.3977C2.26389 16.9744 0.995305 15.3875 0.962042 13.4722C0.956824 13.1535 0.766373 12.9402 0.485261 12.9375C0.202193 12.9349 -0.000650662 13.1607 1.56837e-06 13.4794C0.000653799 13.7869 0.0300042 14.0931 0.0880527 14.3946C0.548527 16.7683 2.59066 18.4683 5.01826 18.4631C5.16958 18.4716 5.3659 18.4525 5.56092 18.4288C5.72333 18.4091 5.88443 18.3795 6.04422 18.3472C8.25854 17.8955 9.96348 15.7694 9.94065 13.4899Z" fill="white"/>
<path d="M24.5299 12.9636C24.2501 12.959 24.0407 13.1789 24.0388 13.4844C24.0375 13.6924 24.0185 13.8992 23.9853 14.1046C23.5685 16.714 20.7724 18.2494 18.3976 17.1367C16.8805 16.4256 16.0907 15.1858 16.0268 13.4896C16.015 13.1776 15.8174 12.9609 15.5395 12.9629C15.2545 12.9649 15.0543 13.192 15.0628 13.5107C15.0693 13.7609 15.0862 14.0098 15.1273 14.258C15.5291 16.6909 17.5908 18.4641 20.0556 18.4648C20.3263 18.468 20.6282 18.4364 20.9283 18.3831C23.2587 17.9683 24.9969 15.8791 24.9988 13.4896C24.9988 13.1841 24.8058 12.9675 24.5299 12.9636Z" fill="white"/>
<path d="M1.7685 9.29898C1.92308 9.5031 2.13244 9.60054 2.38225 9.61635C2.61249 9.63083 2.82511 9.54787 3.03839 9.48269C4.05522 9.17322 5.0877 8.93355 6.13714 8.77158C7.91121 8.49767 9.69702 8.36994 11.4907 8.33504C11.5963 8.33306 11.6087 8.37059 11.6087 8.46278C11.6067 11.4916 11.6061 14.521 11.6094 17.5498C11.6094 17.6611 11.582 17.6913 11.4704 17.6913C11.0824 17.6907 10.6936 17.6722 10.3062 17.7012C10.0277 17.7085 9.77528 17.7967 9.54309 17.9494C9.52548 17.96 9.50852 17.9699 9.49091 17.9804C9.26328 18.122 9.0774 18.3057 8.9476 18.544C8.91238 18.5868 8.88108 18.6322 8.86868 18.6876C8.84259 18.7422 8.81194 18.7949 8.79042 18.8508C8.67236 19.157 8.67627 19.4783 8.67367 19.7996C8.67236 19.9254 8.70041 19.9636 8.83216 19.9636C11.2004 19.959 13.568 19.9603 15.9363 19.9603C16.081 19.9603 16.278 20.0123 16.3563 19.9386C16.4548 19.8457 16.3889 19.6436 16.3869 19.4902C16.3732 18.4597 15.6004 17.6927 14.579 17.6894C14.2515 17.6887 13.9235 17.6834 13.5961 17.692C13.476 17.6953 13.4519 17.6564 13.4519 17.5425C13.4558 15.9695 13.4545 14.3959 13.4545 12.8229C13.4545 11.377 13.4565 9.93173 13.4513 8.48582C13.4506 8.35545 13.4878 8.32977 13.6071 8.33636C13.8967 8.35282 14.187 8.35545 14.4766 8.36467C15.3186 8.39298 16.1587 8.44631 16.9961 8.53257C17.4514 8.57998 17.9066 8.63133 18.3619 8.68137C18.3867 8.69652 18.4121 8.70903 18.4415 8.69586C18.4591 8.69849 18.4767 8.70113 18.4943 8.70376C18.5543 8.71166 18.615 8.71956 18.675 8.72812C18.6932 8.73076 18.7115 8.73273 18.7304 8.73537L18.7382 8.74261L18.7487 8.73997C18.7558 8.75644 18.7669 8.76565 18.7859 8.76104C18.8048 8.76104 18.8243 8.76104 18.8432 8.7617C18.8706 8.76302 18.898 8.765 18.9254 8.76631C18.9437 8.77026 18.9626 8.77421 18.9809 8.77816C19.0187 8.78277 19.0572 8.78738 19.095 8.79133C19.1576 8.81767 19.2228 8.82689 19.29 8.82623C19.7642 8.92631 20.2416 9.01191 20.7138 9.12318C21.3002 9.26145 21.8683 9.46425 22.4553 9.59725C22.891 9.69602 23.3345 9.43264 23.4728 9.00203C23.615 8.55891 23.418 8.10327 22.9947 7.92484C22.3783 7.66476 21.7424 7.46657 21.0895 7.32171C20.8299 7.2506 20.569 7.18674 20.3016 7.15118H20.2997C20.2821 7.14525 20.2651 7.13933 20.2475 7.13406C19.0507 6.88649 17.8388 6.74625 16.6237 6.63958C15.603 6.55003 14.5796 6.49933 13.555 6.47431C13.4617 6.47168 13.4493 6.43678 13.4513 6.35711C13.4558 6.15893 13.4584 5.96008 13.4506 5.76189C13.446 5.65654 13.48 5.59794 13.568 5.53407C14.2163 5.0679 14.515 4.42725 14.3859 3.63384C14.2098 2.55204 13.2895 1.88637 12.2094 2.01608C11.2337 2.13328 10.4647 3.11566 10.571 4.09804C10.6434 4.76503 10.965 5.26609 11.5291 5.61111C11.5846 5.64469 11.6067 5.67959 11.6061 5.74477C11.6022 5.95284 11.6015 6.16024 11.6067 6.36831C11.6087 6.446 11.5885 6.47168 11.5076 6.47431C10.104 6.51184 8.70367 6.59283 7.30855 6.75283C6.52391 6.84238 5.74124 6.94575 4.96639 7.10575C4.94812 7.11167 4.92986 7.11694 4.9116 7.12287H4.91095C4.48243 7.18674 4.0624 7.28682 3.64627 7.40533C3.08079 7.53966 2.53291 7.72402 2.00069 7.95842C1.93286 7.98805 1.87025 8.02953 1.82329 8.09076C1.67784 8.21652 1.58522 8.37191 1.56435 8.56615C1.5063 8.74656 1.55718 8.9138 1.62631 9.07841C1.65436 9.16335 1.70393 9.23577 1.7685 9.29898ZM18.7278 8.70113C18.7278 8.68993 18.7278 8.6794 18.7291 8.66952C18.7285 8.68006 18.7278 8.69059 18.7278 8.70113ZM18.6561 8.62212C18.6587 8.63989 18.6619 8.65701 18.6658 8.67479C18.6619 8.65701 18.6587 8.63923 18.6561 8.62212Z" fill="white"/>
</svg>
