<svg width="25" height="25" viewBox="0 0 25 25" fill="none" xmlns="http://www.w3.org/2000/svg">
<g clip-path="url(#clip0_360_4)">
<path d="M15.7002 14.4708C15.118 14.5148 14.5978 14.3428 14.1046 14.0569C9.67676 11.4934 5.24632 8.9351 0.818454 6.37159C-0.22332 5.76887 -0.238811 5.11571 0.787472 4.51557C3.115 3.15363 5.45157 1.80721 7.78556 0.453024C8.82088 -0.14711 9.86007 -0.152284 10.8954 0.445264C15.3439 3.01524 19.7924 5.58521 24.2371 8.16294C25.2659 8.7592 25.2556 9.39943 24.219 10.0073C21.9095 11.3602 19.5936 12.7015 17.2842 14.0531C16.7897 14.3428 16.2708 14.5109 15.7002 14.4708ZM21.521 8.05947C21.4797 8.01032 21.4474 7.94565 21.3958 7.9159C18.0252 5.96547 14.6546 4.01762 11.2827 2.06847C11.1329 1.98181 11.0193 1.94172 10.8296 2.05166C9.86395 2.6104 8.87123 2.5923 7.89271 2.08141C7.68874 1.97535 7.55061 2.01286 7.37634 2.11374C6.05185 2.88978 4.72478 3.65935 3.39255 4.43538C4.46015 5.2735 4.46273 5.67575 3.41708 6.40134C3.44548 6.43368 3.46872 6.47636 3.50357 6.49576C6.8703 8.45137 10.2383 10.4031 13.6037 12.3626C13.8155 12.4868 13.973 12.4376 14.1834 12.3484C15.1412 11.9422 16.0991 11.9409 17.0157 12.4738C17.1796 12.5682 17.288 12.6239 17.4675 12.5178C18.8217 11.7211 20.1823 10.9334 21.5597 10.1315C20.3178 9.27655 20.3178 8.77989 21.521 8.05947Z" fill="white"/>
<path d="M0.879984 12.8982C1.22724 12.8504 1.51899 13.0379 1.81719 13.2099C6.27991 15.7941 10.7465 18.3719 15.1989 20.9716C15.603 21.207 15.8779 21.2121 16.2846 20.9716C18.5643 19.6135 20.866 18.2942 23.1587 16.9582C23.5589 16.7241 23.9681 16.5443 24.4354 16.715C24.6291 16.7861 24.8602 16.856 24.8769 17.125C24.8924 17.3578 24.713 17.4626 24.5478 17.5609C23.9397 17.9192 23.3278 18.271 22.7172 18.6254C20.7189 19.7855 18.7128 20.9328 16.7286 22.1162C16.0406 22.5262 15.4287 22.5068 14.7471 22.111C10.0481 19.3807 5.34012 16.6659 0.634709 13.9472C0.616636 13.9368 0.590817 13.9355 0.576617 13.9213C0.354579 13.7234 -0.117899 13.6755 0.033139 13.2461C0.151904 12.9008 0.523689 12.8801 0.879984 12.8982Z" fill="white"/>
<path d="M0.976607 7.72225C1.22446 7.70027 1.54719 7.91626 1.88283 8.10898C6.31457 10.6673 10.7515 13.214 15.1729 15.7891C15.6028 16.0388 15.8906 16.0336 16.3153 15.7814C18.577 14.4337 20.8633 13.1248 23.1392 11.8016C23.4374 11.6283 23.7343 11.4589 24.0996 11.4834C24.4107 11.5041 24.7386 11.5623 24.8522 11.874C24.9813 12.231 24.6276 12.3448 24.3991 12.4781C22.6628 13.4947 20.9201 14.4996 19.1799 15.5098C18.3279 16.0039 17.4759 16.4966 16.6303 17.0036C16.0378 17.3593 15.4543 17.3542 14.8669 17.014C10.0492 14.2267 5.23407 11.4356 0.417638 8.64574C0.217545 8.52933 -0.0716219 8.43103 0.0161608 8.14519C0.12718 7.78175 0.478311 7.74295 0.976607 7.72225Z" fill="white"/>
<path d="M0.874002 15.4676C1.20448 15.4301 1.51559 15.6228 1.83316 15.8065C6.26231 18.3661 10.6966 20.918 15.1193 23.4905C15.5544 23.744 15.8719 23.7828 16.3328 23.5073C18.6113 22.1467 20.9207 20.8352 23.2134 19.4978C23.5387 19.3077 23.864 19.1835 24.2449 19.2301C24.5134 19.2624 24.778 19.3362 24.8671 19.6078C24.9768 19.9402 24.6773 20.0385 24.4579 20.1665C22.404 21.3629 20.3514 22.5593 18.2976 23.757C17.7244 24.0907 17.1525 24.4282 16.5781 24.7593C16.032 25.0736 15.4653 25.084 14.9257 24.7736C10.0667 21.9708 5.21279 19.1603 0.357634 16.3497C0.173032 16.2424 -0.0657889 16.1182 0.0168301 15.8699C0.138177 15.5038 0.480271 15.4689 0.874002 15.4676Z" fill="white"/>
<path d="M0.885431 10.3025C1.23527 10.2689 1.54122 10.4719 1.85879 10.6556C6.30601 13.2308 10.7584 15.7968 15.1966 18.3875C15.6007 18.6229 15.8756 18.6281 16.2823 18.3862C18.584 17.0204 20.9076 15.6921 23.2223 14.3508C23.523 14.1762 23.8251 14.0171 24.1904 14.0702C24.4706 14.1116 24.7778 14.1594 24.8695 14.4634C24.9702 14.7958 24.6513 14.885 24.437 15.0105C23.0506 15.8214 21.6628 16.6298 20.2738 17.4369C19.0887 18.1262 17.8933 18.7975 16.7225 19.5076C16.0396 19.9215 15.4083 19.893 14.7319 19.4998C10.0097 16.7591 5.28102 14.0301 0.557537 11.2907C0.314843 11.1497 -0.0905063 11.0604 0.0295494 10.6737C0.140569 10.318 0.511063 10.2909 0.885431 10.3025Z" fill="white"/>
<path d="M12.366 4.69531C13.7253 4.73023 14.8988 4.9139 15.9263 5.62526C17.2276 6.52676 17.2637 7.83696 16.0206 8.80701C14.2443 10.1922 10.6323 10.1353 8.89986 8.69448C7.84517 7.81756 7.86325 6.60953 8.94504 5.74684C9.78672 5.07428 11.0725 4.69531 12.366 4.69531ZM12.7507 7.74255C13.2864 7.74255 13.8209 7.74513 14.3566 7.74125C14.5748 7.73996 14.8213 7.82532 14.8252 7.42437C14.8291 7.048 14.629 7.07516 14.3824 7.07774C13.7615 7.08421 13.1405 7.06998 12.5196 7.08421C12.2098 7.09068 11.9813 7.08162 11.9994 6.65868C12.0161 6.25126 11.6611 6.40777 11.4752 6.42199C11.2571 6.43751 10.9382 6.23057 10.822 6.59013C10.569 7.36876 10.8479 7.74255 11.6598 7.74255C12.0226 7.74384 12.3866 7.74255 12.7507 7.74255Z" fill="white"/>
<path d="M17.0743 10.5988C16.3966 10.5988 15.8634 10.3 15.8479 9.91327C15.8325 9.51362 16.4392 9.15146 17.0989 9.1644C17.743 9.17733 18.3046 9.52655 18.2955 9.90681C18.2865 10.2935 17.7482 10.5988 17.0743 10.5988Z" fill="white"/>
<path d="M7.83981 5.32589C7.3867 5.26769 6.76576 5.21337 6.77351 4.60418C6.78125 3.99499 7.42413 3.94455 7.90436 3.89928C8.56789 3.8372 9.16042 4.21616 9.15397 4.63522C9.14751 5.05557 8.59242 5.35823 7.83981 5.32589Z" fill="white"/>
</g>
<defs>
<clipPath id="clip0_360_4">
<rect width="25" height="25" fill="white"/>
</clipPath>
</defs>
</svg>
