<svg width="15" height="15" viewBox="0 0 15 15" fill="none" xmlns="http://www.w3.org/2000/svg">
<g clip-path="url(#clip0_3243_546)">
<mask id="mask0_3243_546" style="mask-type:luminance" maskUnits="userSpaceOnUse" x="0" y="0" width="15" height="15">
<path d="M15 0H0V15H15V0Z" fill="white"/>
</mask>
<g mask="url(#mask0_3243_546)">
<path d="M9.79053 6.89453C9.79053 7.01206 9.79053 7.11156 9.79053 7.21106C9.79122 8.40971 9.79122 9.60903 9.79534 10.8077C9.79603 10.9199 9.76304 10.9886 9.65789 11.0474C8.51502 11.6845 7.37489 12.3262 6.2334 12.9666C6.21278 12.9779 6.18941 12.9846 6.15161 13C6.14818 12.9526 6.14337 12.9158 6.14337 12.8791C6.14268 11.6043 6.14337 10.3289 6.14062 9.05411C6.14062 8.96262 6.16949 8.90653 6.25127 8.86045C7.40789 8.21405 8.56244 7.56564 9.71837 6.9179C9.73143 6.90989 9.74792 6.90789 9.79053 6.89453ZM8.6346 8.67748C8.0587 9.01471 7.49447 9.34459 6.93163 9.67647C6.91307 9.68716 6.89246 9.71186 6.89177 9.73056C6.88764 9.83139 6.88971 9.9329 6.88971 10.0544C6.9598 10.0144 7.00516 9.98899 7.05052 9.96228C7.4986 9.69984 7.93843 9.42205 8.39819 9.18098C8.61192 9.0688 8.68478 8.93391 8.64492 8.71822C8.64354 8.71087 8.64078 8.70353 8.6346 8.67748ZM8.50335 9.46412C8.48067 9.45744 8.47585 9.4541 8.4731 9.45544C8.12398 9.65911 7.77419 9.86278 7.42645 10.0685C7.40514 10.0811 7.38108 10.1085 7.38039 10.1299C7.37558 10.2307 7.37833 10.3316 7.37833 10.4511C7.74944 10.2327 8.09855 10.0291 8.44492 9.82071C8.47379 9.80335 8.49854 9.75994 8.50129 9.72722C8.50816 9.63974 8.50335 9.5516 8.50335 9.46412ZM7.74325 10.9005C7.97348 10.7656 8.19202 10.6387 8.40919 10.5092C8.42774 10.4985 8.44767 10.4731 8.44836 10.4544C8.45248 10.3536 8.45042 10.2521 8.45042 10.1292C8.27861 10.2307 8.13979 10.3376 7.98241 10.3997C7.73982 10.4958 7.68965 10.6601 7.74325 10.9005Z" fill="#283942"/>
<path d="M2.00687 6.87891C2.40341 7.10194 2.78207 7.31162 3.15662 7.52932C3.19098 7.54935 3.21366 7.61346 3.21435 7.65686C3.21847 8.11829 3.2171 8.57972 3.2171 9.04049C3.2171 9.07988 3.2171 9.11862 3.2171 9.17204C3.35798 9.12596 3.48787 9.0899 3.61226 9.04115C3.6851 9.01244 3.72221 9.0298 3.76414 9.0899C3.89265 9.27487 4.02666 9.45651 4.17854 9.66752C4.17854 9.13731 4.17854 8.63915 4.17854 8.12029C4.22939 8.13832 4.26444 8.14567 4.29399 8.16236C4.7084 8.39341 5.12143 8.62713 5.53652 8.85618C5.62242 8.90359 5.65472 8.96703 5.65404 9.06119C5.65129 10.3406 5.6506 11.6201 5.64922 12.8995C5.64922 12.9276 5.64579 12.955 5.64304 12.9937C5.61211 12.983 5.58462 12.9783 5.56195 12.9657C4.41289 12.3219 3.26383 11.6775 2.11477 11.0345C2.03986 10.9924 2 10.943 2 10.8535C2.00206 9.554 2.00137 8.25452 2.00206 6.95436C2.00206 6.93567 2.00412 6.9163 2.00687 6.87891Z" fill="#283942"/>
<path d="M4.35938 7.64226C4.47345 7.57682 4.57517 7.51872 4.67688 7.46129C5.74279 6.86297 6.81007 6.26598 7.87459 5.66498C7.96875 5.61223 8.03747 5.61089 8.13162 5.66565C8.55977 5.91339 8.99273 6.15312 9.42431 6.39553C9.45867 6.41489 9.49235 6.43559 9.5432 6.46564C9.30267 6.6012 9.07587 6.72941 8.84909 6.85696C7.90826 7.38583 6.96607 7.91337 6.02662 8.44358C5.94483 8.48966 5.87336 8.50769 5.78608 8.45828C5.33457 8.20118 4.88168 7.9481 4.42879 7.69234C4.40886 7.68166 4.39167 7.66563 4.35938 7.64226Z" fill="#283942"/>
<path d="M2.24219 6.46259C2.58031 6.27428 2.89713 6.09666 3.21532 5.92103C4.06749 5.44958 4.92035 4.98014 5.77046 4.50602C5.85568 4.45861 5.92097 4.45527 6.00756 4.50268C6.36217 4.69701 6.7216 4.88465 7.10233 5.08698C7.04872 5.12037 7.01436 5.14374 6.97794 5.16445C5.83987 5.80284 4.70112 6.43922 3.56512 7.08028C3.47303 7.13237 3.40775 7.12836 3.31909 7.07628C2.99472 6.88596 2.66484 6.705 2.33703 6.52069C2.31298 6.50734 2.28961 6.49198 2.24219 6.46259Z" fill="#283942"/>
<path d="M11.1795 0.918945L11.0218 4.1898H9.87663L9.71892 0.918945H11.1795ZM10.4526 6.05495C10.2149 6.05495 10.0229 5.99095 9.87663 5.86295C9.73492 5.73038 9.66406 5.56352 9.66406 5.36238C9.66406 5.16123 9.73492 4.99438 9.87663 4.8618C10.0229 4.72923 10.2149 4.66295 10.4526 4.66295C10.6858 4.66295 10.8732 4.72923 11.0149 4.8618C11.1612 4.99438 11.2343 5.16123 11.2343 5.36238C11.2343 5.55895 11.1612 5.72352 11.0149 5.85609C10.8732 5.98866 10.6858 6.05495 10.4526 6.05495Z" fill="#283942"/>
</g>
</g>
<defs>
<clipPath id="clip0_3243_546">
<rect width="15" height="15" fill="white"/>
</clipPath>
</defs>
</svg>
