<svg width="15" height="15" viewBox="0 0 15 15" fill="none" xmlns="http://www.w3.org/2000/svg">
<path d="M7.36505 13.4413C6.22853 13.2141 5.2563 12.5725 4.18452 12.1815C4.11162 12.1549 4.01749 12.0492 4.01749 11.9797C4.01206 10.7797 4.01967 9.57956 4.02511 8.37946C4.02511 8.37187 4.03436 8.36427 4.06265 8.31926C4.36133 8.31926 4.68777 8.348 5.00712 8.31384C6.0985 8.19725 7.0582 8.53672 7.95154 9.11861C8.1659 9.25852 8.38461 9.31655 8.63868 9.30462C8.95478 9.28998 9.27304 9.29486 9.58968 9.30733C9.93621 9.32089 10.1642 9.48304 10.2203 9.75744C10.2812 10.0541 10.1022 10.2525 9.86928 10.3626C9.61417 10.483 9.33289 10.5736 9.05379 10.6121C8.76109 10.6528 8.45534 10.5936 8.15991 10.6251C8.05219 10.6365 7.89659 10.7672 7.87211 10.8691C7.83294 11.034 7.96079 11.1707 8.14305 11.1604C8.63814 11.1327 9.1403 11.1268 9.62396 11.0318C10.0962 10.9391 10.4542 10.6349 10.6223 10.1642C10.6919 9.9695 10.8127 9.85724 10.9955 9.771C11.5091 9.52967 12.0156 9.27208 12.5254 9.02262C13.1984 8.69345 13.7043 8.86969 14.0019 9.53619C14.0019 9.64465 14.0019 9.7531 14.0019 9.86158C13.8703 10.27 13.5303 10.4798 13.1984 10.6956C11.5118 11.7938 9.82195 12.886 7.85415 13.4407C7.69149 13.4413 7.52827 13.4413 7.36505 13.4413Z" fill="#283942"/>
<path d="M1 8.18288C1.08977 8.0164 1.22089 7.94752 1.41783 7.95132C1.9978 7.96216 2.57775 7.95349 3.15771 7.95565C3.48795 7.95728 3.5663 8.03049 3.56684 8.34936C3.56902 9.59611 3.56956 10.8423 3.56684 12.0891C3.5663 12.4004 3.47762 12.4871 3.15608 12.4893C2.58537 12.4942 2.01411 12.4855 1.4434 12.4936C1.23993 12.4969 1.09249 12.4307 1 12.2501C1 10.8944 1 9.53862 1 8.18288ZM2.71757 11.7653C2.92214 11.7664 3.1044 11.5966 3.10658 11.4025C3.10875 11.21 2.92377 11.024 2.72519 11.0196C2.52607 11.0153 2.35088 11.1894 2.34816 11.3949C2.34544 11.6134 2.4956 11.7637 2.71757 11.7653Z" fill="#283942"/>
<path d="M6.27533 2C6.49731 2.10792 6.63006 2.27224 6.60721 2.532C6.59361 2.69035 6.68119 2.77929 6.82429 2.77874C6.92058 2.7782 7.04408 2.74403 7.10719 2.67842C7.34059 2.43493 7.57834 2.40293 7.84329 2.60955C7.91457 2.66486 7.98475 2.7218 8.05493 2.77929C8.4374 3.09165 8.46678 3.25055 8.1632 3.63123C8.04895 3.77441 8.08812 3.8872 8.17843 3.98427C8.23393 4.04393 8.35089 4.07917 8.43631 4.07266C8.72303 4.05098 8.91835 4.16974 8.9684 4.44794C9.00485 4.6513 9.02825 4.859 9.03313 5.06508C9.03858 5.30477 8.86775 5.43601 8.59082 5.48264C8.47929 5.50163 8.35688 5.57375 8.28071 5.65836C8.18224 5.7679 8.22413 5.87527 8.35035 5.97397C8.62782 6.18981 8.64686 6.42083 8.43359 6.69468C8.38354 6.75867 8.32696 6.81725 8.27473 6.87961C7.91402 7.31019 7.82534 7.31724 7.35583 7.01139C7.28836 6.96747 7.15289 6.97668 7.07509 7.0141C7.00817 7.0461 6.93962 7.15293 6.9369 7.2294C6.91895 7.72018 6.89664 7.75434 6.41135 7.82484C6.28621 7.84328 6.16 7.85846 6.03377 7.86388C5.71496 7.87744 5.52345 7.74729 5.53053 7.43872C5.53705 7.141 5.36023 7.11226 5.1535 7.05857C5.08658 7.13774 5.02945 7.21963 4.95764 7.28688C4.77647 7.45608 4.57408 7.48319 4.36843 7.33351C4.2297 7.23265 4.09857 7.12039 3.97127 7.00543C3.71121 6.77169 3.69979 6.60304 3.9136 6.33026C3.99902 6.22126 4.10293 6.13883 4.01044 5.95661C3.91849 5.77603 3.79663 5.80478 3.65463 5.81074C3.35704 5.82267 3.1998 5.68221 3.17151 5.39154C3.15846 5.25705 3.13343 5.12364 3.12254 4.98916C3.09099 4.58135 3.19219 4.44306 3.60403 4.40293C3.77868 4.38557 3.88694 4.32918 3.88313 4.16215C3.88096 4.06996 3.82655 3.95662 3.75855 3.89154C3.52188 3.66594 3.49522 3.49783 3.69054 3.23265C3.75474 3.14534 3.82655 3.06399 3.89619 2.98048C4.22154 2.59002 4.3347 2.58135 4.75253 2.87202C4.81999 2.91865 4.95492 2.92733 5.02837 2.89154C5.10181 2.85574 5.1807 2.74403 5.18342 2.66323C5.20029 2.17787 5.29387 2.07918 5.79874 2.05315C5.88525 2.04772 5.97121 2.01789 6.05772 2C6.13007 2 6.20297 2 6.27533 2ZM8.08595 3.22235C7.94013 3.10195 7.80957 3.00542 7.69259 2.8948C7.55059 2.76085 7.42981 2.74946 7.31991 2.92516C7.16921 3.16649 6.98315 3.2641 6.71874 3.08514C6.68283 3.06074 6.63549 3.04447 6.59197 3.04013C6.39068 3.0206 6.31886 2.90944 6.31505 2.71421C6.31287 2.59328 6.2737 2.37364 6.23181 2.36876C6.02235 2.34436 5.80256 2.359 5.59581 2.40347C5.54956 2.41323 5.53107 2.5987 5.5191 2.70554C5.50333 2.84708 5.60071 3.03091 5.37765 3.08677C5.13337 3.14805 4.94023 3.46041 4.62468 3.17841C4.32925 2.91432 4.38148 2.87744 4.09259 3.22668C4.08117 3.24079 4.06974 3.25488 4.05614 3.26681C3.86409 3.44034 3.83363 3.59924 4.08661 3.74892C4.28192 3.86443 4.3298 4.02332 4.20684 4.22614C4.17529 4.2782 4.15842 4.34327 4.14972 4.40456C4.11707 4.62365 3.97562 4.72343 3.77323 4.70228C3.45714 4.6692 3.3973 4.82212 3.4468 5.08515C3.45823 5.14696 3.45768 5.21095 3.46204 5.27386C3.47564 5.45174 3.54908 5.52549 3.74549 5.48915C3.86844 5.46638 4.06159 5.46258 4.12142 5.53417C4.25635 5.69523 4.3706 5.90076 4.4076 6.10358C4.42718 6.21313 4.28627 6.36931 4.18835 6.47831C4.06594 6.61551 4.08008 6.70987 4.22099 6.80857C4.27975 6.85033 4.34177 6.89154 4.3891 6.94468C4.57843 7.15889 4.73403 7.1231 4.87603 6.89371C4.98974 6.70987 5.13935 6.66757 5.33467 6.77874C5.41138 6.82267 5.50115 6.85521 5.58874 6.86714C5.74543 6.88829 5.79004 6.98102 5.81452 7.12147C5.8896 7.55315 5.89395 7.54718 6.34497 7.53091C6.55443 7.52332 6.67739 7.4756 6.61482 7.22668C6.55552 6.99187 6.63006 6.85954 6.87814 6.72939C7.19533 6.56237 7.4173 6.56182 7.64798 6.8243C7.68171 6.8628 7.73449 6.88449 7.80032 6.92841C7.90477 6.81074 7.9989 6.69198 8.10607 6.58623C8.27092 6.42408 8.27691 6.29176 8.07343 6.15347C7.95373 6.07212 7.7606 5.98265 7.87213 5.79935C8.0076 5.57701 7.90042 5.16866 8.37266 5.1833C8.72792 5.19414 8.74262 5.14154 8.6893 4.80097C8.68385 4.76519 8.67025 4.72831 8.67461 4.69414C8.71106 4.41106 8.56307 4.34327 8.31988 4.3948C8.09628 4.44197 8.00433 4.33948 7.88464 4.14913C7.6828 3.82917 7.71762 3.5949 7.98366 3.359C8.01467 3.33188 8.03535 3.29067 8.08595 3.22235Z" fill="#283942"/>
<path d="M12.1572 7.34858C12.4444 7.61972 12.4429 7.65768 12.2149 7.92883C12.0935 8.07362 11.9907 8.10833 11.8318 7.97222C11.7725 7.92124 11.6338 7.90768 11.5615 7.94131C11.4869 7.97602 11.3994 8.09098 11.4032 8.16636C11.4162 8.41636 11.2748 8.44944 11.081 8.45486C10.9032 8.45974 10.7291 8.4912 10.7291 8.21788C10.7291 8.15009 10.6398 8.04706 10.5702 8.02427C10.4897 7.99716 10.3428 8.00584 10.2987 8.05953C10.092 8.30953 9.9647 8.12026 9.80581 8.00584C9.62573 7.87569 9.63661 7.75258 9.78076 7.61051C9.81231 7.57905 9.8352 7.53946 9.85964 7.50746C9.80095 7.30952 9.72744 7.17558 9.4723 7.19564C9.25469 7.213 9.28134 6.99824 9.27372 6.85182C9.26665 6.72384 9.22422 6.58122 9.43803 6.54814C9.77313 6.49662 9.84551 6.29651 9.62464 6.05519C9.43803 5.85128 9.64313 5.75312 9.73074 5.6246C9.81612 5.49879 9.91789 5.42558 10.0615 5.5579C10.1137 5.60617 10.1768 5.64304 10.2313 5.68263C10.4075 5.60779 10.5784 5.57146 10.5375 5.2976C10.5066 5.08989 10.7313 5.10345 10.8798 5.09532C11.0087 5.08827 11.1491 5.04922 11.1866 5.25855C11.2481 5.60454 11.4374 5.66528 11.6948 5.43859C11.9135 5.24554 12.0114 5.48686 12.1496 5.56603C12.285 5.64358 12.3084 5.76235 12.2002 5.88111C12.1099 5.98089 12.0603 6.05573 12.1354 6.20703C12.2111 6.35942 12.3008 6.34098 12.4308 6.35563C12.5108 6.36484 12.6213 6.49825 12.6365 6.58989C12.6593 6.72384 12.7807 6.92069 12.5255 6.99228C12.2579 7.06712 12.2579 7.0682 12.1572 7.34858ZM10.9804 6.11267C10.5893 6.10454 10.3009 6.36972 10.2906 6.74716C10.2802 7.13328 10.5729 7.43859 10.957 7.44293C11.3281 7.44727 11.6279 7.1604 11.6409 6.78838C11.6534 6.42883 11.3515 6.12026 10.9804 6.11267Z" fill="#283942"/>
<path d="M6.04241 6.17794C5.352 6.17631 4.80578 5.62967 4.80469 4.93933C4.80414 4.25332 5.352 3.69909 6.03969 3.69149C6.73716 3.68336 7.30461 4.24138 7.30679 4.93716C7.30896 5.63835 6.75784 6.17903 6.04241 6.17794ZM6.98634 4.96102C6.98906 4.43228 6.58483 4.01904 6.05329 4.00712C5.55004 3.99627 5.12785 4.416 5.12405 4.9312C5.1197 5.46156 5.53155 5.88293 6.05438 5.88347C6.56796 5.88347 6.98417 5.47186 6.98634 4.96102Z" fill="#283942"/>
</svg>
