<svg width="15" height="15" viewBox="0 0 15 15" fill="none" xmlns="http://www.w3.org/2000/svg">
<mask id="mask0_3243_613" style="mask-type:luminance" maskUnits="userSpaceOnUse" x="1" y="1" width="13" height="13">
<path d="M14 1H1V14H14V1Z" fill="white"/>
</mask>
<g mask="url(#mask0_3243_613)">
<path d="M10.8474 1.78027V5.97904L10.7221 5.9164L10.3996 5.75136C10.378 5.73921 10.3649 5.72192 10.3574 5.70989C10.3494 5.69714 10.3434 5.68408 10.3396 5.67265C10.3321 5.65015 10.3277 5.62469 10.3277 5.60241L10.3286 3.32148V2.32194H3.62292V11.1062H10.3269C10.3269 11.1037 10.3269 11.1012 10.3269 11.0986L10.3261 10.2616C10.3256 10.2214 10.3314 10.1786 10.3565 10.1406C10.3815 10.1028 10.4173 10.081 10.4513 10.066L10.7213 9.92981L10.8482 9.86463V11.6429H3.10156V1.78027H10.8474Z" fill="#283942" stroke="#283942" stroke-width="0.2"/>
<path d="M8.48215 6.76299C9.15416 6.08041 10.2371 6.01165 11.0035 6.59541C11.7788 7.18574 12.0486 8.41551 11.3064 9.33676C11.4494 9.47705 11.5922 9.61967 11.7389 9.75827C11.7546 9.77292 11.7953 9.77352 11.8193 9.76503C12.0739 9.67602 12.2982 9.72369 12.4888 9.91401C12.9311 10.356 13.3726 10.7986 13.8125 11.2428C14.0537 11.4861 14.057 11.853 13.8244 12.0891C13.5896 12.3272 13.2148 12.3268 12.9695 12.0832C12.5189 11.636 12.0693 11.1878 11.6238 10.7358C11.4488 10.5582 11.4077 10.3404 11.4918 10.1061C11.5121 10.0496 11.5041 10.019 11.4638 9.97918C11.3287 9.84702 11.197 9.71008 11.0653 9.57628C10.1808 10.2942 8.96265 10.0772 8.35011 9.30121C7.74277 8.53123 7.79918 7.45667 8.48215 6.76299ZM12.2323 10.1543C12.1209 10.0438 11.9739 10.0425 11.8744 10.1433C11.7738 10.2453 11.776 10.3925 11.8845 10.5014C12.3279 10.9461 12.7715 11.3912 13.2183 11.8326C13.2635 11.8774 13.331 11.9006 13.3884 11.9333C13.5075 11.9173 13.5814 11.8614 13.6263 11.7667C13.6752 11.6633 13.6469 11.571 13.5713 11.4933C13.4454 11.3639 13.3171 11.2374 13.1895 11.1098C12.8708 10.7911 12.5528 10.4715 12.2323 10.1543ZM9.82956 6.55141C8.97328 6.55573 8.2751 7.25336 8.27817 8.10193C8.28137 8.96866 8.9806 9.66736 9.8397 9.66261C10.7077 9.65772 11.3981 8.96226 11.3936 8.09685C11.3895 7.23689 10.6908 6.54731 9.82956 6.55141Z" fill="#283942"/>
<path d="M8.48215 6.76299C9.15416 6.08041 10.2371 6.01165 11.0035 6.59541C11.7788 7.18574 12.0486 8.41551 11.3064 9.33676C11.4494 9.47705 11.5922 9.61967 11.7389 9.75827C11.7546 9.77292 11.7953 9.77352 11.8193 9.76503C12.0739 9.67602 12.2982 9.72369 12.4888 9.91401C12.9311 10.356 13.3726 10.7986 13.8125 11.2428C14.0537 11.4861 14.057 11.853 13.8244 12.0891C13.5896 12.3272 13.2148 12.3268 12.9695 12.0832C12.5189 11.636 12.0693 11.1878 11.6238 10.7358C11.4488 10.5582 11.4077 10.3404 11.4918 10.1061C11.5121 10.0496 11.5041 10.019 11.4638 9.97918C11.3287 9.84702 11.197 9.71008 11.0653 9.57628C10.1808 10.2942 8.96265 10.0772 8.35011 9.30121C7.74277 8.53123 7.79918 7.45667 8.48215 6.76299ZM12.2323 10.1543C12.1209 10.0438 11.9739 10.0425 11.8744 10.1433C11.7738 10.2453 11.776 10.3925 11.8845 10.5014C12.3279 10.9461 12.7715 11.3912 13.2183 11.8326C13.2635 11.8774 13.331 11.9006 13.3884 11.9333C13.5075 11.9173 13.5814 11.8614 13.6263 11.7667C13.6752 11.6633 13.6469 11.571 13.5713 11.4933C13.4454 11.3639 13.3171 11.2374 13.1895 11.1098C12.8708 10.7911 12.5528 10.4715 12.2323 10.1543ZM9.82956 6.55141C8.97328 6.55573 8.2751 7.25336 8.27817 8.10193C8.28137 8.96866 8.9806 9.66736 9.8397 9.66261C10.7077 9.65772 11.3981 8.96226 11.3936 8.09685C11.3895 7.23689 10.6908 6.54731 9.82956 6.55141Z" stroke="#283942"/>
<path d="M3.04348 2.42871V2.95429H2.45781C2.45814 5.4605 2.45866 7.95775 2.45866 10.4691H3.04348V10.9972H1.92969V2.42871H3.04348Z" fill="#283942" stroke="#283942" stroke-width="0.2"/>
<path d="M1.87299 3.23633V3.76361H1.44134V9.65508H1.87383V10.19H0.914062V3.23633H1.87299Z" fill="#283942" stroke="#283942" stroke-width="0.2"/>
<path d="M7.52647 7.3125C7.52647 7.42861 7.52647 7.54114 7.52647 7.6619C6.53365 7.6619 5.54015 7.6619 4.53906 7.6619C4.53906 7.54936 4.53906 7.43468 4.53906 7.3125C5.53429 7.3125 6.52779 7.3125 7.52647 7.3125Z" fill="#283942"/>
<path d="M4.53906 9.80293C4.53906 9.6894 4.53906 9.57433 4.53906 9.45215C5.53464 9.45215 6.52849 9.45215 7.5275 9.45215C7.5275 9.56898 7.5275 9.68151 7.5275 9.80293C6.534 9.80293 5.54015 9.80293 4.53906 9.80293Z" fill="#283942"/>
<path d="M7.52716 8.38184C7.52716 8.50402 7.52716 8.61655 7.52716 8.7348C6.53055 8.7348 5.53877 8.7348 4.53906 8.7348C4.53906 8.61941 4.53906 8.50437 4.53906 8.38184C5.53257 8.38184 6.52676 8.38184 7.52716 8.38184Z" fill="#283942"/>
<path d="M4.53906 6.59122C4.53906 6.47154 4.53906 6.35972 4.53906 6.24219C5.53705 6.24219 6.52848 6.24219 7.52681 6.24219C7.52681 6.35794 7.52681 6.47011 7.52681 6.59122C6.53365 6.59122 5.5398 6.59122 4.53906 6.59122Z" fill="#283942"/>
<path d="M7.26562 3.28516C7.38008 3.28516 7.48866 3.28516 7.60414 3.28516C7.60414 3.93822 7.60414 4.5877 7.60414 5.24255C7.49108 5.24255 7.38249 5.24255 7.26562 5.24255C7.26562 4.59413 7.26562 3.94465 7.26562 3.28516Z" fill="#283942"/>
<path d="M8.17969 3.80469C8.29345 3.80469 8.40445 3.80469 8.51751 3.80469C8.51751 4.2859 8.51751 4.7607 8.51751 5.24192C8.401 5.24192 8.2931 5.24192 8.17969 5.24192C8.17969 4.76213 8.17969 4.28662 8.17969 3.80469Z" fill="#283942"/>
<path d="M5.77372 5.2434C5.65789 5.2434 5.5493 5.2434 5.43796 5.2434C5.43451 5.22661 5.43003 5.21446 5.43003 5.20231C5.42968 4.78076 5.42969 4.3592 5.42969 3.92871C5.54517 3.92871 5.65548 3.92871 5.77337 3.92871C5.77372 4.36277 5.77372 4.79862 5.77372 5.2434Z" fill="#283942"/>
<path d="M9.10156 4.27246C9.21325 4.27246 9.32184 4.27246 9.43767 4.27246C9.43767 4.5922 9.43767 4.91195 9.43767 5.2399C9.32874 5.2399 9.21877 5.2399 9.10156 5.2399C9.10156 4.91838 9.10156 4.59899 9.10156 4.27246Z" fill="#283942"/>
<path d="M4.85553 5.24332C4.73901 5.24332 4.63042 5.24332 4.51562 5.24332C4.51562 4.94823 4.51562 4.65778 4.51562 4.3584C4.62629 4.3584 4.73695 4.3584 4.85553 4.3584C4.85553 4.6492 4.85553 4.94215 4.85553 5.24332Z" fill="#283942"/>
<path d="M6.69146 5.24262C6.57425 5.24262 6.46601 5.24262 6.35156 5.24262C6.35156 5.00576 6.35156 4.77354 6.35156 4.53418C6.46463 4.53418 6.57494 4.53418 6.69146 4.53418C6.69146 4.76925 6.69146 5.00147 6.69146 5.24262Z" fill="#283942"/>
<path d="M9.48426 8.65011C9.25916 8.41754 9.02681 8.17711 8.79688 7.93953C8.87547 7.85916 8.9551 7.77805 9.04198 7.68945C9.18021 7.84057 9.32569 7.99956 9.47426 8.16139C9.83176 7.78591 10.1713 7.42902 10.5167 7.06641C10.6087 7.17144 10.6842 7.25718 10.7539 7.33685C10.3395 7.76519 9.91314 8.2064 9.48426 8.65011Z" fill="#283942"/>
</g>
</svg>
