<svg width="15" height="15" viewBox="0 0 15 15" fill="none" xmlns="http://www.w3.org/2000/svg">
<mask id="mask0_3243_589" style="mask-type:luminance" maskUnits="userSpaceOnUse" x="1" y="1" width="13" height="13">
<path d="M14 1H1V14H14V1Z" fill="white"/>
</mask>
<g mask="url(#mask0_3243_589)">
<path d="M8.24344 3.40612C8.63532 3.38819 9.02006 3.36446 9.40539 3.35346C11.1361 3.30312 12.5303 3.90322 13.4612 5.36849C13.709 5.75795 13.8632 6.18792 13.9216 6.64452C13.9585 6.93213 14.0097 7.22322 13.9972 7.51025C13.9841 7.81117 13.9329 8.11847 13.8459 8.40781C13.3706 9.99052 12.2986 10.9842 10.6543 11.3864C10.2767 11.4784 9.88836 11.4807 9.5108 11.3678C9.43576 11.3453 9.37383 11.2828 9.30593 11.2388C9.36012 11.1792 9.40301 11.0965 9.4709 11.0641C9.80559 10.9026 10.1421 10.7429 10.4876 10.6052C10.9538 10.4193 11.4065 10.2145 11.7555 9.85046C12.5041 9.06868 12.7435 8.15492 12.4065 7.13641C12.0747 6.13353 11.3588 5.5149 10.288 5.3031C9.87406 5.22092 9.45541 5.24755 9.03733 5.27069C8.83782 5.28168 8.63771 5.29847 8.43819 5.30541C8.35184 5.30831 8.32146 5.33261 8.32622 5.42173C8.35064 5.8274 8.36731 6.23364 8.38637 6.63931C8.39054 6.72611 8.37625 6.80366 8.28811 6.85343C8.19758 6.90493 8.11718 6.88178 8.03678 6.83491C6.89508 6.16478 5.75159 5.49407 4.6087 4.82394C4.59322 4.81525 4.57892 4.80542 4.56403 4.79558C4.3675 4.66132 4.36393 4.53748 4.55451 4.39165C5.11672 3.96225 5.67894 3.53402 6.24174 3.10578C6.75631 2.714 7.26969 2.32049 7.78842 1.93334C7.84501 1.89109 7.93077 1.86621 8.00283 1.86621C8.10884 1.86679 8.16483 1.95302 8.17138 2.08264C8.19282 2.50915 8.21366 2.93622 8.2351 3.36273C8.2357 3.37256 8.23927 3.3824 8.24344 3.40612Z" fill="#283942"/>
<path d="M7.74898 7.8418C7.74898 7.94365 7.74898 8.02987 7.74898 8.1161C7.74958 9.15487 7.74958 10.1942 7.75315 11.233C7.75375 11.3302 7.72516 11.3898 7.63404 11.4407C6.64361 11.9928 5.65557 12.5489 4.66634 13.1039C4.64847 13.1137 4.62822 13.1195 4.59546 13.1329C4.59249 13.0918 4.58832 13.0599 4.58832 13.0281C4.58772 11.9233 4.58832 10.8181 4.58594 9.71334C4.58594 9.63403 4.61095 9.58542 4.68183 9.54548C5.68416 8.9853 6.68471 8.42339 7.68645 7.86205C7.69776 7.85511 7.71206 7.85338 7.74898 7.8418ZM6.74724 9.38693C6.24816 9.67919 5.7592 9.96502 5.27144 10.2527C5.25535 10.2619 5.23749 10.2833 5.23689 10.2996C5.23332 10.3869 5.23511 10.4749 5.23511 10.5802C5.29585 10.5455 5.33515 10.5235 5.37447 10.5004C5.76278 10.2729 6.14394 10.0322 6.54237 9.82323C6.72759 9.72608 6.79072 9.60914 6.75617 9.42222C6.75499 9.41585 6.7526 9.40949 6.74724 9.38693ZM6.63349 10.0686C6.61383 10.0629 6.60966 10.0599 6.60728 10.0611C6.30474 10.2376 6.00159 10.4141 5.70024 10.5923C5.68178 10.6033 5.66093 10.6271 5.66034 10.6456C5.65617 10.733 5.65855 10.8203 5.65855 10.924C5.98015 10.7347 6.28271 10.5582 6.58287 10.3776C6.60788 10.3626 6.62932 10.325 6.6317 10.2966C6.63766 10.2209 6.63349 10.1444 6.63349 10.0686ZM5.9748 11.3134C6.17431 11.1966 6.3637 11.0866 6.5519 10.9743C6.56798 10.9651 6.58525 10.9431 6.58585 10.9268C6.58942 10.8395 6.58763 10.7515 6.58763 10.645C6.43874 10.733 6.31844 10.8255 6.18205 10.8794C5.97182 10.9627 5.92834 11.1051 5.9748 11.3134Z" fill="#283942"/>
<path d="M1.00596 7.82812C1.3496 8.02141 1.67775 8.20311 2.00233 8.39177C2.03211 8.40914 2.05177 8.46469 2.05237 8.5023C2.05594 8.90218 2.05474 9.30207 2.05474 9.70133C2.05474 9.73548 2.05474 9.7691 2.05474 9.81538C2.17684 9.77543 2.2894 9.74423 2.3972 9.70194C2.46032 9.67706 2.49249 9.69214 2.52882 9.74423C2.64018 9.90448 2.75633 10.0619 2.88795 10.2447C2.88795 9.78531 2.88795 9.35357 2.88795 8.90392C2.93202 8.91954 2.96238 8.92591 2.98799 8.94038C3.34712 9.14061 3.70506 9.34315 4.06478 9.54165C4.13922 9.58273 4.16722 9.63771 4.16662 9.71927C4.16423 10.8281 4.16365 11.9369 4.16245 13.0456C4.16245 13.07 4.15948 13.0937 4.15709 13.1273C4.13029 13.118 4.10647 13.1139 4.08682 13.1029C3.09103 12.5451 2.09524 11.9866 1.09946 11.4294C1.03454 11.3929 1 11.3501 1 11.2725C1.00179 10.1464 1.00119 9.02024 1.00179 7.89351C1.00179 7.87731 1.00357 7.86053 1.00596 7.82812Z" fill="#283942"/>
<path d="M3.04688 8.48938C3.14574 8.43268 3.23388 8.38232 3.32202 8.33256C4.24575 7.81404 5.17066 7.29669 6.09319 6.77586C6.17479 6.73015 6.23435 6.72898 6.31593 6.77644C6.68697 6.99114 7.06218 7.19889 7.4362 7.40896C7.46597 7.42574 7.49515 7.44368 7.53922 7.46972C7.33077 7.5872 7.13424 7.69831 6.93771 7.80884C6.12237 8.26717 5.30586 8.72434 4.49172 9.18383C4.42084 9.22375 4.3589 9.23938 4.28327 9.19656C3.89198 8.97375 3.49951 8.75443 3.10703 8.53279C3.08976 8.52353 3.07487 8.50964 3.04688 8.48938Z" fill="#283942"/>
<path d="M1.21875 7.46714C1.51177 7.30395 1.78632 7.15002 2.06207 6.99782C2.80057 6.58926 3.53967 6.18244 4.27638 5.77156C4.35023 5.73047 4.40681 5.72758 4.48185 5.76867C4.78916 5.93707 5.10064 6.09968 5.43059 6.27502C5.38414 6.30396 5.35436 6.32422 5.32279 6.34216C4.33654 6.89539 3.34968 7.44689 2.36522 8.00244C2.28541 8.04757 2.22883 8.04411 2.152 7.99897C1.87089 7.83404 1.58502 7.67721 1.30094 7.51749C1.28009 7.50592 1.25984 7.4926 1.21875 7.46714Z" fill="#283942"/>
</g>
</svg>
