<svg width="15" height="15" viewBox="0 0 15 15" fill="none" xmlns="http://www.w3.org/2000/svg">
<g clip-path="url(#clip0_3243_634)">
<mask id="mask0_3243_634" style="mask-type:luminance" maskUnits="userSpaceOnUse" x="0" y="0" width="15" height="15">
<path d="M15 0H0V15H15V0Z" fill="white"/>
</mask>
<g mask="url(#mask0_3243_634)">
<path d="M3.35228 1.29501C3.7053 2.43071 4.35597 3.29162 5.63308 3.69033C5.20161 2.65623 4.79975 1.69333 4.34905 0.61382C5.08509 0.427167 5.78652 0.189328 6.50756 0.0800303C7.67392 -0.0970018 7.68123 -0.0623652 8.05848 1.0514C8.35536 1.92732 8.64647 2.80517 8.95411 3.7242C9.16177 3.65993 9.34021 3.60489 9.56517 3.53562C9.17485 2.37221 8.79721 1.2469 8.41765 0.115052C11.1299 -0.0581317 14.3394 3.00722 14.8963 6.27577C15.53 9.99767 13.2038 13.6738 9.55825 14.711C5.86343 15.762 1.97518 13.8654 0.54502 10.294C-0.931292 6.60597 0.787675 2.85905 3.35228 1.29501ZM3.3542 2.15746C1.27414 3.56525 -0.0844988 6.8719 1.17608 10.0227C2.45588 13.222 5.8792 14.9469 9.22907 14.0825C12.5386 13.2285 14.6528 10.0658 14.2441 6.57941C13.9357 3.94779 11.3037 1.00522 9.21715 0.991745C9.52248 1.9127 9.82513 2.8248 10.132 3.75075C9.75937 3.88622 9.43365 4.00475 9.09909 4.12675C9.14716 4.27992 9.18331 4.39961 9.22215 4.51815C9.39481 5.04501 9.36366 5.10889 8.82721 5.25244C8.20346 5.41947 7.57548 5.56995 6.95442 5.74621C6.67138 5.82664 6.50026 5.75891 6.39181 5.48066C6.23876 5.08811 6.08686 4.69248 5.89189 4.32072C5.80613 4.15715 5.63347 4.02092 5.47042 3.92009C5.05586 3.66262 4.58478 3.48135 4.21176 3.17655C3.87412 2.90061 3.63685 2.50267 3.3542 2.15746ZM8.44227 4.29878C8.4465 3.98743 8.20653 3.74113 7.89504 3.73651C7.59278 3.73228 7.33051 3.98628 7.32859 4.28531C7.32667 4.57626 7.59586 4.85451 7.88274 4.85836C8.17615 4.8622 8.43842 4.60012 8.44227 4.29878Z" fill="#283942"/>
<path d="M8.82959 5.44336C8.82959 5.76086 8.82959 6.03796 8.82959 6.31428C8.32659 6.55327 8.15585 6.98546 8.49772 7.44844C9.04879 8.19467 9.07917 8.93281 8.73961 9.76371C8.52349 10.2929 8.40581 10.8621 8.23315 11.4101C8.17239 11.6025 8.07932 11.7846 7.95588 12.079C7.8309 11.808 7.73745 11.6541 7.68631 11.4875C7.42019 10.6162 7.14793 9.74601 6.91796 8.86508C6.86489 8.66188 6.92835 8.40287 7.00872 8.19698C7.11447 7.92527 7.29483 7.68358 7.43327 7.42381C7.66862 6.98123 7.57517 6.6668 7.16408 6.38663C7.09332 6.33853 7.04564 6.19805 7.05487 6.10723C7.06333 6.02372 7.14908 5.90133 7.22522 5.87901C7.7463 5.72392 8.27429 5.59076 8.82959 5.44336Z" fill="#283942"/>
<path d="M10.5531 10.2317C10.4912 10.3806 10.4493 10.4818 10.3793 10.6504C10.7243 10.7697 11.0465 10.8809 11.4042 11.0045C11.3849 11.153 11.3626 11.3258 11.3253 11.6145C10.9173 11.4694 10.5466 11.3685 10.2055 11.2054C9.9563 11.0861 9.80863 11.1457 9.61058 11.3035C9.40523 11.4671 9.46253 11.6068 9.51214 11.8107C9.58943 12.1298 9.60251 12.4642 9.6425 12.7921C9.58982 12.8171 9.53752 12.8425 9.48483 12.8675C9.41215 12.7675 9.27525 12.6655 9.27794 12.5673C9.29179 12.0189 9.09374 11.5887 8.67534 11.2365C8.58497 11.1603 8.5719 10.9918 8.52344 10.8659C8.56651 10.8394 8.6092 10.8132 8.65227 10.7866C8.87377 10.9679 9.09528 11.1492 9.34832 11.3562C9.41715 11.2431 9.49329 11.1176 9.59789 10.9452C9.29332 10.7847 9.00337 10.6323 8.69303 10.4688C8.75379 10.2725 8.81071 10.0889 8.87531 9.8807C9.2118 10.0435 9.52444 10.1947 9.83747 10.346C9.97091 10.0393 9.97091 10.0393 9.60866 9.91764C9.39677 9.84644 9.18488 9.77448 8.92646 9.68711C8.99914 9.44273 9.06797 9.2099 9.14373 8.95474C9.46676 9.06135 9.7571 9.15717 10.0486 9.25377C10.097 9.01285 9.76287 8.3944 9.50906 8.38324C9.10182 8.36592 9.02067 8.07112 8.86993 7.81712C8.76456 7.6397 8.67073 7.45536 8.5246 7.1875C9.08105 7.3095 9.54559 7.40109 10.0032 7.52001C10.094 7.54349 10.169 7.66318 10.2313 7.75208C10.3682 7.94758 10.4851 8.15694 10.6227 8.35245C10.8673 8.69997 11.143 9.0371 10.7746 9.51124C11.3645 9.72637 11.8991 9.9211 12.4498 10.1216C12.3648 10.3468 12.2917 10.5403 12.2083 10.7609C11.6526 10.5838 11.1234 10.4145 10.5531 10.2317Z" fill="#283942"/>
<path d="M5.83645 9.25549C6.13141 9.15659 6.41752 9.06076 6.75708 8.94684C6.82168 9.16428 6.88283 9.37095 6.95551 9.61649C6.60633 9.72732 6.27869 9.83123 5.90875 9.94823C5.96759 10.1464 6.01912 10.32 6.0568 10.4482C6.35022 10.2007 6.62595 9.96824 6.94359 9.70038C7.10587 10.0825 7.28161 10.3131 6.8836 10.5971C6.68555 10.7387 6.67594 11.1336 6.55749 11.4037C6.51096 11.5103 6.37714 11.5773 6.32368 11.6828C6.17832 11.9695 6.05488 12.2673 5.90029 12.6106C5.70339 12.5348 5.51881 12.4632 5.30769 12.382C5.4892 11.9783 5.66148 11.6131 5.81607 11.2406C5.85299 11.1513 5.87529 11.0104 5.83068 10.9411C5.65956 10.676 5.45805 10.4301 5.24462 10.1457C4.44244 10.4408 4.67932 11.2814 4.41898 11.8633C4.04673 11.8394 3.83791 11.7001 3.93982 11.2814C3.98251 11.1066 3.96212 10.9173 3.98135 10.7356C4.04903 10.0879 4.39975 9.67922 5.07657 9.53913C4.68394 8.66051 5.37191 8.1452 5.78954 7.66759C6.0868 7.32777 6.76977 7.32623 7.28084 7.17383C7.29853 7.20846 7.31661 7.2431 7.3343 7.27774C7.16356 7.58139 7.00473 7.89273 6.81476 8.18368C6.75939 8.26835 6.62056 8.31568 6.51058 8.34455C6.20601 8.4246 5.82222 8.90836 5.83645 9.25549Z" fill="#283942"/>
<path d="M5.06273 8.39288C4.9812 8.52219 4.92313 8.61417 4.83968 8.74617C4.53896 8.61571 4.24093 8.4864 3.91406 8.34439C3.98097 8.19314 4.03442 8.07191 4.10249 7.91797C4.42206 8.07614 4.71816 8.22277 5.06273 8.39288Z" fill="#283942"/>
<path d="M4.76562 11.4508C4.97559 11.1814 5.15596 10.9497 5.354 10.6953C5.45552 10.8054 5.54628 10.9039 5.64742 11.0132C5.47514 11.2572 5.31555 11.4831 5.13211 11.7429C4.99598 11.6344 4.88522 11.5458 4.76562 11.4508Z" fill="#283942"/>
<path d="M10.7969 8.30702C11.1922 8.37899 11.5421 7.90485 11.8233 8.49829C11.4733 8.47212 11.1403 8.91316 10.7969 8.30702Z" fill="#283942"/>
<path d="M10.5564 7.85715C10.2065 7.60469 10.3749 7.39764 10.5464 7.23562C10.6429 7.14441 10.8141 7.13209 10.9517 7.08398C10.9698 7.1217 10.9883 7.15941 11.0064 7.19713C10.8606 7.41149 10.7145 7.62547 10.5564 7.85715Z" fill="#283942"/>
</g>
</g>
<defs>
<clipPath id="clip0_3243_634">
<rect width="15" height="15" fill="white"/>
</clipPath>
</defs>
</svg>
