<svg width="15" height="15" viewBox="0 0 15 15" fill="none" xmlns="http://www.w3.org/2000/svg">
<g clip-path="url(#clip0_3237_1029)">
<path d="M10.0233 7.92304C10.0233 9.50334 10.0233 11.0836 10.0233 12.6639C10.0233 13.589 9.61258 14.0001 8.68191 14.0001C6.21322 14.0001 3.74017 14.0044 1.27148 13.9958C0.432566 13.9958 0 13.5676 0 12.7453C0 9.52047 0 6.29135 0.00436936 3.06651C0.00436936 2.32133 0.380134 1.86737 1.05738 1.80313C1.46373 1.76458 1.85261 1.67465 1.87445 2.34274C1.8963 2.93803 2.52986 3.38771 3.20711 3.40056C4.41742 3.42197 5.62773 3.42625 6.83804 3.40056C7.58957 3.38343 8.13574 2.86094 8.18817 2.12433C8.21002 1.82026 8.31925 1.786 8.57705 1.786C9.59074 1.78171 10.0233 2.18428 10.0233 3.18214C10.0233 4.76244 10.0233 6.34274 10.0233 7.92304ZM6.51471 11.0965C7.01719 11.0965 7.52403 11.0965 8.02651 11.0965C8.1707 11.0965 8.31925 11.0665 8.33236 10.9081C8.34984 10.7153 8.19254 10.6725 8.02651 10.6725C7.03466 10.6725 6.04719 10.6725 5.05534 10.6725C4.88931 10.6725 4.72327 10.7068 4.7189 10.8866C4.7189 11.0751 4.89368 11.0965 5.05098 11.0965C5.54034 11.0965 6.02971 11.0965 6.51471 11.0965ZM6.54966 4.75388C7.03466 4.75388 7.52403 4.75388 8.00903 4.75388C8.16633 4.75388 8.33673 4.74531 8.33236 4.54403C8.32799 4.38557 8.18817 4.34702 8.03961 4.34702C7.03466 4.34702 6.02971 4.34702 5.02039 4.34702C4.87183 4.34702 4.73201 4.38557 4.72327 4.53974C4.71454 4.74103 4.88057 4.75388 5.04224 4.75388C5.54471 4.75388 6.04719 4.75388 6.54966 4.75388ZM6.47539 7.92304C6.97786 7.92304 7.48034 7.92304 7.98718 7.92304C8.14448 7.92304 8.32799 7.92304 8.33673 7.73032C8.34547 7.55045 8.1838 7.50334 8.0134 7.50762C7.02156 7.51191 6.03408 7.51191 5.04224 7.50762C4.8762 7.50762 4.71017 7.54617 4.7189 7.73032C4.72764 7.92304 4.91116 7.92304 5.06845 7.92304C5.53597 7.91876 6.00786 7.92304 6.47539 7.92304ZM2.52986 8.93375C2.59103 8.89092 2.67842 8.84381 2.74832 8.77957C2.94058 8.5997 3.15031 8.42411 3.31197 8.21854C3.45616 8.03439 3.9062 7.88021 3.65715 7.62754C3.36003 7.32775 3.18963 7.786 3.02796 7.94874C2.69589 8.29135 2.41625 8.55259 2.04923 8.00013C1.9968 7.92304 1.88756 7.86737 1.78707 7.95302C1.739 7.99156 1.69094 8.05152 1.6822 8.11148C1.65599 8.23139 2.36819 8.92946 2.52986 8.93375ZM2.48179 5.75173C2.61287 5.75173 2.68715 5.6618 2.77017 5.58043C2.97116 5.38343 3.194 5.19927 3.36877 4.98514C3.49985 4.81812 3.91494 4.68964 3.6353 4.42411C3.39062 4.18856 3.24643 4.55687 3.10224 4.69392C2.76143 5.0194 2.46432 5.4648 2.01864 4.81383C1.97495 4.74959 1.88319 4.71533 1.79581 4.77529C1.72153 4.8224 1.67346 4.88664 1.67346 4.97657C1.67783 5.08364 2.36819 5.74317 2.48179 5.75173ZM1.86135 11.0836C1.69968 11.1522 1.59482 11.2549 1.73463 11.4177C1.93126 11.6404 2.15409 11.8417 2.36819 12.0472C2.47742 12.1543 2.59103 12.0943 2.67842 12.0087C3.00175 11.7003 3.32071 11.3877 3.6353 11.0708C3.72269 10.9851 3.77949 10.8824 3.67026 10.771C3.54355 10.6468 3.42994 10.6982 3.32508 10.801C3.15031 10.9723 2.95368 11.135 2.79639 11.3278C2.5954 11.5719 2.42499 11.6061 2.21526 11.3363C2.13225 11.225 2.03175 11.1008 1.86135 11.0836ZM5.81561 8.92946C5.81561 8.93375 5.81561 8.93375 5.81561 8.92946C6.09962 8.92946 6.38363 8.93375 6.66764 8.92946C6.82493 8.92946 6.99097 8.90805 6.9866 8.70677C6.9866 8.53974 6.83804 8.50548 6.69822 8.50548C6.13021 8.50548 5.56219 8.50548 4.99417 8.50548C4.84562 8.50548 4.71454 8.56972 4.7189 8.7239C4.72764 8.87807 4.86309 8.92518 5.01165 8.92518C5.27818 8.92946 5.54908 8.92946 5.81561 8.92946ZM5.85057 5.76887C5.85057 5.76458 5.85057 5.76458 5.85057 5.76887C6.15205 5.76458 6.45354 5.76886 6.75502 5.76458C6.88174 5.7603 6.99097 5.70462 6.99534 5.5633C6.99534 5.43054 6.89921 5.34916 6.76813 5.34916C6.16516 5.34488 5.56656 5.34488 4.96359 5.34916C4.83251 5.34916 4.72327 5.43054 4.72327 5.55473C4.72327 5.71319 4.84999 5.76887 5.00291 5.76887C5.28255 5.76887 5.56656 5.76887 5.85057 5.76887ZM5.83746 12.1072C6.12147 12.1072 6.40548 12.1072 6.68948 12.1072C6.83367 12.1072 6.97349 12.0772 6.9866 11.9102C6.99971 11.7046 6.83367 11.6832 6.67638 11.6832C6.12584 11.6789 5.5753 11.6832 5.02476 11.6789C4.8762 11.6789 4.73201 11.7175 4.72764 11.8759C4.7189 12.0644 4.87183 12.1072 5.03787 12.1072C5.3044 12.1072 5.57093 12.1072 5.83746 12.1072Z" fill="#283942"/>
<path d="M10.4953 10.3637C10.4953 10.2652 10.504 10.1667 10.4953 10.0682C10.4516 9.717 10.5259 9.56711 10.9628 9.56283C11.8629 9.55855 12.5576 8.79195 12.5664 7.91401C12.5751 7.01465 11.876 6.25233 10.9453 6.23092C10.5433 6.22236 10.456 6.10244 10.4953 5.75555C10.5171 5.57568 10.5084 5.39152 10.4997 5.21165C10.4778 4.88617 10.456 4.62493 10.9584 4.67632C11.2599 4.7063 11.5265 4.47503 11.6226 4.15812C11.7274 3.81979 11.9284 3.75983 12.2343 3.89259C12.4003 3.9654 12.5751 4.03392 12.7455 4.09816C13.047 4.21379 13.1693 4.38081 12.9946 4.7063C12.8242 5.0275 12.8853 5.35726 13.1475 5.6185C13.4228 5.89259 13.7636 5.9654 14.1175 5.78553C14.4233 5.62707 14.5894 5.72557 14.7073 5.99966C14.786 6.17953 14.869 6.3594 14.9433 6.54356C15.0438 6.8048 15.0438 7.01037 14.6986 7.11315C14.3272 7.2245 14.1219 7.50287 14.1262 7.89687C14.1262 8.2866 14.3403 8.55212 14.7117 8.67204C15.0088 8.76625 15.0656 8.94184 14.9608 9.20308C14.8821 9.40009 14.8035 9.60137 14.7161 9.79837C14.6068 10.0425 14.4496 10.1581 14.1612 10.0211C13.816 9.85405 13.4708 9.87546 13.1824 10.1496C12.881 10.4365 12.8416 10.7748 13.0339 11.1431C13.1606 11.3915 13.0732 11.55 12.8285 11.6528C12.6275 11.7384 12.4309 11.8284 12.2256 11.9054C11.9547 12.0082 11.7406 11.9911 11.6444 11.657C11.5439 11.323 11.2774 11.0746 10.9453 11.1174C10.4472 11.1774 10.4865 10.9119 10.5084 10.6078C10.4997 10.5264 10.4953 10.4451 10.4953 10.3637Z" fill="#283942"/>
<path d="M5.00865 2.94224C4.44064 2.94224 3.86825 2.95081 3.30024 2.93796C2.6929 2.9294 2.27781 2.54396 2.27344 2.01719C2.27344 1.49042 2.68853 1.09642 3.29587 1.09214C3.61483 1.09214 3.8333 1.08357 3.9469 0.689567C4.08672 0.222758 4.51055 -0.00422318 5.00429 5.94745e-05C5.51987 0.00434213 5.93059 0.244171 6.09225 0.728111C6.18838 1.01933 6.31946 1.09214 6.61221 1.09214C7.30694 1.08357 7.73076 1.4476 7.73513 2.01291C7.7395 2.57822 7.30694 2.93796 6.62095 2.94224C6.08352 2.94653 5.54609 2.94224 5.00865 2.94224Z" fill="#283942"/>
</g>
<defs>
<clipPath id="clip0_3237_1029">
<rect width="15" height="15" fill="white"/>
</clipPath>
</defs>
</svg>
