<svg width="15" height="15" viewBox="0 0 15 15" fill="none" xmlns="http://www.w3.org/2000/svg">
<g clip-path="url(#clip0_3236_1011)">
<mask id="mask0_3236_1011" style="mask-type:luminance" maskUnits="userSpaceOnUse" x="0" y="0" width="15" height="15">
<path d="M15 0H0V15H15V0Z" fill="white"/>
</mask>
<g mask="url(#mask0_3236_1011)">
<path d="M7.35446 10.7756C9.1712 10.7756 10.9874 10.7746 12.8042 10.7762C13.7697 10.7772 14.4958 11.3983 14.6517 12.3509C14.8045 13.2846 14.0815 14.2531 13.1421 14.3683C12.9775 14.3882 12.8108 14.399 12.6452 14.399C9.08249 14.4005 5.51977 14.4005 1.95706 14.4C1.06126 14.4 0.376712 13.9487 0.104433 13.1839C-0.309884 12.0204 0.55977 10.7833 1.80939 10.7777C3.6574 10.7695 5.50593 10.7756 7.35446 10.7756ZM11.2448 13.7983C11.8648 13.7983 12.3816 13.2806 12.3755 12.6651C12.3693 12.0552 11.8571 11.5482 11.2459 11.5477C10.6357 11.5472 10.1229 12.0532 10.1152 12.664C10.108 13.2785 10.6249 13.7978 11.2448 13.7983ZM6.22688 12.6814C6.22945 13.3 6.72786 13.7973 7.34574 13.7978C7.97081 13.7983 8.47075 13.2939 8.4687 12.6651C8.46614 12.0486 7.96568 11.5492 7.34882 11.5477C6.72632 11.5467 6.22432 12.0537 6.22688 12.6814ZM3.42153 11.56C2.79698 11.5635 2.30831 12.0527 2.30626 12.6768C2.30421 13.3061 2.8021 13.8019 3.43435 13.8004C4.05992 13.7988 4.55475 13.2954 4.55013 12.6635C4.54654 12.0465 4.04454 11.5564 3.42153 11.56Z" fill="#283942"/>
<path d="M7.29864 2.99884C7.80987 2.99884 8.32059 2.9973 8.83182 2.99935C9.16614 3.00037 9.40458 3.20246 9.42612 3.49613C9.44765 3.78981 9.25895 4.01697 8.93386 4.06762C8.7908 4.09013 8.77029 4.17148 8.759 4.29222C8.69799 4.94147 8.35699 5.405 7.77346 5.52523C7.45811 5.59021 7.10738 5.59021 6.79203 5.52625C6.21465 5.40909 5.86699 4.943 5.80803 4.31371C5.79572 4.18324 5.78034 4.08655 5.61369 4.06455C5.32141 4.02566 5.12245 3.77701 5.14194 3.50944C5.16348 3.21679 5.39627 3.00242 5.70906 3.00037C6.23824 2.99628 6.76844 2.99884 7.29864 2.99884ZM7.28992 4.92356C7.29813 4.94096 7.30582 4.95835 7.31402 4.97575C7.50477 4.88519 7.70116 4.80384 7.8832 4.69794C7.92473 4.67389 7.91601 4.56389 7.93037 4.4938C7.8632 4.49738 7.78013 4.4764 7.73142 4.50761C7.37966 4.7358 7.19404 4.73528 6.83613 4.50454C6.78792 4.47333 6.70383 4.49738 6.63666 4.49636C6.64999 4.56338 6.64025 4.65342 6.68076 4.69384C6.84587 4.85756 7.05508 4.93072 7.28992 4.92356Z" fill="#283942"/>
<path d="M9.46647 10.5251C9.46647 9.92138 9.46852 9.34171 9.46493 8.76153C9.46442 8.65051 9.51365 8.47604 9.33213 8.48167C9.15881 8.48679 9.20701 8.65921 9.20598 8.77125C9.2024 9.34478 9.20445 9.91831 9.20445 10.5087C8.74244 10.5087 8.29428 10.5087 7.82407 10.5087C7.82407 10.1757 7.82407 9.85231 7.82407 9.52845C7.82407 9.33046 7.81946 9.13246 7.82561 8.93497C7.83177 8.73339 7.7851 8.55586 7.63281 8.42233C7.70819 8.28061 7.77998 8.14451 7.85125 8.01047C8.09071 8.18544 8.10969 8.1793 8.22814 7.87387C8.35017 7.55922 8.46914 7.24355 8.5922 6.92992C8.66963 6.73243 8.74398 6.69764 8.92653 6.79332C9.769 7.23383 10.2397 7.93014 10.3043 8.87562C10.3366 9.3458 10.311 9.81957 10.3177 10.2918C10.3202 10.455 10.249 10.5271 10.0895 10.5256C9.88694 10.5241 9.68388 10.5251 9.46647 10.5251Z" fill="#283942"/>
<path d="M6.62204 7.99364C6.69434 8.1328 6.76357 8.26633 6.84151 8.41573C6.67486 8.57228 6.64717 8.79074 6.65178 9.02814C6.66101 9.51776 6.65435 10.0079 6.65435 10.5231C6.23131 10.5231 5.82417 10.5262 5.41755 10.5164C5.38832 10.5159 5.33704 10.4167 5.33653 10.3635C5.33038 9.84725 5.33294 9.33051 5.33294 8.81377C5.33294 8.76261 5.34679 8.70633 5.32935 8.66182C5.30269 8.59479 5.26167 8.49093 5.21347 8.48275C5.09245 8.46228 5.08169 8.56819 5.08169 8.66335C5.0822 9.20516 5.08169 9.74748 5.08169 10.2893C5.08169 10.3589 5.08169 10.4279 5.08169 10.5016C4.82223 10.5267 4.57661 10.5553 4.32997 10.5697C4.29715 10.5717 4.22895 10.5001 4.22947 10.4638C4.24587 9.7526 4.13101 9.03172 4.32843 8.33284C4.51508 7.67234 4.92427 7.17146 5.52728 6.83532C5.76623 6.7023 5.83135 6.72737 5.92211 6.97858C6.02979 7.27788 6.13491 7.57769 6.24208 7.8775C6.35079 8.18191 6.38104 8.19061 6.62204 7.99364Z" fill="#283942"/>
<path d="M7.28229 2.74022C6.64287 2.74022 6.00293 2.74022 5.36351 2.74022C5.29942 2.74022 5.23532 2.74022 5.17174 2.73408C5.01227 2.71873 4.92612 2.61692 4.92202 2.46906C4.91792 2.31916 5.00355 2.19892 5.15994 2.1979C5.34557 2.19637 5.42146 2.1053 5.49478 1.95079C5.67528 1.57065 5.96448 1.28977 6.34751 1.10456C6.49468 1.03345 6.54749 1.07694 6.58646 1.22377C6.62543 1.36958 6.68492 1.51335 6.75875 1.64484C6.78542 1.69242 6.87925 1.70265 6.94233 1.72977C6.95514 1.66377 6.98899 1.59316 6.97514 1.5333C6.95412 1.44223 6.89618 1.36037 6.86028 1.27186C6.77414 1.05954 6.82952 0.833914 6.99668 0.701404C7.15102 0.579126 7.39202 0.578615 7.54893 0.700381C7.71558 0.82931 7.77352 1.05698 7.68994 1.26982C7.65969 1.34656 7.6038 1.41716 7.58944 1.49595C7.57559 1.57065 7.60123 1.65251 7.60944 1.7313C7.67712 1.69191 7.76942 1.66786 7.80788 1.60953C7.87659 1.50465 7.93453 1.3834 7.95863 1.26112C7.99453 1.07847 8.07811 1.08819 8.21553 1.14856C8.60728 1.322 8.89289 1.60237 9.07185 1.98609C9.13184 2.11451 9.19645 2.19125 9.35182 2.19432C9.53078 2.19739 9.6282 2.31302 9.62359 2.47264C9.61897 2.63227 9.51847 2.73459 9.3349 2.73766C8.94468 2.74431 8.55447 2.74073 8.16476 2.74124C7.87044 2.74022 7.57611 2.74022 7.28229 2.74022Z" fill="#283942"/>
<path d="M7.57603 10.5252C7.37041 10.5252 7.19248 10.5319 7.01557 10.5196C6.97711 10.517 6.91251 10.4464 6.91199 10.4065C6.90584 9.89081 6.90276 9.3751 6.91251 8.8599C6.91609 8.66344 7.06736 8.52786 7.24068 8.52735C7.41553 8.52683 7.56987 8.6619 7.57295 8.85632C7.58167 9.40273 7.57603 9.94965 7.57603 10.5252Z" fill="#283942"/>
<path d="M6.70391 6.16906C6.70237 5.82525 6.70237 5.83088 7.05002 5.83344C7.27872 5.83548 7.50741 5.81041 7.73611 5.81502C7.78687 5.81604 7.87507 5.89023 7.87814 5.93525C7.88942 6.09897 7.88789 6.26678 7.86174 6.42845C7.81148 6.73645 7.54997 6.9365 7.25205 6.91654C6.94132 6.89608 6.71724 6.66073 6.70442 6.33994C6.70185 6.28315 6.70391 6.22585 6.70391 6.16906Z" fill="#283942"/>
<path d="M7.07782 7.16041C6.85887 7.36148 6.66709 7.53799 6.46711 7.72217C6.36097 7.42901 6.24201 7.12255 6.14407 6.80944C6.12664 6.75469 6.17843 6.63907 6.23073 6.6099C6.32662 6.5567 6.44712 6.5567 6.5107 6.68153C6.62658 6.90869 6.8081 7.05911 7.07782 7.16041Z" fill="#283942"/>
<path d="M7.99539 7.75993C7.80618 7.55938 7.63338 7.37673 7.4375 7.16901C7.74362 7.08664 7.94053 6.9045 8.08461 6.65278C8.10871 6.61134 8.23998 6.5832 8.27895 6.61032C8.32869 6.64511 8.37176 6.75459 8.3533 6.80985C8.24819 7.12143 8.12358 7.42635 7.99539 7.75993Z" fill="#283942"/>
<path d="M7.24363 7.34961C7.40515 7.52561 7.63026 7.64123 7.5795 7.93235C7.54617 8.12523 7.42515 8.26644 7.25132 8.27207C7.07237 8.2782 6.9411 8.13444 6.90572 7.93081C6.85495 7.63816 7.08057 7.52407 7.24363 7.34961Z" fill="#283942"/>
<path d="M12.1051 12.6662C12.1072 13.1517 11.7349 13.5313 11.2508 13.537C10.7668 13.5426 10.3786 13.167 10.375 12.6882C10.3709 12.1945 10.7504 11.8072 11.2385 11.8066C11.7195 11.8056 12.1031 12.1858 12.1051 12.6662Z" fill="#283942"/>
<path d="M7.35122 13.537C6.8682 13.5411 6.46721 13.1481 6.46875 12.6713C6.47029 12.1996 6.86102 11.8097 7.3343 11.8067C7.81989 11.8041 8.2178 12.1945 8.21729 12.6733C8.21678 13.144 7.82605 13.5329 7.35122 13.537Z" fill="#283942"/>
<path d="M2.55469 12.6814C2.55315 12.2026 2.9526 11.806 3.43306 11.8086C3.90481 11.8117 4.29605 12.2026 4.29964 12.6748C4.30323 13.1506 3.89712 13.5543 3.42076 13.5481C2.94645 13.542 2.55623 13.1516 2.55469 12.6814Z" fill="#283942"/>
</g>
</g>
<defs>
<clipPath id="clip0_3236_1011">
<rect width="15" height="15" fill="white"/>
</clipPath>
</defs>
</svg>
