<svg width="15" height="15" viewBox="0 0 15 15" fill="none" xmlns="http://www.w3.org/2000/svg">
<path d="M15 3.39529V8.11393C15 8.11393 14.0277 8.311 13.8268 8.33876C13.6259 8.36651 13.0018 8.57469 12.5464 8.12226C11.8446 7.41168 9.35625 4.84419 9.35625 4.84419C9.19984 4.7124 9.00697 4.6357 8.80563 4.62522C8.6043 4.61474 8.40498 4.67102 8.23661 4.7859C7.60446 5.13008 6.66429 5.63803 6.27321 5.8351C6.14135 5.91499 5.99207 5.95889 5.83937 5.9627C5.68666 5.96651 5.53552 5.9301 5.4001 5.85688C5.26468 5.78366 5.1494 5.67603 5.06505 5.54406C4.98071 5.41209 4.93007 5.26011 4.91786 5.10233C4.92644 4.92273 4.98378 4.74928 5.0833 4.60197C5.18281 4.45465 5.32044 4.33945 5.48036 4.26963C6.37232 3.71449 8.25536 2.60422 9.04018 2.18232C9.51696 1.90475 9.85982 1.90475 10.5161 2.45989C11.3223 3.17879 12.0536 3.80886 12.0536 3.80886C12.1402 3.87287 12.2391 3.91669 12.3436 3.93729C12.4481 3.95789 12.5557 3.9548 12.6589 3.92822C13.5616 3.73392 15 3.39529 15 3.39529ZM5.08929 11.367C5.14993 11.2228 5.16992 11.0638 5.14695 10.9083C5.12398 10.7528 5.05899 10.6073 4.95949 10.4885C4.86 10.3697 4.73007 10.2826 4.58476 10.2371C4.43945 10.1917 4.28468 10.1898 4.13839 10.2318C4.18279 10.0896 4.19032 9.93779 4.16024 9.79164C4.13015 9.64548 4.06349 9.5101 3.96696 9.39906C3.86188 9.29523 3.73258 9.22145 3.59172 9.18496C3.45086 9.14847 3.30326 9.15051 3.16339 9.19089C3.20744 9.04847 3.21454 8.89654 3.18398 8.75037C3.15342 8.6042 3.08627 8.46894 2.98929 8.35819C2.81569 8.19203 2.58628 8.10279 2.35005 8.10953C2.11383 8.11627 1.8895 8.21846 1.725 8.39427C1.35536 8.76066 1.11696 9.42682 1.45714 9.82097C1.79732 10.2151 2.16429 9.97363 2.45357 9.90424C2.37321 10.2012 2.13214 10.4788 2.42946 10.8674C2.72679 11.256 3.13661 11.0201 3.42589 10.9507C3.34554 11.2477 3.11518 11.5502 3.39911 11.911C3.68304 12.2719 4.15982 12.0804 4.47054 11.9804C4.35 12.2996 4.09286 12.6438 4.42232 13.0324C4.75179 13.421 5.51518 13.2406 5.8875 12.8714C6.06414 12.71 6.1718 12.4827 6.18687 12.2391C6.20193 11.9956 6.12317 11.7558 5.96786 11.5724C5.85457 11.4565 5.7122 11.3758 5.55691 11.3395C5.40162 11.3032 5.23962 11.3128 5.08929 11.367ZM11.8795 8.91887L9.00536 5.95446C8.87242 5.82561 8.70643 5.73927 8.5273 5.70579C8.34818 5.67231 8.16353 5.69311 7.99554 5.76571C7.59375 5.94891 7.07679 6.19872 6.68571 6.38746C6.41651 6.55359 6.11595 6.65772 5.80446 6.69279C5.4777 6.69601 5.15889 6.58838 4.89667 6.3863C4.63445 6.18423 4.44323 5.89881 4.35218 5.5736C4.26112 5.24839 4.27523 4.90123 4.39236 4.58511C4.50949 4.26898 4.7232 4.00125 5.00089 3.82274C5.625 3.38141 6.98839 2.62365 6.98839 2.62365C6.81683 2.43674 6.60837 2.29038 6.37723 2.19458C6.1461 2.09877 5.89774 2.05577 5.64911 2.06852C4.73304 2.06852 2.81518 3.37308 2.81518 3.37308C2.61226 3.48294 2.3878 3.5433 2.15894 3.54956C1.93008 3.55581 1.70286 3.50779 1.49464 3.40917L0 2.87069V8.25549C0 8.25549 0.425893 8.38317 0.803571 8.53306C0.889366 8.27389 1.03246 8.03911 1.22143 7.84746C1.52626 7.54439 1.93151 7.37378 2.35394 7.37068C2.77638 7.36758 3.18392 7.53223 3.49286 7.83081C3.66476 8.01472 3.78833 8.2412 3.85179 8.48864C4.08413 8.56359 4.29489 8.69711 4.46518 8.87724C4.6377 9.06458 4.76044 9.29505 4.82143 9.54617C5.06635 9.62494 5.28703 9.76893 5.46141 9.96376C5.6358 10.1586 5.75779 10.3974 5.81518 10.6564C6.05849 10.7282 6.27928 10.8651 6.45536 11.0534C6.61968 11.2314 6.7412 11.4471 6.81008 11.6829C6.87895 11.9187 6.89324 12.1681 6.85179 12.4107C6.85179 12.4107 7.06607 12.6605 7.19732 12.7965C7.32093 12.9246 7.48858 12.9965 7.66339 12.9965C7.8382 12.9965 8.00585 12.9246 8.12946 12.7965C8.25307 12.6684 8.32252 12.4947 8.32252 12.3135C8.32252 12.1324 8.25307 11.9586 8.12946 11.8306C8.12946 11.8306 8.66518 12.5189 9.27589 12.1081C9.81161 11.7195 9.72857 11.2588 9.47411 10.9978C9.55179 11.0937 9.64819 11.1714 9.75696 11.2258C9.86572 11.2802 9.98439 11.3101 10.1051 11.3135C10.2259 11.3169 10.3459 11.2937 10.4574 11.2456C10.5688 11.1974 10.6692 11.1252 10.7518 11.0339C10.8668 10.9132 10.9341 10.7524 10.9405 10.5829C10.947 10.4135 10.8921 10.2476 10.7866 10.118C10.7866 10.118 11.1429 10.6204 11.858 10.1513C12.3643 9.70716 12.1259 9.19922 11.858 8.93275L11.8795 8.91887Z" fill="#283942"/>
</svg>
