<svg width="25" height="25" viewBox="0 0 25 25" fill="none" xmlns="http://www.w3.org/2000/svg">
<path d="M7.91494 1.33378C7.96962 1.22975 8.00243 1.1926 8.00607 1.15173C8.15553 0 8.15553 0 9.30377 0C11.0936 0 12.887 0 14.6768 0C15.6209 0 15.6173 0 15.6464 0.932531C15.6501 1.03656 15.6683 1.14059 15.6865 1.33378C16.7618 1.33378 17.8226 1.37093 18.8761 1.31892C19.5067 1.2892 19.6707 1.51583 19.6707 2.13628C19.6525 7.72031 19.6634 13.3081 19.6525 18.8921C19.6525 19.3528 19.7108 19.6129 20.2284 19.7726C21.3913 20.133 22.1276 21.3962 21.9745 22.5665C21.8032 23.8817 20.8736 24.8551 19.6671 24.9777C18.3548 25.1115 17.181 24.413 16.8275 23.1684C16.6817 22.652 16.4301 22.6148 16.0109 22.6185C12.2564 22.6297 8.50547 22.6111 4.75091 22.6371C4.14945 22.6482 4 22.4365 4 21.8569C4.01458 15.2734 4.01823 8.68628 4 2.09912C4 1.50097 4.17497 1.29663 4.76914 1.32263C5.82989 1.36722 6.89064 1.33378 7.91494 1.33378ZM4.71081 2.02482C4.71081 8.70486 4.71081 15.318 4.71081 21.9646C8.61847 21.9646 12.4751 21.9683 16.3317 21.9461C16.4812 21.9461 16.7072 21.7194 16.7655 21.5485C17.0571 20.694 17.5747 20.0401 18.4168 19.7801C18.9162 19.6277 19.0109 19.3937 19.0109 18.9144C18.9964 13.5273 19 8.14014 19 2.74929C19 2.51895 18.9818 2.28489 18.9708 2.03968C17.8445 2.03968 16.7691 2.03968 15.6756 2.03968C15.6646 2.192 15.6537 2.29603 15.6501 2.40377C15.6245 3.32144 15.6245 3.32144 14.7315 3.32144C12.9198 3.32144 11.1081 3.32144 9.29648 3.32144C8.15553 3.32144 8.15917 3.32144 8.00607 2.16228C8.00243 2.12141 7.96598 2.08798 7.92953 2.02482C6.88335 2.02482 5.8226 2.02482 4.71081 2.02482ZM14.9648 2.61554C14.9648 1.94308 14.9648 1.34492 14.9648 0.728191C12.8651 0.728191 10.7947 0.728191 8.72782 0.728191C8.72782 1.38208 8.72782 1.98023 8.72782 2.61554C10.8129 2.61554 12.8651 2.61554 14.9648 2.61554ZM19.3463 24.3313C20.4435 24.3275 21.3402 23.4247 21.3475 22.3139C21.3548 21.2216 20.4362 20.2816 19.3572 20.2742C18.2418 20.2668 17.3086 21.2179 17.3232 22.3399C17.3341 23.4433 18.2382 24.335 19.3463 24.3313Z" fill="white"/>
<path d="M5.80676 12.5743C5.80676 12.1842 5.83592 11.7904 5.79947 11.404C5.7375 10.765 5.94528 10.4975 6.61235 10.5346C7.52365 10.5866 8.43859 10.5606 9.35354 10.5421C9.78732 10.5346 9.96958 10.7055 9.96229 11.1514C9.94406 12.1471 9.94771 13.1465 9.96229 14.1422C9.96958 14.614 9.77638 14.7998 9.31344 14.7886C8.3584 14.7663 7.39971 14.7663 6.44467 14.7886C5.97444 14.7998 5.78853 14.6028 5.80311 14.1347C5.82134 13.6146 5.80676 13.0944 5.80676 12.5743ZM6.51757 11.2554C6.51757 12.2139 6.51757 13.1316 6.51757 14.0641C7.45439 14.0641 8.33653 14.0641 9.24054 14.0641C9.24054 13.1056 9.24054 12.1879 9.24054 11.2554C8.30737 11.2554 7.42158 11.2554 6.51757 11.2554Z" fill="white"/>
<path d="M7.94031 4.21551C8.43241 4.21551 8.92087 4.23037 9.40933 4.21179C9.79572 4.19693 9.95246 4.37527 9.95246 4.75422C9.94882 5.79821 9.94882 6.83848 9.95246 7.88247C9.95611 8.26515 9.79572 8.4249 9.40933 8.41747C8.38503 8.40261 7.36437 8.40261 6.34007 8.41747C5.96097 8.42119 5.79329 8.27629 5.79693 7.88619C5.80422 6.8422 5.80422 5.80193 5.79693 4.75794C5.79329 4.37527 5.95732 4.20436 6.33642 4.21179C6.87227 4.22294 7.40811 4.21551 7.94031 4.21551ZM9.24529 4.92884C8.31212 4.92884 7.4154 4.92884 6.50046 4.92884C6.50046 5.87995 6.50046 6.78276 6.50046 7.70414C7.44092 7.70414 8.33764 7.70414 9.24529 7.70414C9.24529 6.75303 9.24529 5.85394 9.24529 4.92884Z" fill="white"/>
<path d="M7.82361 21.0696C7.3315 21.0696 6.84305 21.0547 6.35095 21.0733C5.97914 21.0881 5.79688 20.9469 5.79688 20.5531C5.80417 19.5091 5.80052 18.4652 5.79688 17.4249C5.79688 17.0534 5.93904 16.8639 6.32907 16.8713C7.35338 16.8824 8.37768 16.8824 9.39833 16.8713C9.77743 16.8676 9.9524 17.0236 9.94876 17.4063C9.94511 18.4503 9.94511 19.4943 9.94876 20.5346C9.9524 20.9098 9.81024 21.0918 9.41656 21.077C8.89165 21.0547 8.35581 21.0696 7.82361 21.0696ZM9.24159 20.4082C9.24159 19.4125 9.24159 18.5097 9.24159 17.5698C8.31935 17.5698 7.43357 17.5698 6.50404 17.5698C6.50404 18.5023 6.50404 19.4237 6.50404 20.3674C6.67901 20.3822 6.82118 20.4045 6.96698 20.4045C7.7106 20.4082 8.45058 20.4082 9.24159 20.4082Z" fill="white"/>
<path d="M14.8729 11.2108C14.0892 11.2108 13.3018 11.2331 12.5181 11.1959C12.3249 11.1848 12.139 10.9693 11.9531 10.8504C12.139 10.7501 12.3249 10.5643 12.5108 10.5606C14.1038 10.5383 15.6967 10.5346 17.2861 10.5643C17.472 10.568 17.6506 10.7872 17.8328 10.9099C17.6506 11.0102 17.4756 11.1959 17.2897 11.2034C16.4878 11.2294 15.6822 11.2108 14.8729 11.2108Z" fill="white"/>
<path d="M14.8802 4.87944C14.0929 4.87944 13.3055 4.90173 12.5218 4.86458C12.3286 4.85343 12.1427 4.64909 11.9531 4.53392C12.1317 4.42989 12.3104 4.2367 12.4926 4.23298C14.0856 4.21069 15.6822 4.20698 17.2751 4.23298C17.4647 4.2367 17.6506 4.44847 17.8365 4.56736C17.636 4.67138 17.4428 4.85715 17.2387 4.86829C16.4513 4.89801 15.6639 4.87944 14.8802 4.87944Z" fill="white"/>
<path d="M14.9349 16.8738C15.7441 16.8738 16.5497 16.859 17.359 16.8887C17.523 16.8961 17.6761 17.0782 17.8365 17.1785C17.6724 17.2974 17.5121 17.5166 17.348 17.5166C15.7113 17.5426 14.0746 17.5389 12.4379 17.5203C12.2739 17.5166 12.1172 17.3308 11.9531 17.2305C12.1172 17.1116 12.2775 16.8961 12.4489 16.8887C13.2727 16.8515 14.1038 16.8738 14.9349 16.8738Z" fill="white"/>
<path d="M14.9271 7.75216C15.7144 7.75216 16.5018 7.72987 17.2855 7.77074C17.4714 7.78188 17.6501 8.00108 17.8287 8.1274C17.6464 8.224 17.4641 8.39862 17.2819 8.40233C15.6889 8.42462 14.096 8.42462 12.4994 8.40233C12.3135 8.39862 12.1312 8.22028 11.9453 8.12369C12.1312 8.00108 12.3098 7.78188 12.503 7.77074C13.3123 7.72987 14.1179 7.75216 14.9271 7.75216Z" fill="white"/>
<path d="M14.9276 14.1073C15.7368 14.1073 16.5461 14.0924 17.3517 14.1184C17.5121 14.1259 17.6688 14.2968 17.8292 14.3934C17.6724 14.5234 17.5157 14.7612 17.359 14.7649C15.7223 14.7909 14.0819 14.7946 12.4452 14.7649C12.2775 14.7612 12.1172 14.5271 11.9531 14.4008C12.1172 14.3042 12.2775 14.1259 12.4416 14.1184C13.269 14.0887 14.1001 14.1073 14.9276 14.1073Z" fill="white"/>
<path d="M14.9276 5.99981C15.7332 5.99981 16.5424 5.98495 17.348 6.01467C17.5121 6.0221 17.6688 6.18929 17.8292 6.28588C17.6724 6.4122 17.5157 6.64626 17.3553 6.64626C15.7223 6.67227 14.0856 6.67227 12.4525 6.64626C12.2848 6.64255 12.1208 6.41592 11.9531 6.29331C12.1172 6.19672 12.2775 6.01839 12.4452 6.01467C13.2727 5.98495 14.1001 5.99981 14.9276 5.99981Z" fill="white"/>
<path d="M14.9568 18.662C15.766 18.662 16.5716 18.6471 17.3808 18.6768C17.5376 18.6843 17.6834 18.87 17.8365 18.9704C17.6907 19.093 17.5485 19.3159 17.4027 19.3196C15.7441 19.3456 14.0856 19.3456 12.427 19.3196C12.2666 19.3159 12.1099 19.1078 11.9531 18.9926C12.1244 18.8812 12.2958 18.6806 12.4707 18.6731C13.2982 18.6434 14.1293 18.662 14.9568 18.662Z" fill="white"/>
<path d="M14.0309 20.4073C14.5412 20.4073 15.0552 20.3813 15.5619 20.4221C15.715 20.437 15.8535 20.6488 15.9957 20.7677C15.8535 20.868 15.715 21.0463 15.5728 21.05C14.5084 21.076 13.444 21.076 12.3833 21.05C12.2375 21.0463 12.0953 20.8754 11.9531 20.7788C12.0916 20.6525 12.2265 20.4296 12.376 20.4184C12.9227 20.3813 13.4768 20.4073 14.0309 20.4073Z" fill="white"/>
<path d="M13.8955 12.9683C13.407 12.9683 12.9149 12.9944 12.4265 12.9535C12.2588 12.9386 12.1057 12.7677 11.9453 12.6674C12.0911 12.5485 12.2333 12.3293 12.3827 12.3256C13.4034 12.2959 14.424 12.2996 15.4447 12.3256C15.5869 12.3293 15.729 12.5188 15.8675 12.6228C15.7217 12.738 15.5796 12.9386 15.4228 12.9498C14.9198 12.9944 14.4095 12.9683 13.8955 12.9683Z" fill="white"/>
<path d="M9.05792 5.94793L7.15513 6.95105L6.89632 7.08852C6.87445 6.92505 6.84893 6.76157 6.82706 6.5981C6.78696 6.34547 6.74322 6.09654 6.70312 5.8439C6.81613 5.8179 6.93277 5.79561 7.04577 5.7696C7.08952 5.9888 7.13326 6.208 7.177 6.42349C7.73472 6.12998 8.29243 5.83647 8.85015 5.54297L9.05792 5.94793Z" fill="white"/>
<path d="M9.05792 12.2956L7.15513 13.2987L6.89632 13.4362C6.87445 13.2727 6.84893 13.1092 6.82706 12.9458C6.78696 12.6931 6.74322 12.4442 6.70312 12.1916C6.81613 12.1656 6.93277 12.1433 7.04577 12.1173C7.08952 12.3365 7.13326 12.5557 7.177 12.7711C7.73472 12.4776 8.29243 12.1841 8.85015 11.8906L9.05792 12.2956Z" fill="white"/>
<path d="M9.05792 18.6354L7.15513 19.6386L6.89632 19.776C6.87445 19.6125 6.84893 19.4491 6.82706 19.2856C6.78696 19.033 6.74322 18.784 6.70312 18.5314C6.81613 18.5054 6.93277 18.4831 7.04577 18.4571C7.08952 18.6763 7.13326 18.8955 7.177 19.111C7.73472 18.8175 8.29243 18.524 8.85015 18.2305L9.05792 18.6354Z" fill="white"/>
<path d="M20.511 22.1354L18.6083 23.1386L18.3494 23.276C18.3276 23.1125 18.3021 22.9491 18.2802 22.7856C18.2401 22.533 18.1963 22.284 18.1562 22.0314C18.2693 22.0054 18.3859 21.9831 18.4989 21.9571C18.5426 22.1763 18.5864 22.3955 18.6301 22.611C19.1878 22.3175 19.7456 22.024 20.3033 21.7305L20.511 22.1354Z" fill="white"/>
</svg>
