<svg width="25" height="25" viewBox="0 0 25 25" fill="none" xmlns="http://www.w3.org/2000/svg">
<g clip-path="url(#clip0_347_769)">
<path d="M0.34616 12.2428C0.34616 11.3316 0.320894 10.4185 0.371427 9.50916C0.379849 9.36737 0.712525 9.18967 0.931502 9.11783C1.41578 8.96092 1.92742 8.87396 2.42012 8.73784C3.70661 8.38432 4.24984 7.2349 3.63081 6.17056C3.39078 5.76032 3.12127 5.36332 2.84755 4.9701C2.61383 4.63549 2.63068 4.36326 2.96756 4.0759C3.61607 3.52577 4.24563 2.95484 4.86255 2.37447C5.15943 2.09467 5.44158 2.06632 5.79531 2.26293C6.21431 2.49546 6.64384 2.71475 7.07548 2.92838C8.36828 3.57114 9.63372 3.1023 10.0696 1.82244C10.0906 1.76195 10.1159 1.70334 10.1348 1.64096C10.7307 -0.283557 10.2464 0.0170299 12.5331 0.0170299C14.8955 0.0170299 14.388 -0.283557 14.9902 1.65608C15.4555 3.15713 16.7168 3.59761 18.2433 2.82629C20.2057 1.83568 19.5761 1.8111 21.1089 3.14767C22.5765 4.42564 22.5618 4.43888 21.5848 6.01365C20.8268 7.2349 21.3532 8.38999 22.8481 8.77943C23.2313 8.87963 23.6124 9.0044 24.0041 9.05544C24.6105 9.13673 24.8357 9.41274 24.8063 9.95909C24.7663 10.7096 24.7957 11.462 24.7957 12.3865C24.5494 12.2012 24.4041 12.1426 24.3515 12.0443C23.0102 9.5413 21.3827 8.93445 18.378 9.85323C17.4474 7.25381 15.5271 5.66202 12.4088 5.72252C9.45896 5.78112 7.63134 7.33321 6.75754 9.84566C3.7803 8.81157 1.74214 9.74169 0.529343 12.4073C0.468282 12.3524 0.407221 12.2976 0.34616 12.2428Z" fill="white"/>
<path d="M16.4606 24.5328C16.4606 23.7142 16.4606 23.0072 16.4606 22.302C16.4143 22.2964 16.3659 22.2907 16.3196 22.285C16.1974 22.9297 16.0416 23.5725 15.9658 24.2228C15.9237 24.5914 15.7448 24.7256 15.37 24.7843C13.5002 25.0716 11.6347 25.0697 9.7629 24.7899C9.35021 24.7275 9.17335 24.5744 9.13124 24.185C9.06175 23.5498 8.91016 22.9221 8.65749 22.302C8.65749 23.0185 8.65749 23.7369 8.65749 24.6292C7.83212 24.2757 7.11834 23.994 6.43404 23.6594C6.27191 23.58 6.13715 23.3267 6.12663 23.1471C6.09294 22.5799 6.0803 22.0071 6.13505 21.4419C6.30349 19.7669 8.18795 18.1335 10.0808 18.0012C10.2535 17.9898 10.443 18.0617 10.6114 18.126C11.9127 18.6194 13.2055 18.6024 14.513 18.126C14.7488 18.0409 15.0562 18.039 15.3089 18.0863C15.6711 18.1562 16.0248 18.2867 16.3638 18.4265C18.1072 19.1449 19.061 20.3038 18.9999 22.0941C18.9452 23.718 18.9873 23.7199 17.2671 24.2965C17.0355 24.374 16.7912 24.4364 16.4606 24.5328Z" fill="white"/>
<path d="M12.5602 17.229C10.6167 17.2309 9.04812 15.83 9.05865 14.1021C9.06917 12.3742 10.6504 10.9809 12.5875 10.9923C14.4867 11.0036 16.0343 12.3893 16.0533 14.0964C16.0743 15.8187 14.5057 17.2271 12.5602 17.229Z" fill="white"/>
<path d="M23.2193 20.4855C23.2193 19.9789 23.2193 19.5233 23.2193 19.0695C23.173 19.0639 23.1287 19.0563 23.0824 19.0506C23.0108 19.4193 22.8971 19.7879 22.8782 20.1604C22.8592 20.5403 22.6403 20.6765 22.2739 20.7124C21.718 20.7672 21.1601 20.8164 20.5431 20.8731C20.0378 18.8881 18.585 17.6952 16.6016 16.9427C17.2353 16.1317 18.3702 15.8387 19.3809 16.0334C20.042 16.162 20.7937 16.1828 21.4443 16.0353C23.0066 15.6799 24.87 16.7953 24.9774 18.2491C24.9816 18.3115 24.9837 18.3757 24.9858 18.4381C25.0343 19.9543 24.9711 20.0318 23.2193 20.4855Z" fill="white"/>
<path d="M1.90754 19.0528C1.90754 19.5046 1.90754 19.9564 1.90754 20.5557C1.32641 20.3137 0.831612 20.1152 0.347337 19.8997C0.256798 19.86 0.170471 19.7598 0.136782 19.6691C-0.467509 18.0508 1.0169 16.0015 2.89083 15.8616C2.97927 15.8541 3.08033 15.8654 3.16034 15.8957C4.18574 16.304 5.16693 16.1698 6.23654 15.9259C7.09561 15.7293 7.8536 16.3097 8.48316 16.7974C7.64726 17.3438 6.72292 17.7862 6.04494 18.4346C5.37748 19.0736 4.95848 19.9205 4.31208 20.8469C3.91413 20.8015 3.24457 20.7467 2.58974 20.637C2.45499 20.6143 2.30549 20.395 2.26338 20.2438C2.15389 19.8487 2.10125 19.4403 2.02546 19.0358C1.98545 19.0414 1.94755 19.0471 1.90754 19.0528Z" fill="white"/>
<path d="M20.4261 10.8594C21.8347 10.8594 22.9085 11.8368 22.898 13.1072C22.8874 14.3379 21.8031 15.302 20.4324 15.2982C19.0406 15.2963 17.9289 14.2906 17.9415 13.0467C17.9499 11.8405 19.0638 10.8594 20.4261 10.8594Z" fill="white"/>
<path d="M2.21927 13.0418C2.24664 11.7733 3.34574 10.8337 4.76488 10.864C6.11032 10.8923 7.2052 11.9189 7.17151 13.1231C7.13782 14.3708 6.00294 15.3331 4.60275 15.3047C3.24257 15.2745 2.1919 14.2782 2.21927 13.0418Z" fill="white"/>
</g>
<defs>
<clipPath id="clip0_347_769">
<rect width="25" height="25" fill="white"/>
</clipPath>
</defs>
</svg>
