<svg width="25" height="25" viewBox="0 0 25 25" fill="none" xmlns="http://www.w3.org/2000/svg">
<g clip-path="url(#clip0_347_809)">
<path d="M23.8871 0C24.2562 0 24.6254 0 25 0C25 0.331162 25 0.667752 25 0.998914C24.9186 1.15635 24.8208 1.30836 24.7611 1.47123C21.8784 9.02823 19.0011 16.5852 16.1075 24.1422C15.9881 24.4517 15.7438 24.7177 15.5537 25C15.3692 25 15.1846 25 15 25C14.8154 24.7557 14.582 24.5331 14.4517 24.2617C13.3659 22.0413 12.3073 19.81 11.2161 17.6004C11.0315 17.2313 11.0695 16.9924 11.2975 16.6667C13.4148 13.6645 15.5157 10.6515 17.6221 7.63844C17.7253 7.49186 17.8122 7.33442 17.9099 7.18241C17.7036 7.21498 17.5787 7.29099 17.4593 7.37242C14.4028 9.50597 11.3464 11.645 8.27904 13.7676C8.11075 13.8817 7.78502 13.9305 7.60586 13.8491C5.3203 12.7796 3.0456 11.683 0.77633 10.5809C0.488599 10.4397 0.255157 10.1954 0 10C0 9.85342 0 9.70141 0 9.55483C0.287731 9.34311 0.542888 9.04995 0.863192 8.93051C7.55157 6.34636 14.2508 3.78393 20.9446 1.21064C21.9327 0.82519 22.9045 0.401737 23.8871 0Z" fill="white"/>
</g>
<defs>
<clipPath id="clip0_347_809">
<rect width="25" height="25" fill="white"/>
</clipPath>
</defs>
</svg>
