<svg width="25" height="26" viewBox="0 0 25 26" fill="none" xmlns="http://www.w3.org/2000/svg">
<g clip-path="url(#clip0_347_812)">
<path d="M20.5295 9.89422C19.9753 9.67395 19.5129 9.49038 18.9672 9.27378C18.9672 9.11591 18.9672 8.89808 18.9672 8.68025C18.9672 6.66105 18.9696 4.64307 18.966 2.62387C18.9648 1.77702 18.7644 1.56531 17.9482 1.56531C12.8183 1.56287 7.68841 1.56287 2.5585 1.56531C1.77012 1.56531 1.56125 1.77825 1.56125 2.57981C1.55884 8.22869 1.55884 13.8763 1.56125 19.5252C1.56125 20.4075 1.69527 20.536 2.58989 20.5385C4.40087 20.5422 6.21065 20.5471 8.02163 20.5336C8.41522 20.5311 8.70135 20.5617 8.81846 21.039C8.90177 21.3817 9.12512 21.6888 9.31708 22.0719C9.12995 22.0902 8.98266 22.1159 8.83536 22.1159C6.36035 22.1184 3.88655 22.1196 1.41155 22.1171C0.471042 22.1159 0.00139409 21.6472 0.00139409 20.7012C-0.00102055 14.2765 0.000186773 7.85422 0.00139409 1.4307C0.00139409 0.564278 0.407054 0.106592 1.24493 0.0135862C1.42362 -0.00599392 1.60713 0.00134863 1.78702 0.00134863C7.4397 0.00134863 13.0924 0.000124873 18.7463 0.00134863C20.1443 0.00134863 20.5295 0.394176 20.5295 1.81129C20.5295 4.48031 20.5295 7.15055 20.5295 9.89422Z" fill="white"/>
<path d="M17.3172 10.4163C21.4523 10.3808 24.9644 13.8342 25.0018 17.9718C25.0429 22.4703 21.6624 25.9837 17.281 25.9972C13.1725 26.0094 9.69299 22.5242 9.66039 18.3634C9.6278 13.9175 12.9636 10.4542 17.3172 10.4163ZM17.4054 11.9546C13.979 11.9399 11.1985 14.7154 11.1478 18.2018C11.0983 21.6051 13.9633 24.5213 17.3547 24.5201C20.7182 24.5189 23.541 21.6651 23.547 18.2581C23.5542 14.8243 20.7714 11.968 17.4054 11.9546Z" fill="white"/>
<path d="M16.6538 8.35865C16.6538 8.65112 16.6538 8.91178 16.6538 9.11248C14.7269 9.74149 12.7928 9.99359 10.7934 9.91037C8.72772 9.82471 6.65596 9.89079 4.58661 9.89079C4.36929 9.89079 4.15318 9.89079 3.89844 9.89079C3.89844 9.35968 3.89844 8.87997 3.89844 8.35742C8.12889 8.35865 12.3557 8.35865 16.6538 8.35865Z" fill="white"/>
<path d="M16.6465 4.46875C16.6465 4.97783 16.6465 5.43919 16.6465 5.94216C12.3956 5.94216 8.16753 5.94216 3.89844 5.94216C3.89844 5.46 3.89844 4.98273 3.89844 4.46875C8.13372 4.46875 12.3642 4.46875 16.6465 4.46875Z" fill="white"/>
<path d="M10.2888 12.2695C10.0328 12.7517 9.81069 13.1984 9.55836 13.6267C9.50282 13.7197 9.34104 13.7992 9.22876 13.7992C7.46486 13.8102 5.69976 13.8066 3.89844 13.8066C3.89844 13.2755 3.89844 12.7957 3.89844 12.2695C5.99314 12.2695 8.09509 12.2695 10.2888 12.2695Z" fill="white"/>
<path d="M8.48803 16.1719C8.44336 16.6846 8.40111 17.1643 8.35644 17.6795C6.86781 17.6795 5.41299 17.6795 3.90625 17.6795C3.90625 17.2011 3.90625 16.7067 3.90625 16.1719C5.40936 16.1719 6.91972 16.1719 8.48803 16.1719Z" fill="white"/>
<path d="M17.3908 15.3965C17.3908 16.5799 17.3908 17.7326 17.3908 18.9478C18.603 18.9478 19.7596 18.9478 20.9512 18.9478C20.9512 19.4875 20.9512 19.966 20.9512 20.4861C19.2634 20.4861 17.584 20.4861 15.8672 20.4861C15.8672 18.801 15.8672 17.1208 15.8672 15.3965C16.3477 15.3965 16.8222 15.3965 17.3908 15.3965Z" fill="white"/>
</g>
<defs>
<clipPath id="clip0_347_812">
<rect width="25" height="26" fill="white"/>
</clipPath>
</defs>
</svg>
