<svg width="15" height="15" viewBox="0 0 15 15" fill="none" xmlns="http://www.w3.org/2000/svg">
<path d="M7.60897 0.00169616C7.79686 0.00169616 7.98476 -0.00144487 8.17265 0.00326667C8.52634 0.0126898 8.7316 0.215286 8.74265 0.568652C8.74739 0.699005 8.74739 0.827788 8.74108 0.958141C8.72686 1.22356 8.57686 1.41045 8.31634 1.46385C8.22792 1.48269 8.20423 1.51724 8.20897 1.59734C8.21371 1.6743 8.21055 1.75282 8.21055 1.83135C8.21055 2.05279 8.21213 2.04965 8.42529 2.08577C10.0721 2.36375 11.3211 3.22754 12.139 4.66613C13.2142 6.55703 13.009 8.78716 11.6432 10.4802C11.4111 10.7676 11.1427 11.0236 10.8553 11.2576C10.7653 11.3314 10.7211 11.3235 10.6421 11.2435C9.77055 10.3718 8.89265 9.50489 8.02265 8.63011C7.93581 8.54216 7.89318 8.54373 7.80634 8.62854C7.06581 9.3604 6.31897 10.0876 5.57844 10.8194C5.50423 10.8932 5.46634 10.9058 5.38581 10.8241C4.42739 9.85983 3.46581 8.90024 2.50423 7.94066C2.45686 7.89354 2.43634 7.84485 2.42844 7.77889C2.18213 5.47023 3.47055 3.29821 5.62108 2.40773C6.02213 2.24125 6.43897 2.1266 6.87002 2.07478C6.96634 2.06221 7.00739 2.02923 6.99634 1.93029C6.98844 1.86904 6.98844 1.80465 6.99634 1.7434C7.01844 1.57849 6.99476 1.47013 6.7895 1.43244C6.61897 1.40103 6.51476 1.2534 6.47529 1.0775C6.43265 0.882756 6.43897 0.6833 6.46107 0.488556C6.49423 0.190158 6.70265 0.0126898 7.01371 0.00326667C7.21107 -0.00301539 7.41002 0.00169616 7.60897 0.00169616ZM7.97686 6.01991C7.97686 5.81732 7.98002 5.61472 7.97529 5.41212C7.97055 5.20168 7.83002 5.05248 7.63265 5.03677C7.41002 5.0195 7.23634 5.18754 7.23318 5.43568C7.22844 5.81889 7.23002 6.20367 7.23318 6.58844C7.23318 6.66697 7.21423 6.71722 7.14476 6.76591C6.85897 6.97008 6.74371 7.24963 6.82108 7.59357C6.8416 7.68466 6.82423 7.73178 6.74686 7.78046C6.51792 7.92495 6.29529 8.07886 6.06792 8.22649C5.96055 8.29559 5.89581 8.39139 5.8816 8.51704C5.86581 8.66466 5.92265 8.77931 6.04897 8.85941C6.19423 8.95364 6.3395 8.93008 6.47371 8.84213C6.75792 8.65838 7.03897 8.46992 7.31844 8.28146C7.3895 8.23277 7.45739 8.21236 7.54897 8.22021C7.88213 8.25005 8.19634 8.05687 8.34318 7.74748C8.48055 7.45694 8.44423 7.07844 8.18844 6.87585C7.98318 6.71408 7.95792 6.53661 7.97529 6.31517C7.98318 6.2178 7.97686 6.11886 7.97686 6.01991ZM7.26318 3.75209C7.26318 3.87616 7.25844 4.00023 7.26476 4.1243C7.27581 4.32376 7.41792 4.46353 7.59792 4.46353C7.78265 4.46353 7.9295 4.32847 7.93581 4.12901C7.94529 3.88087 7.94371 3.63116 7.93423 3.38302C7.92634 3.19456 7.7795 3.05792 7.60423 3.05635C7.42581 3.05478 7.27265 3.20398 7.26476 3.39244C7.26002 3.51337 7.26318 3.63273 7.26318 3.75209ZM11.0653 7.75848C11.1853 7.75848 11.3053 7.76162 11.4253 7.75848C11.6337 7.75219 11.7805 7.61399 11.7821 7.42553C11.7837 7.23863 11.6353 7.08944 11.4316 7.08629C11.1963 7.08158 10.9627 7.08158 10.7274 7.08629C10.5205 7.08944 10.369 7.23392 10.3674 7.41924C10.3658 7.603 10.5174 7.75219 10.7211 7.76005C10.8363 7.76319 10.95 7.75848 11.0653 7.75848ZM4.2016 7.08472C4.07686 7.08472 3.95213 7.07844 3.82739 7.08472C3.6316 7.09415 3.49108 7.24178 3.49108 7.42239C3.49265 7.60457 3.63476 7.75062 3.83055 7.75691C4.07055 7.76319 4.30897 7.76319 4.54897 7.75691C4.7495 7.75219 4.90423 7.59985 4.90423 7.41924C4.90265 7.24492 4.75581 7.09729 4.5616 7.08472C4.4416 7.07844 4.3216 7.08472 4.2016 7.08472Z" fill="#283942"/>
<path d="M12.9993 11.8448C12.9993 12.886 12.9993 13.888 13.0009 14.89C13.0009 14.9638 12.993 14.9984 12.9015 14.9984C11.8988 14.9937 10.8962 14.9952 9.89356 14.9937C9.8904 14.9937 9.88566 14.9889 9.86514 14.9748C10.0893 14.7502 10.3104 14.5272 10.5315 14.3058C10.653 14.1833 10.7715 14.0592 10.8962 13.9414C10.9657 13.877 10.9799 13.8362 10.8993 13.7592C9.92829 12.8075 8.96198 11.8526 7.99724 10.8946C7.92619 10.8239 7.89303 10.8349 7.82829 10.8977C7.09882 11.6186 6.36461 12.3348 5.63672 13.0572C5.52935 13.164 5.4725 13.1781 5.3525 13.0588C3.92987 11.6359 2.49777 10.2177 1.06566 8.79954C0.985137 8.71944 0.972505 8.67704 1.06251 8.5938C1.29935 8.3755 1.53145 8.14934 1.75566 7.91848C1.83619 7.83681 1.87251 7.83681 1.95619 7.92005C3.09303 9.05867 4.23461 10.191 5.37145 11.3296C5.46145 11.4207 5.50408 11.4254 5.59724 11.3328C6.32672 10.6041 7.06408 9.88476 7.79356 9.15604C7.89145 9.05867 7.93882 9.06338 8.03356 9.15761C9.26514 10.392 10.5046 11.6186 11.7346 12.8546C11.8372 12.9583 11.8815 12.9426 11.9715 12.8499C12.3015 12.5169 12.6393 12.195 12.9993 11.8448Z" fill="#283942"/>
<path d="M8.83447 12.2313C8.17605 12.3868 7.55395 12.4198 6.875 12.3334C7.05816 12.159 7.21605 12.0114 7.37237 11.8606C7.52868 11.7083 7.685 11.5544 7.83974 11.4005C7.88395 11.3565 7.91553 11.3251 7.97711 11.3879C8.25184 11.6643 8.53132 11.9345 8.83447 12.2313Z" fill="#283942"/>
</svg>
