<svg width="15" height="15" viewBox="0 0 15 15" fill="none" xmlns="http://www.w3.org/2000/svg">
<g clip-path="url(#clip0_3244_647)">
<path d="M9.52836 12.4786C8.80278 12.8371 8.64311 13.4904 8.66659 14.2192C8.68537 14.7805 8.47874 15.0588 7.887 14.9574C7.75081 14.9338 7.60288 14.9314 7.46903 14.9574C6.54621 15.1437 6.21981 14.7286 6.27852 13.8418C6.32078 13.2145 6.00848 12.7946 5.43318 12.5258C4.8391 12.2475 4.36712 12.4338 3.8834 12.7828C3.56171 13.0163 3.30106 13.606 2.89013 13.3843C2.39702 13.1201 2.01662 12.6178 1.63152 12.1814C1.36149 11.8772 1.70197 11.6814 1.86164 11.4762C2.13168 11.1248 2.50738 10.8512 2.57548 10.3654C2.70698 9.422 2.1082 8.76398 1.06092 8.67908C0.718092 8.65077 0.166276 8.81115 0.0840907 8.43379C-0.0474058 7.82058 -0.00748724 7.14842 0.0864389 6.52106C0.126357 6.26398 0.574855 6.3253 0.844892 6.32058C1.56108 6.31115 2.18334 6.15313 2.48155 5.41257C2.77977 4.67436 2.46981 4.09653 1.93678 3.61775C1.44367 3.172 1.4695 2.78992 1.98609 2.39842C2.16221 2.26398 2.34771 2.11775 2.47216 1.93851C2.82204 1.42908 3.14373 1.4904 3.54996 1.89134C4.05482 2.38898 4.5902 2.82766 5.39796 2.48332C6.10475 2.18379 6.33018 1.63898 6.2973 0.938509C6.26443 0.235679 6.51568 -0.113377 7.26239 0.032849C7.45025 0.0682263 7.65688 0.0658678 7.84708 0.032849C8.48813 -0.0827171 8.69242 0.221528 8.67129 0.815868C8.64546 1.56351 8.82392 2.19794 9.61994 2.50455C10.3878 2.79936 10.9185 2.40785 11.3998 1.91964C11.8249 1.48804 12.1677 1.43851 12.541 1.96681C12.6678 2.14606 12.851 2.28992 13.0248 2.42908C13.4897 2.80408 13.5461 3.16021 13.0694 3.58709C12.5152 4.08474 12.1794 4.67672 12.5129 5.45266C12.8299 6.19087 13.4662 6.33945 14.173 6.31351C14.7624 6.29228 15.077 6.49275 14.969 7.14134C14.9385 7.33238 14.9362 7.53757 14.969 7.7286C15.1029 8.48804 14.7507 8.74511 14.0439 8.68615C13.7363 8.66021 13.3934 8.65549 13.161 8.8654C12.6866 9.29228 12.3133 9.30879 11.8671 8.80408C11.5384 8.42908 11.2096 8.172 11.2261 7.55408C11.2824 5.40077 9.52132 3.67672 7.41972 3.72153C5.30873 3.76634 3.61102 5.58945 3.72608 7.69087C3.84348 9.84181 5.70557 11.4314 7.887 11.2475C8.49048 11.1932 8.49048 11.1932 9.52836 12.4786Z" fill="#283942"/>
<path d="M5.14433 6.41994C5.60222 6.93881 6.05071 7.46947 6.52504 7.97418C6.84204 8.31145 8.00673 8.34918 8.15936 7.98598C8.37069 7.4789 8.71117 6.894 8.14527 6.36805C7.63806 5.89635 7.12617 5.42701 6.54852 4.894C8.61724 4.30673 10.2797 5.51664 10.2398 7.47183C10.2234 8.29494 10.5052 8.84683 11.1157 9.34211C12.0268 10.0803 12.8979 10.8681 13.7832 11.6369C14.5041 12.2619 14.5909 13.1369 13.9969 13.7737C13.377 14.4412 12.4518 14.427 11.8037 13.7006C10.9278 12.7195 10.0778 11.7171 9.23011 10.7124C8.86145 10.2737 8.42704 10.0732 7.84705 10.0756C5.67266 10.078 4.58781 8.77135 5.14433 6.41994ZM13.4803 12.8256C13.4591 12.5166 13.3136 12.2831 12.9989 12.2548C12.6537 12.2242 12.4213 12.4034 12.4001 12.7784C12.3813 13.1063 12.5481 13.3185 12.8627 13.3515C13.2196 13.3869 13.4122 13.1699 13.4803 12.8256Z" fill="#283942"/>
</g>
<defs>
<clipPath id="clip0_3244_647">
<rect width="15" height="15" fill="white"/>
</clipPath>
</defs>
</svg>
