<svg width="15" height="15" viewBox="0 0 15 15" fill="none" xmlns="http://www.w3.org/2000/svg">
<path d="M10.9485 4.13644H12.6571C12.8517 4.13644 13.0247 3.96339 13.0247 3.76872C13.0247 3.6822 12.9815 3.57404 12.9166 3.50915L10.4727 1.10815C10.4079 1.04326 10.3214 1 10.2348 1C10.0402 1 9.86719 1.17305 9.86719 1.36772V3.07654C9.91044 3.66057 10.3646 4.11481 10.9485 4.13644Z" fill="#283942"/>
<path d="M12.4658 5.65058H9.8277C8.96276 5.65058 8.27081 4.9584 8.24918 4.09318V1.4975C8.27081 1.23794 8.0762 1.02163 7.81671 1C7.79509 1 7.77347 1 7.75184 1H3.57851C2.71357 1 2.02162 1.69218 2 2.5574V12.4426C2 13.3078 2.71357 14 3.57851 14H11.4062C12.2712 14 12.9631 13.3078 12.9847 12.4426V6.19135C13.0063 5.91015 12.7685 5.65058 12.4658 5.65058ZM10.9737 12.3128C10.8008 12.4859 10.5845 12.5724 10.325 12.5724C10.0872 12.5724 9.84932 12.4859 9.67633 12.3128L6.69229 9.32779C6.49768 9.41431 6.30307 9.45757 6.08684 9.4792C4.83268 9.63062 3.70825 8.72213 3.55689 7.46755C3.51364 7.1431 3.55689 6.81864 3.64338 6.51581C3.66501 6.42928 3.77313 6.40765 3.85962 6.47255L5.15703 7.77038C5.24352 7.87854 5.41651 7.87854 5.503 7.79201C5.503 7.79201 5.52463 7.79201 5.52463 7.77038L6.43281 6.8619C6.54093 6.77537 6.54093 6.60233 6.45444 6.51581C6.45444 6.51581 6.45444 6.49418 6.43281 6.49418L5.1354 5.19634C5.09216 5.15308 5.09216 5.06656 5.1354 5.00166C5.15703 4.98003 5.15703 4.98003 5.17865 4.98003C5.39489 4.93677 5.63274 4.89351 5.84898 4.89351C7.12476 4.89351 8.14107 5.91015 8.16269 7.18636C8.16269 7.27288 8.16269 7.3594 8.14107 7.44592C8.11944 7.66223 8.05457 7.85691 7.9897 8.05158L10.9737 11.0582C11.3197 11.4043 11.3197 11.9667 10.9737 12.3128Z" fill="#283942"/>
</svg>
