<svg width="15" height="15" viewBox="0 0 15 15" fill="none" xmlns="http://www.w3.org/2000/svg">
<g clip-path="url(#clip0_3244_652)">
<path d="M4.90208 0.547445C5.12424 0.454177 5.35462 0.377129 5.59323 0.328467C5.60146 0.328467 5.60969 0.328467 5.62203 0.324412C5.63437 0.320357 5.6426 0.316302 5.65494 0.312247C5.66729 0.312247 5.67551 0.308191 5.67551 0.296026C5.68374 0.271695 5.68374 0.251419 5.67551 0.227088C5.67551 0.223033 5.67551 0.214923 5.67551 0.210868C5.68374 0.194647 5.68374 0.174371 5.67551 0.158151C5.67551 0.154096 5.67551 0.145985 5.67551 0.14193C5.67551 0.129765 5.67551 0.117599 5.67551 0.105434C5.65494 0.0121654 5.70431 0 5.79071 0C6.04166 0.0081103 6.29262 0.0081103 6.54357 0C6.62997 0 6.67111 0.0202757 6.66288 0.105434C6.65465 0.170316 6.65465 0.235199 6.66288 0.300081C6.66288 0.324412 6.68756 0.324412 6.70402 0.324412C6.90972 0.364963 7.11131 0.421736 7.30878 0.498783C7.33346 0.519059 7.36226 0.527169 7.39517 0.531225C7.47745 0.571776 7.55973 0.612328 7.64201 0.652879C7.69138 0.681265 7.74075 0.709651 7.79012 0.738037C7.88063 0.80292 7.97114 0.867802 8.06164 0.93674C8.3414 1.15166 8.56767 1.4193 8.76925 1.70316C8.80628 1.77616 8.84331 1.84915 8.89268 1.91403C8.89679 1.94242 8.91325 1.96269 8.9297 1.98297C8.96261 2.06002 8.99964 2.13301 9.03255 2.21006C9.04078 2.23439 9.04489 2.25872 9.05724 2.28305C9.20945 2.66829 9.28351 3.06569 9.27528 3.47932C9.27116 3.61314 9.30819 3.69019 9.41927 3.75101C9.4275 3.75507 9.43573 3.75912 9.44395 3.76318C9.44395 3.77534 9.45218 3.77534 9.46041 3.77534C9.55503 3.85645 9.662 3.92539 9.76485 3.99432C9.80187 4.01865 9.8389 4.04704 9.87181 4.07137C9.89238 4.10787 9.85536 4.12409 9.8389 4.14031C9.71959 4.26602 9.56737 4.35523 9.4275 4.45661C9.36167 4.48094 9.30408 4.51744 9.24648 4.55393C9.20945 4.57015 9.17654 4.59043 9.13952 4.60665C9.05312 4.64315 8.96673 4.67559 8.88445 4.71208C8.51419 4.82563 8.1357 4.90673 7.75309 4.9635C7.32112 5.02839 6.88915 5.05677 6.45718 5.08516C6.38724 5.08516 6.31319 5.08516 6.24325 5.08516C6.11983 5.08516 5.99641 5.08516 5.86887 5.08516C5.81539 5.08516 5.76191 5.08516 5.70843 5.08516C5.53152 5.07299 5.35462 5.06488 5.1736 5.05272C5.09132 5.04461 5.00904 5.02839 4.92265 5.03244C4.63055 4.99189 4.33846 4.94728 4.05048 4.89051C4.00522 4.86618 3.95585 4.86618 3.90649 4.85807C3.70079 4.80535 3.4992 4.73642 3.30173 4.65126C3.12894 4.57421 2.96438 4.48094 2.80393 4.38767C2.75045 4.34712 2.69285 4.30657 2.63937 4.27007C2.61468 4.2498 2.59411 4.23358 2.56943 4.2133C2.55709 4.20519 2.54886 4.19708 2.53652 4.18897C2.51595 4.14436 2.45012 4.1322 2.46247 4.07137C2.47892 4.07137 2.49126 4.0592 2.49949 4.04704C2.64348 3.94566 2.78336 3.83617 2.93146 3.7429C3.03843 3.67802 3.0878 3.59692 3.059 3.47526C3.059 3.43877 3.059 3.40227 3.059 3.36983C3.059 3.35766 3.059 3.3455 3.059 3.33739C3.059 3.32117 3.059 3.30089 3.059 3.28467C3.07134 3.11436 3.10014 2.94809 3.13305 2.78183C3.19476 2.45742 3.32641 2.15734 3.47451 1.86131C3.51154 1.82482 3.528 1.78021 3.54857 1.73966C3.56914 1.71127 3.58559 1.68289 3.60616 1.65045C3.65965 1.58151 3.70901 1.50852 3.7625 1.43958C3.79129 1.41525 3.81598 1.38686 3.83243 1.35442C3.89003 1.29359 3.94351 1.23682 3.99699 1.17599C4.06282 1.11517 4.12453 1.05839 4.19035 0.997567C4.23149 0.973236 4.26852 0.94485 4.29732 0.912409C4.322 0.900243 4.3508 0.888078 4.36726 0.859692C4.54004 0.746148 4.71695 0.644769 4.90208 0.547445Z" fill="#283942"/>
<path d="M2.5402 14.6555C2.50317 14.619 2.46615 14.5906 2.41678 14.5663C2.37975 14.5257 2.3345 14.4933 2.28924 14.4649C2.23165 14.4081 2.17405 14.3554 2.11646 14.3027C2.08354 14.2622 2.05886 14.2216 2.00949 14.1973C1.96835 14.1446 1.93544 14.0837 1.88196 14.0391C1.83259 13.9742 1.78322 13.9094 1.73385 13.8445C1.72562 13.8201 1.70917 13.7958 1.6886 13.7755C1.63923 13.6944 1.58986 13.6093 1.54049 13.5282C1.51169 13.4755 1.4829 13.4268 1.4541 13.3741C1.44587 13.3335 1.42941 13.3011 1.40473 13.2686C1.36359 13.1632 1.31834 13.0578 1.2772 12.9523C1.27308 12.9118 1.25663 12.8793 1.24017 12.8469C1.17023 12.6036 1.10852 12.3603 1.06327 12.1089C1.06327 12.0683 1.05915 12.0237 1.04681 11.9872C1.03447 11.8696 1.02213 11.752 1.00978 11.6385C1.00978 11.5898 1.00567 11.5452 1.00567 11.4965C0.993328 11.1883 1.00156 10.8761 1.02624 10.5679C1.16612 10.4746 1.30188 10.3854 1.44176 10.2922C1.631 10.1827 1.82025 10.0772 2.00949 9.96775C2.07531 9.94342 2.13291 9.90692 2.19051 9.87042C2.21519 9.85826 2.23576 9.84609 2.26045 9.82987C2.31393 9.81365 2.35918 9.78932 2.40032 9.75688C2.61425 9.65145 2.83229 9.54196 3.04622 9.43652C3.06679 9.4568 3.05445 9.47707 3.05445 9.49735C3.05445 11.2654 3.05445 13.0334 3.05445 14.8015C3.05445 14.8177 3.05034 14.838 3.05445 14.8542C3.06268 14.915 3.04211 14.9353 2.98451 14.9069C2.83641 14.8218 2.6883 14.7366 2.5402 14.6555Z" fill="#283942"/>
<path d="M3.52015 9.58186C3.52015 9.49265 3.52015 9.40749 3.52015 9.31828C3.52838 9.28989 3.52427 9.26151 3.52015 9.23312C3.5325 9.2169 3.54895 9.21284 3.56541 9.20879C3.8863 9.10741 4.2072 9.01009 4.52397 8.90465C4.57334 8.88843 4.61448 8.88843 4.65562 8.91276C4.72556 8.96548 4.80373 9.01009 4.88601 9.03847C4.90658 9.05875 4.93949 9.06686 4.96829 9.07497C5.01766 9.10335 5.06703 9.12769 5.12051 9.13985C5.25627 9.20068 5.40026 9.23718 5.54837 9.26151C5.58539 9.28178 5.63065 9.28178 5.67179 9.28178C5.77052 9.31017 5.87337 9.31422 5.97622 9.31422C5.98857 9.31422 6.00091 9.31422 6.00914 9.31422C6.19015 9.3345 6.36705 9.32233 6.54396 9.298C6.60567 9.298 6.66326 9.298 6.72086 9.27367C6.88953 9.25745 7.0541 9.2169 7.21454 9.16824C7.44493 9.0993 7.6712 9.03036 7.8769 8.90871C7.94272 8.8641 8.00855 8.89249 8.07026 8.90871C8.18134 8.95737 8.29241 8.99792 8.40761 9.03036C8.41995 9.03036 8.42818 9.03036 8.44052 9.03442C8.45286 9.06686 8.48989 9.0628 8.51457 9.07497C8.64211 9.12363 8.77375 9.16824 8.90952 9.2169C8.79844 9.30206 8.67913 9.36694 8.58451 9.45615C8.53514 9.48048 8.494 9.52104 8.45697 9.55753C8.40349 9.58997 8.35824 9.63458 8.3171 9.68324C8.26362 9.72379 8.21425 9.7684 8.17722 9.82112C8.1402 9.84545 8.1114 9.88194 8.0826 9.91844C8.02912 9.9671 7.97975 10.0198 7.94272 10.0806C7.79462 10.251 7.6712 10.4416 7.56835 10.6403L7.56423 10.6443V10.6524C7.51075 10.7295 7.47372 10.8146 7.44081 10.9038C7.39556 10.9728 7.36676 11.0498 7.34619 11.1309C7.26802 11.3094 7.21866 11.4959 7.17752 11.6865C7.15695 11.7514 7.14049 11.8203 7.14049 11.8892C7.10758 12.015 7.09524 12.1447 7.08701 12.2745C7.08701 12.2907 7.08701 12.311 7.08289 12.3272C7.06232 12.4489 7.06232 12.5705 7.06644 12.6922C7.07055 12.7449 7.05821 12.757 7.00061 12.757C6.46168 12.753 5.92274 12.757 5.3838 12.757C4.78316 12.757 4.18251 12.757 3.58186 12.757C3.52838 12.757 3.50781 12.7489 3.51193 12.6922C3.51604 12.6151 3.51193 12.5421 3.50781 12.4651C3.51604 12.3759 3.51604 12.2907 3.50781 12.2015C3.50781 12.1123 3.50781 12.0271 3.50781 11.9379C3.51604 11.8487 3.51604 11.7635 3.50781 11.6743C3.50781 11.5851 3.50781 11.4999 3.50781 11.4107C3.51604 11.3215 3.51604 11.2364 3.50781 11.1472C3.50781 11.0579 3.50781 10.9728 3.50781 10.8836C3.51604 10.7944 3.51604 10.7092 3.50781 10.62C3.50781 10.5308 3.50781 10.4456 3.50781 10.3564C3.51604 10.2672 3.51604 10.182 3.50781 10.0928C3.50781 10.0036 3.50781 9.91844 3.50781 9.82923C3.52838 9.75623 3.52838 9.67108 3.52015 9.58186Z" fill="#283942"/>
<path d="M13.6899 14.6352C13.513 14.7568 13.3278 14.8663 13.1386 14.9636C13.0028 15.0163 13.0028 15.0163 12.9987 14.8704C12.9987 14.8622 12.9946 14.8541 12.9946 14.846C12.9946 14.7568 12.9946 14.6717 12.9946 14.5824C12.9946 14.4932 12.9946 14.4081 12.9946 14.3189C12.9946 14.2296 12.9946 14.1445 12.9946 14.0553C12.9946 13.9661 12.9946 13.8809 12.9946 13.7917C12.9946 13.7025 12.9946 13.6173 12.9946 13.5281C12.9946 13.4389 12.9946 13.3537 12.9946 13.2645C12.9946 13.1753 12.9946 13.0901 12.9946 13.0009C12.9946 12.9117 12.9946 12.8266 12.9946 12.7374C13.0111 12.5346 12.9699 12.3521 12.8342 12.194C12.8012 12.1331 12.7519 12.0885 12.6902 12.0561C12.5709 11.9547 12.4269 11.902 12.2746 11.902C11.7275 11.8939 11.1803 11.8939 10.6332 11.902C10.4521 11.906 10.2876 11.9709 10.1559 12.1007C9.97491 12.2548 9.90086 12.4535 9.90086 12.6846C9.90086 13.4227 9.90086 14.1648 9.90086 14.9028C9.90086 14.9312 9.90086 14.9596 9.90086 15.0001C9.39895 14.7811 8.98755 14.4648 8.64197 14.0593C8.49387 13.8809 8.37456 13.6903 8.26348 13.4916C8.19766 13.3294 8.13183 13.1672 8.06601 13.0009C8.04132 12.9077 8.02075 12.8144 7.99607 12.7171C7.98784 12.6603 7.97961 12.5995 7.97139 12.5427C7.94259 12.2548 7.9467 11.9709 7.99196 11.683C8.01253 11.6181 8.02487 11.5573 8.02898 11.4884C8.09892 11.2532 8.18531 11.022 8.29639 10.803C8.32108 10.7625 8.34165 10.7219 8.36633 10.6814C8.39102 10.6611 8.39924 10.6368 8.41159 10.6084C8.45684 10.5435 8.50209 10.4786 8.54323 10.4178C8.58026 10.3732 8.61729 10.3245 8.65431 10.2799C8.7078 10.2313 8.75716 10.1786 8.7983 10.1218C8.84356 10.0853 8.8847 10.0447 8.92172 10.0001C8.97521 9.95146 9.02869 9.90686 9.08217 9.85819C9.12742 9.8217 9.17679 9.7852 9.22205 9.74871C9.30021 9.69599 9.37838 9.64327 9.45243 9.59055C9.51003 9.55406 9.57174 9.51756 9.62933 9.48512C9.6499 9.48106 9.67048 9.4689 9.68282 9.45268C9.92554 9.34319 10.1683 9.22965 10.4316 9.16476C10.4604 9.15665 10.4645 9.13638 10.4604 9.11205C10.4439 8.96201 10.4275 8.81197 10.411 8.66192C10.411 8.63759 10.4069 8.61326 10.4069 8.59299C10.3781 8.30507 10.3493 8.02121 10.3205 7.7333C10.3205 7.66841 10.3205 7.60353 10.2999 7.53865C10.2876 7.30345 10.2588 7.06825 10.2341 6.83711C10.2341 6.82089 10.23 6.80467 10.23 6.78439C10.2218 6.61407 10.2094 6.44376 10.1806 6.27344C10.1806 6.26128 10.1806 6.24911 10.1765 6.241C10.1724 6.1234 10.1642 6.0058 10.1436 5.8882C10.1436 5.87198 10.1436 5.85171 10.1395 5.83549C10.1436 5.79493 10.1354 5.75438 10.123 5.71383C10.123 5.69761 10.123 5.67733 10.1189 5.66111C10.1066 5.55162 10.0983 5.43808 10.086 5.32859C10.086 5.26371 10.086 5.19477 10.0654 5.12989C10.0654 5.00823 10.0531 4.88658 10.0325 4.76493C10.0325 4.74871 10.0284 4.72843 10.0284 4.71221C10.0078 4.48512 9.98314 4.25803 9.96257 4.02689C9.96668 3.96606 9.95846 3.90929 9.94611 3.85252C9.942 3.73086 9.93377 3.60515 9.90909 3.4835C9.90909 3.46728 9.90909 3.447 9.90497 3.43078C9.90909 3.39023 9.90497 3.34968 9.89263 3.30913C9.89263 3.29291 9.89263 3.27263 9.88852 3.25641C9.8844 3.15098 9.87618 3.04554 9.85561 2.94011C9.85561 2.92389 9.85561 2.90361 9.85149 2.88739C9.83915 2.71707 9.83092 2.54676 9.80212 2.3805C9.80212 2.37644 9.80624 2.37644 9.80624 2.37239C9.80624 2.36833 9.80212 2.36428 9.80212 2.36022C9.79801 2.21829 9.78978 2.08042 9.78567 1.93849C9.79801 1.84927 9.82681 1.76411 9.82269 1.6749C9.85561 1.58569 9.89263 1.50053 9.92554 1.41132C9.97903 1.31805 10.0284 1.22072 10.0901 1.13151C10.2629 0.884147 10.4974 0.705721 10.7689 0.567846C10.8759 0.531349 10.9828 0.494853 11.0898 0.458357C11.098 0.458357 11.1022 0.458357 11.1104 0.458357C11.2791 0.42186 11.4518 0.425915 11.6246 0.425915C11.637 0.425915 11.6493 0.425915 11.6617 0.42997C11.6905 0.434026 11.7193 0.438081 11.7522 0.446191C11.7645 0.446191 11.7769 0.450246 11.7892 0.450246C11.9003 0.482687 12.0155 0.519184 12.1265 0.551625C12.143 0.559735 12.1595 0.575956 12.18 0.571901C12.1924 0.575956 12.2047 0.584066 12.2171 0.588121C12.361 0.673279 12.5009 0.758438 12.6285 0.867927C12.6573 0.896313 12.6902 0.928754 12.719 0.95714C12.83 1.09096 12.9288 1.22884 13.0069 1.37888C13.0851 1.5573 13.1345 1.74789 13.1633 1.93849C13.1633 1.97498 13.1633 2.00742 13.1674 2.04392C13.1674 2.06014 13.1674 2.08042 13.1674 2.09664C13.1674 2.11286 13.1674 2.13313 13.1633 2.14935C13.1098 2.54676 13.0728 2.94416 13.0399 3.34157C13.0316 3.39834 13.0152 3.45917 13.0234 3.51594C13.0028 3.63759 12.9905 3.75925 12.9864 3.88496C12.9864 3.89712 12.9864 3.90929 12.9823 3.9174C12.9535 4.07555 12.9452 4.2337 12.9329 4.39185C12.9329 4.41618 12.9288 4.43646 12.9288 4.46079C12.9 4.67166 12.8753 4.88253 12.863 5.09339C12.8465 5.16233 12.8383 5.23127 12.8424 5.30426C12.8136 5.46647 12.8012 5.63273 12.7889 5.79493C12.7889 5.81926 12.7848 5.83954 12.7848 5.86387C12.7642 5.95714 12.756 6.05041 12.7519 6.14773C12.7519 6.16395 12.7478 6.18423 12.7478 6.20045C12.7354 6.23289 12.7354 6.26939 12.7354 6.30588C12.7354 6.33021 12.7313 6.35049 12.7313 6.37482C12.7107 6.48025 12.6984 6.58569 12.6984 6.69112C12.6984 6.70329 12.6984 6.71545 12.6943 6.72356C12.6778 6.76817 12.6778 6.81683 12.6778 6.86549C12.6778 6.87766 12.6778 6.88982 12.6778 6.90199C12.6573 6.99931 12.649 7.10069 12.6449 7.20207C12.6449 7.21829 12.6408 7.23451 12.6408 7.25479C12.6285 7.28723 12.6243 7.32373 12.6285 7.36022C12.6243 7.38861 12.6243 7.41699 12.6202 7.44538C12.6202 7.44944 12.6202 7.45755 12.6161 7.4616C12.612 7.52648 12.6038 7.58731 12.5997 7.65219C12.5709 7.95633 12.5379 8.26452 12.5091 8.56866C12.5091 8.59299 12.505 8.61732 12.505 8.63759C12.4927 8.67003 12.4886 8.70653 12.4927 8.74303C12.4927 8.75519 12.4927 8.76736 12.4927 8.77952C12.4803 8.88496 12.4721 8.98634 12.4557 9.09177C12.4516 9.13232 12.4639 9.14449 12.5009 9.15665C12.7766 9.22559 13.0357 9.33913 13.2867 9.46079C13.3278 9.48918 13.3649 9.51756 13.4142 9.53378C13.4554 9.55811 13.4965 9.58244 13.5377 9.61083C13.5788 9.63922 13.6199 9.6676 13.6611 9.69599C13.731 9.7487 13.8009 9.80142 13.8709 9.85414C13.8915 9.87036 13.9079 9.88658 13.9285 9.9028C14.093 10.0569 14.2494 10.2191 14.3934 10.3935C14.4222 10.4462 14.4551 10.4949 14.4962 10.5354C14.5168 10.5881 14.5456 10.6287 14.5826 10.6692C14.6608 10.8274 14.7389 10.9855 14.813 11.1477C14.8418 11.241 14.8747 11.3343 14.9035 11.4275C14.9076 11.4803 14.92 11.537 14.9405 11.5857C14.9652 11.7722 14.994 11.9588 14.9981 12.1494C14.9981 12.3116 14.9776 12.4697 14.9693 12.6319C14.9076 12.8712 14.8541 13.1104 14.7513 13.3375C14.7266 13.3902 14.7019 13.4429 14.6731 13.4997C14.5662 13.6863 14.4427 13.8687 14.3152 14.0431C14.3111 14.0472 14.307 14.0553 14.2987 14.0593C14.2206 14.1404 14.1465 14.2256 14.0684 14.3067C14.0272 14.3391 13.9861 14.3675 13.9573 14.4081C13.8915 14.4608 13.8297 14.5135 13.7639 14.5662C13.731 14.5946 13.7104 14.6108 13.6899 14.6352ZM10.8594 1.85738C10.8389 1.86955 10.8347 1.88982 10.8306 1.91416C10.8306 1.92632 10.8265 1.93849 10.8265 1.95065C10.8018 2.03581 10.8389 2.10475 10.9006 2.16152C11.0363 2.29534 11.1721 2.42916 11.3079 2.56298C11.3984 2.65219 11.5012 2.65625 11.6123 2.58326C11.6575 2.55892 11.6946 2.52243 11.7234 2.48188C11.7686 2.44538 11.8098 2.40888 11.8427 2.36022C11.9003 2.31967 11.9455 2.27101 11.9908 2.21829C12.0689 2.15341 12.1471 2.08853 12.1224 1.96687C12.1265 1.96282 12.1307 1.95876 12.1265 1.95471C12.1348 1.93849 12.1224 1.93443 12.1101 1.93038C12.1183 1.88982 12.1019 1.85738 12.0731 1.829C11.9373 1.69518 11.7974 1.56136 11.6617 1.42754C11.5753 1.33427 11.4889 1.31399 11.386 1.35454C11.3531 1.36671 11.3243 1.38699 11.2996 1.41537C11.1556 1.56541 10.9911 1.69518 10.8594 1.85738Z" fill="#283942"/>
<path d="M6.40259 5.35323C6.41905 5.36134 6.43962 5.36134 6.45608 5.35323C6.56715 5.35323 6.68235 5.36945 6.79342 5.33701C6.80577 5.33701 6.81811 5.33701 6.83045 5.33701C7.00735 5.3289 7.18837 5.32079 7.36527 5.28834C7.42698 5.2924 7.48458 5.28429 7.54218 5.26807C7.72319 5.25185 7.9001 5.22752 8.077 5.18291C8.08934 5.18291 8.10168 5.17886 8.11402 5.17886C8.41023 5.13019 8.6941 5.0572 8.97385 4.95177C9.03145 4.93149 9.04379 4.94771 9.05202 4.99637C9.06436 5.05315 9.0767 5.10992 9.09316 5.16669C9.09316 5.20319 9.08905 5.23968 9.10962 5.27212C9.10962 5.28834 9.10962 5.30862 9.10962 5.32484C9.17544 5.78713 9.15487 6.24131 9.03968 6.69548C9.01499 6.77658 8.99031 6.85769 8.96151 6.93879C8.88335 7.12533 8.79284 7.30781 8.68587 7.48218C8.67353 7.50246 8.65707 7.52679 8.64473 7.54706C8.59536 7.61195 8.546 7.68088 8.49663 7.74577C8.49251 7.74982 8.4884 7.75793 8.48017 7.76199C8.4596 7.78632 8.43903 7.80659 8.42258 7.83092C8.31973 7.93636 8.21276 8.03774 8.10991 8.14317C8.03997 8.204 7.96592 8.26483 7.89598 8.3216C7.87541 8.33376 7.85484 8.34998 7.83427 8.36215C7.74788 8.41892 7.66148 8.47569 7.57509 8.52841C7.48047 8.57707 7.38584 8.62168 7.29122 8.67034C7.25008 8.68656 7.20894 8.70278 7.1678 8.72306C6.95387 8.8001 6.73171 8.84471 6.50956 8.88526C6.41905 8.89337 6.33265 8.89743 6.24215 8.90554C6.1393 8.90148 6.04056 8.90148 5.93771 8.89743C5.92948 8.89743 5.91714 8.89337 5.90891 8.89337C5.90068 8.89337 5.89657 8.89337 5.88834 8.88932C5.82663 8.88121 5.76903 8.8731 5.70732 8.86904C5.46871 8.82038 5.23833 8.7555 5.01205 8.66223C4.98326 8.64195 4.95446 8.62979 4.92155 8.62168C4.72407 8.51624 4.53483 8.39864 4.35381 8.26888C4.25919 8.18372 4.16868 8.10262 4.07406 8.01746C3.99178 7.92419 3.9095 7.83092 3.82722 7.73766C3.68323 7.55517 3.56803 7.35647 3.46107 7.14966C3.46107 7.13344 3.45696 7.12127 3.44461 7.11316C3.34176 6.86985 3.26771 6.61843 3.21423 6.3589C3.206 6.29402 3.19777 6.22914 3.18955 6.16426C3.18543 6.10343 3.18132 6.0426 3.1772 5.98178C3.16075 5.75063 3.18543 5.51949 3.21012 5.28834C3.22657 5.2559 3.23069 5.21941 3.23069 5.18291C3.25948 5.10181 3.25948 5.01259 3.30062 4.93555C3.37879 4.96393 3.44873 5.00854 3.53101 5.02476C3.71203 5.10181 3.90538 5.1383 4.09874 5.17886C4.16457 5.19508 4.22628 5.21535 4.29622 5.21535C4.44021 5.25185 4.59243 5.26807 4.74053 5.28429C4.75287 5.28429 4.76521 5.28429 4.77756 5.28429C4.80635 5.29646 4.83515 5.30051 4.86806 5.29646C4.87629 5.29646 4.88041 5.29646 4.88863 5.30051C5.01617 5.32079 5.14782 5.33701 5.27947 5.33701C5.29181 5.33701 5.30415 5.33701 5.31649 5.34106C5.67853 5.36539 6.04056 5.37756 6.40259 5.35323Z" fill="#283942"/>
</g>
<defs>
<clipPath id="clip0_3244_652">
<rect width="15" height="15" fill="white"/>
</clipPath>
</defs>
</svg>
