<svg width="25" height="25" viewBox="0 0 25 25" fill="none" xmlns="http://www.w3.org/2000/svg">
<g clip-path="url(#clip0_306_17)">
<path d="M15.0885 1.04276C15.7646 1.24978 16.2204 1.67958 16.3943 2.39067C16.4054 2.43117 16.4098 2.47393 16.4186 2.51443C16.4626 2.71696 16.4142 2.85197 16.2138 2.95323C15.9671 3.07475 15.7403 3.24352 15.5047 3.39204C15.3263 3.45054 15.1766 3.56081 15.0335 3.68007C14.1659 4.18863 13.3093 4.71519 12.4593 5.25301C12.2302 5.42178 11.977 5.46228 11.6973 5.45553C11.1094 5.44203 10.5192 5.45778 9.92909 5.46003C9.05267 5.43303 8.17846 5.43753 7.30203 5.45778C7.0466 5.45328 6.79116 5.44428 6.53792 5.44428C5.93015 5.44653 5.32458 5.45328 4.71681 5.46003C4.38651 5.42853 4.05399 5.42178 3.72809 5.45553C3.33612 5.49604 3.04985 5.70981 2.92434 6.11036C2.69973 6.73819 3.13794 7.41102 3.78975 7.42677C4.10024 7.43352 4.41073 7.42227 4.71902 7.42002C5.58002 7.42002 6.43883 7.42002 7.29983 7.42002C7.94504 7.42227 8.59024 7.42902 9.23544 7.42452C9.37638 7.42227 9.41381 7.46727 9.41161 7.60454C9.41161 8.00059 9.42262 8.39888 9.42923 8.79493C9.42923 8.97045 9.41822 9.14822 9.42923 9.3215C9.43803 9.45201 9.4006 9.48801 9.27068 9.48576C8.83687 9.48126 8.40307 9.48802 7.96706 9.49252C7.95164 9.49252 7.93623 9.49252 7.92302 9.49252C7.71602 9.48126 7.50903 9.47451 7.30203 9.49702C6.44103 9.47676 5.57782 9.47901 4.71681 9.49702C4.40632 9.49477 4.09363 9.47451 3.78534 9.49026C3.25244 9.51727 2.84506 9.96507 2.85167 10.4894C2.86048 11.0362 3.28988 11.4638 3.847 11.4683C4.13767 11.4705 4.42834 11.4638 4.71681 11.4615C5.57782 11.4615 6.43883 11.4638 7.29983 11.4638C8.01991 11.4683 8.74218 11.4728 9.46226 11.4795C9.47106 12.0961 9.44464 12.7127 9.5085 13.327C9.52612 13.5002 9.47327 13.5385 9.31252 13.5385C8.64089 13.5317 7.96926 13.5385 7.29543 13.5407C6.42341 13.5227 5.54919 13.5182 4.67718 13.543C4.36669 13.5407 4.05399 13.5182 3.7435 13.5385C3.4154 13.561 3.15115 13.723 2.9926 14.0336C2.62706 14.6704 3.04545 15.4737 3.76773 15.5075C4.08482 15.5232 4.40412 15.5052 4.72342 15.503C5.58223 15.503 6.43883 15.503 7.29763 15.5052C8.17185 15.5075 9.04607 15.5097 9.92029 15.512C10.0678 15.9328 10.2044 16.3581 10.418 16.7519C10.5214 17.0242 10.6624 17.2739 10.8121 17.5192C10.8143 17.5327 10.8165 17.5462 10.8209 17.5575C10.506 17.5642 10.1933 17.571 9.87845 17.58C9.01964 17.58 8.15864 17.5822 7.29983 17.5822C7.27781 17.5867 7.25799 17.589 7.23597 17.5935C7.19634 17.562 7.1611 17.5777 7.12807 17.6025C6.70307 17.6767 6.37717 18.0323 6.33973 18.4643C6.3001 18.9234 6.54673 19.3239 6.96292 19.4747C7.06641 19.54 7.17872 19.558 7.29763 19.549C8.17185 19.549 9.04607 19.549 9.91808 19.549C10.6778 19.5512 11.4375 19.5557 12.1972 19.5557C12.2963 19.5557 12.3888 19.5647 12.4637 19.6367C13.2256 20.4153 14.1218 20.9936 15.0819 21.4752C15.4453 21.6777 15.8108 21.8802 16.1741 22.0828C16.467 22.2763 16.4692 22.2763 16.3811 22.6386C16.2116 23.3227 15.7668 23.7367 15.1238 23.9482C14.9058 23.991 14.6855 23.991 14.4653 23.991C13.8091 23.991 13.1551 23.9955 12.4989 23.9977C11.6247 23.9977 10.7527 23.9977 9.87845 24C9.01744 24 8.15643 24 7.29543 23.9977C6.43222 23.9977 5.56901 23.9977 4.7058 23.9977C3.847 23.9977 2.9904 24 2.1316 24C2.07654 23.9977 2.02149 23.9978 1.96644 23.9955C1.93781 23.9955 1.90919 23.9955 1.88056 23.9955C1.10543 24.0045 0.521888 23.6782 0.171761 22.9581C0.035233 22.6791 0.00880824 22.3776 0.00220206 22.0715C0.00220206 21.1917 0.00220206 20.3118 0 19.432C0 18.5386 0 17.6452 0 16.7519C0 15.872 0 14.9922 0 14.1123C0 13.219 0 12.3256 0 11.4322C0 10.5524 0 9.67254 0 8.79268C0 7.89933 0 7.00597 0 6.11261C0.00880824 5.23276 0.00660618 4.3529 0.00660618 3.47305C0.037435 3.16476 -0.0110103 2.85197 0.037435 2.54368C0.180569 1.63008 0.883026 1.0135 1.78587 1.00675C1.88937 1.00675 1.99287 1.00225 2.09636 1C2.97058 1 3.847 1 4.72122 1C5.58222 1 6.44103 1 7.30203 1C8.17625 1 9.05267 1 9.92689 1.00225C10.7857 1.00225 11.6467 1 12.5055 1C12.6024 1.00225 12.6993 1.0045 12.794 1.00675C13.5603 1.02475 14.3266 0.968496 15.0885 1.04276Z" fill="white"/>
<path d="M25.0013 8.79654C24.9991 9.07557 24.9947 9.35686 24.9925 9.63589C24.9705 9.67864 24.9683 9.71915 24.9903 9.76191C24.9529 10.3177 24.9595 10.8758 24.9639 11.4339C24.9397 12.298 24.9661 13.1666 24.8141 14.0217C24.6358 14.9893 24.2878 15.8939 23.8254 16.7535C23.5369 17.2148 23.2242 17.6581 22.8763 18.0744C22.4315 18.5627 21.9404 18.997 21.4142 19.3886C21.0376 19.6136 20.661 19.8409 20.2823 20.0659C19.5732 20.4552 18.8598 20.84 18.1551 21.2405C18.012 21.3215 17.8975 21.3463 17.7631 21.2563C16.9065 20.7635 16.0433 20.2797 15.1691 19.8206C14.9181 19.6653 14.6692 19.5101 14.4182 19.3548C13.7224 18.8035 13.0816 18.1959 12.5465 17.4781C12.3835 17.235 12.2492 16.9718 12.0554 16.749C12.051 16.722 12.0532 16.6905 12.04 16.6657C11.5886 15.8691 11.2957 15.0118 11.1019 14.1162C11.0028 13.4861 10.95 12.8515 10.9566 12.2124C10.9588 11.9514 10.9434 11.6904 10.9345 11.4294C10.9235 10.554 10.9125 9.67864 10.9037 8.80329C10.9037 8.60527 10.9191 8.40724 10.9015 8.21147C10.8839 8.0337 10.9412 7.93469 11.0931 7.84468C11.5709 7.56339 12.0356 7.26411 12.5068 6.97157C12.9582 6.71504 13.4053 6.44726 13.8369 6.15697C14.2927 5.90719 14.7331 5.63266 15.1691 5.34463C16.0169 4.82706 16.8669 4.3095 17.7147 3.79194C17.8843 3.65017 18.0318 3.69518 18.2102 3.80769C18.9104 4.24875 19.6239 4.66955 20.3329 5.0971C20.8769 5.45489 21.4318 5.79243 21.9977 6.11422C22.2928 6.31899 22.5989 6.50352 22.9138 6.67454C22.9336 6.68579 22.9512 6.69704 22.971 6.70829C22.9732 6.72179 22.9798 6.72629 22.9908 6.72404C23.6118 7.10659 24.2328 7.49138 24.856 7.86943C24.9639 7.93469 25.0123 8.00444 25.0057 8.13721C24.9925 8.35774 24.9991 8.57601 25.0013 8.79654ZM14.0439 14.0712C14.2575 14.6877 14.6142 15.2076 15.0898 15.6441C15.8253 16.3552 16.6995 16.7377 17.7103 16.7895C18.6704 16.848 19.549 16.6117 20.3351 16.0357C21.0354 15.5586 21.5375 14.9218 21.8436 14.1207C22.1276 13.4636 22.2113 12.7773 22.1386 12.0684C22.1166 11.8547 22.1188 11.6296 21.9955 11.4361C21.9955 11.3956 22.0065 11.3506 21.9955 11.3123C21.7092 10.3335 21.1675 9.54138 20.3329 8.96981C20.2074 8.85955 20.0709 8.77179 19.9168 8.71328C19.2319 8.31498 18.492 8.16871 17.7103 8.21372C17.0717 8.24747 16.4705 8.41624 15.9178 8.75153C15.6227 8.9023 15.3563 9.09358 15.1251 9.33435C14.4931 9.90142 14.0813 10.6035 13.8831 11.4361C13.6519 12.3317 13.6937 13.2116 14.0439 14.0712Z" fill="white"/>
<path d="M19.646 11.3184C19.6416 11.9102 19.3994 12.3738 18.9303 12.7158C18.7057 12.8778 18.4921 13.0376 18.3358 13.2829C18.186 13.5169 17.9416 13.5687 17.7038 13.4112C17.477 13.2604 17.3999 13.0331 17.5254 12.7743C17.6928 12.4323 17.946 12.169 18.2653 11.9665C18.6375 11.7325 18.7498 11.4602 18.6375 11.1271C18.5141 10.7626 18.2191 10.5781 17.8381 10.6231C17.51 10.6636 17.281 10.9291 17.2325 11.3207C17.1885 11.6785 17.0123 11.8495 16.7084 11.8315C16.4112 11.8135 16.2592 11.6132 16.2658 11.2464C16.2812 10.3598 17.052 9.61721 17.9548 9.61721C18.8841 9.61271 19.6394 10.3733 19.646 11.3184Z" fill="white"/>
<path d="M17.9766 14.0665C18.3355 14.0732 18.6174 14.3702 18.6086 14.7393C18.602 15.1038 18.2959 15.4076 17.948 15.3964C17.6111 15.3874 17.294 15.0476 17.305 14.71C17.3138 14.35 17.6155 14.062 17.9766 14.0665Z" fill="white"/>
</g>
<defs>
<clipPath id="clip0_306_17">
<rect width="25" height="25" fill="white"/>
</clipPath>
</defs>
</svg>
