<svg width="25" height="25" viewBox="0 0 25 25" fill="none" xmlns="http://www.w3.org/2000/svg">
<g clip-path="url(#clip0_306_11)">
<path d="M0.00172141 12.4459C0.00172141 9.03066 -0.00172141 5.6171 0.00172141 2.20185C0.00516422 0.610322 0.617985 0.00354266 2.23439 0.00354266C7.02162 0.00015283 11.8089 -0.00154208 16.5961 0.00184775C18.2452 0.00354266 18.8838 0.627272 18.8924 2.24422C18.9011 3.71202 18.8546 5.17981 18.9114 6.64592C18.9372 7.3171 18.6979 7.49846 18.0817 7.41541C17.8286 7.38151 17.5635 7.43405 17.3088 7.40524C16.6684 7.33066 16.2862 7.53575 15.9729 8.15269C15.5202 9.03914 14.6423 9.46286 13.6525 9.54253C12.9536 9.60015 12.7625 9.88998 12.7574 10.5663C12.7212 15.0035 14.6991 18.412 18.1936 21.0663C18.8873 21.5934 19.142 22.7324 18.7857 23.7849C18.5275 24.5459 17.863 24.9968 16.9214 24.9985C11.9345 25.0035 6.94588 25.0035 1.95896 24.9917C0.698891 24.9883 0.0120499 24.2917 0.00860704 23.0307C-0.00516422 19.5018 0.00172141 15.973 0.00172141 12.4459ZM8.11988 19.529C9.86366 19.529 11.6075 19.529 13.353 19.529C13.6972 19.529 14.1207 19.5781 14.1276 19.1002C14.1345 18.6171 13.7093 18.6612 13.365 18.6612C9.81891 18.6612 6.27453 18.6629 2.72843 18.6629C2.38415 18.6629 1.95724 18.6205 1.95208 19.0917C1.94691 19.5612 2.36694 19.5324 2.71638 19.5324C4.51697 19.529 6.31929 19.529 8.11988 19.529ZM8.1216 21.7103C6.31929 21.7103 4.51869 21.7103 2.71638 21.7103C2.3721 21.7103 1.94347 21.6713 1.94863 22.1476C1.9538 22.612 2.37382 22.5832 2.72327 22.5832C6.26937 22.5815 9.81547 22.5815 13.3616 22.5815C13.7058 22.5815 14.1259 22.6222 14.1241 22.1408C14.1224 21.6476 13.6904 21.7137 13.3547 21.7137C11.6109 21.7086 9.86711 21.7103 8.1216 21.7103ZM6.6498 6.44931C5.3071 6.44931 3.9644 6.451 2.6217 6.44761C2.28775 6.44761 1.93486 6.47981 1.94691 6.89507C1.95896 7.30185 2.31013 7.32558 2.64408 7.32558C5.30021 7.32219 7.95807 7.32049 10.6142 7.32727C10.9671 7.32897 11.2907 7.26286 11.2873 6.87134C11.2838 6.46117 10.9258 6.44422 10.5918 6.44592C9.27839 6.451 7.96495 6.44931 6.6498 6.44931ZM6.65152 9.50354C5.33292 9.50354 4.0126 9.50354 2.694 9.50354C2.34456 9.50354 1.93142 9.47981 1.9538 9.96795C1.97273 10.3764 2.34284 10.3747 2.67162 10.3747C5.31054 10.3713 7.94774 10.3696 10.5867 10.3764C10.9327 10.3781 11.2769 10.3374 11.289 9.94422C11.301 9.53744 10.9516 9.49846 10.6073 9.50015C9.28871 9.50863 7.97012 9.50354 6.65152 9.50354ZM6.56717 16.4815C7.8806 16.4815 9.19404 16.4764 10.5092 16.4849C10.869 16.4866 11.2821 16.4866 11.2924 16.0476C11.3045 15.5883 10.881 15.6052 10.5281 15.6052C7.9288 15.6086 5.32948 15.6069 2.73187 15.6086C2.39103 15.6086 1.96068 15.5578 1.95552 16.0324C1.94863 16.4968 2.36177 16.4832 2.71466 16.4832C3.99711 16.4798 5.28128 16.4815 6.56717 16.4815ZM6.62914 13.4256C7.94774 13.4256 9.26806 13.4188 10.5867 13.4307C10.9378 13.4341 11.2735 13.3849 11.2873 12.9951C11.301 12.5849 10.9499 12.5476 10.609 12.5476C7.97012 12.551 5.33292 12.5493 2.694 12.5493C2.34628 12.5493 1.93142 12.5307 1.9538 13.0171C1.97445 13.4239 2.34284 13.4273 2.67162 13.4256C3.99194 13.4239 5.31054 13.4256 6.62914 13.4256ZM15.2276 3.13236C14.8316 2.80524 14.6681 2.351 14.4082 1.96625C14.2722 1.76625 14.1087 1.61371 13.8453 1.6832C13.5991 1.74761 13.5888 1.9527 13.5905 2.15778C13.5922 2.9171 13.5905 3.67812 13.5922 4.43744C13.5922 4.6527 13.6473 4.84592 13.9141 4.83405C14.15 4.82388 14.2687 4.66625 14.2722 4.44083C14.2791 4.03236 14.2739 3.62219 14.2739 3.14422C14.7249 3.41032 14.7215 4.05778 15.2086 4.02558C15.6252 3.99846 15.651 3.39168 16.0848 3.13914C16.0848 3.651 16.0642 4.07303 16.0934 4.49168C16.1072 4.69337 16.2466 4.86625 16.4945 4.83236C16.6942 4.80524 16.7734 4.64422 16.7751 4.46286C16.782 3.67473 16.7837 2.88659 16.782 2.09846C16.782 1.92388 16.739 1.76286 16.541 1.69676C16.3189 1.62049 16.1468 1.69337 16.0263 1.87642C15.7629 2.27812 15.5116 2.6849 15.2276 3.13236ZM3.82669 4.92727C4.02121 4.86964 4.3104 4.82219 4.56173 4.70015C4.77346 4.59846 5.09537 4.47303 4.95077 4.151C4.79928 3.81032 4.54107 3.97134 4.3104 4.10524C3.81464 4.39168 3.36363 4.31371 3.02107 3.86964C2.71122 3.46625 2.73015 3.01202 3.04173 2.6171C3.36535 2.20693 3.79398 2.14083 4.26393 2.38998C4.49115 2.51032 4.74764 2.68151 4.91634 2.34592C5.08159 2.0188 4.78207 1.8849 4.56689 1.7849C3.8835 1.46964 3.21042 1.53575 2.6458 2.02727C2.107 2.49507 1.94863 3.11541 2.17758 3.79507C2.42374 4.52727 3.00213 4.83575 3.82669 4.92727ZM11.3992 4.32897C11.0325 3.55778 10.6538 2.64592 10.1701 1.79337C9.96351 1.42897 9.59513 1.61032 9.43503 1.93744C9.05116 2.72219 8.69827 3.52049 8.34366 4.3171C8.25931 4.50524 8.23005 4.71202 8.47965 4.8171C8.67245 4.89846 8.79467 4.77303 8.91 4.64083C9.55037 3.90693 10.1425 3.90863 10.807 4.651C10.9292 4.78659 11.0497 4.89337 11.2425 4.8171C11.4026 4.75439 11.4147 4.61202 11.3992 4.32897ZM5.62728 3.22727C5.64105 5.12219 5.47408 4.80863 7.01646 4.80863C7.32803 4.80863 7.90815 5.07303 7.90298 4.50354C7.89954 4.04592 7.34697 4.22049 7.05433 4.24253C6.48626 4.2832 6.28142 4.09846 6.34339 3.54083C6.38642 3.151 6.34855 2.751 6.35199 2.35609C6.35544 2.06964 6.38642 1.70354 6.0146 1.68659C5.54293 1.66625 5.6531 2.09676 5.63245 2.38151C5.61351 2.66117 5.629 2.94422 5.62728 3.22727ZM12.7539 3.21541C12.7539 2.8527 12.7505 2.48829 12.7556 2.12558C12.7591 1.87134 12.6851 1.66964 12.389 1.67981C12.148 1.68829 12.0653 1.85778 12.0653 2.0832C12.0671 2.86625 12.0653 3.64761 12.0619 4.43066C12.0619 4.651 12.1376 4.83405 12.3821 4.83744C12.6678 4.84083 12.7591 4.64761 12.7556 4.38829C12.7505 3.99676 12.7539 3.60524 12.7539 3.21541Z" fill="white"/>
<path d="M19.3667 8.32065C19.5388 8.32065 19.711 8.32913 19.8831 8.31896C20.9125 8.26133 21.8627 8.23591 22.5169 9.32235C22.8904 9.94438 23.6909 10.2274 24.4328 10.3478C24.932 10.4291 25.0077 10.6495 24.9991 11.0783C24.9286 14.7715 23.2571 17.6817 20.4236 19.9749C19.1928 20.9698 19.5853 21.0495 18.265 19.9901C15.5193 17.7851 13.8909 14.9749 13.674 11.4376C13.6361 10.8223 13.6688 10.4088 14.4693 10.2766C15.361 10.1291 16.1236 9.60031 16.6073 8.83252C16.8775 8.40201 17.1857 8.29353 17.6487 8.31387C18.2185 8.34099 18.7935 8.32065 19.3667 8.32065ZM18.6626 14.902C18.3218 14.4647 18.0378 14.0817 17.7313 13.7156C17.5403 13.4901 17.2958 13.4529 17.0583 13.6596C16.8465 13.8444 16.8758 14.0562 17.0325 14.2613C17.4284 14.7783 17.8243 15.2952 18.2271 15.8071C18.4664 16.1105 18.7573 16.1562 19.019 15.8579C20.0983 14.6173 21.1638 13.3647 22.2328 12.1139C22.4084 11.9088 22.4032 11.6986 22.2036 11.5139C22.0039 11.3291 21.7853 11.3444 21.5942 11.5223C21.4496 11.6562 21.3239 11.8139 21.1948 11.963C20.3651 12.9257 19.5388 13.8851 18.6626 14.902Z" fill="white"/>
<path d="M9.46094 3.39815C9.58316 3.13035 9.70193 2.87103 9.90678 2.42188C9.99285 2.90493 10.3165 3.1456 10.1633 3.42357C10.0324 3.65916 9.7312 3.56933 9.46094 3.39815Z" fill="white"/>
</g>
<defs>
<clipPath id="clip0_306_11">
<rect width="25" height="25" fill="white"/>
</clipPath>
</defs>
</svg>
