<svg width="25" height="25" viewBox="0 0 25 25" fill="none" xmlns="http://www.w3.org/2000/svg">
<path d="M4.91631 0C9.9712 0 15.0261 0 20.081 0C20.673 0.392893 20.8514 0.933433 20.8476 1.64039C20.8223 7.44745 20.8273 13.2533 20.845 19.0603C20.8463 19.5971 20.7071 19.99 20.3226 20.3816C18.8324 21.9019 17.3777 23.4572 15.9103 25C12.2456 25 8.58098 25 4.91631 25C4.3167 24.6109 4.1472 24.0666 4.14973 23.3621C4.17123 16.0998 4.17123 8.83759 4.14846 1.57407C4.14593 0.87963 4.35086 0.377878 4.91631 0ZM12.5417 12.2948C10.9857 12.2948 9.42978 12.2935 7.87385 12.296C7.45387 12.296 7.03263 12.2973 6.61266 12.3123C6.34954 12.3211 6.16106 12.4399 6.1813 12.7327C6.19901 12.993 6.39381 13.0693 6.62025 13.0868C6.74548 13.0968 6.87198 13.0906 6.99848 13.0906C10.6783 13.0918 14.3582 13.0931 18.038 13.0918C18.205 13.0918 18.3758 13.0881 18.5377 13.0518C18.7148 13.0118 18.8299 12.8891 18.8248 12.6927C18.8198 12.5025 18.7199 12.3699 18.5326 12.3411C18.3264 12.3098 18.1152 12.2985 17.9052 12.2985C16.1152 12.2935 14.3278 12.2948 12.5417 12.2948ZM12.462 9.96872C14.2709 9.96872 16.0798 9.97873 17.8888 9.95996C18.2265 9.95621 18.7869 10.1502 18.797 9.59459C18.8071 8.98649 18.2151 9.18418 17.866 9.18293C14.2481 9.16542 10.6303 9.16917 7.01239 9.17042C6.82517 9.17042 6.63416 9.18544 6.45074 9.22047C6.26352 9.25676 6.17118 9.39314 6.17118 9.58333C6.17118 9.78103 6.29767 9.90115 6.46971 9.93619C6.65187 9.97372 6.84541 9.96622 7.03516 9.96622C8.84409 9.96872 10.653 9.96747 12.462 9.96872ZM12.4986 10.7495C11.1097 10.7495 9.71946 10.7495 8.33051 10.7495C7.76253 10.7495 7.19329 10.7482 6.62531 10.7533C6.35586 10.7558 6.17118 10.8771 6.18636 11.1649C6.20027 11.4252 6.39761 11.5015 6.6291 11.5078C6.77584 11.5115 6.92384 11.509 7.07058 11.509C10.481 11.509 13.8914 11.509 17.3031 11.509C17.6611 11.509 18.019 11.509 18.377 11.5078C18.6149 11.5065 18.8021 11.4227 18.816 11.1637C18.8312 10.8721 18.6389 10.7645 18.3732 10.7545C18.2265 10.7495 18.0785 10.7508 17.9318 10.7508C16.119 10.7495 14.3088 10.7495 12.4986 10.7495ZM12.5619 13.8751C10.6669 13.8751 8.77072 13.8726 6.87577 13.8776C6.57344 13.8789 6.16865 13.8051 6.19142 14.2855C6.21166 14.7185 6.59495 14.6309 6.87324 14.6309C10.6214 14.6346 14.3708 14.6334 18.119 14.6296C18.4226 14.6296 18.8312 14.7047 18.8071 14.2292C18.7869 13.8201 18.4125 13.8764 18.1215 13.8751C16.2683 13.8751 14.4151 13.8764 12.5619 13.8751ZM9.7182 20.2928C9.71694 19.3594 8.87698 18.5373 7.93836 18.5485C6.96812 18.5611 6.17118 19.3481 6.16612 20.2978C6.15979 21.2838 6.97824 22.0858 7.97505 22.0683C8.93517 22.0533 9.71947 21.2538 9.7182 20.2928ZM19.5193 19.9137C18.4175 19.9137 17.5181 19.9162 16.6174 19.9124C16.3037 19.9112 16.0672 20.015 16.0646 20.3579C16.0545 21.3826 16.0608 22.4074 16.0608 23.6061C17.2563 22.3311 18.3277 21.1862 19.5193 19.9137ZM18.286 5.04129C18.286 5.30781 18.2885 5.57432 18.2847 5.84084C18.2809 6.09985 18.3631 6.31256 18.6528 6.32007C18.9349 6.32758 19.0601 6.12988 19.0614 5.86962C19.0665 5.14264 19.0627 4.41567 19.0614 3.68869C19.0614 3.48348 18.9842 3.31582 18.7717 3.25951C18.5718 3.20696 18.4011 3.27452 18.2771 3.44469C18.0709 3.72873 17.8622 4.01026 17.6269 4.32933C17.403 4.01652 17.2107 3.745 17.0159 3.47723C16.8983 3.31582 16.7528 3.20195 16.5365 3.25951C16.3164 3.31832 16.2531 3.49099 16.2519 3.69119C16.2481 4.41817 16.2481 5.14515 16.2493 5.87212C16.2506 6.13363 16.3619 6.33759 16.6491 6.32257C16.9261 6.30881 17.0298 6.0986 17.0311 5.84084C17.0324 5.57933 17.0311 5.31907 17.0311 4.87487C17.4751 5.56807 17.842 5.47673 18.286 5.04129ZM9.83078 16.2162C9.83078 16.215 9.83078 16.215 9.83078 16.2137C10.82 16.2137 11.8092 16.2137 12.7984 16.2137C13.102 16.2137 13.4613 16.2125 13.4689 15.8271C13.4765 15.4354 13.116 15.4279 12.8124 15.4267C10.8124 15.4254 8.81373 15.4242 6.81379 15.4267C6.51525 15.4267 6.16612 15.4242 6.18256 15.8446C6.19774 16.2162 6.52411 16.2125 6.79987 16.2137C7.80933 16.2187 8.82006 16.2162 9.83078 16.2162ZM11.7485 5.0025C11.7485 5.27277 11.7536 5.54304 11.7472 5.81206C11.7397 6.1036 11.8573 6.32257 12.1622 6.32257C12.4442 6.32257 12.553 6.09985 12.5239 5.84209C12.4835 5.47798 12.6821 5.43794 12.9781 5.44294C13.2576 5.44795 13.4803 5.45045 13.4499 5.82833C13.4271 6.11236 13.565 6.34259 13.8762 6.31882C14.1874 6.29379 14.2481 6.03353 14.2469 5.76201C14.2431 5.3466 14.2469 4.93118 14.2456 4.51577C14.2431 3.58358 13.9192 3.24074 13.035 3.23824C12.0901 3.23448 11.7536 3.56732 11.7472 4.5045C11.746 4.67092 11.7472 4.83609 11.7485 5.0025ZM7.52977 3.247C7.52977 3.24449 7.52977 3.24199 7.52977 3.23824C7.42478 3.23824 7.31978 3.24449 7.21479 3.23699C6.58989 3.19444 6.13955 3.44094 5.96498 4.04655C5.71704 4.9049 5.94854 5.87212 6.44441 6.17117C6.55067 6.23498 6.67338 6.30255 6.79228 6.30881C7.25274 6.33383 7.7132 6.34885 8.17365 6.33759C8.40261 6.33133 8.57718 6.19369 8.57086 5.94219C8.56453 5.68318 8.37099 5.58433 8.14582 5.57307C7.85234 5.55681 7.5576 5.55556 7.26412 5.57432C6.85047 5.6006 6.68729 5.41166 6.71006 5.01877C6.72018 4.8536 6.71386 4.68594 6.71006 4.52077C6.69994 4.17042 6.82644 3.97397 7.22491 3.999C7.55887 4.02027 7.89662 4.00776 8.23184 3.98774C8.45068 3.97397 8.57465 3.82508 8.57212 3.61236C8.56959 3.39965 8.44689 3.26076 8.22299 3.25075C7.99276 3.23949 7.76127 3.247 7.52977 3.247ZM9.20968 4.7485C9.23877 6.37387 8.92885 6.37012 10.486 6.3526C10.8263 6.34885 11.3184 6.45771 11.3197 5.95596C11.3222 5.42793 10.8074 5.56306 10.4873 5.58433C10.0344 5.61562 9.95855 5.41542 9.98132 5.03629C10.0066 4.6021 9.98385 4.16542 9.98511 3.72998C9.98638 3.47472 9.91554 3.26201 9.617 3.25325C9.28431 3.24449 9.20335 3.46847 9.20841 3.7525C9.21474 4.08534 9.21094 4.41692 9.20968 4.7485ZM15.6459 4.75851C15.6459 4.40691 15.6535 4.05405 15.6434 3.70245C15.6371 3.44845 15.5346 3.24575 15.2399 3.25325C14.9426 3.26201 14.8667 3.47347 14.8654 3.72623C14.8654 4.43068 14.868 5.13388 14.8654 5.83834C14.8642 6.09484 14.9439 6.31632 15.231 6.32007C15.5435 6.32382 15.6472 6.0961 15.6472 5.81331C15.6459 5.46171 15.6472 5.11011 15.6459 4.75851Z" fill="white"/>
<path d="M1 3.37518C1.52623 2.81837 2.2321 2.70201 2.94429 2.60441C3.13024 2.57938 3.39336 2.41297 3.39083 2.7946C3.38956 3.0411 3.5072 3.36142 3.05687 3.38769C2.80767 3.40271 2.56352 3.49155 2.31432 3.53033C1.89814 3.5954 1.76785 3.79435 1.85387 4.22228C2.28396 6.36317 2.63942 8.52032 3.11632 10.6512C3.48317 12.2916 3.35288 13.9282 3.40095 15.5686C3.34655 15.5761 3.29342 15.5836 3.23903 15.5911C3.08343 14.8129 2.92405 14.0358 2.77478 13.2576C2.25613 10.5611 1.74381 7.86467 1.21631 5.16947C1.18089 4.98679 1.2277 4.7453 1 4.62518C1 4.20851 1 3.79185 1 3.37518Z" fill="white"/>
<path d="M24.0031 4.62369C23.6312 5.20177 23.6565 5.88245 23.5287 6.51684C22.9417 9.42975 22.4016 12.3514 21.8412 15.2681C21.8197 15.3782 21.845 15.5233 21.6375 15.5847C21.5654 13.6903 21.5945 11.8322 22.0183 9.97905C22.4535 8.0759 22.7545 6.14271 23.1492 4.22955C23.2479 3.75157 23.0733 3.57765 22.6457 3.51258C22.3978 3.47505 22.1524 3.41373 21.9045 3.3762C21.4655 3.31113 21.6186 2.97455 21.6236 2.73931C21.6312 2.40773 21.8741 2.56414 22.0398 2.59542C22.7697 2.73431 23.5591 2.74807 24.0031 3.49632C24.0031 3.8742 24.0031 4.24957 24.0031 4.62369Z" fill="white"/>
<path d="M19.5229 19.9153C18.3313 21.1878 17.2599 22.3315 16.0645 23.6078C16.0645 22.4091 16.0581 21.3843 16.0682 20.3595C16.072 20.0154 16.3073 19.9128 16.621 19.9141C17.5217 19.9178 18.4211 19.9153 19.5229 19.9153Z" fill="white"/>
<path d="M8.944 20.3412C8.92882 20.868 8.44433 21.2997 7.89406 21.2746C7.36023 21.2509 6.94405 20.8279 6.94532 20.3112C6.94658 19.7656 7.38933 19.3427 7.95478 19.3477C8.49872 19.3527 8.95791 19.8144 8.944 20.3412Z" fill="white"/>
<path d="M12.9286 4.64659C12.8211 4.62156 12.5226 4.77171 12.5314 4.37632C12.5378 4.07727 12.6984 3.98968 12.9717 4.00094C13.2057 4.01095 13.4283 3.98718 13.4536 4.32627C13.4789 4.68913 13.2538 4.66911 12.9286 4.64659Z" fill="white"/>
</svg>
