<svg width="25" height="25" viewBox="0 0 25 25" fill="none" xmlns="http://www.w3.org/2000/svg">
<path d="M21.4272 0.600298C21.4272 0.0841797 21.3452 0.00138 20.8425 0C14.8804 0 8.91826 0 2.95748 0.00138C2.47094 0.00138 2.38492 0.0869397 2.38492 0.580978C2.38492 8.56287 2.38627 16.5461 2.38089 24.5294C2.37955 24.7309 2.41853 24.8799 2.5153 25H14.0256C16.2983 25 18.5711 25 20.8439 24.9986C21.2968 24.9986 21.3815 24.9131 21.3815 24.4563V19.0909H21.4285V8.48973C21.4285 5.86084 21.4285 3.22919 21.4272 0.600298ZM19.5872 8.48973H19.5697V19.0909H19.5872V23.0335H4.55554V1.84367H19.5872V8.48973Z" fill="#417DCC"/>
<path d="M4.94141 2.38574V22.4909H19.2029V2.38574H4.94141ZM17.4113 14.7395H16.5216V11.0756H17.4113V14.7395Z" fill="#417DCC"/>
</svg>
