<svg width="25" height="25" viewBox="0 0 25 25" fill="none" xmlns="http://www.w3.org/2000/svg">
<path d="M23.6094 12.3099L15.934 19.9948C15.4113 20.52 12.6203 22.4379 12.0909 21.9085C11.5616 21.3792 13.4937 18.6009 14.0178 18.0756L21.6932 10.3907C21.9493 10.1385 22.2922 9.99824 22.6485 10C23.0049 10.0018 23.3464 10.1454 23.6 10.4002C23.7258 10.5239 23.8259 10.6719 23.8946 10.8355C23.9633 10.9991 23.9991 11.1751 24 11.3531C24.0009 11.531 23.9667 11.7073 23.8997 11.8717C23.8326 12.036 23.7339 12.185 23.6094 12.3099Z" fill="#0ABC51"/>
<path d="M17.0999 1H1.90007C1.39098 1.00573 0.90508 1.2013 0.548912 1.54383C0.192744 1.88636 -0.00462493 2.34789 8.23076e-05 2.82722V22.1728C-0.00462493 22.6521 0.192744 23.1136 0.548912 23.4562C0.90508 23.7987 1.39098 23.9943 1.90007 24H17.0999C17.609 23.9943 18.0949 23.7987 18.4511 23.4562C18.8073 23.1136 19.0046 22.6521 18.9999 22.1728V18.6972L17.1135 20.4733C17.0864 20.4989 14.4942 22.7222 12.5671 22.7222C12.3419 22.7299 12.1174 22.6941 11.9074 22.6172C11.6974 22.5403 11.5062 22.4239 11.3457 22.275C10.26 21.24 11.2643 19.6172 11.6986 18.9144C12.1493 18.1811 12.6767 17.492 13.2728 16.8572L18.9999 11.465V2.82722C19.0046 2.34789 18.8073 1.88636 18.4511 1.54383C18.0949 1.2013 17.609 1.00573 17.0999 1ZM4.11219 3.55556H10.8571C11.2171 3.55556 11.5623 3.69018 11.8168 3.92981C12.0713 4.16944 12.2143 4.49445 12.2143 4.83333C12.2143 5.17222 12.0713 5.49723 11.8168 5.73686C11.5623 5.97649 11.2171 6.11111 10.8571 6.11111H4.11219C3.75226 6.11111 3.40706 5.97649 3.15255 5.73686C2.89804 5.49723 2.75506 5.17222 2.75506 4.83333C2.75506 4.49445 2.89804 4.16944 3.15255 3.92981C3.40706 3.69018 3.75226 3.55556 4.11219 3.55556ZM9.5 16.3461L4.07148 16.3333C3.88277 16.3512 3.69219 16.3316 3.51203 16.2758C3.33187 16.22 3.16612 16.1293 3.02548 16.0095C2.88484 15.8897 2.77242 15.7435 2.69549 15.5803C2.61855 15.4171 2.5788 15.2405 2.5788 15.0619C2.5788 14.8834 2.61855 14.7068 2.69549 14.5436C2.77242 14.3804 2.88484 14.2342 3.02548 14.1144C3.16612 13.9946 3.33187 13.9039 3.51203 13.8481C3.69219 13.7923 3.88277 13.7727 4.07148 13.7906H9.5C9.85993 13.7906 10.2051 13.9252 10.4596 14.1648C10.7141 14.4044 10.8571 14.7294 10.8571 15.0683C10.8571 15.4072 10.7141 15.7322 10.4596 15.9719C10.2051 16.2115 9.85993 16.3461 9.5 16.3461ZM14.9285 11.2222H4.07148C3.71154 11.2222 3.36635 11.0876 3.11184 10.848C2.85733 10.6083 2.71434 10.2833 2.71434 9.94444C2.71434 9.60556 2.85733 9.28055 3.11184 9.04092C3.36635 8.80129 3.71154 8.66667 4.07148 8.66667H14.9285C15.2885 8.66667 15.6337 8.80129 15.8882 9.04092C16.1427 9.28055 16.2857 9.60556 16.2857 9.94444C16.2857 10.2833 16.1427 10.6083 15.8882 10.848C15.6337 11.0876 15.2885 11.2222 14.9285 11.2222Z" fill="#0ABC51"/>
</svg>
