<svg width="25" height="25" viewBox="0 0 25 25" fill="none" xmlns="http://www.w3.org/2000/svg">
<mask id="mask0_3104_27701" style="mask-type:luminance" maskUnits="userSpaceOnUse" x="2" y="2" width="22" height="20">
<path d="M23.7566 2.5H2.5V21.25H23.7566V2.5Z" fill="white"/>
</mask>
<g mask="url(#mask0_3104_27701)">
<path d="M23.7582 15.3181C23.705 15.506 23.6662 15.6979 23.5885 15.8795C23.5401 15.9921 23.4727 16.077 23.3688 16.1452C22.1429 16.9477 20.9193 17.7533 19.6949 18.5582C18.825 19.1299 17.9528 19.7001 17.0844 20.275C16.7585 20.4907 16.393 20.5938 16.0187 20.6747C15.4144 20.8047 14.8015 20.8689 14.1853 20.9126C13.6104 20.9538 13.0355 20.9744 12.4598 20.9871C12.1188 20.9942 11.7778 20.999 11.4368 20.9934C10.5487 20.9784 9.66374 20.9292 8.78354 20.7968C7.97312 20.6755 7.17617 20.4986 6.39349 20.2576C6.33562 20.2393 6.31737 20.2187 6.33402 20.1576C6.38477 19.9689 6.39825 19.7754 6.39825 19.5811C6.39985 17.5947 6.39985 15.6083 6.39667 13.6211C6.39667 13.5331 6.4268 13.5101 6.50532 13.5014C7.21185 13.4252 7.88907 13.5204 8.5282 13.8424C8.65905 13.9082 8.7891 13.978 8.90487 14.0668C9.43062 14.4704 10.0325 14.7154 10.6558 14.916C11.1752 15.0826 11.7041 15.2079 12.2489 15.2562C12.4867 15.2776 12.7262 15.2578 12.9649 15.2554C13.7404 15.2467 14.5073 15.2911 15.2027 15.69C15.4747 15.8454 15.7292 16.027 15.9085 16.2927C16.1567 16.659 16.048 17.0198 15.8006 17.3172C15.7578 17.3687 15.6872 17.3719 15.6254 17.3846C15.4224 17.4266 15.2154 17.4385 15.0092 17.448C14.5858 17.4679 14.1615 17.4623 13.7381 17.4583C13.4011 17.4552 13.0632 17.4385 12.7262 17.4306C12.5494 17.4266 12.4328 17.5234 12.4304 17.6709C12.4281 17.8176 12.5462 17.9183 12.7207 17.9191C13.0997 17.9199 13.478 17.9365 13.857 17.946C14.405 17.9595 14.9513 17.9579 15.4969 17.9016C15.6079 17.8905 15.7173 17.8683 15.8252 17.8406C15.9941 17.7969 16.1297 17.7081 16.2328 17.5614C16.4041 17.3164 16.5286 17.0571 16.5389 16.7534C16.5405 16.7058 16.5714 16.6963 16.6015 16.6812C16.9266 16.5139 17.2526 16.3466 17.5777 16.1793C18.6672 15.6194 19.756 15.0588 20.8455 14.4989C21.1881 14.3229 21.5354 14.1564 21.8725 13.9716C22.3815 13.6917 22.9136 13.8114 23.3212 14.1453C23.5425 14.3269 23.6915 14.5544 23.7415 14.8407C23.7431 14.8479 23.7518 14.8534 23.7574 14.8597C23.7582 15.012 23.7582 15.165 23.7582 15.3181Z" fill="#A863BB"/>
<path d="M16.0082 2.50079C16.1549 2.53331 16.304 2.56106 16.4491 2.59992C17.4966 2.8838 18.3134 3.84172 18.422 4.91621C18.43 4.99075 18.4593 5.00185 18.5243 5.00105C19.1841 4.99947 19.8446 5.00028 20.5044 5.00028C21.1499 5.00028 21.5971 5.4475 21.5971 6.09378C21.5971 7.34035 21.5963 8.5877 21.5971 9.83428C21.5971 10.3894 21.1935 10.831 20.6384 10.8842C20.5623 10.8913 20.4862 10.8945 20.41 10.8945C17.231 10.8945 14.0519 10.8945 10.8721 10.8945C10.2535 10.8945 9.79044 10.433 9.78966 9.81365C9.78886 8.56708 9.78886 7.31973 9.78966 6.07318C9.79044 5.45465 10.2472 5.00028 10.8649 5.00028C11.5279 5.00028 12.1916 4.99868 12.8545 5.00185C12.9354 5.00265 12.9584 4.98044 12.9687 4.89876C13.0377 4.33575 13.2629 3.84172 13.6412 3.41906C14.0725 2.93693 14.6086 2.64194 15.2469 2.53251C15.2715 2.52855 15.3072 2.53727 15.3191 2.5C15.5491 2.50079 15.779 2.50079 16.0082 2.50079ZM17.8249 7.94062C17.8249 8.47907 17.8249 9.0183 17.8249 9.55673C17.8249 9.7074 17.9137 9.8192 18.0557 9.8192C18.4093 9.8184 18.7646 9.85013 19.1151 9.80653C19.5481 9.7526 19.8462 9.50043 19.985 9.08888C20.1269 8.66938 19.9929 8.23087 19.6615 7.95887C19.6075 7.91447 19.6115 7.8978 19.6551 7.84705C19.9446 7.50845 20.0326 7.12465 19.8478 6.71153C19.6638 6.30075 19.334 6.08267 18.8788 6.07395C18.6179 6.0692 18.3562 6.07238 18.0945 6.07318C17.9177 6.07318 17.8241 6.16673 17.8241 6.34358C17.8249 6.87565 17.8249 7.40855 17.8249 7.94062ZM14.6887 7.94617C14.6887 8.31887 14.6887 8.69237 14.6887 9.06507C14.6887 9.45362 15.0067 9.80095 15.3921 9.82713C15.7354 9.85093 16.0804 9.8406 16.4245 9.83428C16.9257 9.82475 17.2246 9.4132 17.2167 8.9961C17.2024 8.2824 17.2127 7.56792 17.2127 6.85345C17.2127 6.41017 16.8749 6.06285 16.4317 6.0573C16.1065 6.05335 15.7814 6.05175 15.4563 6.05653C15.0305 6.06208 14.6895 6.41255 14.6895 6.836C14.6887 7.20633 14.6887 7.57585 14.6887 7.94617ZM13.9861 7.46168C13.9869 7.46168 13.9869 7.46168 13.9861 7.46168C13.9869 7.07945 13.9869 6.69645 13.9869 6.31422C13.9869 6.16832 13.8941 6.06522 13.7601 6.0573C13.6126 6.04937 13.5024 6.16198 13.5024 6.32533C13.5016 7.0398 13.5024 7.7535 13.5016 8.46798C13.5016 8.52505 13.4976 8.58295 13.4889 8.63925C13.4247 9.0738 13.0567 9.3688 12.6111 9.3442C12.1924 9.3212 11.8451 8.95722 11.8363 8.5314C11.8332 8.37042 11.7301 8.25702 11.5897 8.261C11.4486 8.26417 11.3479 8.37915 11.3479 8.53695C11.3447 9.25935 12.0092 9.8755 12.7403 9.82872C13.4635 9.78272 13.9869 9.22605 13.9869 8.50365C13.9861 8.15632 13.9861 7.809 13.9861 7.46168ZM15.691 5.00028C15.9844 5.00028 16.2778 4.99868 16.5704 5.00105C16.637 5.00185 16.6616 4.99154 16.6347 4.917C16.4864 4.50624 16.074 4.21204 15.607 4.25486C15.2216 4.29055 14.8758 4.5554 14.7513 4.92097C14.7291 4.9852 14.7426 5.00185 14.8108 5.00105C15.1042 4.99868 15.3976 5.00028 15.691 5.00028Z" fill="#A863BB"/>
<path d="M2.50079 13.2702C2.53806 13.2099 2.53886 13.1386 2.55709 13.0728C2.72838 12.4606 3.29853 11.9935 3.93212 11.9459C4.27786 11.9198 4.61726 11.9253 4.94476 12.0625C5.51095 12.2988 5.90347 12.8809 5.90347 13.493C5.90347 15.5611 5.90347 17.6292 5.90347 19.6973C5.90347 20.4491 5.3238 21.1199 4.57761 21.2309C4.56492 21.2325 4.55302 21.2341 4.54747 21.2484C4.31751 21.2484 4.08834 21.2484 3.85837 21.2484C3.83776 21.242 3.81714 21.2341 3.79573 21.2301C3.23351 21.1112 2.83781 20.7908 2.61022 20.2619C2.55868 20.1414 2.54282 20.0121 2.5 19.8908C2.50079 17.6831 2.50079 15.4763 2.50079 13.2702Z" fill="#A863BB"/>
<path d="M15.6978 11.3793C17.3337 11.3793 18.9696 11.3801 20.6055 11.377C20.6959 11.377 20.7141 11.4023 20.7134 11.488C20.7094 11.9947 20.7118 12.5022 20.711 13.0089C20.711 13.4728 20.4128 13.901 19.9767 14.062C19.8593 14.1056 19.7388 14.1294 19.6127 14.1294C17.0014 14.1294 14.3893 14.1294 11.7781 14.1294C11.2277 14.1294 10.7329 13.6853 10.6845 13.139C10.6528 12.7797 10.6774 12.4189 10.6719 12.0589C10.6695 11.8615 10.675 11.6632 10.6687 11.4658C10.6663 11.3912 10.6909 11.377 10.7607 11.3778C11.376 11.3801 11.9914 11.3793 12.6067 11.3793C13.6376 11.3793 14.6677 11.3793 15.6978 11.3793ZM15.7009 13.0034C16.712 13.0034 17.7222 13.0034 18.7333 13.0034C18.7848 13.0034 18.8356 13.0018 18.8839 12.9851C18.9751 12.9534 19.037 12.8916 19.0497 12.794C19.0624 12.6917 19.0307 12.6069 18.9379 12.5482C18.8713 12.507 18.7991 12.507 18.7261 12.507C16.7048 12.507 14.6835 12.507 12.6614 12.507C12.6075 12.507 12.5536 12.5078 12.5005 12.5252C12.3466 12.5752 12.2856 12.7409 12.368 12.8797C12.4299 12.9843 12.5306 13.0034 12.64 13.0034C13.6606 13.0034 14.6812 13.0034 15.7009 13.0034Z" fill="#A863BB"/>
<path d="M9.00708 13.5547C9.01501 13.5586 9.02296 13.5618 9.03088 13.5658L9.02533 13.5721C9.01818 13.5682 9.01106 13.5634 9.00391 13.5586L9.00708 13.5547Z" fill="#F9F9F9"/>
<path d="M18.3063 8.75724C18.3063 8.59149 18.3063 8.42577 18.3063 8.26082C18.3063 8.22595 18.2999 8.18709 18.3547 8.18867C18.5902 8.19422 18.8265 8.16727 19.0604 8.20057C19.3808 8.24657 19.5735 8.50664 19.5473 8.83414C19.5251 9.11012 19.2674 9.33214 18.9668 9.33294C18.7726 9.33374 18.5783 9.32977 18.384 9.33452C18.3182 9.33612 18.3039 9.31392 18.3047 9.25364C18.3079 9.08869 18.3055 8.92297 18.3063 8.75724Z" fill="#A863BB"/>
<path d="M18.3064 7.12877C18.3064 6.96622 18.3096 6.80367 18.3048 6.64109C18.3025 6.57132 18.327 6.55544 18.3921 6.55784C18.5546 6.56179 18.7172 6.55862 18.8797 6.55942C19.1731 6.56022 19.4142 6.77829 19.4491 7.07327C19.4824 7.35082 19.2945 7.62202 19.0138 7.68467C18.7941 7.73302 18.5689 7.69814 18.3461 7.70527C18.2937 7.70687 18.3064 7.66562 18.3064 7.63629C18.3056 7.46659 18.3064 7.29769 18.3064 7.12877Z" fill="#A863BB"/>
<path d="M16.728 7.9501C16.728 8.3101 16.7288 8.67013 16.728 9.03093C16.728 9.23075 16.6131 9.34573 16.4156 9.34573C16.1 9.34573 15.7844 9.34573 15.4688 9.34495C15.3007 9.34495 15.1778 9.2268 15.177 9.05788C15.1754 8.31803 15.1754 7.57898 15.177 6.83913C15.1778 6.66625 15.2983 6.54653 15.4846 6.54255C15.7971 6.537 16.1095 6.5362 16.4219 6.54255C16.6194 6.54653 16.7272 6.66785 16.7272 6.86848C16.728 7.23008 16.728 7.59008 16.728 7.9501Z" fill="#A863BB"/>
</g>
</svg>
