<svg width="15" height="15" viewBox="0 0 15 15" fill="none" xmlns="http://www.w3.org/2000/svg">
<path d="M13.1814 4.3627C12.6501 3.7752 11.7626 3.48145 10.4751 3.48145H10.3251V3.45645C10.3251 2.40645 10.3251 1.10645 7.97515 1.10645H7.02515C4.67515 1.10645 4.67515 2.4127 4.67515 3.45645V3.4877H4.52515C3.2314 3.4877 2.35015 3.78145 1.8189 4.36895C1.20015 5.05645 1.2189 5.98144 1.2814 6.61269L1.28765 6.65644L1.3276 7.07598C1.34187 7.22575 1.42267 7.36126 1.54888 7.44315C1.69804 7.53993 1.89769 7.66689 2.02515 7.7377C2.11265 7.79395 2.2064 7.84395 2.30015 7.89395C3.3689 8.48145 4.5439 8.8752 5.73765 9.06895C5.7939 9.65645 6.05015 10.3439 7.4189 10.3439C8.78765 10.3439 9.0564 9.66269 9.10015 9.05644C10.3751 8.85019 11.6064 8.40644 12.7189 7.75644C12.7564 7.73769 12.7814 7.71894 12.8126 7.70019C13.0373 7.57322 13.2696 7.41953 13.4856 7.26596C13.5992 7.18523 13.6714 7.05895 13.6868 6.92044L13.6876 6.9127L13.7189 6.61895C13.7251 6.58145 13.7251 6.55019 13.7314 6.50644C13.7814 5.87519 13.7689 5.0127 13.1814 4.3627ZM8.1814 8.64394C8.1814 9.30644 8.1814 9.40645 7.41265 9.40645C6.6439 9.40645 6.6439 9.2877 6.6439 8.6502V7.86269H8.1814V8.64394ZM5.5689 3.48145V3.45645C5.5689 2.39395 5.5689 2.0002 7.02515 2.0002H7.97515C9.4314 2.0002 9.4314 2.4002 9.4314 3.45645V3.4877H5.5689V3.48145Z" fill="#283942"/>
<path d="M12.7426 8.72686C13.0975 8.56141 13.5047 8.8425 13.4693 9.23248L13.2754 11.3687C13.1441 12.6187 12.6316 13.8937 9.88164 13.8937H5.11914C2.36914 13.8937 1.85664 12.6187 1.72539 11.375L1.54218 9.35962C1.50714 8.97416 1.90545 8.69369 2.25928 8.85058C2.96539 9.16368 3.99157 9.59596 4.69953 9.79596C4.86298 9.84214 4.99511 9.96069 5.07444 10.1109C5.47181 10.8631 6.27654 11.2625 7.41914 11.2625C8.55056 11.2625 9.36452 10.8477 9.76367 10.0923C9.8431 9.94203 9.97559 9.82351 10.1391 9.77692C10.8948 9.5615 11.9972 9.07431 12.7426 8.72686Z" fill="#283942"/>
</svg>
