<svg width="15" height="15" viewBox="0 0 15 15" fill="none" xmlns="http://www.w3.org/2000/svg">
<g clip-path="url(#clip0_4153_31916)">
<path d="M4.82447 0.000157181C5.02404 -0.000409691 5.22361 -0.000409691 5.42318 -0.000409691C5.61651 -0.000409691 5.80927 0.000157181 6.00261 0.000157181C6.20218 0.000157181 6.40174 0.000157181 6.60131 0.000157181C6.79408 0.000157181 6.98741 0.000157181 7.18018 0.000157181C7.37975 0.000157181 7.57932 0.000157181 7.77889 -0.000409691C7.97165 -0.000409691 8.16498 -0.000409691 8.35775 -0.000409691C8.55732 -0.000409691 8.75689 -0.000409691 8.95646 -0.000409691C9.14922 -0.000409691 9.34255 -0.000409691 9.53532 -0.000409691C9.73489 -0.000409691 9.93446 -0.000409691 10.134 -0.000409691C10.3268 -0.000409691 10.5201 -0.000409691 10.7129 -0.000409691C10.9125 -0.000409691 11.112 -0.000409691 11.3116 -0.000976562C11.5044 -0.000976562 11.6977 -0.000409691 11.8905 -0.000409691C12.0827 -0.000409691 12.2754 -0.000409691 12.4676 -0.000409691C12.6678 -0.000409691 12.8679 -0.000409691 13.068 -0.000409691C13.2693 -0.00211031 13.4683 0.014329 13.6662 0.0500419C14.0755 0.169652 14.4129 0.395267 14.6714 0.735957C14.7145 0.805682 14.7581 0.875974 14.8012 0.9457C14.8505 1.07608 14.8999 1.20646 14.9492 1.33627C14.9804 1.51144 15.0002 1.68773 14.9985 1.86573C14.9985 2.06584 14.9985 2.26594 14.9985 2.46548C14.9985 2.65765 14.9985 2.85039 14.9985 3.04256C14.9985 3.24266 14.9985 3.44277 14.9985 3.64344C14.9985 3.84298 14.9985 4.04252 14.9985 4.24206C14.9985 4.43536 14.9985 4.6281 14.9985 4.8214C14.9985 5.01357 14.9985 5.20631 14.9985 5.39848C14.9985 5.59858 14.9985 5.79869 14.9985 5.99936C14.9985 6.1989 14.9985 6.39844 14.9985 6.59798C14.9985 6.79128 14.9985 6.98402 14.9985 7.17732C14.9985 7.36949 14.9985 7.56223 14.9985 7.7544C14.9985 7.9545 14.9985 8.15461 14.9985 8.35528C14.9985 8.55482 14.9985 8.75436 14.9985 8.9539C14.9985 9.1472 14.9985 9.33994 14.9985 9.53324C14.9985 9.71861 14.9985 9.90398 14.9985 10.0893C14.9985 10.3036 14.9985 10.5173 14.9985 10.7316C14.9985 10.9102 14.9985 11.0887 14.9985 11.2673C14.9985 11.4742 14.9985 11.6817 14.9985 11.8886C14.9985 12.0808 14.9985 12.2735 14.9985 12.4657C14.9985 12.6658 14.9985 12.8659 14.9985 13.066C15.0008 13.2672 14.9844 13.4668 14.9515 13.6646C14.9441 13.6805 14.935 13.6958 14.9305 13.7122C14.833 14.0478 14.6538 14.3312 14.3919 14.5637C14.1804 14.7513 13.9309 14.8647 13.6667 14.952C13.6526 14.9531 13.6384 14.9537 13.6237 14.9548C13.6055 14.9508 13.5902 14.9554 13.5783 14.9695C13.4933 14.9786 13.4088 14.9877 13.3237 14.9973C13.3062 14.9962 13.288 14.9951 13.2704 14.9951C9.69464 14.9951 6.11827 14.9951 2.54246 14.9956C2.26749 14.9956 1.99308 14.9979 1.71811 14.9996C1.70337 14.999 1.68863 14.9985 1.67388 14.9979C1.66708 14.9979 1.65971 14.9973 1.65291 14.9973C1.54575 14.9815 1.43803 14.9661 1.33088 14.9503C1.20104 14.9123 1.08085 14.846 0.947045 14.8193C0.875609 14.7513 0.791132 14.7026 0.707789 14.6521C0.630116 14.5801 0.549041 14.5115 0.475336 14.4356C0.263861 14.2179 0.140264 13.9497 0.0472834 13.6652C0.012699 13.4668 -0.00204188 13.2672 0.00022595 13.0666C0.00022595 12.8665 0.00022595 12.6663 0.00022595 12.4662C0.00022595 12.2741 0.00022595 12.0813 0.00022595 11.8892C0.00022595 11.6891 0.00022595 11.4895 0.00022595 11.2894C0.00022595 11.0967 0.00022595 10.9039 0.00022595 10.7118C0.00022595 10.5185 0.00022595 10.3257 0.00022595 10.1324C0.00022595 9.93289 0.00022595 9.73335 0.00022595 9.53381C0.00022595 9.34051 0.00022595 9.14777 0.000792908 8.95447C0.000792908 8.75493 0.000792908 8.55539 0.000792908 8.35585C0.000792908 8.16255 0.000792908 7.96981 0.000792908 7.77651C0.000792908 7.57697 0.000792908 7.37743 0.00135987 7.17789C0.00135987 6.98459 0.00135987 6.79185 0.00135987 6.59855C0.00135987 6.39901 0.00135987 6.19947 0.00135987 5.99993C0.00135987 5.80663 0.00135987 5.61389 0.000792908 5.42059C0.000792908 5.22105 0.000792908 5.02151 0.000792908 4.82197C0.000792908 4.62867 0.000792908 4.43593 0.000792908 4.24263C0.000792908 4.04309 0.000792908 3.84355 0.000792908 3.64401C0.000792908 3.4439 0.000792908 3.2438 0.000792908 3.04369C0.000792908 2.85152 0.000792908 2.65879 0.000792908 2.46662C0.000792908 2.27331 0.000792908 2.08058 0.000792908 1.88727C-0.00147492 1.70191 0.0183686 1.51824 0.0495513 1.33514C0.0835687 1.24331 0.120988 1.15204 0.138564 1.05454C0.208299 0.939464 0.278035 0.824389 0.347771 0.709881C0.458895 0.578367 0.579657 0.456489 0.712325 0.345949C0.834221 0.276224 0.956117 0.205932 1.07801 0.136206C1.16532 0.107296 1.25207 0.0778186 1.33938 0.0489082C1.51457 0.0222652 1.69033 -0.00324405 1.86835 -0.000409691C2.06849 -0.000409691 2.26806 -0.000409691 2.46819 -0.000409691C2.66039 -0.000409691 2.85316 -0.000409691 3.04536 -0.000409691C3.24549 -0.000409691 3.44563 -0.000409691 3.64576 -0.000409691C3.84533 -0.000409691 4.0449 -0.000409691 4.24447 -0.000409691C4.43837 0.000157181 4.63114 0.000157181 4.82447 0.000157181ZM7.95067 6.56C7.95067 6.27883 7.95067 6.02261 7.95067 5.76581C7.95067 5.62863 7.93196 5.60709 7.79986 5.60709C7.19662 5.60652 6.59394 5.60652 5.9907 5.60709C5.85747 5.60709 5.83422 5.6309 5.83422 5.76354C5.83365 6.12748 5.83479 6.49141 5.83479 6.85534C5.83479 8.74983 5.83422 10.6443 5.83422 12.5394C5.83422 12.6799 5.8552 12.7009 5.9941 12.7009C6.62569 12.7009 7.25728 12.7009 7.88888 12.7004C8.01928 12.7004 8.04309 12.676 8.04762 12.545C8.04876 12.5167 8.04649 12.4878 8.04649 12.4594C8.04536 11.3178 8.04139 10.1761 8.04649 9.0344C8.04819 8.70391 8.0703 8.37456 8.2058 8.06278C8.33904 7.75667 8.55335 7.54692 8.87141 7.44092C8.92584 7.42278 8.9797 7.43071 9.03583 7.41598C9.61073 7.26632 10.2293 7.41654 10.426 8.17048C10.4991 8.45052 10.519 8.73622 10.5201 9.02306C10.523 10.197 10.5213 11.371 10.5213 12.5445C10.5213 12.6839 10.5377 12.7009 10.6726 12.7009C11.2969 12.7009 11.9216 12.7009 12.5459 12.7009C12.7001 12.7009 12.7233 12.6771 12.7233 12.5201C12.7233 11.2322 12.7267 9.94423 12.7216 8.65573C12.7199 8.15348 12.6785 7.65406 12.5538 7.16485C12.4954 6.9364 12.4206 6.70965 12.306 6.50955C12.1961 6.31738 12.0583 6.13541 11.8825 5.98519C11.6019 5.74597 11.277 5.60312 10.9278 5.51072C10.6817 5.44553 10.426 5.43986 10.172 5.43192C9.65098 5.41605 9.15659 5.50392 8.71947 5.81003C8.63669 5.86842 8.55108 5.92227 8.47454 5.99029C8.28745 6.15752 8.12813 6.35026 7.95067 6.56ZM2.23517 9.1472C2.23461 10.2781 2.23461 11.4096 2.23517 12.5405C2.23517 12.6845 2.25161 12.7004 2.39392 12.7004C3.01134 12.7009 3.62875 12.7004 4.24617 12.7015C4.4242 12.7015 4.45141 12.6754 4.45028 12.4997C4.44744 12.0326 4.44291 11.5649 4.44291 11.0978C4.44291 9.33144 4.44461 7.56506 4.44574 5.79926C4.44574 5.61956 4.4293 5.60595 4.25014 5.60652C3.6435 5.60822 3.03685 5.60822 2.43021 5.60822C2.24084 5.60822 2.23517 5.61276 2.23517 5.79756C2.23517 6.91316 2.23517 8.0299 2.23517 9.1472ZM3.38836 4.62753C4.08062 4.64057 4.6317 3.9932 4.62263 3.33903C4.61356 2.63554 4.033 2.07718 3.32827 2.07548C2.64282 2.07377 2.04524 2.69053 2.06338 3.37418C2.08209 4.0805 2.66606 4.63944 3.38836 4.62753Z" fill="#2969B2"/>
<path d="M7.94987 6.5601C8.12733 6.35036 8.28664 6.15762 8.47431 5.98983C8.55085 5.9218 8.63589 5.86739 8.71923 5.80956C9.15636 5.50345 9.65074 5.41559 10.1718 5.43146C10.4258 5.4394 10.6809 5.44507 10.9275 5.51026C11.2768 5.60266 11.6016 5.74551 11.8823 5.98473C12.058 6.13495 12.1964 6.31691 12.3058 6.50908C12.4203 6.70919 12.4952 6.93594 12.5536 7.16439C12.6783 7.65417 12.7191 8.15358 12.7214 8.65526C12.7265 9.9432 12.7231 11.2311 12.7231 12.5196C12.7231 12.6767 12.6993 12.7005 12.5456 12.7005C11.9214 12.7005 11.2966 12.7005 10.6724 12.7005C10.5375 12.7005 10.521 12.6835 10.521 12.544C10.521 11.37 10.5227 10.196 10.5199 9.02259C10.5193 8.73576 10.4989 8.44949 10.4258 8.17002C10.2285 7.41608 9.61049 7.26586 9.03559 7.41551C8.98003 7.43025 8.9256 7.42231 8.87118 7.44045C8.55311 7.54646 8.3388 7.7562 8.20557 8.06231C8.0695 8.37409 8.04739 8.70401 8.04625 9.03393C8.04115 10.1756 8.04569 11.3173 8.04625 12.459C8.04625 12.4873 8.04795 12.5162 8.04739 12.5446C8.04342 12.6755 8.01961 12.6999 7.88864 12.6999C7.25705 12.7005 6.62546 12.7005 5.99387 12.7005C5.85496 12.7005 5.83398 12.6795 5.83398 12.5389C5.83398 10.6444 5.83455 8.74993 5.83455 6.85488C5.83455 6.49094 5.83398 6.12701 5.83398 5.76308C5.83398 5.63043 5.85723 5.60662 5.99046 5.60662C6.59371 5.60606 7.19638 5.60606 7.79963 5.60662C7.93173 5.60662 7.95044 5.62817 7.95044 5.76535C7.94987 6.02271 7.94987 6.27893 7.94987 6.5601Z" fill="#FEFEFE"/>
<path d="M2.2348 9.1473C2.2348 8.03056 2.2348 6.91383 2.2348 5.79652C2.2348 5.61172 2.24047 5.60719 2.42983 5.60719C3.03648 5.60719 3.64312 5.60719 4.24977 5.60548C4.42893 5.60492 4.44537 5.61852 4.44537 5.79822C4.44423 7.56459 4.4431 9.33097 4.44253 11.0968C4.44253 11.5639 4.44707 12.0315 4.4499 12.4986C4.45104 12.6744 4.42326 12.701 4.2458 12.7005C3.62838 12.6999 3.01097 12.6999 2.39355 12.6993C2.25124 12.6993 2.2348 12.6834 2.2348 12.5395C2.23423 11.4091 2.23423 10.2782 2.2348 9.1473Z" fill="#FEFEFE"/>
<path d="M3.38788 4.62726C2.66558 4.63916 2.08161 4.08023 2.0629 3.3739C2.04476 2.69025 2.64233 2.0735 3.32779 2.0752C4.03251 2.0769 4.61308 2.63527 4.62272 3.33876C4.63122 3.99293 4.08014 4.64029 3.38788 4.62726Z" fill="#FEFEFE"/>
</g>
<defs>
<clipPath id="clip0_4153_31916">
<rect width="15" height="15" fill="white"/>
</clipPath>
</defs>
</svg>
