<svg width="15" height="15" viewBox="0 0 15 15" fill="none" xmlns="http://www.w3.org/2000/svg">
<path d="M7.5 15C11.6422 15 15 11.6422 15 7.5C15 3.35787 11.6422 0 7.5 0C3.35787 0 0 3.35787 0 7.5C0 11.6422 3.35787 15 7.5 15Z" fill="#265DF5"/>
<path d="M9.75498 10.2782L9.73825 11.0384L9.68971 13.2334V13.3181C5.98071 10.1083 5.34886 9.32533 5.23936 9.08737L5.23556 9.0793C5.22236 9.03449 5.21925 8.98733 5.2264 8.94114C5.22902 8.92407 5.23263 8.90714 5.23717 8.89045C5.24098 8.87695 5.24475 8.86399 5.24959 8.84999C5.28956 8.74499 5.34625 8.64714 5.4174 8.56022C5.46836 8.49437 5.5239 8.43218 5.58359 8.37406C5.71121 8.24787 5.8479 8.13118 5.99259 8.02499C6.06436 7.97103 6.13936 7.91707 6.21867 7.8631C6.3719 7.75841 6.53756 7.65376 6.70913 7.55176C8.04186 8.79495 9.7334 10.2583 9.75498 10.2782Z" fill="url(#paint0_linear_4153_31910)"/>
<path d="M9.80446 3.06836L9.78773 3.83131L9.77911 4.20901L9.76184 4.9682L9.75319 5.34912L9.73646 6.10881C9.71003 6.11962 8.01849 6.77574 6.71488 7.55108C6.5433 7.65308 6.37819 7.75774 6.22442 7.86243C6.14565 7.91639 6.07011 7.97035 5.99834 8.02431C5.85388 8.13081 5.71723 8.24747 5.58934 8.37339C5.5298 8.43162 5.4743 8.49381 5.42315 8.55954C5.30553 8.70954 5.23484 8.85685 5.22461 8.99551L5.23861 8.36154V8.3572L5.24134 8.25901V8.22339L5.25265 7.82358L5.27422 7.03093L5.28449 6.64354L5.30607 5.85793C5.57422 4.75827 9.36146 3.24264 9.80446 3.06836Z" fill="white"/>
<path d="M6.31233 3.90888C6.9271 3.90888 7.42545 3.41051 7.42545 2.79574C7.42545 2.18098 6.9271 1.68262 6.31233 1.68262C5.69757 1.68262 5.19922 2.18098 5.19922 2.79574C5.19922 3.41051 5.69757 3.90888 6.31233 3.90888Z" fill="white"/>
<defs>
<linearGradient id="paint0_linear_4153_31910" x1="8.98825" y1="11.4296" x2="4.58917" y2="6.35503" gradientUnits="userSpaceOnUse">
<stop stop-color="white"/>
<stop offset="1" stop-color="#265DF5"/>
</linearGradient>
</defs>
</svg>
