<svg width="25" height="25" viewBox="0 0 25 25" fill="none" xmlns="http://www.w3.org/2000/svg">
<path d="M15.5464 15.965C15.7252 16.0706 15.8762 16.0817 16.0321 16.0817C17.0556 16.0803 18.0799 16.081 19.1035 16.081C19.164 16.081 19.2252 16.081 19.2851 16.0748C19.5398 16.0472 19.6942 15.8848 19.6859 15.6576C19.6775 15.4324 19.5091 15.2769 19.2545 15.2742C18.8293 15.27 18.4042 15.2728 17.979 15.2728C17.302 15.2728 16.6256 15.2735 15.9486 15.2721C15.8184 15.2721 15.6911 15.2749 15.5644 15.3964C15.5644 15.2403 15.5644 15.1187 15.5644 14.9654C15.7161 15.1022 15.8894 15.0794 16.0585 15.0794C17.8371 15.08 19.6156 15.08 21.3949 15.0794C21.4818 15.0794 21.5695 15.0849 21.6551 15.0731C21.8771 15.0414 21.9954 14.8956 21.9995 14.6863C22.0037 14.4777 21.898 14.3243 21.6718 14.2863C21.621 14.278 21.5681 14.276 21.5166 14.276C19.6601 14.2753 17.803 14.2767 15.9465 14.2746C15.7621 14.2746 15.602 14.3105 15.4865 14.5081C15.211 13.9085 14.7065 13.7959 14.1227 13.8276C13.7942 13.8456 13.463 13.8187 13.1339 13.8352C12.9432 13.8449 12.9105 13.7786 12.9119 13.6045C12.9196 12.33 12.9168 11.0548 12.9161 9.78027C12.9161 9.03145 12.4951 8.59832 11.7492 8.61421C11.5098 8.61974 11.4681 8.5479 11.4688 8.32753C11.4764 5.73498 11.4736 3.14174 11.4743 0.549188C11.4743 0.106389 11.5773 0.00553332 12.0282 0.00553332C15.2562 0.00553332 18.4835 0.0076057 21.7115 6.96611e-06C21.9279 -0.000683828 21.9877 0.0497441 21.9808 0.266654C21.9634 0.826197 21.9731 1.38643 21.9759 1.94597C21.9794 2.57874 22.3913 2.99391 23.0322 3.00151C23.6132 3.00842 24.1949 3.00703 24.7759 3.00082C24.9304 2.99875 25 3.01809 25 3.2046C24.9937 7.79562 24.9951 12.3866 24.9944 16.9784C24.9944 17.274 24.8692 17.3963 24.5658 17.3963C21.6328 17.3977 18.7006 17.3949 15.7676 17.4011C15.5805 17.4018 15.5359 17.3472 15.5422 17.1704C15.5554 16.7849 15.5464 16.3974 15.5464 15.965ZM21.7824 4.52885C21.7762 2.56078 20.1959 1.00442 18.21 1.00995C16.2665 1.01547 14.6787 2.61605 14.6856 4.56339C14.6926 6.48795 16.293 8.05674 18.2434 8.05052C20.2203 8.04431 21.7887 6.48311 21.7824 4.52885ZM18.7117 10.1657C19.6476 10.1657 20.5828 10.1664 21.5187 10.165C21.8158 10.1644 21.9933 10.0221 22.0051 9.78166C22.0176 9.53159 21.836 9.35405 21.5305 9.35267C19.6678 9.34784 17.8057 9.34853 15.943 9.35198C15.6243 9.35267 15.458 9.50948 15.4615 9.76853C15.4649 10.0248 15.6368 10.1644 15.9576 10.1644C16.8747 10.1664 17.7932 10.1657 18.7117 10.1657ZM18.7486 11.8126C18.7055 11.8126 18.6616 11.8126 18.6185 11.8126C17.7174 11.8126 16.8163 11.8098 15.9152 11.814C15.5478 11.816 15.3446 12.1317 15.513 12.4226C15.6187 12.6056 15.7934 12.6326 15.982 12.6319C17.0389 12.6312 18.0959 12.6319 19.1529 12.6319C19.9329 12.6319 20.7122 12.6305 21.4923 12.6326C21.6962 12.6333 21.8757 12.587 21.9675 12.388C22.1025 12.0951 21.8896 11.8147 21.5292 11.814C20.603 11.8105 19.6754 11.8126 18.7486 11.8126ZM17.5678 13.6266C18.1049 13.6266 18.6414 13.628 19.1786 13.6259C19.5057 13.6245 19.6915 13.4691 19.6866 13.208C19.6817 12.9572 19.5001 12.806 19.187 12.8053C18.1133 12.8032 17.0389 12.8032 15.9653 12.8053C15.6319 12.806 15.4566 12.9572 15.4615 13.2253C15.4663 13.4809 15.6417 13.6245 15.9569 13.6259C16.4941 13.628 17.0306 13.6266 17.5678 13.6266ZM15.0509 12.7203C15.0509 12.4972 15.0461 12.2733 15.0523 12.0502C15.0565 11.8934 15.0071 11.8091 14.8324 11.8112C14.3655 11.8167 13.8979 11.8154 13.4303 11.8119C13.2905 11.8105 13.223 11.863 13.2244 12.0074C13.2278 12.4799 13.2278 12.9524 13.2244 13.4249C13.2237 13.5672 13.2849 13.6273 13.4261 13.6266C13.8937 13.6245 14.3607 13.6232 14.8283 13.6273C14.9987 13.6287 15.0572 13.5499 15.053 13.3897C15.0461 13.1665 15.0509 12.9434 15.0509 12.7203ZM15.0509 10.2652C15.0509 10.0331 15.0467 9.80031 15.0523 9.5682C15.0558 9.42728 14.9918 9.35474 14.8554 9.35336C14.3787 9.34991 13.9021 9.3506 13.4254 9.35267C13.2925 9.35336 13.2209 9.4107 13.2223 9.55784C13.2278 10.0227 13.2271 10.487 13.2223 10.9519C13.2209 11.0914 13.2682 11.1605 13.415 11.1598C13.8917 11.1577 14.3683 11.1563 14.8457 11.1605C15.0064 11.1619 15.0565 11.0845 15.0523 10.936C15.0467 10.7128 15.0509 10.4883 15.0509 10.2652ZM17.5545 11.1584C18.1098 11.1584 18.6651 11.1612 19.2197 11.1577C19.5147 11.1556 19.688 11.0023 19.6866 10.7571C19.6852 10.5125 19.5119 10.3592 19.2162 10.3585C18.123 10.3557 17.0306 10.3557 15.9374 10.3585C15.6292 10.3592 15.467 10.4973 15.4615 10.7481C15.4559 11.0113 15.6215 11.157 15.9409 11.1584C16.4788 11.1605 17.0167 11.1584 17.5545 11.1584Z" fill="white"/>
<path d="M4.69622 16.9798C4.69622 16.3249 4.69483 15.6708 4.69692 15.0159C4.69761 14.7085 4.75119 14.6567 5.06084 14.656C5.41641 14.6546 5.77268 14.6615 6.12825 14.6525C6.26811 14.6491 6.3043 14.6947 6.30082 14.8287C6.29177 15.1644 6.3036 15.5008 6.29595 15.8365C6.29038 16.0769 6.41215 16.1895 6.6383 16.1958C6.93333 16.204 7.22837 16.204 7.5234 16.1958C7.74885 16.1895 7.87341 16.0769 7.86923 15.8379C7.86367 15.5022 7.87341 15.1658 7.86506 14.8301C7.86228 14.7009 7.8922 14.6491 8.03484 14.6525C8.41616 14.6622 8.79817 14.6594 9.18019 14.6546C9.38268 14.6518 9.46548 14.7589 9.46618 14.9406C9.46827 16.2932 9.47035 17.6457 9.46479 18.9976C9.46409 19.2587 9.34093 19.3651 9.07164 19.3651C7.74398 19.3672 6.41633 19.3672 5.08867 19.3651C4.81034 19.3644 4.699 19.2532 4.69761 18.9707C4.69344 18.3061 4.69622 17.643 4.69622 16.9798Z" fill="white"/>
<path d="M14.7318 16.9629C14.7318 17.6178 14.7332 18.272 14.7311 18.9268C14.7304 19.2591 14.6288 19.3627 14.3024 19.3627C13.0012 19.3641 11.6993 19.3641 10.3981 19.3627C10.0676 19.3627 9.9632 19.2626 9.9625 18.9317C9.96042 17.6226 9.96042 16.3129 9.9625 15.0038C9.9632 14.7164 10.0279 14.6543 10.3118 14.6529C10.6674 14.6515 11.0237 14.6598 11.3792 14.6487C11.5309 14.6439 11.5678 14.6957 11.5629 14.838C11.5532 15.1648 11.5574 15.4929 11.5608 15.8196C11.5636 16.078 11.6603 16.1844 11.9164 16.192C12.2024 16.201 12.4891 16.201 12.7751 16.192C13.0346 16.1844 13.1272 16.0828 13.1293 15.821C13.132 15.4936 13.1369 15.1661 13.1272 14.8394C13.123 14.6964 13.1592 14.6439 13.3123 14.6487C13.6678 14.6598 14.0234 14.6508 14.3797 14.6529C14.6698 14.6543 14.7311 14.713 14.7318 14.9983C14.7332 15.6539 14.7318 16.3087 14.7318 16.9629Z" fill="white"/>
<path d="M7.33878 11.7369C7.33878 11.0738 7.34435 10.4106 7.336 9.74743C7.33322 9.51532 7.42228 9.41792 7.65678 9.42345C8.0207 9.43243 8.38602 9.43174 8.74994 9.42275C8.88911 9.4193 8.92668 9.4642 8.9232 9.59822C8.91416 9.92496 8.91624 10.2531 8.92181 10.5798C8.92668 10.8624 9.01645 10.9549 9.29617 10.9618C9.57381 10.9694 9.85145 10.9694 10.1291 10.9618C10.4053 10.9542 10.4993 10.8575 10.5034 10.5785C10.509 10.251 10.5111 9.92358 10.5021 9.59683C10.4986 9.46213 10.5362 9.41861 10.6753 9.42206C11.0483 9.43104 11.4213 9.42897 11.7942 9.42414C12.0044 9.42137 12.0872 9.51808 12.0865 9.72325C12.083 11.0758 12.0865 12.4277 12.083 13.7803C12.0823 14.0297 11.9689 14.1381 11.7142 14.1388C10.3782 14.1409 9.04219 14.1416 7.70549 14.1388C7.44177 14.1381 7.34018 14.0283 7.33878 13.7527C7.33739 13.0805 7.33878 12.4084 7.33878 11.7369Z" fill="white"/>
<path d="M4.06816 14.8765C4.06816 16.1932 4.06329 17.5098 4.07373 18.8265C4.07512 19.0303 4.02085 19.0835 3.82949 19.0372C3.63326 18.9895 3.43217 18.9985 3.23594 19.0413C3.03972 19.0842 2.97222 19.0351 2.97361 18.8175C2.98335 17.1396 2.97918 15.4609 2.97918 13.783C2.97918 12.905 2.97431 12.027 2.98196 11.1497C2.98475 10.8561 2.89985 10.6261 2.61595 10.5031C2.53245 10.4672 2.50671 10.4154 2.50879 10.3256C2.51506 10.0589 2.51784 9.79159 2.5081 9.52564C2.50253 9.37712 2.57907 9.3785 2.68554 9.39301C3.40851 9.49386 4.05007 10.1874 4.05772 10.9266C4.07234 12.2432 4.0619 13.5599 4.0619 14.8765C4.06329 14.8765 4.06538 14.8765 4.06816 14.8765Z" fill="white"/>
<path d="M10.2246 22.1009C8.85522 22.1009 7.48512 22.0974 6.11571 22.1043C5.92575 22.105 5.85964 22.0892 5.92018 21.8709C5.97863 21.6602 6.0002 21.4288 5.95149 21.2056C5.91879 21.0557 5.97098 21.0143 6.12197 21.0157C6.87626 21.0226 7.63055 21.0184 8.38483 21.0184C10.3701 21.0184 12.3553 21.0177 14.3405 21.0191C14.8234 21.0198 15.1115 21.3769 14.9438 21.7652C14.8401 22.0056 14.6481 22.103 14.3857 22.1016C12.9989 22.0988 11.6114 22.1009 10.2246 22.1009Z" fill="white"/>
<path d="M3.57321 19.8282C4.44926 19.8365 5.16319 20.5681 5.15067 21.4454C5.13884 22.304 4.40334 23.0128 3.53772 23.0003C2.64914 22.9872 1.92755 22.2605 1.94565 21.397C1.96374 20.5156 2.68602 19.8192 3.57321 19.8282ZM3.55929 20.8561C3.23573 20.8527 2.97548 21.1083 2.98035 21.4239C2.98522 21.7238 3.24825 21.978 3.55372 21.9766C3.86198 21.9752 4.11457 21.7237 4.11526 21.4177C4.11596 21.1096 3.86824 20.8596 3.55929 20.8561Z" fill="white"/>
<path d="M22.8061 0.0546875C23.0573 0.232222 24.8198 1.99098 24.952 2.19615C24.2882 2.19615 23.6446 2.19891 23.0002 2.19408C22.868 2.1927 22.804 2.10773 22.8047 1.97164C22.8068 1.34509 22.8061 0.718541 22.8061 0.0546875Z" fill="white"/>
<path d="M1.06605 9.38034C1.24627 9.40866 1.53991 9.2781 1.66795 9.43215C1.7758 9.56202 1.70413 9.8411 1.70552 10.0546C1.7083 10.4621 1.70622 10.4621 1.29776 10.4621C1.07301 10.4621 0.847554 10.4656 0.622799 10.4614C0.238698 10.4552 0.00280929 10.248 2.59445e-05 9.92123C-0.0027574 9.58343 0.218518 9.38655 0.61097 9.38103C0.749442 9.37896 0.887913 9.38034 1.06605 9.38034Z" fill="white"/>
<path d="M18.2431 1.5704C19.9186 1.58353 21.2491 2.91123 21.2393 4.56154C21.2296 6.17109 19.8657 7.51261 18.2417 7.50916C16.5703 7.50571 15.244 6.16004 15.2579 4.48141C15.2718 2.87117 16.6183 1.55797 18.2431 1.5704ZM18.2319 6.6581C19.442 6.66017 20.3925 5.71448 20.3855 4.51664C20.3786 3.34643 19.4302 2.40764 18.2521 2.40488C17.0657 2.40212 16.0971 3.35196 16.0929 4.52424C16.0887 5.70342 17.0441 6.65603 18.2319 6.6581Z" fill="white"/>
<path d="M17.7228 4.82185C17.0332 4.42533 16.8718 3.76355 17.3408 3.24891C17.393 3.19157 17.4486 3.13217 17.5147 3.09486C17.6873 2.99815 17.8348 2.90006 17.9051 2.69006C17.9573 2.53325 18.132 2.49525 18.301 2.51114C18.4673 2.52634 18.5933 2.62305 18.6274 2.76674C18.6615 2.90904 18.7457 2.95878 18.8556 3.01404C19.0699 3.12249 19.2307 3.28898 19.342 3.50036C19.4721 3.74766 19.4206 3.98184 19.2112 4.10757C18.9983 4.23536 18.7714 4.17457 18.6169 3.92658C18.4875 3.71865 18.3198 3.65164 18.0909 3.7297C18.0053 3.75872 17.9253 3.80776 17.9295 3.90724C17.9336 3.99497 18.0144 4.03572 18.0895 4.05645C18.2969 4.11378 18.5119 4.14971 18.7151 4.21879C19.2008 4.38319 19.461 4.69958 19.4791 5.12096C19.4993 5.59623 19.3037 5.88636 18.8013 6.10465C18.7151 6.14196 18.6643 6.17581 18.6378 6.27459C18.5877 6.46041 18.4423 6.5592 18.2523 6.56196C18.0498 6.56541 17.8988 6.46525 17.846 6.2663C17.8174 6.16061 17.7548 6.11778 17.665 6.07909C17.393 5.96028 17.194 5.76755 17.0722 5.49399C16.9817 5.2909 16.9518 5.09471 17.1293 4.92409C17.2969 4.76313 17.4862 4.77695 17.6783 4.88264C17.7186 4.93721 17.768 4.98764 17.7993 5.04636C17.9559 5.34271 18.1027 5.42077 18.4152 5.34962C18.5028 5.32958 18.6225 5.31577 18.6371 5.20731C18.6545 5.08297 18.5383 5.02978 18.443 5.00215C18.2064 4.93307 17.9636 4.88126 17.7228 4.82185Z" fill="white"/>
</svg>
