<svg width="25" height="25" viewBox="0 0 25 25" fill="none" xmlns="http://www.w3.org/2000/svg">
<g clip-path="url(#clip0_333_129)">
<path d="M14.6432 24.997C12.4626 24.997 10.282 24.997 8.10145 24.997C5.48976 24.997 2.87807 24.9943 0.266388 25.0018C0.0610049 25.0025 0 24.9604 0 24.7425C0.00610049 17.4621 0.00610049 10.1824 0 2.902C0 2.68815 0.0542266 2.64063 0.263677 2.64131C4.54893 2.6481 8.83419 2.6481 13.1194 2.64063C13.337 2.63995 13.3777 2.70037 13.3757 2.9054C13.3655 4.14097 13.3757 5.37722 13.3655 6.61348C13.3641 6.81578 13.4001 6.88231 13.6204 6.88028C14.8628 6.86806 16.1053 6.87824 17.3478 6.87009C17.5409 6.86874 17.6053 6.91015 17.604 7.11789C17.5938 8.53133 17.5958 9.94545 17.6026 11.3589C17.6033 11.53 17.5647 11.5856 17.383 11.5897C14.1409 11.6535 11.3062 14.0744 10.7274 17.2659C10.156 20.4146 11.6269 23.4003 14.4683 24.8592C14.532 24.8918 14.5951 24.9278 14.6581 24.9624C14.6527 24.9726 14.648 24.9848 14.6432 24.997ZM7.3843 10.2292C7.3843 8.9536 7.38159 7.72617 7.38769 6.49942C7.38837 6.34056 7.35719 6.27403 7.18231 6.28422C6.91253 6.29983 6.64208 6.28761 6.37162 6.28829C5.83139 6.29033 5.62465 6.49739 5.62397 7.04253C5.62329 8.65014 5.62329 10.2584 5.62397 11.866C5.62397 12.4315 5.84156 12.6501 6.40212 12.6501C7.9991 12.6508 9.59607 12.6501 11.193 12.6501C11.776 12.6501 11.9834 12.4424 11.9841 11.8558C11.9847 10.3664 11.9847 8.87688 11.9841 7.38741C11.9841 7.21836 11.9922 7.04796 11.9793 6.8796C11.9502 6.50146 11.7346 6.29711 11.3564 6.28897C11.0521 6.28218 10.7477 6.29915 10.444 6.28286C10.2617 6.27267 10.2237 6.33242 10.2251 6.50689C10.2332 7.6576 10.2292 8.80899 10.2292 9.95971C10.2292 10.0391 10.2292 10.1192 10.2292 10.2285C9.80077 9.98143 9.40221 9.76487 9.01856 9.52386C8.85791 9.42339 8.74471 9.43425 8.58949 9.53065C8.20448 9.76894 7.80727 9.9855 7.3843 10.2292ZM2.00977 18.8253C2.00977 19.1294 2.01655 19.4336 2.00706 19.7377C2.00232 19.8905 2.02672 19.9611 2.2077 19.957C2.82317 19.9448 3.43864 19.9482 4.05479 19.955C4.20188 19.957 4.26289 19.9285 4.26085 19.7628C4.25136 19.1294 4.25204 18.496 4.26017 17.8626C4.26221 17.7085 4.20256 17.6841 4.06835 17.6854C3.44406 17.6915 2.82046 17.6949 2.19618 17.6834C2.02875 17.6807 2.00232 17.7411 2.00706 17.8871C2.01655 18.2 2.00977 18.513 2.00977 18.8253ZM4.25611 15.5239C4.25611 15.2027 4.24933 14.881 4.25882 14.5598C4.26289 14.4207 4.22967 14.3711 4.08055 14.3731C3.44745 14.3813 2.81368 14.382 2.18059 14.3731C2.02536 14.3711 2.00571 14.4302 2.00706 14.5632C2.01316 15.1892 2.01316 15.8151 2.00706 16.441C2.00571 16.5768 2.03282 16.6304 2.18397 16.6284C2.81707 16.6196 3.45084 16.6196 4.08394 16.6284C4.23781 16.6304 4.26289 16.5727 4.25882 16.4383C4.25069 16.1328 4.25611 15.828 4.25611 15.5239ZM3.15056 23.272C3.46304 23.272 3.77552 23.2666 4.08801 23.2747C4.21679 23.2781 4.26153 23.2448 4.2595 23.1084C4.25204 22.4743 4.25204 21.8395 4.2595 21.2055C4.26085 21.0629 4.22154 21.0201 4.07784 21.0215C3.44474 21.029 2.81097 21.0283 2.17787 21.0215C2.04638 21.0201 2.00638 21.0548 2.00774 21.1899C2.01452 21.8328 2.01384 22.4757 2.00842 23.1186C2.00706 23.2394 2.0396 23.2781 2.16296 23.2754C2.49103 23.2666 2.82114 23.272 3.15056 23.272ZM7.99571 9.15794C8.2282 9.02488 8.43833 8.91965 8.63084 8.78863C8.76437 8.69698 8.86401 8.71259 8.99076 8.79406C9.18598 8.91965 9.39272 9.02692 9.61844 9.15523C9.61844 8.22719 9.61573 7.33242 9.62183 6.43832C9.6225 6.30798 9.57573 6.28489 9.4605 6.28625C9.03008 6.29168 8.59898 6.29576 8.16788 6.28489C8.01401 6.28082 7.99232 6.34124 7.993 6.4743C7.99842 7.35414 7.99571 8.23398 7.99571 9.15794ZM7.49072 19.3555C6.84068 19.3555 6.19064 19.3548 5.5406 19.3562C5.2837 19.3569 5.14746 19.4594 5.15627 19.6528C5.16711 19.8959 5.33386 19.9536 5.54128 19.9536C6.83323 19.9536 8.12517 19.9543 9.41644 19.9529C9.67741 19.9522 9.8428 19.8266 9.8184 19.6393C9.78857 19.4098 9.62928 19.3514 9.41644 19.3535C8.77386 19.3596 8.13195 19.3555 7.49072 19.3555ZM7.51309 14.3759C6.85492 14.3759 6.19606 14.3752 5.53789 14.3765C5.27963 14.3772 5.14678 14.4777 5.15559 14.6719C5.16576 14.9 5.31895 14.9679 5.51823 14.9679C6.82645 14.9685 8.13534 14.9699 9.44356 14.9672C9.68554 14.9665 9.84212 14.8341 9.81772 14.6535C9.78857 14.4397 9.64555 14.3711 9.43813 14.3731C8.7969 14.3799 8.155 14.3759 7.51309 14.3759ZM7.4792 23.2727C8.12924 23.2727 8.77996 23.2734 9.43 23.272C9.67605 23.2713 9.82111 23.1579 9.82043 22.974C9.81975 22.792 9.67334 22.6719 9.42729 22.6719C8.13534 22.6691 6.84339 22.6691 5.55144 22.6719C5.28167 22.6725 5.13661 22.7893 5.15627 22.9889C5.17931 23.2279 5.34471 23.2761 5.55416 23.2747C6.19606 23.2693 6.83797 23.2727 7.4792 23.2727ZM7.49276 18.293C8.13466 18.293 8.77657 18.2896 9.4178 18.2951C9.63064 18.2964 9.78857 18.2313 9.81636 18.0032C9.83941 17.8158 9.67266 17.6909 9.41305 17.6902C8.12924 17.6888 6.8461 17.6888 5.56229 17.6902C5.28506 17.6902 5.1522 17.7927 5.15423 17.9943C5.15559 18.1946 5.28845 18.2924 5.56703 18.293C6.20962 18.2937 6.85153 18.293 7.49276 18.293ZM7.46971 16.6237C8.11907 16.6237 8.76844 16.6196 9.41848 16.6257C9.63132 16.6277 9.79061 16.5714 9.81772 16.3399C9.83873 16.16 9.68283 16.0385 9.4361 16.0378C8.13737 16.0357 6.83797 16.0357 5.53924 16.0378C5.27963 16.0385 5.14475 16.1437 5.15762 16.3345C5.17389 16.5755 5.33725 16.6264 5.54738 16.625C6.18725 16.6209 6.82848 16.6237 7.46971 16.6237ZM7.51716 21.0242C6.85085 21.0242 6.18454 21.0262 5.51823 21.0228C5.31285 21.0215 5.15898 21.088 5.1583 21.3127C5.15762 21.5374 5.31081 21.606 5.5162 21.606C6.82374 21.604 8.1306 21.606 9.43813 21.604C9.68215 21.604 9.83805 21.4831 9.81636 21.3019C9.79061 21.086 9.64623 21.0194 9.43949 21.0215C8.79962 21.0283 8.15839 21.0242 7.51716 21.0242Z" fill="white"/>
<path d="M24.0009 18.5886C23.9975 22.131 21.1283 24.9979 17.588 24.9966C14.0524 24.9945 11.1906 22.1181 11.1953 18.5709C11.1994 15.0427 14.0639 12.1792 17.5941 12.1758C21.1262 12.171 24.0043 15.0522 24.0009 18.5886ZM20.2396 14.1079C20.0756 14.281 19.9373 14.4141 19.814 14.56C19.7109 14.6822 19.6201 14.6965 19.4703 14.6245C18.6325 14.2206 17.7513 14.1086 16.8356 14.2688C14.3364 14.7074 12.7252 17.1812 13.3379 19.6374C13.887 21.8391 15.9618 23.2294 18.2393 22.9226C20.3427 22.6388 21.9749 20.7657 21.9844 18.6334C21.9851 18.484 21.9545 18.4209 21.7905 18.429C21.5207 18.4426 21.2489 18.4446 20.9798 18.4283C20.8063 18.4181 20.7792 18.482 20.7765 18.6401C20.7446 20.6205 18.9606 22.0869 17.0199 21.7352C15.728 21.501 14.6496 20.4086 14.4469 19.1283C14.2307 17.7603 14.8624 16.4439 16.0554 15.7929C16.9183 15.3224 17.811 15.2674 18.7931 15.6198C18.5634 15.8173 18.3654 15.9877 18.1201 16.1989C19.1192 16.467 20.0437 16.7148 21.0049 16.9728C20.7487 16.0142 20.504 15.0964 20.2396 14.1079Z" fill="white"/>
<path d="M20.2443 12.0903C19.6146 11.8513 18.993 11.6721 18.3423 11.6239C18.1532 11.6096 18.1952 11.4779 18.1952 11.3666C18.1945 9.66531 18.1918 7.96334 18.1986 6.26205C18.1993 6.08622 18.1471 5.96673 18.0244 5.84453C16.807 4.6334 15.5937 3.41887 14.3851 2.19891C14.2611 2.074 14.1384 2.03055 13.9662 2.03123C10.2896 2.03598 6.61308 2.03259 2.93652 2.04073C2.71216 2.04141 2.65725 1.9871 2.66471 1.76646C2.68301 1.24236 2.67827 0.716904 2.66674 0.192125C2.66335 0.0285132 2.71487 0 2.86603 0C8.59642 0.00407332 14.3268 0.00339443 20.0572 0.00135777C20.1894 0.00135777 20.2694 0.000678886 20.2694 0.181263C20.2612 4.12627 20.2605 8.0706 20.2578 12.0156C20.2578 12.0326 20.2524 12.0489 20.2443 12.0903Z" fill="white"/>
<path d="M13.9966 2.69922C15.1855 3.88931 16.3663 5.07125 17.5531 6.2593C17.5369 6.32108 17.4745 6.28578 17.4332 6.28578C16.3527 6.28781 15.2722 6.28713 14.1924 6.28849C14.0698 6.28849 13.9674 6.30614 13.9688 6.11673C13.9776 4.9925 13.9742 3.86826 13.9755 2.74403C13.9755 2.73045 13.9884 2.71687 13.9966 2.69922Z" fill="white"/>
</g>
<defs>
<clipPath id="clip0_333_129">
<rect width="25" height="25" fill="white"/>
</clipPath>
</defs>
</svg>
