<svg width="25" height="25" viewBox="0 0 25 25" fill="none" xmlns="http://www.w3.org/2000/svg">
<g clip-path="url(#clip0_334_136)">
<path d="M12.5237 24.9992C8.9485 24.9992 5.37329 24.9992 1.79809 24.9992C0.70556 24.9992 0 24.2976 0 23.2084C0 16.0697 0 8.9303 0.000777049 1.79166C0.000777049 0.719465 0.710223 0.00699957 1.77633 0.00622262C4.11137 0.00544567 6.4464 0.00933043 8.78143 6.99957e-06C9.01377 -0.000769953 9.06661 0.0629402 9.06583 0.288256C9.05651 2.03174 9.06272 3.77522 9.05806 5.5187C9.05728 5.76655 9.09225 5.98099 9.33469 6.10763C9.57868 6.23427 9.77839 6.13949 9.97653 5.9942C10.2734 5.77743 10.5819 5.5762 10.874 5.35476C10.9968 5.26153 11.0807 5.27085 11.1988 5.35943C11.5081 5.59096 11.8306 5.80617 12.1422 6.03382C12.3862 6.21174 12.6185 6.2063 12.8609 6.02916C13.1648 5.80617 13.4818 5.60028 13.7802 5.37108C13.9216 5.26231 14.0195 5.27396 14.1547 5.37652C14.4391 5.59329 14.7406 5.78753 15.0281 6.00041C15.2278 6.14881 15.4306 6.23583 15.67 6.10375C15.893 5.98021 15.9404 5.77898 15.9396 5.53812C15.9342 3.78454 15.9404 2.03174 15.9326 0.278156C15.9318 0.0722636 15.966 -0.000769953 16.196 6.99957e-06C18.5699 0.00933043 20.9438 0.00311481 23.3169 0.00777652C24.2501 0.00933043 24.9977 0.752097 24.9984 1.68366C25.0016 8.9 25.0016 16.1171 24.9984 23.3334C24.9977 24.2743 24.2432 24.9985 23.2788 24.9992C19.6935 25.0008 16.1082 24.9992 12.5237 24.9992ZM8.9858 8.8223C8.99434 8.8223 9.00289 8.8223 9.01144 8.8223C9.01144 8.55115 9.00833 8.27999 9.01222 8.00883C9.0161 7.76565 8.93529 7.56286 8.70683 7.46264C8.46984 7.3593 8.25925 7.42923 8.07432 7.61103C6.69117 8.96759 5.30336 10.3195 3.92099 11.676C3.63193 11.9596 3.6296 12.2168 3.91322 12.5074C5.26606 13.8942 6.62201 15.278 7.97563 16.6633C8.15358 16.8459 8.35483 16.9306 8.60193 16.8257C8.83816 16.7255 8.90965 16.532 8.90965 16.2865C8.90965 15.7729 8.93218 15.2601 8.92829 14.7466C8.92674 14.5508 8.98036 14.4816 9.18627 14.4816C9.89494 14.4816 10.5974 14.5391 11.289 14.6937C14.3661 15.3798 16.6654 17.1318 18.2777 19.8154C18.7766 20.646 19.1457 21.534 19.4301 22.4601C19.5296 22.7849 19.779 22.9232 20.0758 22.8517C20.3128 22.7942 20.4776 22.5417 20.4512 22.2706C20.3012 20.7431 19.9632 19.2607 19.3182 17.8645C17.3002 13.4933 13.9061 10.8556 9.19871 9.8945C9.02465 9.85876 8.97414 9.80515 8.98191 9.63655C8.99512 9.36462 8.9858 9.09346 8.9858 8.8223Z" fill="white"/>
<path d="M14.9219 4.65786C14.7051 4.50714 14.5404 4.3937 14.3772 4.27949C14.0462 4.04951 13.8737 4.05106 13.5395 4.28803C13.2481 4.4947 12.9521 4.69593 12.6661 4.91037C12.5472 4.99972 12.4633 5.00749 12.3398 4.91348C12.0398 4.68583 11.7282 4.47217 11.4182 4.25851C11.1276 4.05806 10.9387 4.06816 10.6497 4.25618C10.4702 4.37272 10.2907 4.63844 10.1104 4.55919C9.99074 4.50636 10.077 4.16838 10.0762 3.95861C10.0723 2.72947 10.0801 1.49955 10.0692 0.270413C10.0669 0.0497589 10.1267 -0.00151999 10.3427 3.39154e-05C11.7857 0.0101343 13.2287 0.00469563 14.6709 0.00624954C14.7859 0.00624954 14.9258 -0.0442524 14.925 0.17174C14.9196 1.64096 14.9219 3.11095 14.9219 4.65786Z" fill="white"/>
<path d="M17.9503 17.5652C16.9984 16.4433 15.8919 15.5303 14.6129 14.8357C12.7254 13.8117 10.7097 13.3455 8.56043 13.4901C8.07788 13.5227 7.90849 13.6983 7.90615 14.1823C7.9046 14.4442 7.9046 14.7052 7.90305 14.967C7.90305 14.9865 7.90072 15.0059 7.89994 15.0269C7.81058 15.0743 7.78105 14.988 7.74064 14.9476C6.86491 14.0565 5.99151 13.163 5.11655 12.2702C5.02874 12.1809 4.92695 12.1187 5.07536 11.975C6.01715 11.0683 6.95038 10.1523 7.88751 9.24013C7.89838 9.23003 7.91936 9.2308 7.95822 9.2207C7.95822 9.55091 7.95744 9.87645 7.95822 10.2012C7.95977 10.5912 8.11674 10.7575 8.49827 10.8181C12.6446 11.4739 15.7761 13.6113 17.8757 17.2513C17.9464 17.3725 17.9433 17.374 17.9503 17.5652Z" fill="white"/>
</g>
<defs>
<clipPath id="clip0_334_136">
<rect width="25" height="25" fill="white"/>
</clipPath>
</defs>
</svg>
