<svg width="25" height="25" viewBox="0 0 25 25" fill="none" xmlns="http://www.w3.org/2000/svg">
<g clip-path="url(#clip0_330_97)">
<path d="M4.78906 1.01346C9.79431 1.01346 14.7287 1.00774 19.663 1.01704C20.9393 1.01918 22.0681 2.18871 22.0724 3.49057C22.0809 6.32677 22.0759 9.16367 22.0759 12.0006C22.0759 15.0957 22.0724 18.1909 22.0823 21.286C22.083 21.5292 22.0164 21.5693 21.793 21.5693C18.4945 21.5614 15.1959 21.5642 11.8981 21.5642C11.0848 21.5642 11.0444 21.605 11.0401 22.4169C11.0345 23.5521 10.3268 24.5321 9.26464 24.8761C7.64232 25.4019 5.94979 24.1694 5.94837 22.4469C5.94412 16.3547 5.93632 10.2624 5.95546 4.17011C5.9583 2.97197 5.74133 1.89472 4.78906 1.01346ZM14.0387 6.57855C12.2278 6.57855 10.4162 6.57784 8.60522 6.57927C8.23083 6.57927 8.0713 6.7395 8.06917 7.11217C8.06633 7.61146 8.06633 8.11003 8.06917 8.60931C8.0713 8.98485 8.22942 9.14651 8.60167 9.14651C12.2065 9.14794 15.8114 9.14794 19.4162 9.14651C19.7892 9.14651 19.9502 8.98485 19.953 8.61289C19.9558 8.14079 19.9544 7.66797 19.9537 7.19586C19.953 6.71375 19.8197 6.57855 19.3404 6.57855C17.5727 6.57784 15.8057 6.57855 14.0387 6.57855ZM20.3763 15.1501C20.3742 13.2717 18.844 11.7166 16.9969 11.7166C15.1222 11.7166 13.5864 13.2602 13.5871 15.1458C13.5871 17.0256 15.1385 18.5778 17.0061 18.5671C18.8433 18.5557 20.3784 16.9992 20.3763 15.1501ZM13.9792 10.8597C15.7901 10.8597 17.601 10.8604 19.412 10.859C19.741 10.859 19.9459 10.6937 19.9495 10.4355C19.953 10.1758 19.7474 10.0085 19.4205 10.0034C19.385 10.0027 19.3496 10.0034 19.3141 10.0034C15.7802 10.0034 12.2469 10.0034 8.713 10.0034C8.64209 10.0034 8.57118 9.99916 8.50099 10.0049C8.25282 10.0256 8.07271 10.2037 8.06988 10.4269C8.06704 10.6472 8.24785 10.8332 8.49248 10.8568C8.56267 10.864 8.63358 10.859 8.70449 10.859C10.4637 10.8597 12.2214 10.8597 13.9792 10.8597ZM16.9813 3.99415C16.9813 4.27884 16.9941 4.56496 16.9792 4.84894C16.9296 5.79958 17.2274 5.7445 17.8974 5.71589C18.637 5.6837 19.2546 5.18227 19.4559 4.48413C19.6566 3.791 19.3985 3.04636 18.8107 2.61933C18.4179 2.33392 17.9698 2.27956 17.5025 2.29529C17.148 2.30745 16.9849 2.46267 16.982 2.81818C16.9785 3.21017 16.9813 3.60216 16.9813 3.99415ZM16.7403 20.2796C17.7734 20.2796 18.8064 20.2781 19.8395 20.2803C20.0147 20.281 20.1742 20.2509 20.2848 20.0993C20.3806 19.9677 20.4054 19.8261 20.3288 19.6744C20.2331 19.4841 20.0707 19.4219 19.8707 19.4226C19.1113 19.424 18.3519 19.4233 17.5925 19.4233C16.3035 19.4233 15.0144 19.4248 13.7253 19.4219C13.5424 19.4219 13.3708 19.4405 13.2531 19.6029C13.1581 19.7345 13.1326 19.8761 13.2091 20.0278C13.3049 20.218 13.4672 20.2803 13.6672 20.2796C14.6918 20.2788 15.7164 20.2796 16.7403 20.2796ZM8.91649 4.00988C8.91649 4.41976 8.91153 4.83034 8.91791 5.24021C8.92217 5.52705 9.10581 5.72376 9.34618 5.71947C9.57663 5.71589 9.74822 5.52491 9.76524 5.25523C9.78864 4.87612 9.78864 4.87612 10.1751 4.86539C10.1928 4.86468 10.2105 4.86468 10.2283 4.86396C10.8941 4.8239 11.4074 4.32033 11.4599 3.65724C11.5088 3.03635 11.0699 2.47054 10.4296 2.33106C10.0971 2.25881 9.76028 2.30316 9.4256 2.29887C9.08596 2.29529 8.92217 2.4641 8.91791 2.80531C8.91295 3.20731 8.91649 3.6086 8.91649 4.00988ZM14.428 5.10645C14.4578 4.89114 14.4046 4.71518 14.3337 4.53993C14.0884 3.93263 13.8445 3.32462 13.6098 2.71375C13.5247 2.492 13.4169 2.29887 13.1545 2.30244C12.9078 2.30602 12.8007 2.48699 12.7185 2.70159C12.4781 3.32963 12.2335 3.95695 11.9732 4.57641C11.8676 4.8282 11.8768 5.08213 11.8974 5.33606C11.9137 5.54207 12.0527 5.67655 12.2547 5.71089C12.4377 5.74164 12.6171 5.66296 12.666 5.49343C12.7284 5.27526 12.8603 5.28456 13.0219 5.29243C13.1368 5.29815 13.2517 5.29958 13.3658 5.29172C13.4991 5.28242 13.5871 5.30101 13.636 5.45767C13.6948 5.64651 13.8608 5.73449 14.0536 5.7116C14.2578 5.68728 14.3855 5.55209 14.4238 5.34822C14.4415 5.26382 14.428 5.17226 14.428 5.10645ZM10.3984 12.5721C11.0245 12.5721 11.6513 12.5771 12.2774 12.57C12.5433 12.5671 12.7312 12.3804 12.7341 12.1487C12.7369 11.914 12.5525 11.7209 12.2852 11.7195C11.0323 11.7137 9.78013 11.7166 8.52722 11.7173C8.36768 11.7173 8.23296 11.7788 8.14504 11.9155C8.0635 12.0421 8.04364 12.1765 8.11526 12.3189C8.20531 12.4977 8.35563 12.5707 8.54566 12.5714C9.16325 12.5735 9.78084 12.5728 10.3984 12.5721ZM10.4289 13.4291C9.82055 13.4291 9.21146 13.4276 8.60309 13.4298C8.2748 13.4312 8.0713 13.5979 8.0713 13.8568C8.0713 14.1157 8.27551 14.2838 8.60309 14.2846C9.80282 14.286 11.0025 14.286 12.2023 14.2846C12.5299 14.2838 12.7348 14.1157 12.7348 13.8568C12.7348 13.5964 12.5313 13.4305 12.203 13.4291C11.6109 13.4276 11.0203 13.4291 10.4289 13.4291ZM10.4041 15.9977C11.004 15.9977 11.6038 15.9992 12.2037 15.997C12.5306 15.9956 12.7355 15.8268 12.7341 15.5678C12.7327 15.3089 12.5284 15.1422 12.2001 15.1422C11.0004 15.1408 9.80069 15.1408 8.60096 15.1422C8.27338 15.1429 8.06917 15.3117 8.07059 15.5714C8.07201 15.8303 8.27551 15.9963 8.6038 15.9977C9.20437 15.9992 9.80424 15.9977 10.4041 15.9977ZM15.2838 4.00345C15.2838 4.40402 15.281 4.80388 15.2846 5.20445C15.2874 5.51418 15.454 5.71589 15.7022 5.72018C15.9511 5.72448 16.1305 5.52276 16.1319 5.21661C16.1354 4.41618 16.1354 3.61575 16.1319 2.81532C16.1305 2.50559 15.9617 2.30388 15.7142 2.29958C15.4569 2.29529 15.2867 2.50202 15.2846 2.82963C15.2817 3.22018 15.2838 3.61217 15.2838 4.00345Z" fill="white"/>
<path d="M24.9986 22.4366C24.9383 23.4924 24.0137 24.561 22.8813 24.8815C22.6516 24.9466 22.4183 24.9909 22.1772 24.9902C18.41 24.9895 14.6435 24.9902 10.8762 24.9902C10.8514 24.9902 10.8259 24.9852 10.7656 24.9795C10.8486 24.8901 10.9167 24.8178 10.9833 24.7442C11.5321 24.1354 11.8257 23.4165 11.881 22.5997C11.8895 22.4723 11.9079 22.4173 12.0554 22.418C16.3438 22.423 20.6329 22.4223 24.9213 22.423C24.9468 22.4223 24.973 22.4316 24.9986 22.4366Z" fill="white"/>
<path d="M2.53281 4.4394C1.7727 4.4394 1.01188 4.42939 0.252481 4.44584C0.0340906 4.45013 -0.00916205 4.3786 0.00147383 4.17975C0.0255818 3.74627 -0.0268885 3.30993 0.099324 2.88003C0.457399 1.65614 1.65925 0.846412 2.876 1.02452C4.16294 1.21336 5.0911 2.27846 5.0989 3.57531C5.10032 3.78919 5.08401 4.00449 5.10315 4.21694C5.12088 4.4158 5.04288 4.44584 4.86704 4.44298C4.0892 4.43368 3.31136 4.4394 2.53281 4.4394Z" fill="white"/>
<path d="M14.0146 8.29236C12.3965 8.29236 10.7784 8.28878 9.16033 8.29736C8.96463 8.29808 8.91004 8.25516 8.91429 8.05201C8.92705 7.43613 8.91713 7.43542 9.52975 7.43542C12.6333 7.43542 15.7369 7.43828 18.8397 7.4297C19.0581 7.42898 19.1191 7.47619 19.1127 7.70223C19.0957 8.29164 19.1077 8.29164 18.5227 8.29164C17.021 8.29236 15.5178 8.29236 14.0146 8.29236Z" fill="white"/>
<path d="M14.4375 15.1429C14.4382 13.7194 15.5663 12.5749 16.9696 12.5742C18.4061 12.5735 19.5335 13.7151 19.5307 15.1701C19.5285 16.5785 18.3834 17.7151 16.971 17.7116C15.5642 17.708 14.4368 16.5642 14.4375 15.1429ZM17.1695 14.7244C17.2518 14.7194 17.2865 14.7151 17.322 14.7159C17.5715 14.7209 17.7623 14.6207 17.8155 14.3668C17.8672 14.1214 17.7389 13.9505 17.5077 13.8825C17.3936 13.8489 17.3985 13.7595 17.3617 13.6865C17.2156 13.3954 16.7894 13.3196 16.6831 13.6C16.564 13.9133 16.3186 14.1243 16.1967 14.4183C16.1194 14.605 16.1229 14.7981 16.1882 14.9927C16.2775 15.2581 16.4803 15.4154 16.7533 15.5585C16.6717 15.5664 16.6455 15.5706 16.6193 15.5706C16.3654 15.5728 16.186 15.6908 16.147 15.9455C16.1116 16.1772 16.2399 16.3389 16.4612 16.4047C16.5455 16.4297 16.5647 16.4827 16.5888 16.5499C16.6639 16.7602 16.8185 16.8732 17.0355 16.8446C17.2503 16.8167 17.3744 16.6679 17.4056 16.4498C17.417 16.3725 17.4198 16.3103 17.49 16.2437C18.0402 15.723 17.9126 15.0513 17.1695 14.7244Z" fill="white"/>
<path d="M17.8314 4.01179C17.8314 3.77216 17.8384 3.53182 17.8285 3.29219C17.8228 3.162 17.8789 3.14627 17.9845 3.16057C18.3589 3.21136 18.6801 3.60192 18.6794 4.01179C18.6794 4.42166 18.3596 4.81079 17.9845 4.863C17.8782 4.87803 17.8228 4.86229 17.8285 4.73139C17.8384 4.49248 17.8314 4.25213 17.8314 4.01179Z" fill="white"/>
<path d="M9.76378 3.58165C9.78576 3.37635 9.65529 3.11026 10.0502 3.14817C10.4303 3.18465 10.6182 3.29839 10.6146 3.58952C10.6111 3.8785 10.4267 3.9858 10.0389 4.0187C9.59431 4.05733 9.82688 3.73258 9.76378 3.58165Z" fill="white"/>
<path d="M12.9654 4.42446C12.964 4.4073 12.9576 4.38798 12.9632 4.37296C13.0207 4.22632 13.0802 4.0804 13.1483 3.91016C13.2795 4.06323 13.2908 4.25136 13.4014 4.42375C13.2334 4.42446 13.0994 4.42446 12.9654 4.42446Z" fill="white"/>
</g>
<defs>
<clipPath id="clip0_330_97">
<rect width="25" height="25" fill="white"/>
</clipPath>
</defs>
</svg>
