<svg width="25" height="25" viewBox="0 0 25 25" fill="none" xmlns="http://www.w3.org/2000/svg">
<path d="M6.65655 24.2557C4.60754 24.2557 2.55853 24.2557 0.509526 24.2557C0.15228 24.2557 0.0099141 24.1691 0.00525726 23.9508C0.000600428 23.7211 0.146958 23.6291 0.516844 23.6291C4.43258 23.6284 8.34831 23.6579 12.264 23.617C15.1087 23.5867 17.5921 22.5429 19.6924 20.6098C21.5418 18.907 22.71 16.7992 23.1843 14.3193C24.1789 9.11899 21.5531 3.89921 16.7093 1.66043C14.7974 0.776476 12.7856 0.469509 10.704 0.709978C5.76776 1.27824 1.91123 4.97259 0.894713 9.60194C-0.192326 14.5524 1.95381 19.5176 6.29731 22.0895C6.36117 22.1271 6.42969 22.1627 6.48358 22.2124C6.60333 22.3239 6.61464 22.4623 6.53414 22.598C6.45764 22.727 6.33722 22.7706 6.1922 22.7236C6.14563 22.7082 6.09972 22.6867 6.05715 22.6618C2.88451 20.7582 0.892717 17.9935 0.208827 14.326C-0.962034 8.04696 2.91046 2.05271 8.82397 0.46212C12.8894 -0.631407 16.5843 0.222995 19.8114 2.94875C21.935 4.74286 23.2854 7.0562 23.7711 9.80412C24.5614 14.2783 23.2768 18.103 19.9618 21.1881C18.2328 22.7968 16.1578 23.7305 13.8414 24.1127C13.1941 24.2195 12.5395 24.2537 11.8842 24.2551C10.1412 24.2578 8.39887 24.2557 6.65655 24.2557Z" fill="white"/>
<path d="M10.3519 20.0203C9.70927 19.6476 9.10188 19.2956 8.49517 18.9423C6.96972 18.0536 5.44427 17.1649 3.91816 16.277C3.80906 16.2138 3.7259 16.1608 3.72657 15.9975C3.73388 13.5351 3.73189 11.0726 3.73189 8.61018C3.73189 8.57122 3.73788 8.53293 3.74386 8.45703C4.28206 8.76803 4.79564 9.06358 5.30789 9.36248C5.40835 9.42092 5.37109 9.52638 5.37109 9.61303C5.37309 10.6434 5.37575 11.6738 5.36843 12.7035C5.3671 12.8714 5.41034 12.9715 5.56136 13.0575C6.60249 13.654 7.63764 14.2598 8.70472 14.8798C8.70472 13.6963 8.70472 12.5403 8.70472 11.3453C9.25157 11.6637 9.76382 11.9633 10.2781 12.2609C10.3719 12.3153 10.3519 12.4013 10.3519 12.4819C10.3519 14.9779 10.3519 17.4739 10.3519 20.0203Z" fill="white"/>
<path d="M10.9252 20.0102C10.9252 18.9684 10.9252 17.9642 10.9252 16.9607C10.9252 15.4782 10.9272 13.9958 10.9219 12.5134C10.9212 12.3609 10.9665 12.2776 11.1002 12.2004C13.1791 10.9946 15.2554 9.78425 17.3297 8.56981C17.496 8.47242 17.5579 8.44824 17.5552 8.6887C17.5459 9.82791 17.5472 10.9664 17.5545 12.1056C17.5559 12.2816 17.5153 12.3273 17.3357 12.3152C15.3046 12.1809 13.8005 13.5189 13.3767 15.0746C13.084 16.1499 13.2031 17.1763 13.7645 18.1415C13.8351 18.2624 13.861 18.3202 13.7107 18.4055C12.8185 18.9133 11.9337 19.4352 11.0463 19.9518C11.0183 19.9679 10.9891 19.9793 10.9252 20.0102Z" fill="white"/>
<path d="M17.0328 12.8907C18.8031 12.8799 20.254 14.3322 20.27 16.1316C20.2866 17.9499 18.839 19.4317 17.0421 19.4364C15.2759 19.4411 13.8116 17.9768 13.797 16.1914C13.783 14.3792 15.2313 12.9014 17.0328 12.8907ZM15.3756 16.0215C15.2472 16.0195 15.1687 16.0846 15.1162 16.1894C15.049 16.3231 15.0976 16.4339 15.1914 16.5293C15.4774 16.8208 15.7655 17.1103 16.0529 17.3998C16.3416 17.6913 16.4427 17.6927 16.7261 17.4072C17.4127 16.7147 18.0979 16.0221 18.7838 15.329C18.8303 15.2819 18.8809 15.2363 18.9188 15.1825C19.0113 15.0509 19.0166 14.9098 18.9029 14.7943C18.7805 14.67 18.6354 14.6781 18.499 14.7822C18.4472 14.8225 18.4039 14.8749 18.3567 14.9219C17.7526 15.5318 17.1432 16.1357 16.5492 16.755C16.4121 16.8974 16.3436 16.8819 16.2245 16.7476C16.0362 16.536 15.8287 16.3426 15.6304 16.1404C15.5573 16.0672 15.4801 16.0094 15.3756 16.0215Z" fill="white"/>
<path d="M6.27344 9.21718C7.89202 8.27345 9.50927 7.32971 11.1279 6.38664C11.6574 6.07766 12.1876 5.76935 12.7185 5.46238C12.785 5.4241 12.8382 5.35894 12.9394 5.41872C13.6213 5.82174 14.3078 6.21804 15.029 6.63719C14.7482 6.80175 14.5021 6.94617 14.2553 7.09058C12.3732 8.18814 10.4905 9.28368 8.61117 10.3859C8.46614 10.4712 8.35903 10.4773 8.21268 10.3886C7.63124 10.0367 7.04115 9.69879 6.45505 9.35488C6.39119 9.31727 6.31601 9.29577 6.27344 9.21718Z" fill="white"/>
<path d="M4.02344 7.93515C5.4165 7.12239 6.77363 6.33046 8.13077 5.53852C8.91045 5.08378 9.69147 4.6324 10.4678 4.17229C10.5862 4.10243 10.6734 4.08832 10.7985 4.16422C11.2775 4.45507 11.7644 4.73248 12.2793 5.03273C11.6207 5.41627 10.9954 5.78101 10.3694 6.14574C8.86854 7.02164 7.36705 7.89485 5.87021 8.77679C5.71653 8.8668 5.60676 8.8715 5.45176 8.77477C4.99672 8.49199 4.52771 8.23002 4.02344 7.93515Z" fill="white"/>
<path d="M9 10.8374C11.1807 9.56522 13.3335 8.30914 15.4876 7.05441C15.5468 7.02015 15.5994 6.96507 15.6885 7.01814C16.1975 7.32107 16.7111 7.61662 17.2566 7.93433C16.6831 8.26817 16.1423 8.5832 15.6014 8.8989C14.0074 9.8292 12.4121 10.7582 10.8208 11.6925C10.6918 11.7684 10.5953 11.7778 10.4636 11.6972C9.98991 11.409 9.50893 11.1343 9 10.8374Z" fill="white"/>
<path d="M5.97593 9.75391C6.67113 10.1603 7.34238 10.5539 8.01629 10.9421C8.10411 10.9925 8.12074 11.0543 8.12007 11.145C8.11808 12.0316 8.11874 12.9183 8.11874 13.7996C8.04357 13.8459 8.00033 13.7861 7.95509 13.7599C7.33839 13.4033 6.72435 13.0425 6.10832 12.6859C6.00986 12.6288 5.944 12.573 5.94533 12.438C5.95265 11.5762 5.94932 10.7144 5.94999 9.85265C5.94999 9.83048 5.9613 9.80764 5.97593 9.75391Z" fill="white"/>
<path d="M22.2393 24.2543C22.1389 24.2543 22.0517 24.2543 21.9646 24.2543C20.7551 24.2543 19.545 24.2543 18.3356 24.2537C18.2611 24.2537 18.1859 24.2557 18.1127 24.2443C17.9437 24.2181 17.8373 24.1139 17.8359 23.9427C17.8346 23.7707 17.9457 23.6679 18.1094 23.6344C18.1812 23.6196 18.2577 23.627 18.3322 23.627C19.5503 23.627 20.7684 23.627 21.9865 23.627C22.067 23.627 22.1482 23.627 22.2566 23.627C22.1675 23.5195 22.0564 23.5094 21.9712 23.4564C21.8129 23.359 21.757 23.2145 21.8348 23.0506C21.9113 22.8894 22.0517 22.825 22.2287 22.9062C22.7542 23.1474 23.2798 23.3872 23.804 23.6317C23.9337 23.6921 24.0069 23.7969 24.0003 23.9507C23.9943 24.0824 23.9278 24.1684 23.8147 24.2228C23.331 24.4572 22.848 24.6916 22.3644 24.9254C22.1123 25.0469 21.9479 25.0174 21.8541 24.834C21.761 24.6526 21.8388 24.5076 22.0983 24.3732C22.1449 24.349 22.2087 24.345 22.2393 24.2543Z" fill="white"/>
</svg>
