<svg width="21" height="25" viewBox="0 0 21 25" fill="none" xmlns="http://www.w3.org/2000/svg">
<g clip-path="url(#clip0_328_37)">
<path d="M17.5926 13.5893C17.2011 13.3648 16.8357 13.3965 16.5028 13.6404C16.1589 13.892 15.9853 14.2273 16.082 14.6632C16.2706 15.5126 16.5979 16.3186 16.8991 17.1323C17.0061 17.4219 17.1195 17.7099 17.2368 17.9948C17.2796 18.0994 17.278 18.1613 17.171 18.2379C16.5797 18.6599 16.1224 19.188 15.8918 19.8794C15.8664 19.9552 15.8299 19.9816 15.7531 19.9715C15.7118 19.9661 15.6698 19.9707 15.6278 19.9707C10.9089 19.9707 6.19067 19.97 1.47169 19.9738C1.31318 19.9738 1.26562 19.9421 1.26562 19.7779C1.27038 13.6613 1.27038 7.54468 1.26562 1.42727C1.26562 1.28171 1.30208 1.24609 1.45029 1.24609C6.77321 1.24997 12.0953 1.24997 17.4183 1.24842C17.5245 1.24842 17.6005 1.23525 17.6005 1.3932C17.595 5.43018 17.5966 9.46716 17.5958 13.5041C17.5966 13.5281 17.5942 13.5514 17.5926 13.5893ZM9.60111 6.85404C10.4856 6.85327 11.3709 6.85327 12.2554 6.85327C12.9133 6.85327 13.5711 6.85481 14.2281 6.85249C14.397 6.85172 14.5095 6.75958 14.4937 6.63415C14.4746 6.48627 14.3748 6.43517 14.2266 6.43904C13.9999 6.44523 13.7724 6.43826 13.545 6.44214C13.4697 6.44368 13.4292 6.43439 13.4158 6.34535C13.4031 6.26018 13.4324 6.22999 13.5053 6.20908C13.5854 6.18663 13.663 6.15876 13.7415 6.13243C13.9309 6.06894 13.9761 5.98765 13.9167 5.80337C13.8342 5.54864 13.7478 5.29469 13.6623 5.0415C13.5132 4.59863 13.5109 4.59321 13.0694 4.74574C12.9442 4.7891 12.899 4.75193 12.8364 4.65437C12.3363 3.88012 11.6349 3.35672 10.744 3.07721C10.3961 2.96804 10.3953 2.97114 10.3834 2.61885C10.3778 2.44697 10.3089 2.37728 10.1313 2.37574C9.86266 2.37341 9.59318 2.37728 9.3245 2.37419C8.8664 2.36954 8.80457 2.34089 8.8228 2.84726C8.8228 2.85345 8.82201 2.85887 8.8228 2.86507C8.8339 2.95643 8.79823 2.98972 8.69996 3.01372C7.7671 3.24213 7.01891 3.73998 6.46094 4.50804C6.26279 4.78135 6.262 4.78058 5.94497 4.6838C5.74604 4.62263 5.67233 4.6567 5.60734 4.84716C5.52095 5.10035 5.44644 5.35817 5.35292 5.60903C5.19203 6.0372 5.21581 6.08056 5.66599 6.19902C5.67708 6.20212 5.68818 6.20908 5.70007 6.21063C5.80469 6.22225 5.78963 6.29425 5.78884 6.36548C5.78804 6.46304 5.7175 6.44059 5.66282 6.44136C5.41791 6.44291 5.17221 6.44136 4.92731 6.44214C4.80842 6.44291 4.73392 6.50408 4.71649 6.61557C4.69905 6.72861 4.75453 6.80991 4.86945 6.83855C4.92572 6.85249 4.98675 6.85481 5.0462 6.85481C6.56397 6.85481 8.08254 6.85404 9.60111 6.85404ZM5.31805 8.23996C4.8639 8.23996 4.40897 8.23841 3.95482 8.24074C3.77412 8.24151 3.67346 8.32358 3.68773 8.47146C3.75747 9.15591 3.83435 9.84035 3.90568 10.5248C3.92391 10.7006 4.0214 10.7571 4.19497 10.7563C4.96615 10.7517 5.73732 10.754 6.50849 10.754C6.78351 10.754 6.83186 10.7137 6.8596 10.4528C6.91191 9.94797 6.95392 9.44238 7.01812 8.93912C7.03635 8.79355 6.99672 8.63096 7.10292 8.50243C7.31454 8.24461 7.5531 8.04175 7.93116 8.12227C7.99932 8.13698 8.07462 8.12769 8.14595 8.12227C8.25611 8.11376 8.3219 8.04795 8.33458 7.94497C8.34805 7.83115 8.2902 7.74986 8.17606 7.72508C8.10156 7.70882 8.02072 7.72431 7.94463 7.71269C7.49921 7.64301 7.13779 7.77076 6.87625 8.13853C6.81601 8.2237 6.732 8.24306 6.62817 8.24151C6.19067 8.23686 5.75396 8.23996 5.31805 8.23996ZM5.33469 13.5289C4.88055 13.5289 4.4264 13.5274 3.97147 13.5297C3.77649 13.5305 3.67267 13.6125 3.68773 13.7651C3.75589 14.4441 3.82722 15.1223 3.9041 15.8006C3.92788 16.0096 3.98653 16.0476 4.21162 16.0476C4.98279 16.0483 5.75396 16.0476 6.52514 16.0476C6.77559 16.0476 6.83028 16.0034 6.85643 15.7634C6.91984 15.1897 6.98007 14.6152 7.03952 14.0407C7.0736 13.7109 7.39697 13.4182 7.73222 13.4182C7.86379 13.4182 7.99536 13.4205 8.12692 13.4166C8.25374 13.4128 8.32824 13.3423 8.33379 13.2208C8.33933 13.0953 8.25928 13.0272 8.13961 13.0102C8.06907 13.0001 7.99457 13.0171 7.92482 13.0063C7.48336 12.9351 7.13145 13.0706 6.87387 13.4314C6.81284 13.5173 6.72803 13.5328 6.62579 13.5312C6.19543 13.5258 5.76506 13.5289 5.33469 13.5289ZM5.99966 17.6611C6.47837 17.6611 6.9563 17.6588 7.43501 17.6627C7.57926 17.6634 7.68467 17.6255 7.69577 17.4676C7.70528 17.3282 7.61968 17.2608 7.43184 17.2585C7.25827 17.2562 7.08469 17.2539 6.91191 17.2593C6.81601 17.2624 6.79699 17.2453 6.8168 17.1424C6.86911 16.866 6.77321 16.6329 6.52989 16.4765C6.29291 16.324 6.04167 16.3248 5.80627 16.4765C5.56533 16.6321 5.46943 16.8613 5.51381 17.1431C5.51936 17.1803 5.56058 17.2392 5.50985 17.2492C5.42425 17.267 5.32914 17.2678 5.24355 17.2508C5.19282 17.2407 5.23324 17.1819 5.23958 17.1447C5.30378 16.7576 5.04223 16.4138 4.6507 16.3689C4.29404 16.3286 3.94848 16.6128 3.92471 16.9674C3.89855 17.3561 4.1926 17.6596 4.60156 17.6619C5.0668 17.6634 5.53363 17.6611 5.99966 17.6611ZM5.98936 12.3675C6.47996 12.3675 6.96977 12.3668 7.46037 12.3683C7.60145 12.3691 7.69339 12.3157 7.69497 12.1678C7.69656 12.0176 7.59907 11.9649 7.46196 11.9634C7.28284 11.961 7.10292 11.9603 6.9238 11.9641C6.8279 11.9665 6.79382 11.9587 6.8168 11.8403C6.8707 11.5631 6.76608 11.3316 6.52197 11.1775C6.29133 11.0319 6.04484 11.0304 5.8142 11.1759C5.56533 11.3339 5.46547 11.5654 5.51619 11.8542C5.52253 11.8914 5.56137 11.9456 5.50351 11.9564C5.42267 11.9711 5.33548 11.9688 5.25385 11.9564C5.19044 11.9463 5.23007 11.8945 5.23562 11.8573C5.3014 11.4547 5.04382 11.1156 4.64119 11.0722C4.28691 11.0343 3.94293 11.3254 3.92312 11.68C3.90172 12.0702 4.19418 12.3644 4.6079 12.366C5.06918 12.3691 5.52966 12.3675 5.98936 12.3675ZM12.6898 8.64954C13.5267 8.64954 14.3637 8.64954 15.2006 8.64954C15.2426 8.64954 15.2846 8.65264 15.3259 8.64799C15.4424 8.63406 15.5097 8.56825 15.5153 8.45288C15.5208 8.33442 15.4535 8.26783 15.3401 8.24616C15.2878 8.23609 15.2331 8.23919 15.1792 8.23919C13.5291 8.23919 11.879 8.23841 10.2288 8.23996C10.1583 8.23996 10.0846 8.24306 10.0164 8.25854C9.91497 8.28255 9.87455 8.35765 9.87772 8.45675C9.88089 8.55818 9.94192 8.61935 10.0354 8.64335C10.0862 8.65651 10.1424 8.64954 10.1963 8.64954C11.0277 8.65032 11.8584 8.65032 12.6898 8.64954ZM12.6977 15.8339C13.5291 15.8339 14.3597 15.8339 15.1911 15.8339C15.245 15.8339 15.3013 15.8416 15.352 15.8285C15.4455 15.8045 15.5089 15.7464 15.5161 15.645C15.5224 15.5459 15.478 15.4793 15.3837 15.4398C15.3259 15.415 15.2664 15.4204 15.2078 15.4204C13.5339 15.4204 11.8599 15.4197 10.1852 15.4204C10.1266 15.4204 10.0679 15.415 10.0093 15.4406C9.91497 15.4816 9.87138 15.5482 9.8793 15.6473C9.88723 15.7479 9.94905 15.8076 10.0442 15.8292C10.0957 15.8408 10.1512 15.8354 10.2051 15.8354C11.0357 15.8339 11.8663 15.8339 12.6977 15.8339ZM12.6969 9.59491C13.5164 9.59491 14.3351 9.59491 15.1547 9.59491C15.1848 9.59491 15.2141 9.59491 15.2442 9.59491C15.4281 9.59259 15.5161 9.52678 15.5161 9.39051C15.5161 9.25424 15.4281 9.18301 15.245 9.18223C13.5529 9.18146 11.8607 9.18146 10.1678 9.18223C9.96728 9.18223 9.8793 9.24959 9.87851 9.39051C9.87772 9.5322 9.9649 9.59491 10.1678 9.59491C11.0103 9.59491 11.8536 9.59491 12.6969 9.59491ZM12.6969 10.5418C13.5283 10.5418 14.3589 10.5418 15.1903 10.5418C15.2442 10.5418 15.3005 10.548 15.3512 10.5356C15.4455 10.5132 15.5097 10.4543 15.5161 10.3529C15.5232 10.2461 15.4717 10.1717 15.3679 10.1415C15.3179 10.1268 15.2617 10.1284 15.2086 10.1284C13.5346 10.1276 11.8599 10.1276 10.186 10.1284C10.1385 10.1284 10.0885 10.1237 10.0434 10.1361C9.9332 10.1648 9.869 10.2344 9.8793 10.3529C9.88802 10.4621 9.95539 10.5217 10.0608 10.538C10.1131 10.5465 10.1678 10.5418 10.2217 10.5418C11.0468 10.5418 11.8718 10.5418 12.6969 10.5418ZM12.6858 11.4864C13.457 11.4864 14.2281 11.4864 14.9993 11.4864C15.1071 11.4864 15.2157 11.4934 15.3219 11.4841C15.4352 11.4733 15.5074 11.4082 15.5153 11.2913C15.5232 11.1721 15.4527 11.107 15.3441 11.0784C15.2989 11.0668 15.249 11.0722 15.2014 11.0722C13.9515 11.0722 12.7024 11.0722 11.4526 11.0722C11.0159 11.0722 10.5799 11.0737 10.1432 11.0714C10.0164 11.0706 9.91576 11.1047 9.88247 11.234C9.84522 11.378 9.9546 11.4849 10.1385 11.4856C10.9881 11.4872 11.837 11.4864 12.6858 11.4864ZM12.6858 14.8885C13.5228 14.8885 14.3597 14.8885 15.1975 14.8885C15.245 14.8885 15.295 14.8947 15.3409 14.8846C15.444 14.8637 15.5113 14.8033 15.5161 14.6934C15.5208 14.585 15.4661 14.5138 15.3615 14.4867C15.3053 14.4727 15.2434 14.4751 15.184 14.4751C13.5576 14.4743 11.9313 14.4743 10.3049 14.4751C10.2272 14.4751 10.1488 14.4681 10.0719 14.4774C9.93558 14.4936 9.85156 14.602 9.88168 14.7244C9.91576 14.8653 10.0251 14.8901 10.1575 14.8893C11 14.8877 11.8433 14.8885 12.6858 14.8885ZM12.6977 13.9424C12.9965 13.9424 13.2953 13.9424 13.5949 13.9424C14.1568 13.9424 14.7187 13.9416 15.2807 13.9424C15.4138 13.9424 15.5034 13.8889 15.5145 13.755C15.5264 13.6094 15.4329 13.5459 15.2973 13.5297C15.2617 13.525 15.226 13.5289 15.1895 13.5289C13.5275 13.5289 11.8655 13.5289 10.2027 13.5297C10.144 13.5297 10.083 13.5336 10.0259 13.5475C9.91735 13.5738 9.86662 13.6505 9.8793 13.7565C9.89753 13.9137 10.0101 13.9431 10.1504 13.9431C10.9992 13.9408 11.8488 13.9424 12.6977 13.9424ZM12.7088 16.3658C11.9138 16.3658 11.1181 16.3658 10.3231 16.3658C10.2391 16.3658 10.1543 16.358 10.0719 16.3681C9.95063 16.3836 9.87613 16.4525 9.87851 16.5787C9.88089 16.6972 9.95539 16.7576 10.0663 16.7769C10.1131 16.7854 10.1615 16.78 10.2098 16.78C11.8718 16.78 13.5346 16.78 15.1967 16.7792C15.2442 16.7792 15.2942 16.7854 15.3393 16.7746C15.4487 16.749 15.5177 16.6848 15.5161 16.5656C15.5145 16.4541 15.4455 16.3952 15.3449 16.3712C15.2942 16.3588 15.2379 16.3658 15.184 16.3658C14.3589 16.3658 13.5339 16.3658 12.7088 16.3658Z" fill="white"/>
<path d="M18.0199 13.0508C19.487 13.9396 20.4658 15.1444 20.8589 16.7657C21.2069 18.2004 20.8938 19.5367 20.1757 20.8042C19.7913 21.4824 19.3459 22.1243 18.9473 22.794C18.8918 22.8869 18.8165 22.8777 18.734 22.8769C17.4968 22.8676 16.2588 22.8598 15.0216 22.8498C14.6214 22.8467 14.619 22.8444 14.6214 22.4503C14.6246 21.8076 14.6333 21.1658 14.6325 20.5231C14.6325 20.4047 14.6689 20.376 14.7855 20.3791C15.066 20.3876 15.3474 20.3869 15.6287 20.3791C15.7421 20.376 15.7801 20.3977 15.773 20.5193C15.7429 21.0187 15.8697 21.4879 16.0845 21.9385C16.1463 22.0686 16.2477 22.1166 16.3738 22.0678C16.5125 22.0144 16.5251 21.8897 16.4673 21.7728C15.7389 20.3017 16.5426 19.1303 17.5721 18.4628C17.7861 18.3242 17.7996 18.2902 17.7045 18.0478C17.3003 17.0173 16.8905 15.9883 16.5759 14.9276C16.5458 14.8269 16.5196 14.7255 16.4974 14.6233C16.4166 14.2571 16.6551 13.9141 17.034 13.8514C17.2068 13.8227 17.3328 13.9025 17.4382 14.0256C17.6466 14.2679 17.8044 14.5428 17.951 14.8231C18.6223 16.1029 19.1367 17.447 19.64 18.7958C19.7263 19.0273 19.8088 19.0993 19.9491 19.0559C20.0941 19.0118 20.1218 18.8887 20.0347 18.6549C19.5258 17.296 19.0249 15.9318 18.3219 14.655C18.1016 14.254 17.9708 13.8653 18.0191 13.4162C18.0302 13.3063 18.0199 13.1948 18.0199 13.0508Z" fill="white"/>
<path d="M16.6069 23.2842C17.5746 23.2842 18.5431 23.2865 19.5109 23.2819C19.6385 23.2811 19.6837 23.3074 19.6805 23.4452C19.6686 23.9121 19.671 24.379 19.6757 24.8459C19.6773 24.9666 19.6401 25.0015 19.514 25.0007C17.5778 24.9899 15.6415 24.9829 13.7053 24.9798C13.5579 24.9798 13.5119 24.9395 13.5159 24.7932C13.5293 24.3325 13.5317 23.8711 13.5293 23.4104C13.5285 23.2935 13.5523 23.2563 13.6847 23.2579C14.6587 23.2648 15.6328 23.2617 16.6069 23.2617C16.6069 23.2695 16.6069 23.2764 16.6069 23.2842Z" fill="white"/>
<path d="M7.60228 21.2001C5.46709 21.2001 3.3319 21.2001 1.19671 21.2001C1.14915 21.2001 1.10081 21.2024 1.05325 21.1993C0.943878 21.1908 0.876509 21.132 0.862242 21.0259C0.846391 20.9128 0.896323 20.83 1.01045 20.8006C1.07861 20.7835 1.15153 20.7835 1.22286 20.7835C5.49324 20.7828 9.76362 20.7851 14.034 20.7773C14.2559 20.7766 14.206 20.8927 14.2218 21.0143C14.2425 21.1738 14.1814 21.2047 14.0261 21.204C11.8845 21.1985 9.74381 21.2001 7.60228 21.2001Z" fill="white"/>
<path d="M7.56222 22.0182C5.43971 22.0182 3.3172 22.0182 1.19548 22.0182C1.13604 22.0182 1.07501 22.0213 1.01636 22.012C0.903023 21.995 0.855469 21.9144 0.855469 21.813C0.855469 21.7185 0.904608 21.6427 1.00685 21.6233C1.06471 21.6117 1.12574 21.6148 1.18518 21.6148C5.46586 21.6148 9.74655 21.6156 14.0272 21.6094C14.204 21.6094 14.2159 21.6721 14.2151 21.8099C14.2135 21.95 14.2064 22.0244 14.0185 22.0236C11.8675 22.0151 9.71484 22.0182 7.56222 22.0182Z" fill="white"/>
<path d="M10.3094 0.436082C9.68169 0.436082 9.05318 0.436082 8.42546 0.435308C8.37236 0.435308 8.31688 0.43763 8.26536 0.425242C8.15202 0.396595 8.09575 0.318395 8.10685 0.204579C8.11715 0.0992798 8.18214 0.0365649 8.29072 0.0234025C8.32005 0.0195313 8.35016 0.0210798 8.38028 0.0210798C9.67218 0.0210798 10.9641 0.021854 12.256 0.0195312C12.3709 0.0195312 12.4747 0.0319194 12.5262 0.145735C12.5928 0.291296 12.4858 0.431436 12.3003 0.433759C11.9595 0.438405 11.6187 0.435308 11.2779 0.435308C10.9554 0.436082 10.6328 0.436082 10.3094 0.436082Z" fill="white"/>
<path d="M0.012071 15.3626C0.012071 14.7377 0.0112784 14.1121 0.012071 13.4873C0.012071 13.2906 0.0770619 13.2047 0.222103 13.2031C0.371106 13.2016 0.439268 13.2852 0.439268 13.4803C0.44006 14.7424 0.44006 16.0044 0.439268 17.2664C0.439268 17.4399 0.363181 17.5343 0.230028 17.5367C0.0913283 17.539 0.0128636 17.4399 0.0128636 17.2564C0.0112784 16.6246 0.012071 15.9936 0.012071 15.3626Z" fill="white"/>
<path d="M0.451832 12.4454C0.435188 12.5677 0.364649 12.6498 0.220401 12.6467C0.0785305 12.6428 0.00323614 12.563 6.58503e-05 12.426C-0.00310444 12.2936 0.108648 12.1852 0.237838 12.2007C0.373368 12.217 0.45104 12.2944 0.451832 12.4454Z" fill="white"/>
<path d="M13.3139 0.449116C13.1918 0.435179 13.1094 0.363948 13.1094 0.224581C13.1094 0.082118 13.2037 0.0139834 13.3353 0.000820985C13.4581 -0.0115671 13.5849 0.118508 13.5683 0.237744C13.55 0.36627 13.4763 0.44989 13.3139 0.449116Z" fill="white"/>
<path d="M6.78986 6.44039C6.65274 6.44039 6.51325 6.428 6.37772 6.44349C6.21524 6.46207 6.18037 6.39781 6.21604 6.26076C6.22159 6.23831 6.21683 6.21353 6.22238 6.19108C6.26438 6.02074 6.18909 5.93016 6.02423 5.87983C5.73098 5.79079 5.73178 5.78692 5.82451 5.50896C5.86493 5.3874 5.87206 5.22558 5.95766 5.15667C6.05435 5.07847 6.19305 5.20313 6.3159 5.23023C6.47679 5.26662 6.54178 5.17061 6.60519 5.05834C6.96819 4.40719 7.49842 3.92947 8.18399 3.6159C8.44396 3.49744 8.7166 3.41227 8.99876 3.36814C9.1763 3.34026 9.2397 3.25432 9.23732 3.08553C9.23257 2.78744 9.23812 2.78745 9.54405 2.78745C9.55594 2.78745 9.56783 2.78745 9.57971 2.78745C9.6986 2.78977 9.8476 2.74951 9.92845 2.80448C10.0188 2.86565 9.94985 3.0205 9.96094 3.13431C9.97362 3.25819 10.0251 3.33562 10.163 3.36117C11.2616 3.56403 12.0835 4.1424 12.6184 5.10402C12.6953 5.24184 12.8039 5.2612 12.9497 5.21242C13.2438 5.11486 13.2454 5.11951 13.3421 5.40444C13.3476 5.42069 13.3539 5.43695 13.3595 5.45399C13.392 5.56471 13.4736 5.69246 13.4411 5.77995C13.4174 5.84499 13.2454 5.85815 13.1392 5.89299C12.9735 5.94642 12.9489 6.0641 12.9759 6.21353C13.0179 6.44039 13.0147 6.44117 12.7888 6.44117C12.5083 6.44117 12.2269 6.43884 11.9463 6.44271C11.8639 6.44349 11.8274 6.43187 11.8116 6.33432C11.6325 5.24649 10.7828 4.51559 9.64867 4.46449C8.62466 4.41881 7.69181 5.12183 7.4263 6.13998C7.34783 6.44117 7.34783 6.44117 7.02367 6.44117C6.9452 6.44039 6.86753 6.44039 6.78986 6.44039Z" fill="white"/>
<path d="M9.57417 6.4398C9.03047 6.4398 8.48676 6.43593 7.94306 6.44213C7.80753 6.44367 7.79168 6.41193 7.821 6.28495C8.01281 5.45882 8.73088 4.87425 9.58131 4.86341C10.4206 4.85335 11.1577 5.41623 11.3693 6.22843C11.424 6.43825 11.424 6.43825 11.2053 6.43825C10.6616 6.4398 10.1179 6.4398 9.57417 6.4398Z" fill="white"/>
<path d="M5.37181 8.6509C5.74194 8.6509 6.11287 8.65554 6.483 8.64858C6.59396 8.64625 6.62724 8.67258 6.61456 8.7833C6.55988 9.26411 6.51074 9.7457 6.46239 10.2265C6.45288 10.3225 6.40612 10.3473 6.31101 10.3465C5.68963 10.3427 5.06826 10.3403 4.44688 10.3481C4.32403 10.3496 4.2955 10.3016 4.28519 10.2002C4.23843 9.73641 4.19246 9.27185 4.13619 8.80962C4.11955 8.6718 4.16314 8.64548 4.2955 8.64935C4.65532 8.65709 5.01357 8.6509 5.37181 8.6509Z" fill="white"/>
<path d="M5.37516 13.943C5.74608 13.943 6.11622 13.9453 6.48714 13.9414C6.58146 13.9407 6.62584 13.9531 6.61395 14.0622C6.55847 14.5492 6.51012 15.037 6.46019 15.524C6.45147 15.6076 6.41819 15.6402 6.32466 15.6394C5.6906 15.6347 5.05734 15.6355 4.42328 15.6402C4.32817 15.6409 4.29726 15.6038 4.28854 15.5225C4.23861 15.0355 4.19026 14.5477 4.13478 14.0607C4.1221 13.95 4.17124 13.9407 4.26318 13.9414C4.63331 13.9453 5.00424 13.943 5.37516 13.943Z" fill="white"/>
<path d="M6.40498 17.0253C6.40181 17.1538 6.29561 17.256 6.16563 17.2552C6.02693 17.2552 5.91755 17.1461 5.92627 17.0083C5.93499 16.8642 6.01821 16.786 6.16563 16.7814C6.3067 16.7768 6.40895 16.8836 6.40498 17.0253Z" fill="white"/>
<path d="M4.57784 16.7794C4.72051 16.7763 4.82433 16.8777 4.82354 17.0178C4.82275 17.1464 4.71971 17.2501 4.58973 17.2532C4.45896 17.2563 4.35038 17.1572 4.34404 17.0295C4.3377 16.8893 4.43756 16.7825 4.57784 16.7794Z" fill="white"/>
<path d="M6.17438 11.9599C6.0444 11.9638 5.93423 11.8655 5.92631 11.7377C5.91759 11.5983 6.01825 11.4884 6.15774 11.4845C6.29882 11.4799 6.40581 11.5821 6.40581 11.7222C6.40661 11.8531 6.30595 11.956 6.17438 11.9599Z" fill="white"/>
<path d="M4.82494 11.731C4.82257 11.858 4.71478 11.9625 4.58559 11.9633C4.45085 11.964 4.33989 11.8502 4.34385 11.7163C4.34782 11.5862 4.45164 11.4863 4.58321 11.4863C4.7235 11.4856 4.82732 11.5916 4.82494 11.731Z" fill="white"/>
</g>
<defs>
<clipPath id="clip0_328_37">
<rect width="21" height="25" fill="white"/>
</clipPath>
</defs>
</svg>
