<svg width="25" height="25" viewBox="0 0 25 25" fill="none" xmlns="http://www.w3.org/2000/svg">
<g clip-path="url(#clip0_328_57)">
<path d="M15.2767 0.00054471C15.7198 0.34698 16.1983 0.557783 16.7751 0.392736C16.9491 0.342622 17.1014 0.251656 17.2487 0.15034C17.3509 0.0800723 17.4107 0.0746253 17.3993 0.22551C17.396 0.265818 17.3988 0.306672 17.3988 0.347525C17.3988 4.91274 17.3977 9.47795 17.4031 14.0432C17.4031 14.2469 17.3705 14.3161 17.1443 14.3139C15.8367 14.3008 14.5291 14.3041 13.2215 14.3084C12.0232 14.3128 11.0984 15.046 10.8624 16.1888C10.7814 16.581 10.8249 16.9841 10.8227 17.3822C10.8217 17.6023 10.8211 17.8235 10.7727 18.0375C10.5966 18.811 9.88541 19.3661 9.09162 19.3682C8.94536 19.3688 8.93993 19.3301 8.97907 19.1988C9.31725 18.0588 9.64619 16.916 9.97784 15.7737C10.0871 15.3973 9.96751 15.2393 9.5717 15.2383C8.88121 15.2372 8.19071 15.2328 7.50076 15.2415C7.34146 15.2437 7.29688 15.2018 7.29688 15.04C7.30122 10.1169 7.30014 5.19381 7.30068 0.270176C7.30068 0.165592 7.27295 0.0256014 7.45455 0.150885C8.06349 0.571401 8.66373 0.545254 9.25527 0.112755C9.31127 0.0719017 9.39228 0.0702676 9.42817 0C9.57442 0 9.72067 0 9.86693 0C9.99144 0.0719017 10.117 0.141625 10.2394 0.216794C10.7548 0.533271 11.2686 0.529458 11.7835 0.215705C11.9069 0.14108 12.033 0.0719017 12.1581 0.00054471C12.288 0.00054471 12.418 0.00054471 12.5479 0.00054471C12.6724 0.0724464 12.7991 0.140535 12.9214 0.21625C13.4363 0.534905 13.9501 0.528368 14.465 0.216794C14.5878 0.142169 14.714 0.0724464 14.8385 0.00054471C14.9842 0.00054471 15.1305 0.00054471 15.2767 0.00054471ZM13.0242 4.05591C13.9251 4.05591 14.8265 4.05645 15.7274 4.05591C16.014 4.05591 16.1532 3.95187 16.1553 3.74107C16.1575 3.53026 16.0129 3.41805 15.7334 3.41751C13.9311 3.41696 12.1287 3.41696 10.3269 3.41751C10.0447 3.41751 9.90716 3.52917 9.91314 3.74706C9.91858 3.95514 10.0485 4.05482 10.3209 4.05536C11.2224 4.05645 12.1233 4.05591 13.0242 4.05591ZM13.0291 10.551C13.9381 10.551 14.8477 10.5521 15.7568 10.5505C16.0205 10.5499 16.157 10.4383 16.1559 10.2318C16.1548 10.0287 16.0129 9.91263 15.7535 9.91263C13.943 9.91154 12.1325 9.91154 10.3225 9.91263C10.0545 9.91263 9.91967 10.0172 9.91314 10.2226C9.90608 10.4415 10.0404 10.5505 10.3253 10.5505C11.2267 10.5516 12.1276 10.551 13.0291 10.551ZM13.035 6.21677C13.0916 6.21677 13.1487 6.21677 13.2052 6.21677C14.0572 6.21677 14.9092 6.21786 15.7617 6.21623C16.0314 6.21568 16.1765 6.08386 16.1548 5.87088C16.1358 5.68132 15.989 5.57837 15.7215 5.57783C13.9278 5.57674 12.1347 5.57619 10.341 5.57783C10.0572 5.57783 9.91532 5.68895 9.91206 5.89812C9.90879 6.11382 10.0404 6.21568 10.3318 6.21623C11.2338 6.21732 12.1341 6.21677 13.035 6.21677ZM13.01 12.463C13.9354 12.463 14.8608 12.4619 15.7856 12.464C15.9938 12.4646 16.1336 12.3851 16.1537 12.1655C16.1716 11.9733 16.0243 11.8387 15.7954 11.824C15.7709 11.8224 15.7465 11.8235 15.7225 11.8235C13.9289 11.8235 12.1352 11.8229 10.3416 11.824C10.0583 11.824 9.91586 11.934 9.9126 12.1438C9.90934 12.3595 10.0415 12.4624 10.3318 12.463C11.2245 12.4635 12.1173 12.463 13.01 12.463ZM13.0519 7.75667C12.1428 7.75667 11.2343 7.75612 10.3253 7.75721C10.2296 7.75721 10.1317 7.74305 10.0447 7.80896C9.92674 7.89829 9.88324 8.01867 9.92239 8.15267C9.97567 8.33406 10.1219 8.39561 10.3003 8.39561C12.1178 8.39561 13.936 8.3967 15.7535 8.39452C16.0064 8.39398 16.1548 8.26652 16.1553 8.06933C16.1559 7.86125 16.0254 7.75721 15.7541 7.75667C14.8537 7.75612 13.9528 7.75667 13.0519 7.75667ZM8.96765 6.21677C9.30964 6.21786 9.451 6.13289 9.46024 5.92317C9.46514 5.80334 9.42273 5.6884 9.31127 5.63666C9.11173 5.54406 8.89752 5.54188 8.69907 5.63557C8.58326 5.69004 8.52726 5.80879 8.5501 5.94387C8.59359 6.19662 8.7779 6.2293 8.96765 6.21677ZM9.00517 8.39561C9.16991 8.40324 9.32486 8.38417 9.41403 8.23056C9.49722 8.08785 9.47275 7.94732 9.35314 7.83184C9.24875 7.73107 8.80455 7.71854 8.68004 7.81059C8.54412 7.91137 8.50714 8.04972 8.57511 8.19843C8.65938 8.38254 8.8301 8.40651 9.00517 8.39561ZM8.99865 12.4624C9.13511 12.4602 9.28082 12.4858 9.37978 12.3567C9.49504 12.2069 9.49232 12.055 9.35912 11.9188C9.22102 11.7783 8.79748 11.7755 8.65285 11.9139C8.51476 12.0457 8.50714 12.1971 8.61969 12.3502C8.71647 12.4826 8.86163 12.4624 8.99865 12.4624ZM9.00136 4.05373C9.17752 4.07116 9.34498 4.05591 9.4298 3.86744C9.49885 3.71438 9.45318 3.58201 9.32758 3.48015C9.20308 3.37938 8.77627 3.3881 8.65992 3.49268C8.54683 3.594 8.51149 3.72364 8.57293 3.86472C8.65557 4.05373 8.82303 4.07116 9.00136 4.05373ZM8.98777 10.5516C9.3004 10.5527 9.46188 10.4454 9.46351 10.2356C9.46568 10.0101 9.28246 9.90119 8.91981 9.91208C8.67243 9.91917 8.53487 10.0461 8.54792 10.2553C8.56151 10.4633 8.69146 10.551 8.98777 10.5516Z" fill="white"/>
<path d="M24.0017 22.8004C21.7247 22.8004 19.5086 22.8134 17.2925 22.7949C16.2503 22.7862 15.4434 21.8951 15.4385 20.8018C15.4325 19.5653 15.4331 18.3288 15.4385 17.0929C15.4423 16.2459 15.4706 15.8559 14.7578 14.9495C14.8475 14.9495 14.916 14.9495 14.984 14.9495C17.1919 14.9495 19.4004 14.9489 21.6084 14.9495C22.8888 14.95 23.7098 15.7687 23.7103 17.0455C23.7109 18.5097 23.713 19.9739 23.7092 21.438C23.7071 21.9 23.6831 22.3635 24.0017 22.8004ZM16.6852 19.6677C16.7227 20.1454 16.9609 20.4913 17.3931 20.6891C17.5154 20.7452 17.5633 20.7986 17.5617 20.9353C17.5595 21.1891 17.6726 21.3084 17.8748 21.3068C18.0744 21.3051 18.1902 21.1831 18.1902 20.9287C18.1902 20.7893 18.2418 20.7381 18.3614 20.6831C18.9443 20.4151 19.2161 19.762 18.9823 19.1764C18.7861 18.684 18.4093 18.4312 17.8781 18.4062C17.585 18.3926 17.3659 18.2025 17.3306 17.947C17.2898 17.6512 17.435 17.4165 17.715 17.3255C18.0586 17.2144 18.3381 17.4186 18.424 17.8451C18.4718 18.0805 18.6121 18.2074 18.798 18.1643C19.009 18.1153 19.0748 17.9628 19.0552 17.7591C19.0128 17.3217 18.804 16.9905 18.412 16.7949C18.2695 16.7236 18.1804 16.6658 18.1842 16.4823C18.188 16.2976 18.0564 16.1751 17.8705 16.1789C17.6758 16.1827 17.5492 16.3014 17.5617 16.5084C17.5709 16.6582 17.5057 16.71 17.3768 16.7677C16.8162 17.0194 16.5482 17.655 16.7418 18.233C16.9 18.7052 17.3241 19.0184 17.8427 19.0468C18.2114 19.0669 18.4549 19.3218 18.4202 19.6514C18.3908 19.9297 18.1603 20.1482 17.8862 20.158C17.6079 20.1683 17.3735 19.9564 17.3284 19.6547C17.2882 19.3867 17.1729 19.2636 16.969 19.2875C16.7488 19.3131 16.6738 19.4586 16.6852 19.6677ZM21.2523 17.314C21.4708 17.314 21.6894 17.3146 21.908 17.314C22.1124 17.3135 22.2554 17.2313 22.2733 17.0106C22.2896 16.8135 22.1537 16.6816 21.9145 16.6773C21.4616 16.6697 21.0081 16.6713 20.5547 16.6767C20.3541 16.6795 20.2095 16.7672 20.2018 16.9921C20.1953 17.1904 20.3291 17.307 20.5721 17.313C20.7988 17.3184 21.0255 17.314 21.2523 17.314ZM21.2251 19.0582C21.4681 19.0582 21.7111 19.0604 21.9542 19.0577C22.1461 19.0549 22.2614 18.952 22.2717 18.7624C22.2826 18.5576 22.1619 18.4323 21.9661 18.4274C21.4806 18.4154 20.994 18.4133 20.5085 18.428C20.3187 18.4334 20.191 18.5538 20.2029 18.763C20.2144 18.9563 20.3318 19.0538 20.521 19.0577C20.7553 19.062 20.9902 19.0582 21.2251 19.0582ZM21.2332 20.8084C21.4681 20.8084 21.703 20.8078 21.9379 20.8084C22.1434 20.8089 22.2608 20.7021 22.2706 20.5028C22.2804 20.311 22.163 20.1825 21.9814 20.177C21.4877 20.1623 20.9929 20.1602 20.4998 20.1765C20.3111 20.1825 20.1861 20.3121 20.204 20.5202C20.2203 20.7114 20.3378 20.8067 20.5286 20.8078C20.7635 20.8089 20.9984 20.8084 21.2332 20.8084Z" fill="white"/>
<path d="M9.28586 15.8902C8.94714 17.0455 8.61875 18.179 8.28111 19.3098C8.18216 19.6405 7.93423 19.8192 7.59116 19.8197C5.65071 19.8224 3.71025 19.8197 1.7698 19.8241C1.63551 19.8246 1.60017 19.7827 1.57951 19.6497C1.39628 18.4634 1.20272 17.2792 1.01243 16.0939C0.991769 15.9659 0.971652 15.8706 1.175 15.8711C3.84618 15.8787 6.51736 15.8765 9.18908 15.8771C9.21192 15.8771 9.23584 15.8836 9.28586 15.8902Z" fill="white"/>
<path d="M10.6875 19.3963C11.3253 18.7961 11.4884 18.0928 11.4704 17.3166C11.4617 16.937 11.4248 16.5524 11.5297 16.1776C11.7455 15.4058 12.5143 14.8665 13.2728 14.9548C14.1519 15.0572 14.7875 15.7321 14.7962 16.5938C14.8055 17.4719 14.7989 18.3499 14.8 19.228C14.8 19.3179 14.818 19.3996 14.6728 19.399C13.369 19.3947 12.0647 19.3963 10.6875 19.3963Z" fill="white"/>
<path d="M2.68822 25.0013C2.00751 24.9958 1.44206 24.4206 1.44533 23.7365C1.44859 23.0474 2.0385 22.464 2.72247 22.4728C3.41895 22.4815 3.97569 23.055 3.9708 23.7583C3.96536 24.4577 3.39883 25.0073 2.68822 25.0013ZM2.7067 23.1433C2.37287 23.1455 2.11081 23.4151 2.1157 23.7517C2.12005 24.09 2.38755 24.3466 2.72736 24.3384C3.05521 24.3308 3.30477 24.0737 3.30477 23.743C3.30531 23.402 3.04543 23.1411 2.7067 23.1433Z" fill="white"/>
<path d="M6.89826 25.0012C6.21266 24.999 5.64776 24.4374 5.64069 23.7511C5.63362 23.0653 6.21538 22.4765 6.9037 22.4727C7.59473 22.4689 8.16562 23.0446 8.16507 23.7446C8.16453 24.4494 7.60615 25.0034 6.89826 25.0012ZM7.50122 23.7304C7.49524 23.3905 7.22828 23.1345 6.88956 23.1438C6.55736 23.1525 6.30019 23.4281 6.31052 23.7653C6.32031 24.0905 6.58291 24.341 6.91185 24.3388C7.24949 24.3361 7.5072 24.0703 7.50122 23.7304Z" fill="white"/>
</g>
<defs>
<clipPath id="clip0_328_57">
<rect width="25" height="25" fill="white"/>
</clipPath>
</defs>
</svg>
