<svg width="25" height="25" viewBox="0 0 25 25" fill="none" xmlns="http://www.w3.org/2000/svg">
<path d="M13.9545 0C13.8033 0.297834 13.5915 0.565938 13.5395 0.912614C13.5153 1.07507 13.5078 1.23593 13.5078 1.39786C13.5068 4.35071 13.5041 7.30357 13.5132 10.2564C13.5137 10.4773 13.4531 10.5197 13.2419 10.5192C11.131 10.5113 9.01964 10.5113 6.90825 10.5192C6.69968 10.5197 6.65572 10.4619 6.65625 10.2628C6.66322 7.3264 6.66108 4.38947 6.66108 1.45307C6.66108 0.692291 6.90664 0.329688 7.61652 0.0376938C7.62831 0.0329157 7.63421 0.0132725 7.64279 0.000530898C9.74721 0 11.8511 0 13.9545 0ZM9.13974 7.27384C8.63093 7.27384 8.12211 7.27278 7.6133 7.27437C7.35916 7.2749 7.19938 7.40125 7.20314 7.59238C7.20689 7.77341 7.36291 7.90242 7.59989 7.90295C8.61753 7.90561 9.63516 7.90561 10.6528 7.90295C10.8962 7.90242 11.0431 7.77978 11.0463 7.59291C11.0501 7.39329 10.9026 7.27543 10.6415 7.27437C10.1413 7.27278 9.64052 7.27384 9.13974 7.27384ZM9.13385 0.926948C8.62503 0.926948 8.11622 0.925356 7.6074 0.927479C7.35809 0.928541 7.19509 1.06339 7.20367 1.25345C7.21172 1.43396 7.36827 1.55819 7.60579 1.55872C8.61538 1.56084 9.62497 1.56031 10.634 1.55872C10.8951 1.55819 11.0463 1.4382 11.0463 1.2423C11.0469 1.04428 10.8983 0.92801 10.6356 0.926948C10.1354 0.925887 9.63462 0.926948 9.13385 0.926948ZM9.11937 4.73349C9.62014 4.73349 10.1209 4.73508 10.6212 4.73296C10.8978 4.7319 11.0538 4.60767 11.0458 4.40327C11.0377 4.20525 10.8951 4.10119 10.6238 4.10119C9.63087 4.10066 8.63736 4.10066 7.6444 4.10119C7.36613 4.10119 7.20367 4.21746 7.2026 4.41336C7.20153 4.60714 7.36935 4.7319 7.64172 4.73296C8.13445 4.73508 8.62718 4.73349 9.11937 4.73349ZM9.11883 6.30654C9.62711 6.30654 10.1354 6.3076 10.6442 6.30601C10.9112 6.30495 11.0533 6.19187 11.0463 5.99119C11.0399 5.799 10.9075 5.69495 10.648 5.69442C9.6314 5.69229 8.61431 5.69229 7.59775 5.69495C7.34897 5.69548 7.20582 5.81227 7.20475 5.99915C7.20367 6.18868 7.34683 6.30495 7.594 6.30601C8.10174 6.30813 8.61002 6.30654 9.11883 6.30654ZM9.12848 2.52495C8.62021 2.52495 8.11193 2.52336 7.60365 2.52548C7.35112 2.52654 7.21011 2.63432 7.20475 2.82172C7.19992 3.01019 7.34415 3.13389 7.58864 3.13442C8.61377 3.13655 9.63837 3.13655 10.6635 3.13442C10.9139 3.13389 11.0495 3.01869 11.0469 2.82438C11.0442 2.6306 10.9118 2.52654 10.6539 2.52548C10.145 2.52336 9.63676 2.52495 9.12848 2.52495ZM11.9573 8.83255C11.76 8.83255 11.5632 8.83149 11.3659 8.83309C11.1723 8.83415 11.0522 8.92546 11.0415 9.12189C11.0308 9.31886 11.1412 9.43672 11.3326 9.44149C11.7428 9.45264 12.154 9.45211 12.5642 9.44203C12.7599 9.43725 12.8693 9.30346 12.8564 9.11871C12.843 8.93661 12.7234 8.82937 12.5245 8.83202C12.3353 8.83415 12.1465 8.83202 11.9573 8.83255ZM12.2227 7.27437C12.2227 7.2749 12.2227 7.27543 12.2227 7.27596C12.0993 7.27596 11.975 7.26428 11.8538 7.27862C11.6903 7.29826 11.5857 7.39276 11.5755 7.56583C11.5653 7.73678 11.6468 7.85836 11.813 7.88543C12.072 7.9279 12.3374 7.92153 12.5969 7.88968C12.7701 7.86844 12.8752 7.73572 12.8559 7.56052C12.8376 7.39064 12.725 7.28392 12.5422 7.27596C12.4361 7.27012 12.3294 7.27437 12.2227 7.27437ZM12.2178 4.10172C12.1031 4.10172 11.9873 4.09323 11.8731 4.10384C11.6967 4.1203 11.5852 4.21321 11.575 4.39849C11.5648 4.58431 11.6672 4.70482 11.8404 4.72075C12.0843 4.74304 12.3331 4.74198 12.5771 4.72234C12.7508 4.70854 12.865 4.58218 12.8569 4.40752C12.8484 4.22489 12.7309 4.11234 12.5374 4.10278C12.4312 4.09694 12.3245 4.10119 12.2178 4.10172ZM12.2162 1.55766C12.2162 1.55819 12.2162 1.55872 12.2162 1.55872C12.3229 1.55872 12.4302 1.56562 12.5363 1.55712C12.724 1.54226 12.8537 1.43608 12.8569 1.25133C12.8596 1.05543 12.7331 0.936505 12.5304 0.929072C12.3176 0.921108 12.1031 0.919516 11.8902 0.929603C11.7037 0.938628 11.5814 1.03578 11.5755 1.23328C11.5696 1.43183 11.6876 1.53217 11.8725 1.555C11.9851 1.5688 12.1015 1.55766 12.2162 1.55766ZM12.2044 3.1323C12.3272 3.1323 12.4505 3.13867 12.5728 3.13071C12.761 3.11903 12.8575 2.99533 12.8564 2.8265C12.8553 2.65715 12.7572 2.53292 12.5674 2.52867C12.3304 2.52283 12.0924 2.52017 11.8554 2.52973C11.6704 2.53716 11.5744 2.65077 11.5766 2.83234C11.5787 3.01285 11.6768 3.11903 11.8613 3.13124C11.975 3.13867 12.0897 3.1323 12.2044 3.1323ZM12.1991 6.30495C12.3218 6.30495 12.4452 6.31026 12.5674 6.30389C12.7556 6.2938 12.8543 6.17275 12.8564 6.0034C12.8585 5.83351 12.7604 5.70663 12.5728 5.70025C12.3277 5.69229 12.0811 5.69017 11.8366 5.70397C11.664 5.71353 11.5755 5.82926 11.5766 5.99862C11.5771 6.17859 11.6715 6.28849 11.8559 6.30282C11.9691 6.31185 12.0843 6.30442 12.1991 6.30495ZM10.3938 8.83202C10.1139 8.82778 9.95953 8.93927 9.96221 9.14207C9.96489 9.32788 10.115 9.44627 10.3536 9.45052C10.6206 9.4553 10.7611 9.35124 10.7654 9.14632C10.7691 8.94404 10.6405 8.83574 10.3938 8.83202Z" fill="white"/>
<path d="M15.68 0C16.1802 0.163517 16.5572 0.451264 16.6815 0.98694C16.7014 1.07295 16.7137 1.1632 16.7137 1.25133C16.7164 2.11351 16.7132 2.97622 16.7175 3.83839C16.718 3.96953 16.7121 4.03748 16.5384 4.03217C15.8076 4.00934 15.0768 4.00085 14.3455 4.00138C14.1659 4.00138 14.1305 3.94086 14.1326 3.77787C14.1407 3.05373 14.1643 2.32852 14.1284 1.60597C14.0903 0.821831 14.3728 0.27182 15.1379 0C15.3186 0 15.4993 0 15.68 0Z" fill="white"/>
<path d="M13.4289 24.6159C12.8214 24.6159 12.2799 24.6159 11.7378 24.6159C9.28975 24.6159 6.84111 24.6159 4.393 24.6159C4.02466 24.6159 4 24.5909 4 24.2289C4 18.4118 4 12.5948 4 6.77718C4 6.41458 4.02198 6.39334 4.39408 6.39334C4.88681 6.39334 5.38007 6.39706 5.8728 6.39069C5.99719 6.38909 6.04706 6.41829 6.04062 6.55049C6.0299 6.76125 6.03043 6.97361 6.04009 7.18491C6.04598 7.3171 5.99451 7.35427 5.86905 7.34896C5.68032 7.34152 5.49106 7.34206 5.30233 7.35161C5.08894 7.36276 4.97688 7.47478 4.97742 7.69563C4.97956 8.72876 4.97635 9.76242 4.97956 10.7955C4.98064 11.0504 5.09376 11.1359 5.40366 11.1359C7.8271 11.1364 10.2511 11.1359 12.6745 11.1359C13.3812 11.1359 14.0878 11.1369 14.794 11.1353C15.1006 11.1348 15.1961 11.0445 15.1966 10.7483C15.1982 9.73959 15.1988 8.73035 15.1966 7.72165C15.1961 7.45354 15.099 7.35958 14.8256 7.35374C14.6449 7.34949 14.4642 7.34896 14.2835 7.35427C14.179 7.35745 14.1361 7.32135 14.1388 7.21464C14.1441 6.98688 14.1447 6.75913 14.1382 6.53137C14.1356 6.42891 14.1634 6.38962 14.2744 6.39069C14.8251 6.39546 15.3752 6.39387 15.9258 6.39228C16.1226 6.39175 16.1767 6.50377 16.1762 6.67578C16.174 7.32666 16.1751 7.97754 16.1751 8.62842C16.1751 10.8412 16.1735 13.0545 16.1783 15.2673C16.1789 15.4314 16.1574 15.5089 15.9628 15.5248C13.9511 15.6904 12.126 17.1716 11.5963 19.1349C11.0226 21.2601 11.6183 23.0551 13.2884 24.5028C13.3163 24.5283 13.3474 24.5511 13.4289 24.6159ZM4.97688 16.112C4.97688 17.0469 4.97635 17.9813 4.97742 18.9162C4.97795 19.2336 5.07929 19.3319 5.40635 19.3329C6.03848 19.3345 6.67061 19.3345 7.3022 19.3329C7.63033 19.3324 7.74025 19.222 7.74078 18.8902C7.74185 17.0368 7.74185 15.1834 7.74078 13.3301C7.74078 13.0004 7.6298 12.891 7.3006 12.8899C6.66846 12.8889 6.03633 12.8889 5.40474 12.8899C5.07768 12.8905 4.97795 12.9882 4.97742 13.3072C4.97635 14.2421 4.97688 15.1771 4.97688 16.112ZM4.97688 21.6551C4.97688 21.9885 4.97474 22.3224 4.97742 22.6558C4.97956 22.9106 5.07661 23.02 5.32807 23.0227C6.01006 23.029 6.69206 23.0285 7.37351 23.0232C7.62283 23.0211 7.73703 22.9075 7.73864 22.6617C7.744 21.9948 7.744 21.3275 7.73864 20.6602C7.73649 20.4106 7.62712 20.2976 7.37888 20.2954C6.69688 20.2896 6.01489 20.2896 5.33343 20.2949C5.07768 20.297 4.97956 20.4027 4.97688 20.6543C4.9742 20.9877 4.97688 21.3211 4.97688 21.6551ZM11.303 21.6524C11.303 21.319 11.3062 20.9851 11.302 20.6517C11.2987 20.399 11.2017 20.296 10.9438 20.2939C10.2618 20.2885 9.58034 20.2885 8.89835 20.2944C8.64957 20.2965 8.54341 20.4075 8.54127 20.6618C8.53591 21.3286 8.53537 21.9959 8.5418 22.6627C8.54395 22.9101 8.65708 23.0195 8.90854 23.0216C9.58195 23.0274 10.2559 23.0269 10.9293 23.0221C11.2017 23.02 11.2993 22.9186 11.302 22.6526C11.3057 22.3198 11.3036 21.9864 11.303 21.6524ZM11.3036 17.9935C11.3036 17.6526 11.3057 17.3113 11.303 16.9704C11.3003 16.7002 11.2028 16.5977 10.9384 16.5967C10.2661 16.5935 9.59375 16.594 8.9214 16.5967C8.66083 16.5977 8.54502 16.706 8.54288 16.9656C8.53751 17.6314 8.53751 18.2971 8.54288 18.9634C8.54502 19.205 8.66727 19.3297 8.90425 19.3319C9.58463 19.3372 10.2656 19.3372 10.9459 19.3319C11.1936 19.3297 11.2998 19.2161 11.303 18.9687C11.3062 18.6428 11.303 18.3184 11.3036 17.9935ZM15.1977 14.2703C15.1977 13.9374 15.1998 13.604 15.1971 13.2711C15.195 13.0057 15.0915 12.8926 14.8331 12.891C14.1608 12.8868 13.4879 12.8873 12.8155 12.891C12.571 12.8921 12.4397 13.0078 12.437 13.2419C12.43 13.9241 12.4295 14.6063 12.4375 15.2885C12.4402 15.5062 12.5635 15.6299 12.7973 15.6294C13.4782 15.6278 14.1586 15.631 14.8395 15.6278C15.0888 15.6267 15.1939 15.519 15.1966 15.2694C15.2004 14.936 15.1977 14.6032 15.1977 14.2703ZM11.3036 14.2682C11.3036 13.9432 11.3052 13.6183 11.303 13.2934C11.3014 12.9982 11.2001 12.8921 10.9116 12.8905C10.2554 12.8878 9.59965 12.8878 8.94339 12.8905C8.65922 12.8915 8.54288 13.0067 8.54127 13.2929C8.53751 13.9427 8.53698 14.5925 8.54127 15.2418C8.54288 15.5147 8.65922 15.6267 8.92998 15.6278C9.59428 15.6304 10.2586 15.6304 10.9229 15.6278C11.2022 15.6267 11.3003 15.5253 11.3025 15.2424C11.3052 14.9174 11.3036 14.5925 11.3036 14.2682Z" fill="white"/>
<path d="M12.0078 20.5649C11.9982 18.135 14.004 16.1218 16.443 16.1133C18.9656 16.1048 20.9933 18.0792 20.9966 20.5479C20.9998 22.9868 18.987 24.9936 16.5325 24.9995C14.0254 25.0059 12.0175 23.0378 12.0078 20.5649ZM19.7419 18.9764C19.7468 18.6648 19.4932 18.5167 19.2755 18.6404C19.1983 18.6844 19.1302 18.7455 19.0605 18.8018C17.8842 19.7505 16.7062 20.6976 15.5342 21.6511C15.4082 21.7536 15.3465 21.7658 15.2323 21.6288C14.7787 21.0836 14.3101 20.55 13.8442 20.0149C13.6882 19.836 13.4871 19.8036 13.3541 19.9374C13.1987 20.0929 13.2271 20.2575 13.3616 20.4136C13.9262 21.0687 14.4897 21.7244 15.0575 22.3768C15.2189 22.5627 15.3722 22.5765 15.5696 22.4188C16.9142 21.3405 18.2562 20.2586 19.5999 19.1782C19.6851 19.1065 19.7419 19.0232 19.7419 18.9764Z" fill="white"/>
<path d="M6.03722 9.25062C6.03722 9.61535 6.02649 9.98061 6.04151 10.3448C6.04901 10.5232 5.95572 10.5205 5.83187 10.5142C5.71606 10.5078 5.5906 10.554 5.59381 10.3469C5.60507 9.60951 5.60561 8.87156 5.59381 8.13415C5.5906 7.92922 5.7107 7.96851 5.83026 7.96267C5.95518 7.95683 6.0474 7.95576 6.04097 8.13255C6.02757 8.50418 6.03722 8.8774 6.03722 9.25062Z" fill="white"/>
<path d="M14.1374 9.21917C14.1374 8.85445 14.1449 8.48919 14.1336 8.12499C14.1288 7.96785 14.2055 7.95033 14.3261 7.96519C14.4328 7.97793 14.5802 7.90308 14.5786 8.11915C14.5717 8.86507 14.5701 9.61098 14.5797 10.3569C14.5824 10.5475 14.4682 10.5167 14.3572 10.514C14.2521 10.5119 14.1261 10.5602 14.1331 10.3627C14.147 9.98154 14.1374 9.60036 14.1374 9.21917Z" fill="white"/>
<path d="M7.09929 16.1121C7.09929 16.909 7.095 17.7059 7.10304 18.5028C7.10465 18.6588 7.06766 18.7103 6.90306 18.7045C6.5256 18.6918 6.14761 18.6939 5.77015 18.7034C5.62861 18.7071 5.59376 18.6641 5.59376 18.5266C5.59858 16.9164 5.59858 15.3062 5.59376 13.6965C5.59322 13.559 5.62861 13.5166 5.77015 13.5197C6.15565 13.5293 6.54222 13.5293 6.92772 13.5197C7.0698 13.516 7.10358 13.5612 7.10251 13.6965C7.09607 14.5019 7.09929 15.3073 7.09929 16.1121Z" fill="white"/>
<path d="M7.09054 21.6759C7.09054 21.9095 7.1833 22.2254 7.06642 22.356C6.93023 22.5084 6.60532 22.3937 6.36298 22.4033C6.16674 22.4112 5.96944 22.3985 5.7732 22.407C5.64774 22.4123 5.59949 22.3746 5.60163 22.2445C5.6086 21.8554 5.60699 21.4657 5.60217 21.0766C5.60056 20.9582 5.62576 20.8998 5.76409 20.9024C6.16513 20.9104 6.56672 20.9083 6.9683 20.903C7.0766 20.9014 7.11145 20.938 7.10824 21.0426C7.10234 21.2534 7.10663 21.4641 7.10663 21.6754C7.10073 21.6759 7.09537 21.6759 7.09054 21.6759Z" fill="white"/>
<path d="M9.19232 21.665C9.19232 21.4224 9.09634 21.097 9.21751 20.9589C9.35799 20.7991 9.6947 20.9186 9.94562 20.908C10.1338 20.9 10.3231 20.9122 10.5113 20.9043C10.633 20.8995 10.6903 20.9303 10.6877 21.0641C10.6812 21.4622 10.6823 21.8604 10.6871 22.258C10.6887 22.378 10.641 22.4094 10.5268 22.4078C10.1247 22.4025 9.72258 22.4009 9.32099 22.4083C9.19285 22.4104 9.17194 22.3573 9.17516 22.249C9.18159 22.0542 9.17677 21.8593 9.17677 21.664C9.18213 21.665 9.18749 21.665 9.19232 21.665Z" fill="white"/>
<path d="M9.93488 18.6876C9.68986 18.6876 9.35851 18.7831 9.22286 18.6626C9.06577 18.5235 9.18372 18.1901 9.17461 17.9411C9.16764 17.7463 9.17783 17.5509 9.17139 17.3561C9.16764 17.252 9.20142 17.2138 9.30972 17.2149C9.71988 17.2196 10.1306 17.2191 10.5413 17.2154C10.649 17.2143 10.6839 17.2568 10.6828 17.3598C10.6791 17.7665 10.6791 18.1726 10.6828 18.5793C10.6839 18.6786 10.6426 18.7046 10.5509 18.7024C10.3456 18.6982 10.1402 18.7008 9.93542 18.7008C9.93542 18.6966 9.93488 18.6918 9.93488 18.6876Z" fill="white"/>
<path d="M13.8297 15.0024C13.6329 15.0024 13.4361 14.9961 13.2399 15.0046C13.1176 15.0099 13.0672 14.9807 13.0705 14.8458C13.0796 14.4567 13.0796 14.0665 13.0705 13.6773C13.0672 13.5414 13.1182 13.518 13.2399 13.5202C13.6329 13.5271 14.0264 13.5281 14.42 13.5196C14.554 13.517 14.5846 13.5648 14.5824 13.6879C14.5755 14.0691 14.5733 14.4508 14.583 14.832C14.5867 14.9791 14.5272 15.0104 14.3958 15.004C14.2066 14.9961 14.0179 15.0024 13.8297 15.0024Z" fill="white"/>
<path d="M9.97675 13.5249C10.1778 13.5493 10.5011 13.4177 10.6405 13.5737C10.7601 13.7086 10.678 14.0213 10.6818 14.2549C10.6845 14.4577 10.6786 14.661 10.6839 14.8638C10.6866 14.9689 10.6475 15.0066 10.5419 15.0056C10.1317 15.0019 9.72207 15.0013 9.31191 15.0061C9.20522 15.0072 9.1709 14.9737 9.17251 14.8675C9.17787 14.4699 9.17841 14.0717 9.17198 13.6741C9.16983 13.5589 9.20146 13.5175 9.32156 13.5228C9.52584 13.5313 9.73065 13.5249 9.97675 13.5249Z" fill="white"/>
</svg>
