<svg width="25" height="25" viewBox="0 0 25 25" fill="none" xmlns="http://www.w3.org/2000/svg">
<g clip-path="url(#clip0_333_118)">
<path d="M19.0143 12.2736C19.0143 13.9655 19.0018 15.6562 19.0218 17.3481C19.028 17.869 18.6881 18.3334 18.0568 18.3271C15.7968 18.3045 13.5381 18.3158 11.2782 18.3234C11.1051 18.3234 11.0367 18.2719 10.9769 18.1112C10.2759 16.2172 8.95976 14.9859 7.02854 14.4374C6.83803 14.3835 6.7683 14.3194 6.76955 14.1048C6.77951 11.8016 6.77577 9.49843 6.77577 7.19524C6.77577 6.46851 7.18044 6.0518 7.89391 6.04678C8.50901 6.04301 9.12536 6.05305 9.74046 6.04176C9.91976 6.03799 9.96334 6.09447 9.96334 6.27019C9.95463 7.81528 9.95961 9.36287 9.95587 10.9092C9.95587 11.1038 9.96334 11.2883 10.1526 11.3975C10.3493 11.5117 10.5212 11.4326 10.6918 11.3222C11.3654 10.8891 12.044 10.4649 12.7151 10.0268C12.8483 9.94024 12.9392 9.9415 13.0737 10.0294C13.7436 10.4674 14.4222 10.8916 15.0958 11.3259C15.2602 11.4326 15.4308 11.5067 15.6151 11.41C15.8118 11.3058 15.8342 11.1125 15.8342 10.9054C15.8305 9.36664 15.8367 7.82909 15.8267 6.29028C15.8255 6.0882 15.8778 6.03548 16.0758 6.03925C16.6747 6.05305 17.2723 6.04176 17.8713 6.04427C18.6034 6.04803 19.0118 6.46223 19.013 7.199C19.0143 8.89094 19.0143 10.5829 19.0143 12.2736Z" fill="white"/>
<path d="M0.632831 20.0162C0.640302 17.2586 2.85417 15.0408 5.59099 15.0508C8.31786 15.0609 10.5243 17.3051 10.513 20.0576C10.5018 22.7926 8.26556 25.0079 5.525 24.9991C2.83176 24.9928 0.625361 22.7436 0.632831 20.0162ZM4.5513 18.8752C4.54881 18.5602 4.67208 18.3368 4.89122 18.1862C5.4752 17.7858 6.28952 17.9879 6.62571 18.6154C6.77264 18.8903 6.97435 18.9819 7.19474 18.8765C7.41887 18.7686 7.47365 18.5288 7.33793 18.2464C7.10509 17.7619 6.73279 17.4306 6.22104 17.2887C6.00438 17.2285 5.95209 17.1331 5.96205 16.9247C5.97574 16.6561 5.81761 16.4892 5.58601 16.4792C5.35317 16.4704 5.16017 16.6298 5.17387 16.8909C5.18757 17.1519 5.10912 17.2749 4.85262 17.3101C4.74928 17.3239 4.65216 17.3929 4.55752 17.4469C4.03207 17.7494 3.7432 18.205 3.75067 18.8163C3.75814 19.4263 4.07565 19.848 4.60733 20.1204C4.91115 20.2747 5.23488 20.3538 5.56609 20.4141C5.8724 20.4705 6.17746 20.5408 6.43645 20.7253C6.83365 21.009 6.85606 21.5286 6.49123 21.8035C5.77528 22.3432 4.71192 22.0608 4.36328 21.2387C4.26741 21.0128 4.06694 20.9111 3.85775 20.9801C3.6548 21.0479 3.54647 21.2676 3.61122 21.4947C3.80297 22.175 4.26243 22.5867 4.92484 22.7712C5.10788 22.8214 5.18259 22.8842 5.17263 23.0888C5.15768 23.3938 5.32453 23.572 5.56858 23.5745C5.82384 23.5758 5.97699 23.3975 5.96454 23.0712C5.95707 22.8879 6.01061 22.8227 6.19364 22.7963C6.39909 22.7662 6.59458 22.6771 6.77886 22.5717C7.75754 22.0156 7.8198 20.7153 6.89591 20.0701C6.57341 19.8442 6.20859 19.7212 5.82633 19.6459C5.52251 19.5857 5.21372 19.5405 4.9348 19.3899C4.70072 19.2631 4.55877 19.0786 4.5513 18.8752Z" fill="white"/>
<path d="M1.65656 11.3347C1.73251 11.2895 1.78107 11.2581 1.83337 11.2318C2.03882 11.1276 2.21937 11.1778 2.34762 11.3535C2.47711 11.5305 2.47836 11.7401 2.30653 11.8819C2.01392 12.1229 1.70139 12.3388 1.38885 12.5534C1.24691 12.6513 1.09749 12.6049 0.96426 12.5095C0.704025 12.3212 0.442545 12.1367 0.188536 11.9409C-0.0206486 11.779 -0.0555126 11.5556 0.0826984 11.361C0.220909 11.1652 0.430093 11.1276 0.6592 11.2669C0.760057 11.3284 0.838501 11.4163 0.855933 11.1991C1.04395 8.75662 1.89687 6.57015 3.4035 4.65355C5.25627 2.29513 7.65815 0.796481 10.5855 0.226645C16.4215 -0.909262 22.1205 2.31144 24.2173 7.93952C25.328 10.9217 25.2421 13.9153 24.0505 16.8699C23.9309 17.1648 23.7193 17.2753 23.479 17.1761C23.2511 17.0833 23.1702 16.8398 23.2884 16.5536C23.982 14.888 24.2522 13.1496 24.1227 11.356C23.9571 9.05534 23.1664 6.9831 21.742 5.17443C19.9415 2.8863 17.6069 1.44414 14.7468 0.996049C10.8868 0.391069 7.53862 1.51317 4.78685 4.32093C3.15073 5.98902 2.17703 8.01985 1.77983 10.3293C1.72504 10.6531 1.6989 10.982 1.65656 11.3347Z" fill="white"/>
<path d="M10.7616 10.3211C10.7616 9.85041 10.7616 9.41989 10.7616 8.98938C10.7616 8.08065 10.7666 7.17193 10.7578 6.26446C10.7566 6.08372 10.8089 6.03979 10.9832 6.04104C12.2632 6.04857 13.5432 6.04606 14.8245 6.04355C14.9428 6.04355 15.0274 6.03602 15.0274 6.20798C15.0212 7.56479 15.0237 8.9216 15.0237 10.3173C14.5045 9.98722 14.0101 9.67218 13.5171 9.35965C12.8136 8.91282 12.9543 8.93164 12.2782 9.35588C11.7801 9.66716 11.2883 9.98597 10.7616 10.3211Z" fill="white"/>
<path d="M14.3487 24.2818C14.0997 24.2806 13.9316 24.1387 13.9067 23.9279C13.878 23.6906 13.9926 23.5061 14.2354 23.4672C15.0323 23.3405 15.8204 23.1861 16.5812 22.9099C16.8253 22.8208 17.0656 22.7204 17.3096 22.6338C17.5325 22.5547 17.7541 22.6464 17.8388 22.8434C17.9272 23.0455 17.8538 23.2877 17.6408 23.3831C16.5837 23.8538 15.4755 24.1425 14.3487 24.2818Z" fill="white"/>
<path d="M22.6272 19.2561C22.6309 19.3829 22.5724 19.482 22.4989 19.5787C21.839 20.4447 21.0794 21.2091 20.219 21.8731C19.9924 22.0475 19.7422 22.0363 19.5915 21.848C19.4359 21.6547 19.4695 21.4087 19.7011 21.2292C20.5191 20.5928 21.2426 19.8648 21.8714 19.039C21.9921 18.8796 22.1465 18.793 22.3545 18.8708C22.535 18.9386 22.6197 19.0691 22.6272 19.2561Z" fill="white"/>
<path d="M9.79297 23.9589C9.96231 23.7405 10.1167 23.551 10.2574 23.3514C10.3172 23.2661 10.3832 23.2535 10.4728 23.2698C10.8202 23.3338 11.1676 23.3916 11.5138 23.4594C11.7889 23.5133 11.9209 23.6941 11.8811 23.9413C11.8462 24.1622 11.647 24.3103 11.393 24.2765C10.8613 24.2062 10.3321 24.1145 9.79297 23.9589Z" fill="white"/>
</g>
<defs>
<clipPath id="clip0_333_118">
<rect width="25" height="25" fill="white"/>
</clipPath>
</defs>
</svg>
