<svg width="25" height="25" viewBox="0 0 25 25" fill="none" xmlns="http://www.w3.org/2000/svg">
<g clip-path="url(#clip0_327_31)">
<path d="M7.51078 18.0938C7.74491 18.8237 7.96417 19.5425 8.20574 20.2576C8.31351 20.5746 8.66657 20.7442 9.00476 20.7184C9.16828 20.7073 9.14598 20.5893 9.16828 20.5009C9.33923 19.7858 9.7629 19.2844 10.4541 19.0264C11.5616 18.6136 12.814 19.2918 13.0667 20.4566C13.1188 20.6889 13.2117 20.7147 13.4087 20.7147C14.8432 20.7073 16.2777 20.7036 17.7085 20.7184C17.9463 20.722 18.0392 20.6667 18.0987 20.4235C18.4555 18.9564 20.2579 18.4182 21.3728 19.4356C21.6961 19.7305 21.908 20.0954 21.986 20.5193C22.0195 20.6999 22.0938 20.711 22.2387 20.711C22.6921 20.7036 23.1418 20.711 23.5952 20.7073C23.7885 20.7036 23.9631 20.7405 23.9631 20.9653C23.9631 21.1902 23.7847 21.2307 23.5915 21.227C23.1493 21.227 22.7033 21.2344 22.261 21.2234C22.0901 21.2197 22.0195 21.2492 21.9749 21.4408C21.7556 22.3734 20.9603 23.0038 20.0349 23.0038C19.1021 23.0038 18.3217 22.3882 18.0913 21.4482C18.0467 21.2713 17.9723 21.227 17.7977 21.227C16.3297 21.2344 14.8618 21.2344 13.3938 21.227C13.2043 21.227 13.1188 21.2528 13.0667 21.4703C12.8586 22.3808 12.0336 23.0075 11.1008 23.0038C10.194 22.9964 9.39126 22.3476 9.18686 21.4408C9.15341 21.286 9.10138 21.2344 8.93786 21.227C8.25033 21.1976 7.86755 20.899 7.66315 20.2539C6.53709 16.7078 5.41103 13.1617 4.28497 9.61198C4.11773 9.08117 3.96536 8.94847 3.39676 8.91898C2.38962 8.86738 1.38249 8.82683 0.375353 8.78628C0.178386 8.77522 0 8.76048 0 8.52457C0 8.29234 0.174669 8.25916 0.364204 8.26653C1.44938 8.31445 2.53456 8.355 3.61602 8.41767C4.14375 8.44716 4.50424 8.73836 4.68634 9.22493C4.84243 9.64147 4.97993 10.0691 5.09514 10.4967C5.1546 10.7141 5.25866 10.7657 5.47049 10.7621C6.67088 10.751 7.86755 10.7621 9.06793 10.751C9.26119 10.751 9.32065 10.7952 9.31693 10.9943C9.30578 12.1849 9.31693 13.3719 9.3095 14.5625C9.3095 14.7505 9.33551 14.8279 9.5585 14.8242C12.7732 14.8168 15.9878 14.8168 19.2025 14.8242C19.4106 14.8242 19.4589 14.7652 19.4552 14.5662C19.4403 13.9727 19.4552 13.3755 19.4477 12.7821C19.4477 12.6457 19.4886 12.5646 19.6038 12.4872C20.1799 12.0891 20.6035 11.562 20.8897 10.9279C20.9454 10.7989 21.0086 10.7473 21.1573 10.751C22.3837 10.7584 23.6064 10.7584 24.8328 10.751C25.0149 10.751 25.0223 10.7952 24.9777 10.9537C24.3236 13.2392 23.677 15.5246 23.034 17.81C22.9932 17.9537 22.9263 17.9869 22.7813 17.9906C19.3586 18.0053 15.9358 18.0238 12.513 18.0422C10.915 18.0533 9.31693 18.0643 7.71889 18.0754C7.652 18.0828 7.59254 18.0901 7.51078 18.0938Z" fill="white"/>
<path d="M18.9689 5.91101C17.958 5.49078 16.9769 5.46129 15.9958 5.8336C15.2562 6.11743 14.6579 6.58557 14.2082 7.23433C13.3014 8.53554 13.3163 10.2975 14.2416 11.5914C14.7731 12.3323 15.4903 12.8299 16.3748 13.0658C17.2482 13.2981 18.1067 13.228 18.9689 12.8668C18.9689 13.3312 18.9689 13.7662 18.9689 14.2048C18.9689 14.297 18.928 14.3265 18.8425 14.3228C18.7905 14.3191 18.7385 14.3228 18.6864 14.3228C15.8211 14.3228 12.9521 14.3191 10.0868 14.3302C9.84147 14.3302 9.79688 14.2601 9.79688 14.0316C9.80431 10.1095 9.80431 6.19115 9.79688 2.26909C9.79688 2.05529 9.84147 2 10.0645 2C12.9484 2.00737 15.8323 2.00737 18.7162 2C18.9131 2 18.9763 2.04055 18.9763 2.25066C18.9614 3.45603 18.9689 4.6614 18.9689 5.91101ZM14.3829 4.28173C15.2005 4.28173 16.0144 4.27804 16.832 4.28541C17.0215 4.28541 17.1739 4.24487 17.1776 4.03475C17.1813 3.81359 17.0066 3.78778 16.8282 3.78778C15.1968 3.78778 13.5616 3.78778 11.9301 3.78778C11.748 3.78778 11.5807 3.82096 11.5844 4.03844C11.5882 4.24855 11.748 4.2891 11.9338 4.2891C12.7514 4.28173 13.5653 4.28173 14.3829 4.28173Z" fill="white"/>
<path d="M17.3757 6.07422C19.2227 6.07422 20.7167 7.54868 20.7278 9.37701C20.739 11.2017 19.2227 12.7093 17.3719 12.7056C15.5212 12.7056 14.0123 11.2053 14.0235 9.37332C14.0346 7.54868 15.5323 6.07422 17.3757 6.07422ZM15.7442 8.66558C15.51 8.65821 15.3428 8.76142 15.2536 8.9531C15.1533 9.16321 15.1793 9.37701 15.3428 9.55026C15.7405 9.97048 16.1381 10.3907 16.5469 10.7999C16.7736 11.0284 17.0746 11.0247 17.3125 10.8109C17.4723 10.6672 17.6209 10.5087 17.7733 10.3538C18.3048 9.81935 18.8325 9.28486 19.3639 8.75405C19.5312 8.58817 19.598 8.39281 19.5237 8.16795C19.4605 7.97627 19.3119 7.85832 19.1075 7.81777C18.8771 7.77353 18.7098 7.89149 18.5575 8.04631C18.0781 8.53288 17.5912 9.01208 17.1155 9.50234C16.9817 9.64241 16.9 9.67559 16.7625 9.50602C16.5692 9.2738 16.3499 9.06737 16.1381 8.8462C16.0341 8.73193 15.904 8.65452 15.7442 8.66558Z" fill="white"/>
</g>
<defs>
<clipPath id="clip0_327_31">
<rect width="25" height="25" fill="white"/>
</clipPath>
</defs>
</svg>
