<svg width="25" height="25" viewBox="0 0 25 25" fill="none" xmlns="http://www.w3.org/2000/svg">
<path d="M20.1844 14.042C20.1844 17.014 20.1816 19.986 20.1901 22.9581C20.1908 23.1789 20.132 23.2244 19.9153 23.2244C14.97 23.2174 10.0255 23.2181 5.08017 23.2244C4.86488 23.2244 4.80469 23.1817 4.80469 22.9588C4.81177 17.0322 4.81177 11.1056 4.8054 5.1791C4.8054 4.96801 4.84505 4.90161 5.07309 4.9065C5.79686 4.92327 6.52134 4.91489 7.24511 4.91069C7.3655 4.90999 7.45615 4.93725 7.55034 5.02043C7.79395 5.23501 8.08431 5.34545 8.41716 5.34545C11.1366 5.34405 13.8568 5.34405 16.5762 5.34545C16.8984 5.34545 17.1852 5.2469 17.4232 5.03791C17.5308 4.94354 17.6357 4.9093 17.7752 4.90999C18.4989 4.91559 19.2234 4.92118 19.9472 4.9072C20.1518 4.903 20.1887 4.96242 20.188 5.15184C20.1823 8.11546 20.1844 11.0791 20.1844 14.042ZM12.5197 6.26459C11.7782 6.26459 11.036 6.2611 10.2946 6.26529C9.44474 6.27089 8.89094 6.82027 8.89023 7.65694C8.8881 9.09472 8.88881 10.5325 8.89023 11.9703C8.89094 12.8286 9.45891 13.3885 10.33 13.3892C11.7782 13.3906 13.2258 13.3906 14.674 13.3892C15.5323 13.3885 16.1038 12.8293 16.1053 11.9877C16.1074 10.55 16.1067 9.11219 16.1053 7.67441C16.1045 6.81748 15.5564 6.27019 14.6917 6.26529C13.9672 6.2611 13.2435 6.26459 12.5197 6.26459ZM10.444 15.6217C11.5559 15.6217 12.6684 15.6224 13.7803 15.621C13.9828 15.621 14.1882 15.6301 14.3872 15.5986C14.679 15.5532 14.8319 15.2645 14.7137 15.0038C14.6195 14.7955 14.4382 14.7396 14.2144 14.7396C11.7166 14.7438 9.21883 14.7424 6.72105 14.7424C6.66793 14.7424 6.61411 14.7382 6.56241 14.7466C6.33508 14.7843 6.19982 14.9136 6.18424 15.1457C6.1637 15.4497 6.35775 15.6196 6.73733 15.6203C7.97242 15.6231 9.20821 15.6217 10.444 15.6217ZM10.4575 20.0839C11.6847 20.0839 12.912 20.0839 14.1393 20.0839C14.2101 20.0839 14.2817 20.0895 14.3511 20.0797C14.5819 20.0475 14.7406 19.8784 14.7448 19.6582C14.7498 19.4143 14.6174 19.2682 14.3865 19.2074C14.3199 19.1899 14.2463 19.1948 14.1762 19.1948C11.7039 19.1941 9.23228 19.1948 6.76 19.1934C6.64456 19.1934 6.52984 19.1941 6.42502 19.2486C6.27205 19.3269 6.18778 19.4478 6.18282 19.6226C6.17716 19.8064 6.25293 19.9406 6.41582 20.0287C6.52063 20.0853 6.63465 20.0853 6.75008 20.0853C7.98516 20.0839 9.22095 20.0839 10.4575 20.0839ZM9.58567 16.524C8.63316 16.524 7.68064 16.5234 6.72813 16.524C6.37049 16.524 6.1899 16.6659 6.18211 16.9476C6.17432 17.2377 6.36837 17.4075 6.7253 17.4082C8.61262 17.4103 10.4999 17.4103 12.3873 17.4082C12.7463 17.4075 12.9397 17.2398 12.9333 16.9504C12.9269 16.6687 12.7449 16.524 12.3894 16.524C11.4553 16.5234 10.5205 16.524 9.58567 16.524ZM9.5276 21.8649C10.4801 21.8649 11.4326 21.8656 12.3851 21.8649C12.7499 21.8649 12.9389 21.709 12.9347 21.4168C12.9304 21.1421 12.7378 20.9807 12.3929 20.98C10.5056 20.9779 8.61828 20.9779 6.73096 20.98C6.37049 20.98 6.17716 21.1456 6.18211 21.435C6.18707 21.7174 6.36908 21.8642 6.72246 21.8649C7.65727 21.8656 8.59279 21.8649 9.5276 21.8649ZM19.2815 19.1871C19.2574 19.0012 19.1745 18.8467 18.9897 18.7866C18.7787 18.7174 18.596 18.7754 18.4479 18.9516C17.8637 19.6498 17.2752 20.3439 16.6888 21.0408C16.6017 21.1442 16.545 21.2358 16.3878 21.0918C16.2072 20.9255 15.9523 20.9667 15.7944 21.1351C15.635 21.3064 15.6279 21.535 15.7922 21.7258C15.9006 21.8516 16.0259 21.9627 16.1449 22.0795C16.4693 22.3989 16.7072 22.3926 17.0025 22.0445C17.7107 21.2106 18.414 20.3726 19.1207 19.5373C19.2085 19.4346 19.2723 19.3241 19.2815 19.1871ZM19.2815 14.7235C19.2567 14.5495 19.1809 14.402 18.9968 14.3279C18.7489 14.2286 18.5754 14.3412 18.4239 14.5222C17.8389 15.2177 17.2504 15.9111 16.6676 16.6093C16.5819 16.7121 16.5323 16.7512 16.4055 16.6429C16.2002 16.4667 15.9615 16.4926 15.7937 16.6722C15.6286 16.8491 15.6308 17.0839 15.8114 17.2817C15.9289 17.411 16.0585 17.5299 16.1846 17.6515C16.4714 17.9283 16.7143 17.9241 16.9685 17.6249C17.6874 16.7785 18.4019 15.9292 19.1186 15.0807C19.2036 14.9786 19.2716 14.8696 19.2815 14.7235Z" fill="white"/>
<path d="M3.00028 14.0614C3.00028 10.9063 2.99957 7.75043 3.00099 4.59529C3.00099 3.85158 3.35083 3.35951 3.99599 3.17079C4.1433 3.12745 4.29272 3.12745 4.44144 3.12675C5.24524 3.12396 6.04903 3.13095 6.85212 3.12116C7.03483 3.11907 7.10778 3.1645 7.08582 3.35112C7.06103 3.56571 7.17647 3.84459 7.04262 3.98089C6.90736 4.11789 6.62408 4.01934 6.40667 4.02213C5.88544 4.02912 5.36492 4.02143 4.8437 4.02563C4.29556 4.02982 3.91243 4.40447 3.91243 4.94617C3.91101 11.0216 3.91101 17.097 3.91243 23.1725C3.91243 23.6939 4.26227 24.0588 4.78916 24.1C4.86848 24.1063 4.9478 24.1028 5.02782 24.1028C10.0085 24.1028 14.9899 24.1028 19.9706 24.1028C20.7553 24.1028 21.0839 23.7806 21.0839 23.0124C21.0839 17.0327 21.0839 11.0538 21.0839 5.07408C21.0839 4.35554 20.7468 4.02493 20.0159 4.02493C19.3892 4.02493 18.7617 4.02004 18.135 4.02842C17.9721 4.03052 17.8892 4.00326 17.9084 3.81873C17.9254 3.65448 17.9239 3.48672 17.9084 3.32247C17.8921 3.15192 17.965 3.12186 18.1201 3.12326C18.9324 3.13025 19.7454 3.12186 20.5577 3.12745C21.4444 3.13304 21.9918 3.67125 21.9932 4.54706C21.9974 6.64746 21.9946 8.74856 21.9946 10.849C21.9946 15.0763 21.9875 19.3037 22.001 23.5317C22.0038 24.3712 21.4706 24.8591 20.9182 24.9709C20.79 24.9968 20.6554 24.9982 20.5237 24.9982C15.1719 24.9996 9.82014 24.9996 4.46836 24.9989C3.55904 24.9989 3.00311 24.4551 3.0024 23.5541C2.99886 20.3892 3.00028 17.2256 3.00028 14.0614Z" fill="white"/>
<path d="M12.4865 4.47707C11.1976 4.47707 9.90799 4.47777 8.61909 4.47707C8.11203 4.47707 7.97322 4.34007 7.9711 3.8417C7.97039 3.62363 7.96543 3.40555 7.97251 3.18817C7.98455 2.84288 8.15381 2.68072 8.4987 2.67233C8.57801 2.67023 8.65733 2.67233 8.73736 2.67233C9.16085 2.67163 9.24584 2.60034 9.3294 2.18026C9.37827 1.93702 9.55107 1.79023 9.81239 1.78324C10.0503 1.77695 10.289 1.78184 10.5277 1.78184C11.0043 1.78115 11.1303 1.65463 11.131 1.17514C11.1317 0.966149 11.1289 0.756458 11.1317 0.547467C11.1367 0.170723 11.3045 0.00297062 11.6785 0.00157268C12.2259 -0.000524226 12.7733 -0.000524226 13.3208 0.00157268C13.694 0.00297062 13.8632 0.171422 13.8689 0.546768C13.8724 0.78232 13.8682 1.01717 13.8703 1.25273C13.8739 1.63646 14.0226 1.77975 14.4199 1.78115C14.667 1.78184 14.9142 1.77835 15.1613 1.78254C15.468 1.78744 15.6302 1.93212 15.6755 2.23198C15.7236 2.54931 15.8589 2.66674 16.1833 2.67233C16.9885 2.68631 17.0295 2.72825 17.0295 3.52787C17.0295 3.66696 17.0331 3.80676 17.0281 3.94585C17.0154 4.30862 16.8567 4.47078 16.4871 4.47567C15.9311 4.48266 15.3745 4.47777 14.8186 4.47777C14.0403 4.47707 13.2634 4.47707 12.4865 4.47707ZM12.9433 1.56796C12.9405 1.56796 12.9383 1.56796 12.9355 1.56796C12.9355 1.48129 12.9419 1.39392 12.9341 1.30794C12.9128 1.07239 12.7294 0.901844 12.5028 0.899747C12.2762 0.89765 12.0814 1.0675 12.0673 1.30095C12.0552 1.49107 12.051 1.68469 12.0736 1.87271C12.102 2.10477 12.2726 2.2201 12.4957 2.22219C12.7195 2.22429 12.8817 2.10896 12.9263 1.8797C12.9461 1.77835 12.939 1.67211 12.9433 1.56796Z" fill="white"/>
<path d="M12.5036 12.4982C11.7706 12.4982 11.0377 12.4996 10.3047 12.4975C9.94919 12.4968 9.78559 12.343 9.78418 11.9908C9.78064 10.5439 9.77993 9.09702 9.78418 7.65016C9.78559 7.23847 10.2211 6.97985 10.6234 7.13572C10.7211 7.17346 10.69 7.24685 10.6907 7.30906C10.6935 7.67532 10.6921 8.04088 10.6921 8.40714C10.6921 8.77829 10.8507 9.06627 11.1772 9.2473C11.5051 9.42834 11.8535 9.42764 12.1481 9.20047C12.408 8.99917 12.5907 9.03412 12.8549 9.20536C13.5015 9.62405 14.2868 9.18509 14.2989 8.42182C14.3045 8.05556 14.3067 7.6893 14.2968 7.32374C14.2932 7.17836 14.3329 7.11335 14.4873 7.13083C14.5744 7.14061 14.6643 7.12803 14.7521 7.13642C15.0453 7.16508 15.2061 7.32025 15.2075 7.60962C15.2124 9.08235 15.2132 10.5558 15.2075 12.0285C15.2061 12.3423 15.0304 12.4961 14.7025 12.4968C13.9696 12.5003 13.2366 12.4982 12.5036 12.4982ZM11.3769 10.72C11.2884 10.72 11.1998 10.713 11.1127 10.7214C10.8649 10.7445 10.6857 10.9409 10.6942 11.1737C10.7034 11.4393 10.9109 11.6014 11.248 11.607C11.799 11.6161 12.0072 11.5071 12.0284 11.1974C12.0497 10.8654 11.8514 10.7186 11.3769 10.72Z" fill="white"/>
<path d="M11.5959 8.51753C11.5959 8.059 11.5995 7.66758 11.5938 7.27616C11.5917 7.15594 11.6441 7.13217 11.7517 7.13287C12.2461 7.13706 12.7397 7.13706 13.234 7.13287C13.3515 7.13147 13.4096 7.15454 13.4068 7.28874C13.3983 7.63683 13.4004 7.98561 13.4054 8.3337C13.4075 8.49446 13.3459 8.48817 13.2382 8.41408C13.1008 8.31972 12.9578 8.23305 12.8225 8.13659C12.6001 7.97792 12.3884 7.98421 12.1682 8.14428C12.0003 8.2652 11.8211 8.37074 11.5959 8.51753Z" fill="white"/>
</svg>
