<svg width="25" height="25" viewBox="0 0 25 25" fill="none" xmlns="http://www.w3.org/2000/svg">
<g clip-path="url(#clip0_331_108)">
<path d="M9.35926 5.77198C9.91004 5.76275 10.4461 5.88264 10.8832 6.17775C12.1252 7.01565 13.5796 7.23567 14.9753 7.62959C15.1878 7.69019 15.4084 7.72312 15.6169 7.79558C16.2586 8.01823 16.6289 8.65325 16.4752 9.24347C16.2987 9.92459 15.6637 10.3356 14.9539 10.163C13.4941 9.80734 12.0409 9.42528 10.5905 9.03399C10.283 8.95099 9.98089 8.86536 9.88597 9.24215C9.79774 9.58469 10.1239 9.65978 10.3819 9.72961C11.8123 10.1104 13.2427 10.495 14.6758 10.8639C15.9017 11.1788 17.0326 10.4397 17.1864 9.20394C17.2225 8.91542 17.3254 8.77709 17.5914 8.70199C19.2491 8.23562 20.9028 7.75343 22.5644 7.29891C23.0363 7.16979 23.5323 7.15794 24.0216 7.23171C24.7729 7.3437 25.1258 7.86541 24.964 8.59396C24.8263 9.21448 24.4761 9.67296 23.8732 9.90351C21.0298 10.9891 18.1863 12.076 15.3335 13.1379C14.4192 13.4778 13.4887 13.5067 12.5369 13.1721C11.6439 12.8572 10.7041 12.6715 9.8071 12.3658C8.84325 12.0378 7.93955 12.0562 7.0666 12.5938C6.76314 12.7808 6.60807 12.7611 6.45434 12.3777C5.87817 10.939 5.24718 9.52145 4.65229 8.08938C4.59481 7.95104 4.37156 7.76265 4.71245 7.61773C6.06933 7.03937 7.32862 6.23967 8.77106 5.85498C8.95955 5.80359 9.16275 5.79833 9.35926 5.77198Z" fill="white"/>
<path d="M2.52527 6.44338C3.03994 6.44075 3.25918 6.67525 3.3942 6.99408C4.40217 9.3813 5.40212 11.7725 6.41009 14.161C6.62933 14.6814 6.48495 15.0543 5.96893 15.2782C5.40346 15.5233 4.83664 15.7644 4.26047 15.9831C3.74044 16.1807 3.36078 16.016 3.14154 15.4982C2.1309 13.1123 1.11491 10.7291 0.102936 8.34447C-0.0347572 8.01906 -0.0721883 7.64885 0.232608 7.44465C0.962516 6.9506 1.81006 6.69633 2.52527 6.44338Z" fill="white"/>
<path d="M9.88097 18.0042C11.8541 18.0292 13.4169 19.6128 13.3728 21.5429C13.3273 23.5204 11.7285 25.0341 9.71921 25.0012C7.82626 24.9709 6.23678 23.3597 6.24613 21.4823C6.25683 19.5259 7.87305 17.9792 9.88097 18.0042ZM9.44115 20.8446C9.43447 21.7155 9.43447 21.7155 10.2165 22.1397C10.294 22.1819 10.3743 22.2187 10.4491 22.2649C10.675 22.4071 10.9063 22.4849 11.0828 22.2174C11.2753 21.9263 11.0627 21.7445 10.8315 21.6615C10.2312 21.448 10.1416 21.0067 10.2018 20.4665C10.2192 20.315 10.2152 20.1582 10.1924 20.0081C10.1604 19.8025 10.0668 19.6115 9.82215 19.6168C9.55211 19.622 9.44383 19.8052 9.44249 20.0568C9.44115 20.319 9.44249 20.5811 9.44115 20.8446ZM10.2058 18.8737C10.1577 18.6498 10.0815 18.4258 9.80477 18.4376C9.54008 18.4482 9.43848 18.6432 9.44249 18.8922C9.4465 19.1438 9.55879 19.3309 9.82482 19.3282C10.0975 19.3269 10.1697 19.103 10.2058 18.8737ZM10.2045 24.0711C10.1617 23.8577 10.0949 23.6548 9.79942 23.6772C9.51735 23.6982 9.43981 23.8827 9.44383 24.1251C9.44784 24.3833 9.59221 24.548 9.8422 24.5401C10.1056 24.5309 10.1911 24.3188 10.2045 24.0711ZM8.38372 23.2477C8.33827 23.0659 8.22464 22.8893 7.99738 22.9183C7.74472 22.9512 7.56024 23.1199 7.54553 23.3952C7.53216 23.6363 7.68322 23.776 7.90781 23.7483C8.16314 23.718 8.33827 23.5507 8.38372 23.2477ZM12.1081 23.303C12.0399 23.1383 11.9063 22.9315 11.6376 22.917C11.4143 22.9051 11.2753 23.0566 11.2873 23.2925C11.3007 23.5784 11.4999 23.7364 11.7512 23.7496C11.949 23.7615 12.1268 23.6311 12.1081 23.303ZM11.6402 20.0647C11.8809 20.0067 12.0827 19.8855 12.1081 19.6075C12.1295 19.373 11.9798 19.2176 11.7619 19.2268C11.5025 19.2387 11.3207 19.4152 11.2873 19.68C11.2566 19.9185 11.4023 20.0357 11.6402 20.0647ZM7.89311 19.2044C7.69793 19.2518 7.53885 19.3427 7.54419 19.5838C7.55088 19.8671 7.72868 20.0304 7.99069 20.0528C8.20459 20.0713 8.37837 19.9435 8.36768 19.705C8.35565 19.4284 8.14844 19.3045 7.89311 19.2044ZM12.9209 21.4849C12.9035 21.2399 12.7284 21.1516 12.4824 21.145C12.2391 21.1384 12.0226 21.2201 12.0159 21.481C12.0092 21.7286 12.1816 21.8538 12.449 21.8525C12.6963 21.8512 12.8768 21.7866 12.9209 21.4849ZM7.16453 21.8446C7.4172 21.8696 7.5843 21.7589 7.599 21.4955C7.61237 21.2517 7.44661 21.1542 7.22202 21.1516C6.99877 21.149 6.76081 21.1569 6.74878 21.4612C6.73942 21.726 6.88246 21.8564 7.16453 21.8446Z" fill="white"/>
<path d="M13.0469 24.3875C14.1658 22.713 14.5521 21.4864 13.5081 19.1967C15.1644 19.1967 16.7993 19.2033 18.433 19.1914C18.7578 19.1888 18.7792 19.3469 18.7779 19.5972C18.7712 20.9964 18.7685 22.3968 18.7779 23.7959C18.7805 24.2083 18.6027 24.3927 18.1816 24.3901C16.4972 24.3835 14.8115 24.3875 13.0469 24.3875Z" fill="white"/>
<path d="M14.0742 4.16256C14.0729 2.60401 15.3161 1.38669 16.8976 1.4025C18.4336 1.41699 19.6862 2.63827 19.7089 4.14148C19.7317 5.63547 18.4189 6.94766 16.8909 6.95952C15.3522 6.97137 14.0756 5.70398 14.0742 4.16256ZM17.9925 3.05195C17.9831 2.87146 16.9858 1.84384 16.8695 1.84648C16.6957 1.85043 16.5701 1.9387 16.526 2.10075C16.4925 2.2259 16.4952 2.34052 16.3455 2.41694C15.8174 2.68965 15.5447 3.10992 15.7065 3.70936C15.8602 4.27586 16.3107 4.47875 16.8508 4.55121C17.0513 4.57756 17.2559 4.61313 17.32 4.84764C17.3575 4.98465 17.324 5.11508 17.2051 5.1994C17.0059 5.34036 16.7866 5.33114 16.5754 5.22706C16.4778 5.17964 16.4056 5.07424 16.3067 5.03999C15.9993 4.93459 15.8402 5.08083 15.8188 5.37857C15.8054 5.5617 16.7238 6.47601 16.9003 6.4602C16.9845 6.4523 17.1302 6.41936 17.1369 6.37852C17.2037 5.97406 17.6075 5.88184 17.8294 5.62625C18.2879 5.09927 18.1649 4.36545 17.5406 4.00183C17.3321 3.87931 17.1008 3.81607 16.8468 3.80421C16.5821 3.79236 16.3335 3.65271 16.4163 3.35628C16.4966 3.07039 16.7612 2.96236 17.058 3.07698C17.1984 3.131 17.3134 3.24957 17.451 3.31544C17.7853 3.47485 17.9417 3.31807 17.9925 3.05195Z" fill="white"/>
<path d="M10.2305 17.2507C10.324 17.0452 10.4256 16.953 10.5673 16.9754C11.2558 17.0873 11.5365 16.8238 11.4189 16.1348C11.3681 15.8358 11.5312 15.7053 11.84 15.6895C12.2812 15.6658 12.4282 15.8502 12.4001 16.2745C12.3854 16.4945 12.2544 16.8752 12.5071 16.9266C12.9522 17.0149 13.4442 17.0083 13.8867 16.9082C14.0939 16.8621 13.9749 16.4721 13.9656 16.2442C13.9495 15.8582 14.0738 15.679 14.4896 15.6882C14.8759 15.6961 14.9762 15.8819 14.9829 16.2257C14.9882 16.4681 14.8278 16.8581 15.1152 16.9266C15.5323 17.0254 16.0042 17.0043 16.4293 16.9174C16.6392 16.8739 16.5202 16.5261 16.5162 16.3206C16.5069 15.9412 16.5657 15.6829 17.0443 15.6856C17.5188 15.6895 17.6151 15.9504 17.5643 16.3258C17.4988 16.8133 17.6392 17.0201 18.1926 16.9806C18.976 16.9253 18.706 17.555 18.7781 17.9648C18.8731 18.5089 18.5108 18.443 18.1726 18.4417C16.5483 18.439 14.9241 18.4417 13.3012 18.4377C13.126 18.4377 12.8934 18.4773 12.7838 18.385C12.0459 17.7711 11.1916 17.4062 10.2305 17.2507Z" fill="white"/>
<path d="M16.8369 7.66152C18.6764 7.55481 20.0293 6.4745 20.3648 4.87642C20.6897 3.32578 19.9116 1.76065 18.4585 1.04395C17.008 0.328574 15.2688 0.655303 14.2154 1.84365C12.9962 3.21907 13.027 4.78947 14.313 6.6708C13.182 6.45078 12.8131 5.99363 12.658 4.62347C12.4441 2.72634 13.6112 0.901667 15.4546 0.250844C17.3102 -0.405248 19.3448 0.267971 20.4103 1.89107C21.4717 3.50759 21.2819 5.64318 19.9544 7.03441C19.7525 7.24521 19.5293 7.41384 19.2405 7.4942C18.6456 7.6602 18.0548 7.83806 17.4626 8.00801C17.1644 8.09365 16.8824 8.14239 16.8369 7.66152Z" fill="white"/>
</g>
<defs>
<clipPath id="clip0_331_108">
<rect width="25" height="25" fill="white"/>
</clipPath>
</defs>
</svg>
