<svg width="15" height="15" viewBox="0 0 15 15" fill="none" xmlns="http://www.w3.org/2000/svg">
<path d="M0 1.60938C0 1.27168 0.281029 1 0.630345 1H1.82538C2.40319 1 2.91535 1.325 3.15435 1.8125H13.949C14.6398 1.8125 15.144 2.44727 14.9628 3.09219L13.886 6.95918C13.6627 7.75645 12.9142 8.3125 12.0606 8.3125H4.48333L4.62516 9.03613C4.68294 9.32305 4.94296 9.53125 5.245 9.53125H12.817C13.1663 9.53125 13.4474 9.80293 13.4474 10.1406C13.4474 10.4783 13.1663 10.75 12.817 10.75H5.245C4.33625 10.75 3.5562 10.1254 3.38811 9.26465L2.03286 2.38379C2.01448 2.2873 1.92781 2.21875 1.82538 2.21875H0.630345C0.281029 2.21875 0 1.94707 0 1.60938ZM3.36184 12.7812C3.36184 12.6212 3.39445 12.4627 3.45781 12.3149C3.52116 12.167 3.61402 12.0326 3.73109 11.9195C3.84816 11.8063 3.98713 11.7165 4.14009 11.6553C4.29304 11.594 4.45698 11.5625 4.62253 11.5625C4.78809 11.5625 4.95202 11.594 5.10498 11.6553C5.25793 11.7165 5.39691 11.8063 5.51398 11.9195C5.63104 12.0326 5.7239 12.167 5.78726 12.3149C5.85061 12.4627 5.88322 12.6212 5.88322 12.7812C5.88322 12.9413 5.85061 13.0998 5.78726 13.2476C5.7239 13.3955 5.63104 13.5299 5.51398 13.643C5.39691 13.7562 5.25793 13.846 5.10498 13.9072C4.95202 13.9685 4.78809 14 4.62253 14C4.45698 14 4.29304 13.9685 4.14009 13.9072C3.98713 13.846 3.84816 13.7562 3.73109 13.643C3.61402 13.5299 3.52116 13.3955 3.45781 13.2476C3.39445 13.0998 3.36184 12.9413 3.36184 12.7812ZM12.1867 11.5625C12.521 11.5625 12.8417 11.6909 13.0781 11.9195C13.3145 12.148 13.4474 12.458 13.4474 12.7812C13.4474 13.1045 13.3145 13.4145 13.0781 13.643C12.8417 13.8716 12.521 14 12.1867 14C11.8523 14 11.5317 13.8716 11.2952 13.643C11.0588 13.4145 10.926 13.1045 10.926 12.7812C10.926 12.458 11.0588 12.148 11.2952 11.9195C11.5317 11.6909 11.8523 11.5625 12.1867 11.5625Z" fill="#BF3AD6" fill-opacity="0.858824"/>
</svg>
