<svg width="25" height="25" viewBox="0 0 25 25" fill="none" xmlns="http://www.w3.org/2000/svg">
<g clip-path="url(#clip0_296_83)">
<path d="M15.6135 4.33827C15.4271 4.98604 15.0861 5.1554 14.5969 5.11426C14.3122 5.09034 14.0227 5.09321 13.7379 5.1133C13.1895 5.15253 12.7061 5.09321 12.5379 4.35167C12.3764 4.94586 12.065 5.15444 11.5595 5.11521C11.2118 5.08842 10.8573 5.08555 10.5095 5.11521C9.99548 5.15923 9.63911 4.98796 9.46904 4.38037C9.29324 4.99657 8.91584 5.16114 8.38653 5.11617C7.99097 5.08268 7.59065 5.10182 7.19318 5.11139C6.79381 5.12095 6.57024 4.90854 6.46323 4.5526C6.34093 4.14595 6.34762 3.72973 6.47183 3.32786C6.74413 2.44853 7.0384 1.57591 7.31739 0.698496C7.46548 0.233478 7.74925 -0.00190208 8.25945 1.1575e-05C11.1086 0.0105367 13.9577 0.00862303 16.8068 0.00288206C17.3055 0.00192523 17.6065 0.216255 17.7527 0.698496C18.025 1.59409 18.3154 2.48394 18.6088 3.37187C18.7225 3.71729 18.7014 4.0694 18.6518 4.41099C18.583 4.8894 18.2925 5.10182 17.7871 5.10852C17.4689 5.1133 17.1498 5.09225 16.8326 5.11139C16.2947 5.14583 15.7912 5.13435 15.6135 4.33827Z" fill="#FDFDFD"/>
<path d="M14.6006 10.8499C13.7417 10.8499 12.8828 10.8403 12.0248 10.8556C11.7592 10.8604 11.6703 10.7934 11.677 10.515C11.6952 9.6873 11.6722 8.85869 11.6875 8.03104C11.6961 7.5842 11.5136 7.38709 11.0655 7.40336C10.605 7.41962 10.1426 7.42058 9.68204 7.40431C9.2263 7.38805 9.06292 7.59281 9.07534 8.03965C9.09636 8.85104 9.06674 9.66434 9.08776 10.4757C9.09541 10.7657 9.02661 10.8814 8.72374 10.8594C8.39125 10.8345 8.05589 10.8594 7.72244 10.8432C7.29536 10.8211 7.01255 10.5724 7.003 10.159C6.9686 8.69507 6.97338 7.23017 6.96096 5.76527C6.95905 5.53659 7.10141 5.52128 7.27721 5.52319C7.72244 5.52606 8.18201 5.59112 8.60909 5.50118C9.20433 5.37488 9.76326 5.4476 10.3547 5.49448C11.0569 5.54998 11.8184 5.72795 12.4882 5.27537C12.5168 5.25623 12.5847 5.26772 12.6191 5.28877C13.3414 5.73943 14.1497 5.53946 14.8997 5.49448C15.3784 5.46578 15.815 5.36914 16.3109 5.50118C16.7418 5.61505 17.2271 5.5385 17.6877 5.51936C17.9256 5.50979 18.0268 5.55094 18.024 5.82076C18.0096 7.22156 18.0211 8.62331 18.0106 10.0241C18.0068 10.5638 17.68 10.8594 17.1287 10.8604C16.286 10.8623 15.4433 10.8604 14.6016 10.8604C14.6006 10.8575 14.6006 10.8537 14.6006 10.8499ZM15.8131 7.84828C15.8131 7.64161 15.8026 7.43397 15.815 7.22826C15.8408 6.80247 15.536 6.78142 15.2771 6.85222C14.9026 6.9546 14.3016 6.48097 14.1755 7.23495C14.1267 7.5287 14.1659 7.83776 14.1659 8.14011C14.1659 8.82233 14.1659 8.82999 14.8252 8.8252C16.0004 8.81659 15.7883 8.96586 15.8131 7.84828Z" fill="#FDFDFD"/>
<path d="M22.3289 19.374C22.1349 19.9194 21.8244 20.0553 21.3897 20.0113C21.0906 19.9807 20.7849 19.9912 20.4839 20.0094C20.0779 20.0342 19.8065 19.885 19.6947 19.4305C19.1969 20.4256 18.3208 19.8792 17.6167 19.9931C17.2832 20.0467 17.1322 19.7481 16.9966 19.3941C16.8303 19.9682 16.4367 20.0505 15.9618 20.0094C15.6618 19.9835 15.357 19.9979 15.0551 20.0074C14.6433 20.0208 14.4436 19.7874 14.3729 19.4209C14.3376 19.2362 14.3089 19.0344 14.3443 18.8535C14.5373 17.8546 14.887 16.9006 15.2395 15.9505C15.3418 15.6759 15.6112 15.585 15.9074 15.5859C18.4058 15.5898 20.9043 15.5898 23.4018 15.5869C23.806 15.5859 24.0582 15.7725 24.1786 16.1524C24.428 16.9389 24.6783 17.7254 24.9277 18.511C25.0223 18.8076 25.0108 19.1147 24.9535 19.4085C24.8799 19.7845 24.6687 20.0342 24.2283 20.0084C23.8796 19.9874 23.527 19.9845 23.1792 20.0094C22.7598 20.0409 22.4779 19.8936 22.3289 19.374Z" fill="#FDFDFD"/>
<path d="M8.03029 19.3904C7.88124 19.9358 7.52868 20.0535 7.07103 20.0114C6.83408 19.9893 6.59235 19.9913 6.3554 20.0104C5.92832 20.0448 5.56239 19.9769 5.39328 19.5033C4.84677 20.2257 3.2015 20.2314 2.70468 19.5014C2.48875 20.0142 2.0674 20.0525 1.60974 20.0104C1.46738 19.997 1.32311 20.0075 1.18075 20.0075C0.183274 20.0094 -0.186481 19.5454 0.0877299 18.5608C0.317035 17.736 0.607488 16.9284 0.872145 16.1142C0.990619 15.7506 1.24381 15.5889 1.62599 15.5898C4.12446 15.5937 6.62293 15.5927 9.1214 15.5898C9.52937 15.5898 9.77301 15.7917 9.89244 16.1678C10.1342 16.9237 10.3759 17.6786 10.6176 18.4345C10.7218 18.7617 10.717 19.0976 10.6549 19.4267C10.5861 19.7913 10.3854 20.0267 9.96983 20.0094C9.63638 19.996 9.29911 19.9817 8.96757 20.0123C8.5061 20.0563 8.1908 19.9032 8.03029 19.3904Z" fill="#FDFDFD"/>
<path d="M21.435 24.984C20.7509 24.984 20.0659 24.9658 19.3827 24.9917C19.0245 25.005 18.8792 24.9285 18.9041 24.5285C18.9442 23.8779 18.9117 23.2225 18.9213 22.569C18.927 22.1824 18.798 21.9719 18.3643 22.0016C17.9525 22.0303 17.5368 22.015 17.1231 22.0054C16.7983 21.9977 16.6645 22.1422 16.6693 22.4656C16.6789 23.1986 16.6636 23.9315 16.6769 24.6644C16.6817 24.9046 16.6234 24.985 16.3674 24.9926C14.918 25.0347 14.8511 24.9773 14.8502 23.5411C14.8502 22.6168 14.8693 21.6916 14.8368 20.7692C14.8244 20.4113 14.9495 20.3702 15.261 20.3596C15.8218 20.3415 16.4113 20.5223 16.9359 20.1683C16.9655 20.1482 17.0295 20.1405 17.0572 20.1587C17.6419 20.5491 18.3021 20.3797 18.9155 20.3443C19.4229 20.3147 19.9063 20.2965 20.4184 20.3424C21.029 20.397 21.6796 20.5147 22.2873 20.174C22.4793 20.0669 22.6742 20.3903 22.9332 20.374C23.3297 20.3491 23.729 20.3807 24.1265 20.3654C24.3491 20.3568 24.4284 20.4171 24.4256 20.6534C24.4131 21.8485 24.4217 23.0436 24.4131 24.2386C24.4093 24.7295 24.1685 24.9725 23.6794 24.9802C22.9312 24.9926 22.1831 24.984 21.435 24.984ZM22.5032 22.3891C22.5032 22.1987 22.5042 22.0073 22.5032 21.8169C22.5023 21.6849 22.4937 21.5404 22.3236 21.5346C21.9749 21.5222 21.6252 21.5203 21.2764 21.5327C21.0853 21.5394 21.071 21.6983 21.0701 21.8485C21.0681 22.1977 21.0729 22.5479 21.0662 22.8972C21.0615 23.1306 21.1513 23.2311 21.3978 23.2512C22.4831 23.3411 22.5061 23.3296 22.5032 22.3891Z" fill="#FDFDFD"/>
<path d="M7.13852 24.9819C6.40666 24.9809 5.67479 24.9704 4.94388 24.9876C4.68782 24.9934 4.6219 24.9092 4.62668 24.6642C4.64101 23.9476 4.62476 23.2309 4.63527 22.5142C4.64101 22.1516 4.49291 21.987 4.12316 22.0014C3.7257 22.0167 3.32728 22.0234 2.93077 22.0014C2.51898 21.9784 2.35082 22.1468 2.35942 22.5573C2.37471 23.2577 2.35942 23.959 2.36898 24.6594C2.37184 24.8805 2.34413 24.9838 2.06897 24.9905C0.610013 25.0288 0.540266 24.9704 0.540266 23.494C0.540266 22.586 0.548865 21.678 0.531667 20.7709C0.525935 20.48 0.575618 20.3681 0.90811 20.3547C1.4957 20.3317 2.10336 20.5212 2.67758 20.1576C2.82663 20.0628 3.08842 20.4063 3.3655 20.37C4.01328 20.2848 4.70311 20.5633 5.31173 20.1461C5.37001 20.1069 5.39389 20.1451 5.43307 20.1595C6.27385 20.4867 7.11559 20.4858 7.95924 20.1652C7.99555 20.1509 8.05192 20.1365 8.07772 20.1537C8.62996 20.5279 9.25195 20.3221 9.84337 20.3595C10.0679 20.3738 10.1434 20.4283 10.1405 20.6609C10.1262 21.8397 10.1338 23.0185 10.1204 24.1963C10.1138 24.7561 9.88541 24.9752 9.33412 24.98C8.60225 24.9867 7.87039 24.9819 7.13852 24.9819ZM6.76877 22.3506C6.77259 23.3859 6.7038 23.2319 7.66497 23.2424C7.74427 23.2433 7.82453 23.2405 7.90383 23.2443C8.12358 23.2539 8.22677 23.1448 8.22677 22.9295C8.22677 22.563 8.22677 22.1975 8.22486 21.8311C8.2239 21.6244 8.14269 21.5134 7.91052 21.5153C6.58819 21.5306 6.77832 21.3938 6.76877 22.3506Z" fill="#FDFDFD"/>
<path d="M8.75137 12.9496C9.78515 12.9496 10.818 12.9382 11.8508 12.9563C12.1776 12.9621 12.3152 12.8712 12.2712 12.5325C12.2464 12.3449 12.2664 12.1507 12.2655 11.9603C12.2655 11.789 12.341 11.6924 12.5215 11.6914C12.6916 11.6905 12.7929 11.7632 12.7986 11.9431C12.7996 11.9909 12.8015 12.0387 12.8043 12.0866C12.8473 12.9487 12.8473 12.9477 13.7302 12.9487C15.6382 12.9496 17.5462 12.964 19.4532 12.9401C19.8937 12.9343 20.0122 13.0932 19.9825 13.4922C19.9587 13.8089 19.9797 14.1285 19.9768 14.4461C19.9749 14.6528 19.8956 14.7686 19.6587 14.7552C19.4179 14.7418 19.4399 14.5868 19.4313 14.4241C19.3854 13.5008 19.3844 13.5008 18.4376 13.5008C14.3512 13.5008 10.2657 13.5075 6.18028 13.4912C5.75607 13.4893 5.55925 13.5745 5.63091 14.028C5.65575 14.183 5.62613 14.3457 5.62804 14.5045C5.63091 14.6892 5.53823 14.7523 5.36243 14.7533C5.18376 14.7542 5.09968 14.6911 5.10159 14.5054C5.10637 14.0758 5.09873 13.6462 5.10351 13.2156C5.10733 12.8836 5.36434 12.9544 5.55543 12.9535C6.62074 12.9477 7.68605 12.9506 8.75137 12.9496Z" fill="#FDFDFD"/>
</g>
<defs>
<clipPath id="clip0_296_83">
<rect width="25" height="25" fill="white"/>
</clipPath>
</defs>
</svg>
