<svg width="25" height="25" viewBox="0 0 25 25" fill="none" xmlns="http://www.w3.org/2000/svg">
<g clip-path="url(#clip0_296_110)">
<path d="M12.5038 25.0001C8.82122 25.0001 5.13863 25.0001 1.45737 25.0001C0.581769 25.0001 0.0198358 24.4443 0.0171662 23.5731C0.0158315 22.8156 0.0144967 22.058 0.0171662 21.3004C0.0198358 20.4132 0.581769 19.8414 1.46271 19.8414C8.8279 19.8401 16.1918 19.8387 23.5569 19.8414C24.4512 19.8414 25.0011 20.4039 25.0011 21.2937C25.0011 22.0607 25.0025 22.8263 25.0011 23.5932C24.9998 24.4443 24.4472 25.0001 23.6023 25.0001C19.9037 25.0001 16.2038 25.0001 12.5038 25.0001ZM15.3495 22.058C15.3642 22.054 15.3789 22.05 15.3936 22.046C15.7139 22.5617 16.0569 23.0654 16.3439 23.5985C16.5094 23.9058 16.7163 24.0034 17.038 23.9646C17.1514 23.9513 17.2075 23.9392 17.2062 23.8083C17.2022 22.8864 17.2022 21.9658 17.2048 21.0439C17.2048 20.9437 17.1741 20.9036 17.0727 20.9116C16.9873 20.9183 16.8992 20.921 16.8151 20.9103C16.6683 20.8929 16.6269 20.9504 16.6296 21.0947C16.6376 21.6198 16.6349 22.1448 16.6296 22.6699C16.6296 22.7287 16.6736 22.8062 16.5788 22.8623C16.2465 22.3185 15.9021 21.7854 15.5884 21.2336C15.4496 20.9904 15.2975 20.8822 15.0065 20.9009C14.8049 20.9143 14.7729 20.9704 14.7756 21.1521C14.7849 21.9698 14.7796 22.7875 14.7796 23.6066C14.7796 23.962 14.7796 23.9499 15.128 23.9646C15.3162 23.9726 15.3549 23.9098 15.3509 23.7335C15.3415 23.175 15.3495 22.6165 15.3495 22.058ZM11.9406 22.4174C11.9406 22.873 11.9432 23.3286 11.9392 23.7843C11.9379 23.9005 11.9419 23.9713 12.0967 23.97C12.7668 23.9606 13.4368 23.962 14.1069 23.9686C14.3658 23.9713 14.2417 23.7869 14.2577 23.6787C14.2737 23.5678 14.3071 23.4355 14.1002 23.4462C13.7999 23.4609 13.4995 23.4502 13.1979 23.4502C12.5425 23.4502 12.5465 23.4502 12.5545 22.7995C12.5559 22.6606 12.5839 22.6085 12.7361 22.6125C13.1312 22.6232 13.5262 22.6138 13.9213 22.6152C14.1776 22.6165 14.0468 22.4228 14.0655 22.3159C14.0828 22.217 14.1135 22.0887 13.92 22.0967C13.629 22.1101 13.3354 22.0994 13.0431 22.0994C12.5278 22.0994 12.5332 22.0994 12.5532 21.577C12.5585 21.4487 12.5973 21.4233 12.716 21.4247C13.1458 21.4314 13.5756 21.4153 14.0041 21.4314C14.2257 21.4394 14.2096 21.3151 14.2043 21.1722C14.199 21.0426 14.2523 20.9009 14.0174 20.9063C13.3821 20.921 12.7454 20.917 12.1101 20.9076C11.9499 20.9049 11.9339 20.9677 11.9352 21.1013C11.9446 21.5409 11.9406 21.9792 11.9406 22.4174ZM5.61781 22.4415C5.63516 22.2143 5.62848 21.9979 5.72325 21.7975C5.84472 21.5409 6.05294 21.398 6.32923 21.3899C6.58017 21.3819 6.82977 21.4661 6.92453 21.7133C7.00195 21.9164 7.10473 21.8923 7.24888 21.8469C7.30627 21.8295 7.36367 21.8001 7.42106 21.8001C7.63196 21.7988 7.6066 21.6932 7.54787 21.5516C7.25155 20.8328 6.15571 20.619 5.50435 21.1561C5.02517 21.5503 4.83697 22.3493 5.05854 23.0481C5.23874 23.6159 5.66853 23.9499 6.29453 24.0074C6.80174 24.0541 7.26089 23.8096 7.49314 23.3701C7.66666 23.0414 7.65999 23.0574 7.31829 22.9211C7.10339 22.8356 7.00729 22.8623 6.93655 23.0908C6.8578 23.3447 6.6469 23.4769 6.3893 23.4876C6.12635 23.4983 5.91012 23.3874 5.7673 23.1496C5.63115 22.9251 5.63382 22.6753 5.61781 22.4415ZM18.5356 22.7007C18.5343 23.036 18.5409 23.3714 18.5316 23.7068C18.5276 23.8711 18.5316 24.0047 18.7532 23.9579C18.9133 23.9245 19.1603 24.0822 19.1482 23.7148C19.1255 23.0187 19.1456 22.3212 19.1389 21.6238C19.1376 21.4728 19.1683 21.4086 19.3351 21.4233C19.5233 21.4394 19.7128 21.4274 19.9024 21.4274C20.16 21.426 20.0172 21.2296 20.0399 21.1227C20.0625 21.0225 20.0812 20.9049 19.8917 20.9076C19.1869 20.917 18.4822 20.9143 17.7774 20.9089C17.6573 20.9076 17.6199 20.937 17.6186 21.0639C17.6133 21.4287 17.6066 21.4287 17.9683 21.4274C18.1058 21.4274 18.2446 21.4367 18.3808 21.4274C18.5102 21.418 18.5396 21.4741 18.5383 21.5917C18.5329 21.9618 18.5356 22.3306 18.5356 22.7007ZM8.1712 22.4375C8.1712 22.885 8.1712 23.3313 8.1712 23.7789C8.1712 23.8738 8.15385 23.9646 8.30601 23.9633C8.924 23.9566 9.54333 23.9673 10.1613 23.9579C10.4229 23.9539 10.2708 23.7402 10.2988 23.6253C10.3242 23.525 10.3148 23.4315 10.148 23.4382C9.77024 23.4542 9.39116 23.4329 9.01476 23.4476C8.83591 23.4542 8.78252 23.4075 8.78518 23.2231C8.7972 22.527 8.78385 21.8295 8.79453 21.1334C8.7972 20.9597 8.74247 20.9023 8.5783 20.925C8.51957 20.933 8.45683 20.933 8.39811 20.925C8.21925 20.8969 8.16185 20.9637 8.16719 21.1481C8.18054 21.577 8.1712 22.0072 8.1712 22.4375ZM10.7393 22.4161C10.7393 22.8717 10.7419 23.3286 10.7379 23.7843C10.7366 23.9098 10.7606 23.982 10.9074 23.9606C10.9742 23.9513 11.0463 23.9499 11.113 23.9606C11.3279 23.9967 11.3679 23.8938 11.3653 23.7014C11.3559 22.9185 11.3626 22.1355 11.3613 21.3525C11.3613 20.8996 11.3586 20.9089 10.9155 20.9076C10.7566 20.9076 10.7366 20.9664 10.7379 21.1C10.7433 21.5382 10.7393 21.9765 10.7393 22.4161Z" fill="#FDFDFD"/>
<path d="M12.5033 19.3113C10.6533 19.3113 8.80468 19.3086 6.9547 19.3153C6.75583 19.3166 6.68909 19.2712 6.69576 19.0614C6.71578 18.3987 6.7011 17.736 6.72379 17.0733C6.78653 15.2655 8.22806 13.6288 10.01 13.3201C10.3663 13.2587 10.7267 13.2266 11.0871 13.2306C12.2564 13.2427 13.4256 13.1972 14.5949 13.264C16.3154 13.3629 17.9571 14.8406 18.2414 16.5562C18.3842 17.4207 18.3028 18.2905 18.3282 19.1576C18.3348 19.3674 18.184 19.3086 18.0772 19.3086C16.2887 19.3113 14.4988 19.3099 12.7102 19.3099C12.6408 19.3113 12.5727 19.3113 12.5033 19.3113Z" fill="#FDFDFD"/>
<path d="M17.6406 14.2121C17.9463 14.1319 18.2186 14.1012 18.4935 14.1012C19.4652 14.0999 20.4369 14.0932 21.4086 14.1026C23.1412 14.1172 24.5333 15.2436 24.9271 16.9338C25.0218 17.3413 25.0018 17.7541 25.0031 18.1657C25.0045 18.648 24.9991 19.129 25.0058 19.6113C25.0085 19.7837 24.9591 19.8171 24.8216 19.7102C24.4012 19.3802 23.9153 19.3027 23.3934 19.308C21.9666 19.3214 20.5384 19.3094 19.1115 19.3174C18.9153 19.3187 18.8566 19.2746 18.8539 19.0662C18.8486 18.3006 18.9073 17.535 18.8152 16.7708C18.7058 15.8595 18.352 15.0579 17.7581 14.3591C17.726 14.3203 17.6954 14.2803 17.6406 14.2121Z" fill="#FDFDFD"/>
<path d="M7.34411 14.1673C7.02243 14.5468 6.76883 14.9008 6.57529 15.295C6.22825 16.0018 6.08276 16.75 6.09744 17.5343C6.10679 18.0153 6.07876 18.499 6.10812 18.9786C6.12414 19.2565 6.02136 19.298 5.77844 19.2966C4.44635 19.2873 3.11293 19.2993 1.78084 19.2886C1.16151 19.2833 0.562207 19.3167 0.0763551 19.7496C0.0456557 19.7269 0.02163 19.7162 0.02163 19.7068C0.0416514 18.7462 -0.08782 17.7775 0.120402 16.8262C0.456761 15.2803 1.89296 14.1179 3.47465 14.1005C4.53978 14.0885 5.60625 14.0951 6.67272 14.1005C6.87561 14.1032 7.07849 14.1406 7.34411 14.1673Z" fill="#FDFDFD"/>
<path d="M12.5054 12.7088C10.8049 12.7115 9.4114 11.3152 9.41407 9.61171C9.41674 7.89213 10.7915 6.50524 12.4947 6.50391C14.2098 6.50257 15.582 7.88678 15.5873 9.62774C15.5913 11.3032 14.1885 12.7061 12.5054 12.7088Z" fill="#FDFDFD"/>
<path d="M5.12151 8.10157C6.62044 8.10558 7.80704 9.30675 7.79903 10.8125C7.79102 12.2876 6.56839 13.5008 5.10015 13.4888C3.59989 13.4768 2.44132 12.2729 2.44532 10.7297C2.44933 9.2867 3.65995 8.09756 5.12151 8.10157Z" fill="#FDFDFD"/>
<path d="M19.951 8.10156C21.4232 8.10156 22.6218 9.29471 22.6258 10.7618C22.6285 12.2783 21.4272 13.4928 19.9309 13.4874C18.4654 13.4821 17.2775 12.2823 17.2734 10.8045C17.2694 9.28803 18.4454 8.10156 19.951 8.10156Z" fill="#FDFDFD"/>
<path d="M7.92928 4.92227C6.59986 4.92494 5.49468 3.80661 5.50002 2.46248C5.50669 1.0903 6.59719 0.0080461 7.98 2.94276e-05C9.27071 -0.00665113 10.3786 1.12504 10.3839 2.45848C10.3919 3.80127 9.27605 4.9196 7.92928 4.92227Z" fill="#FDFDFD"/>
<path d="M19.4977 2.50314C19.4683 3.85261 18.3378 4.96025 17.0311 4.92284C15.6376 4.88275 14.5911 3.77244 14.6258 2.36819C14.6592 1.03074 15.7964 -0.0287974 17.1699 0.000597112C18.4513 0.0286555 19.5271 1.18573 19.4977 2.50314Z" fill="#FDFDFD"/>
<path d="M13.7969 6.21372C14.3161 5.79017 14.874 5.54032 15.5094 5.52696C16.4891 5.50825 17.4701 5.50825 18.4498 5.51894C19.6258 5.5323 20.4747 6.1242 21.1047 7.07685C21.2742 7.33338 21.3956 7.6153 21.5011 7.95601C20.9699 7.67943 20.444 7.54048 19.8834 7.54582C18.3884 7.55918 17.027 8.72962 16.7814 10.206C16.7387 10.4639 16.728 10.7191 16.74 10.9756C16.7467 11.1132 16.7187 11.176 16.5638 11.168C16.3169 11.1547 16.0686 11.164 15.7897 11.164C16.1981 10.1887 16.2555 9.22398 15.8657 8.26332C15.476 7.30131 14.7913 6.62257 13.7969 6.21372Z" fill="#FDFDFD"/>
<path d="M9.18548 11.1617C8.97592 11.1617 8.76102 11.1496 8.5488 11.1657C8.36327 11.1804 8.31922 11.1189 8.33123 10.9372C8.38462 10.0741 8.10966 9.31516 7.5504 8.6618C6.59204 7.54214 5.0197 7.2335 3.69429 7.89621C3.6489 7.91892 3.60085 7.93896 3.52344 7.9737C3.6796 7.39383 3.96658 6.91684 4.35766 6.50531C5.00635 5.82122 5.8032 5.49254 6.75221 5.51258C7.56909 5.52995 8.38596 5.52594 9.20149 5.51392C9.94228 5.50189 10.6017 5.71033 11.1863 6.17797C9.1174 7.2669 8.44068 8.91967 9.18548 11.1617Z" fill="#FDFDFD"/>
</g>
<defs>
<clipPath id="clip0_296_110">
<rect width="25" height="25" fill="white"/>
</clipPath>
</defs>
</svg>
