<svg width="25" height="25" viewBox="0 0 25 25" fill="none" xmlns="http://www.w3.org/2000/svg">
<g clip-path="url(#clip0_746_313)">
<path d="M5.95455 17.2305C10.3321 17.2305 14.6258 17.2305 19.0581 17.2305C19.0581 18.3202 19.0581 19.3164 19.0581 20.3108C19.0581 21.5014 19.0471 22.6939 19.0635 23.8845C19.0745 24.6477 18.7372 25.0018 17.9696 25C14.325 24.989 10.6822 24.9908 7.03754 24.9981C6.43952 25 5.97642 24.7908 5.96731 24.1469C5.93631 21.8958 5.95455 19.643 5.95455 17.2305ZM8.88629 23.5708C8.88629 22.4187 8.85712 21.2409 8.89723 20.0649C8.92093 19.4008 8.57999 19.3347 8.0549 19.3292C7.4897 19.3237 7.20893 19.4944 7.23627 20.1126C7.26909 20.8721 7.24539 21.6353 7.24539 22.3967C7.24539 23.8277 7.27092 23.8478 8.88629 23.5708ZM11.7469 23.5892C13.1709 23.7965 13.3568 23.7488 13.3751 23.114C13.4061 22.0444 13.3751 20.973 13.386 19.9035C13.3915 19.2852 12.9667 19.3329 12.5692 19.3403C12.1863 19.3476 11.7378 19.2467 11.7451 19.8851C11.7561 21.1051 11.7469 22.3233 11.7469 23.5892ZM16.1263 23.7359C16.7681 23.4681 17.6378 24.2294 17.7417 23.1122C17.8383 22.0536 17.7563 20.9785 17.7636 19.9126C17.7672 19.3091 17.3479 19.3347 16.9468 19.3403C16.5603 19.3439 16.119 19.265 16.1245 19.8906C16.1336 21.107 16.1263 22.3215 16.1263 23.7359Z" fill="white"/>
<path d="M6.64845 5.9753C6.64116 2.64552 9.2192 0.0110415 12.4955 3.38988e-05C15.812 -0.0109737 18.5012 2.66019 18.4885 5.95696C18.4757 9.2207 15.8138 11.8937 12.5612 11.9102C9.30854 11.9249 6.65757 9.26473 6.64845 5.9753ZM9.61849 9.52891C9.63125 10.2352 10.0579 10.2095 10.4991 9.88299C11.79 8.92533 13.0607 8.65931 14.4154 9.76557C14.636 9.94536 15.0116 9.93252 15.3161 10.0096C15.3434 9.68669 15.4856 9.31793 15.3781 9.04825C14.76 7.49068 15.3124 6.37891 16.5723 5.45978C16.7874 5.30201 16.8822 4.97729 17.0317 4.72962C16.7728 4.61404 16.5121 4.39755 16.2532 4.39939C14.6378 4.41957 13.5804 3.72793 13.1209 2.13183C13.048 1.87682 12.7654 1.68236 12.5776 1.45854C12.3661 1.69153 12.0416 1.88966 11.9613 2.16118C11.5146 3.66372 10.5629 4.4159 8.99494 4.3627C8.90561 4.35903 8.80715 4.36637 8.72511 4.39939C8.51361 4.48561 8.30941 4.59019 8.10156 4.68742C8.21278 4.91858 8.26201 5.23963 8.44615 5.36622C9.87921 6.36424 10.2913 7.66129 9.67683 9.29775C9.6586 9.35462 9.64766 9.417 9.61849 9.52891Z" fill="white"/>
<path d="M17.4522 15.5669C16.6317 16.2604 15.8113 16.3723 14.9963 15.5357C14.1448 16.2861 13.297 16.3374 12.4584 15.5431C11.6306 16.3099 10.812 16.3136 9.97695 15.5522C9.1729 16.2421 8.35063 16.3705 7.51559 15.5688C7.40802 15.6275 7.29863 15.6678 7.21111 15.7357C6.58028 16.2182 5.9148 16.3301 5.3186 15.7449C4.69141 15.1285 4.80263 14.4386 5.29855 13.769C5.71424 13.2058 6.09894 12.6206 6.51829 12.0592C7.00691 11.4061 7.68515 11.2648 8.34334 11.7051C11.1493 13.5837 13.9498 13.5764 16.7557 11.7124C17.3975 11.285 17.9736 11.3951 18.4258 11.9931C18.8652 12.5747 19.2517 13.1966 19.6692 13.7965C20.1196 14.4423 20.2217 15.1119 19.651 15.7119C19.0748 16.3191 18.4075 16.2329 17.7603 15.7761C17.6655 15.7082 17.567 15.6458 17.4522 15.5669Z" fill="white"/>
<path d="M5.76048 3.70239C5.66568 4.10417 5.5891 4.41972 5.49065 4.83434C4.40583 4.83434 3.32465 4.83434 2.18149 4.83434C2.18149 9.77673 2.18149 14.6164 2.18149 19.5698C2.99465 19.5698 3.82422 19.5698 4.72125 19.5698C4.72125 19.9972 4.72125 20.311 4.72125 20.7329C3.82057 20.7329 2.91625 20.7843 2.02105 20.7182C1.23888 20.6595 0.996394 20.0926 1.00004 19.357C1.0128 17.0986 1.00369 14.8384 1.00369 12.5782C1.00551 10.1051 1.00004 7.63209 1.00733 5.15906C1.01098 4.1005 1.38292 3.71707 2.41669 3.70606C3.50515 3.69322 4.59544 3.70239 5.76048 3.70239Z" fill="white"/>
<path d="M20.2557 20.7424C20.2557 20.3278 20.2557 20.0581 20.2557 19.6692C21.089 19.6692 21.9204 19.6692 22.821 19.6692C22.821 14.6864 22.821 9.82111 22.821 4.83468C22.037 4.83468 21.2822 4.77965 20.5383 4.84936C19.7033 4.92641 19.3405 4.62554 19.4426 3.70641C20.5803 3.70641 21.7307 3.67522 22.8775 3.71742C23.574 3.7431 23.9988 4.14671 24.0007 4.89339C24.0025 9.78258 24.0043 14.6736 23.997 19.5628C23.9952 20.293 23.6014 20.7113 22.8775 20.7369C22.0334 20.7663 21.1874 20.7424 20.2557 20.7424Z" fill="white"/>
<path d="M14.0598 8.26285C12.9476 7.53818 12.0634 7.51617 11.0333 8.33623C11.4034 7.02816 11.1809 6.12004 9.9375 5.36786C11.3851 5.35502 12.1473 4.86335 12.4937 3.56445C13.006 4.72942 13.6368 5.4339 15.1246 5.30548C13.9978 6.10353 13.7025 6.97313 14.0598 8.26285Z" fill="white"/>
</g>
<defs>
<clipPath id="clip0_746_313">
<rect width="25" height="25" fill="white"/>
</clipPath>
</defs>
</svg>
