<svg width="25" height="25" viewBox="0 0 25 25" fill="none" xmlns="http://www.w3.org/2000/svg">
<g clip-path="url(#clip0_750_347)">
<path d="M16.6566 12.8909C15.2182 12.8909 13.842 12.8909 12.4105 12.8909C12.4105 14.6297 12.4105 16.4305 12.4105 18.289C11.1936 18.289 10.0321 18.289 8.7612 18.289C8.7612 17.2278 8.7612 16.1624 8.7612 15.0957C8.7612 13.328 8.7612 13.328 6.98497 13.328C6.50042 13.328 6.01588 13.3252 5.53133 13.328C4.62729 13.3335 4.45701 13.5026 4.45286 14.4263C4.44732 15.4793 4.45147 16.5336 4.45147 17.5866C4.45147 17.8106 4.45147 18.0361 4.45147 18.3027C3.22902 18.3027 2.06749 18.3027 0.867188 18.3027C0.867188 15.7047 0.867188 13.1465 0.867188 10.5251C1.27975 10.3574 1.64385 10.2461 2.21285 10.3437C3.14734 10.5059 4.1469 10.389 5.11461 10.3588C5.45934 10.3478 5.77775 10.3341 6.13078 10.3588C7.1608 10.4317 8.20327 10.3464 9.24021 10.3203C9.26097 10.3203 9.28174 10.2956 9.30389 10.2956C10.1276 10.2818 10.9555 10.2227 11.7751 10.2777C12.2057 10.3066 12.4922 10.6021 12.4022 11.1327C12.3455 11.464 12.3912 11.8118 12.3912 12.1224C13.8337 12.1224 15.2209 12.1224 16.6967 12.1224C16.6967 11.5451 16.6967 11.0461 16.6967 10.5485C16.6954 8.76149 16.7078 6.97586 16.687 5.18886C16.6801 4.65825 16.8615 4.44931 17.4083 4.46306C18.4923 4.49055 19.5777 4.4933 20.6604 4.45069C20.8929 4.44106 21.2003 4.25137 21.329 4.05342C21.8787 3.2094 22.737 2.81901 23.63 3.08019C24.4357 3.31662 25.0199 4.10978 25.0005 4.94555C24.9798 5.84867 24.3429 6.59234 23.4264 6.78342C22.5473 6.96624 21.7471 6.52911 21.2903 5.64386C21.2072 5.4844 21.0397 5.25484 20.9054 5.25071C19.7826 5.2191 18.6585 5.23284 17.49 5.23284C17.49 7.54358 17.49 9.77459 17.49 12.1142C18.6474 12.1142 19.7909 12.1279 20.9317 12.0963C21.0646 12.0922 21.228 11.8613 21.3152 11.7032C21.7734 10.8688 22.647 10.4358 23.504 10.6392C24.3651 10.844 24.9812 11.5987 25.0019 12.4757C25.0227 13.3404 24.4329 14.1074 23.5607 14.3493C22.6968 14.5899 21.7831 14.2064 21.3636 13.3514C21.1947 13.0077 21.0189 12.8799 20.6396 12.8895C19.6068 12.9142 18.5726 12.8977 17.4416 12.8977C17.4416 13.5259 17.4416 14.0909 17.4416 14.6559C17.4416 16.1446 17.4596 17.6333 17.4319 19.122C17.4222 19.6196 17.5537 19.8244 18.0881 19.7969C18.8703 19.7571 19.6566 19.7653 20.4402 19.7942C20.9012 19.8107 21.1684 19.7117 21.3803 19.2361C21.7984 18.2986 22.91 17.944 23.8432 18.3481C24.7721 18.7509 25.2317 19.7997 24.8732 20.7537C24.5991 21.4809 24.055 21.907 23.2714 21.9853C22.4269 22.0706 21.7568 21.7269 21.3858 20.986C21.1934 20.6025 20.9718 20.5117 20.5897 20.5186C19.5293 20.5351 18.4674 20.5021 17.4069 20.5324C16.8546 20.5475 16.6857 20.3289 16.6898 19.8038C16.7092 17.7653 16.6981 15.7267 16.6954 13.6881C16.6926 13.4476 16.6718 13.2015 16.6566 12.8909Z" fill="white"/>
<path d="M5.39062 18.282C5.39062 16.9307 5.39062 15.6111 5.39062 14.2461C6.20882 14.2461 7.00071 14.2461 7.83276 14.2461C7.83276 15.585 7.83276 16.9005 7.83276 18.282C7.04086 18.282 6.25174 18.282 5.39062 18.282Z" fill="white"/>
<path d="M4.17578 7.51866C4.3433 6.3571 4.50666 5.23404 4.67556 4.06836C4.94137 4.06836 5.17672 4.06836 5.46884 4.06836C5.383 5.22441 5.29855 6.34885 5.20995 7.51866C4.87492 7.51866 4.56757 7.51866 4.17578 7.51866Z" fill="white"/>
<path d="M2.25391 7.52698C2.51279 6.34755 2.76199 5.21349 3.01534 4.05469C3.25208 4.05469 3.45005 4.05469 3.75601 4.05469C3.59542 5.21762 3.43759 6.35718 3.27561 7.52698C2.9212 7.52698 2.61386 7.52698 2.25391 7.52698Z" fill="white"/>
<path d="M6.36663 4.06055C6.61583 4.06055 6.7875 4.06055 7.04777 4.06055C7.04777 5.22348 7.04777 6.35204 7.04777 7.52459C6.78196 7.52459 6.476 7.52459 6.11328 7.52459C6.19773 6.36716 6.27941 5.24272 6.36663 4.06055Z" fill="white"/>
<path d="M11.0759 3.94336C11.285 4.0767 11.6048 4.16467 11.6823 4.35162C12.1046 5.37984 12.4687 6.4328 12.8522 7.47888C12.1655 7.71807 11.8166 7.54211 11.6699 6.83419C11.4802 5.92419 11.1867 5.03481 10.9375 4.13718C10.9832 4.07257 11.0289 4.00797 11.0759 3.94336Z" fill="white"/>
<path d="M9.05518 7.53145C8.66339 7.53145 8.37543 7.53145 7.99609 7.53145C7.99609 6.3699 7.99609 5.23996 7.99609 4.06191C8.29513 3.97118 8.52771 3.97393 8.58863 4.44543C8.71738 5.45852 8.89043 6.46612 9.05518 7.53145Z" fill="white"/>
<path d="M1.33886 7.53262C0.949831 7.53262 0.681252 7.53262 0.304688 7.53262C0.729707 6.33671 1.12704 5.20127 1.55206 4.0782C1.57421 4.01772 1.83863 4.04796 2.09614 4.02734C1.8331 5.24113 1.58667 6.38344 1.33886 7.53262Z" fill="white"/>
<path d="M9.58099 3.97656C9.73881 4.07416 9.99908 4.14289 10.0392 4.27623C10.3618 5.34019 10.6428 6.41651 10.9488 7.53408C10.6096 7.53408 10.3397 7.53408 9.97278 7.53408C9.79834 6.41789 9.62113 5.2797 9.44531 4.14289C9.48961 4.08791 9.5353 4.03155 9.58099 3.97656Z" fill="white"/>
<path d="M7.25854 8.49609C7.13118 8.88649 7.07995 9.22052 6.90828 9.47345C6.84045 9.57242 6.37389 9.57242 6.31021 9.47482C6.14269 9.21639 6.09701 8.88236 5.97656 8.49609C6.43065 8.49609 6.74215 8.49609 7.25854 8.49609Z" fill="white"/>
<path d="M1.29167 8.50586C1.19061 8.85089 1.13523 9.19317 0.980175 9.48321C0.933104 9.57256 0.495625 9.59593 0.438864 9.51346C0.257504 9.2454 0.167516 8.9155 0 8.50586C0.498394 8.50586 0.827888 8.50586 1.29167 8.50586Z" fill="white"/>
<path d="M3.99609 8.48633C4.50833 8.48633 4.79906 8.48633 5.23793 8.48633C5.15348 8.85198 5.13548 9.18738 4.98596 9.45131C4.92643 9.55716 4.44465 9.58877 4.38789 9.50355C4.20653 9.23275 4.13731 8.88909 3.99609 8.48633Z" fill="white"/>
<path d="M7.91016 8.49805C8.39886 8.49805 8.70897 8.49805 9.18798 8.49805C9.08554 8.86095 9.0357 9.19635 8.88479 9.4809C8.83911 9.56613 8.40163 9.58675 8.34487 9.50152C8.16212 9.23484 8.0749 8.90493 7.91016 8.49805Z" fill="white"/>
<path d="M13.2039 8.49414C13.0696 8.89278 13.0156 9.22544 12.8411 9.47699C12.7719 9.57597 12.3054 9.57047 12.2431 9.47287C12.0783 9.21307 12.0354 8.87766 11.9219 8.49552C12.3732 8.49414 12.6833 8.49414 13.2039 8.49414Z" fill="white"/>
<path d="M2.01172 8.48438C2.49212 8.48438 2.80361 8.48438 3.27847 8.48438C3.15387 8.87339 3.08742 9.21017 2.92683 9.49335C2.87976 9.57582 2.43812 9.57582 2.38551 9.48922C2.21661 9.21155 2.14601 8.87477 2.01172 8.48438Z" fill="white"/>
<path d="M9.92188 8.49023C10.3967 8.49023 10.7068 8.49023 11.1859 8.49023C11.0599 8.87925 10.9948 9.21466 10.8328 9.49508C10.783 9.58031 10.34 9.58306 10.2901 9.49783C10.124 9.21741 10.0534 8.88063 9.92188 8.49023Z" fill="white"/>
</g>
<defs>
<clipPath id="clip0_750_347">
<rect width="25" height="25" fill="white"/>
</clipPath>
</defs>
</svg>
