<svg width="26" height="25" viewBox="0 0 26 25" fill="none" xmlns="http://www.w3.org/2000/svg">
<g clip-path="url(#clip0_292_12)">
<path d="M17.2559 9.09223C17.5211 8.93502 17.6314 8.73157 17.6278 8.44276C17.6191 7.74207 17.6263 7.04138 17.6242 6.34069C17.6227 5.90534 17.4065 5.68837 16.9639 5.68695C16.1105 5.68339 15.2564 5.67984 14.4029 5.69051C14.2112 5.69264 14.155 5.64071 14.1687 5.45505C14.186 5.22599 14.1838 4.99338 14.1694 4.76361C14.1586 4.58861 14.2141 4.5374 14.3943 4.53882C15.2477 4.54807 16.1019 4.54593 16.9553 4.54166C17.3474 4.53953 17.5831 4.36311 17.6206 4.0615C17.6617 3.73285 17.4577 3.4604 17.116 3.43621C16.7765 3.41202 16.4334 3.417 16.0925 3.42412C15.9382 3.42696 15.882 3.37859 15.8964 3.22707C15.908 3.10401 15.9015 2.97881 15.8979 2.85503C15.8878 2.54203 15.6723 2.30942 15.3731 2.28381C15.0891 2.25962 14.821 2.4773 14.7691 2.7782C14.7583 2.83867 14.7612 2.90198 14.7604 2.96387C14.7554 3.42127 14.7554 3.42127 14.2775 3.42127C14.0526 3.42127 13.8277 3.41274 13.6036 3.42696C13.2633 3.4483 13.0442 3.65318 13.0392 3.98538C13.0276 4.73942 13.0269 5.49346 13.0392 6.24679C13.0449 6.5982 13.2879 6.80663 13.654 6.80805C14.5255 6.81161 15.3976 6.81446 16.2691 6.80521C16.4486 6.80307 16.4997 6.85429 16.4896 7.02644C16.4752 7.27399 16.4738 7.52368 16.4904 7.77123C16.5019 7.9448 16.4349 7.97326 16.2763 7.97184C15.4229 7.96401 14.5687 7.96757 13.7153 7.96899C13.3455 7.9697 13.1423 8.10273 13.0594 8.39367C12.9851 8.65403 13.1012 8.87171 13.4724 9.09223C13.3426 9.09223 13.2684 9.09223 13.1949 9.09223C12.1079 9.09223 11.0202 9.08654 9.93325 9.09721C9.73864 9.09934 9.65791 9.03034 9.57934 8.86459C7.8833 5.28432 10.0197 1.02684 13.956 0.153289C17.4577 -0.623515 20.9082 1.63149 21.559 5.11929C21.8055 6.44028 21.6304 7.70579 21.0624 8.92221C21.0163 9.02038 20.9802 9.09649 20.8361 9.09578C19.6431 9.08867 18.4495 9.09223 17.2559 9.09223Z" fill="white"/>
<path d="M16.7686 21.6007C15.8027 21.6007 14.8693 21.6007 13.9019 21.6007C14.1838 22.1499 14.2652 22.7147 14.1103 23.2994C13.956 23.882 13.6136 24.3338 13.0968 24.6532C12.2564 25.1717 11.1694 25.0956 10.4133 24.4725C9.74869 23.9247 9.2499 22.8918 9.85681 21.5957C9.67805 21.5957 9.51371 21.5957 9.34937 21.5957C8.87292 21.5957 8.39647 21.6 7.92074 21.5943C7.52935 21.59 7.27851 21.3667 7.27347 20.9968C7.26337 20.252 7.26265 19.5065 7.27347 18.7617C7.27851 18.384 7.52719 18.1613 7.95246 18.1777C8.23069 18.1883 8.22492 18.1008 8.15933 17.8853C7.9157 17.0829 7.68937 16.2748 7.45799 15.4681C7.44646 15.4275 7.44141 15.3849 7.4306 15.3265C8.53126 15.3265 9.61823 15.3265 10.7052 15.3265C11.0375 15.3265 11.3705 15.3301 11.7028 15.3244C11.8282 15.3223 11.8996 15.3372 11.8988 15.4923C11.8931 16.7165 11.8924 17.9401 11.8996 19.1643C11.9003 19.3422 11.795 19.3123 11.6905 19.3123C10.6929 19.3123 9.69535 19.3194 8.69777 19.3066C8.48009 19.3037 8.42314 19.367 8.43972 19.5698C8.45702 19.7811 8.45702 19.9966 8.43972 20.2079C8.42386 20.395 8.48297 20.4426 8.67398 20.4412C9.96782 20.432 11.2624 20.4369 12.5562 20.4362C14.6235 20.4355 16.69 20.4298 18.7572 20.4334C19.9098 20.4355 20.9189 21.2806 21.0652 22.3505C21.2303 23.5541 20.5326 24.6204 19.3598 24.9171C18.4401 25.1497 17.6465 24.89 17.0345 24.1865C16.4262 23.488 16.3303 22.682 16.664 21.8248C16.69 21.7601 16.7232 21.6982 16.7686 21.6007Z" fill="white"/>
<path d="M9.46728 14.2032C8.77531 14.2032 8.08334 14.1947 7.3921 14.2082C7.17369 14.2124 7.06557 14.1655 7.00431 13.9357C6.76572 13.0494 6.49903 12.1708 6.24675 11.288C6.19557 11.1095 6.12998 10.9381 6.04564 10.7723C5.60812 9.9137 5.16771 9.05651 4.74244 8.19221C4.66027 8.02433 4.57233 7.96102 4.38132 7.96458C3.66268 7.97667 2.94404 7.97098 2.2254 7.96885C1.80085 7.96814 1.53488 7.74548 1.53127 7.39478C1.52839 7.04266 1.79437 6.81218 2.21531 6.81075C3.10478 6.80862 3.99425 6.8136 4.88371 6.80862C5.19654 6.80649 5.40701 6.93453 5.54613 7.21267C6.01753 8.15522 6.50119 9.09137 6.97115 10.0346C7.04035 10.1733 7.11891 10.221 7.27461 10.2203C8.7299 10.2139 10.1859 10.2217 11.6412 10.2111C11.8611 10.2096 11.9057 10.2744 11.9043 10.4778C11.8949 11.6395 11.8935 12.8011 11.905 13.9628C11.9072 14.1662 11.8502 14.211 11.6527 14.2075C10.9233 14.1954 10.1953 14.2032 9.46728 14.2032Z" fill="white"/>
<path d="M21.4491 10.2161C22.2391 10.2161 23.0291 10.2146 23.8191 10.2168C24.3979 10.2182 24.6365 10.5298 24.4793 11.0775C24.2004 12.0535 23.9164 13.0274 23.6425 14.0048C23.5999 14.1577 23.5336 14.2068 23.3707 14.2061C21.9162 14.199 20.4616 14.1982 19.007 14.2068C18.8174 14.2082 18.772 14.157 18.7735 13.9735C18.7821 12.804 18.7828 11.6338 18.7735 10.4643C18.772 10.2694 18.8167 10.2075 19.0243 10.2111C19.833 10.2239 20.6411 10.2161 21.4491 10.2161Z" fill="white"/>
<path d="M15.3256 14.2017C14.6336 14.2017 13.9424 14.1953 13.2511 14.206C13.0731 14.2088 13.0306 14.159 13.0313 13.9876C13.0392 12.8088 13.0392 11.6294 13.0313 10.4507C13.0299 10.2743 13.0616 10.2095 13.2605 10.211C14.6437 10.2202 16.0269 10.2195 17.4102 10.2117C17.6019 10.2102 17.6487 10.2679 17.6473 10.45C17.6394 11.6287 17.6394 12.8081 17.6473 13.9869C17.6487 14.159 17.6048 14.2088 17.4267 14.206C16.7268 14.1953 16.0262 14.2017 15.3256 14.2017Z" fill="white"/>
<path d="M15.3284 19.3142C14.6278 19.3142 13.9272 19.31 13.2266 19.3178C13.0774 19.3192 13.0305 19.2829 13.0313 19.13C13.0377 17.9242 13.0377 16.7185 13.0313 15.5127C13.0305 15.3569 13.0832 15.3249 13.2302 15.3249C14.6314 15.3299 16.0327 15.3306 17.4339 15.3242C17.599 15.3235 17.6473 15.369 17.6465 15.5319C17.6401 16.7284 17.6386 17.9257 17.648 19.1222C17.6494 19.3036 17.5788 19.3178 17.4296 19.3164C16.7297 19.3107 16.0291 19.3142 15.3284 19.3142Z" fill="white"/>
<path d="M21.0381 15.3247C21.7113 15.3247 22.3846 15.329 23.0578 15.3219C23.2207 15.3205 23.2546 15.3582 23.2077 15.5168C22.8841 16.6173 22.5712 17.7206 22.2512 18.8218C22.1481 19.1767 21.9615 19.3098 21.5852 19.3105C20.7231 19.3112 19.8618 19.3055 18.9997 19.3154C18.8195 19.3176 18.7806 19.2635 18.7813 19.0949C18.7885 17.9169 18.7885 16.7382 18.7813 15.5595C18.7798 15.3781 18.8253 15.3169 19.0184 15.3205C19.6909 15.3318 20.3649 15.3247 21.0381 15.3247Z" fill="white"/>
</g>
<defs>
<clipPath id="clip0_292_12">
<rect width="25" height="25" fill="white" transform="translate(0.53125)"/>
</clipPath>
</defs>
</svg>
