<svg width="26" height="25" viewBox="0 0 26 25" fill="none" xmlns="http://www.w3.org/2000/svg">
<g clip-path="url(#clip0_201_87)">
<path d="M3.67241 23.5261C4.12049 22.6411 4.8197 21.9269 5.38154 21.1192C5.47706 20.982 5.56614 20.8354 5.68527 20.7214C5.8924 20.5232 5.86986 20.3304 5.7781 20.0818C5.44003 19.1689 5.07674 18.264 4.79287 17.3322C4.62545 16.7825 4.63457 16.2486 4.85029 15.7004C5.29032 14.5847 5.69439 13.4554 6.11349 12.3318C6.12959 12.2892 6.14622 12.2467 6.17091 12.1836C6.27286 12.3166 6.25999 12.4558 6.27501 12.5851C6.38287 13.4943 6.46175 14.4076 6.6002 15.3126C6.76548 16.3931 7.76788 16.9985 8.83736 16.7063C8.88244 16.6942 8.92752 16.6816 9.00425 16.6606C8.94254 16.8366 8.9039 17.0011 8.8277 17.1472C8.74668 17.3038 8.79819 17.3685 8.93718 17.4505C9.63317 17.8604 10.3109 18.3002 11.016 18.6939C11.6519 19.0491 11.8478 19.5636 11.7668 20.2473C11.668 21.0777 11.6074 21.9127 11.5285 22.7457C11.4899 23.1556 11.4598 23.5666 11.4035 23.9744C11.3198 24.5851 10.7284 25.0428 10.1059 24.9986C9.46574 24.9529 8.96293 24.4447 8.96186 23.8194C8.96132 23.2145 9.0606 22.6154 9.10675 22.0131C9.14324 21.5365 9.19797 21.0614 9.24466 20.5858C9.25002 20.5327 9.25646 20.4849 9.19529 20.4486C8.93127 20.2936 8.66994 20.1333 8.37802 19.9572C8.43007 20.1832 8.51271 20.364 8.52183 20.5647C8.53632 20.8948 8.41719 21.1738 8.22347 21.4308C7.47006 22.4288 6.71396 23.4252 5.9627 24.4248C5.652 24.8378 5.2447 25.0633 4.7215 24.9813C4.1763 24.8962 3.83071 24.5656 3.69817 24.0332C3.69549 24.0222 3.681 24.0138 3.67188 24.0043C3.67241 23.8451 3.67241 23.6859 3.67241 23.5261Z" fill="white"/>
<path d="M13.2491 19.4461C13.2491 18.1833 13.2459 16.9204 13.2529 15.6581C13.254 15.4868 13.2244 15.4201 13.028 15.4269C12.5741 15.4437 12.119 15.4279 11.6645 15.4337C11.4354 15.4369 11.2304 15.3875 11.0844 15.2077C11.0077 15.1137 10.939 15.1683 10.8708 15.1951C10.1866 15.4595 9.4928 15.7038 8.82363 16.0002C8.1593 16.2945 7.32057 15.9214 7.25295 15.0254C7.18587 14.133 7.06192 13.2444 6.94708 12.3557C6.87034 11.7597 7.04743 11.3078 7.48048 11.086C8.18559 10.7255 8.97281 11.1806 9.05009 11.9868C9.09838 12.4886 9.16439 12.989 9.21322 13.4908C9.22985 13.6616 9.32537 13.5602 9.37635 13.5402C10.0734 13.2717 10.7667 12.9947 11.4638 12.7267C12.1147 12.4766 12.7587 12.7693 12.9395 13.3905C12.991 13.5665 12.9964 13.7473 12.9438 13.9202C12.9111 14.0285 12.939 14.0453 13.0388 14.0442C13.3103 14.0405 13.5818 14.0416 13.8528 14.0432C14.3841 14.0468 14.6701 14.3259 14.6701 14.843C14.6706 17.3687 14.6722 19.8939 14.6658 22.4196C14.6653 22.5941 14.706 22.6372 14.8863 22.6372C17.4648 22.6309 20.0438 22.6324 22.6222 22.633C23.0778 22.633 23.3215 22.7791 23.4358 23.117C23.5753 23.5295 23.2973 23.9647 22.8562 24.0046C22.634 24.0246 22.4092 24.0193 22.1854 24.0172C22.0942 24.0162 22.04 24.0345 22.0046 24.1281C21.8055 24.6494 21.4127 24.9295 20.8954 24.9295C20.3776 24.9295 19.9778 24.6494 19.7841 24.1286C19.746 24.0267 19.6939 24.0183 19.6075 24.0183C18.8203 24.0193 18.0331 24.0204 17.2459 24.0172C17.1509 24.0167 17.1053 24.0424 17.0715 24.136C16.8885 24.641 16.4704 24.9332 15.9542 24.9295C15.4439 24.9264 15.0328 24.6394 14.8563 24.1386C14.8166 24.0256 14.7608 24.0167 14.6658 24.0177C14.4351 24.0204 14.2038 24.0256 13.9736 24.0162C13.526 23.9972 13.2502 23.7145 13.2491 23.2741C13.2464 22.1642 13.2481 21.0543 13.2481 19.9443C13.2491 19.7783 13.2491 19.6122 13.2491 19.4461Z" fill="white"/>
<path d="M20.3543 21.6893C19.2961 21.6893 18.2384 21.6898 17.1802 21.6893C16.5481 21.6888 16.1617 21.3267 16.1547 20.7081C16.1456 19.9109 16.1472 19.1137 16.1542 18.317C16.1601 17.6952 16.5341 17.33 17.1716 17.3284C19.2875 17.3242 21.404 17.3311 23.5198 17.3242C24.2169 17.3221 24.5523 17.8456 24.5357 18.3385C24.5088 19.1347 24.5298 19.9324 24.5281 20.7297C24.5271 21.3083 24.1407 21.6882 23.5488 21.6893C22.4842 21.6909 21.4195 21.6893 20.3543 21.6893Z" fill="white"/>
<path d="M18.1497 16.0708C17.5187 16.0708 16.8871 16.0876 16.2571 16.0655C15.7725 16.0482 15.413 15.6677 15.4066 15.1911C15.3964 14.4201 15.3947 13.6491 15.4076 12.8782C15.4157 12.3837 15.8214 12.0021 16.3279 12C17.5428 11.9948 18.7572 11.9948 19.9721 12C20.4856 12.0021 20.8876 12.3921 20.894 12.8982C20.9037 13.656 20.9026 14.4138 20.8946 15.1711C20.8892 15.6672 20.5313 16.0492 20.022 16.0676C19.3985 16.0902 18.7738 16.0729 18.1497 16.0729C18.1503 16.0724 18.1497 16.0713 18.1497 16.0708Z" fill="white"/>
<path d="M9.72456 9.09401C8.52468 9.08455 7.53623 8.11022 7.54696 6.94827C7.55823 5.76845 8.55795 4.80989 9.76642 4.8204C10.9443 4.83091 11.937 5.82048 11.922 6.96982C11.9064 8.15489 10.9255 9.10347 9.72456 9.09401Z" fill="white"/>
<path d="M6.85156 10.6181C7.11182 10.256 7.44292 10.0248 7.83626 9.88812C9.08926 9.45193 10.4142 10.2245 10.6283 11.5104C10.6487 11.6339 10.6471 11.7622 10.6481 11.8878C10.6519 12.2761 10.6202 12.3203 10.2548 12.4632C10.1732 12.4948 10.0847 12.5142 10.0112 12.5583C9.82121 12.6713 9.79921 12.5667 9.78418 12.4133C9.74877 12.0454 9.7375 11.6733 9.58241 11.326C9.14561 10.3474 7.98919 9.99112 7.0544 10.5482C7.0045 10.5771 6.96157 10.6254 6.85156 10.6181Z" fill="white"/>
<path d="M6.84392 10.6733C6.84017 10.6706 6.82997 10.6643 6.82031 10.658C6.83319 10.648 6.845 10.6354 6.85949 10.6291C6.86432 10.627 6.88417 10.6407 6.88363 10.6459C6.88202 10.6633 6.87666 10.6827 6.84392 10.6733Z" fill="white"/>
<path d="M4.78638 6.0535C4.87385 6.40666 4.92 6.7698 4.99298 7.18602C4.59802 6.99578 4.24761 6.83707 3.9074 6.65891C3.75017 6.57693 3.6246 6.56905 3.46308 6.65524C3.12179 6.83759 2.76762 6.9963 2.3555 7.19495C2.44672 6.73564 2.5256 6.33676 2.60449 5.93841C2.61468 5.82385 2.52399 5.77129 2.45423 5.7077C2.15748 5.43548 1.8602 5.16483 1.53125 4.86475C1.99221 4.80011 2.40057 4.73074 2.81162 4.69028C2.96992 4.67504 3.04451 4.61092 3.10998 4.48217C3.28331 4.14005 3.46952 3.80371 3.67558 3.41797C3.843 3.71752 4.00667 3.97608 4.11077 4.26775C4.23742 4.63562 4.52558 4.72759 4.88833 4.7423C5.17757 4.75387 5.46413 4.81956 5.80971 4.87001C5.49042 5.16115 5.21245 5.42444 4.9216 5.67407C4.79604 5.78233 4.74237 5.87587 4.78638 6.0535Z" fill="white"/>
<path d="M17.2359 6.0535C17.3234 6.40666 17.3696 6.7698 17.4425 7.18602C17.0476 6.99578 16.6972 6.83707 16.357 6.65891C16.1997 6.57693 16.0742 6.56905 15.9126 6.65524C15.5713 6.83759 15.2172 6.9963 14.8051 7.19495C14.8963 6.73564 14.9752 6.33676 15.054 5.93841C15.0642 5.82385 14.9736 5.77129 14.9038 5.7077C14.6172 5.44494 14.3296 5.18322 14.0436 4.92046C14.0339 4.911 14.0366 4.88788 14.0312 4.85792C14.4418 4.80011 14.8501 4.73074 15.2612 4.69028C15.42 4.67504 15.4941 4.61092 15.5595 4.48217C15.7329 4.14005 15.9191 3.80371 16.1251 3.41797C16.2926 3.71752 16.4562 3.97608 16.5603 4.26775C16.687 4.63562 16.9751 4.72759 17.3379 4.7423C17.6271 4.75387 17.9137 4.81956 18.2593 4.87001C17.94 5.16115 17.662 5.42444 17.3717 5.67407C17.2456 5.78233 17.1919 5.87587 17.2359 6.0535Z" fill="white"/>
<path d="M10.8729 2.63553C10.9603 2.98869 11.0065 3.35183 11.0794 3.76858C10.684 3.57834 10.3335 3.4191 9.99333 3.24094C9.83664 3.15896 9.71054 3.15108 9.54955 3.23727C9.20826 3.41963 8.85356 3.57834 8.44197 3.77699C8.5332 3.31767 8.61208 2.91879 8.69096 2.52044C8.70062 2.40588 8.61047 2.35332 8.54071 2.28974C8.24396 2.01804 7.94613 1.74686 7.61719 1.44678C8.07814 1.38214 8.48651 1.31277 8.8981 1.27231C9.0564 1.25707 9.13099 1.19295 9.19646 1.0642C9.36978 0.722079 9.55545 0.385739 9.76151 0C9.92948 0.299552 10.0931 0.558639 10.1972 0.849782C10.3234 1.21765 10.6115 1.30962 10.9748 1.32434C11.2635 1.3359 11.5501 1.40159 11.8962 1.45204C11.5764 1.74318 11.2984 2.00647 11.0081 2.2561C10.882 2.36489 10.8288 2.45791 10.8729 2.63553Z" fill="white"/>
</g>
<defs>
<clipPath id="clip0_201_87">
<rect width="25" height="25" fill="white" transform="translate(0.53125)"/>
</clipPath>
</defs>
</svg>
