<svg width="26" height="25" viewBox="0 0 26 25" fill="none" xmlns="http://www.w3.org/2000/svg">
<g clip-path="url(#clip0_204_101)">
<path d="M0.541293 13.5373C0.541293 11.8602 0.546785 10.1826 0.535191 8.50548C0.53336 8.25962 0.604144 8.19861 0.840902 8.19983C2.33529 8.2102 3.83028 8.21081 5.32528 8.20227C5.54434 8.20105 5.62367 8.24376 5.6194 8.4829C5.60475 9.40777 5.60719 10.3332 5.62001 11.2581C5.62306 11.479 5.54984 11.5271 5.34359 11.5241C4.60158 11.5131 3.85896 11.5198 3.11696 11.521C2.57571 11.5217 2.2999 11.7254 2.30356 12.1201C2.30722 12.5033 2.57937 12.7027 3.1017 12.7027C3.85408 12.7034 4.60646 12.7082 5.35884 12.6985C5.54984 12.696 5.62306 12.7387 5.62001 12.9474C5.60841 13.8826 5.60719 14.8179 5.61879 15.7531C5.62184 15.98 5.53763 16.0166 5.33565 16.0142C4.53263 16.0038 3.72899 16.0099 2.92596 16.0124C2.65748 16.013 2.45428 16.1271 2.3481 16.3815C2.25779 16.598 2.29501 16.8024 2.43902 16.9824C2.57876 17.1562 2.77585 17.1916 2.98759 17.191C3.77048 17.1892 4.55398 17.202 5.33626 17.1868C5.57485 17.1819 5.62794 17.26 5.61879 17.4802C5.60231 17.8761 5.60903 18.2733 5.61574 18.6692C5.62245 19.0828 5.85433 19.3415 6.2058 19.3427C6.55423 19.344 6.79587 19.078 6.80197 18.6729C6.80807 18.2763 6.81967 17.8792 6.7977 17.4839C6.78366 17.2313 6.87703 17.1752 7.1089 17.188C7.44329 17.2063 7.78013 17.1977 8.11513 17.1886C8.50688 17.1782 8.74791 16.9421 8.7418 16.5919C8.7357 16.2607 8.49101 16.0234 8.12184 16.013C7.75633 16.0026 7.3896 16.0026 7.02409 16.0136C6.85079 16.0191 6.79831 15.9623 6.80014 15.7885C6.80746 14.8331 6.81051 13.8771 6.79831 12.9218C6.79587 12.7095 6.88984 12.6985 7.05398 12.6997C7.83687 12.7052 8.61976 12.7034 9.40265 12.7021C9.842 12.7015 10.1068 12.4819 10.1099 12.122C10.1129 11.748 9.84566 11.5217 9.39045 11.521C8.61793 11.5192 7.84481 11.5137 7.07229 11.5253C6.86177 11.5284 6.79648 11.4716 6.79892 11.2551C6.81051 10.3198 6.80685 9.38459 6.79953 8.44935C6.79831 8.2706 6.83614 8.20166 7.03385 8.20349C8.17249 8.21203 9.31173 8.21203 10.4504 8.20044C10.667 8.198 10.7036 8.28585 10.7006 8.47009C10.6926 8.93741 10.6945 9.40533 10.6999 9.87264C10.7048 10.3113 10.933 10.5626 11.3053 10.5516C11.658 10.5407 11.8728 10.2844 11.8752 9.8641C11.8776 9.41692 11.8904 8.96913 11.8703 8.52256C11.8593 8.27182 11.9289 8.19861 12.187 8.19922C14.8512 8.20898 17.5153 8.20532 20.1788 8.20532C20.7079 8.20532 21.2363 8.21264 21.7647 8.20166C21.9661 8.19739 22.0241 8.26572 22.0204 8.46521C22.0082 9.11555 22.021 9.76649 22.0125 10.4168C22.01 10.5986 22.0729 10.7084 22.2212 10.8164C24.3746 12.3837 25.4723 14.5299 25.5291 17.1654C25.6255 21.639 21.6372 25.3403 17.1833 24.9743C14.5827 24.7608 12.6007 23.5089 11.1539 21.3724C11.0111 21.1613 10.8665 21.0833 10.6139 21.0839C8.16333 21.093 5.71276 21.0906 3.26219 21.0881C1.6006 21.0863 0.542513 20.0217 0.541903 18.3556C0.541293 16.7493 0.541903 15.143 0.541293 13.5373ZM24.366 17.1898C24.3557 13.4971 21.3937 10.5419 17.7112 10.5498C14.031 10.5584 11.0752 13.5349 11.0874 17.2203C11.0996 20.8947 14.078 23.8395 17.7716 23.828C21.4121 23.8164 24.377 20.8325 24.366 17.1898Z" fill="white"/>
<path d="M11.2401 7.0342C7.78395 7.0342 4.32776 7.03115 0.871574 7.0403C0.609187 7.04091 0.521318 6.98844 0.535353 6.71086C0.577457 5.90069 0.470061 5.0832 0.590881 4.27669C0.770281 3.07913 1.81373 2.18415 3.02742 2.16036C3.53572 2.1506 4.04463 2.14267 4.55171 2.16402C4.80677 2.175 4.86718 2.07922 4.85009 1.85106C4.83362 1.62838 4.82508 1.39961 4.89098 1.18425C5.08624 0.544901 5.51094 0.140425 6.17729 0.0354936C6.50679 -0.0163622 6.84729 -0.0151421 7.17802 0.0641668C7.87487 0.231326 8.34167 0.854206 8.349 1.61984C8.35449 2.15853 8.35449 2.15792 8.89757 2.15792C10.575 2.15792 12.2519 2.15365 13.9293 2.16341C14.1563 2.16463 14.2332 2.10912 14.2155 1.87729C14.1917 1.5625 14.2088 1.24709 14.3473 0.951817C14.6176 0.375912 15.0716 0.0611165 15.7044 0.0202419C16.1321 -0.00721122 16.5666 -0.0120918 16.948 0.224615C17.4624 0.543681 17.7199 1.01465 17.7229 1.6235C17.7254 2.15792 17.7284 2.14999 18.2733 2.16036C18.8414 2.17134 19.4126 2.10363 19.9764 2.211C21.1126 2.42818 21.9681 3.40429 22.0072 4.56098C22.0328 5.31198 22.0041 6.0648 22.0206 6.81641C22.0267 7.09765 21.8497 7.03237 21.6996 7.03298C18.2135 7.03481 14.7268 7.0342 11.2401 7.0342ZM16.5678 2.76372C16.5678 2.3989 16.5739 2.03347 16.566 1.66865C16.5581 1.28369 16.4214 1.17693 15.9686 1.17632C15.5195 1.17571 15.3798 1.28247 15.3755 1.6717C15.3675 2.39158 15.3682 3.11146 15.3773 3.83134C15.3816 4.20287 15.5366 4.31573 15.9875 4.31573C16.4067 4.31512 16.5574 4.19372 16.5654 3.8289C16.5727 3.47323 16.5666 3.11817 16.5678 2.76372ZM7.18595 2.73627C7.18595 2.36168 7.18778 1.98649 7.18534 1.61191C7.18351 1.32762 7.03523 1.18364 6.75271 1.17754C6.65141 1.1751 6.55012 1.17449 6.44883 1.17876C6.15593 1.19157 6.01924 1.31725 6.01619 1.61008C6.00948 2.35985 6.00887 3.10963 6.01558 3.85879C6.01863 4.19799 6.16508 4.31329 6.55195 4.31451C7.03523 4.31634 7.1768 4.21934 7.18351 3.86062C7.19144 3.48604 7.18534 3.11085 7.18595 2.73627Z" fill="white"/>
<path d="M18.0649 15.0415C17.7397 15.0415 17.4138 15.0305 17.0892 15.0439C16.6023 15.0647 16.357 15.3203 16.3527 15.7851C16.3484 16.3141 16.5687 16.577 17.0733 16.6002C17.5096 16.6203 17.9478 16.6008 18.384 16.613C19.2548 16.6374 20.0108 17.1456 20.1835 17.9051C20.488 19.2418 19.9883 20.285 18.5439 20.4833C18.2669 20.5211 18.3114 20.6681 18.3041 20.8353C18.2828 21.3258 17.8892 21.6095 17.4852 21.424C17.246 21.3142 17.1258 21.1123 17.1508 20.8591C17.1813 20.5486 17.0489 20.4674 16.7682 20.5028C16.6285 20.5205 16.4833 20.5126 16.3417 20.5016C15.9994 20.476 15.7718 20.2277 15.7815 19.9013C15.7907 19.5908 16.0207 19.3553 16.3557 19.3498C16.9653 19.3394 17.5755 19.3461 18.1851 19.3467C18.3279 19.3467 18.4683 19.3418 18.6068 19.2985C18.9418 19.1942 19.0858 19.0051 19.0919 18.6512C19.101 18.1388 18.9991 17.9552 18.6391 17.8283C18.3621 17.7307 18.0747 17.7795 17.7921 17.7709C17.3168 17.7569 16.8366 17.8148 16.3753 17.6349C15.4996 17.2945 15.0993 16.5917 15.1878 15.5356C15.2568 14.7139 15.8456 14.0824 16.7347 13.9336C17.027 13.8848 17.1783 13.825 17.1563 13.4815C17.135 13.1399 17.4181 12.8885 17.7262 12.8946C18.0344 12.9007 18.3133 13.1582 18.2913 13.4913C18.2687 13.8305 18.4024 13.9116 18.702 13.8738C18.8417 13.8561 18.9875 13.8628 19.1279 13.8781C19.4482 13.9122 19.6765 14.1685 19.6704 14.4711C19.6642 14.7755 19.4281 15.0201 19.0998 15.0323C18.7544 15.0451 18.4085 15.0354 18.0631 15.0354C18.0649 15.0378 18.0649 15.0396 18.0649 15.0415Z" fill="white"/>
</g>
<defs>
<clipPath id="clip0_204_101">
<rect width="25" height="25" fill="white" transform="translate(0.53125)"/>
</clipPath>
</defs>
</svg>
