<svg width="26" height="25" viewBox="0 0 26 25" fill="none" xmlns="http://www.w3.org/2000/svg">
<g clip-path="url(#clip0_199_37)">
<path d="M6.27725 8.43745C4.36873 10.2104 2.17995 9.00182 1.69414 7.54032C1.46725 6.86147 1.47526 6.21192 1.73151 5.55703C2.31074 4.07689 2.98873 2.63935 3.32239 1.06603C3.47186 0.363232 4.09113 0.00650741 4.94262 0.00384529C7.31559 -0.00147896 9.69123 0.00118317 12.0642 0.00118317C14.7254 0.00118317 17.384 -0.00147896 20.0453 0.00118317C21.1343 0.00118317 21.6121 0.352583 21.8524 1.41211C22.162 2.7831 22.7599 4.04495 23.2671 5.34406C23.8036 6.72038 23.5206 7.95294 22.4663 8.76223C21.4306 9.55821 20.2134 9.51029 19.0256 8.60783C18.8655 8.48537 18.8014 8.4481 18.6092 8.58121C17.1598 9.58216 16.2202 9.59814 14.8295 8.63977C14.6 8.48005 14.5172 8.55458 14.3491 8.6797C13.188 9.53957 11.9387 9.56087 10.7643 8.73295C10.5481 8.58121 10.4199 8.504 10.153 8.68503C8.75966 9.63807 7.59853 9.55022 6.27725 8.43745Z" fill="white"/>
<path d="M12.4833 25.0004C9.77939 25.0004 7.07276 25.0004 4.36881 25.0004C3.31445 25.0004 2.92207 24.6223 2.92207 23.5974C2.9194 19.3646 2.92474 15.1345 2.91406 10.9018C2.91406 10.4865 2.96211 10.2522 3.43991 10.4891C3.49596 10.5184 3.56803 10.5104 3.63476 10.5184C4.64107 10.6435 4.64107 10.6435 4.64107 11.6498C4.64107 14.1708 4.65442 16.6919 4.62772 19.2129C4.62239 19.7107 4.76119 19.8332 5.24966 19.8332C10.1104 19.8145 14.9684 19.8119 19.8291 19.8358C20.3817 19.8385 20.4671 19.6468 20.4617 19.1623C20.4404 16.4869 20.4671 13.8115 20.4377 11.1387C20.4324 10.6435 20.5578 10.4891 21.0517 10.5317C21.4067 10.561 21.7723 10.4811 22.1354 10.4492C22.1487 10.8405 22.1727 11.2345 22.1727 11.6259C22.1754 15.5951 22.1754 19.5643 22.1727 23.5309C22.1727 24.6303 21.807 25.0004 20.726 25.0004C17.982 25.0004 15.2327 25.0004 12.4833 25.0004Z" fill="white"/>
<path d="M12.5202 18.6758C11.5299 18.6758 10.5423 18.6598 9.55201 18.6838C9.17831 18.6917 9.07688 18.5799 9.0662 18.2072C9.03417 17.1504 9.19433 16.1973 10.1713 15.5664C10.4729 15.3694 10.7291 15.3348 11.0761 15.5212C12.0478 16.0429 13.0594 16.0456 14.031 15.5185C14.3807 15.3295 14.6369 15.3774 14.9386 15.5664C15.8141 16.1201 16.3186 17.4831 16.0303 18.4734C15.9422 18.7743 15.726 18.6678 15.5525 18.6704C14.5408 18.6784 13.5319 18.6758 12.5202 18.6758Z" fill="white"/>
<path d="M10.4375 12.5704C10.4402 11.3964 11.3984 10.4647 12.5863 10.4807C13.7394 10.4966 14.6683 11.4337 14.6629 12.5784C14.6576 13.7152 13.718 14.6655 12.5782 14.6868C11.4225 14.7134 10.4348 13.7338 10.4375 12.5704Z" fill="white"/>
</g>
<defs>
<clipPath id="clip0_199_37">
<rect width="25" height="25" fill="white" transform="translate(0.53125)"/>
</clipPath>
</defs>
</svg>
