<svg width="24" height="24" viewBox="0 0 24 24" fill="none" xmlns="http://www.w3.org/2000/svg">
<g clip-path="url(#clip0_3594_31411)">
<path d="M14.4205 13.0126C14.3646 12.8625 14.3623 12.7113 14.4172 12.5601C14.4317 12.551 14.4609 12.5398 14.4597 12.533C14.4553 12.5048 14.4418 12.4777 14.4317 12.4506C14.4597 12.2001 14.6333 12.0805 14.8394 11.9902C14.9121 11.971 14.9525 11.944 14.8651 11.8842C14.2425 9.82144 15.9614 7.86028 18.1876 8.07242C20.2548 8.26989 21.3836 10.0291 21.0208 11.6291C20.9782 11.8176 21.0017 11.9507 21.1641 12.1155C21.6792 12.6402 21.4485 13.5824 20.7386 13.7934C20.434 13.8837 20.3265 14.0304 20.2559 14.3023C20.1148 14.8507 19.771 15.2626 19.3343 15.6034C19.3186 15.6135 19.2895 15.6259 19.2906 15.6316C19.2974 15.6598 19.3119 15.6869 19.3231 15.7139C19.3231 15.9035 19.3231 16.092 19.3231 16.2815C19.3097 16.2928 19.2828 16.3086 19.2839 16.3131C19.2951 16.3402 19.313 16.365 19.3287 16.391C20.4989 16.8559 21.6703 17.3197 22.8405 17.7868C23.4306 18.0227 23.7811 18.4379 23.7901 19.1014C23.7778 19.1127 23.7531 19.1285 23.7542 19.1341C23.7643 19.1612 23.7822 19.1849 23.7968 19.2097C23.8024 19.3226 23.808 19.4354 23.8136 19.5494C23.7263 19.5945 23.743 19.6317 23.8226 19.6645C23.9547 20.0301 23.9267 20.4103 23.9267 20.7884C23.7822 20.9486 23.7688 21.1032 23.9491 21.2476C23.9592 21.4304 23.9704 21.6143 23.9805 21.7971C23.8752 21.8163 23.8181 21.8807 23.8046 21.9867C19.8528 21.9833 15.8998 21.9811 11.948 21.9777C11.9357 21.8389 11.9961 21.6809 11.8427 21.5794C11.8002 20.6405 11.92 19.713 12.0544 18.7888C12.1216 18.3262 12.4273 18.0384 12.8416 17.8455C13.8674 17.3671 14.9334 16.9902 15.9961 16.6088C16.4944 16.4294 16.6579 15.8211 16.2783 15.4454C15.8976 15.0685 15.5997 14.6566 15.4978 14.1206C15.4653 13.9491 15.3657 13.8679 15.2011 13.8385C14.7912 13.7675 14.556 13.5045 14.4385 13.1164C14.4497 13.104 14.4721 13.0859 14.4698 13.0803C14.4586 13.0577 14.4385 13.0363 14.4205 13.0126Z" fill="#595B5F" fill-opacity="0.4"/>
<path d="M1.22062 14.8192C3.02801 14.8271 4.83541 14.8384 6.64168 14.8417C8.91491 14.8462 11.1893 14.8417 13.4625 14.8451C13.6641 14.8451 13.8724 14.7977 14.0672 14.8948C14.0896 14.9568 14.1075 15.0302 14.1859 14.9376C14.4144 14.985 14.4043 15.2175 14.5095 15.3608C14.6562 15.5628 14.6036 15.6666 14.3561 15.7524C13.8309 15.9352 13.3281 16.1823 12.8029 16.3639C11.5443 16.7984 10.7828 17.6413 10.6058 18.9886C10.5319 19.0202 10.5185 19.0563 10.598 19.1003C10.6081 19.3271 10.6092 19.5517 10.5353 19.7706C10.4468 19.7943 10.3931 19.8507 10.3763 19.9421C8.8858 19.9534 7.39532 20.047 5.90707 19.8936C5.89924 19.7243 5.89028 19.5562 5.88244 19.3869C5.87348 19.3621 5.8802 19.3429 5.90148 19.3271C5.98658 19.2673 6.0269 19.1895 6.00114 19.0834L5.99778 19.0902C6.11088 19.0315 6.12768 18.9333 6.10416 18.8193C6.33261 18.1897 6.56105 17.5612 6.81861 16.8537C6.51178 16.8537 6.24414 16.8537 5.9765 16.8537C4.41211 16.8537 2.84772 16.8525 1.28333 16.8548C0.707746 16.8559 0.271016 16.6528 0.0896052 16.057C0.101923 16.0446 0.126559 16.0243 0.125439 16.022C0.108642 15.9972 0.0884854 15.9769 0.0683286 15.9543C-0.0223769 15.8189 0.00337897 15.6655 0.00337897 15.5176C0.00225915 11.8075 0.00225915 8.09842 0.00337897 4.38937C0.00337897 4.12758 0.00113934 3.86466 0.161274 3.63559C0.276615 3.60851 0.30685 3.52275 0.30909 3.41781C0.550971 3.07591 0.909314 3.00143 1.29117 3.00143C6.73462 3.00031 12.1781 3.00031 17.6215 3.00031C17.7514 3.00031 17.8836 2.99128 17.9989 3.07139C18.065 3.18198 18.1658 3.18875 18.2766 3.16957C18.673 3.35349 18.8522 3.6796 18.8735 4.10614C18.7156 4.25734 18.7805 4.45368 18.7761 4.63084C18.7593 5.33271 18.7514 6.0357 18.7402 6.73757C18.6394 6.7229 18.5398 6.70823 18.439 6.69469C18.2072 6.47578 17.925 6.62247 17.6674 6.5841C17.663 6.02103 17.6249 5.4557 17.6618 4.89489C17.6943 4.40178 17.4939 4.29119 17.047 4.29797C15.5375 4.3194 14.0269 4.30586 12.5163 4.30586C9.01122 4.30586 5.50618 4.30586 2.00114 4.30586C1.22174 4.30586 1.22174 4.30586 1.22174 5.06753C1.22174 8.07359 1.22174 11.0796 1.22062 14.0857C1.22062 14.2922 1.20607 14.4976 1.19935 14.7041C1.112 14.7594 1.15343 14.7921 1.22062 14.8192Z" fill="#595B5F" fill-opacity="0.4"/>
<path d="M9.4314 13.8962C8.31382 13.8962 7.19624 13.8861 6.07866 13.9019C5.708 13.9075 5.59489 13.8127 5.65648 13.4144C5.87597 12.0039 6.78638 11.0899 8.13017 10.9681C8.33509 10.9489 8.37317 11.0922 8.46835 11.196C9.05178 11.8392 9.84797 11.8595 10.4079 11.2039C10.6095 10.9681 10.7606 10.9297 11.0148 11.0662C11.194 11.1621 11.3877 11.2468 11.5848 11.2908C12.8043 11.5616 13.166 12.4609 13.2701 13.5701C13.3071 13.9561 13.0529 13.8929 12.8401 13.894C11.7046 13.8985 10.568 13.8962 9.4314 13.8962Z" fill="#292D32"/>
<path d="M7.77744 8.00909C7.76736 6.88182 8.53332 6.25781 9.70353 6.33793C10.6083 6.39999 11.2511 7.2147 11.1033 8.13434C11.0328 8.57667 10.9589 9.02239 10.8346 9.45231C10.6531 10.0808 10.1067 10.4532 9.44598 10.4555C8.82 10.4577 8.278 10.091 8.06972 9.50422C8.00141 9.31126 7.96221 9.10702 7.92414 8.90504C7.86367 8.57329 7.8144 8.24041 7.77744 8.00909Z" fill="#292D32"/>
<path d="M18.7422 6.73983C18.7534 6.03796 18.7612 5.33497 18.778 4.6331C18.7825 4.45482 18.7176 4.25848 18.8754 4.1084C18.8743 4.97162 18.8732 5.83485 18.8721 6.69808C18.8307 6.71275 18.7881 6.72741 18.7467 6.74208L18.7422 6.73983Z" fill="#595B5F" fill-opacity="0.4"/>
<path d="M23.9494 21.2498C23.7691 21.1054 23.7826 20.9508 23.927 20.7905C23.9673 20.9417 24.0076 21.0941 23.9494 21.2498Z" fill="#595B5F" fill-opacity="0.4"/>
<path d="M17.6699 6.58544C17.9264 6.62493 18.2097 6.47824 18.4415 6.69602C18.1839 6.66217 17.8984 6.82466 17.6699 6.58544Z" fill="#595B5F" fill-opacity="0.4"/>
<path d="M5.88325 19.3857C5.89109 19.555 5.90005 19.7231 5.90789 19.8924C5.65481 19.7355 5.76903 19.5606 5.88325 19.3857Z" fill="#595B5F" fill-opacity="0.4"/>
<path d="M10.377 19.941C10.3938 19.8496 10.4475 19.7932 10.536 19.7695C10.5528 19.8925 10.5292 19.9772 10.377 19.941Z" fill="#595B5F" fill-opacity="0.4"/>
<path d="M11.8435 21.583C11.9969 21.6834 11.9364 21.8425 11.9487 21.9813C11.7035 21.9046 11.8636 21.7195 11.8435 21.583Z" fill="#595B5F" fill-opacity="0.4"/>
<path d="M23.8066 21.9889C23.8201 21.8828 23.8772 21.8185 23.9825 21.7993C24.0351 21.9674 23.9713 22.0261 23.8066 21.9889Z" fill="#595B5F" fill-opacity="0.4"/>
<path d="M18.2777 3.17074C18.1669 3.18992 18.0649 3.18202 18 3.07257C18.1064 3.06354 18.2094 3.06692 18.2777 3.17074Z" fill="#595B5F" fill-opacity="0.4"/>
<path d="M0.308806 3.41797C0.307686 3.52404 0.277451 3.6098 0.162109 3.63575C0.177787 3.54096 0.211381 3.45746 0.308806 3.41797Z" fill="#595B5F" fill-opacity="0.4"/>
<path d="M6.10443 18.8193C6.12795 18.9333 6.11115 19.0315 5.99805 19.0902C6.00141 18.9863 6.01036 18.8859 6.10443 18.8193Z" fill="#595B5F" fill-opacity="0.4"/>
<path d="M6.00156 19.082C6.02732 19.1881 5.987 19.266 5.9019 19.3258C5.89406 19.2276 5.91533 19.1418 6.00156 19.082Z" fill="#595B5F" fill-opacity="0.4"/>
<path d="M18.7461 6.74079C18.7875 6.72612 18.8301 6.71145 18.8715 6.69678C18.8682 6.82203 18.8189 6.81413 18.7461 6.74079Z" fill="#595B5F" fill-opacity="0.4"/>
<path d="M14.8636 11.8853C14.951 11.9439 14.9107 11.9721 14.8379 11.9913C14.8435 11.9552 14.8524 11.9191 14.8636 11.8853Z" fill="#595B5F" fill-opacity="0.4"/>
<path d="M14.4306 12.4507C14.4407 12.4778 14.4541 12.5048 14.4586 12.5331C14.4597 12.5398 14.4317 12.5511 14.416 12.5601C14.4216 12.524 14.4261 12.4868 14.4306 12.4507Z" fill="#595B5F" fill-opacity="0.4"/>
<path d="M14.4199 13.0127C14.4378 13.0364 14.4569 13.0578 14.4703 13.0838C14.4726 13.0894 14.4502 13.1075 14.439 13.1199C14.4334 13.0838 14.4266 13.0488 14.4199 13.0127Z" fill="#595B5F" fill-opacity="0.4"/>
<path d="M1.22103 14.819C1.15384 14.792 1.11241 14.7604 1.20088 14.7051C1.20759 14.7423 1.21431 14.7807 1.22103 14.819Z" fill="#595B5F" fill-opacity="0.4"/>
<path d="M14.1871 14.9374C14.1098 15.0299 14.0908 14.9566 14.0684 14.8945C14.1087 14.9092 14.1479 14.9227 14.1871 14.9374Z" fill="#595B5F" fill-opacity="0.4"/>
<path d="M19.3255 15.7161C19.3143 15.689 19.2997 15.6619 19.293 15.6337C19.2919 15.628 19.321 15.6145 19.3367 15.6055C19.3322 15.6427 19.3288 15.6788 19.3255 15.7161Z" fill="#595B5F" fill-opacity="0.4"/>
<path d="M0.0675419 15.9531C0.0865789 15.9757 0.107855 15.9971 0.124653 16.0208C0.126892 16.0231 0.101137 16.0445 0.0888185 16.0558C0.0574636 16.0265 0.0507446 15.9926 0.0675419 15.9531Z" fill="#595B5F" fill-opacity="0.4"/>
<path d="M19.3301 16.3931C19.3144 16.3672 19.2965 16.3424 19.2853 16.3153C19.283 16.3108 19.3099 16.2938 19.3245 16.2837C19.3402 16.3198 19.3424 16.3559 19.3301 16.3931Z" fill="#595B5F" fill-opacity="0.4"/>
<path d="M10.5988 19.099C10.5193 19.0561 10.5327 19.02 10.6066 18.9873C10.6044 19.0245 10.601 19.0618 10.5988 19.099Z" fill="#595B5F" fill-opacity="0.4"/>
<path d="M23.8005 19.2118C23.786 19.187 23.768 19.1633 23.758 19.1362C23.7557 19.1306 23.7804 19.1148 23.7938 19.1035C23.8151 19.1385 23.8173 19.1746 23.8005 19.2118Z" fill="#595B5F" fill-opacity="0.4"/>
<path d="M23.8244 19.6669C23.746 19.6341 23.7292 19.5969 23.8154 19.5518C23.8188 19.5901 23.821 19.6285 23.8244 19.6669Z" fill="#595B5F" fill-opacity="0.4"/>
</g>
<defs>
<clipPath id="clip0_3594_31411">
<rect width="24" height="24" fill="white"/>
</clipPath>
</defs>
</svg>
