<svg width="24" height="24" viewBox="0 0 24 24" fill="none" xmlns="http://www.w3.org/2000/svg">
<g clip-path="url(#clip0_3527_30050)">
<path d="M10.8149 8.77671C10.1903 8.78143 9.61613 8.71284 9.05215 8.56443C8.95772 8.53976 8.88001 8.55427 8.79467 8.60072C8.05237 9.00386 7.29047 9.36709 6.51258 9.69621C6.45738 9.71943 6.40037 9.74375 6.34226 9.75318C6.2315 9.77132 6.13926 9.73286 6.07861 9.63489C6.01833 9.538 6.04665 9.452 6.11275 9.36927C6.30922 9.12433 6.50169 8.8765 6.67092 8.61088C6.83035 8.36086 6.96181 8.09742 7.08456 7.82818C7.13358 7.72041 7.11397 7.66307 7.02282 7.5905C6.55943 7.22292 6.19192 6.77732 6.01397 6.20617C5.72453 5.27832 5.99654 4.47929 6.63315 3.78875C7.2625 3.1062 8.06508 2.70487 8.95119 2.48026C10.6903 2.0401 12.3761 2.16312 13.9729 3.03581C14.3303 3.23103 14.6488 3.48068 14.9269 3.77932C15.9282 4.8534 15.9075 6.24862 14.8739 7.29331C14.2355 7.93849 13.4478 8.3166 12.5835 8.54956C11.9919 8.70922 11.3876 8.78614 10.8149 8.77671ZM10.7851 6.16299C11.1476 6.16262 11.441 5.86943 11.4414 5.50656C11.4417 5.14878 11.1421 4.85268 10.7808 4.85377C10.4191 4.85449 10.1231 5.15132 10.1249 5.51092C10.1264 5.87269 10.4205 6.16299 10.7851 6.16299ZM8.5499 6.16299C8.91923 6.16734 9.21085 5.88539 9.2152 5.51999C9.21992 5.15422 8.93339 4.85812 8.57132 4.8534C8.2078 4.84905 7.90929 5.1368 7.90166 5.49822C7.8944 5.85709 8.18856 6.15863 8.5499 6.16299ZM13.0058 6.16299C13.3701 6.16226 13.6672 5.86725 13.6646 5.50838C13.6621 5.14841 13.3661 4.85485 13.0044 4.85377C12.6427 4.85268 12.35 5.14551 12.3493 5.50946C12.3485 5.87233 12.6412 6.16371 13.0058 6.16299Z" fill="#292D32"/>
<path opacity="0.4" d="M18.7823 18.0112C18.4235 18.2736 18.0891 18.512 17.7622 18.7598C17.4717 18.9801 17.1507 19.0871 16.7857 19.0849C15.9991 19.0802 15.2125 19.0882 14.4263 19.082C13.887 19.0777 13.4439 18.6785 13.3829 18.1589C13.319 17.6186 13.648 17.132 14.1724 16.9908C14.2904 16.9589 14.4114 16.9574 14.5323 16.9574C15.1555 16.9571 15.7787 16.9545 16.4018 16.9596C16.5348 16.9607 16.6448 16.9288 16.7552 16.8544C17.577 16.3014 18.4028 15.7542 19.2258 15.203C19.5232 15.0038 19.8453 14.8855 20.2048 14.8608C20.6511 14.8296 21.0964 14.7795 21.5427 14.7516C22.6122 14.6848 23.531 15.4552 23.6243 16.5187C23.7336 17.7645 23.8172 19.0127 23.9123 20.2599C23.9403 20.6275 23.9664 20.9951 23.9976 21.3623C24.0212 21.6391 23.9174 21.7632 23.6454 21.7632C22.2298 21.764 20.8138 21.764 19.3983 21.7636C19.152 21.7636 19.0558 21.6758 19.0376 21.4356C18.9552 20.3328 18.8735 19.2301 18.7918 18.1277C18.7892 18.0983 18.7871 18.07 18.7823 18.0112Z" fill="#292D32"/>
<path d="M5.21682 18.0106C5.13075 19.1721 5.04722 20.2984 4.96297 21.4251C4.94409 21.6777 4.85075 21.7633 4.594 21.7637C3.18422 21.7641 1.77481 21.7641 0.365032 21.7633C0.0810422 21.7633 -0.0191893 21.6421 0.00296335 21.3544C0.0952054 20.1555 0.179095 18.9562 0.275695 17.7577C0.314916 17.2703 0.308016 16.7772 0.410426 16.2975C0.604352 15.3889 1.37497 14.7459 2.30175 14.7535C2.86247 14.7582 3.42391 14.8253 3.98281 14.883C4.26789 14.9124 4.52573 15.0372 4.76505 15.1976C5.59305 15.7525 6.42395 16.3029 7.25123 16.8588C7.35654 16.9296 7.46004 16.9612 7.58751 16.9601C8.24083 16.955 8.89451 16.9525 9.54784 16.9593C10.0886 16.9652 10.4993 17.307 10.6075 17.8237C10.7049 18.2893 10.4499 18.7835 10.0054 18.9903C9.86633 19.0549 9.71961 19.0847 9.56599 19.0843C8.76124 19.0836 7.95684 19.0839 7.15209 19.0836C6.8267 19.0836 6.53617 18.9801 6.27542 18.7875C5.93115 18.5335 5.58579 18.2813 5.21682 18.0106Z" fill="#292D32"/>
<path opacity="0.4" d="M11.9984 21.7633C10.2378 21.7633 8.47724 21.7611 6.71701 21.7669C6.54996 21.7676 6.49948 21.7237 6.5042 21.5553C6.51619 21.1384 6.51256 20.7211 6.50566 20.3042C6.50348 20.1685 6.54924 20.1289 6.6836 20.1289C10.2287 20.1318 13.7739 20.1322 17.3194 20.1289C17.457 20.1289 17.4966 20.1743 17.4948 20.3067C17.4883 20.7298 17.4854 21.1533 17.4955 21.576C17.4992 21.7313 17.4458 21.7665 17.2991 21.7662C15.5312 21.7618 13.7648 21.7633 11.9984 21.7633Z" fill="#292D32"/>
<path opacity="0.4" d="M9.89258 9.54057C11.2163 9.68572 12.4794 9.554 13.6905 9.05542C14.6136 8.6755 15.4108 8.12576 15.9678 7.27411C16.1309 7.02482 16.2547 6.75739 16.3444 6.47435C16.368 6.39924 16.38 6.34735 16.4697 6.41884C16.9832 6.82561 17.3704 7.31112 17.4546 7.98642C17.5334 8.61962 17.2985 9.14577 16.8892 9.60879C16.7366 9.78151 16.5689 9.94226 16.3717 10.0613C16.2442 10.1382 16.2584 10.2064 16.3132 10.3193C16.526 10.7569 16.8035 11.151 17.1103 11.5258C17.191 11.6245 17.2625 11.7243 17.171 11.8484C17.0769 11.9765 16.9509 11.9776 16.8144 11.9192C16.1037 11.6151 15.4013 11.2936 14.7226 10.9235C14.5809 10.8462 14.4484 10.8353 14.2919 10.856C12.9507 11.0327 11.6764 10.8596 10.5205 10.1059C10.2884 9.95424 10.0796 9.77462 9.89258 9.54057Z" fill="#292D32"/>
<path d="M5.90185 11.9946C5.90148 13.1986 4.91442 14.1798 3.70692 14.1769C2.5016 14.174 1.51381 13.1863 1.51563 11.9863C1.51744 10.775 2.51032 9.78948 3.72472 9.79347C4.92822 9.79746 5.90221 10.7823 5.90185 11.9946Z" fill="#292D32"/>
<path opacity="0.4" d="M18.0977 11.9552C18.0969 10.7451 19.0742 9.76389 20.2853 9.75881C21.4863 9.75373 22.4824 10.7462 22.4839 11.9487C22.485 13.1552 21.499 14.1422 20.2922 14.1422C19.0785 14.1422 18.098 13.165 18.0977 11.9552Z" fill="#292D32"/>
</g>
<defs>
<clipPath id="clip0_3527_30050">
<rect width="24" height="24" fill="white"/>
</clipPath>
</defs>
</svg>
