<svg width="20" height="30" viewBox="0 0 20 30" fill="none" xmlns="http://www.w3.org/2000/svg">
<path d="M12 14.5C12 13.126 10.874 12 9.5 12C8.12595 12 7 13.126 7 14.5C7 15.874 8.12595 17 9.5 17C10.874 17 12 15.874 12 14.5Z" fill="#636B7B"/>
<path d="M12 7.5C12 6.12595 10.874 5 9.5 5C8.12595 5 7 6.12595 7 7.5C7 8.87405 8.12595 10 9.5 10C10.874 10 12 8.87405 12 7.5Z" fill="#636B7B"/>
<path d="M12 21.5C12 20.126 10.874 19 9.5 19C8.12595 19 7 20.126 7 21.5C7 22.874 8.12595 24 9.5 24C10.874 24 12 22.874 12 21.5Z" fill="#636B7B"/>
</svg>
