<svg width="25" height="47" viewBox="0 0 25 47" fill="none" xmlns="http://www.w3.org/2000/svg">
<path d="M23.075 46.8995C22.5583 46.8995 22.125 46.7245 21.775 46.3745C21.425 46.0245 21.25 45.5912 21.25 45.0745C21.25 44.5579 21.425 44.1245 21.775 43.7745C22.125 43.4245 22.5583 43.2495 23.075 43.2495C23.575 43.2495 24 43.4245 24.35 43.7745C24.7 44.1245 24.875 44.5579 24.875 45.0745C24.875 45.5912 24.7 46.0245 24.35 46.3745C24 46.7245 23.575 46.8995 23.075 46.8995Z" fill="#636B7B"/>
<path d="M12.45 46.8995C11.9333 46.8995 11.5 46.7245 11.15 46.3745C10.8 46.0245 10.625 45.5912 10.625 45.0745C10.625 44.5579 10.8 44.1245 11.15 43.7745C11.5 43.4245 11.9333 43.2495 12.45 43.2495C12.95 43.2495 13.375 43.4245 13.725 43.7745C14.075 44.1245 14.25 44.5579 14.25 45.0745C14.25 45.5912 14.075 46.0245 13.725 46.3745C13.375 46.7245 12.95 46.8995 12.45 46.8995Z" fill="#636B7B"/>
<path d="M1.825 46.8995C1.30833 46.8995 0.875 46.7245 0.525 46.3745C0.175 46.0245 0 45.5912 0 45.0745C0 44.5579 0.175 44.1245 0.525 43.7745C0.875 43.4245 1.30833 43.2495 1.825 43.2495C2.325 43.2495 2.75 43.4245 3.1 43.7745C3.45 44.1245 3.625 44.5579 3.625 45.0745C3.625 45.5912 3.45 46.0245 3.1 46.3745C2.75 46.7245 2.325 46.8995 1.825 46.8995Z" fill="#636B7B"/>
<path d="M23.075 38.2496C22.5583 38.2496 22.125 38.0746 21.775 37.7246C21.425 37.3746 21.25 36.9413 21.25 36.4246C21.25 35.908 21.425 35.4746 21.775 35.1246C22.125 34.7746 22.5583 34.5996 23.075 34.5996C23.575 34.5996 24 34.7746 24.35 35.1246C24.7 35.4746 24.875 35.908 24.875 36.4246C24.875 36.9413 24.7 37.3746 24.35 37.7246C24 38.0746 23.575 38.2496 23.075 38.2496Z" fill="#636B7B"/>
<path d="M12.45 38.2496C11.9333 38.2496 11.5 38.0746 11.15 37.7246C10.8 37.3746 10.625 36.9413 10.625 36.4246C10.625 35.908 10.8 35.4746 11.15 35.1246C11.5 34.7746 11.9333 34.5996 12.45 34.5996C12.95 34.5996 13.375 34.7746 13.725 35.1246C14.075 35.4746 14.25 35.908 14.25 36.4246C14.25 36.9413 14.075 37.3746 13.725 37.7246C13.375 38.0746 12.95 38.2496 12.45 38.2496Z" fill="#636B7B"/>
<path d="M1.825 38.2496C1.30833 38.2496 0.875 38.0746 0.525 37.7246C0.175 37.3746 0 36.9413 0 36.4246C0 35.908 0.175 35.4746 0.525 35.1246C0.875 34.7746 1.30833 34.5996 1.825 34.5996C2.325 34.5996 2.75 34.7746 3.1 35.1246C3.45 35.4746 3.625 35.908 3.625 36.4246C3.625 36.9413 3.45 37.3746 3.1 37.7246C2.75 38.0746 2.325 38.2496 1.825 38.2496Z" fill="#636B7B"/>
<path d="M23.075 29.5997C22.5583 29.5997 22.125 29.4247 21.775 29.0747C21.425 28.7247 21.25 28.2914 21.25 27.7747C21.25 27.2581 21.425 26.8247 21.775 26.4747C22.125 26.1247 22.5583 25.9497 23.075 25.9497C23.575 25.9497 24 26.1247 24.35 26.4747C24.7 26.8247 24.875 27.2581 24.875 27.7747C24.875 28.2914 24.7 28.7247 24.35 29.0747C24 29.4247 23.575 29.5997 23.075 29.5997Z" fill="#636B7B"/>
<path d="M12.45 29.5997C11.9333 29.5997 11.5 29.4247 11.15 29.0747C10.8 28.7247 10.625 28.2914 10.625 27.7747C10.625 27.2581 10.8 26.8247 11.15 26.4747C11.5 26.1247 11.9333 25.9497 12.45 25.9497C12.95 25.9497 13.375 26.1247 13.725 26.4747C14.075 26.8247 14.25 27.2581 14.25 27.7747C14.25 28.2914 14.075 28.7247 13.725 29.0747C13.375 29.4247 12.95 29.5997 12.45 29.5997Z" fill="#636B7B"/>
<path d="M1.825 29.5997C1.30833 29.5997 0.875 29.4247 0.525 29.0747C0.175 28.7247 0 28.2914 0 27.7747C0 27.2581 0.175 26.8247 0.525 26.4747C0.875 26.1247 1.30833 25.9497 1.825 25.9497C2.325 25.9497 2.75 26.1247 3.1 26.4747C3.45 26.8247 3.625 27.2581 3.625 27.7747C3.625 28.2914 3.45 28.7247 3.1 29.0747C2.75 29.4247 2.325 29.5997 1.825 29.5997Z" fill="#636B7B"/>
<path d="M23.075 20.9498C22.5583 20.9498 22.125 20.7748 21.775 20.4248C21.425 20.0748 21.25 19.6415 21.25 19.1248C21.25 18.6081 21.425 18.1748 21.775 17.8248C22.125 17.4748 22.5583 17.2998 23.075 17.2998C23.575 17.2998 24 17.4748 24.35 17.8248C24.7 18.1748 24.875 18.6081 24.875 19.1248C24.875 19.6415 24.7 20.0748 24.35 20.4248C24 20.7748 23.575 20.9498 23.075 20.9498Z" fill="#636B7B"/>
<path d="M12.45 20.9498C11.9333 20.9498 11.5 20.7748 11.15 20.4248C10.8 20.0748 10.625 19.6415 10.625 19.1248C10.625 18.6081 10.8 18.1748 11.15 17.8248C11.5 17.4748 11.9333 17.2998 12.45 17.2998C12.95 17.2998 13.375 17.4748 13.725 17.8248C14.075 18.1748 14.25 18.6081 14.25 19.1248C14.25 19.6415 14.075 20.0748 13.725 20.4248C13.375 20.7748 12.95 20.9498 12.45 20.9498Z" fill="#636B7B"/>
<path d="M1.825 20.9498C1.30833 20.9498 0.875 20.7748 0.525 20.4248C0.175 20.0748 0 19.6415 0 19.1248C0 18.6081 0.175 18.1748 0.525 17.8248C0.875 17.4748 1.30833 17.2998 1.825 17.2998C2.325 17.2998 2.75 17.4748 3.1 17.8248C3.45 18.1748 3.625 18.6081 3.625 19.1248C3.625 19.6415 3.45 20.0748 3.1 20.4248C2.75 20.7748 2.325 20.9498 1.825 20.9498Z" fill="#636B7B"/>
<path d="M23.075 12.2999C22.5583 12.2999 22.125 12.1249 21.775 11.7749C21.425 11.4249 21.25 10.9916 21.25 10.4749C21.25 9.95823 21.425 9.5249 21.775 9.1749C22.125 8.8249 22.5583 8.6499 23.075 8.6499C23.575 8.6499 24 8.8249 24.35 9.1749C24.7 9.5249 24.875 9.95823 24.875 10.4749C24.875 10.9916 24.7 11.4249 24.35 11.7749C24 12.1249 23.575 12.2999 23.075 12.2999Z" fill="#636B7B"/>
<path d="M12.45 12.2999C11.9333 12.2999 11.5 12.1249 11.15 11.7749C10.8 11.4249 10.625 10.9916 10.625 10.4749C10.625 9.95823 10.8 9.5249 11.15 9.1749C11.5 8.8249 11.9333 8.6499 12.45 8.6499C12.95 8.6499 13.375 8.8249 13.725 9.1749C14.075 9.5249 14.25 9.95823 14.25 10.4749C14.25 10.9916 14.075 11.4249 13.725 11.7749C13.375 12.1249 12.95 12.2999 12.45 12.2999Z" fill="#636B7B"/>
<path d="M1.825 12.2999C1.30833 12.2999 0.875 12.1249 0.525 11.7749C0.175 11.4249 0 10.9916 0 10.4749C0 9.95823 0.175 9.5249 0.525 9.1749C0.875 8.8249 1.30833 8.6499 1.825 8.6499C2.325 8.6499 2.75 8.8249 3.1 9.1749C3.45 9.5249 3.625 9.95823 3.625 10.4749C3.625 10.9916 3.45 11.4249 3.1 11.7749C2.75 12.1249 2.325 12.2999 1.825 12.2999Z" fill="#636B7B"/>
<path d="M23.075 3.65C22.5583 3.65 22.125 3.475 21.775 3.125C21.425 2.775 21.25 2.34167 21.25 1.825C21.25 1.30833 21.425 0.875 21.775 0.525C22.125 0.175 22.5583 0 23.075 0C23.575 0 24 0.175 24.35 0.525C24.7 0.875 24.875 1.30833 24.875 1.825C24.875 2.34167 24.7 2.775 24.35 3.125C24 3.475 23.575 3.65 23.075 3.65Z" fill="#636B7B"/>
<path d="M12.45 3.65C11.9333 3.65 11.5 3.475 11.15 3.125C10.8 2.775 10.625 2.34167 10.625 1.825C10.625 1.30833 10.8 0.875 11.15 0.525C11.5 0.175 11.9333 0 12.45 0C12.95 0 13.375 0.175 13.725 0.525C14.075 0.875 14.25 1.30833 14.25 1.825C14.25 2.34167 14.075 2.775 13.725 3.125C13.375 3.475 12.95 3.65 12.45 3.65Z" fill="#636B7B"/>
<path d="M1.825 3.65C1.30833 3.65 0.875 3.475 0.525 3.125C0.175 2.775 0 2.34167 0 1.825C0 1.30833 0.175 0.875 0.525 0.525C0.875 0.175 1.30833 0 1.825 0C2.325 0 2.75 0.175 3.1 0.525C3.45 0.875 3.625 1.30833 3.625 1.825C3.625 2.34167 3.45 2.775 3.1 3.125C2.75 3.475 2.325 3.65 1.825 3.65Z" fill="#636B7B"/>
</svg>
