<svg width="20" height="20" viewBox="0 0 20 20" fill="none" xmlns="http://www.w3.org/2000/svg">
<path d="M13.9592 2.9665V1.6665C13.9592 1.32484 13.6758 1.0415 13.3342 1.0415C12.9925 1.0415 12.7092 1.32484 12.7092 1.6665V2.9165H7.2925V1.6665C7.2925 1.32484 7.00917 1.0415 6.6675 1.0415C6.32583 1.0415 6.0425 1.32484 6.0425 1.6665V2.9665C3.7925 3.17484 2.70084 4.5165 2.53418 6.50817C2.51751 6.74984 2.71751 6.94983 2.95084 6.94983H17.0508C17.2925 6.94983 17.4925 6.7415 17.4675 6.50817C17.3008 4.5165 16.2092 3.17484 13.9592 2.9665Z" fill="#292D32"/>
<path opacity="0.4" d="M16.6667 8.19971C17.125 8.19971 17.5 8.57471 17.5 9.03304V14.1664C17.5 16.6664 16.25 18.333 13.3333 18.333H6.66667C3.75 18.333 2.5 16.6664 2.5 14.1664V9.03304C2.5 8.57471 2.875 8.19971 3.33333 8.19971H16.6667Z" fill="#595B5F"/>
<path d="M12.3658 12.4915L11.9491 12.9165H11.9408L9.4158 15.4415C9.30747 15.5498 9.08247 15.6665 8.92413 15.6832L7.79913 15.8498C7.3908 15.9082 7.10748 15.6165 7.16581 15.2165L7.32415 14.0832C7.34915 13.9248 7.45746 13.7082 7.5658 13.5915L10.0991 11.0665L10.5158 10.6415C10.7908 10.3665 11.0991 10.1665 11.4325 10.1665C11.7158 10.1665 12.0241 10.2998 12.3658 10.6415C13.1158 11.3915 12.8741 11.9832 12.3658 12.4915Z" fill="#292D32"/>
</svg>
