<svg width="20" height="20" viewBox="0 0 20 20" fill="none" xmlns="http://www.w3.org/2000/svg">
<path opacity="0.4" d="M5.60822 16.4165C6.29155 15.6831 7.3332 15.7415 7.9332 16.5415L8.77488 17.6665C9.44988 18.5581 10.5415 18.5581 11.2165 17.6665L12.0582 16.5415C12.6582 15.7415 13.6999 15.6831 14.3832 16.4165C15.8666 17.9998 17.0749 17.4748 17.0749 15.2581V5.87479C17.0749 2.51645 16.2915 1.6748 13.1415 1.6748H6.84154C3.69154 1.6748 2.9082 2.51645 2.9082 5.87479V15.2581C2.91654 17.4748 4.13322 17.9915 5.60822 16.4165Z" fill="#595B5F"/>
<path d="M13.0504 11.2252L12.4337 10.6085C12.7504 10.1252 12.9421 9.54184 12.9421 8.91684C12.9421 7.21684 11.5587 5.8335 9.85871 5.8335C8.15871 5.8335 6.77539 7.21684 6.77539 8.91684C6.77539 10.6168 8.15871 12.0002 9.85871 12.0002C10.4837 12.0002 11.067 11.8085 11.5504 11.4918L12.1671 12.1085C12.2921 12.2335 12.4504 12.2918 12.6087 12.2918C12.7671 12.2918 12.9254 12.2335 13.0504 12.1085C13.2921 11.8668 13.2921 11.4668 13.0504 11.2252Z" fill="#292D32"/>
</svg>
