<svg width="24" height="24" viewBox="0 0 24 24" fill="none" xmlns="http://www.w3.org/2000/svg">
<path d="M21.6702 6.95C21.0302 4.77999 19.2202 2.97 17.0502 2.33C15.4002 1.85 14.2602 1.89 13.4702 2.48C12.5202 3.19 12.4102 4.47 12.4102 5.38V7.87C12.4102 10.33 13.5302 11.58 15.7302 11.58H18.6002C19.5002 11.58 20.7902 11.47 21.5002 10.52C22.1102 9.74 22.1602 8.6 21.6702 6.95Z" fill="#292D32"/>
<path opacity="0.4" d="M18.9094 13.36C18.6494 13.06 18.2694 12.89 17.8794 12.89H14.2994C12.5394 12.89 11.1094 11.46 11.1094 9.7V6.12C11.1094 5.73 10.9394 5.35 10.6394 5.09C10.3494 4.83 9.94941 4.71 9.56941 4.76C7.21941 5.06 5.05941 6.35 3.64941 8.29C2.22941 10.24 1.70941 12.62 2.15941 15C2.80941 18.44 5.55941 21.19 9.00941 21.84C9.55941 21.95 10.1094 22 10.6594 22C12.4694 22 14.2194 21.44 15.7094 20.35C17.6494 18.94 18.9394 16.78 19.2394 14.43C19.2894 14.04 19.1694 13.65 18.9094 13.36Z" fill="#595B5F"/>
</svg>
