<svg width="25" height="25" viewBox="0 0 25 25" fill="none" xmlns="http://www.w3.org/2000/svg">
<path d="M24.9675 16.6309C24.9675 18.2309 24.973 19.7846 24.9634 21.339C24.9613 21.6524 24.779 21.8698 24.4615 21.9475C24.3407 21.9768 24.2123 21.9897 24.0873 21.9897C20.5554 21.9918 17.0235 21.9918 13.4917 21.9897C13.3667 21.9897 13.239 21.9768 13.1168 21.9509C12.7951 21.8821 12.6094 21.6763 12.608 21.3539C12.6025 19.8214 12.6073 18.2888 12.6101 16.7562C12.6101 16.7269 12.6294 16.6983 12.6508 16.6377C13.3135 17.1883 14.0446 17.5903 14.8572 17.8057C15.5952 18.0012 16.3511 18.1396 17.105 18.2656C17.3784 18.3113 17.5261 18.3719 17.5841 18.6697C17.6821 19.174 18.1958 19.5195 18.7688 19.529C19.3273 19.5386 19.8809 19.1951 19.9659 18.6929C20.0287 18.3181 20.2448 18.2984 20.5299 18.2684C21.7608 18.1368 22.9468 17.8445 24.0341 17.2414C24.3414 17.0704 24.6244 16.8571 24.9675 16.6309Z" fill="white"/>
<path d="M20.1627 17.6452C19.9998 16.6966 19.6167 16.4377 18.4928 16.4765C17.8935 16.4969 17.489 16.9153 17.4117 17.6459C17.0796 17.6009 16.7441 17.5709 16.4148 17.5089C15.3261 17.3044 14.2967 16.9712 13.351 16.36C12.5494 15.8421 12.5232 15.1272 12.6233 14.3409C12.6613 14.0437 12.9512 13.8563 13.3213 13.8536C14.1028 13.8475 14.8849 13.8502 15.6664 13.8502C18.472 13.8502 21.277 13.8509 24.0826 13.8516C24.755 13.8516 24.8972 14.069 24.9821 14.7265C25.0919 15.577 24.6563 16.0629 24.0205 16.4745C23.0284 17.1171 21.9135 17.4046 20.7578 17.5729C20.568 17.6009 20.3767 17.62 20.1627 17.6452Z" fill="white"/>
<path d="M6.10251 21.9598C5.98377 21.9673 5.88298 21.9802 5.78219 21.9802C4.18331 21.9816 2.58444 21.9843 0.985566 21.9802C0.173012 21.9782 -0.11832 21.6348 0.0425341 20.8416C0.262759 19.754 0.478151 18.6643 0.746011 17.5877C0.95588 16.7447 1.48124 16.0926 2.27033 15.7048C3.13189 15.2817 4.02246 14.9164 4.92752 14.5137C5.06628 15.2108 5.4018 15.7914 5.91335 16.2718C6.03762 16.3883 6.16741 16.5021 6.30686 16.6009C6.73488 16.9055 6.79632 17.1004 6.56505 17.5665C6.23575 18.2296 6.07766 18.9226 6.09768 19.6647C6.11839 20.4218 6.10251 21.1802 6.10251 21.9598Z" fill="white"/>
<path d="M5.08817 8.6633C5.08817 8.25921 5.07436 7.86533 5.09093 7.4735C5.13857 6.33481 5.43749 6.11402 6.54828 6.38183C6.78162 6.43839 7.01358 6.50313 7.24278 6.574C7.74053 6.728 8.23207 6.71846 8.73258 6.57468C9.13851 6.45815 9.54996 6.34912 9.96625 6.2803C10.4378 6.20261 10.6387 6.31641 10.7519 6.77639C10.8478 7.16753 10.8568 7.58049 10.8893 7.98458C10.9065 8.19788 10.892 8.41389 10.892 8.65649C10.9479 8.63673 10.9956 8.62378 11.0398 8.60402C11.3318 8.47454 11.4657 8.52906 11.4195 8.82617C11.3428 9.31204 11.193 9.78632 11.0667 10.264C11.0508 10.3247 10.999 10.4023 10.9452 10.4235C10.4813 10.6006 10.4854 11.0306 10.4157 11.4013C10.2493 12.277 9.64247 12.8358 8.97282 13.3128C8.31491 13.7809 7.31596 13.6399 6.70154 13.1077C6.01394 12.5114 5.54174 11.8061 5.43059 10.8875C5.41678 10.7724 5.28423 10.6674 5.19794 10.5652C5.08334 10.4282 4.91006 10.3158 4.85207 10.1604C4.71952 9.80199 4.6063 9.42856 4.54969 9.05241C4.47168 8.52769 4.58559 8.45546 5.08817 8.6633Z" fill="white"/>
<path d="M11.0307 14.5684C11.8033 14.6604 11.9538 15.089 11.9317 15.7711C11.8764 17.4938 11.9089 19.2192 11.9165 20.9439C11.9179 21.2683 11.9682 21.592 11.9986 21.9463C11.3262 21.9463 10.6131 21.9463 9.85644 21.9463C9.85644 21.4475 9.87439 20.9419 9.8523 20.4376C9.82192 19.7507 9.78671 19.0625 9.69973 18.381C9.66245 18.0873 9.49676 17.8073 9.37802 17.5258C9.20336 17.1135 9.20957 16.9275 9.55958 16.6761C10.3141 16.1343 10.8361 15.4488 11.0307 14.5684Z" fill="white"/>
<path d="M11.5753 7.13907C11.469 6.8481 11.3848 6.5067 11.2253 6.20482C10.9658 5.7135 10.4618 5.49066 9.91917 5.59901C9.49322 5.68419 9.07003 5.7905 8.65305 5.91248C8.19672 6.04604 7.75351 6.04127 7.29857 5.90907C6.88159 5.78777 6.45909 5.67602 6.03245 5.59765C5.39041 5.47976 4.82984 5.83684 4.59926 6.49579C4.51504 6.73702 4.47292 6.99256 4.35349 7.2447C4.35349 7.03822 4.32864 6.82834 4.35832 6.62595C4.42391 6.1796 4.50537 5.7353 4.60133 5.29441C4.74009 4.65453 5.10875 4.1966 5.728 3.93152C5.96686 3.82931 6.19606 3.69302 6.40662 3.54105C7.33585 2.87051 8.64546 2.81532 9.61956 3.41976C10.0586 3.69234 10.3465 4.07531 10.4618 4.5748C10.5426 4.92507 10.7345 5.18742 11.0293 5.39458C11.5319 5.74757 11.7749 6.58711 11.5753 7.13907Z" fill="white"/>
<path d="M7.21937 16.6656C7.4824 16.3304 7.72678 16.0183 7.9905 15.6816C8.24386 16.0019 8.49308 16.3167 8.76854 16.665C8.39919 16.9355 8.50206 17.281 8.69467 17.6135C9.33739 18.7243 9.21175 19.9366 9.18828 21.1359C9.17171 22 9.17033 22 8.30185 22C7.89937 22 7.4962 21.9959 7.09372 22.0013C6.89421 22.0041 6.79618 21.9312 6.79825 21.724C6.80653 20.8061 6.75407 19.8834 6.83484 18.9723C6.87833 18.4817 7.13169 18.0047 7.3174 17.5318C7.49344 17.082 7.50449 17.0507 7.21937 16.6656Z" fill="white"/>
<path d="M16.6733 13.1844C16.3551 13.1844 16.0589 13.1844 15.7641 13.1844C15.6799 12.3455 16.4524 11.446 17.3892 11.3901C18.3274 11.3342 19.2746 11.3363 20.2121 11.3956C21.0999 11.4514 21.7751 12.2453 21.8165 13.198C21.5452 13.198 21.2739 13.2109 21.006 13.1884C20.9411 13.183 20.8617 13.0699 20.83 12.9908C20.647 12.5329 20.3598 12.3271 19.8621 12.3251C19.2414 12.3223 18.6194 12.3523 18.0016 12.3176C17.3147 12.2794 16.8259 12.4791 16.6733 13.1844Z" fill="white"/>
<path d="M5.87634 13.248C6.2298 13.8825 6.82559 14.1918 7.45796 14.4542C7.83144 14.6089 7.85767 14.7022 7.62019 15.0273C7.40549 15.3217 7.2039 15.6276 6.9678 15.9036C6.89807 15.9847 6.68889 16.0508 6.61088 16.0065C5.71203 15.5016 5.33648 14.1905 5.81352 13.2917C5.81697 13.2835 5.83078 13.2794 5.87634 13.248Z" fill="white"/>
<path d="M10.157 13.2969C10.3517 13.6124 10.4332 14.0035 10.3655 14.4165C10.262 15.0489 9.9016 15.5354 9.42525 15.9518C9.25611 16.0997 9.12287 16.0758 8.99723 15.902C8.76458 15.5797 8.534 15.256 8.29375 14.9392C8.1184 14.7075 8.19779 14.5807 8.44287 14.4771C8.71556 14.362 9.00206 14.2557 9.23954 14.0867C9.55849 13.8597 9.8367 13.5776 10.157 13.2969Z" fill="white"/>
<path d="M18.1109 17.7207C18.0922 17.2471 18.2427 17.1217 18.8351 17.1271C19.3169 17.1319 19.4833 17.2961 19.4391 17.7282C19.4184 17.9305 19.3922 18.1323 19.3694 18.3346C19.3314 18.6706 19.1216 18.8594 18.7757 18.8675C18.4733 18.8743 18.2531 18.6794 18.2027 18.3571C18.1696 18.1459 18.1412 17.9333 18.1109 17.7207Z" fill="white"/>
</svg>
