<svg width="25" height="25" viewBox="0 0 25 25" fill="none" xmlns="http://www.w3.org/2000/svg">
<path d="M9.84413 21.6649C6.96922 21.6639 4.32837 21.4351 1.71254 20.9439C1.33773 20.8733 0.963446 20.7945 0.607927 20.6527C0.0746475 20.4393 -0.0561962 20.1998 0.0199121 19.6379C0.191416 18.3719 0.5485 17.1719 1.29238 16.1044C1.61766 15.6377 2.02896 15.2744 2.54921 15.0211C3.77789 14.4224 5.06599 13.949 6.28008 13.3196C6.54854 13.1804 6.81231 13.0315 7.07921 12.8897C7.21944 12.8155 7.23508 12.7321 7.13239 12.6072C6.72161 12.1093 6.44533 11.5444 6.28216 10.9257C6.24984 10.8039 6.1581 10.7241 6.0799 10.633C5.46374 9.91142 5.07434 9.0993 5.10353 8.13929C5.11239 7.84351 5.09154 7.51139 5.44497 7.34099C5.53515 7.29749 5.50961 7.19002 5.5117 7.10712C5.52786 6.54473 5.54089 5.98285 5.55653 5.42045C5.60553 3.64525 6.86549 2.2825 8.66341 2.06502C9.66742 1.94322 10.6589 1.96267 11.5998 2.38536C12.7305 2.893 13.3253 3.79672 13.5369 4.9691C13.6511 5.60314 13.5724 6.24485 13.5995 6.88299C13.6089 7.10303 13.5906 7.31438 13.8445 7.45254C13.9889 7.53084 13.9931 7.72939 14.0092 7.89315C14.1151 8.95295 13.7345 9.85053 13.0511 10.6432C12.9411 10.7706 12.8608 10.9006 12.815 11.0603C12.6549 11.616 12.4016 12.1283 12.0273 12.5755C11.8918 12.7372 11.9397 12.8181 12.0998 12.9112C12.5934 13.1988 13.1032 13.4552 13.625 13.688C13.8424 13.7852 13.8591 13.8794 13.734 14.0713C12.3385 16.2093 12.5168 19.0556 14.0311 21.0989C14.09 21.1788 14.2078 21.2565 14.1672 21.3589C14.1198 21.4792 13.9754 21.4469 13.8664 21.4546C13.1569 21.5073 12.448 21.5641 11.7385 21.6066C11.0374 21.6475 10.3352 21.6798 9.84413 21.6649Z" fill="white"/>
<path d="M19.2397 23.0004C16.0603 22.9948 13.4904 20.4699 13.4961 17.358C13.5018 14.2462 16.0838 11.7238 19.2553 11.7305C22.4341 11.7371 25.0067 14.2651 24.9994 17.3744C24.9926 20.4883 22.4148 23.006 19.2397 23.0004ZM21.0991 21.1167C21.1059 21.0394 21.0538 20.9483 21.0167 20.8537C20.5935 19.7847 20.1728 18.7146 19.7422 17.6487C19.6744 17.4808 19.6864 17.3514 19.7813 17.1973C20.0769 16.7168 20.3568 16.2271 20.6425 15.7409C20.8458 15.3945 21.0506 15.0491 21.2498 14.7006C21.3462 14.5317 21.3008 14.3761 21.1419 14.2784C20.9735 14.1745 20.8088 14.2098 20.6836 14.3695C20.6472 14.4166 20.6195 14.4708 20.5893 14.522C20.0821 15.3837 19.5796 16.2481 19.065 17.1052C18.9577 17.2843 18.9431 17.4409 19.0207 17.6333C19.4477 18.6916 19.8652 19.7534 20.2864 20.8143C20.3495 20.9724 20.4063 21.1336 20.4803 21.2871C20.5585 21.4483 20.704 21.4979 20.8734 21.4519C21.024 21.4109 21.0981 21.3014 21.0991 21.1167ZM19.5728 13.1869C19.5728 13.1613 19.5728 13.1357 19.5728 13.1106C19.5691 12.8169 19.4988 12.7432 19.2438 12.7365C18.9816 12.7299 18.918 12.8773 18.929 13.0953C18.9332 13.1802 18.9279 13.2652 18.9332 13.3501C18.942 13.4985 19.0192 13.5789 19.1766 13.5942C19.4789 13.6239 19.5712 13.5328 19.5728 13.1869ZM19.5728 21.566C19.5728 21.2109 19.5201 21.1418 19.248 21.1423C18.9754 21.1423 18.929 21.2047 18.9295 21.5696C18.93 21.916 18.9957 22.0056 19.2506 22.0046C19.504 22.003 19.5728 21.9104 19.5728 21.566ZM14.9661 17.0561C14.9401 17.0561 14.914 17.0561 14.8879 17.0561C14.6044 17.0592 14.535 17.1257 14.5283 17.3698C14.5215 17.6303 14.6732 17.6891 14.8963 17.6753C14.9568 17.6717 15.0177 17.6758 15.0787 17.6738C15.3498 17.6666 15.4332 17.5729 15.4113 17.3104C15.3863 17.0146 15.1632 17.0586 14.9661 17.0561ZM23.5241 17.6738C23.9047 17.6732 23.9584 17.6354 23.9584 17.3667C23.9584 17.097 23.9021 17.0561 23.5262 17.0561C23.1676 17.0561 23.0821 17.1155 23.0816 17.3657C23.0816 17.6195 23.1603 17.6743 23.5241 17.6738Z" fill="white"/>
</svg>
