<svg width="25" height="25" viewBox="0 0 25 25" fill="none" xmlns="http://www.w3.org/2000/svg">
<g clip-path="url(#clip0_698_373)">
<path d="M14.9215 21.6784C12.173 22.3789 9.51126 22.4648 6.82821 22.2113C6.54497 22.1841 6.26172 22.1511 5.98131 22.1082C3.879 21.7873 3.88042 21.7858 3.44487 19.6844C3.41214 19.5283 3.35236 19.3778 3.18867 19.2317C3.18867 19.9437 3.18867 20.6571 3.18867 21.5982C2.09552 21.051 1.14898 20.5869 0.218104 20.097C0.102811 20.0368 -0.00678815 19.8262 0.000328681 19.6916C0.0700736 18.4582 0.0572633 17.2048 0.280732 15.9972C0.562558 14.4788 1.52475 13.3299 2.92962 12.7498C4.11955 12.2584 5.41197 12.0163 6.66737 11.6969C6.87376 11.6439 7.13709 11.7227 7.34917 11.8058C8.71417 12.3415 10.0635 12.3243 11.447 11.8359C11.8655 11.6883 12.3865 11.6883 12.8263 11.7814C13.8838 12.0063 14.9215 12.3258 16.1698 12.6624C14.6283 13.88 13.7344 15.2437 13.5323 16.9885C13.333 18.7017 13.7771 20.2488 14.9215 21.6784Z" fill="white"/>
<path d="M9.43603 10.9514C6.71598 10.9586 4.48983 8.74543 4.47275 6.01799C4.45567 3.25617 6.69036 0.992855 9.43176 1.00002C12.139 1.00718 14.3694 3.25904 14.3609 5.97501C14.3509 8.71678 12.1475 10.9443 9.43603 10.9514Z" fill="white"/>
<path d="M19.704 12.3398C16.779 12.3398 14.4062 14.7264 14.4062 17.6701C14.4062 20.6138 16.779 23.0003 19.704 23.0003C22.629 23.0003 25.0004 20.6138 25.0004 17.6701C25.0004 14.7264 22.629 12.3398 19.704 12.3398ZM21.2669 19.5524C20.9893 19.8675 20.5694 20.0509 20.0086 20.1053V20.8301H19.398V20.1053C18.4799 20.0079 17.922 19.5624 17.7227 18.7688L18.7731 18.5267C18.8927 18.9794 19.2201 19.2057 19.7567 19.2057C20.0172 19.2057 20.2107 19.1556 20.3388 19.0567C20.4669 18.9565 20.5324 18.8361 20.5324 18.6957C20.5324 18.5525 20.4741 18.4408 20.3602 18.362C20.2463 18.2818 20.0214 18.2087 19.6884 18.1428C18.9653 17.9924 18.4999 17.7904 18.2892 17.5354C18.08 17.2805 17.9746 16.9825 17.9746 16.6416C17.9746 16.2419 18.107 15.901 18.3717 15.6174C18.6365 15.3352 18.9781 15.1676 19.398 15.116V14.5086H20.0086V15.1088C20.7943 15.1833 21.3082 15.5601 21.5501 16.2419L20.5894 16.5642C20.4598 16.1803 20.1837 15.9884 19.761 15.9884C19.3126 15.9884 19.0891 16.1345 19.0891 16.4253C19.0891 16.5442 19.1318 16.643 19.2158 16.7232C19.2998 16.8034 19.4891 16.8736 19.7837 16.9324C20.2776 17.0326 20.6392 17.1343 20.8698 17.2361C21.1003 17.3392 21.2939 17.5039 21.4491 17.7317C21.6056 17.9609 21.6839 18.2159 21.6839 18.4981C21.6839 18.8877 21.5459 19.2387 21.2669 19.5524Z" fill="white"/>
</g>
<defs>
<clipPath id="clip0_698_373">
<rect width="25" height="25" fill="white"/>
</clipPath>
</defs>
</svg>
