<svg width="25" height="25" viewBox="0 0 25 25" fill="none" xmlns="http://www.w3.org/2000/svg">
<path d="M9.02319 21.2729C8.7633 20.1531 8.77822 19.448 9.02319 17.8224C9.13014 17.1011 9.22216 16.5954 9.43604 16.2728C9.55915 16.0585 9.13014 15.7359 9.13014 15.7359C9.13014 15.7359 8.08931 16.3188 8.05822 16.3188C8.02713 16.3188 7.99729 16.3188 7.98112 16.3338C7.33822 16.5182 6.72517 16.6253 6.2203 16.7175H6.18921C4.96434 16.9317 3.92352 17.1161 3.05057 17.9295C1.73492 19.1715 1.06093 19.9077 1 22.8213C1 22.9284 1.03109 23.0206 1.10694 23.0817C1.16788 23.1427 1.2599 23.1888 1.35192 23.1888H9.57407C9.37511 22.5759 9.17615 21.9319 9.02319 21.2729ZM19.9251 17.3926C18.4242 16.9479 17.5674 16.7785 17.0004 16.6876L16.9394 16.6726C16.2965 16.5655 16.1436 16.5194 15.8066 16.2429C15.7606 16.1968 15.6387 16.0124 15.5305 15.8741C15.0866 15.6437 14.5656 16.1806 14.6576 16.411C14.7645 16.6714 14.8876 17.009 14.9635 17.4387C15.3614 19.509 15.2085 19.6623 15.1164 20.9353C15.0555 21.6865 14.8565 22.4389 14.7795 23.1589H22.8487C23.0327 23.1589 23.1856 23.0206 23.2006 22.8524C23.3548 21.334 22.7119 18.236 19.9251 17.3926ZM12.0698 24.9838C12.0549 24.9838 12.0387 24.9838 12.0089 24.9527L10.0951 23.0505C10.018 22.9733 9.98817 22.8051 10.0491 22.6668L11.611 19.0319L10.5701 17.4387C10.5241 17.3615 10.5092 17.2394 10.539 17.1323C10.5701 17.055 10.6161 16.994 10.646 16.994C10.6609 16.994 10.692 16.9791 10.738 16.9791C10.9681 16.933 11.565 16.6726 12.1158 16.6726C12.6667 16.6726 13.2338 16.9492 13.4476 16.9791C13.4787 16.9791 13.5086 16.994 13.5247 16.994C13.5558 17.009 13.6018 17.055 13.6317 17.1472C13.6628 17.2544 13.6466 17.3615 13.5857 17.4537L12.5598 19.0494L14.1216 22.6693C14.1826 22.7927 14.1527 22.9758 14.0607 23.0679L12.1009 25C12.1009 24.9689 12.086 24.9838 12.0698 24.9838ZM6.34341 5.99588C6.45035 6.47173 6.51128 6.79312 6.54237 7.06966C6.2974 7.08461 6.17429 7.1307 5.99149 7.30011C5.85346 7.42343 5.77761 7.5916 5.77761 7.77596C5.77761 9.14123 5.90071 10.8279 6.46652 11.1044C6.54361 11.1356 6.61947 11.1817 6.69657 11.2116C7.06465 11.3797 7.29346 11.4881 7.4004 11.7173C7.76848 12.6067 9.19231 15.5054 12.132 15.5054C15.1488 15.5054 16.2207 13.1436 16.7865 11.8855L16.8636 11.7011C16.9867 11.4408 17.1397 11.3635 17.3535 11.2713C17.5376 11.1792 17.7826 11.072 17.9355 10.8117C18.5026 9.87618 18.7624 7.85195 18.4864 7.31506C18.4093 7.16184 18.3334 7.1008 18.0574 6.90149C17.9654 6.84045 17.8895 6.79436 17.8273 6.73333C17.8124 6.59506 18.0114 6.25748 18.1034 5.38301V5.27588C18.1345 4.2021 18.0114 2.91407 17.3834 2.11683C16.5875 1.13523 15.5616 1.01191 14.8267 1.15018C14.1378 0.399035 13.5409 0.0303136 13.0659 0.0303136C12.9589 0.0303136 12.8209 0.0153654 12.6829 0.0153654C11.795 -0.0157766 11.213 -0.0307248 10.845 0.291907C10.738 0.306855 10.4769 0.337997 10.309 0.323049C10.0491 0.308101 8.08931 0.491216 7.26237 1.70326C6.02258 3.54189 6.09843 4.90716 6.32849 5.9037L6.34341 5.99588ZM12.1308 14.6309C9.78796 14.6309 8.6091 12.3763 8.21118 11.4096C7.99729 10.8877 7.55335 10.6884 7.13926 10.5202C7.07833 10.4891 7.03232 10.4741 6.97139 10.443C6.83335 10.2287 6.6804 9.13874 6.6804 7.92794C6.74133 7.91299 6.86444 7.88184 7.03232 7.88184H7.18527L7.75232 7.94288L7.62921 7.37485C7.62921 7.34371 7.59812 7.05222 7.61429 6.88405L8.19625 6.79187L8.21118 6.76073C8.85408 6.33097 9.86506 6.28488 10.6758 6.28488C11.1658 6.28488 11.6707 6.29983 12.2066 6.33097C12.6356 6.34592 13.0646 6.36211 13.5086 6.37706H13.6155C15.1463 6.37706 16.0503 5.82522 16.4022 5.53373C16.3712 5.9635 16.4333 6.59256 16.8773 7.11326C16.8922 7.12821 16.8922 7.12821 16.8922 7.1444C16.9991 7.28267 17.1683 7.40475 17.3672 7.54302C17.4443 7.60406 17.5973 7.71119 17.6582 7.77347C17.7353 8.07991 17.6122 9.65943 17.1533 10.4268C17.1222 10.4729 17.0613 10.504 16.9084 10.58C16.6634 10.6871 16.2953 10.8565 16.0665 11.3623L15.9894 11.5304C15.4696 12.6989 14.5967 14.6309 12.1308 14.6309Z" fill="white"/>
</svg>
