<svg width="24" height="25" viewBox="0 0 24 25" fill="none" xmlns="http://www.w3.org/2000/svg">
<g clip-path="url(#clip0_698_362)">
<path d="M19.9513 23.2083C17.3355 25.5801 7.03671 25.601 4.04688 23.2352C4.68565 21.7908 5.69261 20.8275 7.20232 20.224C8.57155 19.6774 9.67758 19.3578 10.9374 20.5287C11.7122 21.2487 12.9395 20.9574 13.7468 20.1299C14.325 19.5385 14.875 19.4265 15.5833 19.8432C15.8746 20.0134 16.2221 20.1016 16.5563 20.1807C18.2301 20.581 19.2814 21.6758 19.9513 23.2083Z" fill="white"/>
<path d="M15.2754 15.3716C15.0936 16.9832 14.6603 18.4111 13.4966 19.5059C12.4497 20.4917 11.4723 20.4469 10.4639 19.4327C8.61854 17.5747 8.48546 15.3537 9.19521 13.0072C9.5767 11.7466 10.7892 11.0685 12.1673 11.1536C13.5883 11.2403 14.6278 12.0125 14.9457 13.3C15.1172 13.996 15.1749 14.7189 15.2754 15.3716Z" fill="white"/>
<path d="M20.7334 15.0396C20.698 16.4406 20.3194 17.4413 19.5032 18.2419C18.8349 18.8961 18.0822 18.8707 17.4094 18.2225C16.2206 17.0739 15.8687 14.9052 16.6405 13.4534C17.056 12.6737 17.7673 12.4452 18.5702 12.4706C19.3834 12.4945 20.0843 12.8067 20.3874 13.6282C20.5826 14.1554 20.6595 14.7275 20.7334 15.0396Z" fill="white"/>
<path d="M3.30478 15.1572C3.31661 13.1812 4.57938 12.0311 6.23251 12.5942C6.71012 12.757 7.21877 13.2066 7.44649 13.6606C8.1518 15.0646 7.7851 16.9451 6.71603 18.0951C5.95157 18.9181 5.14866 18.9181 4.36498 18.0966C3.72176 17.4245 3.29739 16.2461 3.30478 15.1572Z" fill="white"/>
<path d="M14.9609 18.8755C15.4356 18.6888 15.8984 18.4573 16.3878 18.3393C16.5993 18.2885 16.9039 18.4199 17.1035 18.5588C18.2406 19.3504 18.6383 19.3609 19.768 18.6081C19.9632 18.4782 20.2294 18.3228 20.432 18.3572C21.7731 18.5902 23.4188 19.1219 23.9999 21.0561C22.7593 21.3549 21.5335 21.6715 20.2959 21.9239C20.0889 21.9657 19.7503 21.7985 19.6054 21.6192C18.7271 20.5289 17.5782 19.9315 16.2592 19.5834C15.8186 19.4669 15.4031 19.2534 14.9757 19.0831C14.9698 19.0144 14.9654 18.9457 14.9609 18.8755Z" fill="white"/>
<path d="M9.06709 19.1026C8.51851 19.3102 8.10153 19.4984 7.66829 19.6269C6.39517 20.0047 5.22851 20.535 4.38716 21.6417C4.2526 21.818 3.90512 21.9703 3.69811 21.927C2.4797 21.6746 1.27312 21.3609 0 21.0518C0.348962 19.9988 0.882755 19.3326 1.73002 18.9473C2.13222 18.7636 2.56103 18.6426 2.96765 18.4663C3.4911 18.2393 3.91843 18.302 4.38864 18.6725C5.19598 19.3102 5.77266 19.3057 6.55634 18.8009C7.51599 18.184 7.95219 18.2139 9.06709 19.1026Z" fill="white"/>
<path d="M12.6746 8.81676V9.96087H11.7165V8.81676C10.2748 8.66292 9.39793 7.96093 9.08594 6.71078L10.7332 6.32991C10.9209 7.04385 11.4355 7.40082 12.2783 7.40082C12.6865 7.40082 12.9896 7.32166 13.1922 7.16483C13.3933 7.00801 13.4953 6.81832 13.4953 6.59577C13.4953 6.37024 13.4051 6.19399 13.2262 6.07002C13.0458 5.94456 12.6953 5.83104 12.1719 5.72649C11.0378 5.4905 10.3058 5.17087 9.97609 4.76909C9.64635 4.36731 9.48222 3.89832 9.48222 3.36062C9.48222 2.73031 9.68923 2.19262 10.1047 1.74603C10.5202 1.29944 11.057 1.03656 11.7165 0.955909V0H12.6746V0.94396C13.9078 1.06046 14.7152 1.65641 15.0952 2.72882L13.5855 3.23665C13.3814 2.63174 12.9482 2.32853 12.2857 2.32853C11.5834 2.32853 11.2315 2.55855 11.2315 3.01858C11.2315 3.20379 11.298 3.36062 11.4296 3.48757C11.5612 3.61453 11.8584 3.72506 12.3227 3.81766C13.0975 3.97449 13.6653 4.13431 14.0276 4.29561C14.3884 4.45692 14.693 4.71831 14.9384 5.07677C15.1839 5.43524 15.3066 5.83851 15.3066 6.28211C15.3066 6.89599 15.0878 7.45011 14.6516 7.94599C14.2139 8.44187 13.5559 8.73312 12.6746 8.81676Z" fill="white"/>
</g>
<defs>
<clipPath id="clip0_698_362">
<rect width="24" height="25" fill="white"/>
</clipPath>
</defs>
</svg>
