<svg width="25" height="25" viewBox="0 0 25 25" fill="none" xmlns="http://www.w3.org/2000/svg">
<g clip-path="url(#clip0_698_351)">
<path d="M0.000292189 12.4993C-0.0384031 5.82975 5.33603 0.104074 12.3089 0.00138986C19.3135 -0.101294 24.9285 5.49919 24.9996 12.3516C25.0721 19.3299 19.5471 24.7011 13.0807 24.9873C5.7856 25.3101 -0.0475493 19.4241 0.000292189 12.4993ZM21.2771 19.5718C24.4353 15.8921 25.0812 9.29639 20.6094 4.65311C16.1996 0.0738316 8.86012 -0.0140832 4.34754 4.69179C0.00380997 9.22043 0.482225 15.7739 3.73615 19.595C3.75585 19.5317 3.77133 19.4747 3.79032 19.4192C3.99858 18.8122 4.15054 18.1785 4.42493 17.6032C5.4894 15.3723 7.19833 13.8314 9.53482 13.0029C9.6298 12.9691 9.7691 12.9832 9.86057 13.0289C11.6293 13.9108 13.391 13.9101 15.1548 13.0155C15.2357 12.9747 15.3595 12.9621 15.4432 12.9923C17.9584 13.9024 19.7441 15.5882 20.7712 18.059C20.976 18.552 21.1125 19.0739 21.2771 19.5718Z" fill="white"/>
<path d="M16.9579 8.05347C16.9797 10.5151 14.9148 12.5455 12.4362 12.5047C9.97656 12.464 7.97848 10.4363 8.02421 8.01971C8.07275 5.48356 10.0772 3.52975 12.5938 3.56492C15.0063 3.59868 16.9931 5.64321 16.9579 8.05347Z" fill="white"/>
</g>
<defs>
<clipPath id="clip0_698_351">
<rect width="25" height="25" fill="white"/>
</clipPath>
</defs>
</svg>
