<svg width="192" height="80" viewBox="0 0 192 80" fill="none" xmlns="http://www.w3.org/2000/svg">
<g clip-path="url(#clip0_3244_726)">
<path d="M42.6753 23.9066V0C41.7073 0 40.7394 0.00653008 39.765 0.0130602C37.8292 0.0326504 36.6258 0.992572 36.2726 2.8014C35.8868 4.77349 35.5336 6.7521 35.1478 8.72419C34.8796 10.089 33.9771 11.0032 32.6299 11.4929C31.3023 11.9762 29.9812 12.4594 28.6798 13.0144C27.2148 13.6413 25.7891 13.5369 24.4484 12.6488C22.7219 11.506 20.9888 10.3763 19.2491 9.25312C17.8103 8.32585 16.1492 8.44339 14.9001 9.58616C13.3566 10.9771 11.8328 12.4006 10.3286 13.8372C9.00103 15.0975 8.87677 16.5929 9.94932 18.0361C11.1331 19.6359 12.356 21.2097 13.5463 22.8096C14.4619 24.0503 14.6189 25.3563 13.9518 26.7537C13.4024 27.9161 12.8727 29.0784 12.3887 30.2669C11.774 31.7623 10.6295 32.6047 8.95525 32.8789C6.89516 33.2055 4.83508 33.5254 2.78153 33.8781C1.08114 34.1784 0.0151315 35.393 0.00859159 37.019C-0.00448832 39.0303 -0.00448832 41.0285 0.0216715 43.0398C0.0478313 44.7506 1.05498 45.8738 2.87963 46.1938C4.99858 46.5595 7.11752 46.886 9.23647 47.2451C10.7341 47.4933 11.774 48.3095 12.3102 49.6025C12.8531 50.8954 13.4351 52.1753 14.0237 53.4552C14.6123 54.7351 14.5011 55.9824 13.6248 57.1447C12.4149 58.7577 11.1985 60.3836 10.0016 62.0031C8.89639 63.492 9.02719 64.9482 10.4006 66.2607C11.7936 67.5733 13.2062 68.8793 14.6123 70.1853C16.2277 71.6872 17.7973 71.8048 19.6677 70.5706C21.2634 69.5192 22.8527 68.4613 24.4484 67.4165C25.8153 66.5219 27.241 66.4044 28.7713 67.0443C29.9812 67.5471 31.2042 68.0304 32.4402 68.4679C34.0883 69.0491 35.0039 70.1396 35.2851 71.7395C35.6056 73.6005 35.9653 75.4485 36.3053 77.3096C36.5212 78.4524 37.1621 79.3013 38.5224 79.8368C38.712 79.8694 39.0979 79.9935 39.4838 79.9935C40.5432 80.0065 41.6092 80.0131 42.6687 80.0196V56.0934C40.4255 56.0738 38.1431 55.6363 35.9653 54.7547C27.241 51.2154 23.2843 41.6684 27.1232 33.4536C29.8766 27.5961 36.1353 24.0242 42.6753 23.9066Z" fill="url(#paint0_linear_3244_726)"/>
<path d="M40.7296 34.6417H35.1641V28.9932H52.8023V34.6482H47.2368V53.6181H40.7361V34.6417H40.7296Z" fill="url(#paint1_linear_3244_726)"/>
<path d="M58.1819 47.2908C58.2342 47.7022 58.3977 48.0613 58.6789 48.3617C58.9601 48.6686 59.3329 48.9037 59.7973 49.0735C60.2616 49.2433 60.8175 49.3281 61.4519 49.3281C62.0732 49.3281 62.6618 49.2824 63.2111 49.191C63.7605 49.0996 64.251 48.969 64.6761 48.8057C65.1077 48.6425 65.4478 48.4662 65.6963 48.2637L68.1422 52.3646C67.8676 52.5997 67.4555 52.8479 66.9062 53.1091C66.3568 53.3703 65.6047 53.5923 64.6564 53.7817C63.7016 53.971 62.4852 54.0625 61.0071 54.0625C59.2871 54.0625 57.7437 53.7555 56.3769 53.1482C55.01 52.5409 53.9244 51.6202 53.1265 50.3991C52.3286 49.1714 51.9297 47.6434 51.9297 45.8019C51.9297 44.3065 52.2632 42.9613 52.9368 41.7663C53.6105 40.5648 54.5784 39.6114 55.8537 38.9127C57.1224 38.2074 58.6593 37.8613 60.4709 37.8613C62.204 37.8613 63.7016 38.1617 64.9704 38.769C66.2391 39.3698 67.2201 40.284 67.9003 41.5051C68.587 42.7262 68.927 44.2673 68.927 46.1284C68.927 46.2264 68.927 46.4288 68.9205 46.7226C68.9139 47.023 68.9009 47.2124 68.8747 47.3038H58.1819V47.2908ZM62.7075 44.3065C62.6944 43.8951 62.6029 43.5294 62.4394 43.2029C62.2694 42.883 62.0339 42.6218 61.72 42.4389C61.4061 42.2495 61.0268 42.1581 60.582 42.1581C60.1439 42.1581 59.758 42.243 59.4245 42.4193C59.0909 42.5956 58.8293 42.8372 58.6397 43.1572C58.45 43.4772 58.3454 43.8559 58.3192 44.3065H62.7075Z" fill="url(#paint2_linear_3244_726)"/>
<path d="M70.3034 38.2992H72.769V32.0107H79.3089V38.2992H82.5593V43.6931H79.3089V46.6773C79.3089 47.2128 79.3809 47.6699 79.5248 48.0486C79.6686 48.4274 79.976 48.6167 80.4469 48.6167C80.7346 48.6167 80.9897 48.5514 81.2121 48.4208C81.4344 48.2902 81.5718 48.1988 81.6241 48.1531L83.828 52.8156C83.7299 52.8874 83.4291 53.0311 82.919 53.2335C82.4154 53.4359 81.781 53.6253 81.0159 53.8016C80.2507 53.9779 79.4005 54.0628 78.4653 54.0628C76.8107 54.0628 75.4438 53.6057 74.3713 52.6915C73.2987 51.7773 72.7624 50.3668 72.7624 48.4665V43.6931H70.2969V38.2992H70.3034Z" fill="url(#paint3_linear_3244_726)"/>
<path d="M91.6041 53.6188H84.9922V38.2992H91.6041V40.5586H91.5125C91.6368 40.2844 91.8918 39.9383 92.2712 39.5138C92.6505 39.0893 93.1867 38.7106 93.88 38.3645C94.5732 38.0249 95.4365 37.8486 96.4698 37.8486C97.1696 37.8486 97.8301 37.9596 98.4514 38.1817C99.0727 38.4037 99.5305 38.6257 99.8183 38.8347L97.2742 44.1893C97.1107 43.9543 96.8099 43.7126 96.3586 43.471C95.9074 43.2294 95.358 43.1053 94.6975 43.1053C93.9519 43.1053 93.3502 43.2686 92.8924 43.6016C92.4346 43.9281 92.1076 44.3395 91.9115 44.8228C91.7153 45.306 91.6106 45.7761 91.6106 46.2202V53.6188H91.6041Z" fill="url(#paint4_linear_3244_726)"/>
<path d="M108.793 54.0621C107.073 54.0621 105.549 53.7226 104.215 53.0369C102.88 52.3513 101.834 51.4044 101.075 50.1898C100.317 48.9752 99.9375 47.5843 99.9375 46.004C99.9375 44.4237 100.317 43.0198 101.075 41.7987C101.834 40.571 102.88 39.6111 104.215 38.9058C105.549 38.2006 107.073 37.8545 108.793 37.8545C110.5 37.8545 112.01 38.2071 113.325 38.9058C114.639 39.6111 115.666 40.571 116.405 41.7987C117.144 43.0263 117.517 44.4237 117.517 46.004C117.517 47.5843 117.144 48.9817 116.405 50.1898C115.666 51.4044 114.639 52.3513 113.325 53.0369C112.01 53.7226 110.5 54.0621 108.793 54.0621ZM108.793 48.6748C109.303 48.6748 109.747 48.5638 110.12 48.3483C110.493 48.1328 110.781 47.8194 110.977 47.408C111.173 46.9966 111.278 46.5199 111.278 45.9714C111.278 45.4359 111.18 44.9657 110.977 44.5544C110.781 44.143 110.493 43.823 110.12 43.5944C109.747 43.3659 109.303 43.2483 108.793 43.2483C108.269 43.2483 107.818 43.3659 107.445 43.5944C107.073 43.823 106.778 44.143 106.569 44.5544C106.36 44.9657 106.249 45.4359 106.249 45.9714C106.249 46.5199 106.353 46.9966 106.569 47.408C106.778 47.8194 107.073 48.1328 107.445 48.3483C107.818 48.5638 108.269 48.6748 108.793 48.6748Z" fill="url(#paint5_linear_3244_726)"/>
<path d="M119.508 41.2832C119.508 39.4939 119.835 37.8222 120.482 36.2746C121.13 34.727 122.032 33.3752 123.19 32.2194C124.347 31.0636 125.708 30.1624 127.271 29.516C128.834 28.8695 130.521 28.543 132.339 28.543C134.183 28.543 135.884 28.8695 137.44 29.516C138.997 30.1624 140.351 31.0636 141.515 32.2194C142.672 33.3752 143.568 34.727 144.203 36.2746C144.837 37.8222 145.158 39.4939 145.158 41.2832C145.158 43.0855 144.844 44.7637 144.222 46.3113C143.601 47.8589 142.718 49.2172 141.58 50.3796C140.442 51.5419 139.088 52.4496 137.519 53.0961C135.949 53.7425 134.223 54.069 132.346 54.069C130.403 54.069 128.644 53.7425 127.081 53.0961C125.511 52.4496 124.164 51.5419 123.039 50.3796C121.915 49.2172 121.045 47.8589 120.436 46.3113C119.815 44.7637 119.508 43.092 119.508 41.2832ZM126.29 41.2832C126.29 42.5304 126.545 43.6536 127.048 44.6657C127.552 45.6779 128.258 46.4876 129.167 47.0819C130.076 47.6761 131.136 47.9765 132.346 47.9765C133.556 47.9765 134.615 47.6761 135.524 47.0819C136.433 46.4876 137.14 45.6779 137.643 44.6657C138.147 43.6536 138.402 42.5239 138.402 41.2832C138.402 40.0424 138.147 38.9127 137.643 37.9071C137.14 36.9015 136.433 36.0983 135.524 35.491C134.615 34.8902 133.556 34.5898 132.346 34.5898C131.136 34.5898 130.076 34.8902 129.167 35.491C128.258 36.0917 127.552 36.9015 127.048 37.9071C126.545 38.9193 126.29 40.0424 126.29 41.2832Z" fill="url(#paint6_linear_3244_726)"/>
<path d="M154.165 34.9029L154.649 34.9943V53.6116H148.148V28.9932H156.964L165.878 47.5712L165.414 47.6627V28.9932H171.895V53.6181H163.04L154.165 34.9029Z" fill="url(#paint7_linear_3244_726)"/>
<path d="M175.797 28.9932H191.996V34.6482H182.298V38.5467H191.957V44.0123H182.298V47.9696H191.996V53.6246H175.797V28.9932Z" fill="url(#paint8_linear_3244_726)"/>
</g>
<defs>
<linearGradient id="paint0_linear_3244_726" x1="0.00205164" y1="39.9989" x2="42.6776" y2="39.9989" gradientUnits="userSpaceOnUse">
<stop stop-color="#FBEE43"/>
<stop offset="0.04" stop-color="#FCE528"/>
<stop offset="0.12" stop-color="#FCD417"/>
<stop offset="0.2" stop-color="#FBCA14"/>
<stop offset="0.28" stop-color="#FCC612"/>
<stop offset="0.67" stop-color="#F18F40"/>
<stop offset="1" stop-color="#E83E39"/>
</linearGradient>
<linearGradient id="paint1_linear_3244_726" x1="35.1643" y1="41.3043" x2="52.8003" y2="41.3043" gradientUnits="userSpaceOnUse">
<stop stop-color="#FBEE43"/>
<stop offset="0.04" stop-color="#FCE528"/>
<stop offset="0.12" stop-color="#FCD417"/>
<stop offset="0.2" stop-color="#FBCA14"/>
<stop offset="0.28" stop-color="#FCC612"/>
<stop offset="0.67" stop-color="#F18F40"/>
<stop offset="1" stop-color="#E83E39"/>
</linearGradient>
<linearGradient id="paint2_linear_3244_726" x1="51.9262" y1="45.959" x2="68.9268" y2="45.959" gradientUnits="userSpaceOnUse">
<stop stop-color="#FBEE43"/>
<stop offset="0.04" stop-color="#FCE528"/>
<stop offset="0.12" stop-color="#FCD417"/>
<stop offset="0.2" stop-color="#FBCA14"/>
<stop offset="0.28" stop-color="#FCC612"/>
<stop offset="0.67" stop-color="#F18F40"/>
<stop offset="1" stop-color="#E83E39"/>
</linearGradient>
<linearGradient id="paint3_linear_3244_726" x1="70.3049" y1="43.04" x2="83.8309" y2="43.04" gradientUnits="userSpaceOnUse">
<stop stop-color="#FBEE43"/>
<stop offset="0.04" stop-color="#FCE528"/>
<stop offset="0.12" stop-color="#FCD417"/>
<stop offset="0.2" stop-color="#FBCA14"/>
<stop offset="0.28" stop-color="#FCC612"/>
<stop offset="0.67" stop-color="#F18F40"/>
<stop offset="1" stop-color="#E83E39"/>
</linearGradient>
<linearGradient id="paint4_linear_3244_726" x1="84.9886" y1="45.7354" x2="99.8036" y2="45.7354" gradientUnits="userSpaceOnUse">
<stop stop-color="#FBEE43"/>
<stop offset="0.04" stop-color="#FCE528"/>
<stop offset="0.12" stop-color="#FCD417"/>
<stop offset="0.2" stop-color="#FBCA14"/>
<stop offset="0.28" stop-color="#FCC612"/>
<stop offset="0.67" stop-color="#F18F40"/>
<stop offset="1" stop-color="#E83E39"/>
</linearGradient>
<linearGradient id="paint5_linear_3244_726" x1="99.936" y1="45.9586" x2="117.516" y2="45.9586" gradientUnits="userSpaceOnUse">
<stop stop-color="#FBEE43"/>
<stop offset="0.04" stop-color="#FCE528"/>
<stop offset="0.12" stop-color="#FCD417"/>
<stop offset="0.2" stop-color="#FBCA14"/>
<stop offset="0.28" stop-color="#FCC612"/>
<stop offset="0.67" stop-color="#F18F40"/>
<stop offset="1" stop-color="#E83E39"/>
</linearGradient>
<linearGradient id="paint6_linear_3244_726" x1="119.51" y1="41.3049" x2="145.161" y2="41.3049" gradientUnits="userSpaceOnUse">
<stop stop-color="#FBEE43"/>
<stop offset="0.04" stop-color="#FCE528"/>
<stop offset="0.12" stop-color="#FCD417"/>
<stop offset="0.2" stop-color="#FBCA14"/>
<stop offset="0.28" stop-color="#FCC612"/>
<stop offset="0.67" stop-color="#F18F40"/>
<stop offset="1" stop-color="#E83E39"/>
</linearGradient>
<linearGradient id="paint7_linear_3244_726" x1="148.152" y1="41.3043" x2="171.897" y2="41.3043" gradientUnits="userSpaceOnUse">
<stop stop-color="#FBEE43"/>
<stop offset="0.04" stop-color="#FCE528"/>
<stop offset="0.12" stop-color="#FCD417"/>
<stop offset="0.2" stop-color="#FBCA14"/>
<stop offset="0.28" stop-color="#FCC612"/>
<stop offset="0.67" stop-color="#F18F40"/>
<stop offset="1" stop-color="#E83E39"/>
</linearGradient>
<linearGradient id="paint8_linear_3244_726" x1="175.799" y1="41.3043" x2="191.996" y2="41.3043" gradientUnits="userSpaceOnUse">
<stop stop-color="#FBEE43"/>
<stop offset="0.04" stop-color="#FCE528"/>
<stop offset="0.12" stop-color="#FCD417"/>
<stop offset="0.2" stop-color="#FBCA14"/>
<stop offset="0.28" stop-color="#FCC612"/>
<stop offset="0.67" stop-color="#F18F40"/>
<stop offset="1" stop-color="#E83E39"/>
</linearGradient>
<clipPath id="clip0_3244_726">
<rect width="192" height="80" fill="white"/>
</clipPath>
</defs>
</svg>
