<svg width="25" height="25" viewBox="0 0 25 25" fill="none" xmlns="http://www.w3.org/2000/svg">
<path d="M13.1488 3.5468C13.1435 3.95104 13.1511 4.35527 13.1277 4.75838C13.1142 4.98744 13.1739 5.09917 13.4303 5.06436C13.5093 5.05369 13.593 5.05706 13.6726 5.06773C13.7476 5.07783 13.8195 5.10647 13.8933 5.12668C13.8623 5.19349 13.8453 5.27265 13.7979 5.32543C13.4742 5.68306 13.147 6.03789 12.8157 6.38878C12.4751 6.74922 12.4751 6.74529 12.152 6.37026C11.8324 5.99915 11.5064 5.63309 11.1862 5.26255C11.1482 5.21875 11.1318 5.15756 11.1055 5.10422C11.1687 5.08176 11.2307 5.04134 11.2945 5.0391C11.8798 5.01776 11.8804 5.01945 11.888 4.45633C11.898 3.7259 11.9126 2.99604 11.9144 2.26561C11.9149 2.06574 11.9828 1.98489 12.1982 2.0023C12.4236 2.02026 12.6519 2.02083 12.8784 2.01128C13.092 2.0023 13.1845 2.06293 13.1716 2.28863C13.1476 2.7069 13.1546 3.12741 13.1488 3.5468Z" fill="white"/>
<path d="M4.625 16.2383C5.0593 16.1636 5.46843 16.0928 5.87756 16.0221C6.70343 19.6636 9.70665 21.3249 12.4225 21.3591C15.4023 21.3967 18.066 19.5631 18.8907 16.9384C18.5747 16.8188 18.2545 16.6975 17.8863 16.5583C18.7502 15.8812 19.5767 15.2338 20.4658 14.5371C20.649 15.6128 20.8205 16.6189 21.0019 17.6839C20.697 17.5829 20.4377 17.497 20.1491 17.401C19.3297 19.4755 17.925 21.0189 15.819 21.9334C14.3563 22.5684 12.8205 22.7964 11.2425 22.519C7.77396 21.9093 5.24426 19.5069 4.625 16.2383Z" fill="white"/>
<path d="M19.1811 13.8025C18.3529 10.0964 15.252 8.51655 12.7269 8.46209C9.8964 8.40146 7.25841 10.0448 6.35879 12.3994C6.62335 12.4775 6.88733 12.5555 7.13608 12.6291C6.37167 13.3629 5.6213 14.0837 4.84167 14.8321C4.56775 13.8507 4.29207 12.8621 4 11.8139C4.39567 11.911 4.71817 11.9896 5.03717 12.0682C6.75388 8.25492 10.374 6.98721 13.1513 7.22245C17.1337 7.55875 19.8654 10.3929 20.4319 13.5813C20.024 13.6531 19.6149 13.7255 19.1811 13.8025Z" fill="white"/>
<path d="M8.33474 13.002C8.49219 13.0912 8.63793 13.1721 8.78133 13.2552C9.94843 13.9294 11.115 14.6054 12.2838 15.2774C12.3605 15.3212 12.3845 15.3701 12.3845 15.4532C12.3821 16.8843 12.3827 18.3159 12.3827 19.747C12.3827 19.7846 12.3827 19.8223 12.3827 19.8818C12.3213 19.8593 12.275 19.8498 12.237 19.8279C11.0898 19.162 9.94317 18.4956 8.79713 17.8286C8.65958 17.7483 8.52204 17.6675 8.38917 17.5799C8.35698 17.5586 8.32596 17.5097 8.32537 17.4732C8.32303 16.0034 8.32479 14.5335 8.32596 13.0631C8.32596 13.0502 8.32947 13.0368 8.33474 13.002Z" fill="white"/>
<path d="M17.1743 13.3594C17.1743 13.5834 17.1743 13.7866 17.1743 13.9899C17.1754 15.2666 17.1766 16.5433 17.1795 17.82C17.1795 17.8851 17.1585 17.921 17.0988 17.9508C15.8327 18.5768 14.5673 19.2045 13.3019 19.831C13.2831 19.8406 13.2621 19.8456 13.2287 19.858C13.2252 19.8215 13.2199 19.7928 13.2199 19.7637C13.2193 18.3079 13.2199 16.8515 13.2188 15.3957C13.2188 15.3396 13.2252 15.2997 13.2872 15.2694C14.5585 14.6445 15.8281 14.0174 17.0982 13.3903C17.1111 13.3835 17.1245 13.379 17.1743 13.3594Z" fill="white"/>
<path d="M8.84766 12.3329C9.14675 12.1802 9.43531 12.028 9.72796 11.8843C10.6691 11.4206 11.6127 10.9607 12.5538 10.497C12.6276 10.4605 12.682 10.4616 12.7546 10.5026C14.0083 11.2156 15.2644 11.9264 16.5193 12.6372C16.5819 12.6726 16.6451 12.7079 16.7212 12.7506C16.6844 12.7725 16.6592 12.7893 16.6317 12.8034C15.543 13.3452 14.4537 13.8864 13.3645 14.4282C13.1988 14.5107 13.0355 14.5983 12.8676 14.6758C12.8295 14.6932 12.764 14.6965 12.7306 14.6763C11.4412 13.9043 10.1535 13.129 8.8658 12.3542C8.86229 12.3514 8.86053 12.3481 8.84766 12.3329Z" fill="white"/>
</svg>
