<svg width="25" height="25" viewBox="0 0 25 25" fill="none" xmlns="http://www.w3.org/2000/svg">
<path d="M4.66016 13.9796C5.12024 13.8969 5.55332 13.8193 5.9864 13.7411C6.86101 17.7603 10.04 19.5933 12.9152 19.631C16.0699 19.6727 18.89 17.649 19.763 14.7518C19.4283 14.6196 19.0892 14.4858 18.6999 14.3322C19.615 13.5853 20.4896 12.8704 21.4312 12.1016C21.6252 13.2889 21.8063 14.3992 21.9987 15.5747C21.6758 15.4633 21.4014 15.3682 21.096 15.2625C20.2287 17.5517 18.7416 19.2553 16.512 20.2649C14.9636 20.9657 13.3376 21.2171 11.6665 20.9112C7.99377 20.2385 5.31597 17.5865 4.66016 13.9796Z" fill="white"/>
<path d="M20.0719 11.2922C19.195 7.20207 15.912 5.45792 13.2387 5.3983C10.242 5.33137 7.44892 7.14526 6.4967 9.74376C6.7768 9.82982 7.05633 9.91643 7.31956 9.99743C6.51076 10.8073 5.71602 11.6026 4.89091 12.4289C4.60125 11.3462 4.30935 10.2545 4 9.09807C4.41902 9.20494 4.76043 9.29212 5.09789 9.37873C6.91572 5.16995 10.7477 3.77058 13.6881 4.02987C17.9042 4.40109 20.7963 7.52885 21.3959 11.0481C20.9639 11.1274 20.5309 11.2078 20.0719 11.2922Z" fill="white"/>
<path d="M18.515 13.83C18.4773 13.8823 18.4464 13.9414 18.4008 13.9864C18.3018 14.0831 18.1803 14.1045 18.0549 14.0494C17.9312 13.9954 17.8547 13.8986 17.853 13.7586C17.8446 13.1585 17.6505 12.6303 17.2495 12.1815C16.898 11.7878 16.4598 11.5386 15.9412 11.4447C15.7579 11.4115 15.5683 11.4019 15.3816 11.4014C14.3895 11.3974 13.3967 11.3997 12.4046 11.3997C12.2657 11.3997 12.2657 11.3997 12.2657 11.5431C12.2657 11.9644 12.2628 12.3857 12.2668 12.8075C12.2685 12.965 12.2235 13.0915 12.071 13.1534C11.9198 13.2147 11.7932 13.1708 11.6745 13.0572C10.8781 12.2929 10.0783 11.5324 9.28019 10.7703C9.11933 10.6168 9.11371 10.4177 9.27119 10.2664C10.0817 9.49188 10.8927 8.71795 11.7055 7.94571C11.8916 7.7691 12.1813 7.84166 12.251 8.07845C12.2634 8.12063 12.2634 8.16788 12.2634 8.21231C12.2645 8.64427 12.2673 9.07623 12.2617 9.50763C12.2606 9.61055 12.2938 9.63418 12.3916 9.63361C13.3146 9.63024 14.237 9.62349 15.16 9.6353C15.9643 9.64543 16.673 9.93115 17.2872 10.4475C17.8901 10.9548 18.2681 11.5999 18.4363 12.3682C18.4621 12.4863 18.4711 12.6078 18.4902 12.7276C18.4953 12.7614 18.5071 12.7934 18.5156 12.8266C18.515 13.1613 18.515 13.4959 18.515 13.83Z" fill="white"/>
<path d="M7.68806 11.5011C7.72575 11.4488 7.75668 11.3898 7.80224 11.3448C7.90123 11.248 8.02272 11.2267 8.14814 11.2818C8.27188 11.3358 8.34837 11.4325 8.35006 11.5726C8.3585 12.1727 8.55254 12.7008 8.95357 13.1497C9.3051 13.5434 9.74324 13.7926 10.2618 13.8865C10.4452 13.9197 10.6347 13.9292 10.8214 13.9298C11.8136 13.9337 12.8063 13.9315 13.7985 13.9315C13.9374 13.9315 13.9374 13.9315 13.9374 13.7881C13.9374 13.3668 13.9402 12.9455 13.9363 12.5237C13.9346 12.3662 13.9796 12.2396 14.132 12.1778C14.2833 12.1165 14.4099 12.1603 14.5285 12.274C15.325 13.0383 16.1248 13.7987 16.9229 14.5609C17.0837 14.7144 17.0893 14.9135 16.9319 15.0648C16.1214 15.8393 15.3103 16.6132 14.4976 17.3855C14.3114 17.5621 14.0218 17.4895 13.952 17.2527C13.9397 17.2105 13.9397 17.1633 13.9397 17.1189C13.9385 16.6869 13.9357 16.2549 13.9413 15.8235C13.9425 15.7206 13.9093 15.697 13.8114 15.6976C12.8884 15.7009 11.966 15.7077 11.0431 15.6959C10.2388 15.6857 9.53007 15.4 8.91588 14.8837C8.31294 14.3764 7.93498 13.7312 7.76681 12.9629C7.74093 12.8448 7.73193 12.7233 7.71281 12.6035C7.70775 12.5698 7.69594 12.5377 7.6875 12.5046C7.68806 12.1699 7.68806 11.8358 7.68806 11.5011Z" fill="white"/>
</svg>
