<svg width="25" height="25" viewBox="0 0 25 25" fill="none" xmlns="http://www.w3.org/2000/svg">
<path d="M12.8407 4.12241C12.8354 3.70089 12.843 3.27937 12.8196 2.85901C12.8061 2.62015 12.8659 2.50365 13.1223 2.53994C13.2013 2.55107 13.285 2.54756 13.3647 2.53643C13.4396 2.52589 13.5116 2.49604 13.5854 2.47496C13.5543 2.40529 13.5374 2.32274 13.4899 2.26771C13.1662 1.89478 12.8389 1.52477 12.5076 1.15887C12.1668 0.78301 12.1668 0.787108 11.8437 1.17819C11.524 1.56517 11.1979 1.94688 10.8777 2.33328C10.8396 2.37895 10.8232 2.44276 10.7969 2.49838C10.8601 2.5218 10.9222 2.56395 10.986 2.56629C11.5714 2.58854 11.572 2.58678 11.5796 3.17399C11.5896 3.93566 11.6042 4.69674 11.606 5.45841C11.6066 5.66683 11.6745 5.75113 11.8899 5.73299C12.1153 5.71425 12.3436 5.71367 12.5702 5.72362C12.7839 5.73299 12.8764 5.66976 12.8635 5.43441C12.8395 4.99766 12.8465 4.55975 12.8407 4.12241Z" fill="white"/>
<path d="M4.3125 15.8052C4.74695 15.7274 5.15623 15.6536 5.5655 15.5798C6.39167 19.3772 9.39595 21.1096 12.1127 21.1453C15.0936 21.1846 17.7583 19.2724 18.5833 16.5353C18.2671 16.4106 17.9468 16.2842 17.5785 16.139C18.4428 15.4329 19.2695 14.7578 20.1589 14.0312C20.3422 15.153 20.5137 16.2022 20.6952 17.3128C20.3902 17.2074 20.1308 17.1179 19.8421 17.0178C19.0224 19.1811 17.6172 20.7906 15.5105 21.7443C14.0473 22.4065 12.5109 22.6442 10.9323 22.3549C7.46258 21.7191 4.93198 19.2139 4.3125 15.8052Z" fill="white"/>
<path d="M18.8818 13.267C18.0533 9.40229 14.9513 7.75477 12.4254 7.69798C9.5938 7.63475 6.95488 9.34843 6.05494 11.8039C6.3196 11.8853 6.58366 11.9667 6.83251 12.0434C6.06782 12.8086 5.31719 13.5603 4.53728 14.3408C4.26326 13.3174 3.98749 12.2863 3.69531 11.1933C4.09112 11.2945 4.41374 11.3765 4.73285 11.4585C6.45017 7.48194 10.0716 6.15994 12.8499 6.40525C16.8337 6.75595 19.5663 9.71142 20.1331 13.0363C19.725 13.1113 19.3157 13.1868 18.8818 13.267Z" fill="white"/>
<path d="M8.02224 12.4316C8.17973 12.5247 8.3255 12.609 8.46894 12.6957C9.63632 13.3988 10.8031 14.1037 11.9723 14.8045C12.049 14.8501 12.073 14.9011 12.073 14.9877C12.0706 16.48 12.0712 17.9729 12.0712 19.4652C12.0712 19.5045 12.0712 19.5437 12.0712 19.6057C12.0097 19.5823 11.9635 19.5724 11.9254 19.5495C10.778 18.8552 9.63106 18.1603 8.48475 17.4648C8.34716 17.381 8.20958 17.2967 8.07669 17.2054C8.04449 17.1831 8.01346 17.1322 8.01287 17.0942C8.01053 15.5615 8.01229 14.0287 8.01346 12.4955C8.01346 12.482 8.01697 12.4679 8.02224 12.4316Z" fill="white"/>
<path d="M16.8705 12.8047C16.8705 13.0383 16.8705 13.2502 16.8705 13.4621C16.8717 14.7935 16.8729 16.1248 16.8758 17.4561C16.8758 17.524 16.8547 17.5615 16.795 17.5925C15.5287 18.2453 14.2629 18.8998 12.9972 19.5532C12.9785 19.5631 12.9574 19.5684 12.924 19.5813C12.9205 19.5432 12.9152 19.5134 12.9152 19.4829C12.9146 17.9648 12.9152 16.4462 12.9141 14.9281C12.9141 14.8696 12.9205 14.828 12.9826 14.7964C14.2542 14.1448 15.524 13.4908 16.7944 12.8369C16.8073 12.8299 16.8208 12.8252 16.8705 12.8047Z" fill="white"/>
<path d="M8.53516 11.7329C8.83432 11.5736 9.12295 11.415 9.41567 11.2651C10.3571 10.7815 11.3008 10.302 12.2422 9.81844C12.316 9.78039 12.3704 9.78156 12.443 9.8243C13.6971 10.5678 14.9534 11.309 16.2086 12.0502C16.2713 12.0871 16.3345 12.1239 16.4106 12.1684C16.3737 12.1913 16.3486 12.2088 16.3211 12.2235C15.2321 12.7884 14.1426 13.3528 13.0531 13.9178C12.8874 14.0038 12.724 14.0952 12.556 14.1759C12.518 14.1941 12.4524 14.1976 12.419 14.1765C11.1293 13.3715 9.84129 12.563 8.55331 11.7551C8.54979 11.7522 8.54804 11.7487 8.53516 11.7329Z" fill="white"/>
</svg>
