<svg width="25" height="25" viewBox="0 0 25 25" fill="none" xmlns="http://www.w3.org/2000/svg">
<path d="M4.625 15.8455C5.05924 15.7677 5.46831 15.6939 5.87738 15.6202C6.70313 19.4159 9.70591 21.1476 12.4213 21.1833C15.4007 21.2225 18.0641 19.3112 18.8887 16.5753C18.5726 16.4506 18.2525 16.3242 17.8844 16.1791C18.7482 15.4733 19.5745 14.7985 20.4635 14.0723C20.6467 15.1936 20.8181 16.2423 20.9996 17.3524C20.6947 17.2471 20.4354 17.1576 20.1469 17.0575C19.3276 19.2199 17.923 20.8287 15.8174 21.782C14.3549 22.4439 12.8193 22.6815 11.2415 22.3924C7.7735 21.7568 5.24417 19.2521 4.625 15.8455Z" fill="white"/>
<path d="M19.1789 13.3045C18.3509 9.44143 15.2503 7.79461 12.7257 7.73784C9.89554 7.67464 7.25794 9.38759 6.35845 11.842C6.62297 11.9234 6.88691 12.0047 7.13563 12.0814C6.37133 12.8463 5.62107 13.5977 4.84155 14.3778C4.56767 13.3554 4.29203 12.3242 4 11.2322C4.39561 11.3335 4.71807 11.4154 5.03702 11.4973C6.75348 7.52248 10.3731 6.20104 13.15 6.44625C17.1318 6.7968 19.8631 9.75101 20.4296 13.0745C20.0217 13.1494 19.6126 13.2249 19.1789 13.3045Z" fill="white"/>
<path d="M8.33083 12.4727C8.48825 12.5657 8.63398 12.65 8.77736 12.7366C9.94429 13.4394 11.1106 14.1441 12.2793 14.8446C12.356 14.8902 12.38 14.9411 12.38 15.0277C12.3777 16.5195 12.3782 18.0118 12.3782 19.5035C12.3782 19.5427 12.3782 19.582 12.3782 19.644C12.3168 19.6206 12.2706 19.6106 12.2325 19.5878C11.0855 18.8937 9.93902 18.1991 8.79316 17.5038C8.65563 17.4201 8.5181 17.3359 8.38526 17.2446C8.35307 17.2223 8.32205 17.1714 8.32147 17.1334C8.31913 15.6013 8.32088 14.0691 8.32205 12.5364C8.32205 12.523 8.32556 12.5089 8.33083 12.4727Z" fill="white"/>
<path d="M17.1737 12.8438C17.1737 13.0773 17.1737 13.2891 17.1737 13.501C17.1749 14.8318 17.176 16.1626 17.179 17.4934C17.179 17.5612 17.1579 17.5987 17.0982 17.6297C15.8324 18.2822 14.5671 18.9365 13.3019 19.5896C13.2831 19.5996 13.2621 19.6048 13.2287 19.6177C13.2252 19.5797 13.2199 19.5498 13.2199 19.5194C13.2193 18.0019 13.2199 16.4838 13.2188 14.9664C13.2188 14.9078 13.2252 14.8663 13.2872 14.8347C14.5583 14.1833 15.8277 13.5296 17.0976 12.8759C17.1105 12.8695 17.1239 12.8648 17.1737 12.8438Z" fill="white"/>
<path d="M8.84766 11.7731C9.14671 11.6139 9.43522 11.4554 9.72783 11.3055C10.6689 10.8221 11.6123 10.3428 12.5533 9.85945C12.627 9.82141 12.6815 9.82258 12.754 9.8653C14.0076 10.6085 15.2635 11.3494 16.5182 12.0903C16.5808 12.1272 16.644 12.1641 16.7201 12.2085C16.6832 12.2314 16.658 12.2489 16.6305 12.2635C15.542 12.8283 14.4529 13.3924 13.3638 13.9572C13.1982 14.0432 13.0349 14.1345 12.867 14.2153C12.8289 14.2334 12.7634 14.2369 12.73 14.2159C11.4408 13.4112 10.1533 12.603 8.8658 11.7954C8.86229 11.7924 8.86053 11.7889 8.84766 11.7731Z" fill="white"/>
<path d="M10.5158 4.35095C10.72 4.56046 10.9038 4.74773 11.0869 4.93559C11.1648 5.01576 11.2455 5.09301 11.3158 5.17904C11.4334 5.32183 11.4182 5.51847 11.2877 5.64956C11.1648 5.77246 10.967 5.78299 10.8253 5.67297C10.806 5.65775 10.7885 5.64019 10.7709 5.62264C10.3548 5.19777 9.93814 4.77406 9.52439 4.34685C9.43075 4.25029 9.33478 4.1508 9.33595 3.99864C9.3377 3.82015 9.45124 3.68321 9.62797 3.65629C9.66075 3.65161 9.69352 3.64692 9.72629 3.64692C11.1759 3.64634 12.6249 3.64634 14.0745 3.64692C14.2179 3.64692 14.3425 3.68379 14.421 3.81839C14.5415 4.02556 14.4362 4.27896 14.2027 4.33222C14.143 4.34568 14.0804 4.35036 14.0189 4.35036C12.9041 4.35153 11.7892 4.35095 10.6744 4.35095C10.631 4.35095 10.5872 4.35095 10.5158 4.35095Z" fill="white"/>
<path d="M13.2879 2.36767C13.114 2.19444 12.9654 2.04755 12.8179 1.90007C12.7184 1.80117 12.6172 1.70344 12.5206 1.60161C12.379 1.45238 12.3767 1.25399 12.5107 1.11236C12.6459 0.970152 12.863 0.958448 13.0099 1.103C13.4623 1.55011 13.9094 2.00307 14.3588 2.45369C14.4723 2.56723 14.5086 2.70007 14.4437 2.84872C14.377 3.00263 14.2476 3.06291 14.0849 3.06291C12.9531 3.06291 11.8207 3.06291 10.6889 3.06291C10.3623 3.06291 10.0358 3.06642 9.7098 3.06174C9.42831 3.05764 9.25684 2.81185 9.36452 2.57249C9.43123 2.42443 9.55296 2.36591 9.71331 2.3665C10.2833 2.36884 10.8539 2.36767 11.4239 2.36767C12.0308 2.36767 12.6383 2.36767 13.2879 2.36767Z" fill="white"/>
</svg>
