<svg width="25" height="25" viewBox="0 0 25 25" fill="none" xmlns="http://www.w3.org/2000/svg">
<g clip-path="url(#clip0_306_59)">
<path d="M16.2913 3C16.3923 3.1374 16.3501 3.29081 16.3277 3.43663C16.2606 3.87242 16.09 4.28124 15.9856 4.70776C15.8216 5.37788 15.641 6.04295 15.4745 6.71307C15.448 6.82096 15.4016 6.84288 15.2997 6.84204C13.9752 6.83866 12.6516 6.83866 11.3271 6.84288C11.2276 6.84288 11.1837 6.81422 11.1473 6.72234C10.8491 5.96961 10.5459 5.21773 10.2436 4.46668C10.1574 4.25342 10.0232 4.06461 9.94207 3.84882C9.90811 3.75863 9.87166 3.66844 9.86752 3.5715C9.86255 3.47035 9.91308 3.42989 10.0075 3.46024C10.1077 3.49227 10.1873 3.5597 10.2668 3.62713C10.6147 3.92047 10.9858 4.16829 11.4306 4.29304C11.8398 4.40768 12.1951 4.31496 12.5132 4.04607C12.6748 3.90951 12.8297 3.76622 12.9489 3.58499C13.0293 3.46276 13.1295 3.35571 13.2471 3.26805C13.3888 3.16184 13.4683 3.17617 13.5801 3.31441C13.8394 3.63472 14.1376 3.90783 14.5103 4.08821C14.8077 4.23235 15.0711 4.15986 15.313 3.9584C15.3991 3.88675 15.4704 3.79825 15.5333 3.70468C15.7131 3.44001 15.9028 3.1846 16.1687 3.00084C16.2084 3 16.2498 3 16.2913 3Z" fill="white"/>
<path d="M7.60796 12.6782C7.68086 12.4405 7.77198 12.2298 7.85481 12.0165C7.87552 11.9634 7.91362 11.9685 7.95504 11.9685C8.09503 11.9693 8.23584 11.9693 8.37583 11.9685C8.74279 11.966 9.03353 11.7224 9.08406 11.3776C9.13542 11.0236 8.93662 10.7109 8.58789 10.5945C8.57298 10.5895 8.55724 10.5836 8.53404 10.5751C8.63427 10.3551 8.76432 10.1587 8.89271 9.96065C8.92171 9.91598 8.96229 9.9244 9.00205 9.92356C9.15033 9.92356 9.29943 9.92441 9.4477 9.92272C9.95547 9.91766 10.2661 9.39842 10.0284 8.94409C9.98446 8.86064 10.0193 8.83872 10.0764 8.80248C10.7059 8.3945 11.3993 8.16438 12.1348 8.07166C13.1388 7.94438 14.1344 7.9899 15.1135 8.26385C15.3198 8.32201 15.5202 8.39703 15.7174 8.48217C15.782 8.50998 15.7969 8.53358 15.777 8.61029C15.4233 9.92019 15.536 11.1863 16.1614 12.3908C16.7337 13.4933 17.5969 14.2764 18.7342 14.7425C18.8245 14.7796 18.8568 14.8159 18.8468 14.9229C18.7648 15.8105 18.3225 16.457 17.5828 16.9097C16.959 17.2915 16.2707 17.4863 15.5616 17.6085C14.1957 17.8445 12.8207 17.8681 11.444 17.7551C10.6703 17.6911 9.90743 17.5554 9.18263 17.2561C8.57629 17.0066 8.04118 16.6577 7.67009 16.0895C7.41579 15.6993 7.28988 15.2652 7.25841 14.8024C7.24101 14.547 7.25178 14.2907 7.27994 14.0362C7.28823 13.962 7.30728 13.9266 7.3926 13.9308C7.56158 13.9392 7.73056 13.935 7.89954 13.9325C8.2491 13.9283 8.51582 13.6644 8.52162 13.3189C8.52742 12.9674 8.26566 12.6909 7.91196 12.6782C7.81505 12.6757 7.71979 12.6782 7.60796 12.6782ZM13.8445 12.5324C13.8445 12.5273 13.8445 12.5231 13.8445 12.5181C13.9389 12.5181 14.0342 12.5206 14.1286 12.5172C14.3879 12.5096 14.4152 12.4667 14.3225 12.2188C14.3109 12.1876 14.2959 12.1573 14.2802 12.1278C14.1253 11.8539 13.8768 11.7106 13.5869 11.6482C13.451 11.6187 13.3955 11.5715 13.4187 11.4324C13.4361 11.3304 13.3848 11.3001 13.2903 11.3085C13.2125 11.3152 13.1338 11.3093 13.0551 11.3102C12.8654 11.3102 12.8621 11.3102 12.8638 11.5015C12.8646 11.5748 12.853 11.6102 12.7685 11.6237C12.6053 11.6507 12.4504 11.7114 12.3129 11.8092C12.1 11.9601 11.9501 12.1506 11.9534 12.4304C11.9567 12.7178 12.1183 12.9134 12.3295 13.0761C12.4778 13.1907 12.6509 13.2615 12.8116 13.3559C12.9259 13.4225 13.0452 13.4815 13.1404 13.5768C13.1876 13.6231 13.2241 13.6771 13.1901 13.7428C13.157 13.8086 13.0907 13.812 13.0278 13.8027C12.8994 13.7841 12.8223 13.7024 12.7842 13.5818C12.7652 13.522 12.7378 13.4916 12.6708 13.495C12.4239 13.5085 12.1762 13.5186 11.9294 13.5262C11.8557 13.5287 11.8358 13.5641 11.8416 13.629C11.854 13.7589 11.8764 13.8861 11.9385 14.0025C12.0942 14.2924 12.3585 14.4155 12.6558 14.4855C12.8505 14.5318 12.8546 14.5293 12.8629 14.7248C12.8662 14.81 12.8944 14.8429 12.9806 14.8378C13.0957 14.8311 13.2117 14.8336 13.3268 14.8361C13.3955 14.8378 13.4262 14.8108 13.4196 14.7392C13.4163 14.7021 13.4229 14.6633 13.4179 14.6262C13.4063 14.5445 13.4411 14.5209 13.519 14.5082C13.7078 14.4787 13.8867 14.4138 14.0425 14.2983C14.2893 14.1154 14.4086 13.871 14.3572 13.5582C14.3167 13.3121 14.151 13.1511 13.958 13.023C13.7824 12.9058 13.5952 12.8089 13.4138 12.701C13.3251 12.6479 13.234 12.5982 13.1653 12.5172C13.1297 12.4751 13.1073 12.427 13.1562 12.3849C13.1984 12.3486 13.2481 12.3672 13.2746 12.4085C13.3632 12.5493 13.4925 12.5509 13.6333 12.5332C13.7029 12.5257 13.7741 12.5324 13.8445 12.5324Z" fill="white"/>
<path d="M20.5739 14.5174C18.1493 14.5208 16.1738 12.5138 16.1564 10.0592C16.139 7.60378 18.0806 5.5285 20.5755 5.52345C23.0125 5.51839 24.9997 7.53803 25.0005 10.0154C25.0005 12.5071 23.0274 14.5149 20.5739 14.5174ZM16.7403 10.0297C16.7437 12.1817 18.4815 13.9341 20.6029 13.9248C22.7077 13.9156 24.414 12.1572 24.4107 10.0027C24.4074 7.86593 22.6812 6.11939 20.5755 6.12361C18.4567 6.12698 16.737 7.87857 16.7403 10.0297Z" fill="white"/>
<path d="M4.71904 10.9337C5.93586 10.9337 7.15269 10.9337 8.36869 10.9337C8.63707 10.9337 8.80439 11.157 8.71162 11.3922C8.65695 11.5304 8.54843 11.5987 8.4043 11.6055C8.33058 11.6088 8.25603 11.6046 8.18148 11.6046C5.81824 11.6046 3.455 11.6046 1.09176 11.6046C0.887985 11.6046 0.772018 11.5355 0.715691 11.3838C0.641141 11.1781 0.779473 10.9539 0.99484 10.9353C1.03212 10.932 1.06939 10.9345 1.10584 10.9345C2.31107 10.9337 3.51464 10.9337 4.71904 10.9337Z" fill="white"/>
<path d="M7.29062 9.62933C6.57742 9.62933 5.86423 9.63102 5.1502 9.62849C4.89342 9.62765 4.72941 9.43125 4.77248 9.1868C4.80313 9.01316 4.94726 8.89009 5.13198 8.8884C5.4161 8.88588 5.70104 8.88756 5.98516 8.88756C7.13572 8.88756 8.28628 8.8884 9.43601 8.88672C9.60085 8.88672 9.72096 8.95668 9.79054 9.10925C9.8568 9.25508 9.82616 9.38826 9.72758 9.50627C9.64723 9.60236 9.53872 9.63018 9.41696 9.63018C8.70956 9.62849 7.99967 9.62933 7.29062 9.62933Z" fill="white"/>
<path d="M13.2961 7.17209C13.9148 7.17209 14.5336 7.17124 15.1515 7.17293C15.3238 7.17377 15.4381 7.26228 15.4837 7.41906C15.5243 7.55899 15.4688 7.71071 15.347 7.79332C15.2824 7.83715 15.2095 7.84727 15.135 7.84727C13.8974 7.84727 12.6607 7.84811 11.4232 7.84727C11.2161 7.84727 11.0695 7.7006 11.0703 7.50757C11.0711 7.31875 11.212 7.17546 11.4149 7.17461C12.0428 7.1704 12.6698 7.17293 13.2961 7.17209C13.2961 7.17293 13.2961 7.17293 13.2961 7.17209Z" fill="white"/>
<path d="M3.32651 12.8519C3.64376 12.8519 3.96101 12.8511 4.27826 12.8519C4.53588 12.8528 4.7148 13.0171 4.71894 13.2574C4.72391 13.4934 4.54499 13.6704 4.28738 13.6721C3.64459 13.6755 3.0018 13.6763 2.35818 13.6738C2.09477 13.6729 1.9084 13.4909 1.91419 13.2549C1.91999 13.018 2.10802 12.8528 2.37392 12.8528C2.69117 12.8511 3.00925 12.8519 3.32651 12.8519Z" fill="white"/>
<path d="M6.90242 13.7159C6.58102 13.7159 6.25963 13.7175 5.93823 13.715C5.68145 13.7133 5.49673 13.5397 5.50004 13.3062C5.50336 13.0693 5.68642 12.8999 5.94155 12.8991C6.58433 12.8982 7.22712 12.8982 7.86991 12.8991C8.12255 12.8991 8.30645 13.0736 8.30645 13.3096C8.30562 13.5405 8.12835 13.7125 7.87902 13.715C7.55349 13.7184 7.22795 13.7159 6.90242 13.7159Z" fill="white"/>
<path d="M22.1845 17.196C22.1116 17.0932 21.9865 17.1109 21.8755 17.1218C21.5318 17.1547 21.2104 17.2744 20.8906 17.3966C19.4651 17.9386 18.0395 18.4806 16.5833 18.935C15.489 19.2764 14.3915 19.6068 13.2343 19.6582C13.2269 19.6978 13.2559 19.7273 13.2691 19.761C13.4008 20.1033 13.2898 20.3604 12.9494 20.4758C12.7191 20.5534 12.4797 20.5551 12.2395 20.545C11.7259 20.5222 11.2256 20.4185 10.7352 20.2702C9.08684 19.7712 7.54697 19.0159 6.03028 18.2058C6.00958 18.1949 5.97561 18.1662 5.9781 18.1603C6.01289 18.0811 6.04354 17.996 6.09572 17.9285C6.13714 17.8737 6.18435 17.9395 6.22246 17.9606C7.29018 18.5312 8.3753 19.0639 9.50018 19.509C10.3186 19.8327 11.1444 20.1311 12.0258 20.2179C12.3041 20.2457 12.5866 20.2676 12.8599 20.1791C13.0198 20.1277 13.0604 20.0434 12.99 19.8917C12.8798 19.6548 12.734 19.4483 12.4913 19.3227C11.8643 18.9982 11.2355 18.6779 10.5986 18.3736C9.29807 17.7532 7.98433 17.1648 6.61592 16.7147C5.91349 16.4838 5.20278 16.2949 4.45645 16.268C3.5693 16.2359 2.68298 16.2595 1.79666 16.2848C1.67489 16.2882 1.66413 16.2469 1.66744 16.1466C1.67324 15.9283 1.66661 15.71 1.67075 15.4916C1.67158 15.4309 1.65667 15.4132 1.5962 15.4141C1.06441 15.4175 0.531792 15.4175 0 15.4183C0 17.5172 0 19.6169 0 21.7158C0.535933 21.7175 1.07187 21.7183 1.6078 21.7234C1.68401 21.7242 1.6691 21.6778 1.66992 21.634C1.67075 21.3862 1.67655 21.1384 1.6691 20.8914C1.66661 20.8105 1.69726 20.7827 1.7627 20.7574C2.50903 20.4649 3.26778 20.2128 4.0663 20.1159C4.66767 20.0434 5.22431 20.094 5.718 20.5399C6.16779 20.947 6.72194 21.2092 7.26202 21.4772C8.52937 22.1077 9.83235 22.6421 11.2256 22.9119C11.6232 22.9886 12.0249 23.0375 12.4292 22.9582C13.0802 22.831 13.6907 22.5789 14.2954 22.3134C16.3721 21.4014 18.3642 20.3216 20.3182 19.1659C20.6521 18.9687 20.9875 18.7698 21.2692 18.4941C21.2816 18.4849 21.2932 18.4747 21.3056 18.4655C21.3214 18.4672 21.328 18.4596 21.3272 18.4436C21.3205 18.4385 21.3139 18.4334 21.3073 18.4292C21.2932 18.4402 21.2791 18.4503 21.265 18.4613C21.2601 18.4655 21.2559 18.4697 21.2526 18.4747C21.212 18.495 21.1731 18.5194 21.1308 18.5346C21.0323 18.5708 20.9221 18.6442 20.8343 18.5388C20.7482 18.4351 20.8252 18.3281 20.8823 18.2396C21.1019 17.8999 21.3943 17.6394 21.7446 17.4472C21.8101 17.411 21.8797 17.3823 21.955 17.3789C22.0586 17.3739 22.124 17.4135 22.1075 17.534C22.0992 17.556 22.0727 17.5863 22.1033 17.5973C22.134 17.6082 22.1356 17.572 22.1364 17.5467C22.1853 17.4346 22.2715 17.3183 22.1845 17.196ZM12.7473 20.0636C12.2594 20.1075 11.7922 20.0274 11.349 19.8141C11.8377 19.7712 12.3041 19.8521 12.7473 20.0636ZM0.713197 21.2362C0.460555 21.2378 0.249329 21.0254 0.247672 20.7675C0.246016 20.5104 0.454756 20.2946 0.707399 20.2929C0.961698 20.2912 1.17127 20.5028 1.17209 20.7616C1.17292 21.022 0.967496 21.2345 0.713197 21.2362Z" fill="white"/>
<path d="M21.7846 18.0129C21.7854 18.0112 21.787 18.0095 21.7879 18.0078C21.7854 18.0087 21.7837 18.0095 21.7812 18.0103L21.7846 18.0129Z" fill="white"/>
<path d="M22.0044 17.7862C21.9978 17.7777 21.9912 17.7693 21.9837 17.7617C21.9191 17.8443 21.8545 17.9269 21.7891 18.0095C21.8959 17.9699 21.9307 17.8578 22.0044 17.7862Z" fill="white"/>
<path d="M21.7193 18.0758C21.7168 18.0783 21.7234 18.0884 21.7259 18.0943C21.735 18.0884 21.745 18.0817 21.7541 18.0758C21.7508 18.0682 21.7483 18.0614 21.7458 18.0547C21.7367 18.0623 21.7268 18.0682 21.7193 18.0758Z" fill="white"/>
<path d="M21.6501 18.129C21.6501 18.129 21.6484 18.1281 21.6484 18.1273C21.6484 18.1281 21.6493 18.1298 21.6493 18.1307C21.6501 18.1307 21.6501 18.1298 21.6501 18.129C21.6633 18.1475 21.6783 18.1475 21.694 18.1324C21.6965 18.1298 21.6932 18.1222 21.6923 18.1172C21.6783 18.1206 21.6642 18.1248 21.6501 18.129Z" fill="white"/>
<path d="M21.5791 18.2066C21.5758 18.2159 21.5683 18.2319 21.5708 18.2344C21.5832 18.2437 21.5907 18.2336 21.5957 18.2226C21.6172 18.2234 21.6321 18.2142 21.6379 18.1922C21.6263 18.1922 21.6139 18.1914 21.6023 18.1914C21.5948 18.1956 21.5874 18.2015 21.5791 18.2066Z" fill="white"/>
<path d="M21.371 18.4246C21.3743 18.4161 21.3768 18.4069 21.3801 18.3984C21.3718 18.4018 21.3635 18.4052 21.3552 18.4086C21.3387 18.4161 21.3221 18.4237 21.3047 18.4313C21.3113 18.4364 21.3179 18.4414 21.3246 18.4456C21.3469 18.4532 21.3602 18.4414 21.371 18.4246Z" fill="white"/>
<path d="M21.6188 18.1571C21.6255 18.1588 21.6296 18.1579 21.6338 18.1562C21.628 18.1562 21.623 18.1571 21.6172 18.1571H21.6188Z" fill="white"/>
<path d="M21.6328 18.1525C21.6403 18.1517 21.6469 18.1517 21.6543 18.1508C21.6519 18.1432 21.6502 18.1365 21.6477 18.1289C21.6436 18.1382 21.6403 18.1483 21.6328 18.1525Z" fill="white"/>
<path d="M21.6372 18.1917C21.643 18.174 21.6372 18.163 21.6214 18.1562C21.6148 18.1681 21.6082 18.179 21.6016 18.1908C21.614 18.1908 21.6256 18.1917 21.6372 18.1917Z" fill="white"/>
<path d="M21.5032 18.2837C21.499 18.2896 21.4907 18.2972 21.4924 18.2997C21.5015 18.3149 21.5081 18.3014 21.5148 18.2955C21.5197 18.2896 21.5305 18.2795 21.5289 18.2778C21.5173 18.2609 21.5098 18.2736 21.5032 18.2837Z" fill="white"/>
<path d="M22.0258 17.7024C22.0059 17.7175 21.9844 17.731 21.9844 17.7605C21.991 17.769 21.9976 17.7774 22.0051 17.785C22.0399 17.7757 22.0407 17.747 22.0415 17.7184C22.0448 17.7091 22.0482 17.7007 22.0523 17.6914C22.044 17.6956 22.0349 17.699 22.0258 17.7024Z" fill="white"/>
<path d="M22.0703 17.6504L22.0761 17.6521L22.0736 17.6445L22.0703 17.6504Z" fill="white"/>
<path d="M21.7847 18.0384C21.7838 18.0308 21.7838 18.0232 21.783 18.0156C21.7772 18.0215 21.7714 18.0283 21.7656 18.0342C21.7723 18.0359 21.7789 18.0367 21.7847 18.0384Z" fill="white"/>
<path d="M20.9335 8.14937C20.9335 8.6273 20.9335 9.10608 20.9335 9.58402C20.9335 9.73996 21.0346 9.8428 21.1845 9.8428C21.8232 9.8428 22.4626 9.8428 23.1013 9.84448C23.2537 9.84532 23.3548 9.92793 23.3763 10.062C23.3987 10.1985 23.3365 10.3131 23.2139 10.3671C23.1659 10.3882 23.117 10.3856 23.0682 10.3856C22.4378 10.3856 21.8066 10.3865 21.1762 10.3848C21.1116 10.3848 21.0652 10.3966 21.0172 10.4497C20.8242 10.6596 20.5227 10.6621 20.3231 10.464C20.1284 10.271 20.1309 9.95659 20.3371 9.75682C20.3885 9.70709 20.4009 9.65904 20.4009 9.59329C20.3993 8.62815 20.3993 7.66384 20.4001 6.6987C20.4001 6.47785 20.5873 6.34299 20.7745 6.42812C20.8938 6.48291 20.9327 6.58659 20.9327 6.71556C20.9311 7.19349 20.9319 7.67227 20.9319 8.15021C20.9319 8.14937 20.9327 8.14937 20.9335 8.14937Z" fill="white"/>
</g>
<defs>
<clipPath id="clip0_306_59">
<rect width="25" height="25" fill="white"/>
</clipPath>
</defs>
</svg>
