<svg width="25" height="25" viewBox="0 0 25 25" fill="none" xmlns="http://www.w3.org/2000/svg">
<path d="M22.8334 3C24.4323 3.42134 25.0508 4.20299 24.9929 5.34852C24.9085 7.03389 24.9737 8.72167 24.97 10.4082C24.9676 11.7776 23.8463 12.5221 21.7748 12.5257C19.6985 12.5293 17.6222 12.5437 15.5459 12.5174C14.8249 12.5078 14.234 12.6071 13.6866 12.9303C13.1778 13.2308 12.6015 13.4809 12.0528 13.7503C11.79 13.8795 11.5247 14.0268 11.1678 13.9071C10.7989 13.7838 10.7265 13.5623 10.7277 13.3074C10.735 12.1367 10.7313 10.966 10.7313 9.79538C10.7313 8.32666 10.7856 6.85674 10.7145 5.39041C10.659 4.25206 11.2522 3.4393 12.8607 3.0012C16.1862 3 19.5104 3 22.8334 3ZM17.8477 8.19379C18.9449 8.19379 20.0409 8.19499 21.1382 8.19379C21.6156 8.19259 22.1004 8.13035 22.0787 7.73773C22.0569 7.35828 21.5795 7.30083 21.0996 7.30083C18.9353 7.30322 16.7721 7.30083 14.6078 7.30202C14.1304 7.30202 13.6661 7.36068 13.677 7.76167C13.689 8.17344 14.187 8.1902 14.6464 8.19259C15.7135 8.19738 16.7806 8.19499 17.8477 8.19379ZM17.8585 6.26063C18.9859 6.26063 20.1133 6.25943 21.2407 6.26183C21.6699 6.26303 22.0533 6.17804 22.0678 5.85964C22.0835 5.51251 21.6952 5.3952 21.2274 5.3952C19.0028 5.394 16.777 5.394 14.5524 5.3952C14.099 5.3952 13.6903 5.4742 13.6878 5.83929C13.6854 6.22233 14.1219 6.26063 14.5656 6.26063C15.6629 6.26183 16.7601 6.26183 17.8585 6.26063ZM15.7087 10.1078C16.1813 10.1078 16.6552 10.121 17.1254 10.1042C17.5101 10.0898 17.8284 9.97373 17.8416 9.68166C17.8549 9.39079 17.5535 9.24116 17.1676 9.23279C16.2235 9.21244 15.2782 9.21244 14.3341 9.23039C13.9447 9.23757 13.6565 9.3872 13.6698 9.68166C13.683 9.97852 13.9929 10.091 14.3799 10.1054C14.8212 10.1222 15.265 10.1102 15.7087 10.1078Z" fill="white"/>
<path d="M2.40181 15.6523C3.1976 15.0909 4.02233 14.8994 4.55407 14.824C2.08952 13.8329 0.934409 11.9931 1.39621 10.0336C1.84234 8.14235 3.56535 6.79811 5.45476 6.86993C7.44304 6.94534 9.0503 8.47751 9.29989 10.5352C9.52537 12.3953 8.23884 14.0986 6.11551 14.7534C9.38671 15.8714 10.7818 17.704 10.713 20.718C10.6937 21.5811 10.3959 22.0072 9.45785 21.9952C6.69668 21.9617 3.93552 21.9701 1.17315 21.9952C0.945261 21.9976 0.702905 22.0252 0.487076 21.8743C-0.545045 21.1549 0.0493892 17.3126 2.40181 15.6523Z" fill="white"/>
</svg>
