<svg width="25" height="25" viewBox="0 0 25 25" fill="none" xmlns="http://www.w3.org/2000/svg">
<g clip-path="url(#clip0_306_35)">
<path d="M24.9939 23.4455C24.991 23.9175 24.9854 24.3868 24.9882 24.8588C24.9882 24.9733 24.9546 25.0012 24.8423 25.0012C22.6816 24.9984 20.5208 24.9984 18.3601 25.0012C18.2479 25.0012 18.203 24.9761 18.2142 24.8588C18.2226 24.7778 18.2142 24.6968 18.2114 24.6158C18.2114 24.4538 18.2114 24.289 18.2114 24.127C18.2058 24.0544 18.2535 24.0432 18.3096 24.0348C18.4078 24.0209 18.5116 24.0376 18.6099 23.9985C18.6856 23.9929 18.7642 23.9902 18.84 23.9846C18.8512 23.9846 18.8652 23.9818 18.8764 23.9818C18.9073 23.9762 18.9354 23.9706 18.9662 23.965C19.1318 23.9734 19.2918 23.9427 19.4545 23.9259C19.6173 23.9092 19.78 23.8924 19.9428 23.8756C20.1055 23.8617 20.2711 23.8477 20.4339 23.8337C20.5938 23.8198 20.7538 23.8058 20.9137 23.7918C20.9418 23.7891 20.9726 23.7863 21.0007 23.7835C21.026 23.8002 21.0484 23.7918 21.0709 23.7751C21.416 23.7611 21.7584 23.7192 22.1007 23.6745C22.1653 23.6718 22.2298 23.669 22.2943 23.6634C22.488 23.6326 22.6872 23.6494 22.8808 23.6019C23.0464 23.6075 23.2063 23.5796 23.3691 23.56C23.3831 23.5544 23.4 23.5517 23.414 23.5461C23.4561 23.5684 23.4982 23.5712 23.5375 23.5405C23.6441 23.5321 23.7563 23.5517 23.8602 23.5098C23.9247 23.507 23.9893 23.5014 24.0566 23.4986C24.0819 23.4958 24.1071 23.4958 24.1296 23.493C24.2025 23.4846 24.2755 23.4762 24.3484 23.4679C24.514 23.4539 24.6796 23.4371 24.8423 23.4232C24.9013 23.4483 24.9546 23.3841 24.9939 23.4455Z" fill="white"/>
<path d="M16.0307 9.19253e-05C16.5217 0.407868 17.0128 0.815643 17.5011 1.22621C17.5179 1.24018 17.5376 1.25693 17.5544 1.2709C17.6667 1.37983 17.7845 1.48037 17.9136 1.56696C17.9809 1.65075 18.0735 1.7094 18.1549 1.77643C18.2531 1.85743 18.3514 1.93563 18.4496 2.01663C18.5197 2.09204 18.5955 2.15907 18.6825 2.21214C18.7386 2.28475 18.8144 2.33223 18.8873 2.38251C19.3981 2.80983 19.9116 3.23716 20.4223 3.66449C20.6047 3.83207 20.7927 3.99127 20.9919 4.1365C21.1266 4.26498 21.2641 4.38787 21.4213 4.49121C21.584 4.66158 21.7749 4.80123 21.9545 4.95205C21.9994 4.98836 22.0779 5.01629 22.033 5.10287C21.9573 5.16991 21.8927 5.24532 21.8394 5.3319C21.7636 5.39893 21.6963 5.46876 21.6486 5.56092C21.4522 5.74805 21.295 5.9687 21.121 6.17538C20.7338 6.62784 20.3549 7.08589 19.9733 7.54394C19.9649 7.55511 19.9593 7.56349 19.9509 7.57467C19.8078 7.71711 19.6843 7.87631 19.5608 8.03551C19.5271 8.07461 19.4935 8.11371 19.4598 8.15561C19.3644 8.27012 19.2662 8.38184 19.1708 8.49635C19.0136 8.68069 18.8537 8.86223 18.6965 9.04936C18.3093 9.513 17.922 9.97663 17.5348 10.4431C17.4899 10.471 17.459 10.5129 17.4366 10.5632C17.3271 10.6665 17.2345 10.781 17.1475 10.9011C17.0914 10.9681 17.0381 11.0324 16.982 11.0994C16.8809 11.1944 16.7911 11.3033 16.7154 11.4178C16.6256 11.4932 16.5526 11.5826 16.4909 11.6804C16.4151 11.7446 16.3534 11.8228 16.2973 11.9066C15.8707 12.3954 15.4498 12.8897 15.0457 13.3952C14.8942 13.5489 14.7595 13.7164 14.6276 13.8896C14.6164 13.9036 14.6051 13.9175 14.5967 13.9315C14.4452 14.0795 14.3133 14.2443 14.1898 14.4147C13.6454 15.0291 13.1207 15.6604 12.6016 16.2972C12.5903 16.3083 12.5819 16.3223 12.5707 16.3335C12.5061 16.4033 12.4528 16.5094 12.3743 16.5346C12.2873 16.5625 12.2396 16.4173 12.1442 16.3921C12.1049 16.3279 12.0375 16.2972 11.9814 16.2525C11.8663 16.1659 11.7765 16.0486 11.6503 15.9788C11.597 15.9061 11.524 15.8614 11.4538 15.8112C11.3668 15.7218 11.2742 15.6408 11.1676 15.5738C10.5026 15.0152 9.83749 14.4594 9.17244 13.9008C9.16963 13.8896 9.16121 13.884 9.14999 13.8868C9.00126 13.7472 8.84973 13.6159 8.68136 13.4986C8.6533 13.4539 8.61121 13.4204 8.5607 13.4008C8.44845 13.2835 8.32217 13.1802 8.19028 13.0852C8.11452 13.0182 8.03595 12.9512 7.96018 12.8841C7.71324 12.6607 7.43543 12.4791 7.21094 12.2334C7.36528 12.2138 7.48875 12.3227 7.63747 12.3311C7.9686 12.4596 8.30814 12.5601 8.65049 12.6551C8.81886 12.7249 8.99284 12.7808 9.17244 12.8199C9.2005 12.8618 9.2482 12.8562 9.28749 12.8674C9.57372 12.9512 9.85153 13.0741 10.1518 13.1076C10.4969 13.1746 10.8196 13.0964 11.1311 12.9456C11.5324 12.7501 11.8186 12.4568 11.9533 12.0267C12.0572 11.8507 12.0852 11.6552 12.0768 11.4541C12.0852 11.2865 12.0824 11.1218 12.0123 10.9653C11.973 10.7782 11.886 10.6162 11.7794 10.4598C11.51 10.0632 11.0862 9.87608 10.685 9.66102C10.3622 9.46552 10.0339 9.28118 9.69719 9.11081C9.6102 9.05774 9.5204 9.00747 9.43341 8.9544C9.21734 8.82034 8.9732 8.72817 8.77958 8.5578C8.89743 8.41535 9.01529 8.2757 9.13315 8.13326C9.15841 8.10533 9.18366 8.07461 9.20892 8.04668C9.338 7.89307 9.48111 7.75062 9.59336 7.58304C9.63545 7.54953 9.67755 7.51322 9.69719 7.46015C9.81785 7.33726 9.9301 7.20878 10.0311 7.06634C10.1041 6.99652 10.1714 6.9239 10.2219 6.83452C10.3145 6.76191 10.3763 6.66415 10.4492 6.57478C10.9964 5.92401 11.5464 5.27325 12.0936 4.62248C12.1105 4.60293 12.1301 4.58059 12.147 4.56104C12.2564 4.43256 12.3658 4.30129 12.4725 4.17281C13.1684 3.36843 13.8531 2.55567 14.5266 1.73174C14.5659 1.71219 14.5855 1.67588 14.6051 1.63957C14.709 1.51668 14.8128 1.39658 14.9138 1.27369C14.9699 1.20666 15.0261 1.14242 15.0794 1.07539C15.1776 0.977636 15.2702 0.874296 15.346 0.756991C15.534 0.539138 15.722 0.321285 15.9128 0.103432C15.9465 0.0587446 15.9633 -0.00270106 16.0307 9.19253e-05ZM14.0692 5.76202C13.8699 5.74805 13.6735 5.75923 13.4799 5.81788C13.1544 5.87932 12.8569 5.99942 12.5987 6.2089C12.4444 6.30386 12.3097 6.41837 12.2059 6.56919C11.9477 6.83452 11.7906 7.15013 11.712 7.51043C11.6194 7.78693 11.6054 8.07182 11.6475 8.35949C11.6475 8.4377 11.6447 8.51869 11.6811 8.59131C11.698 8.75889 11.7569 8.9153 11.8243 9.0717C12.06 9.64985 12.4444 10.0995 12.9916 10.4068C13.0505 10.4514 13.1123 10.4877 13.1852 10.5073C13.2722 10.5743 13.3732 10.6106 13.4827 10.633C14.0215 10.8313 14.5659 10.8452 15.1131 10.6665C15.2421 10.6358 15.3712 10.5967 15.4751 10.5101C15.5003 10.5045 15.5256 10.5073 15.5396 10.4794C15.9325 10.2783 16.2243 9.97942 16.4348 9.59679C16.5975 9.30911 16.7013 9.00188 16.721 8.67231C16.7238 8.65834 16.7238 8.64159 16.7266 8.62762C16.7547 8.5159 16.7406 8.40139 16.7322 8.28967C16.7238 8.20588 16.7126 8.12209 16.7041 8.0383C16.7013 8.02713 16.7013 8.01596 16.6985 8.00478C16.6929 7.99361 16.6873 7.97965 16.6845 7.96848C16.6284 7.6026 16.4881 7.27023 16.2664 6.97697C16.2299 6.8848 16.1654 6.81218 16.0924 6.74515C16.0335 6.67253 15.9886 6.58595 15.8988 6.54405C15.8258 6.4463 15.7304 6.37368 15.6294 6.30944C15.3095 6.06645 14.9587 5.89888 14.5602 5.82905C14.4003 5.7704 14.2375 5.75085 14.0692 5.76202Z" fill="white"/>
<path d="M7.27256 11.513C6.93863 11.4013 6.60189 11.2924 6.26796 11.1807C6.20061 11.1471 6.13607 11.1136 6.06872 11.0829C5.7825 10.9516 5.54678 10.7505 5.30826 10.5522C5.283 10.4852 5.22688 10.4489 5.17637 10.4098C5.05851 10.2674 4.94626 10.1221 4.79193 10.016C4.77228 9.97968 4.73861 9.96292 4.69932 9.94896C4.60391 9.86237 4.49167 9.82886 4.36539 9.82886C4.35417 9.82327 4.34575 9.82327 4.33452 9.82886C4.31207 9.82886 4.28962 9.82886 4.26718 9.82886C3.93044 9.87634 3.60773 9.97968 3.28502 10.0774C3.26538 10.083 3.24293 10.0858 3.22329 10.0914C3.1812 10.1026 3.1363 10.111 3.0942 10.1221C2.99599 10.1473 2.89777 10.1696 2.79956 10.1947C2.64803 10.2338 2.49369 10.2729 2.34216 10.3148C2.33654 10.3037 2.33093 10.2925 2.32812 10.2813C2.33093 10.2283 2.33374 10.1724 2.33374 10.1193C2.33374 9.21161 2.33374 8.30389 2.33374 7.39617C2.33374 6.7091 2.33093 6.02482 2.32812 5.33774C2.33654 5.30702 2.34216 5.2763 2.35057 5.24557C2.70415 5.25954 3.05492 5.26233 3.38604 5.10872C3.50671 5.0752 3.62737 5.04168 3.74804 5.00817C3.92202 4.9579 4.09881 4.90762 4.27279 4.86014C4.62075 4.76518 4.97433 4.6786 5.31387 4.5585C5.45979 4.52498 5.60571 4.49426 5.74321 4.43561C5.91158 4.40768 6.07434 4.36299 6.23148 4.29875C6.55699 4.22613 6.8797 4.13676 7.21083 4.09766C7.37358 4.09766 7.53915 4.09766 7.7019 4.09766C7.89833 4.12 8.09196 4.14234 8.28839 4.16189C8.31084 4.16469 8.33048 4.16748 8.35293 4.17027C8.46237 4.18982 8.57181 4.20938 8.68125 4.22613C8.71492 4.22893 8.74579 4.23172 8.77947 4.23451C8.80192 4.24289 8.82437 4.24848 8.84681 4.25686C8.88049 4.25965 8.91416 4.26244 8.94503 4.26524C8.9787 4.27361 9.00957 4.28199 9.04324 4.29037C9.07692 4.29317 9.10779 4.29596 9.14146 4.30154C9.31263 4.35182 9.48662 4.38254 9.66621 4.39651C9.80371 4.43281 9.94402 4.46074 10.0871 4.46633C10.2583 4.51381 10.4295 4.54733 10.6063 4.56129C10.7803 4.60598 10.957 4.64508 11.1366 4.65346C11.1394 4.6758 11.1394 4.69815 11.1422 4.72049L11.1366 4.72328C11.0216 4.82383 10.9346 4.95231 10.8364 5.06682C10.2864 5.712 9.73356 6.35439 9.2032 7.01632C9.17233 7.03308 9.14988 7.05543 9.14146 7.08894C9.00957 7.22021 8.89171 7.36265 8.78227 7.51348C8.72896 7.57213 8.66161 7.58889 8.58304 7.58889C8.29681 7.59727 8.01058 7.55537 7.72716 7.60844C7.69629 7.61402 7.66262 7.61402 7.64017 7.64475C7.46619 7.7034 7.35955 7.82629 7.30904 7.99945C7.23047 8.21731 7.27537 8.40723 7.43532 8.56922C7.49986 8.66419 7.59808 8.70887 7.7019 8.74797C8.02181 8.94628 8.35013 9.12503 8.68406 9.29819C8.9759 9.47136 9.26774 9.64732 9.57641 9.79255C9.91035 10.0048 10.2583 10.1892 10.6063 10.3763C10.8729 10.5271 11.1422 10.6751 11.2994 10.9572C11.3527 11.1164 11.4032 11.2756 11.4032 11.4432C11.3976 11.5773 11.3583 11.7057 11.319 11.8342C11.2461 11.9404 11.1703 12.0465 11.0973 12.1526C11.0019 12.2197 10.9037 12.2867 10.8083 12.3537C10.7325 12.3761 10.6568 12.3984 10.581 12.4235C10.4379 12.4235 10.2976 12.4235 10.1545 12.4235C10.1096 12.4124 10.0675 12.4012 10.0226 12.39C9.91035 12.3314 9.79249 12.2923 9.66621 12.2895C9.52871 12.1889 9.36315 12.175 9.20881 12.1303C9.04044 12.0577 8.86646 12.0018 8.68967 11.9627C8.36135 11.8566 8.03584 11.7504 7.70752 11.6471C7.55879 11.594 7.42129 11.5354 7.27256 11.513Z" fill="white"/>
<path d="M0.541587 10.4696C0.502301 10.0088 0.465821 9.55073 0.423729 9.08989C0.404086 8.86645 0.376024 8.64301 0.353575 8.41957C0.350769 8.37768 0.347963 8.33299 0.345157 8.2883C0.345157 8.22127 0.353575 8.15424 0.317095 8.09559C0.314289 8.07324 0.314289 8.0509 0.311483 8.02855C0.319901 7.84142 0.289034 7.65709 0.258166 7.47554C0.25536 7.4113 0.252554 7.34707 0.246941 7.28283C0.216074 6.95884 0.185206 6.63206 0.154338 6.30808C0.151532 6.26339 0.14592 6.22149 0.143114 6.17681C0.140308 6.12095 0.137501 6.06788 0.134695 6.01202C0.137501 6.00643 0.140308 6.00085 0.140308 5.99805C0.137501 5.98968 0.129083 5.98409 0.126277 5.97571C0.117858 5.84723 0.137501 5.71596 0.0869907 5.59028C0.0841845 5.54001 0.0813784 5.48694 0.0813784 5.43666C0.0841845 5.38918 0.0869907 5.3417 0.0589292 5.29702C0.056123 5.23278 0.056123 5.16575 0.0533169 5.10151C0.03648 4.95348 0.0168369 4.80266 0 4.65463C0.0645415 4.61553 0.159951 4.69373 0.210461 4.60156C0.196431 4.64625 0.227298 4.64066 0.252554 4.64066C0.263778 4.64066 0.275003 4.64066 0.289034 4.64066C0.493883 4.64066 0.701538 4.64066 0.906387 4.64066C0.917611 4.64066 0.928836 4.64066 0.942867 4.64066C0.968122 4.63787 1.0046 4.64904 0.984959 4.60156C0.987765 4.60436 0.990571 4.60715 0.993378 4.61273C0.996184 4.6267 0.993378 4.64066 1.01583 4.64346C1.03828 4.64346 1.05511 4.64066 1.05511 4.61553L1.05792 4.60156V4.61553C1.06073 4.62949 1.05792 4.64346 1.08037 4.64625C1.10282 4.64625 1.11965 4.64346 1.11965 4.61832C1.12246 4.64066 1.13368 4.65184 1.15894 4.65184C1.18981 4.64904 1.18981 4.6267 1.19261 4.60715C1.17578 4.65184 1.20945 4.64625 1.23471 4.64625C1.24593 4.64625 1.25996 4.64625 1.27119 4.64625C1.37782 4.64904 1.48726 4.65184 1.59389 4.65463C1.5967 4.80545 1.59951 4.95906 1.59951 5.10989C1.59951 5.27188 1.59951 5.43387 1.59951 5.59587C1.59951 5.75786 1.59951 5.92264 1.59951 6.08464C1.59951 6.24663 1.59951 6.40862 1.59951 6.57062C1.59951 6.73261 1.59951 6.8974 1.59951 7.05939C1.59951 7.22138 1.59951 7.38337 1.59951 7.54537C1.59951 7.70736 1.59951 7.87215 1.59951 8.03414C1.59951 8.19613 1.59951 8.35813 1.59951 8.52012C1.59951 8.68211 1.59951 8.8469 1.59951 9.00889C1.59951 9.17088 1.59951 9.33288 1.59951 9.49487C1.59951 9.65686 1.59951 9.82165 1.59951 9.98364C1.59951 10.1456 1.59951 10.3076 1.59951 10.4696C1.59951 10.6316 1.59951 10.7964 1.59951 10.9584C1.5967 11.0617 1.59109 11.1623 1.5967 11.2656C1.60231 11.3494 1.57706 11.3773 1.49007 11.3773C1.23751 11.3718 0.984959 11.3718 0.729599 11.3773C0.651027 11.3801 0.648221 11.341 0.63419 11.288C0.592098 11.1567 0.636996 11.017 0.580873 10.8914C0.578067 10.8467 0.578067 10.8048 0.575261 10.7601C0.580873 10.7489 0.578067 10.7405 0.575261 10.7294C0.572455 10.707 0.572455 10.6847 0.569649 10.6623C0.56123 10.6288 0.555618 10.5981 0.547199 10.5646C0.547199 10.5339 0.544393 10.5003 0.541587 10.4696Z" fill="white"/>
<path d="M23.9406 21.7538C23.9855 21.9214 24.0529 22.0778 24.1258 22.2342C24.1595 22.3627 24.21 22.4828 24.2718 22.6001C24.3307 22.7202 24.3082 22.7761 24.1595 22.7705C24.0669 22.7649 23.9715 22.79 23.8761 22.8012C23.7554 22.8124 23.6348 22.8236 23.5141 22.8347C23.4917 22.8347 23.472 22.8375 23.4496 22.8375C23.4047 22.8403 23.3542 22.8208 23.3121 22.8543C23.1718 22.8599 23.0315 22.8543 22.8939 22.8934C22.734 22.9073 22.5712 22.9185 22.4113 22.9325C22.3945 22.9353 22.3748 22.9409 22.358 22.9437C22.3327 22.9269 22.3103 22.9353 22.2878 22.952C22.1643 22.966 22.0353 22.9437 21.9146 22.9883C21.8809 22.9911 21.8501 22.9911 21.8164 22.9939C21.8052 22.9883 21.7967 22.9883 21.7855 22.9939C21.6649 23.0051 21.5442 23.0163 21.4235 23.0274C21.098 23.0582 20.7697 23.0889 20.4442 23.1196C20.4105 23.1224 20.3796 23.1252 20.346 23.1252C20.2786 23.1252 20.2085 23.1029 20.1467 23.142C20.0878 23.1475 20.0261 23.1531 19.9671 23.1587C19.7988 23.1755 19.6304 23.1727 19.4648 23.2118C19.4199 23.2146 19.3778 23.2174 19.3329 23.2202C19.3217 23.2146 19.3133 23.2174 19.3021 23.2202C19.2572 23.2146 19.2123 23.2146 19.173 23.2369C19.1618 23.2397 19.1477 23.2397 19.1365 23.2425C19.0832 23.2453 19.0271 23.2481 18.9738 23.2509C18.7016 23.3291 18.536 23.209 18.3789 22.9883C18.1796 22.7062 17.8934 22.5107 17.5454 22.4297C17.3771 22.3571 17.1975 22.3376 17.0151 22.3348C16.8495 22.3292 16.6811 22.3208 16.5156 22.318C15.7018 22.3152 14.8852 22.3152 14.0714 22.3152C13.5186 22.3152 12.963 22.3152 12.4102 22.3152C12.3989 22.3152 12.3877 22.3152 12.3793 22.3152C12.3681 22.3152 12.3568 22.3152 12.3456 22.3152C12.2811 22.3096 12.2165 22.3069 12.152 22.3013C11.978 22.2705 11.804 22.2398 11.6273 22.2091C11.5908 22.1756 11.5459 22.1728 11.4982 22.17C11.3775 22.1281 11.2568 22.0834 11.1362 22.0415C10.9734 21.9661 10.8079 21.8907 10.6451 21.8181C10.3112 21.6254 9.98846 21.4159 9.68539 21.1813C9.52544 21.0472 9.36549 20.9132 9.20274 20.7791C9.17748 20.7567 9.15503 20.7316 9.12978 20.7093C8.98947 20.5808 8.85197 20.4523 8.71166 20.3238C8.67237 20.2903 8.63589 20.2596 8.59661 20.2261C8.47314 20.092 8.34125 19.9691 8.19252 19.863C8.14762 19.8211 8.10272 19.7792 8.05783 19.7373C7.94839 19.6396 7.83895 19.5418 7.72951 19.4468C7.43486 19.1899 7.14022 18.9357 6.84557 18.6816C6.68562 18.5447 6.51164 18.419 6.39939 18.2347C6.35449 18.1285 6.3124 18.0224 6.2675 17.9135C6.2647 17.88 6.26189 17.8492 6.25628 17.8157C6.21419 17.3828 6.38536 17.0421 6.7221 16.7767C6.9494 16.6483 7.19353 16.5896 7.4545 16.6036C7.51624 16.6148 7.57797 16.6287 7.63971 16.6399C7.78563 16.693 7.91752 16.774 8.0466 16.8633C8.24584 17.0002 8.44788 17.1315 8.64992 17.2655C8.66396 17.2767 8.67799 17.2851 8.69202 17.2962C8.84074 17.3968 8.98666 17.4945 9.13539 17.5951C9.46651 17.8185 9.79483 18.0448 10.126 18.2682C10.1344 18.2961 10.1596 18.3017 10.1821 18.3073C10.3056 18.3911 10.4262 18.4749 10.5497 18.5615C10.8836 18.8128 11.2147 19.067 11.6244 19.1871C11.9977 19.3491 12.3961 19.4021 12.7974 19.4021C14.0321 19.4077 15.2668 19.4021 16.5043 19.4021C16.5913 19.4021 16.6783 19.4133 16.7625 19.3826C16.8916 19.3323 16.9702 19.2402 16.9758 19.1033C16.9814 18.9748 16.9168 18.8743 16.799 18.8156C16.7148 18.7737 16.6194 18.7793 16.5268 18.7933C16.364 18.7933 16.2013 18.7933 16.0357 18.7933C15.873 18.7793 15.7102 18.7793 15.5446 18.7933C15.3819 18.7933 15.2191 18.7933 15.0536 18.7933C14.8908 18.7793 14.728 18.7793 14.5625 18.7933C14.3997 18.7933 14.2342 18.7905 14.0714 18.7905C13.7431 18.7207 13.4765 18.5587 13.2913 18.2738C13.2885 18.257 13.2857 18.2403 13.2801 18.2263C12.9433 17.4666 13.3979 16.7712 14.2342 16.7712C15.539 16.7712 16.8439 16.7684 18.1459 16.7712C18.7577 16.7712 19.3722 16.746 19.984 16.8354C20.0064 16.8382 20.0261 16.841 20.0485 16.8438C20.158 16.8633 20.2674 16.8857 20.3768 16.9052C20.5396 16.9583 20.7051 17.0114 20.8679 17.0672C21.2608 17.2404 21.6031 17.489 21.909 17.7878C22.1924 18.109 22.4337 18.4553 22.6498 18.824C22.7172 18.9469 22.7873 19.067 22.8547 19.1899C22.8659 19.2094 22.8743 19.2318 22.8855 19.2513C22.9641 19.4133 23.0399 19.5753 23.1184 19.7373C23.2559 20.0641 23.3962 20.3909 23.5338 20.7176C23.6656 21.064 23.7863 21.4159 23.9406 21.7538Z" fill="white"/>
<path d="M12.766 8.2879L12.5078 8.03095L13.8772 6.66797L14.1354 6.92492L12.766 8.2879ZM13.7706 9.28499L13.5124 9.02804L13.9558 8.58675C14.0596 8.48341 14.1101 8.3661 14.1045 8.23483C14.0989 8.10356 14.0428 7.98346 13.9305 7.87175C13.8183 7.76003 13.6976 7.70137 13.5657 7.69579C13.4338 7.6902 13.316 7.74047 13.2122 7.84382L12.7688 8.28511L12.5667 8.08401L13.0831 7.5701C13.1953 7.45838 13.3216 7.38577 13.4563 7.35225C13.591 7.31873 13.7285 7.32432 13.8688 7.3718C14.0063 7.41649 14.1382 7.50028 14.2645 7.62596C14.3823 7.74327 14.4581 7.87454 14.489 8.01698C14.5226 8.15942 14.5142 8.30466 14.4637 8.45269C14.4132 8.60071 14.3234 8.74036 14.1887 8.87163L13.7706 9.28499ZM13.2599 8.77946L13.0045 8.5253L14.3739 7.16233L14.6293 7.41649L13.2599 8.77946ZM15.4459 9.16769L14.1382 8.79622L14.3571 8.44989L15.7854 8.83253L15.4459 9.16769Z" fill="white"/>
</g>
<defs>
<clipPath id="clip0_306_35">
<rect width="25" height="25" fill="white"/>
</clipPath>
</defs>
</svg>
