<svg width="25" height="25" viewBox="0 0 25 25" fill="none" xmlns="http://www.w3.org/2000/svg">
<path d="M18.4558 17.5305C18.6341 17.7046 18.8027 17.8628 18.9605 18.032C18.9858 18.059 18.981 18.1534 18.9545 18.1889C18.6474 18.6107 18.3559 19.0485 18.0162 19.4421C16.6804 20.9907 15.0363 22.0612 13.0802 22.5983C10.1689 23.3977 7.41059 23.0017 4.83899 21.3905C4.36562 21.0937 3.91273 20.7467 3.49718 20.3703C1.25802 18.3373 0.0872441 15.7807 0.00413372 12.7288C-0.0560912 10.5192 0.542544 8.49235 1.74825 6.65186C2.11562 6.0915 2.52274 5.56179 2.99611 5.09094C4.61736 3.47607 6.53854 2.44854 8.79456 2.11747C11.2999 1.74962 13.6342 2.24622 15.7891 3.59992C16.2865 3.91259 16.7623 4.25592 17.1815 4.67282C17.5561 5.0468 17.9114 5.44163 18.2776 5.8242C18.339 5.88918 18.3342 5.93578 18.2764 5.99586C18.1487 6.12829 18.0222 6.26071 17.8982 6.39682C17.8271 6.47529 17.7813 6.46303 17.7175 6.38211C16.6491 5.03577 15.3217 4.04134 13.7318 3.43806C11.0662 2.42892 8.44646 2.5871 5.90858 3.89175C4.82092 4.45088 3.86937 5.20743 3.08885 6.16139C1.12552 8.56224 0.408845 11.3101 0.959301 14.3841C1.24477 15.9781 1.91688 17.4054 2.93106 18.6512C4.40898 20.4684 6.29282 21.6112 8.57775 22.033C10.9675 22.4732 13.209 22.0404 15.2892 20.7639C16.1396 20.2416 16.8912 19.5941 17.5308 18.8204C17.85 18.4342 18.1198 18.0062 18.4113 17.5979C18.4209 17.5832 18.4305 17.5673 18.4558 17.5305Z" fill="white"/>
<path d="M9.28578 18.2413C7.96324 17.4332 6.75392 16.6166 5.47354 15.9434C4.67978 15.5253 4.42322 15.014 4.47019 14.1262C4.54969 12.6536 4.49187 11.1724 4.49187 9.63477C4.65569 9.71324 4.78818 9.76474 4.90863 9.83831C6.25285 10.6562 7.59225 11.4814 8.94009 12.2931C9.19424 12.4464 9.29903 12.618 9.29541 12.9356C9.27614 14.667 9.28578 16.3996 9.28578 18.2413Z" fill="white"/>
<path d="M14.9257 10.0645C14.9257 11.9748 14.9293 13.7736 14.9173 15.5724C14.916 15.6767 14.8221 15.8287 14.7294 15.8777C13.2743 16.6515 11.8133 17.4129 10.2896 18.2099C10.2896 16.3216 10.286 14.5106 10.298 12.6995C10.2992 12.5941 10.3944 12.4408 10.4883 12.3917C11.9289 11.6254 13.3767 10.8737 14.9257 10.0645Z" fill="white"/>
<path d="M14.4193 9.30182C13.758 9.64638 13.1557 9.96028 12.5535 10.2754C11.7236 10.7095 10.8985 11.1509 10.0614 11.569C9.92288 11.6389 9.688 11.6757 9.57237 11.6034C8.09565 10.6837 6.63339 9.74202 5.09766 8.76108C5.62041 8.48519 6.08294 8.23996 6.54667 7.99595C7.44763 7.52019 8.34619 7.03708 9.25558 6.57849C9.41096 6.50002 9.66632 6.45219 9.7964 6.52944C11.3237 7.42455 12.8354 8.34663 14.4193 9.30182Z" fill="white"/>
<path d="M23.4827 16.9528C22.9395 16.2883 22.4071 15.6384 21.8555 14.964C22.1566 14.9468 22.4252 14.9321 22.7239 14.9149C22.7239 14.4821 22.7239 14.0578 22.7239 13.625C23.2455 13.625 23.7357 13.625 24.2476 13.625C24.2476 14.0603 24.2476 14.4956 24.2476 14.9493C24.4969 14.9493 24.7258 14.9493 25.0016 14.9493C24.4837 15.6335 23.991 16.2821 23.4827 16.9528Z" fill="white"/>
<path d="M22.3889 16.2783C22.413 16.3948 22.4335 16.4929 22.4587 16.6229C22.1094 16.683 21.771 16.7541 21.4277 16.7982C20.7327 16.8865 20.0365 16.9 19.3415 16.7737C18.0226 16.5334 17.1192 15.5868 16.8819 14.2404C16.7085 13.2546 16.8614 12.3411 17.3252 11.4656C17.7552 10.6539 18.3056 9.93657 18.9464 9.26953C19.0271 9.35536 19.1006 9.43261 19.1729 9.51109C18.9091 9.82744 18.6393 10.1303 18.3924 10.4516C17.8792 11.1198 17.4203 11.8273 17.2385 12.6673C17.0156 13.696 17.1722 14.6721 17.8154 15.523C18.2346 16.0773 18.8368 16.3237 19.4945 16.4414C20.3954 16.6021 21.2868 16.4892 22.1745 16.3176C22.2407 16.3065 22.3046 16.2943 22.3889 16.2783Z" fill="white"/>
<path d="M22.2717 7.31976C22.2597 7.78938 22.1778 8.24429 21.9285 8.6477C21.5406 9.27673 20.9444 9.46433 20.2566 9.4067C19.1605 9.31474 18.7088 8.54102 18.5968 7.60913C18.5763 7.44237 18.5643 7.27193 18.5667 7.10395C18.5715 6.70544 18.8787 6.51906 19.2244 6.70544C19.8531 7.04264 20.5035 7.16648 21.1913 6.92248C21.325 6.87465 21.4539 6.81212 21.578 6.74345C21.9754 6.52274 22.2778 6.69809 22.279 7.15667C22.279 7.21063 22.2742 7.2658 22.2717 7.31976ZM18.9004 6.95803C18.922 7.24864 18.9257 7.48284 18.9594 7.71213C19.1003 8.66977 19.764 9.17741 20.7083 9.05111C21.0829 9.00084 21.3961 8.83408 21.6069 8.50179C21.8779 8.07385 21.9405 7.59319 21.9321 7.09904C21.9297 6.94577 21.8345 7.00218 21.7598 7.04509C20.883 7.54169 20.0061 7.49755 19.1268 7.05245C19.0726 7.0267 19.0148 7.00585 18.9004 6.95803Z" fill="white"/>
<path d="M20.3382 11.0428C20.3382 10.8564 20.3382 10.6774 20.3382 10.4824C20.4502 10.4824 20.5526 10.4824 20.6851 10.4824C20.6851 10.6124 20.6911 10.7473 20.6839 10.8822C20.6778 10.995 20.7116 11.0489 20.8308 11.0477C20.9067 11.0465 20.9826 11.0661 21.0573 11.0832C21.4499 11.1764 21.4596 11.1973 21.3042 11.5467C21.0392 11.5001 20.7838 11.4339 20.5249 11.418C20.237 11.3996 20.037 11.559 19.9708 11.8006C19.9094 12.0225 20.0009 12.2334 20.2587 12.3793C20.5008 12.5166 20.7609 12.6209 21.0055 12.7533C21.321 12.925 21.5306 13.1825 21.5511 13.5613C21.5788 14.0653 21.3018 14.4601 20.8152 14.5926C20.6863 14.6281 20.6393 14.6784 20.6501 14.8108C20.661 14.9469 20.6525 15.0843 20.6525 15.2314C20.5297 15.2314 20.4261 15.2314 20.3069 15.2314C20.3069 15.0413 20.3069 14.8574 20.3069 14.6796C20.0912 14.6281 19.8877 14.595 19.6938 14.5313C19.4107 14.4381 19.4131 14.4283 19.5191 14.1413C19.5312 14.1082 19.5456 14.0751 19.5444 14.0788C19.8323 14.1438 20.1069 14.2198 20.3864 14.2615C20.4948 14.2774 20.6224 14.2382 20.7284 14.1928C21.1163 14.0248 21.1958 13.543 20.8742 13.2646C20.7381 13.1469 20.5634 13.0721 20.402 12.9838C20.2406 12.8968 20.0684 12.8293 19.9118 12.7337C19.5878 12.535 19.4336 12.2383 19.489 11.8508C19.5408 11.4818 19.7624 11.2488 20.0973 11.12C20.1732 11.0894 20.2527 11.0698 20.3382 11.0428Z" fill="white"/>
<path d="M21.75 9.53819C21.809 9.44378 21.8644 9.35304 21.9355 9.24023C23.1882 10.193 23.9542 11.4106 24.1361 13.0132C24.0157 13.0254 23.9133 13.0365 23.7952 13.0487C23.629 11.5626 22.9051 10.4235 21.75 9.53819Z" fill="white"/>
</svg>
