<svg width="25" height="25" viewBox="0 0 25 25" fill="none" xmlns="http://www.w3.org/2000/svg">
<path d="M18.3965 17.4806C18.5742 17.6541 18.7423 17.8118 18.8996 17.9805C18.9248 18.0074 18.92 18.1015 18.8936 18.1369C18.5874 18.5574 18.2969 18.9937 17.9583 19.386C16.6268 20.9297 14.988 21.9967 13.0381 22.5321C10.1362 23.329 7.38678 22.9342 4.82344 21.3282C4.35159 21.0324 3.90016 20.6865 3.48594 20.3113C1.25397 18.2848 0.0869637 15.7364 0.00412044 12.6943C-0.0559109 10.4918 0.540801 8.47149 1.74263 6.63691C2.10882 6.07835 2.51463 5.55035 2.98648 5.08101C4.60252 3.47133 6.51752 2.4471 8.7663 2.11709C11.2636 1.75042 13.5904 2.24543 15.7383 3.59477C16.2342 3.90644 16.7085 4.24867 17.1263 4.66423C17.4997 5.03701 17.8538 5.43057 18.2188 5.81191C18.2801 5.87669 18.2753 5.92313 18.2176 5.98302C18.0904 6.11502 17.9643 6.24702 17.8406 6.38269C17.7698 6.46091 17.7242 6.44869 17.6605 6.36802C16.5956 5.02601 15.2725 4.03478 13.6877 3.43344C11.0307 2.42754 8.41932 2.58521 5.8896 3.88567C4.80543 4.443 3.85693 5.19712 3.07893 6.14802C1.1219 8.54115 0.407531 11.2802 0.956218 14.3443C1.24077 15.9332 1.91072 17.3559 2.92165 18.5977C4.39482 20.409 6.2726 21.5482 8.55019 21.9686C10.9322 22.4074 13.1666 21.976 15.2401 20.7036C16.0877 20.1829 16.8369 19.5376 17.4744 18.7664C17.7926 18.3814 18.0616 17.9548 18.3521 17.5478C18.3617 17.5331 18.3713 17.5172 18.3965 17.4806Z" fill="white"/>
<path d="M9.25856 18.1882C7.94028 17.3828 6.73485 16.5688 5.45858 15.8978C4.66737 15.481 4.41163 14.9713 4.45846 14.0864C4.5377 12.6185 4.48007 11.1421 4.48007 9.60938C4.64335 9.6876 4.77542 9.73893 4.89548 9.81227C6.23539 10.6275 7.57048 11.4501 8.91399 12.2592C9.16732 12.412 9.27177 12.5831 9.26817 12.8996C9.24896 14.6254 9.25856 16.3524 9.25856 18.1882Z" fill="white"/>
<path d="M14.8834 10.0371C14.8834 11.9413 14.887 13.7344 14.875 15.5274C14.8738 15.6313 14.7802 15.7828 14.6877 15.8317C13.2374 16.603 11.781 17.362 10.2622 18.1564C10.2622 16.2742 10.2586 14.4689 10.2706 12.6637C10.2718 12.5586 10.3667 12.4058 10.4603 12.3569C11.8963 11.593 13.3394 10.8438 14.8834 10.0371Z" fill="white"/>
<path d="M14.3737 9.27716C13.7145 9.62061 13.1142 9.9335 12.5139 10.2476C11.6867 10.6803 10.8643 11.1203 10.0298 11.5371C9.89174 11.6067 9.65762 11.6434 9.54236 11.5713C8.07039 10.6546 6.61283 9.71595 5.08203 8.73816C5.6031 8.46316 6.06414 8.21871 6.52639 7.97548C7.42446 7.50126 8.32012 7.0197 9.2266 6.56258C9.38148 6.48436 9.63601 6.43669 9.76568 6.51369C11.2881 7.40592 12.7949 8.32504 14.3737 9.27716Z" fill="white"/>
<path d="M23.4853 13.2734C22.9438 13.9359 22.4132 14.5837 21.8633 15.2559C22.1634 15.273 22.4312 15.2877 22.7289 15.3048C22.7289 15.7362 22.7289 16.1591 22.7289 16.5906C23.2488 16.5906 23.7375 16.5906 24.2477 16.5906C24.2477 16.1567 24.2477 15.7228 24.2477 15.2706C24.4963 15.2706 24.7244 15.2706 24.9993 15.2706C24.4831 14.5886 23.992 13.942 23.4853 13.2734Z" fill="white"/>
<path d="M22.3163 16.2304C22.3403 16.3465 22.3607 16.4443 22.3859 16.5739C22.0377 16.6338 21.7004 16.7047 21.3582 16.7487C20.6654 16.8367 19.9715 16.8501 19.2787 16.7242C17.964 16.4847 17.0635 15.5411 16.827 14.1991C16.6541 13.2164 16.8066 12.3058 17.2688 11.4332C17.6975 10.624 18.2462 9.90904 18.8849 9.24414C18.9653 9.3297 19.0386 9.4067 19.1106 9.48492C18.8477 9.80026 18.5787 10.1021 18.3326 10.4224C17.8211 11.0885 17.3637 11.7937 17.1824 12.631C16.9603 13.6564 17.1164 14.6293 17.7575 15.4775C18.1753 16.03 18.7756 16.2757 19.4312 16.393C20.3292 16.5531 21.2177 16.4407 22.1026 16.2695C22.1686 16.2585 22.2322 16.2463 22.3163 16.2304Z" fill="white"/>
<path d="M22.1973 7.30192C22.1853 7.77004 22.1037 8.22349 21.8552 8.6256C21.4686 9.25261 20.8742 9.43961 20.1887 9.38217C19.0961 9.2905 18.6459 8.51927 18.5342 7.59037C18.5138 7.42415 18.5018 7.25426 18.5042 7.08681C18.509 6.68958 18.8152 6.5038 19.1598 6.68958C19.7865 7.0257 20.4348 7.14914 21.1204 6.90592C21.2536 6.85825 21.3821 6.79592 21.5058 6.72747C21.902 6.50747 22.2033 6.68225 22.2045 7.13937C22.2045 7.19314 22.1997 7.24814 22.1973 7.30192ZM18.8368 6.94136C18.8584 7.23103 18.862 7.46448 18.8956 7.69304C19.0361 8.6476 19.6976 9.15361 20.6389 9.02772C21.0123 8.97761 21.3245 8.81138 21.5346 8.48016C21.8047 8.0536 21.8672 7.57448 21.8588 7.08192C21.8564 6.92914 21.7615 6.98536 21.6871 7.02814C20.813 7.52315 19.939 7.47915 19.0625 7.03548C19.0085 7.00981 18.9508 6.98903 18.8368 6.94136Z" fill="white"/>
<path d="M20.2728 11.0136C20.2728 10.8279 20.2728 10.6494 20.2728 10.4551C20.3845 10.4551 20.4865 10.4551 20.6186 10.4551C20.6186 10.5846 20.6246 10.7191 20.6174 10.8535C20.6114 10.966 20.645 11.0198 20.7639 11.0185C20.8395 11.0173 20.9152 11.0369 20.9896 11.054C21.381 11.1469 21.3906 11.1676 21.2357 11.516C20.9716 11.4695 20.7171 11.4035 20.4589 11.3876C20.172 11.3693 19.9727 11.5282 19.9066 11.769C19.8454 11.9902 19.9366 12.2004 20.1936 12.3459C20.4349 12.4828 20.6942 12.5867 20.938 12.7187C21.2525 12.8898 21.4614 13.1464 21.4819 13.5241C21.5095 14.0264 21.2333 14.42 20.7483 14.552C20.6198 14.5875 20.573 14.6376 20.5838 14.7696C20.5946 14.9052 20.5862 15.0421 20.5862 15.1888C20.4637 15.1888 20.3605 15.1888 20.2416 15.1888C20.2416 14.9993 20.2416 14.816 20.2416 14.6388C20.0267 14.5875 19.8238 14.5545 19.6305 14.4909C19.3483 14.398 19.3507 14.3882 19.4564 14.1022C19.4684 14.0692 19.4828 14.0362 19.4816 14.0399C19.7686 14.1047 20.0423 14.1804 20.3209 14.222C20.4289 14.2379 20.5562 14.1988 20.6618 14.1536C21.0484 13.9861 21.1277 13.5058 20.8071 13.2283C20.6714 13.111 20.4973 13.0364 20.3365 12.9484C20.1756 12.8617 20.0039 12.7944 19.8478 12.6991C19.5248 12.5011 19.3712 12.2053 19.4264 11.8191C19.478 11.4512 19.6989 11.219 20.0327 11.0906C20.1083 11.0601 20.1876 11.0405 20.2728 11.0136Z" fill="white"/>
<path d="M21.6797 9.51185C21.7385 9.41773 21.7937 9.32729 21.8646 9.21484C23.1132 10.1645 23.8768 11.3782 24.0581 12.9757C23.9381 12.9879 23.836 12.9989 23.7184 13.0111C23.5527 11.5298 22.8311 10.3943 21.6797 9.51185Z" fill="white"/>
</svg>
