<svg width="25" height="25" viewBox="0 0 25 25" fill="none" xmlns="http://www.w3.org/2000/svg">
<g clip-path="url(#clip0_384_203)">
<path d="M9.78452 19.697C9.77571 19.6952 9.76691 19.6934 9.75781 19.692C9.749 19.686 9.7399 19.6798 9.73109 19.6739L9.72933 19.673C9.70702 19.6468 9.6803 19.6275 9.64713 19.6178L9.64449 19.6157C9.61513 19.5803 9.58578 19.5448 9.55613 19.5094L9.55554 19.5085C9.5482 19.4775 9.5435 19.4455 9.53293 19.4157C9.37588 18.9651 9.21852 18.5142 9.0597 18.0643C8.97545 17.8252 8.90499 17.5806 8.80137 17.3486C8.80137 17.3486 8.80313 17.3481 8.80283 17.3481C8.79197 17.3055 8.78404 17.2618 8.76966 17.2204C8.50486 16.4581 8.24887 15.6929 7.99817 14.9256C7.88309 14.5734 7.83289 14.2182 7.89659 13.8504C7.94004 13.5989 8.0425 13.3693 8.15317 13.1427C8.18781 13.0718 8.21071 13.0027 8.13526 12.9374C7.9509 12.7778 7.87986 12.5663 7.87399 12.3287C7.86988 12.1689 7.87135 12.009 7.869 11.8492C7.86019 11.2695 7.85168 10.6898 7.83993 10.1101C7.83847 10.0386 7.85432 10.028 7.92536 10.0342C8.38509 10.0749 8.809 9.95882 9.19357 9.70709C9.27225 9.65568 9.2925 9.68168 9.32509 9.74313C9.66651 10.3893 10.01 11.034 10.3499 11.6808C10.4492 11.8696 10.5096 12.0758 10.4342 12.282C10.3831 12.4215 10.4271 12.4889 10.5319 12.5586C10.7521 12.7051 10.9512 12.8747 11.1114 13.0892C11.3375 13.3921 11.442 13.7413 11.5122 14.1059C11.7558 15.3723 11.9625 16.6448 12.1794 17.9159C12.2337 18.235 12.3159 18.55 12.3274 18.8756L12.328 18.8753C12.3236 18.885 12.3189 18.8948 12.3145 18.9043L12.313 18.909C12.2963 18.9202 12.291 18.9365 12.2936 18.9557L12.2939 18.9548C12.2696 18.979 12.2505 19.0062 12.244 19.0405L12.2396 19.0461C12.2346 19.0532 12.2296 19.0603 12.2246 19.0674L12.2202 19.073C12.2138 19.0804 12.2076 19.088 12.2012 19.0954L12.1997 19.0969C12.1645 19.101 12.1445 19.1211 12.1389 19.156L12.138 19.1572C12.0905 19.1725 12.0514 19.1974 12.0356 19.2488L12.0335 19.2505C11.9886 19.2564 11.9554 19.2851 11.9199 19.3096C11.7596 19.4204 11.5847 19.5008 11.4006 19.562C11.2888 19.5992 11.1757 19.6335 11.0633 19.6692L11.0642 19.668C10.7186 19.7475 10.3708 19.8016 10.0147 19.7661L10.0135 19.7658C9.9997 19.7493 9.98297 19.749 9.96477 19.7573C9.95596 19.757 9.94716 19.7567 9.93835 19.7561C9.92602 19.7363 9.90694 19.7395 9.88815 19.7416L9.88698 19.741C9.87494 19.7206 9.85615 19.7236 9.83736 19.7265L9.8356 19.7256C9.82709 19.7203 9.81828 19.7153 9.80977 19.71L9.80478 19.7073C9.79832 19.7044 9.79157 19.7008 9.78452 19.697ZM8.75528 11.4474L8.75058 11.4515L8.75175 11.4577L8.74471 11.4615L8.74823 11.4677C8.74441 11.4805 8.7406 11.4935 8.73678 11.5062C8.72621 11.5183 8.71799 11.5313 8.72592 11.5481C8.72504 11.5576 8.72416 11.5667 8.72328 11.5762C8.7083 11.5898 8.70772 11.6057 8.71564 11.6232C8.72122 11.6707 8.72269 11.7192 8.73326 11.7656C8.78904 12.0102 9.01919 12.1707 9.26843 12.1411C9.52383 12.111 9.69733 11.8979 9.71348 11.6285C9.72463 11.4397 9.47011 11.1673 9.27724 11.1543C9.20443 11.1294 9.13427 11.1386 9.06587 11.1702C9.04914 11.1758 9.0327 11.1811 9.01596 11.1868C8.99688 11.1856 8.98279 11.1933 8.97457 11.211C8.96664 11.2148 8.95901 11.2184 8.95108 11.2222C8.93905 11.2311 8.92672 11.2397 8.91468 11.2485C8.84481 11.2884 8.80166 11.3513 8.76907 11.4228C8.76438 11.4311 8.75968 11.4391 8.75528 11.4474ZM11.6865 15.7413C11.5368 15.8536 11.3806 15.9286 11.2151 15.9836C10.6094 16.1848 9.98503 16.1898 9.35738 16.165C9.14513 16.1567 8.93259 16.1514 8.72034 16.1689C8.66662 16.1733 8.63403 16.191 8.65987 16.2472C8.74207 16.425 8.79285 16.6144 8.85391 16.7997C9.0324 17.3416 9.21764 17.8811 9.39202 18.4244C9.4707 18.6688 9.56963 18.9093 9.65007 19.1545C9.71289 19.3466 9.84588 19.4479 10.0238 19.5076C10.1224 19.5407 10.2249 19.5531 10.3285 19.5572C10.6638 19.5705 10.9834 19.489 11.2996 19.3918C11.5359 19.3191 11.7605 19.221 11.9493 19.0532C12.1333 18.8895 12.2349 18.7048 12.1756 18.4424C12.1069 18.1384 12.06 17.8291 12.0115 17.5209C12.0009 17.4544 11.9308 17.3983 11.9452 17.3543C11.9854 17.2287 11.9325 17.1191 11.9138 17.0059C11.8439 16.5878 11.7646 16.1721 11.6865 15.7413ZM11.6366 15.5203C11.2973 15.6462 10.9514 15.6293 10.6059 15.6042C10.2031 15.5753 9.80419 15.4958 9.39789 15.5209C9.09992 15.5395 8.82896 15.6249 8.60849 15.8391C8.57414 15.8725 8.55359 15.9041 8.57238 15.9541C8.59088 16.0034 8.62875 15.988 8.66251 15.986C9.10726 15.9594 9.55143 15.9945 9.99589 15.9925C10.4151 15.9904 10.8302 15.9606 11.2256 15.8028C11.3836 15.7401 11.5289 15.6571 11.6366 15.5203ZM9.60985 14.2915C10.0141 14.199 10.4239 14.0897 10.7797 13.8377C10.9688 13.7038 11.1114 13.5407 11.1264 13.2934C11.1296 13.2393 11.12 13.2 11.0695 13.1746C11.0166 13.148 10.9764 13.1711 10.9412 13.2063C10.9189 13.2284 10.9021 13.2565 10.8851 13.2831C10.7228 13.5389 10.5099 13.7384 10.234 13.8631C9.81505 14.0522 9.36384 14.1068 8.91498 14.1674C8.76966 14.1869 8.62229 14.1901 8.4758 14.1993C8.44644 14.2011 8.41621 14.2011 8.41356 14.2377C8.41151 14.267 8.43881 14.2752 8.462 14.2814C8.4849 14.2876 8.50839 14.2915 8.53187 14.2959C8.88797 14.3642 9.24318 14.3494 9.60985 14.2915ZM8.33694 12.2628C8.39243 12.4274 8.49547 12.5506 8.64225 12.631C8.95343 12.8015 9.2696 12.7837 9.58078 12.6339C9.82444 12.5166 9.99882 12.3317 10.0793 12.0664C10.0975 12.0058 10.0954 11.9464 10.0432 11.9012C9.99677 11.861 9.94334 11.8551 9.88668 11.877C9.83589 11.8965 9.8221 11.9446 9.80243 11.9881C9.67473 12.2693 9.45749 12.428 9.15482 12.4759C8.85245 12.5234 8.57884 12.4676 8.33694 12.2628ZM8.50574 13.0411C8.4802 12.8892 8.42354 12.7506 8.33107 12.6277C8.31228 12.6026 8.28997 12.5719 8.25386 12.5991C8.22509 12.6209 8.24271 12.6496 8.25357 12.6747C8.30847 12.8035 8.3434 12.935 8.34986 13.0777C8.35602 13.208 8.31669 13.3295 8.30348 13.4556C8.29878 13.5014 8.29056 13.5472 8.34223 13.5676C8.40123 13.5909 8.41533 13.5342 8.43764 13.5011C8.53334 13.3593 8.53451 13.2021 8.50574 13.0411ZM10.2771 12.233C10.2751 12.2105 10.2713 12.1828 10.2707 12.155C10.2704 12.1213 10.2707 12.0864 10.2263 12.0853C10.1891 12.0844 10.1838 12.1172 10.182 12.145C10.1635 12.4422 10.2008 12.7217 10.45 12.9244C10.4988 12.964 10.5642 13.034 10.625 12.9666C10.6834 12.9016 10.6003 12.8496 10.5628 12.808C10.4145 12.644 10.3159 12.4575 10.2771 12.233Z" fill="white"/>
<path d="M7.86866 7.16185C7.91798 7.15269 7.94381 7.18194 7.96348 7.22094C7.97052 7.37133 8.0357 7.50399 8.0903 7.63991C8.12699 7.73091 8.10703 7.75691 8.00663 7.751L8.00428 7.74893C7.93383 7.55895 7.85545 7.37103 7.86866 7.16185Z" fill="white"/>
<path d="M7.53523 8.49613C7.54257 8.48756 7.54991 8.47929 7.55725 8.47072C7.85962 8.17644 8.21895 8.05884 8.63493 8.12207C8.76674 8.14216 8.87213 8.20658 8.94464 8.32299C9.04563 8.4852 9.15572 8.6415 9.23351 8.81789C9.27226 8.90594 9.2614 8.9801 9.20005 9.05012C9.00981 9.26788 8.77114 9.40645 8.49196 9.46702C8.31083 9.50632 8.13029 9.55359 7.94094 9.5468C7.81059 9.54207 7.69786 9.48416 7.57868 9.44545C7.51703 9.42536 7.48855 9.37188 7.48151 9.30717C7.45156 9.03417 7.45773 8.76264 7.53523 8.49613ZM8.25476 8.24351C8.07099 8.27246 7.91716 8.33333 7.78359 8.43881C7.74102 8.47249 7.6961 8.5174 7.70785 8.57974C7.72135 8.64888 7.78329 8.67252 7.84259 8.67961C8.12941 8.71359 8.39332 8.65125 8.62583 8.47397C8.67016 8.43999 8.71331 8.39656 8.6957 8.33303C8.67896 8.27246 8.62407 8.24853 8.56858 8.23819C8.45879 8.21751 8.34782 8.21751 8.25476 8.24351Z" fill="white"/>
<path d="M8.38689 9.88307C8.25772 9.91114 8.09685 9.93478 7.93333 9.9076C7.85201 9.894 7.7704 9.7702 7.78743 9.69309C7.79653 9.65202 7.82677 9.66236 7.85319 9.66354C8.30587 9.68393 8.72626 9.58111 9.1073 9.32967C9.12756 9.31637 9.14371 9.29924 9.16572 9.32878C9.21681 9.39733 9.20271 9.54447 9.13226 9.59765C8.92001 9.7575 8.674 9.83137 8.38689 9.88307Z" fill="white"/>
<path d="M8.26886 6.40486C8.3217 6.25565 8.33902 6.09639 8.40067 5.94925C8.44911 5.83402 8.51633 5.78084 8.59853 5.81482C8.69365 5.85441 8.69746 5.93152 8.67809 6.024C8.6276 6.26481 8.58473 6.50709 8.53982 6.74907C8.53571 6.77182 8.53923 6.79605 8.53894 6.81969C8.47347 7.06699 8.46701 7.32079 8.45439 7.5743C8.45146 7.63044 8.48316 7.72735 8.42533 7.73562C8.3534 7.74596 8.37689 7.6461 8.36016 7.59557C8.23187 7.20674 8.23744 6.80668 8.26886 6.40486Z" fill="white"/>
<path d="M9.14293 11.3649C9.21709 11.3512 9.27178 11.3103 9.26508 11.2733C9.25837 11.2364 9.19282 11.2175 9.11866 11.2312C9.0445 11.2448 8.98981 11.2858 8.99651 11.3227C9.00321 11.3596 9.06876 11.3785 9.14293 11.3649Z" fill="white"/>
<path d="M9.3433 11.3141C9.37233 11.3088 9.39374 11.2928 9.39111 11.2783C9.38849 11.2639 9.36284 11.2565 9.33381 11.2618C9.30478 11.2672 9.28338 11.2832 9.286 11.2976C9.28862 11.3121 9.31428 11.3195 9.3433 11.3141Z" fill="white"/>
<path d="M12.702 18.9554L12.7026 18.9563C12.7026 18.956 12.7026 18.956 12.7026 18.9557C12.702 18.9557 12.702 18.9557 12.702 18.9554ZM16.8598 12.9374C17.0439 12.7778 17.1155 12.5663 17.1211 12.3287C17.1252 12.1692 17.124 12.0093 17.1264 11.8492C17.1352 11.2695 17.1437 10.6898 17.1554 10.1101C17.1569 10.0386 17.1408 10.028 17.0703 10.0342C16.6106 10.0749 16.1864 9.95852 15.8021 9.70709C15.7231 9.65568 15.7032 9.68168 15.6706 9.74313C15.3292 10.389 14.986 11.0343 14.6457 11.6811C14.5465 11.8702 14.486 12.0761 14.5615 12.2823C14.6123 12.4215 14.5685 12.4892 14.4637 12.5589C14.2438 12.7054 14.0445 12.8753 13.8845 13.0895C13.6582 13.3924 13.554 13.7416 13.4838 14.1065C13.2401 15.3726 13.0335 16.6454 12.8165 17.9162C12.7622 18.2353 12.68 18.5503 12.6686 18.8762L12.668 18.8756C12.6724 18.8853 12.6771 18.8951 12.6815 18.9046L12.6829 18.909C12.6991 18.9202 12.705 18.9362 12.7026 18.9554C12.7267 18.9793 12.7455 19.0065 12.7519 19.0408L12.7563 19.0464C12.7613 19.0535 12.7663 19.0606 12.7713 19.0676L12.7757 19.0733C12.7822 19.0809 12.7883 19.0883 12.7948 19.0957L12.7963 19.0975C12.8315 19.1019 12.8514 19.1214 12.857 19.1566L12.8576 19.1581C12.9055 19.1731 12.9442 19.1982 12.9598 19.2497L12.9618 19.2514C13.0067 19.2573 13.0399 19.286 13.0754 19.3105C13.2357 19.4213 13.4107 19.5017 13.5951 19.5628C13.7069 19.5998 13.8199 19.6343 13.9321 19.6701L13.9312 19.6689C14.2767 19.7484 14.6246 19.8025 14.9807 19.767L14.9819 19.7664C14.9957 19.7499 15.0127 19.7496 15.0309 19.7578C15.0394 19.7576 15.0482 19.7573 15.0573 19.757C15.0696 19.7369 15.0887 19.7404 15.1075 19.7425L15.1087 19.7419C15.121 19.7215 15.1398 19.7245 15.1583 19.7274L15.1603 19.7265C15.1689 19.7212 15.1777 19.7159 15.1862 19.7106L15.1912 19.7082C15.1982 19.7047 15.205 19.7008 15.212 19.6973L15.2384 19.6923C15.2475 19.686 15.2563 19.6801 15.2654 19.6739L15.2672 19.673C15.2895 19.6468 15.3162 19.6275 15.3494 19.6181L15.3523 19.616C15.3817 19.5806 15.4111 19.5451 15.4404 19.5097L15.441 19.5091C15.4483 19.478 15.4533 19.4461 15.4636 19.4163C15.6207 18.9654 15.778 18.5148 15.9368 18.0648C16.0211 17.8255 16.0912 17.5815 16.1952 17.3492L16.1934 17.3486C16.2043 17.3061 16.2119 17.2624 16.2263 17.221C16.4911 16.4587 16.7474 15.6935 16.9978 14.9261C17.1126 14.5742 17.1631 14.2188 17.0994 13.851C17.0559 13.5995 16.9537 13.3699 16.8425 13.143C16.8073 13.0718 16.7847 13.0027 16.8598 12.9374ZM15.2889 11.5593C15.2892 11.5561 15.2898 11.5531 15.2904 11.5499C15.3409 11.2722 15.6054 11.0884 15.8811 11.1389C16.1573 11.1897 16.3399 11.4556 16.2894 11.7334C16.2389 12.0114 15.9747 12.1952 15.6985 12.1444C15.4478 12.0983 15.274 11.874 15.2822 11.6249C15.2813 11.6045 15.2836 11.5824 15.2889 11.5593ZM14.9528 11.9015C14.9995 11.8613 15.0526 11.8554 15.1096 11.8773C15.1604 11.8968 15.1741 11.9449 15.1935 11.9884C15.3212 12.2696 15.5385 12.428 15.8411 12.4759C16.1432 12.5237 16.4168 12.4679 16.6587 12.2631C16.6032 12.4277 16.5005 12.5509 16.3534 12.6316C16.0425 12.8018 15.7261 12.784 15.4149 12.6345C15.1712 12.5172 14.9965 12.332 14.9164 12.0669C14.8985 12.0061 14.9005 11.9467 14.9528 11.9015ZM14.4332 12.8083C14.5814 12.6443 14.6801 12.4578 14.7188 12.2333C14.7209 12.2108 14.7247 12.1831 14.7253 12.1553C14.7256 12.1216 14.7253 12.0867 14.7696 12.0856C14.8069 12.0847 14.8122 12.1175 14.8139 12.1452C14.8324 12.4428 14.7954 12.722 14.5459 12.9247C14.4969 12.9643 14.4314 13.0343 14.3709 12.9666C14.3122 12.9016 14.3953 12.8499 14.4332 12.8083ZM16.3361 16.2475C16.2536 16.4253 16.2034 16.6147 16.142 16.8C15.9635 17.3416 15.7786 17.8811 15.6039 18.4244C15.5253 18.6691 15.4263 18.9093 15.3459 19.1542C15.2828 19.3463 15.1501 19.4479 14.9722 19.5073C14.8738 19.5401 14.7711 19.5531 14.6677 19.5569C14.3325 19.5702 14.0131 19.4887 13.6966 19.3915C13.46 19.3188 13.2357 19.2204 13.047 19.0526C12.8629 18.8889 12.7616 18.7042 12.8206 18.4419C12.8893 18.1378 12.9363 17.8285 12.9847 17.52C12.9953 17.4535 13.0655 17.3977 13.0511 17.3534C13.0109 17.2278 13.0637 17.1182 13.0825 17.005C13.1524 16.5875 13.2313 16.1718 13.3094 15.741C13.4588 15.8533 13.6153 15.9284 13.7809 15.9833C14.3865 16.1845 15.0109 16.1895 15.6386 16.1647C15.8508 16.1565 16.0634 16.1511 16.2756 16.1686C16.3293 16.1736 16.3619 16.1913 16.3361 16.2475ZM16.4239 15.9546C16.4054 16.004 16.3675 15.9886 16.3337 15.9866C15.8893 15.96 15.4445 15.9951 15.0004 15.9931C14.5811 15.991 14.166 15.9611 13.7706 15.8034C13.6124 15.7404 13.4674 15.6574 13.3596 15.5203C13.699 15.6462 14.0448 15.6293 14.3903 15.6045C14.7928 15.5756 15.1921 15.4958 15.5984 15.5212C15.8963 15.5398 16.1673 15.6252 16.3878 15.8394C16.4224 15.8731 16.4429 15.9047 16.4239 15.9546ZM16.5337 14.2823C16.5108 14.2885 16.487 14.2924 16.4638 14.2971C16.108 14.3645 15.7528 14.3497 15.3858 14.2921C14.9813 14.1999 14.5717 14.0903 14.2159 13.8385C14.0269 13.7047 13.8845 13.5416 13.8692 13.2943C13.866 13.2402 13.8757 13.2009 13.9262 13.1755C13.9787 13.1489 14.0193 13.172 14.0545 13.2071C14.0768 13.2296 14.0935 13.2574 14.1106 13.2843C14.2729 13.5398 14.4857 13.7393 14.7614 13.8642C15.1806 14.0533 15.6315 14.108 16.0804 14.1686C16.2257 14.1881 16.3731 14.1913 16.5196 14.2005C16.5489 14.2026 16.5792 14.2023 16.5818 14.2389C16.5839 14.2679 16.5568 14.2764 16.5337 14.2823ZM16.7427 12.675C16.6878 12.8035 16.6528 12.9353 16.6461 13.078C16.6402 13.2083 16.6796 13.3298 16.6928 13.4556C16.6975 13.5014 16.7057 13.5472 16.6537 13.5676C16.5947 13.5909 16.5806 13.5342 16.5583 13.5011C16.4626 13.3596 16.4614 13.2024 16.4899 13.0414C16.5155 12.8898 16.5721 12.7509 16.6646 12.6277C16.6837 12.6026 16.706 12.5719 16.7421 12.5991C16.7712 12.6209 16.7532 12.6499 16.7427 12.675Z" fill="white"/>
<path d="M17.1294 7.16185C17.08 7.15269 17.0542 7.18194 17.0345 7.22094C17.0275 7.37133 16.9623 7.50399 16.9077 7.63991C16.871 7.73091 16.891 7.75691 16.9914 7.751L16.9937 7.74893C17.0642 7.55895 17.1426 7.37103 17.1294 7.16185Z" fill="white"/>
<path d="M17.4631 8.49613C17.4558 8.48756 17.4484 8.47929 17.4411 8.47072C17.1387 8.17644 16.7794 8.05884 16.3634 8.12207C16.2316 8.14216 16.1262 8.20658 16.0537 8.32299C15.9527 8.4852 15.8426 8.6415 15.7648 8.81789C15.7261 8.90594 15.7369 8.9801 15.7983 9.05012C15.9885 9.26788 16.2272 9.40645 16.5064 9.46702C16.6875 9.50632 16.8681 9.55359 17.0574 9.5468C17.1878 9.54207 17.3005 9.48416 17.4197 9.44545C17.4813 9.42536 17.5098 9.37188 17.5168 9.30717C17.5468 9.03417 17.5406 8.76264 17.4631 8.49613ZM16.7436 8.24351C16.9274 8.27246 17.0812 8.33333 17.2148 8.43881C17.2573 8.47249 17.3022 8.5174 17.2905 8.57974C17.277 8.64888 17.2151 8.67252 17.1558 8.67961C16.8689 8.71359 16.605 8.65125 16.3725 8.47397C16.3282 8.43999 16.285 8.39656 16.3026 8.33303C16.3194 8.27246 16.3743 8.24853 16.4298 8.23819C16.5399 8.21751 16.6505 8.21751 16.7436 8.24351Z" fill="white"/>
<path d="M16.6102 9.88307C16.7394 9.91114 16.9002 9.93478 17.0638 9.9076C17.1451 9.894 17.2267 9.7702 17.2097 9.69309C17.2006 9.65202 17.1703 9.66236 17.1439 9.66354C16.6912 9.68393 16.2708 9.58111 15.8898 9.32967C15.8695 9.31637 15.8534 9.29924 15.8314 9.32878C15.7803 9.39733 15.7944 9.54447 15.8648 9.59765C16.0768 9.7575 16.3228 9.83137 16.6102 9.88307Z" fill="white"/>
<path d="M16.7272 6.40486C16.6743 6.25565 16.657 6.09639 16.5954 5.94925C16.5469 5.83402 16.4797 5.78084 16.3975 5.81482C16.3024 5.85441 16.2986 5.93152 16.3179 6.024C16.3684 6.26481 16.4113 6.50709 16.4562 6.74907C16.4603 6.77182 16.4568 6.79605 16.4571 6.81969C16.5226 7.06699 16.529 7.32079 16.5416 7.5743C16.5446 7.63044 16.5129 7.72735 16.5707 7.73562C16.6426 7.74596 16.6191 7.6461 16.6359 7.59557C16.7642 7.20674 16.7586 6.80668 16.7272 6.40486Z" fill="white"/>
<path d="M15.7108 11.2972C15.7081 11.312 15.6826 11.3191 15.6535 11.3138C15.6248 11.3085 15.603 11.2925 15.6057 11.278C15.6083 11.2636 15.6339 11.2562 15.6629 11.2615C15.6917 11.2668 15.7131 11.2828 15.7108 11.2972Z" fill="white"/>
<path d="M16.0036 11.3245C15.9968 11.3614 15.9313 11.3804 15.8571 11.3665C15.7831 11.3529 15.7282 11.3118 15.7349 11.2752C15.7417 11.2382 15.8074 11.2193 15.8814 11.2329C15.9557 11.2465 16.0103 11.2876 16.0036 11.3245Z" fill="white"/>
<path d="M16.0036 11.3245C15.9968 11.3614 15.9313 11.3804 15.8571 11.3665C15.7831 11.3529 15.7282 11.3118 15.7349 11.2752C15.7417 11.2382 15.8074 11.2193 15.8814 11.2329C15.9557 11.2465 16.0103 11.2876 16.0036 11.3245Z" fill="white"/>
<path d="M15.7108 11.2972C15.7081 11.312 15.6826 11.3191 15.6535 11.3138C15.6248 11.3085 15.603 11.2925 15.6057 11.278C15.6083 11.2636 15.6339 11.2562 15.6629 11.2615C15.6917 11.2668 15.7131 11.2828 15.7108 11.2972Z" fill="white"/>
<path d="M11.3014 18.9911C11.2932 18.9872 11.285 18.9834 11.2771 18.9796C11.27 18.9716 11.2627 18.9633 11.2557 18.9553L11.2542 18.9539C11.2392 18.9228 11.2181 18.8974 11.1881 18.8797L11.1861 18.877C11.1664 18.8354 11.1467 18.7937 11.1271 18.7518L11.1268 18.7509C11.1274 18.719 11.1306 18.6871 11.1279 18.6554C11.0871 18.1795 11.0466 17.7038 11.0041 17.2281C10.9815 16.9751 10.9741 16.721 10.931 16.4702L10.9327 16.4699C10.9327 16.4259 10.936 16.3816 10.9321 16.3381C10.8643 15.5336 10.8056 14.7281 10.7528 13.9221C10.7284 13.5522 10.7677 13.1956 10.9204 12.8552C11.0249 12.6224 11.1805 12.4259 11.344 12.2341C11.3951 12.1742 11.4344 12.113 11.3775 12.0309C11.2386 11.83 11.2219 11.6075 11.2747 11.3761C11.3103 11.2204 11.3514 11.0659 11.3883 10.9105C11.5231 10.3467 11.6584 9.78328 11.7902 9.21895C11.8064 9.14922 11.8246 9.14302 11.8915 9.16695C12.3269 9.32147 12.7661 9.31557 13.2008 9.16783C13.2898 9.1377 13.303 9.16783 13.3191 9.23579C13.49 9.94697 13.6629 10.6579 13.8323 11.3693C13.8816 11.577 13.8892 11.7921 13.7654 11.9727C13.6814 12.095 13.7072 12.1712 13.7915 12.2652C13.9685 12.4622 14.1194 12.6765 14.2213 12.9243C14.3654 13.2742 14.3801 13.6388 14.3578 14.0096C14.2806 15.2969 14.1658 16.5816 14.0613 17.8669C14.0351 18.1895 14.0366 18.5151 13.967 18.8336L13.9676 18.8333C13.9609 18.8416 13.9541 18.8499 13.9474 18.8581L13.945 18.8623C13.9262 18.8691 13.9168 18.8832 13.9145 18.9027L13.9151 18.9019C13.8854 18.919 13.8605 18.9406 13.8455 18.9725L13.8399 18.9769C13.8332 18.9825 13.8267 18.9881 13.82 18.9937L13.8144 18.9982C13.8065 19.0038 13.7985 19.0097 13.7903 19.0153L13.7885 19.0165C13.7533 19.0118 13.7292 19.026 13.7152 19.0587L13.714 19.0599C13.6641 19.0629 13.62 19.0774 13.5921 19.1232L13.5898 19.1243C13.5449 19.1187 13.5058 19.1382 13.4653 19.1533C13.2827 19.2207 13.0931 19.2543 12.8999 19.2673C12.7822 19.2753 12.6645 19.2803 12.5468 19.2865L12.5479 19.2857C12.1936 19.2759 11.8434 19.241 11.5072 19.1175L11.5061 19.117C11.4967 19.0975 11.4805 19.093 11.4609 19.0963C11.4523 19.0936 11.4441 19.0913 11.4356 19.0886C11.4286 19.0661 11.4092 19.0647 11.3907 19.062L11.3895 19.0611C11.3828 19.0384 11.364 19.0366 11.3449 19.0345L11.3434 19.033C11.3364 19.026 11.3293 19.0186 11.3223 19.0115L11.3179 19.0076C11.3132 19.0017 11.3073 18.9964 11.3014 18.9911ZM12.3457 10.7432L12.3401 10.7462L12.3398 10.7527L12.3322 10.7548L12.3339 10.7616C12.3272 10.7731 12.3201 10.7846 12.3134 10.7961C12.3002 10.8053 12.289 10.8156 12.2922 10.8342C12.289 10.8431 12.2861 10.852 12.2828 10.8608C12.2649 10.8703 12.2602 10.8854 12.2638 10.9043C12.2573 10.9515 12.2467 10.9988 12.2456 11.0464C12.2391 11.2972 12.4223 11.5103 12.6709 11.5442C12.9258 11.5791 13.1465 11.416 13.2287 11.1593C13.2863 10.979 13.1072 10.6516 12.9234 10.5908C12.8591 10.5485 12.7889 10.5397 12.7147 10.5533C12.6971 10.5544 12.6797 10.5556 12.6621 10.5568C12.6439 10.5509 12.6287 10.5547 12.616 10.5698C12.6075 10.5716 12.599 10.5731 12.5905 10.5748C12.5764 10.5801 12.5626 10.5858 12.5485 10.5911C12.4707 10.6124 12.4135 10.6623 12.3645 10.7234C12.3586 10.7297 12.3521 10.7364 12.3457 10.7432ZM14.1223 15.6367C13.9497 15.7079 13.7797 15.7416 13.6057 15.7531C12.9692 15.7962 12.3633 15.6444 11.7615 15.4633C11.558 15.4018 11.3534 15.3436 11.1435 15.3073C11.0904 15.2981 11.0546 15.307 11.0657 15.3678C11.1012 15.5608 11.1036 15.7567 11.1168 15.9514C11.1555 16.5207 11.2013 17.0898 11.236 17.6597C11.2515 17.9162 11.2882 18.1738 11.3053 18.4315C11.3188 18.6333 11.4221 18.7648 11.5797 18.867C11.6669 18.9237 11.7632 18.9615 11.8625 18.9914C12.1836 19.088 12.5136 19.0895 12.8438 19.0744C13.0907 19.0635 13.3326 19.0245 13.5569 18.9092C13.7756 18.797 13.9198 18.6433 13.9271 18.3745C13.9359 18.0627 13.9667 17.7513 13.9961 17.4408C14.0026 17.3737 13.9482 17.3019 13.9729 17.2626C14.0431 17.1512 14.019 17.0319 14.0287 16.9172C14.0651 16.4959 14.0915 16.0734 14.1223 15.6367ZM14.1285 15.4101C13.7686 15.447 13.438 15.3439 13.1095 15.2331C12.7267 15.104 12.3598 14.927 11.9599 14.8496C11.6666 14.7929 11.3831 14.8076 11.1168 14.9598C11.0751 14.9837 11.0475 15.0091 11.0534 15.062C11.0593 15.1143 11.0995 15.109 11.1326 15.1155C11.5698 15.2012 11.9916 15.3466 12.4226 15.4559C12.8289 15.559 13.2387 15.634 13.6605 15.5803C13.8291 15.5593 13.9902 15.5156 14.1285 15.4101ZM12.4698 13.7121C12.8844 13.7239 13.3083 13.7206 13.7152 13.5658C13.9315 13.4834 14.1097 13.3613 14.1857 13.1256C14.2022 13.0741 14.2025 13.0337 14.1602 12.9964C14.1156 12.9574 14.071 12.9698 14.0281 12.995C14.0011 13.0109 13.9776 13.0337 13.9547 13.0555C13.7342 13.2627 13.4788 13.4024 13.1806 13.4541C12.7279 13.5324 12.2776 13.4721 11.8278 13.4184C11.6822 13.4009 11.5386 13.3672 11.3945 13.3392C11.3654 13.3336 11.3364 13.3259 11.3246 13.3607C11.3155 13.3885 11.3399 13.4036 11.3607 13.4154C11.3816 13.4272 11.4033 13.437 11.4247 13.447C11.7527 13.6013 12.1002 13.676 12.4698 13.7121ZM11.7389 11.4284C11.7518 11.6019 11.8211 11.7469 11.9435 11.8616C12.2027 12.1044 12.5133 12.1665 12.8518 12.0997C13.1169 12.0474 13.3315 11.9118 13.475 11.6751C13.5079 11.6211 13.5202 11.5632 13.4809 11.5061C13.446 11.4556 13.3958 11.4364 13.3353 11.4435C13.2813 11.4497 13.256 11.4928 13.2264 11.5298C13.0332 11.7703 12.7834 11.8695 12.4786 11.8397C12.1736 11.8099 11.9226 11.6872 11.7389 11.4284ZM11.7101 12.2244C11.723 12.0711 11.7025 11.9224 11.6432 11.7803C11.6311 11.7514 11.617 11.7159 11.5753 11.733C11.5419 11.7469 11.5522 11.7791 11.5563 11.8063C11.5777 11.9449 11.5786 12.0811 11.5498 12.2206C11.5234 12.3485 11.4553 12.456 11.4112 12.5748C11.3954 12.618 11.376 12.6602 11.4212 12.693C11.4726 12.7302 11.5005 12.6788 11.5301 12.6525C11.6578 12.5394 11.6981 12.3875 11.7101 12.2244ZM13.6253 11.8855C13.6288 11.8633 13.6318 11.8356 13.6385 11.8084C13.6465 11.7759 13.6553 11.7419 13.613 11.7298C13.5772 11.7195 13.564 11.7502 13.5555 11.7765C13.4639 12.0598 13.431 12.3396 13.6221 12.5985C13.6597 12.6493 13.7058 12.7332 13.7812 12.683C13.854 12.6345 13.7865 12.5633 13.7601 12.5137C13.6567 12.3181 13.6074 12.1127 13.6253 11.8855Z" fill="white"/>
<path d="M12.5472 6.36914C12.5974 6.37269 12.615 6.40755 12.6244 6.4501C12.5941 6.59753 12.6241 6.74231 12.6434 6.88738C12.6564 6.98459 12.6305 7.00498 12.5348 6.97395L12.5331 6.97159C12.5122 6.77008 12.4826 6.56858 12.5472 6.36914Z" fill="white"/>
<path d="M11.8924 7.57826C11.9015 7.57176 11.9109 7.56556 11.92 7.55906C12.2858 7.34987 12.6627 7.32623 13.0499 7.49169C13.1727 7.54399 13.2587 7.63292 13.3001 7.76411C13.3579 7.94641 13.4257 8.12546 13.4574 8.31604C13.4733 8.41117 13.4442 8.48002 13.3676 8.53261C13.1295 8.696 12.8638 8.77016 12.5785 8.75893C12.3935 8.75184 12.2065 8.75214 12.0251 8.69836C11.9 8.66114 11.8052 8.57693 11.6992 8.50956C11.6446 8.4747 11.63 8.41561 11.6394 8.35119C11.6784 8.07819 11.7515 7.817 11.8924 7.57826ZM12.6519 7.51385C12.4666 7.49583 12.3025 7.51622 12.1472 7.58476C12.0976 7.60663 12.043 7.63913 12.0392 7.70206C12.0351 7.77238 12.0894 7.81079 12.1452 7.83236C12.4147 7.93725 12.6856 7.94316 12.9545 7.8297C13.0059 7.80813 13.0585 7.77682 13.057 7.71063C13.0558 7.6477 13.0086 7.61076 12.9575 7.58683C12.8556 7.53956 12.7485 7.51208 12.6519 7.51385Z" fill="white"/>
<path d="M12.3737 9.13377C12.2416 9.12845 12.0798 9.11102 11.9284 9.04365C11.8529 9.00997 11.8045 8.86962 11.84 8.7993C11.8588 8.76178 11.8858 8.77951 11.911 8.78719C12.3444 8.92044 12.7771 8.92606 13.2083 8.77832C13.2312 8.77064 13.2509 8.75794 13.265 8.79221C13.2976 8.8714 13.2474 9.01056 13.166 9.04424C12.9212 9.14588 12.6646 9.15593 12.3737 9.13377Z" fill="white"/>
<path d="M13.1243 5.73625C13.2124 5.60506 13.2684 5.45497 13.3647 5.32821C13.4402 5.22894 13.5186 5.19407 13.5896 5.24785C13.6718 5.30989 13.6565 5.38553 13.6148 5.47033C13.5065 5.69074 13.4049 5.91471 13.3016 6.13778C13.2919 6.15876 13.2893 6.18328 13.2834 6.20603C13.1586 6.42911 13.0899 6.67316 13.0148 6.91544C12.9981 6.96921 13.0048 7.07085 12.9467 7.06435C12.8745 7.05637 12.9217 6.96537 12.9182 6.91248C12.89 6.50386 12.9942 6.11739 13.1243 5.73625Z" fill="white"/>
<path d="M12.8787 10.7017C12.8813 10.6643 12.8225 10.6296 12.7473 10.6242C12.6721 10.6188 12.609 10.6448 12.6064 10.6822C12.6037 10.7197 12.6625 10.7544 12.7377 10.7598C12.8129 10.7651 12.876 10.7392 12.8787 10.7017Z" fill="white"/>
<path d="M13.003 10.7389C13.004 10.7243 12.981 10.7107 12.9516 10.7086C12.9221 10.7065 12.8974 10.7166 12.8964 10.7313C12.8954 10.7459 12.9184 10.7595 12.9478 10.7616C12.9773 10.7637 13.002 10.7536 13.003 10.7389Z" fill="white"/>
<path d="M12.4933 22.1989C16.8689 22.386 21.0919 18.9453 21.9708 14.5834C22.8885 10.0303 20.7892 5.73457 16.6455 3.68967C16.3763 3.55671 16.0417 3.44148 16.2257 3.04822C16.4301 2.61182 16.7518 2.83844 17.033 2.97346C20.7358 4.75008 23.4325 8.81772 22.9449 13.7304C22.5377 17.8332 19.3781 21.5666 15.2476 22.6924C14.3857 22.9273 13.5058 23.0378 12.4578 23.0717C13.0156 23.4786 13.4647 23.8107 13.9186 24.1357C14.1608 24.3091 14.3871 24.51 14.1752 24.8179C13.9597 25.1311 13.6931 24.9795 13.453 24.8058C12.6636 24.2353 11.8686 23.6727 11.0857 23.0936C10.6333 22.7588 10.628 22.5417 11.0684 22.2173C11.8683 21.6275 12.6833 21.0585 13.4885 20.4758C13.719 20.3092 13.9635 20.193 14.1643 20.4678C14.3862 20.7713 14.1819 20.979 13.9342 21.1557C13.485 21.4753 13.0402 21.8021 12.4933 22.1989Z" fill="white"/>
<path d="M12.5417 1.89749C11.9789 1.49773 11.525 1.17716 11.0732 0.853623C10.831 0.680187 10.6197 0.468635 10.844 0.164013C11.0459 -0.110176 11.2969 0.00712239 11.5233 0.170513C12.3294 0.751984 13.1423 1.3243 13.9396 1.91818C14.3861 2.25087 14.3806 2.46212 13.9247 2.79688C13.1235 3.38515 12.3083 3.95392 11.5027 4.53598C11.2673 4.70616 11.0254 4.79864 10.8328 4.51559C10.6429 4.23667 10.814 4.03339 11.0456 3.86764C11.5074 3.53672 11.9669 3.20255 12.5584 2.77472C10.4885 2.76527 8.73263 3.29415 7.17145 4.37229C4.15417 6.4556 2.63173 9.38423 2.84691 13.053C3.06768 16.8178 4.98026 19.5721 8.33133 21.292C8.56148 21.4102 8.83362 21.4902 8.83714 21.8096C8.84096 22.1529 8.48897 22.2756 8.0589 22.0696C6.39467 21.2728 5.0199 20.1216 3.94779 18.613C-0.634786 12.1645 3.31603 3.05482 11.132 2.04552C11.5565 1.99056 11.9836 1.9554 12.5417 1.89749Z" fill="white"/>
</g>
<defs>
<clipPath id="clip0_384_203">
<rect width="25" height="25" fill="white"/>
</clipPath>
</defs>
</svg>
