<svg width="25" height="25" viewBox="0 0 25 25" fill="none" xmlns="http://www.w3.org/2000/svg">
<path d="M8.52304 20.8368C8.51008 20.8344 8.49711 20.832 8.48414 20.8295C8.47118 20.8209 8.45786 20.8122 8.4449 20.8036C8.4449 20.8036 8.44209 20.8022 8.44244 20.8022C8.40985 20.7645 8.37061 20.7368 8.3219 20.7229L8.31769 20.7198C8.27459 20.6686 8.23149 20.6177 8.18839 20.5665L8.18769 20.5654C8.17682 20.5208 8.16981 20.4748 8.15475 20.4319C7.92417 19.7832 7.69359 19.1343 7.46091 18.4864C7.33721 18.142 7.23419 17.7903 7.08175 17.4563L7.0842 17.4553C7.06809 17.394 7.05687 17.331 7.0355 17.2715C6.64688 16.174 6.27157 15.0723 5.90398 13.9679C5.73508 13.4608 5.66149 12.9496 5.75505 12.4201C5.81883 12.058 5.96881 11.7275 6.13176 11.4011C6.18257 11.299 6.21621 11.1993 6.10547 11.1055C5.8353 10.8757 5.73052 10.5715 5.72211 10.2295C5.71615 9.99969 5.71826 9.76953 5.71475 9.53937C5.70179 8.70489 5.68952 7.87042 5.672 7.03594C5.6699 6.93314 5.69338 6.91757 5.7971 6.92657C6.47167 6.98506 7.09367 6.81789 7.6575 6.45551C7.77279 6.38144 7.80257 6.41882 7.85023 6.50743C8.35098 7.43743 8.85489 8.3657 9.35354 9.29709C9.49932 9.56913 9.58798 9.86575 9.47724 10.1627C9.4026 10.3635 9.46673 10.4607 9.62056 10.5611C9.9433 10.7719 10.2356 11.0162 10.4707 11.325C10.8025 11.7611 10.9557 12.2636 11.0587 12.7887C11.4161 14.6116 11.7192 16.4439 12.0374 18.2735C12.1173 18.7328 12.2379 19.1862 12.2543 19.6552L12.255 19.6548C12.2484 19.6687 12.2417 19.6829 12.2354 19.6967L12.2333 19.7033C12.2088 19.7196 12.2011 19.7427 12.2046 19.7704L12.2053 19.769C12.1695 19.8037 12.1415 19.8428 12.132 19.8926L12.1257 19.9006C12.1184 19.911 12.111 19.921 12.1037 19.9314C12.1037 19.9314 12.0974 19.9397 12.0974 19.9393C12.0882 19.9501 12.0788 19.9608 12.0693 19.9719L12.0672 19.9743C12.0157 19.9805 11.9863 20.0089 11.9782 20.0594L11.9772 20.0612C11.9074 20.083 11.85 20.1193 11.8272 20.193L11.824 20.1955C11.7581 20.2041 11.7094 20.2453 11.6576 20.2806C11.4224 20.4402 11.1656 20.5558 10.8958 20.6437C10.7314 20.697 10.566 20.7468 10.4013 20.798L10.4027 20.7967C9.896 20.9109 9.38578 20.9887 8.8633 20.9379L8.86155 20.9372C8.84122 20.9133 8.81669 20.9129 8.79006 20.9247C8.7771 20.9244 8.76448 20.9237 8.75152 20.9233C8.73329 20.8946 8.70526 20.8994 8.67793 20.9026L8.67583 20.9015C8.65795 20.8721 8.63062 20.8766 8.60294 20.8808L8.60013 20.8794C8.58752 20.8718 8.5749 20.8641 8.56229 20.8569L8.55493 20.8531C8.54336 20.8475 8.5332 20.8423 8.52304 20.8368ZM7.01307 8.96101L7.00606 8.9669L7.00781 8.9759L6.99765 8.98143L7.00291 8.99043C6.9973 9.00878 6.99169 9.02747 6.98644 9.04581C6.97102 9.06346 6.95875 9.08181 6.97032 9.10638C6.96892 9.11988 6.96786 9.13338 6.96646 9.14688C6.94439 9.16626 6.94333 9.18945 6.95525 9.21437C6.96331 9.2829 6.96541 9.35247 6.98083 9.41927C7.06248 9.77126 7.40029 10.0021 7.76578 9.95989C8.14073 9.91663 8.39514 9.60963 8.41861 9.22164C8.43508 8.94959 8.06153 8.55745 7.77874 8.5391C7.67186 8.50345 7.56919 8.51661 7.46862 8.56229C7.44409 8.57025 7.41991 8.57821 7.39538 8.58617C7.36735 8.58444 7.34702 8.59552 7.33476 8.62079C7.32319 8.62598 7.31198 8.63151 7.30042 8.63671C7.28254 8.64917 7.26467 8.66197 7.2468 8.67443C7.14413 8.73189 7.0807 8.82222 7.03339 8.92571C7.02603 8.93748 7.01973 8.94925 7.01307 8.96101ZM11.3131 15.1426C11.0937 15.3042 10.8646 15.4122 10.6214 15.4914C9.73305 15.7811 8.8167 15.7881 7.89613 15.7524C7.58461 15.7403 7.27308 15.7327 6.96156 15.758C6.88271 15.7642 6.83505 15.7898 6.8729 15.8704C6.99344 16.1266 7.06773 16.399 7.15744 16.6658C7.41921 17.4459 7.69079 18.2226 7.94695 19.0045C8.06223 19.3565 8.20766 19.7026 8.3254 20.0553C8.41791 20.3318 8.6124 20.4779 8.87346 20.5634C9.01819 20.6108 9.16852 20.6291 9.32025 20.6347C9.8119 20.6537 10.2808 20.5364 10.7447 20.3965C11.0916 20.292 11.4207 20.1505 11.6979 19.9089C11.968 19.6735 12.1166 19.4074 12.0297 19.0298C11.9292 18.5919 11.8601 18.1468 11.789 17.7031C11.7736 17.6076 11.6705 17.5266 11.6916 17.4632C11.7508 17.2826 11.6733 17.1248 11.6453 16.9617C11.5437 16.3609 11.4277 15.7625 11.3131 15.1426ZM11.2395 14.8241C10.7416 15.0055 10.2345 14.9809 9.72744 14.9449C9.13698 14.9031 8.55142 14.7885 7.95536 14.8252C7.51838 14.8518 7.12065 14.9747 6.79721 15.2834C6.74675 15.3315 6.71661 15.3772 6.74429 15.4492C6.77163 15.5202 6.82699 15.498 6.8764 15.4953C7.52854 15.4572 8.18033 15.5077 8.83246 15.5046C9.44711 15.5018 10.0565 15.4586 10.6364 15.2315C10.8684 15.1405 11.0815 15.0211 11.2395 14.8241ZM8.26688 13.0552C8.86015 12.9223 9.46112 12.7648 9.9829 12.4021C10.2601 12.2093 10.4693 11.9746 10.4914 11.6185C10.4963 11.5406 10.4819 11.4842 10.408 11.4475C10.3305 11.4091 10.2713 11.4423 10.2198 11.4928C10.1872 11.5247 10.1623 11.5648 10.1374 11.6036C9.8995 11.9718 9.58727 12.2591 9.18254 12.4384C8.56789 12.7108 7.90595 12.7894 7.24785 12.8766C7.0348 12.905 6.81858 12.9095 6.60378 12.9226C6.56067 12.9254 6.51617 12.925 6.51266 12.978C6.50986 13.0199 6.54981 13.032 6.5838 13.041C6.61744 13.0496 6.65213 13.0555 6.68647 13.0621C7.20755 13.1597 7.72863 13.1386 8.26688 13.0552ZM6.39948 10.135C6.48078 10.3721 6.63181 10.5493 6.84732 10.6649C7.30357 10.9103 7.76753 10.8847 8.22413 10.6691C8.58156 10.5005 8.83737 10.234 8.95511 9.85225C8.98209 9.76503 8.97859 9.67954 8.90185 9.61447C8.83352 9.55667 8.75537 9.54802 8.67197 9.57952C8.59733 9.60755 8.57736 9.67712 8.54862 9.73942C8.3615 10.1444 8.04261 10.3728 7.59863 10.4417C7.15569 10.5099 6.75446 10.4296 6.39948 10.135ZM6.64723 11.255C6.60973 11.0366 6.52668 10.8369 6.39107 10.6601C6.36338 10.6237 6.3308 10.5794 6.27753 10.6185C6.23513 10.6497 6.26106 10.6916 6.27683 10.7276C6.35743 10.9131 6.40824 11.1024 6.41805 11.3077C6.42716 11.4956 6.36934 11.67 6.35007 11.8514C6.34306 11.9172 6.33115 11.9833 6.40719 12.0127C6.49374 12.0463 6.51442 11.9646 6.54736 11.9168C6.68753 11.7133 6.68928 11.4869 6.64723 11.255ZM9.24561 10.0918C9.24281 10.0596 9.23685 10.0198 9.23615 9.97962C9.23545 9.93116 9.23615 9.88098 9.17132 9.87925C9.11666 9.87786 9.10895 9.92528 9.10649 9.96508C9.07916 10.3932 9.13383 10.7954 9.49967 11.0872C9.57151 11.1443 9.66752 11.245 9.75618 11.1477C9.84203 11.054 9.72009 10.9792 9.66472 10.919C9.44711 10.6833 9.30238 10.415 9.24561 10.0918Z" fill="white"/>
<path d="M5.70923 2.78954C5.78177 2.77639 5.81962 2.81827 5.84835 2.87468C5.85886 3.091 5.95418 3.28206 6.03442 3.47761C6.08804 3.60844 6.05895 3.64617 5.91178 3.63751L5.90827 3.63475C5.8049 3.36132 5.68961 3.091 5.70923 2.78954Z" fill="white"/>
<path d="M5.22018 4.7109C5.23105 4.69878 5.24191 4.68667 5.25277 4.67421C5.69641 4.25057 6.22345 4.08132 6.83353 4.17235C7.02661 4.20107 7.1815 4.29418 7.28803 4.4617C7.43626 4.69497 7.5978 4.92029 7.71169 5.17434C7.76881 5.30136 7.75234 5.40796 7.66263 5.50868C7.3837 5.82226 7.03327 6.02162 6.62398 6.10884C6.35836 6.1656 6.09309 6.23344 5.8159 6.22375C5.62492 6.21717 5.45917 6.13376 5.28466 6.07804C5.19425 6.04931 5.1522 5.97213 5.14204 5.87902C5.09754 5.48515 5.10665 5.09473 5.22018 4.7109ZM6.27566 4.34748C6.00583 4.38901 5.78016 4.47658 5.58462 4.62852C5.52225 4.67698 5.45602 4.7417 5.47354 4.83134C5.49316 4.93102 5.58427 4.96494 5.67118 4.97498C6.09204 5.02413 6.47925 4.93448 6.82022 4.67905C6.88539 4.63025 6.94847 4.56761 6.92254 4.47623C6.89801 4.38901 6.81741 4.35475 6.73611 4.33986C6.57492 4.30975 6.41232 4.3101 6.27566 4.34748Z" fill="white"/>
<path d="M6.46881 6.70997C6.27923 6.75047 6.04305 6.78439 5.80336 6.74493C5.68387 6.7252 5.56437 6.5473 5.58925 6.4362C5.60257 6.37701 5.64707 6.3919 5.68597 6.39363C6.35002 6.42305 6.96641 6.27491 7.52569 5.91322C7.55512 5.89419 7.57895 5.86961 7.61119 5.91218C7.68618 6.01083 7.66551 6.22299 7.56178 6.29948C7.25096 6.52896 6.89037 6.63556 6.46881 6.70997Z" fill="white"/>
<path d="M6.29729 1.69962C6.37508 1.48503 6.39996 1.25556 6.49072 1.04408C6.56186 0.878294 6.66068 0.801457 6.78087 0.850605C6.92034 0.907713 6.92595 1.01847 6.89756 1.15172C6.82362 1.49818 6.76055 1.84706 6.69467 2.19525C6.68836 2.22813 6.69362 2.26309 6.69362 2.29701C6.5976 2.65315 6.58814 3.0183 6.56957 3.3831C6.56536 3.46409 6.61197 3.60323 6.52681 3.61535C6.42134 3.63023 6.45568 3.48625 6.43115 3.41391C6.24297 2.85425 6.25103 2.27832 6.29729 1.69962Z" fill="white"/>
<path d="M7.57622 8.84274C7.68493 8.82313 7.76507 8.76409 7.75523 8.71087C7.74539 8.65766 7.64929 8.63042 7.54058 8.65003C7.43187 8.66965 7.35173 8.72869 7.36157 8.7819C7.37141 8.83511 7.46752 8.86235 7.57622 8.84274Z" fill="white"/>
<path d="M7.87244 8.76868C7.91509 8.76099 7.94653 8.73783 7.94267 8.71696C7.93881 8.69609 7.90111 8.6854 7.85846 8.6931C7.81582 8.70079 7.78438 8.72395 7.78824 8.74482C7.7921 8.7657 7.8298 8.77638 7.87244 8.76868Z" fill="white"/>
<path d="M12.7998 19.769L12.8005 19.7704C12.8005 19.7701 12.8005 19.7701 12.8005 19.7697C12.8001 19.7694 12.8001 19.7694 12.7998 19.769ZM18.8992 11.1055C19.1694 10.8757 19.2742 10.5715 19.2826 10.2295C19.2885 9.99969 19.2868 9.76953 19.2903 9.53937C19.3033 8.70489 19.3155 7.87042 19.333 7.03594C19.3351 6.93314 19.3117 6.91757 19.2079 6.92657C18.5334 6.98506 17.9114 6.81789 17.3475 6.45551C17.2319 6.38144 17.2025 6.41882 17.1545 6.50743C16.6537 7.43743 16.1502 8.36605 15.6511 9.29709C15.5057 9.56913 15.4167 9.86575 15.5275 10.1627C15.6021 10.3631 15.538 10.4604 15.3841 10.5607C15.0614 10.7719 14.7691 11.0162 14.5344 11.3246C14.2025 11.7607 14.0494 12.2633 13.9463 12.7887C13.5889 14.6113 13.2858 16.4436 12.9676 18.2731C12.8881 18.7324 12.7675 19.1858 12.7507 19.6552L12.75 19.6545C12.7567 19.6683 12.7633 19.6825 12.7696 19.6964L12.7717 19.7029C12.7956 19.7192 12.804 19.742 12.8005 19.7697C12.8359 19.804 12.8632 19.8431 12.873 19.8926L12.8793 19.9006C12.8867 19.911 12.894 19.921 12.9014 19.9314L12.9077 19.9393C12.9172 19.9504 12.9263 19.9611 12.9357 19.9719L12.9378 19.9743C12.9893 19.9805 13.0188 20.0089 13.0268 20.0594L13.0279 20.0615C13.098 20.0833 13.1551 20.1193 13.1779 20.1934L13.181 20.1958C13.2469 20.2045 13.2956 20.2456 13.3475 20.2809C13.5826 20.4405 13.8395 20.5561 14.1096 20.644C14.2736 20.6973 14.4394 20.7468 14.6041 20.7984L14.6027 20.7967C15.1097 20.9109 15.62 20.9887 16.1421 20.9379L16.1438 20.9372C16.1642 20.9133 16.189 20.9129 16.2157 20.9247C16.2283 20.9244 16.2413 20.9237 16.2542 20.9233C16.2725 20.8946 16.3001 20.8994 16.3278 20.9026L16.3296 20.9015C16.3474 20.8721 16.3751 20.8766 16.4025 20.8808L16.4053 20.8794C16.4179 20.8718 16.4305 20.8641 16.4431 20.8565L16.4505 20.8531C16.4606 20.8479 16.4708 20.8423 16.481 20.8371L16.5198 20.8299C16.5332 20.8209 16.5461 20.8122 16.5594 20.8036L16.5619 20.8022C16.5945 20.7645 16.6337 20.7368 16.6824 20.7229L16.6866 20.7198C16.7298 20.6689 16.7729 20.6177 16.816 20.5665L16.8167 20.5654C16.8275 20.5208 16.8345 20.4748 16.8496 20.4319C17.0802 19.7829 17.3108 19.1343 17.5438 18.4864C17.6675 18.142 17.7705 17.7903 17.9229 17.4563L17.9205 17.4553C17.9366 17.394 17.9478 17.331 17.9688 17.2715C18.3575 16.174 18.7331 15.0723 19.1007 13.9679C19.2693 13.4612 19.3432 12.9496 19.2496 12.4201C19.1859 12.058 19.0359 11.7275 18.8729 11.4011C18.8221 11.299 18.7888 11.1997 18.8992 11.1055ZM16.5948 9.12196C16.5952 9.11746 16.5962 9.11296 16.5969 9.10846C16.6709 8.7087 17.0588 8.44392 17.4635 8.51695C17.8686 8.58998 18.1367 8.97313 18.0628 9.37289C17.9888 9.77299 17.6009 10.0378 17.1958 9.96474C16.8279 9.89828 16.5731 9.57571 16.585 9.21714C16.5836 9.18668 16.5871 9.15484 16.5948 9.12196ZM16.1018 9.61447C16.1701 9.55667 16.2483 9.54802 16.3317 9.57952C16.4063 9.60755 16.4263 9.67712 16.455 9.73942C16.6421 10.1444 16.961 10.3725 17.405 10.4413C17.8483 10.5102 18.2495 10.4299 18.6045 10.135C18.5232 10.3721 18.3722 10.5493 18.1567 10.6653C17.7004 10.9103 17.2365 10.8847 16.7799 10.6694C16.4224 10.5005 16.1663 10.234 16.0485 9.85225C16.0219 9.76503 16.0251 9.67954 16.1018 9.61447ZM15.3393 10.9197C15.5569 10.6836 15.7016 10.415 15.7584 10.0921C15.7612 10.0599 15.7671 10.0198 15.7678 9.97997C15.7682 9.93151 15.7678 9.88132 15.8327 9.87959C15.8873 9.87821 15.895 9.92563 15.8975 9.96543C15.9248 10.3936 15.8702 10.7958 15.5043 11.0875C15.4325 11.1446 15.3365 11.2454 15.2478 11.1481C15.162 11.0543 15.2839 10.9795 15.3393 10.9197ZM18.1307 15.8708C18.0098 16.1269 17.9359 16.3993 17.8462 16.6662C17.5844 17.4459 17.3129 18.2226 17.0567 19.0048C16.9414 19.3568 16.796 19.7029 16.6782 20.0556C16.5857 20.3322 16.3909 20.4782 16.1298 20.5637C15.9855 20.6111 15.8348 20.6295 15.683 20.6354C15.1914 20.6544 14.7225 20.5371 14.2586 20.3972C13.9117 20.2927 13.5826 20.1512 13.3054 19.9096C13.0356 19.6739 12.8867 19.408 12.9736 19.0304C13.0741 18.5926 13.1432 18.1475 13.2143 17.7035C13.2297 17.6079 13.3328 17.5273 13.3117 17.4636C13.2529 17.2829 13.3303 17.1251 13.358 16.9621C13.4603 16.3612 13.5763 15.7628 13.6909 15.1426C13.9102 15.3042 14.1394 15.4122 14.3826 15.4914C15.2709 15.7811 16.1869 15.7884 17.1075 15.7528C17.419 15.7407 17.7306 15.733 18.0421 15.7583C18.1209 15.7645 18.1686 15.7898 18.1307 15.8708ZM18.2597 15.4492C18.2324 15.5202 18.177 15.498 18.1276 15.4953C17.4755 15.4572 16.8233 15.5077 16.1715 15.5046C15.5565 15.5018 14.9475 15.4586 14.3676 15.2315C14.1356 15.1408 13.9225 15.0214 13.7645 14.8241C14.2624 15.0055 14.7695 14.9809 15.2765 14.9453C15.867 14.9034 16.4526 14.7888 17.0486 14.8255C17.4856 14.8522 17.8833 14.9751 18.2068 15.2834C18.2572 15.3319 18.2874 15.3772 18.2597 15.4492ZM18.4205 13.0417C18.3869 13.0507 18.3522 13.0562 18.3182 13.0628C17.7964 13.1597 17.2754 13.1386 16.7371 13.0555C16.1438 12.9226 15.5429 12.7651 15.0211 12.4024C14.7439 12.2096 14.5347 11.975 14.5126 11.6188C14.5077 11.5409 14.5221 11.4845 14.596 11.4478C14.6731 11.4094 14.7323 11.4426 14.7842 11.4932C14.8168 11.5254 14.8417 11.5655 14.8666 11.6043C15.1045 11.9722 15.4167 12.2595 15.8215 12.4391C16.4364 12.7115 17.098 12.79 17.7561 12.8773C17.9692 12.9053 18.1854 12.9101 18.4006 12.9233C18.4437 12.9261 18.4878 12.9257 18.4917 12.9787C18.4945 13.0209 18.4545 13.033 18.4205 13.0417ZM18.7272 10.7279C18.6466 10.9131 18.5954 11.1028 18.5856 11.308C18.5768 11.4956 18.6346 11.6704 18.6539 11.8517C18.6609 11.9175 18.6728 11.9836 18.5968 12.013C18.5102 12.0466 18.4896 11.9649 18.457 11.9172C18.3165 11.7133 18.3147 11.4873 18.3568 11.2554C18.3943 11.037 18.4773 10.8373 18.6129 10.6601C18.641 10.6241 18.6735 10.5798 18.7265 10.6189C18.7689 10.65 18.7429 10.6916 18.7272 10.7279Z" fill="white"/>
<path d="M19.2955 2.78954C19.2229 2.77639 19.1851 2.81827 19.1564 2.87468C19.1458 3.091 19.0505 3.28206 18.9703 3.47761C18.9167 3.60844 18.9458 3.64617 19.0929 3.63751L19.0964 3.63475C19.1998 3.36132 19.3151 3.091 19.2955 2.78954Z" fill="white"/>
<path d="M19.7826 4.7109C19.7717 4.69878 19.7609 4.68667 19.75 4.67421C19.3064 4.25057 18.7793 4.08132 18.1692 4.17235C17.9762 4.20107 17.8213 4.29418 17.7147 4.4617C17.5665 4.69497 17.405 4.92029 17.2911 5.17434C17.234 5.30136 17.2504 5.40796 17.3401 5.50868C17.6191 5.82226 17.9695 6.02162 18.3788 6.10884C18.6444 6.1656 18.9097 6.23344 19.1869 6.22375C19.3779 6.21717 19.5436 6.13376 19.7181 6.07804C19.8085 6.04931 19.8506 5.97213 19.8607 5.87902C19.9052 5.48515 19.8961 5.09473 19.7826 4.7109ZM18.7271 4.34748C18.9969 4.38901 19.2226 4.47658 19.4182 4.62852C19.4805 4.67698 19.5468 4.7417 19.5292 4.83134C19.5096 4.93102 19.4185 4.96494 19.3316 4.97498C18.9107 5.02413 18.5235 4.93448 18.1826 4.67905C18.1174 4.63025 18.0543 4.56761 18.0802 4.47623C18.1048 4.38901 18.1854 4.35475 18.2667 4.33986C18.4279 4.30975 18.5905 4.3101 18.7271 4.34748Z" fill="white"/>
<path d="M18.5349 6.70997C18.7245 6.75047 18.9607 6.78439 19.2004 6.74493C19.3199 6.7252 19.4394 6.5473 19.4145 6.4362C19.4012 6.37701 19.3567 6.3919 19.3178 6.39363C18.6537 6.42305 18.0373 6.27491 17.478 5.91322C17.4486 5.89419 17.4248 5.86961 17.3925 5.91218C17.3175 6.01083 17.3382 6.22299 17.4419 6.29948C17.7528 6.52896 18.1137 6.63556 18.5349 6.70997Z" fill="white"/>
<path d="M18.7038 1.69962C18.626 1.48503 18.6011 1.25556 18.5104 1.04408C18.4392 0.878294 18.3404 0.801457 18.2202 0.850605C18.0807 0.907713 18.0751 1.01847 18.1035 1.15172C18.1775 1.49818 18.2405 1.84706 18.3064 2.19525C18.3127 2.22813 18.3075 2.26309 18.3075 2.29701C18.4035 2.65315 18.413 3.0183 18.4315 3.3831C18.4357 3.46409 18.3891 3.60323 18.4743 3.61535C18.5798 3.63023 18.5454 3.48625 18.5699 3.41391C18.7581 2.85425 18.7501 2.27832 18.7038 1.69962Z" fill="white"/>
<path d="M17.2131 8.74347C17.2092 8.76459 17.1717 8.77497 17.129 8.76736C17.0866 8.75974 17.0551 8.73655 17.0589 8.71579C17.0628 8.69502 17.1003 8.68429 17.143 8.6919C17.1854 8.69986 17.217 8.72271 17.2131 8.74347Z" fill="white"/>
<path d="M17.6408 8.78267C17.631 8.83563 17.535 8.86297 17.426 8.84324C17.3173 8.82351 17.2371 8.76467 17.2469 8.71172C17.2567 8.65842 17.3531 8.63142 17.4617 8.6508C17.5703 8.67053 17.6506 8.72937 17.6408 8.78267Z" fill="white"/>
<path d="M17.6408 8.78267C17.631 8.83563 17.535 8.86297 17.426 8.84324C17.3173 8.82351 17.2371 8.76467 17.2469 8.71172C17.2567 8.65842 17.3531 8.63142 17.4617 8.6508C17.5703 8.67053 17.6506 8.72937 17.6408 8.78267Z" fill="white"/>
<path d="M17.2131 8.74347C17.2092 8.76459 17.1717 8.77497 17.129 8.76736C17.0866 8.75974 17.0551 8.73655 17.0589 8.71579C17.0628 8.69502 17.1003 8.68429 17.143 8.6919C17.1854 8.69986 17.217 8.72271 17.2131 8.74347Z" fill="white"/>
<path d="M10.7483 19.819C10.7364 19.8135 10.7245 19.8079 10.7122 19.8024C10.7017 19.7906 10.6912 19.7792 10.6807 19.7674L10.6786 19.7654C10.6565 19.7207 10.6253 19.6844 10.5818 19.6588L10.5787 19.655C10.55 19.5947 10.5209 19.5349 10.4921 19.4746L10.4918 19.4732C10.4925 19.4276 10.4974 19.3812 10.4935 19.3358C10.434 18.6509 10.374 17.9659 10.312 17.281C10.2791 16.9172 10.2679 16.551 10.2048 16.19L10.2072 16.1897C10.2072 16.1263 10.2118 16.0627 10.2065 16C10.107 14.8416 10.0212 13.6821 9.94338 12.5223C9.90764 11.99 9.96546 11.4767 10.1894 10.9866C10.3425 10.6515 10.571 10.3684 10.811 10.0926C10.886 10.0064 10.9435 9.91813 10.8601 9.79976C10.6561 9.51076 10.6316 9.19026 10.7094 8.85696C10.7616 8.63267 10.8215 8.41047 10.8762 8.18654C11.0738 7.37525 11.2725 6.56396 11.466 5.75129C11.4898 5.65127 11.5164 5.64192 11.6149 5.67619C12.2534 5.89874 12.8978 5.89009 13.5356 5.67757C13.6659 5.63396 13.6852 5.67757 13.709 5.77518C13.9596 6.79897 14.2133 7.82208 14.4617 8.84657C14.5343 9.14561 14.5455 9.45504 14.3633 9.71531C14.2403 9.89114 14.2781 10.0012 14.4015 10.1362C14.6611 10.4197 14.8822 10.7284 15.0319 11.0849C15.2432 11.5888 15.2649 12.1132 15.2323 12.6472C15.1188 14.5007 14.9506 16.3496 14.7971 18.1999C14.7585 18.6644 14.761 19.133 14.659 19.5916L14.6597 19.5913C14.6499 19.603 14.6401 19.6151 14.6299 19.6269L14.6264 19.6328C14.5987 19.6425 14.5851 19.6629 14.5819 19.6909L14.583 19.6899C14.5395 19.7148 14.5027 19.7456 14.4807 19.7917L14.4726 19.7979C14.4628 19.8059 14.453 19.8142 14.4435 19.8225L14.4354 19.8287C14.4239 19.837 14.412 19.845 14.4004 19.8533L14.3976 19.855C14.3461 19.8481 14.3103 19.8688 14.29 19.9156L14.2886 19.917C14.2154 19.9211 14.1509 19.9419 14.1099 20.0076L14.1064 20.0094C14.0405 20.0014 13.9831 20.0294 13.9235 20.0509C13.6558 20.1478 13.3775 20.1963 13.094 20.215C12.9216 20.2264 12.7489 20.2337 12.5761 20.2426L12.5779 20.2416C12.0582 20.2274 11.5445 20.1776 11.0514 19.9997L11.05 19.9986C11.0363 19.9706 11.0125 19.964 10.9838 19.9689C10.9715 19.9651 10.9593 19.9616 10.947 19.9578C10.9365 19.9256 10.9084 19.9235 10.8811 19.9197L10.8794 19.9183C10.8695 19.8855 10.8419 19.883 10.8142 19.8803L10.8117 19.8782C10.8016 19.8678 10.7911 19.8574 10.7809 19.847L10.7746 19.8415C10.7655 19.8346 10.7567 19.8266 10.7483 19.819ZM12.2803 7.94599L12.2719 7.95014L12.2716 7.95914L12.2604 7.96191L12.2632 7.97195C12.253 7.98856 12.2432 8.00483 12.233 8.02144C12.2134 8.03459 12.1973 8.04948 12.2022 8.07613C12.1976 8.08893 12.1931 8.10174 12.1885 8.1142C12.1623 8.1277 12.1556 8.14985 12.1605 8.17685C12.151 8.24503 12.1356 8.31321 12.1335 8.3814C12.1241 8.74239 12.3925 9.04905 12.7576 9.0982C13.1315 9.14838 13.4553 8.91372 13.5759 8.54372C13.6603 8.28449 13.3975 7.81274 13.128 7.72517C13.0338 7.66425 12.9307 7.65179 12.8218 7.67118C12.7962 7.67291 12.7702 7.67464 12.7447 7.67637C12.718 7.66772 12.6952 7.6736 12.677 7.69506C12.6648 7.69748 12.6521 7.6999 12.6399 7.70198C12.6196 7.70994 12.5989 7.71756 12.5786 7.72552C12.4647 7.75597 12.3806 7.82797 12.3084 7.91622C12.2989 7.92626 12.2898 7.93595 12.2803 7.94599ZM14.8864 14.9904C14.6331 15.0929 14.3839 15.1413 14.1288 15.1583C13.1953 15.2202 12.3063 15.0018 11.4236 14.7409C11.125 14.6526 10.825 14.5685 10.517 14.5162C10.4392 14.5031 10.3863 14.5159 10.4028 14.6034C10.455 14.8814 10.4581 15.1631 10.4778 15.4435C10.5345 16.2634 10.6018 17.0823 10.6526 17.9029C10.6754 18.2722 10.729 18.6429 10.7543 19.014C10.7739 19.3043 10.926 19.4937 11.1572 19.6411C11.2851 19.7228 11.4264 19.7771 11.5721 19.8204C12.0435 19.9595 12.5274 19.9613 13.0117 19.9401C13.374 19.9242 13.7286 19.8682 14.0577 19.7024C14.3787 19.5407 14.59 19.3196 14.6008 18.9326C14.6138 18.4837 14.659 18.0358 14.7021 17.5883C14.7112 17.4918 14.632 17.3883 14.6681 17.3318C14.7712 17.1713 14.7358 16.9996 14.7498 16.8345C14.8023 16.2274 14.8409 15.6193 14.8864 14.9904ZM14.8956 14.664C14.3675 14.717 13.8825 14.5688 13.4006 14.4093C12.8393 14.2234 12.301 13.9687 11.7144 13.8572C11.2844 13.7756 10.8685 13.797 10.4774 14.0161C10.4164 14.0504 10.3758 14.0871 10.3842 14.1635C10.3926 14.239 10.4518 14.2314 10.5006 14.2407C11.1418 14.3643 11.7603 14.5733 12.3928 14.7308C12.9889 14.8793 13.5899 14.9873 14.2087 14.9101C14.4561 14.879 14.6927 14.816 14.8956 14.664ZM12.4622 12.2198C13.0702 12.2367 13.6919 12.2322 14.289 12.0093C14.6061 11.891 14.8679 11.7148 14.979 11.3756C15.0031 11.3015 15.0035 11.2434 14.9415 11.1894C14.8763 11.133 14.8104 11.151 14.7477 11.1873C14.7081 11.2102 14.6737 11.2431 14.6397 11.2742C14.3163 11.5722 13.9414 11.7736 13.5044 11.8477C12.8403 11.9602 12.1794 11.8737 11.5203 11.7965C11.3069 11.7716 11.0963 11.7228 10.885 11.6826C10.8426 11.6747 10.7995 11.6632 10.7826 11.7138C10.7693 11.7539 10.8047 11.7754 10.8356 11.7923C10.866 11.8093 10.8979 11.8231 10.9295 11.838C11.4099 12.0602 11.9201 12.1679 12.4622 12.2198ZM11.3899 8.93206C11.4088 9.18161 11.5105 9.39066 11.6899 9.55541C12.0701 9.90498 12.5256 9.99463 13.0225 9.89806C13.4112 9.82261 13.7262 9.6274 13.9368 9.28648C13.9848 9.20861 14.0034 9.12519 13.9452 9.04316C13.8937 8.97048 13.8201 8.94279 13.7314 8.95283C13.6523 8.96183 13.6151 9.02413 13.5717 9.07708C13.2882 9.42319 12.922 9.56614 12.4748 9.52357C12.0277 9.48134 11.6594 9.30482 11.3899 8.93206ZM11.3475 10.078C11.3664 9.85722 11.3363 9.64332 11.2494 9.43877C11.2315 9.39689 11.2112 9.34601 11.1499 9.37093C11.1008 9.39066 11.1155 9.43738 11.1218 9.4765C11.1534 9.67586 11.1548 9.8721 11.1124 10.0728C11.0738 10.257 10.974 10.4117 10.9091 10.5827C10.8857 10.6446 10.8573 10.7059 10.9239 10.753C10.9992 10.8066 11.0399 10.7325 11.0837 10.6948C11.2711 10.5314 11.33 10.3127 11.3475 10.078ZM14.1572 9.59037C14.1625 9.55852 14.167 9.51838 14.1765 9.47926C14.188 9.43219 14.201 9.38374 14.139 9.36609C14.0864 9.3512 14.0668 9.39551 14.0545 9.43323C13.9203 9.84095 13.8716 10.2442 14.1523 10.6166C14.2073 10.6896 14.275 10.8108 14.3857 10.7384C14.4922 10.6689 14.3934 10.5664 14.3549 10.4944C14.2035 10.2127 14.1309 9.9171 14.1572 9.59037Z" fill="white"/>
<path d="M12.5733 1.64844C12.6469 1.65363 12.6729 1.70347 12.6865 1.76508C12.642 1.97724 12.6862 2.1856 12.7146 2.39465C12.7335 2.53483 12.6956 2.5639 12.5555 2.51925L12.553 2.51579C12.5218 2.22575 12.4787 1.93571 12.5733 1.64844Z" fill="white"/>
<path d="M11.6171 3.39057C11.6308 3.38157 11.6441 3.37222 11.6578 3.36323C12.1943 3.06211 12.7472 3.02784 13.3153 3.26597C13.495 3.34142 13.6215 3.46948 13.6825 3.65811C13.7673 3.92081 13.8668 4.17832 13.9131 4.45244C13.9362 4.5895 13.8938 4.68883 13.7813 4.76429C13.432 4.9993 13.0426 5.10624 12.6239 5.09032C12.3523 5.07994 12.0786 5.08063 11.812 5.0031C11.6283 4.9498 11.4892 4.82832 11.334 4.73106C11.2537 4.68087 11.2324 4.59608 11.246 4.50297C11.3031 4.11013 11.4107 3.73426 11.6171 3.39057ZM12.7311 3.29781C12.4595 3.27185 12.2188 3.30093 11.991 3.39991C11.9185 3.43141 11.8379 3.47813 11.8326 3.56882C11.8267 3.67023 11.9062 3.72526 11.9879 3.75641C12.3831 3.90731 12.7805 3.91562 13.1751 3.75226C13.2504 3.72111 13.3275 3.67576 13.3254 3.58093C13.3237 3.49025 13.2543 3.43729 13.1793 3.40303C13.0304 3.33519 12.873 3.29539 12.7311 3.29781Z" fill="white"/>
<path d="M12.3202 5.63213C12.1264 5.62452 11.8892 5.5996 11.6667 5.50234C11.5559 5.45389 11.4848 5.2521 11.537 5.15035C11.5647 5.09635 11.6039 5.12162 11.6414 5.13304C12.2771 5.32479 12.9117 5.33275 13.5446 5.12023C13.5782 5.10881 13.6069 5.09082 13.6276 5.14031C13.6753 5.25418 13.6017 5.45458 13.4822 5.50303C13.1237 5.64909 12.7474 5.66363 12.3202 5.63213Z" fill="white"/>
<path d="M13.4213 0.739405C13.5506 0.550428 13.6329 0.334454 13.7738 0.152053C13.8842 0.00910924 13.9995 -0.041077 14.1036 0.036106C14.2241 0.125749 14.2017 0.234428 14.1407 0.356606C13.9816 0.67399 13.8327 0.99622 13.6813 1.31741C13.6669 1.34752 13.6634 1.38283 13.6547 1.41571C13.4717 1.7369 13.3708 2.0882 13.2608 2.43708C13.2363 2.51461 13.2464 2.66067 13.1609 2.65167C13.0547 2.64025 13.1245 2.50942 13.1192 2.43293C13.0775 1.84419 13.2303 1.28799 13.4213 0.739405Z" fill="white"/>
<path d="M13.0625 7.88934C13.0664 7.83538 12.9802 7.78536 12.8699 7.77761C12.7597 7.76986 12.6672 7.80732 12.6633 7.86128C12.6594 7.91524 12.7456 7.96527 12.8558 7.97302C12.9661 7.98077 13.0586 7.9433 13.0625 7.88934Z" fill="white"/>
<path d="M13.2453 7.93948C13.2468 7.91832 13.213 7.8987 13.1698 7.89566C13.1265 7.89262 13.0902 7.90731 13.0887 7.92848C13.0872 7.94964 13.121 7.96926 13.1642 7.9723C13.2075 7.97534 13.2438 7.96065 13.2453 7.93948Z" fill="white"/>
<path d="M6.1417 22.768C5.81581 22.6444 5.50744 22.5267 5.19837 22.4108C5.12092 22.3817 5.03997 22.3602 5.03997 22.255C5.03997 22.1443 5.12863 22.1294 5.20573 22.111C6.09615 21.8982 6.98692 21.6857 7.8784 21.4773C8.0466 21.4379 8.12089 21.5112 8.0827 21.6677C7.86929 22.5475 7.65343 23.4263 7.43967 24.3061C7.4204 24.3853 7.41269 24.4726 7.30651 24.4819C7.19227 24.4923 7.16599 24.4058 7.13445 24.322C7.03528 24.059 6.9291 23.7987 6.83309 23.5349C6.79174 23.4211 6.7623 23.391 6.66033 23.4934C6.20338 23.9537 5.73907 24.4068 5.27686 24.8623C5.09289 25.0436 5.08203 25.044 4.90156 24.8696C4.80169 24.773 4.70707 24.6702 4.6037 24.5774C4.49016 24.4757 4.50243 24.3902 4.60685 24.2884C5.07502 23.8309 5.53968 23.3698 6.00504 22.9099C6.04604 22.869 6.08494 22.8268 6.1417 22.768Z" fill="white"/>
<path d="M18.8452 22.7768C19.3021 23.2237 19.7493 23.6612 20.1964 24.0986C20.2711 24.1717 20.3443 24.2457 20.4189 24.3184C20.5009 24.3987 20.4992 24.4756 20.4165 24.5555C20.2956 24.6725 20.1722 24.7874 20.0591 24.9113C19.956 25.0245 19.8716 25.0148 19.7679 24.9113C19.3 24.4448 18.828 23.9823 18.3588 23.5168C18.3224 23.4805 18.2975 23.4327 18.2428 23.3555C18.1065 23.7065 17.9923 24.0045 17.8749 24.3018C17.8423 24.3842 17.83 24.4939 17.7021 24.4846C17.5763 24.4756 17.5763 24.371 17.5549 24.2817C17.3468 23.4227 17.1369 22.5643 16.9291 21.7053C16.8804 21.5038 16.9487 21.4374 17.1548 21.4858C18.0301 21.6918 18.9051 21.8994 19.7798 22.1075C19.8649 22.1275 19.9662 22.1473 19.9683 22.2553C19.9704 22.3591 19.8772 22.3847 19.7917 22.4162C19.4826 22.5301 19.1763 22.6502 18.8452 22.7768Z" fill="white"/>
<path d="M2.63512 3.25206C2.11964 2.745 1.6245 2.25733 1.129 1.77001C0.957293 1.60111 0.956942 1.57688 1.1283 1.40832C1.21941 1.31902 1.30947 1.22869 1.40128 1.14043C1.56212 0.985718 1.58455 0.984334 1.73979 1.13697C2.19814 1.58865 2.65509 2.04171 3.11274 2.49373C3.15655 2.53699 3.20315 2.57783 3.25817 2.62871C3.38712 2.29921 3.50872 1.99117 3.62786 1.68244C3.65555 1.61045 3.67692 1.53604 3.77539 1.53915C3.88017 1.54261 3.90119 1.61599 3.92187 1.70113C4.13668 2.58718 4.35534 3.47253 4.57085 4.35823C4.60905 4.51571 4.52355 4.58355 4.34168 4.54132C3.90715 4.44026 3.47333 4.33643 3.03915 4.23363C2.59902 4.12945 2.15819 4.027 1.71876 3.91936C1.65498 3.90379 1.57158 3.90621 1.54005 3.82903C1.48923 3.70477 1.56493 3.65251 1.6697 3.61409C1.98473 3.49814 2.29836 3.37874 2.63512 3.25206Z" fill="white"/>
<path d="M21.7576 2.64405C22.2482 2.15569 22.7191 1.68602 23.1908 1.21703C23.4379 0.971294 23.4382 0.97164 23.6905 1.2198C23.7648 1.29283 23.8363 1.36898 23.9134 1.43924C24.0259 1.54169 24.0294 1.62891 23.9137 1.74105C23.4273 2.2128 22.948 2.69182 22.4661 3.16807C22.442 3.19195 22.4195 3.21756 22.3859 3.25356C22.703 3.37469 23.0079 3.49376 23.3149 3.60694C23.4004 3.63843 23.4957 3.66785 23.4929 3.76857C23.4897 3.88279 23.38 3.90044 23.2896 3.9219C22.4262 4.12576 21.5627 4.32858 20.6993 4.53244C20.467 4.58712 20.4011 4.52863 20.4554 4.30262C20.6646 3.43353 20.8763 2.56479 21.0883 1.69605C21.1058 1.62406 21.1233 1.54653 21.2228 1.53996C21.3297 1.53303 21.3581 1.61091 21.3879 1.6874C21.5081 1.99752 21.6276 2.30694 21.7576 2.64405Z" fill="white"/>
</svg>
