<svg width="25" height="25" viewBox="0 0 25 25" fill="none" xmlns="http://www.w3.org/2000/svg">
<g clip-path="url(#clip0_383_135)">
<path d="M8.37462 21.6356C8.36118 21.633 8.34773 21.6305 8.33429 21.628C8.32084 21.619 8.30703 21.61 8.29359 21.6011C8.29359 21.6011 8.29068 21.5996 8.29104 21.5996C8.25725 21.5604 8.21655 21.5317 8.16604 21.5173L8.16168 21.5141C8.11698 21.4609 8.07228 21.4081 8.02759 21.3549L8.02686 21.3538C8.0156 21.3074 8.00833 21.2596 7.9927 21.2151C7.75359 20.5416 7.51448 19.8678 7.27319 19.195C7.14492 18.8375 7.03808 18.4723 6.88001 18.1255L6.88255 18.1244C6.86584 18.0608 6.85421 17.9954 6.83204 17.9336C6.42904 16.794 6.03986 15.6501 5.65866 14.5034C5.48351 13.9769 5.4072 13.4461 5.50422 12.8962C5.57036 12.5203 5.72589 12.1771 5.89486 11.8382C5.94756 11.7322 5.98244 11.6287 5.86761 11.5313C5.58744 11.2927 5.47878 10.9768 5.47006 10.6218C5.46389 10.3831 5.46607 10.1441 5.46243 9.90516C5.44899 9.0387 5.43627 8.17225 5.4181 7.30579C5.41592 7.19906 5.44027 7.18288 5.54783 7.19223C6.24735 7.25296 6.89236 7.07938 7.47706 6.70312C7.59661 6.62621 7.6275 6.66502 7.67692 6.75702C8.1962 7.72267 8.71875 8.68651 9.23585 9.6536C9.38702 9.93607 9.47896 10.2441 9.36413 10.5524C9.28673 10.7608 9.35323 10.8618 9.51275 10.966C9.84743 11.1849 10.1505 11.4386 10.3943 11.7592C10.7385 12.212 10.8973 12.7338 11.0041 13.279C11.3748 15.1718 11.6891 17.0744 12.019 18.974C12.1019 19.4509 12.2269 19.9217 12.244 20.4086L12.2447 20.4083C12.2378 20.4227 12.2309 20.4374 12.2244 20.4518L12.2222 20.4586C12.1967 20.4755 12.1887 20.4996 12.1924 20.5283L12.1931 20.5269C12.156 20.5628 12.127 20.6034 12.1172 20.6552L12.1106 20.6634C12.103 20.6742 12.0954 20.6846 12.0877 20.6954C12.0877 20.6954 12.0812 20.7041 12.0812 20.7037C12.0717 20.7148 12.0619 20.726 12.0521 20.7375L12.0499 20.74C11.9965 20.7465 11.966 20.7759 11.9576 20.8284L11.9565 20.8302C11.8842 20.8528 11.8246 20.8906 11.801 20.9671L11.7977 20.9696C11.7294 20.9786 11.6789 21.0214 11.6251 21.058C11.3813 21.2237 11.1149 21.3437 10.8351 21.435C10.6647 21.4904 10.4932 21.5421 10.3224 21.5953L10.3238 21.5939C9.79838 21.7125 9.26928 21.7933 8.72747 21.7405L8.72566 21.7398C8.70458 21.715 8.67914 21.7146 8.65153 21.7268C8.63808 21.7265 8.625 21.7258 8.61155 21.7254C8.59266 21.6956 8.56359 21.7006 8.53524 21.7038L8.53306 21.7028C8.51453 21.6722 8.48618 21.6769 8.45748 21.6812L8.45457 21.6798C8.44149 21.6719 8.4284 21.6639 8.41532 21.6564L8.40769 21.6524C8.3957 21.6467 8.38516 21.6413 8.37462 21.6356ZM6.80878 9.30464L6.80152 9.31075L6.80333 9.32009L6.7928 9.32584L6.79825 9.33519C6.79243 9.35423 6.78662 9.37364 6.78117 9.39269C6.76518 9.41102 6.75246 9.43006 6.76445 9.45558C6.763 9.46959 6.76191 9.48361 6.76045 9.49763C6.73756 9.51775 6.73647 9.54183 6.74883 9.5677C6.75718 9.63886 6.75936 9.7111 6.77535 9.78046C6.86002 10.1459 7.21033 10.3856 7.58934 10.3418C7.97817 10.2969 8.24199 9.97811 8.26633 9.57525C8.28341 9.29278 7.89604 8.88561 7.60279 8.86656C7.49195 8.82955 7.38548 8.8432 7.28119 8.89064C7.25575 8.89891 7.23068 8.90717 7.20524 8.91544C7.17617 8.91364 7.15509 8.92514 7.14238 8.95137C7.13038 8.95676 7.11875 8.96252 7.10676 8.96791C7.08823 8.98084 7.0697 8.99414 7.05116 9.00708C6.94469 9.06673 6.87892 9.16053 6.82986 9.26798C6.82259 9.2802 6.81569 9.29242 6.80878 9.30464ZM11.2679 15.7231C11.0404 15.8909 10.8028 16.0031 10.5506 16.0853C9.6294 16.3861 8.67914 16.3933 7.72452 16.3563C7.40147 16.3437 7.07842 16.3358 6.75537 16.3621C6.6736 16.3685 6.62418 16.3951 6.66343 16.4789C6.78844 16.7448 6.86547 17.0276 6.9585 17.3047C7.22995 18.1147 7.51158 18.9212 7.77721 19.733C7.89677 20.0985 8.04757 20.4579 8.16967 20.8241C8.26561 21.1112 8.46729 21.2629 8.73801 21.3516C8.88809 21.4009 9.04398 21.4199 9.20133 21.4257C9.71116 21.4454 10.1974 21.3236 10.6785 21.1784C11.0383 21.0699 11.3795 20.9229 11.6669 20.6721C11.9471 20.4277 12.1012 20.1513 12.011 19.7593C11.9068 19.3046 11.8352 18.8425 11.7614 18.3818C11.7454 18.2826 11.6386 18.1985 11.6604 18.1327C11.7218 17.9451 11.6415 17.7812 11.6124 17.612C11.5074 16.9881 11.3871 16.3667 11.2679 15.7231ZM11.192 15.3925C10.6756 15.5808 10.1498 15.5553 9.62395 15.5179C9.01164 15.4744 8.40442 15.3555 7.78593 15.3936C7.33279 15.4212 6.92034 15.5488 6.58494 15.8694C6.53261 15.9193 6.50136 15.9668 6.53007 16.0415C6.55841 16.1152 6.61583 16.0922 6.66706 16.0893C7.34333 16.0498 8.01923 16.1022 8.69549 16.099C9.33288 16.0961 9.96481 16.0512 10.5662 15.8155C10.8071 15.7209 11.0281 15.597 11.192 15.3925ZM8.10899 13.5557C8.7242 13.4177 9.34741 13.2542 9.8885 12.8776C10.1759 12.6774 10.3929 12.4337 10.4158 12.0639C10.4209 11.9831 10.406 11.9245 10.3293 11.8864C10.249 11.8465 10.1876 11.881 10.1341 11.9335C10.1004 11.9665 10.0746 12.0082 10.0488 12.0485C9.80201 12.4309 9.47823 12.7291 9.05852 12.9153C8.42114 13.1981 7.7347 13.2797 7.05225 13.3703C6.83131 13.3997 6.6071 13.4044 6.38435 13.4181C6.33965 13.4209 6.2935 13.4206 6.28987 13.4756C6.28696 13.519 6.32839 13.5316 6.36363 13.541C6.39852 13.55 6.4345 13.5561 6.47011 13.5629C7.01047 13.6642 7.55082 13.6423 8.10899 13.5557ZM6.17249 10.5236C6.2568 10.7698 6.41342 10.9538 6.6369 11.0738C7.11003 11.3286 7.59116 11.3021 8.06465 11.0782C8.43531 10.9031 8.70058 10.6264 8.82268 10.23C8.85066 10.1395 8.84703 10.0507 8.76745 9.98314C8.69659 9.92313 8.61555 9.91414 8.52906 9.94685C8.45166 9.97596 8.43095 10.0482 8.40115 10.1129C8.2071 10.5333 7.87642 10.7705 7.41601 10.8421C6.95668 10.9128 6.5406 10.8295 6.17249 10.5236ZM6.42941 11.6866C6.39053 11.4598 6.3044 11.2525 6.16377 11.0688C6.13506 11.0311 6.10127 10.9851 6.04603 11.0257C6.00206 11.058 6.02895 11.1015 6.04531 11.1389C6.12889 11.3315 6.18158 11.5281 6.19175 11.7412C6.2012 11.9364 6.14124 12.1175 6.12125 12.3058C6.11399 12.3741 6.10163 12.4427 6.18049 12.4733C6.27024 12.5081 6.29168 12.4233 6.32584 12.3737C6.47156 12.1624 6.47338 11.9274 6.42941 11.6866ZM9.12393 10.4787C9.12102 10.4453 9.11484 10.404 9.11412 10.3623C9.11339 10.312 9.11412 10.2599 9.04689 10.2581C8.9902 10.2566 8.98221 10.3059 8.97966 10.3472C8.95132 10.7917 9.00801 11.2093 9.38739 11.5123C9.46188 11.5716 9.56145 11.6762 9.65339 11.5752C9.74242 11.4778 9.61596 11.4002 9.55854 11.3376C9.33324 11.0929 9.18316 10.8144 9.12393 10.4787Z" fill="white"/>
<path d="M5.45541 2.89706C5.53063 2.8834 5.56987 2.92688 5.59967 2.98546C5.61057 3.21007 5.70942 3.40845 5.79263 3.6115C5.84823 3.74734 5.81807 3.78651 5.66545 3.77753L5.66181 3.77465C5.55461 3.49075 5.43506 3.21007 5.45541 2.89706Z" fill="white"/>
<path d="M4.95056 4.89065C4.96182 4.87808 4.97309 4.8655 4.98435 4.85256C5.4444 4.41268 5.99094 4.23695 6.6236 4.33146C6.82382 4.36129 6.98444 4.45797 7.09491 4.6319C7.24862 4.87412 7.41615 5.10808 7.53425 5.37186C7.59348 5.50375 7.5764 5.61444 7.48337 5.71902C7.19412 6.04461 6.83073 6.25161 6.40629 6.34217C6.13084 6.40111 5.85576 6.47155 5.56832 6.46149C5.37027 6.45466 5.19839 6.36805 5.01742 6.31019C4.92367 6.28036 4.88006 6.20022 4.86952 6.10355C4.82337 5.69458 4.83282 5.2892 4.95056 4.89065ZM6.04508 4.51331C5.76527 4.55643 5.53125 4.64736 5.32848 4.80512C5.2638 4.85544 5.19512 4.92264 5.21329 5.01572C5.23364 5.11922 5.32812 5.15444 5.41824 5.16486C5.85467 5.21589 6.25621 5.12281 6.60979 4.85759C6.67738 4.80692 6.74279 4.74187 6.7159 4.647C6.69046 4.55643 6.60688 4.52086 6.52257 4.5054C6.35542 4.47414 6.1868 4.4745 6.04508 4.51331Z" fill="white"/>
<path d="M6.24367 6.96606C6.04707 7.0081 5.80215 7.04332 5.55359 7.00235C5.42968 6.98187 5.30576 6.79715 5.33156 6.68179C5.34537 6.62034 5.39152 6.63579 5.43186 6.63759C6.12048 6.66813 6.75968 6.51432 7.33964 6.13877C7.37017 6.11901 7.39488 6.09349 7.42831 6.13769C7.50608 6.24012 7.48464 6.46041 7.37707 6.53984C7.05475 6.7781 6.68046 6.88879 6.24367 6.96606Z" fill="white"/>
<path d="M6.06785 1.76592C6.14852 1.54311 6.17432 1.30484 6.26844 1.08526C6.3422 0.91312 6.44468 0.833339 6.56932 0.88437C6.71395 0.943667 6.71976 1.05867 6.69033 1.19703C6.61365 1.55676 6.54824 1.91901 6.47993 2.28055C6.47339 2.31469 6.47884 2.35098 6.47884 2.3862C6.37927 2.756 6.36946 3.13514 6.3502 3.51392C6.34584 3.59802 6.39417 3.74249 6.30586 3.75507C6.19648 3.77052 6.2321 3.62102 6.20666 3.54591C6.01152 2.9648 6.01988 2.3668 6.06785 1.76592Z" fill="white"/>
<path d="M7.39342 9.18275C7.50614 9.16238 7.58925 9.10108 7.57905 9.04583C7.56884 8.99057 7.46918 8.96229 7.35646 8.98266C7.24373 9.00302 7.16062 9.06432 7.17082 9.11958C7.18103 9.17483 7.28069 9.20311 7.39342 9.18275Z" fill="white"/>
<path d="M7.70394 9.10503C7.74817 9.09704 7.78077 9.073 7.77677 9.05132C7.77276 9.02965 7.73367 9.01856 7.68945 9.02655C7.64522 9.03454 7.61262 9.05858 7.61662 9.08026C7.62063 9.10193 7.65972 9.11302 7.70394 9.10503Z" fill="white"/>
<path d="M12.8094 20.5269L12.8101 20.5283C12.8101 20.528 12.8101 20.528 12.8101 20.5276C12.8098 20.5272 12.8098 20.5272 12.8094 20.5269ZM19.1345 11.5313C19.4147 11.2927 19.5234 10.9768 19.5321 10.6218C19.5383 10.3831 19.5365 10.1441 19.5401 9.90516C19.5535 9.0387 19.5662 8.17225 19.5844 7.30579C19.5866 7.19906 19.5623 7.18288 19.4547 7.19223C18.7552 7.25296 18.1102 7.07938 17.5255 6.70312C17.4055 6.62621 17.375 6.66502 17.3252 6.75702C16.806 7.72267 16.2838 8.68687 15.7663 9.6536C15.6155 9.93607 15.5232 10.2441 15.638 10.5524C15.7154 10.7605 15.6489 10.8615 15.4894 10.9657C15.1547 11.1849 14.8517 11.4386 14.6082 11.7588C14.2641 12.2116 14.1053 12.7334 13.9984 13.279C13.6278 15.1715 13.3134 17.074 12.9835 18.9737C12.901 19.4505 12.776 19.9213 12.7585 20.4086L12.7578 20.4079C12.7647 20.4223 12.7716 20.437 12.7782 20.4514L12.7803 20.4582C12.8051 20.4751 12.8138 20.4988 12.8101 20.5276C12.8468 20.5632 12.8752 20.6038 12.8854 20.6552L12.8919 20.6634C12.8995 20.6742 12.9072 20.6846 12.9148 20.6954L12.9213 20.7037C12.9311 20.7152 12.9406 20.7263 12.9504 20.7375L12.9526 20.74C13.006 20.7465 13.0365 20.7759 13.0449 20.8284L13.046 20.8306C13.1187 20.8532 13.1779 20.8906 13.2015 20.9675L13.2048 20.97C13.2731 20.979 13.3236 21.0217 13.3774 21.0584C13.6212 21.2241 13.8876 21.3441 14.1678 21.4354C14.3378 21.4907 14.5097 21.5421 14.6805 21.5957L14.679 21.5939C15.2049 21.7125 15.734 21.7933 16.2754 21.7405L16.2772 21.7398C16.2983 21.715 16.3241 21.7146 16.3517 21.7268C16.3648 21.7265 16.3782 21.7258 16.3917 21.7254C16.4106 21.6956 16.4393 21.7006 16.468 21.7038L16.4698 21.7028C16.4884 21.6722 16.5171 21.6769 16.5454 21.6812L16.5483 21.6798C16.5614 21.6719 16.5745 21.6639 16.5876 21.656L16.5952 21.6524C16.6057 21.6471 16.6163 21.6413 16.6268 21.6359L16.6671 21.6284C16.6809 21.619 16.6944 21.61 16.7082 21.6011L16.7107 21.5996C16.7445 21.5604 16.7852 21.5317 16.8358 21.5173L16.8401 21.5141C16.8848 21.4613 16.9295 21.4081 16.9742 21.3549L16.9749 21.3538C16.9862 21.3074 16.9935 21.2596 17.0091 21.2151C17.2482 20.5413 17.4873 19.8678 17.729 19.195C17.8572 18.8375 17.9641 18.4723 18.1221 18.1255L18.1196 18.1244C18.1363 18.0608 18.1479 17.9954 18.1697 17.9336C18.5727 16.794 18.9623 15.6501 19.3435 14.5034C19.5183 13.9772 19.595 13.4461 19.4979 12.8962C19.4318 12.5203 19.2763 12.1771 19.1073 11.8382C19.0546 11.7322 19.0201 11.6291 19.1345 11.5313ZM16.7449 9.47175C16.7453 9.46708 16.7464 9.46241 16.7471 9.45774C16.8238 9.04266 17.226 8.76773 17.6457 8.84356C18.0658 8.91939 18.3438 9.31722 18.2671 9.7323C18.1905 10.1477 17.7882 10.4227 17.3681 10.3468C16.9866 10.2778 16.7224 9.94289 16.7347 9.57058C16.7333 9.53895 16.7369 9.50589 16.7449 9.47175ZM16.2336 9.98314C16.3045 9.92313 16.3855 9.91414 16.472 9.94685C16.5494 9.97596 16.5701 10.0482 16.5999 10.1129C16.794 10.5333 17.1246 10.7702 17.5851 10.8417C18.0447 10.9132 18.4608 10.8298 18.8289 10.5236C18.7446 10.7698 18.588 10.9538 18.3645 11.0742C17.8914 11.3286 17.4103 11.3021 16.9368 11.0785C16.5661 10.9031 16.3005 10.6264 16.1784 10.23C16.1508 10.1395 16.154 10.0507 16.2336 9.98314ZM15.4429 11.3384C15.6686 11.0933 15.8186 10.8144 15.8775 10.4791C15.8804 10.4457 15.8866 10.404 15.8873 10.3626C15.8877 10.3123 15.8873 10.2602 15.9545 10.2584C16.0112 10.257 16.0192 10.3062 16.0218 10.3476C16.0501 10.7921 15.9934 11.2097 15.614 11.5126C15.5395 11.5719 15.44 11.6765 15.348 11.5755C15.259 11.4781 15.3855 11.4005 15.4429 11.3384ZM18.3376 16.4792C18.2123 16.7452 18.1356 17.028 18.0426 17.3051C17.7711 18.1147 17.4895 18.9212 17.2239 19.7334C17.1043 20.0989 16.9535 20.4582 16.8314 20.8244C16.7355 21.1116 16.5334 21.2632 16.2627 21.352C16.113 21.4012 15.9567 21.4203 15.7994 21.4264C15.2895 21.4462 14.8033 21.3243 14.3222 21.1791C13.9624 21.0706 13.6212 20.9236 13.3338 20.6728C13.054 20.4281 12.8995 20.152 12.9897 19.76C13.0939 19.3054 13.1655 18.8432 13.2393 18.3821C13.2553 18.2829 13.3621 18.1992 13.3403 18.1331C13.2793 17.9455 13.3596 17.7816 13.3883 17.6123C13.4944 16.9885 13.6147 16.3671 13.7335 15.7231C13.961 15.8909 14.1986 16.0031 14.4508 16.0853C15.372 16.3861 16.3219 16.3937 17.2765 16.3567C17.5996 16.3441 17.9226 16.3362 18.2457 16.3624C18.3275 16.3689 18.3769 16.3951 18.3376 16.4792ZM18.4714 16.0415C18.443 16.1152 18.3856 16.0922 18.3344 16.0893C17.6581 16.0498 16.9818 16.1022 16.3059 16.099C15.6682 16.0961 15.0366 16.0512 14.4352 15.8155C14.1946 15.7213 13.9737 15.5973 13.8098 15.3925C14.3262 15.5808 14.852 15.5553 15.3778 15.5183C15.9901 15.4748 16.5974 15.3558 17.2155 15.3939C17.6686 15.4216 18.0811 15.5492 18.4165 15.8694C18.4688 15.9197 18.5001 15.9668 18.4714 16.0415ZM18.6382 13.5417C18.6033 13.551 18.5673 13.5568 18.532 13.5636C17.991 13.6642 17.4506 13.6423 16.8924 13.5561C16.2772 13.4181 15.654 13.2545 15.1129 12.8779C14.8255 12.6777 14.6085 12.4341 14.5857 12.0643C14.5806 11.9834 14.5955 11.9249 14.6721 11.8868C14.7521 11.8469 14.8135 11.8814 14.8673 11.9338C14.9011 11.9673 14.9269 12.0089 14.9527 12.0492C15.1994 12.4312 15.5232 12.7295 15.9429 12.916C16.5807 13.1988 17.2667 13.2804 17.9492 13.371C18.1701 13.4001 18.3943 13.4051 18.6174 13.4188C18.6621 13.4217 18.7079 13.4213 18.7119 13.4763C18.7148 13.5201 18.6734 13.5327 18.6382 13.5417ZM18.9561 11.1393C18.8725 11.3315 18.8195 11.5285 18.8093 11.7416C18.8002 11.9364 18.8602 12.1178 18.8802 12.3062C18.8874 12.3744 18.8998 12.4431 18.8209 12.4736C18.7312 12.5085 18.7097 12.4237 18.6759 12.3741C18.5302 12.1624 18.5284 11.9277 18.572 11.6869C18.6109 11.4602 18.697 11.2528 18.8377 11.0688C18.8667 11.0314 18.9005 10.9854 18.9554 11.0261C18.9994 11.0584 18.9725 11.1015 18.9561 11.1393Z" fill="white"/>
<path d="M19.5467 2.89706C19.4715 2.8834 19.4322 2.92688 19.4025 2.98546C19.3915 3.21007 19.2927 3.40845 19.2095 3.6115C19.1539 3.74734 19.1841 3.78651 19.3367 3.77753L19.3403 3.77465C19.4475 3.49075 19.5671 3.21007 19.5467 2.89706Z" fill="white"/>
<path d="M20.0518 4.89065C20.0405 4.87808 20.0293 4.8655 20.018 4.85256C19.5579 4.41268 19.0114 4.23695 18.3787 4.33146C18.1785 4.36129 18.0179 4.45797 17.9074 4.6319C17.7537 4.87412 17.5862 5.10808 17.4681 5.37186C17.4089 5.50375 17.4259 5.61444 17.519 5.71902C17.8082 6.04461 18.1716 6.25161 18.5961 6.34217C18.8715 6.40111 19.1466 6.47155 19.434 6.46149C19.6321 6.45466 19.804 6.36805 19.9849 6.31019C20.0787 6.28036 20.1223 6.20022 20.1328 6.10355C20.179 5.69458 20.1695 5.2892 20.0518 4.89065ZM18.9569 4.51331C19.2367 4.55643 19.4707 4.64736 19.6735 4.80512C19.7382 4.85544 19.8069 4.92264 19.7887 5.01572C19.7683 5.11922 19.6739 5.15444 19.5837 5.16486C19.1473 5.21589 18.7458 5.12281 18.3922 4.85759C18.3246 4.80692 18.2592 4.74187 18.2861 4.647C18.3115 4.55643 18.3951 4.52086 18.4794 4.5054C18.6469 4.47414 18.8155 4.4745 18.9569 4.51331Z" fill="white"/>
<path d="M18.7585 6.96606C18.9551 7.0081 19.2 7.04332 19.4486 7.00235C19.5725 6.98187 19.6964 6.79715 19.6706 6.68179C19.6568 6.62034 19.6107 6.63579 19.5703 6.63759C18.8817 6.66813 18.2425 6.51432 17.6625 6.13877C17.632 6.11901 17.6073 6.09349 17.5739 6.13769C17.4961 6.24012 17.5176 6.46041 17.6251 6.53984C17.9474 6.7781 18.3214 6.88879 18.7585 6.96606Z" fill="white"/>
<path d="M18.9335 1.76592C18.8529 1.54311 18.8271 1.30484 18.733 1.08526C18.6592 0.91312 18.5567 0.833339 18.4321 0.88437C18.2874 0.943667 18.2816 1.05867 18.3111 1.19703C18.3877 1.55676 18.4531 1.91901 18.5215 2.28055C18.528 2.31469 18.5226 2.35098 18.5226 2.3862C18.6221 2.756 18.6319 3.13514 18.6512 3.51392C18.6556 3.59802 18.6072 3.74249 18.6955 3.75507C18.8049 3.77052 18.7693 3.62102 18.7947 3.54591C18.9899 2.9648 18.9815 2.3668 18.9335 1.76592Z" fill="white"/>
<path d="M17.3868 9.07953C17.3828 9.10145 17.3439 9.11223 17.2996 9.10433C17.2556 9.09642 17.2229 9.07234 17.2269 9.05078C17.2309 9.02922 17.2698 9.01808 17.3141 9.02598C17.3581 9.03425 17.3908 9.05797 17.3868 9.07953Z" fill="white"/>
<path d="M17.8312 9.12C17.821 9.17498 17.7214 9.20337 17.6084 9.18289C17.4958 9.1624 17.4125 9.10131 17.4227 9.04632C17.4329 8.99098 17.5328 8.96295 17.6455 8.98307C17.7581 9.00356 17.8413 9.06465 17.8312 9.12Z" fill="white"/>
<path d="M17.8312 9.12C17.821 9.17498 17.7214 9.20337 17.6084 9.18289C17.4958 9.1624 17.4125 9.10131 17.4227 9.04632C17.4329 8.99098 17.5328 8.96295 17.6455 8.98307C17.7581 9.00356 17.8413 9.06465 17.8312 9.12Z" fill="white"/>
<path d="M17.3868 9.07953C17.3828 9.10145 17.3439 9.11223 17.2996 9.10433C17.2556 9.09642 17.2229 9.07234 17.2269 9.05078C17.2309 9.02922 17.2698 9.01808 17.3141 9.02598C17.3581 9.03425 17.3908 9.05797 17.3868 9.07953Z" fill="white"/>
<path d="M10.6808 20.5785C10.6684 20.5728 10.6561 20.567 10.6434 20.5612C10.6325 20.549 10.6216 20.5372 10.6107 20.525L10.6085 20.5228C10.5856 20.4764 10.5532 20.4387 10.5082 20.4121L10.5049 20.4082C10.4751 20.3456 10.4449 20.2835 10.4151 20.2209L10.4148 20.2195C10.4155 20.172 10.4206 20.1239 10.4166 20.0768C10.3548 19.3656 10.2927 18.6544 10.2284 17.9432C10.1942 17.5655 10.1826 17.1853 10.1172 16.8104L10.1197 16.8101C10.1197 16.7443 10.1244 16.6782 10.119 16.6131C10.0158 15.4103 9.92676 14.2064 9.84608 13.0021C9.80902 12.4494 9.86898 11.9165 10.1012 11.4076C10.26 11.0597 10.4969 10.7657 10.7458 10.4793C10.8236 10.3898 10.8832 10.2982 10.7967 10.1753C10.5852 9.8752 10.5598 9.54242 10.6404 9.19634C10.6946 8.96346 10.7567 8.73275 10.8134 8.50023C11.0184 7.65785 11.2244 6.81547 11.425 5.97166C11.4497 5.8678 11.4773 5.8581 11.5794 5.89367C12.2415 6.12475 12.9098 6.11577 13.5712 5.89511C13.7064 5.84983 13.7263 5.89511 13.7511 5.99646C14.0109 7.05949 14.274 8.12181 14.5316 9.18556C14.6068 9.49606 14.6185 9.81734 14.4295 10.0876C14.3019 10.2702 14.3412 10.3844 14.4691 10.5246C14.7384 10.8189 14.9677 11.1395 15.1228 11.5096C15.342 12.0329 15.3645 12.5774 15.3307 13.1319C15.213 15.0563 15.0385 16.9761 14.8794 18.8973C14.8394 19.3796 14.8419 19.8662 14.7362 20.3424L14.7369 20.342C14.7267 20.3543 14.7166 20.3668 14.706 20.379L14.7024 20.3852C14.6737 20.3952 14.6595 20.4164 14.6563 20.4455L14.6573 20.4445C14.6123 20.4703 14.5741 20.5023 14.5512 20.5501L14.5429 20.5566C14.5327 20.5648 14.5225 20.5735 14.5127 20.5821L14.5044 20.5886C14.4924 20.5972 14.48 20.6055 14.468 20.6141L14.4651 20.6159C14.4117 20.6087 14.3746 20.6303 14.3535 20.6788L14.3521 20.6802C14.2761 20.6845 14.2093 20.7061 14.1668 20.7744L14.1631 20.7762C14.0948 20.7679 14.0352 20.797 13.9734 20.8193C13.6958 20.9199 13.4073 20.9702 13.1133 20.9896C12.9345 21.0015 12.7554 21.009 12.5762 21.0184L12.578 21.0173C12.0391 21.0026 11.5064 20.9508 10.9951 20.7661L10.9937 20.765C10.9795 20.7359 10.9548 20.7291 10.925 20.7341C10.9123 20.7302 10.8995 20.7266 10.8868 20.7226C10.8759 20.6892 10.8469 20.687 10.8185 20.6831L10.8167 20.6816C10.8065 20.6475 10.7778 20.645 10.7491 20.6421L10.7466 20.64C10.736 20.6292 10.7251 20.6184 10.7146 20.6076L10.708 20.6019C10.6982 20.5947 10.6895 20.5864 10.6808 20.5785ZM12.2692 8.25046L12.2604 8.25478L12.2601 8.26412L12.2484 8.26699L12.2513 8.27742C12.2408 8.29467 12.2306 8.31156 12.2201 8.32881C12.1997 8.34246 12.183 8.35792 12.1881 8.38559C12.1834 8.39889 12.1787 8.41218 12.1739 8.42512C12.1467 8.43914 12.1398 8.46214 12.1449 8.49017C12.1351 8.56096 12.1191 8.63176 12.1169 8.70256C12.1071 9.07739 12.3854 9.39579 12.7641 9.44683C13.1518 9.49894 13.4876 9.25528 13.6126 8.87111C13.7002 8.60193 13.4276 8.1121 13.1482 8.02118C13.0504 7.95793 12.9436 7.94499 12.8306 7.96512C12.8041 7.96692 12.7772 7.96871 12.7506 7.97051C12.723 7.96152 12.6994 7.96763 12.6805 7.98992C12.6678 7.99243 12.6547 7.99495 12.642 7.9971C12.6209 8.00537 12.5995 8.01327 12.5784 8.02154C12.4603 8.05317 12.3731 8.12792 12.2982 8.21956C12.2888 8.22998 12.279 8.24004 12.2692 8.25046ZM14.9717 15.5648C14.7089 15.6712 14.4506 15.7215 14.186 15.7391C13.218 15.8035 12.296 15.5767 11.3807 15.3057C11.0711 15.2141 10.76 15.1268 10.4406 15.0725C10.3599 15.0588 10.305 15.0721 10.3221 15.1631C10.3763 15.4516 10.3795 15.7442 10.3999 16.0353C10.4588 16.8866 10.5285 17.7369 10.5812 18.589C10.6048 18.9724 10.6604 19.3573 10.6866 19.7426C10.7069 20.0441 10.8647 20.2407 11.1045 20.3938C11.2371 20.4786 11.3836 20.535 11.5347 20.5799C12.0235 20.7244 12.5253 20.7262 13.0275 20.7043C13.4033 20.6878 13.771 20.6295 14.1123 20.4574C14.4451 20.2896 14.6642 20.0599 14.6755 19.6581C14.689 19.192 14.7358 18.727 14.7805 18.2623C14.79 18.1621 14.7079 18.0546 14.7453 17.996C14.8521 17.8293 14.8154 17.651 14.8299 17.4796C14.8848 16.8493 14.9248 16.2178 14.9717 15.5648ZM14.9811 15.226C14.4335 15.2809 13.9306 15.1271 13.4309 14.9615C12.8488 14.7685 12.2906 14.504 11.6823 14.3882C11.2364 14.3034 10.8051 14.3257 10.3995 14.5532C10.3363 14.5888 10.2941 14.6269 10.3029 14.7063C10.3116 14.7846 10.373 14.7767 10.4235 14.7864C11.0885 14.9147 11.7299 15.1318 12.3858 15.2953C13.0039 15.4495 13.6271 15.5616 14.2689 15.4815C14.5258 15.4491 14.7711 15.3837 14.9811 15.226ZM12.4581 12.688C13.0886 12.7056 13.7332 12.701 14.3525 12.4695C14.6813 12.3466 14.9528 12.1637 15.068 11.8115C15.093 11.7346 15.0934 11.6742 15.0291 11.6182C14.9615 11.5596 14.8932 11.5783 14.8281 11.616C14.7871 11.6397 14.7515 11.6739 14.7162 11.7062C14.3808 12.0156 13.992 12.2248 13.5388 12.3017C12.8502 12.4185 12.1649 12.3287 11.4813 12.2485C11.26 12.2226 11.0416 12.172 10.8225 12.1303C10.7785 12.122 10.7338 12.1102 10.7164 12.1626C10.7026 12.2043 10.7393 12.2266 10.7713 12.2442C10.8029 12.2618 10.836 12.2762 10.8687 12.2916C11.3669 12.5224 11.8956 12.6341 12.4581 12.688ZM11.3461 9.27433C11.3658 9.53344 11.4712 9.7505 11.6572 9.92156C12.0515 10.2845 12.5239 10.3776 13.0392 10.2773C13.4422 10.199 13.7689 9.99631 13.9873 9.64233C14.037 9.56147 14.0563 9.47486 13.996 9.38969C13.9426 9.31422 13.8662 9.28547 13.7743 9.29589C13.6922 9.30523 13.6537 9.36992 13.6086 9.4249C13.3146 9.78428 12.9349 9.9327 12.4712 9.8885C12.0075 9.84466 11.6256 9.66137 11.3461 9.27433ZM11.3022 10.4642C11.3218 10.2349 11.2906 10.0128 11.2004 9.80045C11.1819 9.75697 11.1608 9.70414 11.0972 9.73001C11.0464 9.7505 11.0616 9.79901 11.0682 9.83962C11.1009 10.0466 11.1023 10.2504 11.0583 10.4588C11.0184 10.65 10.9148 10.8107 10.8476 10.9882C10.8232 11.0525 10.7938 11.1161 10.8628 11.165C10.941 11.2207 10.9831 11.1438 11.0285 11.1046C11.223 10.935 11.2836 10.7079 11.3022 10.4642ZM14.2158 9.95786C14.2213 9.9248 14.226 9.88311 14.2358 9.8425C14.2478 9.79362 14.2612 9.74331 14.1969 9.72498C14.1424 9.70953 14.1221 9.75553 14.1094 9.7947C13.9702 10.218 13.9197 10.6367 14.2107 11.0234C14.2678 11.0992 14.3379 11.225 14.4528 11.1499C14.5632 11.0777 14.4607 10.9713 14.4208 10.8965C14.2638 10.604 14.1886 10.2971 14.2158 9.95786Z" fill="white"/>
<path d="M12.5717 1.71289C12.648 1.71828 12.6749 1.77003 12.6891 1.834C12.6429 2.0543 12.6887 2.27064 12.7182 2.48771C12.7378 2.63325 12.6985 2.66344 12.5532 2.61708L12.5506 2.61349C12.5183 2.31233 12.4732 2.01117 12.5717 1.71289Z" fill="white"/>
<path d="M11.5802 3.52049C11.5944 3.51114 11.6082 3.50144 11.6224 3.49209C12.1787 3.17944 12.7521 3.14386 13.3412 3.39111C13.5276 3.46945 13.6588 3.60242 13.722 3.79828C13.81 4.07105 13.9132 4.33843 13.9611 4.62305C13.9851 4.76536 13.9411 4.86851 13.8245 4.94685C13.4622 5.19087 13.0585 5.30191 12.6242 5.28538C12.3426 5.2746 12.0588 5.27532 11.7823 5.19482C11.5918 5.13947 11.4476 5.01333 11.2866 4.91235C11.2034 4.86024 11.1812 4.77219 11.1954 4.67552C11.2546 4.26763 11.3658 3.87735 11.5802 3.52049ZM12.7354 3.42417C12.4538 3.39722 12.2041 3.42741 11.9679 3.53019C11.8927 3.56289 11.8091 3.61141 11.8037 3.70556C11.7975 3.81086 11.88 3.868 11.9647 3.90035C12.3746 4.05703 12.7867 4.06566 13.1958 3.89603C13.274 3.86369 13.3539 3.81661 13.3517 3.71814C13.3499 3.62399 13.278 3.569 13.2002 3.53342C13.0458 3.46299 12.8826 3.42166 12.7354 3.42417Z" fill="white"/>
<path d="M12.3108 5.84756C12.1098 5.83965 11.8638 5.81377 11.633 5.71279C11.5182 5.66248 11.4444 5.45296 11.4986 5.3473C11.5273 5.29124 11.568 5.31748 11.6069 5.32934C12.2661 5.52843 12.9242 5.5367 13.5804 5.31604C13.6153 5.30418 13.6451 5.28549 13.6666 5.33688C13.716 5.45512 13.6397 5.6632 13.5158 5.71351C13.1436 5.86517 12.7534 5.88026 12.3108 5.84756Z" fill="white"/>
<path d="M13.4526 0.767742C13.5867 0.571523 13.6721 0.347272 13.8182 0.157881C13.9327 0.00945834 14.0522 -0.0426512 14.1602 0.0374897C14.2852 0.130568 14.2619 0.243412 14.1987 0.370272C14.0337 0.69982 13.8793 1.0344 13.7223 1.3679C13.7074 1.39917 13.7037 1.43582 13.6947 1.46996C13.505 1.80346 13.4003 2.16823 13.2862 2.53048C13.2608 2.61098 13.2713 2.76264 13.1826 2.7533C13.0725 2.74144 13.1449 2.60559 13.1394 2.52617C13.0962 1.91487 13.255 1.33735 13.4526 0.767742Z" fill="white"/>
<path d="M13.0814 8.19136C13.0854 8.13533 12.996 8.08339 12.8817 8.07534C12.7674 8.0673 12.6715 8.10619 12.6675 8.16222C12.6634 8.21825 12.7528 8.27019 12.8671 8.27824C12.9814 8.28629 13.0774 8.24739 13.0814 8.19136Z" fill="white"/>
<path d="M13.2707 8.24312C13.2723 8.22115 13.2372 8.20077 13.1924 8.19762C13.1475 8.19446 13.1099 8.20972 13.1083 8.23169C13.1068 8.25367 13.1418 8.27404 13.1867 8.2772C13.2315 8.28036 13.2691 8.2651 13.2707 8.24312Z" fill="white"/>
<path d="M22.7847 2.48226C22.4652 2.36079 22.1582 2.24291 21.85 2.1272C21.7486 2.0891 21.685 2.02046 21.6956 1.91301C21.7058 1.81023 21.7643 1.73583 21.878 1.72002C21.8958 1.71751 21.9122 1.70816 21.9296 1.70421C22.603 1.54465 23.2767 1.38544 23.95 1.22588C24.1895 1.1691 24.4286 1.10944 24.6681 1.05338C24.9254 0.993364 25.0438 1.10082 24.9842 1.35202C24.7658 2.27346 24.5427 3.19346 24.3207 4.11383C24.2945 4.22164 24.2313 4.30178 24.1139 4.30897C23.9944 4.31651 23.9308 4.23817 23.8912 4.13467C23.7789 3.84106 23.6648 3.54781 23.5405 3.22617C23.4028 3.36021 23.2792 3.47881 23.1571 3.5992C22.7803 3.97079 22.4046 4.34383 22.0266 4.7147C21.8595 4.87894 21.7697 4.87606 21.6007 4.71003C21.4892 4.60042 21.3776 4.49081 21.2679 4.37976C21.1225 4.23242 21.124 4.13359 21.2741 3.98481C21.7523 3.51079 22.2316 3.03749 22.7102 2.56348C22.7316 2.54335 22.7505 2.52035 22.7847 2.48226Z" fill="white"/>
<path d="M2.20948 2.4961C2.58122 2.85943 2.94134 3.21054 3.30073 3.56237C3.45117 3.70971 3.60198 3.85634 3.74915 4.00655C3.87234 4.13198 3.87307 4.23691 3.75097 4.36342C3.62996 4.48884 3.50605 4.61174 3.37922 4.73106C3.22297 4.8784 3.13466 4.87517 2.98131 4.72315C2.51509 4.26243 2.04704 3.80315 1.58445 3.33847C1.48779 3.24144 1.44745 3.23641 1.39985 3.37585C1.31518 3.62382 1.21416 3.86604 1.12077 4.11113C1.08079 4.21607 1.0321 4.31454 0.898011 4.31059C0.758106 4.30627 0.706142 4.20852 0.677434 4.08957C0.456494 3.17496 0.232647 2.26106 0.0138879 1.34609C-0.0435274 1.10675 0.0800245 0.993545 0.330035 1.05248C1.14948 1.24583 1.96782 1.44241 2.7869 1.63791C2.90391 1.66594 3.02056 1.69648 3.13793 1.72344C3.24768 1.74859 3.30691 1.82299 3.30982 1.92577C3.31272 2.02136 3.25567 2.09 3.15865 2.12594C2.88211 2.22836 2.60739 2.33474 2.3323 2.44003C2.29923 2.45261 2.26798 2.46914 2.20948 2.4961Z" fill="white"/>
<path d="M19.6374 23.5491C19.3315 23.2512 19.0444 22.9723 18.758 22.6927C18.5473 22.4868 18.3372 22.2805 18.1283 22.0731C17.9535 21.8999 17.9524 21.8079 18.1228 21.6376C18.2333 21.5272 18.3445 21.4169 18.4579 21.3091C18.6127 21.1618 18.7017 21.1621 18.8551 21.3131C19.322 21.7727 19.7879 22.2338 20.2541 22.6941C20.2879 22.7276 20.3228 22.7592 20.3773 22.8106C20.4907 22.5155 20.5968 22.2352 20.7065 21.9567C20.7323 21.8913 20.7487 21.8194 20.8108 21.7723C20.9478 21.6688 21.1124 21.7425 21.1597 21.9351C21.2847 22.4437 21.4071 22.9529 21.5296 23.4618C21.627 23.8668 21.7255 24.2718 21.8192 24.6779C21.8781 24.9316 21.7647 25.0437 21.5092 24.9837C20.9475 24.8522 20.386 24.7174 19.8249 24.583C19.4623 24.4964 19.1011 24.4041 18.7373 24.3236C18.6127 24.2959 18.5342 24.2333 18.5316 24.1122C18.5291 23.9998 18.6054 23.9358 18.7144 23.8966C19.0131 23.7899 19.3086 23.6738 19.6374 23.5491Z" fill="white"/>
<path d="M5.33738 23.5404C5.67642 23.6676 5.96131 23.7765 6.24803 23.8814C6.36722 23.9249 6.48023 23.9767 6.47296 24.1233C6.4657 24.2728 6.34178 24.3102 6.2215 24.3386C5.31412 24.5542 4.40638 24.7694 3.49863 24.9836C3.24136 25.0444 3.11889 24.9301 3.17922 24.6778C3.39725 23.7679 3.61964 22.859 3.83986 21.9498C3.86675 21.8384 3.91435 21.7388 4.04226 21.7284C4.17926 21.7176 4.24322 21.8121 4.28682 21.9271C4.39584 22.2161 4.50776 22.5036 4.63168 22.827C5.05066 22.4073 5.44857 22.0087 5.84648 21.6098C5.95296 21.5034 6.05798 21.3956 6.16663 21.2918C6.29418 21.1696 6.39956 21.1681 6.52638 21.2889C6.65284 21.4093 6.77567 21.5333 6.89886 21.6569C7.04203 21.8003 7.04058 21.9049 6.89122 22.0526C6.43808 22.5014 5.98457 22.9499 5.52925 23.397C5.48237 23.4433 5.42314 23.4771 5.33738 23.5404Z" fill="white"/>
</g>
<defs>
<clipPath id="clip0_383_135">
<rect width="25" height="25" fill="white"/>
</clipPath>
</defs>
</svg>
