<svg width="25" height="25" viewBox="0 0 25 25" fill="none" xmlns="http://www.w3.org/2000/svg">
<g clip-path="url(#clip0_374_153)">
<path d="M13.472 2.39539C14.3307 2.39539 15.0869 2.38855 15.8431 2.39709C18.586 2.42613 20.3678 4.36983 20.3726 7.33322C20.3741 8.46904 20.3726 9.60486 20.3726 10.8022C19.8353 10.8022 19.3548 10.8022 18.7561 10.8022C18.7561 9.72954 18.7577 8.65862 18.7561 7.58771C18.753 5.29386 17.7352 4.19049 15.6194 4.18708C14.9404 4.18708 14.2613 4.18708 13.4736 4.18708C13.4736 4.67044 13.4878 5.09061 13.4705 5.50736C13.4327 6.39894 12.8686 6.74396 12.2054 6.24351C11.2569 5.52957 10.3306 4.78317 9.41837 4.01628C8.8512 3.53975 8.8638 3.02393 9.43727 2.54227C10.3085 1.81125 11.1845 1.08193 12.0982 0.417522C12.3598 0.227934 12.8151 0.115206 13.0782 0.234766C13.2909 0.332122 13.3996 0.82061 13.4594 1.15538C13.5209 1.50893 13.472 1.8864 13.472 2.39539Z" fill="white"/>
<path d="M10.8022 25.5628C8.86438 24.6046 7.12507 23.7575 5.40151 22.871C5.21718 22.7754 5.01394 22.4611 5.01237 22.2459C4.99031 19.66 5.00291 17.0741 5.01079 14.4882C5.01079 14.442 5.06278 14.3976 5.1384 14.2695C6.42556 14.9049 7.68436 15.6752 9.03295 16.1535C10.4934 16.671 10.9755 17.554 10.8353 19.1937C10.684 20.9683 10.8006 22.7702 10.8022 24.5602C10.8038 24.8352 10.8022 25.1051 10.8022 25.5628Z" fill="white"/>
<path d="M18.304 14.1992C18.304 15.9619 18.304 17.5469 18.304 19.1336C18.304 20.1277 18.3213 21.1235 18.2882 22.1175C18.2804 22.3566 18.1606 22.7187 17.9952 22.8058C16.393 23.641 14.7702 24.4318 13.1522 25.2312C12.9915 25.3098 12.823 25.3661 12.5725 25.4669C12.5567 25.115 12.5346 24.8435 12.5346 24.5719C12.5315 22.2986 12.5488 20.0235 12.5236 17.7502C12.5173 17.2155 12.6812 16.9508 13.1349 16.7373C14.8065 15.9499 16.4591 15.1096 18.304 14.1992Z" fill="white"/>
<path d="M17.0517 12.769C15.2951 13.6418 13.6109 14.4838 11.9204 15.3071C11.7755 15.3771 11.5534 15.3857 11.4116 15.3173C9.69904 14.4855 7.99281 13.6332 6.11328 12.699C6.63634 12.4154 7.00972 12.1985 7.39413 12.0055C8.65293 11.377 9.91173 10.7467 11.1816 10.1421C11.4021 10.0379 11.7172 9.94568 11.9126 10.0379C13.5416 10.8116 15.1533 11.6281 16.765 12.4411C16.8611 12.4906 16.9241 12.6204 17.0517 12.769Z" fill="white"/>
</g>
<defs>
<clipPath id="clip0_374_153">
<rect width="25" height="25" fill="white"/>
</clipPath>
</defs>
</svg>
