<svg width="25" height="25" viewBox="0 0 25 25" fill="none" xmlns="http://www.w3.org/2000/svg">
<path d="M16.412 16.5665C16.5705 16.7186 16.7205 16.8567 16.8608 17.0046C16.8833 17.0281 16.879 17.1106 16.8555 17.1417C16.5823 17.5101 16.3231 17.8925 16.0211 18.2363C14.8332 19.5892 13.3711 20.5242 11.6317 20.9934C9.04278 21.6917 6.58994 21.3458 4.30311 19.9383C3.88217 19.6791 3.47943 19.376 3.1099 19.0472C1.1187 17.2713 0.0775826 15.038 0.00367595 12.372C-0.0498796 10.4419 0.482463 8.67132 1.55464 7.06358C1.88133 6.57408 2.24337 6.11137 2.66432 5.70006C4.10603 4.28941 5.81445 3.39182 7.82064 3.10262C10.0486 2.78128 12.1244 3.21508 14.0406 4.39759C14.483 4.67072 14.906 4.97063 15.2788 5.33481C15.6119 5.6615 15.9279 6.0064 16.2535 6.34058C16.3081 6.39735 16.3038 6.43805 16.2524 6.49054C16.1389 6.60622 16.0264 6.7219 15.9161 6.84079C15.8529 6.90934 15.8122 6.89863 15.7554 6.82794C14.8054 5.65186 13.625 4.78319 12.2111 4.2562C9.84076 3.37468 7.51109 3.51285 5.25426 4.65251C4.28705 5.14094 3.44087 5.80181 2.74679 6.63514C1.00088 8.73237 0.363569 11.1327 0.853067 13.818C1.10692 15.2105 1.7046 16.4572 2.60648 17.5455C3.92073 19.1329 5.59595 20.1311 7.62784 20.4996C9.75293 20.8841 11.7463 20.506 13.5961 19.391C14.3523 18.9347 15.0206 18.3692 15.5894 17.6933C15.8733 17.3559 16.1132 16.9821 16.3724 16.6254C16.381 16.6125 16.3895 16.5986 16.412 16.5665Z" fill="white"/>
<path d="M8.16206 17.3912C6.98598 16.6853 5.91058 15.972 4.77199 15.3839C4.06613 15.0187 3.83798 14.572 3.87976 13.7965C3.95045 12.5101 3.89904 11.2162 3.89904 9.87305C4.04471 9.9416 4.16253 9.98658 4.26964 10.0509C5.465 10.7653 6.65608 11.4861 7.85465 12.1952C8.08065 12.3291 8.17384 12.4791 8.17063 12.7565C8.15349 14.2689 8.16206 15.7824 8.16206 17.3912Z" fill="white"/>
<path d="M13.1778 10.248C13.1778 11.9168 13.1811 13.4882 13.1703 15.0595C13.1693 15.1505 13.0857 15.2833 13.0033 15.3262C11.7094 16.0021 10.4101 16.6672 9.05514 17.3634C9.05514 15.7139 9.05193 14.1319 9.06264 12.5499C9.06371 12.4577 9.14833 12.3239 9.23187 12.281C10.5129 11.6116 11.8004 10.955 13.1778 10.248Z" fill="white"/>
<path d="M12.7268 9.58103C12.1388 9.88201 11.6032 10.1562 11.0677 10.4315C10.3297 10.8107 9.59597 11.1963 8.85155 11.5615C8.72837 11.6226 8.5195 11.6547 8.41668 11.5915C7.10349 10.7882 5.80317 9.96556 4.4375 9.10867C4.90236 8.86767 5.31367 8.65345 5.72605 8.4403C6.52724 8.02471 7.32629 7.60269 8.13497 7.2021C8.27315 7.13354 8.50022 7.09177 8.6159 7.15925C9.97407 7.94116 11.3183 8.74664 12.7268 9.58103Z" fill="white"/>
<path d="M14.1254 11.4554C14.2272 11.6003 14.3103 11.7647 14.4346 11.8872C15.3227 12.7634 16.2187 13.632 17.1133 14.5018C17.4186 14.7988 17.7416 14.7941 18.0483 14.4974C18.6806 13.8856 19.315 13.2752 19.9487 12.6649C19.97 12.6442 19.9935 12.6265 19.9852 12.6334C20.9784 13.6078 21.9648 14.5753 22.9775 15.5685C22.89 15.5736 22.8395 15.579 22.7889 15.579C22.3253 15.5801 21.8618 15.5761 21.3982 15.5827C21.063 15.5874 20.8213 15.8449 20.8274 16.1756C20.8332 16.4991 21.0745 16.7451 21.4029 16.7462C22.4084 16.7501 23.4136 16.7509 24.419 16.7491C24.7363 16.7483 24.901 16.5487 25 16.2742C25 15.1509 25 14.028 25 12.9047C24.836 12.5381 24.5932 12.3791 24.2875 12.4381C23.971 12.4993 23.8084 12.7453 23.8084 13.164C23.8084 13.6288 23.8088 14.0935 23.8077 14.5579C23.8077 14.601 23.7987 14.6438 23.7886 14.7343C23.704 14.6376 23.6516 14.5713 23.5924 14.5115C22.5804 13.4868 21.5677 12.4628 20.555 11.4391C20.1959 11.0758 19.8981 11.0707 19.5303 11.4246C19.0657 11.8716 18.6036 12.3211 18.1397 12.7688C17.9547 12.9474 17.7679 13.1238 17.5793 13.3031C16.7769 12.5232 15.9864 11.7546 15.1948 10.987C15.1392 10.933 15.081 10.8773 15.0145 10.8396C14.6539 10.6342 14.3147 10.7881 14.125 11.238C14.1254 11.3105 14.1254 11.3829 14.1254 11.4554Z" fill="white"/>
</svg>
