<svg width="25" height="25" viewBox="0 0 25 25" fill="none" xmlns="http://www.w3.org/2000/svg">
<g clip-path="url(#clip0_732_316)">
<path d="M2.24108 12.4819C2.20444 17.2633 5.73129 21.8102 11.0067 22.5789C13.5247 22.9461 15.8996 22.4359 18.0466 21.0209C18.5745 20.6732 19.052 20.696 19.3509 21.1136C19.6669 21.5562 19.5387 22.0435 18.9707 22.4096C16.542 23.9721 13.89 24.6218 11.017 24.2455C6.76186 23.6884 3.6461 21.459 1.75671 17.6442C-1.6957 10.6757 2.55484 2.31964 10.2349 0.862339C16.7859 -0.381056 23.038 3.92107 24.1705 10.5258C24.7442 13.8728 23.9529 16.9441 21.9181 19.6803C21.5746 20.1424 21.0799 20.2419 20.6746 19.948C20.2749 19.6586 20.2154 19.1552 20.5704 18.692C21.8815 16.975 22.5972 15.0316 22.6785 12.8868C22.8376 8.68304 20.4078 4.81673 16.4973 3.13179C10.4181 0.511169 3.44685 4.32143 2.4117 10.8381C2.32467 11.3814 2.29719 11.9339 2.24108 12.4819Z" fill="white"/>
<path d="M6.52341 15.1521C5.76337 14.6964 5.06892 14.2355 4.33304 13.8552C3.87735 13.6193 3.72949 13.3311 3.7571 12.8299C3.80256 11.9986 3.76976 11.1631 3.76976 10.2949C3.86354 10.3398 3.94007 10.3686 4.00911 10.41C4.78124 10.8714 5.55106 11.3369 6.32492 11.7954C6.47048 11.8818 6.53147 11.979 6.52917 12.1579C6.51766 13.1349 6.52341 14.113 6.52341 15.1521Z" fill="white"/>
<path d="M9.7651 10.5371C9.7651 11.6153 9.76683 12.6308 9.7605 13.6458C9.75992 13.705 9.70584 13.7902 9.65233 13.8178C8.81634 14.2545 7.97689 14.6843 7.10178 15.1342C7.10178 14.0686 7.10005 13.0462 7.10638 12.0244C7.10696 11.9646 7.16161 11.8783 7.2157 11.8506C8.04306 11.418 8.87502 10.9939 9.7651 10.5371Z" fill="white"/>
<path d="M9.47202 10.1066C9.09229 10.301 8.74592 10.4782 8.40014 10.656C7.92374 10.9006 7.44907 11.1503 6.96808 11.3862C6.8881 11.4253 6.75404 11.446 6.6873 11.4051C5.8398 10.8862 4.99921 10.3545 4.11719 9.80105C4.41752 9.64513 4.68334 9.50647 4.94915 9.36896C5.46697 9.10084 5.98249 8.82755 6.50549 8.56922C6.59467 8.52549 6.74139 8.49787 6.81618 8.5416C7.6936 9.04676 8.56181 9.56688 9.47202 10.1066Z" fill="white"/>
<path d="M17.8594 15.1521C17.0993 14.6964 16.4049 14.2355 15.669 13.8552C15.2133 13.6193 15.0654 13.3311 15.093 12.8299C15.1385 11.9986 15.1057 11.1631 15.1057 10.2949C15.1995 10.3398 15.276 10.3686 15.345 10.41C16.1172 10.8714 16.887 11.3369 17.6609 11.7954C17.8064 11.8818 17.8674 11.979 17.8651 12.1579C17.8536 13.1349 17.8594 14.113 17.8594 15.1521Z" fill="white"/>
<path d="M21.101 10.5371C21.101 11.6153 21.1028 12.6308 21.0964 13.6458C21.0959 13.705 21.0418 13.7902 20.9883 13.8178C20.1523 14.2545 19.3128 14.6843 18.4377 15.1342C18.4377 14.0686 18.436 13.0462 18.4423 12.0244C18.4429 11.9646 18.4976 11.8783 18.5516 11.8506C19.379 11.418 20.211 10.9939 21.101 10.5371Z" fill="white"/>
<path d="M20.808 10.1066C20.4282 10.301 20.0819 10.4782 19.7361 10.656C19.2597 10.9006 18.785 11.1503 18.304 11.3862C18.224 11.4253 18.09 11.446 18.0232 11.4051C17.1757 10.8862 16.3351 10.3545 15.4531 9.80105C15.7535 9.64513 16.0193 9.50647 16.2851 9.36896C16.8029 9.10084 17.3184 8.82755 17.8414 8.56922C17.9306 8.52549 18.0773 8.49787 18.1521 8.5416C19.0295 9.04676 19.8977 9.56688 20.808 10.1066Z" fill="white"/>
<path d="M11.2695 11.9965V11.5332H13.912V11.9965H11.2695ZM11.2695 13.2663V12.803H13.912V13.2663H11.2695Z" fill="white"/>
</g>
<defs>
<clipPath id="clip0_732_316">
<rect width="25" height="25" fill="white"/>
</clipPath>
</defs>
</svg>
