<svg width="25" height="25" viewBox="0 0 25 25" fill="none" xmlns="http://www.w3.org/2000/svg">
<g clip-path="url(#clip0_748_334)">
<path d="M12.162 24.9981C9.38598 24.2175 6.63438 23.4462 3.88277 22.6695C2.74936 22.349 2.75071 22.3437 2.75071 21.2027C2.75071 19.2106 2.76832 17.2185 2.73853 15.2263C2.73176 14.7409 2.86311 14.6744 3.33435 14.705C5.4468 14.8473 7.56331 14.9218 9.67577 15.0588C10.0942 15.0854 10.2106 14.9045 10.3339 14.5907C10.9067 13.1358 11.4944 11.6876 12.162 10.25C12.162 15.1359 12.162 20.0218 12.162 24.9981Z" fill="white"/>
<path d="M12.8164 25.0007C12.8164 20.0536 12.8164 15.1544 12.8164 10.2565C12.8462 10.2459 12.876 10.2352 12.9058 10.2246C13.3513 11.3124 13.8022 12.3976 14.2396 13.4868C14.8855 15.0972 14.8815 15.1025 16.6134 15.0068C18.3453 14.911 20.0773 14.8233 21.8065 14.6956C22.1816 14.6677 22.2574 14.7594 22.2561 15.0999C22.2453 17.3806 22.248 19.66 22.2534 21.9407C22.2534 22.1774 22.2412 22.3675 21.9555 22.4473C18.9195 23.2905 15.8876 24.1416 12.8164 25.0007Z" fill="white"/>
<path d="M1 14.0687C1.71498 12.6165 2.41778 11.1989 3.1111 9.7773C3.21266 9.56851 3.38328 9.59112 3.56203 9.58048C6.34613 9.41957 9.12888 9.25599 11.9184 9.09375C12.0403 9.24801 11.9468 9.381 11.8927 9.51798C11.2765 11.0739 10.6591 12.6298 10.0497 14.1884C9.93459 14.481 9.80324 14.6393 9.42543 14.6127C6.64268 14.4172 3.85994 14.2496 1 14.0687Z" fill="white"/>
<path d="M23.9981 14.0681C21.1395 14.249 18.3568 14.4218 15.5754 14.6067C15.2653 14.628 15.0933 14.5655 14.9742 14.2543C14.377 12.6904 13.7649 11.1331 13.1312 9.58381C12.9633 9.17422 12.9782 9.06517 13.4819 9.09974C16.1089 9.2806 18.7373 9.4229 21.3657 9.58115C21.5566 9.59312 21.7638 9.53195 21.883 9.77664C22.5763 11.1983 23.2804 12.6146 23.9981 14.0681Z" fill="white"/>
<path d="M17.3866 2.58529C17.3798 4.00956 16.2031 5.17053 14.7745 5.15989C13.3526 5.15058 12.1474 3.96967 12.1407 2.57864C12.1325 1.13574 13.3174 -0.00793765 14.8124 4.14976e-05C16.2654 0.00802064 17.3934 1.14106 17.3866 2.58529Z" fill="white"/>
<path d="M5.85161 7.11562C5.84484 6.08897 6.61805 5.32031 7.65802 5.32031C8.66415 5.32031 9.50913 6.14482 9.49829 7.11828C9.48746 8.05849 8.65331 8.883 7.69052 8.90561C6.69117 8.92822 5.85838 8.117 5.85161 7.11562Z" fill="white"/>
<path d="M10.7488 2.49798C10.7448 3.27728 10.1395 3.8704 9.34322 3.87306C8.56595 3.87572 7.92138 3.26398 7.90649 2.50995C7.89159 1.74129 8.5822 1.0644 9.36489 1.08035C10.1313 1.09631 10.7529 1.73199 10.7488 2.49798Z" fill="white"/>
<path d="M12.1232 7.76661C11.3229 7.76661 10.723 7.18413 10.7149 6.39685C10.7068 5.62421 11.3135 4.99385 12.0867 4.97125C12.8585 4.94864 13.5708 5.63617 13.56 6.39286C13.5491 7.14157 12.8951 7.76661 12.1232 7.76661Z" fill="white"/>
<path d="M18.0535 7.3536C18.0575 8.11295 17.4251 8.75926 16.6682 8.77256C15.8855 8.78585 15.1976 8.10896 15.2111 7.33764C15.2233 6.58627 15.8706 5.97586 16.6519 5.97852C17.4549 5.97985 18.0494 6.56366 18.0535 7.3536Z" fill="white"/>
</g>
<defs>
<clipPath id="clip0_748_334">
<rect width="25" height="25" fill="white"/>
</clipPath>
</defs>
</svg>
