<svg width="25" height="25" viewBox="0 0 25 25" fill="none" xmlns="http://www.w3.org/2000/svg">
<g clip-path="url(#clip0_374_74)">
<path d="M6.6148 24.8616C6.59724 24.8587 6.57968 24.8558 6.56212 24.8529C6.54457 24.8426 6.52653 24.8323 6.50898 24.8219C6.50898 24.8219 6.50518 24.8203 6.50566 24.8203C6.46152 24.7753 6.40838 24.7422 6.34242 24.7257L6.33673 24.722C6.27836 24.6609 6.21999 24.6002 6.16163 24.5391L6.16068 24.5378C6.14597 24.4846 6.13648 24.4296 6.11607 24.3784C5.80384 23.6046 5.4916 22.8303 5.17652 22.0573C5.00901 21.6464 4.8695 21.2269 4.66308 20.8284L4.6664 20.8271C4.64458 20.754 4.62939 20.6789 4.60045 20.6078C4.0742 19.2984 3.56599 17.984 3.06821 16.6663C2.83949 16.0613 2.73984 15.4514 2.86654 14.8196C2.9529 14.3877 3.156 13.9933 3.37665 13.6039C3.44546 13.4821 3.49101 13.3632 3.34106 13.2513C2.9752 12.9771 2.83332 12.6141 2.82193 12.2061C2.81387 11.9319 2.81671 11.6573 2.81197 11.3827C2.79441 10.3871 2.7778 9.39148 2.75408 8.39588C2.75123 8.27323 2.78302 8.25465 2.92348 8.26539C3.83694 8.33517 4.67922 8.13572 5.44272 7.70337C5.59884 7.615 5.63918 7.6596 5.70371 7.76531C6.3818 8.87489 7.06417 9.9824 7.73942 11.0936C7.93682 11.4182 8.05687 11.7721 7.90692 12.1264C7.80585 12.3659 7.89269 12.482 8.101 12.6017C8.53804 12.8532 8.93379 13.1447 9.25219 13.5131C9.70157 14.0334 9.90893 14.633 10.0484 15.2594C10.5325 17.4344 10.9429 19.6205 11.3738 21.8033C11.482 22.3513 11.6452 22.8923 11.6675 23.4518L11.6685 23.4514C11.6594 23.4679 11.6504 23.4848 11.6419 23.5013L11.639 23.5092C11.6058 23.5286 11.5954 23.5563 11.6001 23.5893L11.6011 23.5876C11.5527 23.6289 11.5147 23.6756 11.5019 23.7351L11.4934 23.7446C11.4834 23.757 11.4734 23.7689 11.4635 23.7813C11.4635 23.7813 11.4549 23.7912 11.4549 23.7908C11.4426 23.8036 11.4298 23.8164 11.417 23.8296L11.4141 23.8325C11.3444 23.84 11.3045 23.8738 11.2936 23.9341L11.2922 23.9362C11.1977 23.9622 11.1199 24.0055 11.0891 24.0935L11.0848 24.0964C10.9956 24.1067 10.9296 24.1559 10.8594 24.198C10.541 24.3883 10.1932 24.5263 9.82779 24.6312C9.60524 24.6947 9.38127 24.7542 9.15824 24.8153L9.16014 24.8137C8.47398 24.9499 7.78307 25.0429 7.07556 24.9822L7.07318 24.9813C7.04566 24.9528 7.01245 24.9524 6.97638 24.9665C6.95883 24.9661 6.94174 24.9652 6.92418 24.9648C6.89951 24.9305 6.86155 24.9363 6.82453 24.94L6.82169 24.9388C6.79749 24.9037 6.76047 24.9091 6.72299 24.914L6.71919 24.9124C6.70211 24.9033 6.68503 24.8942 6.66794 24.8855L6.65798 24.881C6.64232 24.8744 6.62856 24.8682 6.6148 24.8616ZM4.57008 10.6927L4.56059 10.6997L4.56296 10.7104L4.5492 10.717L4.55632 10.7278C4.54872 10.7497 4.54113 10.772 4.53401 10.7938C4.51313 10.8149 4.49653 10.8368 4.51218 10.8661C4.51029 10.8822 4.50886 10.8983 4.50696 10.9144C4.47707 10.9375 4.47565 10.9652 4.49178 10.9949C4.50269 11.0767 4.50554 11.1597 4.52642 11.2394C4.63698 11.6594 5.09442 11.9348 5.58935 11.8844C6.09709 11.8328 6.4416 11.4665 6.47339 11.0036C6.49569 10.679 5.98985 10.2112 5.60691 10.1893C5.46218 10.1468 5.32314 10.1624 5.18696 10.217C5.15374 10.2265 5.121 10.236 5.08778 10.2454C5.04982 10.2434 5.0223 10.2566 5.00569 10.2867C4.99003 10.2929 4.97484 10.2995 4.95919 10.3057C4.93498 10.3206 4.91078 10.3359 4.88658 10.3508C4.74755 10.4193 4.66166 10.5271 4.5976 10.6505C4.58811 10.6646 4.57909 10.6786 4.57008 10.6927ZM10.3929 18.0678C10.0959 18.2607 9.78556 18.3895 9.45624 18.4841C8.25332 18.8297 7.01245 18.838 5.76587 18.7954C5.34402 18.781 4.92217 18.7719 4.50032 18.802C4.39355 18.8095 4.32902 18.84 4.38027 18.9363C4.5435 19.2418 4.6441 19.5668 4.76558 19.8852C5.12005 20.816 5.4878 21.7426 5.83468 22.6755C5.9908 23.0954 6.18773 23.5084 6.34716 23.9292C6.47244 24.2591 6.7358 24.4334 7.08932 24.5354C7.2853 24.5919 7.48887 24.6138 7.69434 24.6204C8.36009 24.6431 8.995 24.5031 9.62327 24.3363C10.0931 24.2116 10.5386 24.0427 10.914 23.7545C11.2798 23.4737 11.481 23.1561 11.3633 22.7056C11.2272 22.1832 11.1337 21.6522 11.0373 21.1228C11.0165 21.0088 10.877 20.9122 10.9054 20.8366C10.9856 20.6211 10.8808 20.4328 10.8428 20.2383C10.7052 19.5214 10.5481 18.8074 10.3929 18.0678ZM10.2933 17.6879C9.619 17.9043 8.93237 17.875 8.24573 17.832C7.44616 17.7821 6.65323 17.6454 5.84607 17.6892C5.25434 17.721 4.71575 17.8676 4.27777 18.2359C4.20944 18.2933 4.16863 18.3478 4.20612 18.4337C4.24313 18.5184 4.3181 18.4919 4.38501 18.4886C5.2681 18.4432 6.15071 18.5035 7.0338 18.4998C7.86611 18.4965 8.69131 18.4449 9.47664 18.174C9.79078 18.0654 10.0793 17.9229 10.2933 17.6879ZM6.26792 15.5774C7.07129 15.4188 7.88509 15.2309 8.59166 14.7981C8.96701 14.5681 9.2503 14.2882 9.28019 13.8632C9.28683 13.7703 9.26738 13.703 9.16726 13.6593C9.06239 13.6134 8.98219 13.6531 8.91244 13.7133C8.86831 13.7513 8.83461 13.7992 8.80092 13.8455C8.47872 14.2849 8.05592 14.6276 7.50785 14.8415C6.67553 15.1665 5.77916 15.2602 4.88801 15.3643C4.5995 15.3982 4.30672 15.4035 4.01583 15.4192C3.95747 15.4225 3.8972 15.4221 3.89246 15.4853C3.88866 15.5353 3.94276 15.5497 3.98879 15.5604C4.03434 15.5708 4.08132 15.5778 4.12782 15.5856C4.83344 15.7021 5.53905 15.6769 6.26792 15.5774ZM3.73919 12.0934C3.84928 12.3762 4.0538 12.5877 4.34563 12.7256C4.96346 13.0184 5.59172 12.9878 6.21003 12.7305C6.69404 12.5294 7.04044 12.2115 7.19988 11.756C7.23642 11.6519 7.23168 11.5499 7.12776 11.4723C7.03522 11.4033 6.9294 11.393 6.81647 11.4306C6.71539 11.464 6.68835 11.547 6.64944 11.6214C6.39604 12.1045 5.96422 12.3771 5.363 12.4592C4.76321 12.5406 4.21988 12.4448 3.73919 12.0934ZM4.07467 13.4297C4.0239 13.1691 3.91144 12.9308 3.7278 12.7198C3.69031 12.6764 3.64618 12.6236 3.57405 12.6703C3.51664 12.7074 3.55175 12.7574 3.5731 12.8003C3.68224 13.0217 3.75105 13.2475 3.76434 13.4924C3.77667 13.7167 3.69838 13.9248 3.67228 14.1412C3.66279 14.2196 3.64665 14.2985 3.74963 14.3336C3.86683 14.3736 3.89483 14.2762 3.93944 14.2192C4.12924 13.9764 4.13162 13.7063 4.07467 13.4297ZM7.59326 12.0418C7.58947 12.0033 7.5814 11.9559 7.58045 11.908C7.5795 11.8501 7.58045 11.7903 7.49266 11.7882C7.41864 11.7866 7.4082 11.8431 7.40488 11.8906C7.36786 12.4014 7.44189 12.8813 7.93729 13.2294C8.03457 13.2975 8.16459 13.4177 8.28464 13.3016C8.4009 13.1897 8.23577 13.1005 8.16079 13.0287C7.86611 12.7475 7.67014 12.4274 7.59326 12.0418Z" fill="white"/>
<path d="M2.80376 3.32712C2.90199 3.31143 2.95324 3.36139 2.99215 3.4287C3.00638 3.68679 3.13545 3.91474 3.24412 4.14805C3.31672 4.30414 3.27734 4.34915 3.07804 4.33883L3.07329 4.33553C2.93331 4.0093 2.77719 3.68679 2.80376 3.32712Z" fill="white"/>
<path d="M2.13947 5.62028C2.15418 5.60583 2.16889 5.59138 2.1836 5.57651C2.78435 5.07107 3.49803 4.86914 4.32418 4.97774C4.58564 5.01202 4.79538 5.1231 4.93963 5.32296C5.14036 5.60129 5.35911 5.87011 5.51333 6.17321C5.59068 6.32476 5.56838 6.45195 5.4469 6.57212C5.06918 6.94666 4.59466 7.18451 4.04041 7.28899C3.68072 7.35671 3.32151 7.43765 2.94616 7.42608C2.68755 7.41824 2.4631 7.31872 2.22679 7.25223C2.10436 7.21796 2.04742 7.12587 2.03365 7.01479C1.97339 6.54404 1.98573 6.07824 2.13947 5.62028ZM3.56921 5.18669C3.20383 5.23625 2.89824 5.34072 2.63345 5.522C2.54899 5.57981 2.4593 5.65704 2.48303 5.76399C2.5096 5.88292 2.63298 5.92338 2.75066 5.93536C3.32056 5.994 3.84491 5.88704 4.30662 5.58229C4.39488 5.52407 4.48029 5.44932 4.44518 5.34031C4.41196 5.23625 4.30282 5.19536 4.19273 5.17761C3.97398 5.14168 3.75427 5.14209 3.56921 5.18669Z" fill="white"/>
<path d="M3.82835 8.00332C3.57164 8.05164 3.25181 8.09211 2.92723 8.04503C2.76542 8.02149 2.60361 7.80924 2.6373 7.67669C2.65533 7.60607 2.7156 7.62383 2.76827 7.62589C3.66749 7.66099 4.50218 7.48425 5.25951 7.05273C5.29937 7.03002 5.33164 7.0007 5.3753 7.05149C5.47685 7.16918 5.44885 7.42231 5.30839 7.51357C4.88749 7.78736 4.3992 7.91454 3.82835 8.00332Z" fill="white"/>
<path d="M3.60009 2.03045C3.70543 1.77442 3.73912 1.50064 3.86202 1.24833C3.95835 1.05053 4.09217 0.958861 4.25493 1.0175C4.44379 1.08563 4.45138 1.21778 4.41294 1.37676C4.31282 1.79012 4.2274 2.20636 4.13819 2.62178C4.12965 2.66101 4.13677 2.70272 4.13677 2.74319C4.00675 3.16811 3.99394 3.60376 3.96879 4.03901C3.9631 4.13563 4.02621 4.30164 3.9109 4.31609C3.76807 4.33385 3.81457 4.16206 3.78135 4.07576C3.52653 3.40803 3.53745 2.72089 3.60009 2.03045Z" fill="white"/>
<path d="M5.33043 10.5508C5.47763 10.5274 5.58616 10.457 5.57283 10.3935C5.5595 10.33 5.42937 10.2975 5.28216 10.3209C5.13496 10.3443 5.02643 10.4147 5.03976 10.4782C5.05308 10.5417 5.18322 10.5742 5.33043 10.5508Z" fill="white"/>
<path d="M5.73677 10.4603C5.79452 10.4511 5.83709 10.4235 5.83187 10.3986C5.82664 10.3737 5.77559 10.3609 5.71784 10.3701C5.66009 10.3793 5.61752 10.4069 5.62275 10.4318C5.62797 10.4567 5.67902 10.4695 5.73677 10.4603Z" fill="white"/>
<path d="M12.4072 23.5876L12.4082 23.5893C12.4082 23.5889 12.4082 23.5889 12.4082 23.5885C12.4077 23.5881 12.4077 23.5881 12.4072 23.5876ZM20.6668 13.2513C21.0326 12.9771 21.1745 12.6141 21.1859 12.2061C21.194 11.9319 21.1916 11.6573 21.1963 11.3827C21.2139 10.3871 21.2305 9.39148 21.2542 8.39588C21.2571 8.27323 21.2253 8.25465 21.0848 8.26539C20.1714 8.33517 19.3291 8.13572 18.5656 7.70337C18.409 7.615 18.3691 7.6596 18.3041 7.76531C17.626 8.87489 16.9441 9.98282 16.2684 11.0936C16.0715 11.4182 15.951 11.7721 16.1009 12.1264C16.202 12.3655 16.1151 12.4815 15.9068 12.6013C15.4698 12.8532 15.074 13.1447 14.7561 13.5127C14.3067 14.033 14.0994 14.6326 13.9599 15.2594C13.4759 17.434 13.0654 19.6201 12.6345 21.8029C12.5268 22.3509 12.3636 22.8918 12.3408 23.4518L12.3398 23.451C12.3489 23.4675 12.3579 23.4844 12.3664 23.5009L12.3693 23.5088C12.4015 23.5282 12.4129 23.5554 12.4082 23.5885C12.4561 23.6294 12.4931 23.676 12.5064 23.7351L12.5149 23.7446C12.5249 23.757 12.5349 23.7689 12.5448 23.7813L12.5534 23.7908C12.5662 23.804 12.5785 23.8168 12.5913 23.8296L12.5942 23.8325C12.6639 23.84 12.7038 23.8738 12.7147 23.9341L12.7161 23.9366C12.811 23.9626 12.8884 24.0055 12.9192 24.0939L12.9235 24.0968C13.0127 24.1071 13.0787 24.1563 13.1489 24.1984C13.4673 24.3888 13.8151 24.5267 14.181 24.6316C14.4031 24.6952 14.6275 24.7542 14.8505 24.8157L14.8486 24.8137C15.5353 24.9499 16.2262 25.0429 16.9332 24.9822L16.9356 24.9813C16.9631 24.9528 16.9968 24.9524 17.0329 24.9665C17.05 24.9661 17.0675 24.9652 17.0851 24.9648C17.1097 24.9305 17.1472 24.9363 17.1847 24.94L17.1871 24.9388C17.2113 24.9037 17.2488 24.9091 17.2858 24.914L17.2896 24.9124C17.3067 24.9033 17.3238 24.8942 17.3408 24.8851L17.3508 24.881C17.3646 24.8748 17.3783 24.8682 17.3921 24.862L17.4448 24.8533C17.4628 24.8426 17.4804 24.8323 17.4984 24.8219L17.5017 24.8203C17.5458 24.7753 17.599 24.7422 17.6649 24.7257L17.6706 24.722C17.729 24.6613 17.7874 24.6002 17.8457 24.5391L17.8467 24.5378C17.8614 24.4846 17.8709 24.4296 17.8913 24.3784C18.2035 23.6042 18.5158 22.8303 18.8313 22.0573C18.9988 21.6464 19.1383 21.2269 19.3448 20.8284L19.3414 20.8271C19.3633 20.754 19.3784 20.6789 19.4069 20.6078C19.9332 19.2984 20.4418 17.984 20.9396 16.6663C21.1679 16.0618 21.268 15.4514 21.1413 14.8196C21.0549 14.3877 20.8518 13.9933 20.6312 13.6039C20.5624 13.4821 20.5173 13.3636 20.6668 13.2513ZM17.5463 10.8847C17.5468 10.8793 17.5482 10.8739 17.5492 10.8686C17.6493 10.3916 18.1746 10.0757 18.7227 10.1629C19.2712 10.25 19.6342 10.7071 19.5341 11.1841C19.434 11.6614 18.9087 11.9773 18.3601 11.8902C17.8619 11.8109 17.5169 11.4261 17.533 10.9982C17.5311 10.9619 17.5359 10.9239 17.5463 10.8847ZM16.8787 11.4723C16.9712 11.4033 17.077 11.393 17.1899 11.4306C17.291 11.464 17.3181 11.547 17.357 11.6214C17.6104 12.1045 18.0422 12.3767 18.6434 12.4588C19.2437 12.541 19.787 12.4452 20.2677 12.0934C20.1576 12.3762 19.9531 12.5877 19.6613 12.726C19.0434 13.0184 18.4152 12.9878 17.7969 12.731C17.3128 12.5294 16.966 12.2115 16.8065 11.756C16.7705 11.6519 16.7747 11.5499 16.8787 11.4723ZM15.8461 13.0295C16.1408 12.7479 16.3368 12.4274 16.4136 12.0422C16.4174 12.0038 16.4255 11.9559 16.4264 11.9084C16.4269 11.8506 16.4264 11.7907 16.5142 11.7886C16.5882 11.787 16.5987 11.8435 16.602 11.891C16.639 12.4018 16.565 12.8817 16.0696 13.2298C15.9723 13.2979 15.8423 13.4181 15.7222 13.3021C15.606 13.1901 15.7711 13.101 15.8461 13.0295ZM19.6261 18.9367C19.4624 19.2422 19.3623 19.5672 19.2408 19.8856C18.8864 20.816 18.5186 21.7426 18.1717 22.6759C18.0156 23.0958 17.8187 23.5088 17.6592 23.9296C17.534 24.2595 17.2701 24.4338 16.9166 24.5358C16.7211 24.5923 16.5171 24.6142 16.3116 24.6212C15.6458 24.644 15.0109 24.504 14.3827 24.3371C13.9129 24.2124 13.4673 24.0435 13.092 23.7553C12.7266 23.4741 12.5249 23.1569 12.6426 22.7064C12.7788 22.1841 12.8723 21.653 12.9686 21.1232C12.9895 21.0092 13.129 20.913 13.1005 20.837C13.0208 20.6215 13.1257 20.4332 13.1631 20.2387C13.3017 19.5218 13.4588 18.8078 13.6139 18.0678C13.911 18.2607 14.2213 18.3895 14.5506 18.4841C15.7536 18.8297 16.994 18.8384 18.2405 18.7959C18.6624 18.7814 19.0842 18.7723 19.5061 18.8025C19.6129 18.8099 19.6774 18.84 19.6261 18.9367ZM19.8008 18.4337C19.7638 18.5184 19.6888 18.4919 19.6219 18.4886C18.7388 18.4432 17.8557 18.5035 16.9731 18.4998C16.1403 18.4965 15.3156 18.4449 14.5302 18.174C14.2161 18.0658 13.9276 17.9233 13.7136 17.6879C14.3879 17.9043 15.0745 17.875 15.7612 17.8325C16.5607 17.7825 17.3537 17.6458 18.1608 17.6896C18.7525 17.7214 19.2911 17.868 19.7291 18.2359C19.7974 18.2937 19.8383 18.3478 19.8008 18.4337ZM20.0186 15.5613C19.973 15.572 19.926 15.5786 19.88 15.5865C19.1734 15.7021 18.4678 15.6769 17.739 15.5778C16.9356 15.4192 16.1218 15.2313 15.4152 14.7986C15.0399 14.5686 14.7566 14.2886 14.7267 13.8637C14.7201 13.7707 14.7395 13.7034 14.8396 13.6597C14.944 13.6138 15.0242 13.6535 15.0944 13.7138C15.1386 13.7522 15.1723 13.8001 15.206 13.8463C15.5282 14.2853 15.951 14.628 16.499 14.8423C17.3318 15.1673 18.2277 15.2611 19.1189 15.3651C19.4074 15.3986 19.7002 15.4044 19.9915 15.42C20.0499 15.4233 20.1097 15.4229 20.1149 15.4861C20.1187 15.5365 20.0646 15.5509 20.0186 15.5613ZM20.4338 12.8007C20.3246 13.0217 20.2554 13.248 20.2421 13.4928C20.2302 13.7167 20.3085 13.9252 20.3346 14.1416C20.3441 14.22 20.3602 14.2989 20.2573 14.334C20.1401 14.3741 20.1121 14.2766 20.0679 14.2196C19.8776 13.9764 19.8753 13.7067 19.9322 13.4301C19.983 13.1695 20.0954 12.9312 20.2791 12.7198C20.317 12.6769 20.3612 12.624 20.4328 12.6707C20.4903 12.7078 20.4551 12.7574 20.4338 12.8007Z" fill="white"/>
<path d="M21.1968 3.32712C21.0986 3.31143 21.0474 3.36139 21.0084 3.4287C20.9942 3.68679 20.8651 3.91474 20.7565 4.14805C20.6839 4.30414 20.7233 4.34915 20.9226 4.33883L20.9273 4.33553C21.0673 4.0093 21.2234 3.68679 21.1968 3.32712Z" fill="white"/>
<path d="M21.8603 5.62028C21.8456 5.60583 21.8309 5.59138 21.8162 5.57651C21.2154 5.07107 20.5018 4.86914 19.6756 4.97774C19.4142 5.01202 19.2044 5.1231 19.0602 5.32296C18.8594 5.60129 18.6407 5.87011 18.4865 6.17321C18.4091 6.32476 18.4314 6.45195 18.5529 6.57212C18.9306 6.94624 19.4051 7.1841 19.9594 7.28816C20.3191 7.35588 20.6783 7.43682 21.0536 7.42526C21.3122 7.41741 21.5367 7.31789 21.773 7.25141C21.8954 7.21713 21.9524 7.12505 21.9661 7.01397C22.0264 6.54404 22.0141 6.07824 21.8603 5.62028ZM20.4311 5.18669C20.7964 5.23625 21.102 5.34072 21.3668 5.522C21.4513 5.57982 21.541 5.65704 21.5172 5.76399C21.4907 5.88292 21.3673 5.92338 21.2496 5.93536C20.6797 5.994 20.1554 5.88704 19.6936 5.58229C19.6054 5.52407 19.52 5.44932 19.5551 5.34031C19.5883 5.23625 19.6974 5.19536 19.8075 5.17761C20.0258 5.14168 20.246 5.14209 20.4311 5.18669Z" fill="white"/>
<path d="M20.1702 8.00332C20.4269 8.05164 20.7468 8.09211 21.0713 8.04503C21.2331 8.02149 21.395 7.80924 21.3613 7.67669C21.3432 7.60607 21.283 7.62383 21.2303 7.62589C20.3311 7.66099 19.4964 7.48425 18.7391 7.05273C18.6992 7.03002 18.6669 7.0007 18.6233 7.05149C18.5217 7.16918 18.5497 7.42231 18.6902 7.51357C19.1111 7.78736 19.5998 7.91454 20.1702 8.00332Z" fill="white"/>
<path d="M20.3939 2.03045C20.2885 1.77442 20.2549 1.50064 20.132 1.24833C20.0356 1.05053 19.9018 0.958861 19.739 1.0175C19.5502 1.08563 19.5426 1.21778 19.581 1.37676C19.6812 1.79012 19.7666 2.20636 19.8558 2.62178C19.8643 2.66101 19.8572 2.70272 19.8572 2.74319C19.9872 3.16811 20 3.60376 20.0252 4.03901C20.0309 4.13563 19.9678 4.30164 20.0831 4.31609C20.2259 4.33385 20.1794 4.16206 20.2126 4.07576C20.4674 3.40803 20.457 2.72089 20.3939 2.03045Z" fill="white"/>
<path d="M18.3733 10.4355C18.3681 10.4607 18.3173 10.4731 18.2594 10.464C18.202 10.455 18.1593 10.4273 18.1645 10.4025C18.1697 10.3777 18.2205 10.3649 18.2784 10.374C18.3358 10.3835 18.3785 10.4108 18.3733 10.4355Z" fill="white"/>
<path d="M18.9563 10.4812C18.9431 10.5444 18.813 10.577 18.6655 10.5535C18.5184 10.5299 18.4097 10.4597 18.423 10.3966C18.4363 10.333 18.5668 10.3008 18.7139 10.3239C18.861 10.3474 18.9696 10.4176 18.9563 10.4812Z" fill="white"/>
<path d="M18.9563 10.4812C18.9431 10.5444 18.813 10.577 18.6655 10.5535C18.5184 10.5299 18.4097 10.4597 18.423 10.3966C18.4363 10.333 18.5668 10.3008 18.7139 10.3239C18.861 10.3474 18.9696 10.4176 18.9563 10.4812Z" fill="white"/>
<path d="M18.3733 10.4355C18.3681 10.4607 18.3173 10.4731 18.2594 10.464C18.202 10.455 18.1593 10.4273 18.1645 10.4025C18.1697 10.3777 18.2205 10.3649 18.2784 10.374C18.3358 10.3835 18.3785 10.4108 18.3733 10.4355Z" fill="white"/>
<path d="M9.61885 23.6451C9.60272 23.6385 9.58659 23.6319 9.56998 23.6253C9.55574 23.6113 9.54151 23.5977 9.52727 23.5836L9.52442 23.5811C9.49453 23.5279 9.4523 23.4845 9.39346 23.454L9.38919 23.4494C9.35027 23.3776 9.31089 23.3061 9.27198 23.2343L9.2715 23.2326C9.27245 23.1781 9.2791 23.1228 9.27388 23.0687C9.19321 22.2515 9.11206 21.4342 9.02807 20.617C8.98347 20.183 8.96828 19.7461 8.88287 19.3154L8.88619 19.315C8.88619 19.2395 8.89236 19.1635 8.88524 19.0887C8.75048 17.7066 8.63422 16.3232 8.52887 14.9395C8.48047 14.3044 8.55877 13.692 8.86199 13.1072C9.06936 12.7075 9.37875 12.3697 9.70379 12.0406C9.80534 11.9378 9.88316 11.8325 9.77023 11.6913C9.49405 11.3465 9.46084 10.9641 9.56618 10.5664C9.63689 10.2988 9.71803 10.0337 9.79206 9.76654C10.0597 8.7986 10.3287 7.83066 10.5907 6.86107C10.6229 6.74173 10.659 6.73058 10.7923 6.77146C11.6569 7.03698 12.5296 7.02666 13.3932 6.77311C13.5697 6.72108 13.5958 6.77311 13.6281 6.88956C13.9674 8.11105 14.3109 9.33171 14.6474 10.554C14.7456 10.9108 14.7608 11.28 14.514 11.5905C14.3475 11.8003 14.3987 11.9316 14.5658 12.0926C14.9174 12.4308 15.2168 12.7992 15.4194 13.2245C15.7056 13.8258 15.735 14.4514 15.6908 15.0885C15.5371 17.2999 15.3093 19.5058 15.1015 21.7134C15.0493 22.2676 15.0526 22.8267 14.9145 23.3738L14.9155 23.3734C14.9022 23.3875 14.8889 23.4019 14.8751 23.416L14.8704 23.423C14.8329 23.4345 14.8144 23.4589 14.8101 23.4924L14.8116 23.4911C14.7527 23.5209 14.7029 23.5576 14.673 23.6125L14.6621 23.62C14.6488 23.6295 14.6355 23.6394 14.6227 23.6493L14.6118 23.6567C14.5961 23.6666 14.58 23.6761 14.5643 23.686L14.5605 23.6881C14.4908 23.6798 14.4424 23.7046 14.4149 23.7604L14.413 23.762C14.3138 23.767 14.2265 23.7917 14.171 23.8702L14.1662 23.8723C14.077 23.8628 13.9992 23.8962 13.9185 23.9218C13.556 24.0374 13.1792 24.0953 12.7953 24.1176C12.5618 24.1312 12.3279 24.1399 12.094 24.1506L12.0963 24.1494C11.3926 24.1324 10.697 24.073 10.0293 23.8607L10.0274 23.8595C10.0089 23.826 9.97664 23.8182 9.93773 23.824C9.92113 23.8194 9.90452 23.8153 9.88791 23.8107C9.87367 23.7723 9.83571 23.7699 9.7987 23.7653L9.79633 23.7637C9.78304 23.7244 9.74555 23.7215 9.70806 23.7182L9.70474 23.7158C9.69098 23.7034 9.67675 23.691 9.66298 23.6786L9.65444 23.672C9.64211 23.6637 9.63072 23.6542 9.61885 23.6451ZM11.6935 9.47954L11.6821 9.4845L11.6816 9.49523L11.6664 9.49854L11.6702 9.51051C11.6565 9.53033 11.6432 9.54974 11.6294 9.56956C11.6028 9.58525 11.581 9.60301 11.5877 9.63481C11.5815 9.65009 11.5753 9.66536 11.5691 9.68023C11.5336 9.69634 11.5245 9.72276 11.5312 9.75497C11.5184 9.83632 11.4975 9.91767 11.4946 9.99902C11.4818 10.4297 11.8453 10.7956 12.3398 10.8542C12.8461 10.9141 13.2845 10.6341 13.4478 10.1927C13.5621 9.8834 13.2062 9.32056 12.8413 9.21608C12.7137 9.1434 12.5742 9.12854 12.4266 9.15166C12.392 9.15373 12.3569 9.15579 12.3222 9.15786C12.2861 9.14753 12.2553 9.15455 12.2306 9.18016C12.214 9.18305 12.1969 9.18594 12.1803 9.18842C12.1528 9.19791 12.1248 9.207 12.0973 9.2165C11.9431 9.25283 11.8292 9.33873 11.7314 9.44403C11.7191 9.456 11.7063 9.46756 11.6935 9.47954ZM15.2225 17.8842C14.8794 18.0064 14.542 18.0642 14.1966 18.0845C12.9324 18.1584 11.7286 17.8978 10.5333 17.5864C10.129 17.4811 9.72277 17.3808 9.30567 17.3184C9.20033 17.3028 9.12867 17.318 9.15097 17.4225C9.22168 17.7541 9.22595 18.0902 9.25252 18.4247C9.32939 19.403 9.4205 20.38 9.48931 21.3591C9.52015 21.7997 9.59276 22.242 9.62692 22.6846C9.65349 23.0311 9.85944 23.257 10.1726 23.4329C10.3458 23.5303 10.5371 23.5952 10.7345 23.6468C11.3727 23.8128 12.028 23.8149 12.6838 23.7897C13.1745 23.7707 13.6547 23.7038 14.1002 23.506C14.5349 23.3131 14.821 23.0493 14.8358 22.5876C14.8533 22.052 14.9145 21.5177 14.9729 20.9837C14.9852 20.8685 14.878 20.745 14.9269 20.6777C15.0664 20.4861 15.0185 20.2813 15.0374 20.0843C15.1091 19.36 15.1608 18.6345 15.2225 17.8842ZM15.2348 17.4948C14.5197 17.558 13.863 17.3812 13.2105 17.1908C12.4503 16.9691 11.7215 16.6652 10.9271 16.5322C10.3449 16.4347 9.78162 16.4603 9.25205 16.7217C9.16948 16.7626 9.11444 16.8064 9.12582 16.8977C9.13721 16.9877 9.21741 16.9786 9.28337 16.9897C10.1517 17.1372 10.9893 17.3866 11.8458 17.5745C12.653 17.7516 13.4668 17.8805 14.3048 17.7884C14.6398 17.7512 14.9601 17.6761 15.2348 17.4948ZM11.9397 14.5786C12.763 14.5988 13.6048 14.5934 14.4134 14.3275C14.8429 14.1863 15.1973 13.9761 15.3478 13.5714C15.3805 13.483 15.381 13.4137 15.297 13.3492C15.2087 13.2819 15.1195 13.3034 15.0346 13.3468C14.981 13.374 14.9345 13.4132 14.8884 13.4504C14.4504 13.8059 13.9427 14.0463 13.351 14.1347C12.4518 14.2689 11.5568 14.1656 10.6642 14.0735C10.3752 14.0438 10.0901 13.9856 9.80392 13.9377C9.7465 13.9282 9.68813 13.9146 9.66536 13.9748C9.64733 14.0227 9.69525 14.0483 9.73701 14.0686C9.77829 14.0888 9.82148 14.1053 9.86418 14.1231C10.5152 14.3882 11.2057 14.5166 11.9397 14.5786ZM10.4877 10.656C10.5133 10.9537 10.6509 11.2032 10.8939 11.3997C11.4088 11.8168 12.0256 11.9238 12.6985 11.8085C13.2248 11.7185 13.6514 11.4856 13.9365 11.0789C14.0015 10.986 14.0267 10.8864 13.9479 10.7886C13.8782 10.7019 13.7785 10.6688 13.6585 10.6808C13.5512 10.6915 13.5009 10.7659 13.4421 10.829C13.0582 11.242 12.5623 11.4125 11.9568 11.3617C11.3513 11.3114 10.8526 11.1008 10.4877 10.656ZM10.4303 12.0233C10.4559 11.7598 10.4151 11.5046 10.2974 11.2606C10.2732 11.2106 10.2457 11.1499 10.1627 11.1796C10.0962 11.2032 10.1162 11.2589 10.1247 11.3056C10.1674 11.5434 10.1693 11.7776 10.1119 12.0171C10.0597 12.2368 9.92445 12.4213 9.83666 12.6253C9.80487 12.6993 9.76643 12.7724 9.85659 12.8285C9.95861 12.8925 10.0137 12.8041 10.073 12.7591C10.3268 12.5642 10.4066 12.3032 10.4303 12.0233ZM14.235 11.4414C14.2421 11.4034 14.2483 11.3555 14.2611 11.3089C14.2768 11.2527 14.2943 11.1949 14.2103 11.1738C14.1392 11.1561 14.1126 11.2089 14.096 11.254C13.9142 11.7404 13.8483 12.2215 14.2284 12.6658C14.3029 12.7529 14.3945 12.8975 14.5444 12.8112C14.6887 12.7282 14.5548 12.6059 14.5026 12.52C14.2977 12.1839 14.1994 11.8313 14.235 11.4414Z" fill="white"/>
<path d="M12.0979 1.96875C12.1975 1.97494 12.2326 2.03441 12.2511 2.10791C12.1909 2.36105 12.2507 2.60964 12.2891 2.85906C12.3147 3.0263 12.2635 3.06098 12.0737 3.00772L12.0704 3.00359C12.0281 2.65754 11.9693 2.31149 12.0979 1.96875Z" fill="white"/>
<path d="M10.7968 4.04643C10.8153 4.03569 10.8333 4.02454 10.8518 4.0138C11.5783 3.65454 12.3271 3.61366 13.0963 3.89777C13.3397 3.98779 13.511 4.14058 13.5936 4.36563C13.7085 4.67906 13.8432 4.98629 13.9059 5.31334C13.9372 5.47686 13.8798 5.59538 13.7274 5.6854C13.2543 5.96579 12.7271 6.09339 12.1601 6.07439C11.7923 6.062 11.4217 6.06283 11.0606 5.97033C10.812 5.90674 10.6236 5.76179 10.4134 5.64576C10.3047 5.58588 10.2758 5.48471 10.2943 5.37363C10.3711 4.90494 10.5168 4.45648 10.7968 4.04643ZM12.3053 3.93576C11.9375 3.90479 11.6115 3.93947 11.3031 4.05758C11.2049 4.09515 11.0957 4.1509 11.0886 4.25909C11.0805 4.38009 11.1883 4.44574 11.2988 4.48291C11.8341 4.66295 12.3722 4.67286 12.9065 4.47795C13.0085 4.44079 13.1129 4.38669 13.1101 4.27355C13.1077 4.16535 13.0137 4.10217 12.9122 4.06129C12.7101 3.98036 12.497 3.93287 12.3053 3.93576Z" fill="white"/>
<path d="M11.7522 6.71978C11.4898 6.7107 11.1685 6.68096 10.8672 6.56493C10.7173 6.50711 10.6209 6.26637 10.6916 6.14496C10.7291 6.08054 10.7823 6.11069 10.833 6.12432C11.6938 6.35309 12.5532 6.36258 13.4102 6.10904C13.4557 6.09541 13.4946 6.07394 13.5226 6.13299C13.5872 6.26885 13.4875 6.50794 13.3257 6.56575C12.8398 6.74001 12.3302 6.75736 11.7522 6.71978Z" fill="white"/>
<path d="M13.2415 0.882179C13.4166 0.656712 13.5282 0.399035 13.7189 0.181414C13.8684 0.0108682 14.0245 -0.0490086 14.1654 0.0430777C14.3287 0.15003 14.2983 0.279694 14.2157 0.425463C14.0003 0.804132 13.7986 1.18858 13.5936 1.57179C13.5742 1.60772 13.5694 1.64984 13.5576 1.68907C13.3099 2.07228 13.1732 2.49142 13.0242 2.90767C12.991 3.00016 13.0048 3.17443 12.889 3.16369C12.7452 3.15006 12.8396 2.99397 12.8325 2.90271C12.776 2.20029 12.9829 1.53669 13.2415 0.882179Z" fill="white"/>
<path d="M12.761 9.41301C12.7663 9.34862 12.6496 9.28894 12.5003 9.27969C12.351 9.27045 12.2257 9.31514 12.2205 9.37952C12.2152 9.4439 12.3319 9.50359 12.4812 9.51283C12.6305 9.52208 12.7558 9.47739 12.761 9.41301Z" fill="white"/>
<path d="M13.0049 9.47132C13.0069 9.44607 12.9611 9.42266 12.9026 9.41903C12.844 9.4154 12.7949 9.43293 12.7928 9.45818C12.7907 9.48344 12.8365 9.50685 12.8951 9.51047C12.9536 9.5141 13.0028 9.49657 13.0049 9.47132Z" fill="white"/>
</g>
<defs>
<clipPath id="clip0_374_74">
<rect width="25" height="25" fill="white"/>
</clipPath>
</defs>
</svg>
