<svg width="25" height="25" viewBox="0 0 25 25" fill="none" xmlns="http://www.w3.org/2000/svg">
<path d="M17.1854 17.0524C17.3514 17.2099 17.5084 17.3531 17.6553 17.5062C17.6789 17.5306 17.6744 17.616 17.6497 17.6482C17.3637 18.0298 17.0923 18.4259 16.776 18.7821C15.5322 20.1833 14.0012 21.1519 12.1797 21.6379C9.46888 22.3612 6.90046 22.0029 4.50588 20.545C4.0651 20.2765 3.64338 19.9626 3.25644 19.6219C1.17142 17.7824 0.0812383 15.4692 0.00384916 12.7077C-0.0522299 10.7084 0.505196 8.87445 1.6279 7.20913C1.96998 6.7021 2.34908 6.22281 2.78986 5.79677C4.29951 4.33559 6.08843 3.40585 8.18916 3.10629C10.522 2.77345 12.6957 3.22279 14.7022 4.44765C15.1654 4.73056 15.6084 5.04122 15.9987 5.41844C16.3475 5.75683 16.6784 6.11408 17.0194 6.46023C17.0766 6.51904 17.0721 6.5612 17.0182 6.61556C16.8994 6.73538 16.7816 6.85521 16.6661 6.97836C16.5999 7.04937 16.5573 7.03827 16.4978 6.96505C15.503 5.74684 14.267 4.84706 12.7865 4.3012C10.3045 3.3881 7.86502 3.53122 5.50184 4.7117C4.48906 5.21762 3.60301 5.90217 2.87622 6.76534C1.04804 8.93769 0.380701 11.424 0.893264 14.2055C1.15908 15.6478 1.78492 16.9392 2.72929 18.0665C4.10547 19.7107 5.85963 20.7447 7.98727 21.1264C10.2125 21.5247 12.2998 21.133 14.2367 19.9781C15.0286 19.5054 15.7284 18.9196 16.324 18.2196C16.6212 17.8701 16.8724 17.4829 17.1439 17.1134C17.1528 17.1001 17.1618 17.0857 17.1854 17.0524Z" fill="white"/>
<path d="M8.64922 17.6956C7.41772 16.9645 6.29166 16.2256 5.09941 15.6165C4.36029 15.2381 4.1214 14.7755 4.16514 13.9722C4.23916 12.6397 4.18533 11.2995 4.18533 9.9082C4.33786 9.97921 4.46123 10.0258 4.57339 10.0924C5.82508 10.8324 7.07228 11.5791 8.32733 12.3135C8.56398 12.4522 8.66156 12.6076 8.65819 12.8949C8.64025 14.4615 8.64922 16.0292 8.64922 17.6956Z" fill="white"/>
<path d="M13.9034 10.2969C13.9034 12.0254 13.9067 13.653 13.8955 15.2806C13.8944 15.3749 13.8069 15.5125 13.7206 15.5569C12.3657 16.257 11.0052 16.946 9.58641 17.6671C9.58641 15.9585 9.58305 14.3198 9.59426 12.6811C9.59538 12.5857 9.68399 12.447 9.77147 12.4027C11.1129 11.7092 12.461 11.0291 13.9034 10.2969Z" fill="white"/>
<path d="M13.4299 9.6065C12.8142 9.91826 12.2534 10.2023 11.6926 10.4874C10.9198 10.8802 10.1515 11.2796 9.37204 11.6579C9.24306 11.7212 9.02435 11.7544 8.91668 11.689C7.54162 10.8569 6.18002 10.0048 4.75 9.11722C5.23677 8.86759 5.66745 8.6457 6.09926 8.42491C6.93821 7.99443 7.77491 7.5573 8.6217 7.14236C8.76638 7.07135 9.00416 7.02808 9.12529 7.09798C10.5475 7.90789 11.955 8.74222 13.4299 9.6065Z" fill="white"/>
<path d="M14.9222 15.0487C15.0166 14.9174 15.0936 14.7684 15.2088 14.6574C16.0319 13.8632 16.8622 13.0759 17.6913 12.2877C17.9742 12.0185 18.2736 12.0227 18.5578 12.2916C19.1438 12.8461 19.7318 13.3993 20.3191 13.9525C20.3388 13.9712 20.3606 13.9873 20.3529 13.9811C21.2734 13.0979 22.1875 12.221 23.126 11.3208C23.045 11.3162 22.9981 11.3113 22.9512 11.3113C22.5216 11.3103 22.092 11.3139 21.6624 11.308C21.3517 11.3037 21.1277 11.0703 21.1334 10.7706C21.1388 10.4774 21.3624 10.2545 21.6668 10.2535C22.5986 10.2499 23.5301 10.2492 24.462 10.2509C24.756 10.2515 24.9087 10.4324 25.0004 10.6813C25.0004 11.6993 25.0004 12.7171 25.0004 13.7352C24.8484 14.0674 24.6234 14.2115 24.3401 14.158C24.0468 14.1025 23.8961 13.8796 23.8961 13.5001C23.8961 13.0789 23.8965 12.6577 23.8955 12.2368C23.8955 12.1977 23.8871 12.159 23.8777 12.0769C23.7994 12.1646 23.7508 12.2246 23.6959 12.2788C22.758 13.2076 21.8195 14.1357 20.8809 15.0635C20.5481 15.3928 20.2722 15.3974 19.9313 15.0766C19.5007 14.6715 19.0725 14.2641 18.6426 13.8583C18.4711 13.6964 18.298 13.5365 18.1232 13.374C17.3796 14.0809 16.6469 14.7775 15.9133 15.4732C15.8618 15.5221 15.8078 15.5727 15.7462 15.6068C15.4121 15.793 15.0977 15.6535 14.9219 15.2457C14.9222 15.1801 14.9222 15.1144 14.9222 15.0487Z" fill="white"/>
</svg>
