<svg width="25" height="25" viewBox="0 0 25 25" fill="none" xmlns="http://www.w3.org/2000/svg">
<g clip-path="url(#clip0_899_337)">
<path d="M0.0038619 8.06055C2.08929 9.01867 4.08203 9.93429 6.07477 10.8499C7.26423 11.3966 8.45176 11.9452 9.6393 12.4977C9.91542 12.6271 10.2514 12.685 10.2495 13.1197C10.2418 17.0236 10.2456 20.9256 10.2456 24.9977C8.46528 24.1612 6.8568 23.4021 5.24832 22.6487C3.77307 21.9591 2.29976 21.2656 0.818722 20.5895C0.301228 20.3558 0 20.0177 0 19.4228C0.00579285 15.6772 0.0038619 11.9317 0.0038619 8.06055Z" fill="white"/>
<path d="M11.1659 24.974C11.1659 20.985 11.1736 17.1661 11.1563 13.3452C11.1543 12.9163 11.3281 12.6981 11.6796 12.5397C12.9887 11.9466 14.2999 11.3555 15.6032 10.749C15.9103 10.606 16.1536 10.5481 16.4857 10.749C17.8605 11.5796 19.3628 11.8037 20.9249 11.4772C21.3343 11.3922 21.4154 11.456 21.4135 11.8462C21.4019 14.4153 21.4038 16.9864 21.4077 19.5556C21.4077 19.9902 21.232 20.2858 20.84 20.4693C17.6578 21.947 14.4794 23.4306 11.1659 24.974Z" fill="white"/>
<path d="M25.0002 5.3335C25.0311 8.20593 22.6386 10.6515 19.7151 10.7307C16.8303 10.8079 14.3085 8.33342 14.2776 5.39532C14.2486 2.47459 16.7338 -0.0172948 19.6572 9.04258e-05C22.5556 0.0174757 24.9673 2.42437 25.0002 5.3335ZM19.4197 6.92522C18.9582 6.39014 18.6319 5.99994 18.2901 5.62132C18.0835 5.39145 17.8247 5.2176 17.5544 5.49963C17.3034 5.76234 17.4347 6.03664 17.6548 6.25878C18.1511 6.76296 18.6628 7.24974 19.1532 7.75778C19.6225 8.24263 19.9353 8.07071 20.1535 7.5337C20.6826 6.22981 21.2097 4.92398 21.7195 3.61236C21.8431 3.29556 22.0188 2.87252 21.538 2.72185C21.0668 2.57504 20.9703 3.03478 20.8428 3.34772C20.3968 4.44106 19.97 5.53826 19.4197 6.92522Z" fill="white"/>
<path d="M0.675781 7.19083C3.28256 5.99897 5.88162 4.80905 8.48068 3.62105C8.59653 3.56697 8.72977 3.53606 8.82825 3.45879C10.3363 2.28625 11.7382 2.94882 13.142 3.69446C13.3949 3.82968 13.4896 3.97069 13.4954 4.27976C13.5552 7.53274 13.5629 7.53274 15.2332 9.91258C13.8429 10.5578 12.4642 11.1952 11.0855 11.8385C10.8384 11.9544 10.6144 11.966 10.3556 11.8462C7.17149 10.3646 3.9835 8.89265 0.799362 7.41297C0.75495 7.39172 0.739503 7.30866 0.675781 7.19083Z" fill="white"/>
</g>
<defs>
<clipPath id="clip0_899_337">
<rect width="25" height="25" fill="white"/>
</clipPath>
</defs>
</svg>
