<svg width="25" height="25" viewBox="0 0 25 25" fill="none" xmlns="http://www.w3.org/2000/svg">
<path d="M20.8456 2.00002C23.1447 2.00609 25.0113 3.57687 25.0013 5.49736C24.9912 7.44717 23.1215 9.00527 20.7975 8.99999C18.5211 8.99497 16.6576 7.40491 16.668 5.47676C16.6784 3.54782 18.5459 1.99394 20.8456 2.00002Z" fill="white"/>
<path d="M1.89631 13C1.26017 13 0.640417 13 0.01399 13C0.00852692 12.9634 -0.000578129 12.9326 2.88745e-05 12.9019C0.018239 11.9357 -0.00027463 10.9674 0.0667992 10.0043C0.138729 8.97143 0.428877 7.9825 1.05621 7.0953C1.65411 6.25016 2.48419 5.67583 3.51761 5.32667C4.42721 5.0193 5.36655 4.82162 6.32804 4.72787C7.1563 4.64704 7.99001 4.61185 8.82131 4.55631C8.8559 4.55411 8.89081 4.55191 8.94544 4.54861C8.94544 3.71007 8.94544 2.87593 8.94544 2C10.4936 3.0923 12.0066 4.15986 13.5417 5.24281C12.0147 6.43327 10.4982 7.61547 8.95302 8.82022C8.95302 7.95611 8.95302 7.12967 8.95302 6.29663C8.91812 6.29003 8.89506 6.28123 8.87199 6.28178C7.45312 6.31202 6.04669 6.43382 4.67669 6.79068C4.08577 6.94464 3.51701 7.14726 3.07329 7.55911C2.53609 8.05784 2.24685 8.66873 2.08782 9.33902C1.89631 10.1468 1.88963 10.9663 1.89418 11.7867C1.89631 12.1485 1.90147 12.5106 1.9045 12.8724C1.90541 12.9082 1.90025 12.9439 1.89631 13Z" fill="white"/>
<path d="M13.9677 16.1724C13.9677 17.0446 13.9677 17.8753 13.9677 18.7074C14.1462 18.7074 14.3068 18.7126 14.467 18.7066C15.6664 18.6606 16.8563 18.5462 18.0195 18.2643C18.3115 18.1936 18.5993 18.1031 18.881 18.0032C19.8302 17.6666 20.3711 16.9968 20.6813 16.1501C20.9408 15.4421 21.0052 14.7069 21.0155 13.9675C21.024 13.3671 21.0149 12.7666 21.0134 12.1661C21.0134 12.1164 21.0134 12.0666 21.0134 12C21.6469 12 22.2704 12 22.9015 12C22.9063 12.0228 22.9173 12.049 22.9166 12.0751C22.899 13.037 22.9148 14.0008 22.8529 14.9605C22.7895 15.9422 22.5235 16.8859 21.9656 17.7469C21.3145 18.7514 20.351 19.3893 19.1447 19.7548C18.2344 20.0307 17.3013 20.2111 16.349 20.297C15.5899 20.3652 14.8267 20.3943 14.0651 20.4411C14.0406 20.4425 14.016 20.4452 13.972 20.4488C13.972 21.2872 13.972 22.122 13.972 23C12.4235 21.9069 10.9107 20.8388 9.375 19.7551C10.9012 18.5641 12.4178 17.3813 13.9677 16.1724Z" fill="white"/>
<path d="M3.12043 17C4.28661 16.9969 5.20787 17.8848 5.20963 19.0138C5.21139 20.0949 4.26226 21.0006 3.12777 21C1.98037 20.9994 1.04238 20.093 1.04297 18.9854C1.04385 17.8947 1.97685 17.0028 3.12043 17Z" fill="white"/>
</svg>
