<svg width="25" height="25" viewBox="0 0 25 25" fill="none" xmlns="http://www.w3.org/2000/svg">
<path d="M21.7152 14.5732C21.7167 16.5405 21.7197 18.5093 21.7152 20.4766C21.7137 21.3994 21.4876 21.6305 20.5756 21.638C19.6261 21.647 18.6749 21.632 17.7254 21.641C17.0441 21.6485 16.7109 21.3454 16.7125 20.6521C16.7185 16.5915 16.717 12.5309 16.7109 8.47026C16.7094 7.825 17.0109 7.49337 17.6605 7.49187C18.6855 7.48887 19.7105 7.48737 20.7354 7.48887C21.4212 7.49037 21.7212 7.84151 21.7182 8.51978C21.7076 10.5381 21.7152 12.5549 21.7152 14.5732Z" fill="white"/>
<path d="M15.0386 16.2612C15.0386 17.6808 15.0461 19.1004 15.0356 20.5199C15.0295 21.3843 14.7733 21.6334 13.9171 21.6409C12.9419 21.6484 11.9667 21.6334 10.9915 21.6439C10.3343 21.6514 10.0072 21.3182 10.0057 20.691C9.99666 17.7273 9.99968 14.7636 10.0057 11.7999C10.0072 11.1247 10.3644 10.8095 11.0457 10.8185C11.9953 10.8321 12.9464 10.8155 13.896 10.823C14.7642 10.8306 15.025 11.0706 15.034 11.9275C15.0491 13.3711 15.0386 14.8161 15.0386 16.2612Z" fill="white"/>
<path d="M17.3644 3.23988C17.075 2.93526 16.9092 2.7822 16.7675 2.60963C16.3259 2.07241 16.4389 1.45867 17.0885 1.22007C18.2597 0.7894 19.446 0.387239 20.6458 0.0436014C21.3497 -0.157479 21.8727 0.363229 21.6692 1.06551C21.3135 2.284 20.8975 3.48748 20.4543 4.67745C20.2493 5.22667 19.6268 5.33172 19.1415 4.96107C18.9455 4.81101 18.7767 4.62343 18.5325 4.39384C18.0788 4.83052 17.6312 5.25068 17.1956 5.68286C16.2369 6.63274 15.2708 7.57361 14.3377 8.5475C13.9082 8.99618 13.4394 9.20326 12.8124 9.17625C11.9381 9.13874 11.0594 9.19126 10.1851 9.15675C9.74048 9.14024 9.44958 9.27529 9.17676 9.62943C8.35528 10.6979 7.52325 11.7603 6.63395 12.7717C6.38977 13.0493 5.93456 13.2789 5.56678 13.2924C4.06702 13.3524 2.56425 13.3224 1.06148 13.3224C0.470618 13.3224 -0.0147311 13.1378 0.000341865 12.4506C0.0154148 11.8083 0.485691 11.6417 1.0449 11.6417C2.19647 11.6417 3.34955 11.6087 4.49811 11.6567C5.15981 11.6838 5.60296 11.4932 6.00088 10.944C6.73343 9.93556 7.52325 8.96467 8.35227 8.0328C8.59946 7.75519 9.04261 7.55711 9.41943 7.50909C10.0841 7.42505 10.779 7.40555 11.4422 7.50008C12.6104 7.66815 13.4047 7.19096 14.1644 6.35963C15.1577 5.2807 16.2626 4.30531 17.3644 3.23988Z" fill="white"/>
<path d="M12.4645 24.9785C8.78519 24.9785 5.10588 24.9785 1.42657 24.977C1.17636 24.977 0.870383 25.0506 0.691015 24.935C0.410658 24.7549 0.0458924 24.4488 0.0353414 24.1832C0.0262976 23.9116 0.350366 23.5485 0.623187 23.3729C0.843252 23.2318 1.205 23.2994 1.50345 23.2994C8.88618 23.2979 16.2704 23.2994 23.6532 23.3024C23.9019 23.3024 24.2259 23.2363 24.3842 23.3624C24.66 23.583 24.9931 23.9251 25.0022 24.2252C25.0097 24.4638 24.5982 24.7624 24.3149 24.944C24.1536 25.0476 23.8762 24.9755 23.6516 24.9755C19.9241 24.9785 16.1951 24.9785 12.4645 24.9785Z" fill="white"/>
<path d="M3.33416 18.2844C3.33416 17.4861 3.33567 16.6878 3.33416 15.8894C3.33265 15.3042 3.64617 15.0056 4.2099 14.9966C5.28611 14.9801 6.36232 14.9861 7.43852 14.9966C8.00678 15.0026 8.32481 15.2907 8.32632 15.8744C8.32934 17.4951 8.32934 19.1172 8.32632 20.7379C8.32481 21.3606 7.98266 21.6367 7.37823 21.6352C6.35176 21.6337 5.3253 21.6322 4.29883 21.6367C3.64918 21.6397 3.32662 21.3246 3.32813 20.6779C3.32813 19.8795 3.32813 19.0812 3.32813 18.2829C3.32964 18.2844 3.33114 18.2844 3.33416 18.2844Z" fill="white"/>
</svg>
