<svg width="25" height="25" viewBox="0 0 25 25" fill="none" xmlns="http://www.w3.org/2000/svg">
<g clip-path="url(#clip0_758_455)">
<path d="M0 10.2292C0.173333 10.2807 0.277778 10.0866 0.454444 10.114C0.616667 10.1392 0.786667 10.1195 0.953333 10.1195C3.09889 10.1195 5.24333 10.1195 7.38889 10.1195C7.5 10.1195 7.61111 10.1206 7.72222 10.1195C7.9 10.1173 7.98555 10.2237 7.99889 10.3783C8.06555 11.1515 7.85444 11.849 7.43222 12.5016C7.28333 12.7308 7.06 12.8942 6.92667 13.1168C6.78444 13.3537 6.55889 13.4952 6.36222 13.6301C5.89889 13.947 5.39333 14.2168 4.81222 14.2881C4.55 14.3199 4.30111 14.4099 4.02556 14.4033C2.72111 14.3715 1.66889 13.8341 0.846667 12.8624C0.515556 12.4719 0.31 11.9938 0.142222 11.5112C0.0911111 11.3643 0.12 11.191 0.113333 11.0298C0.11 10.9552 0.112222 10.8795 0.00222222 10.8883C0 10.6678 0 10.4485 0 10.2292Z" fill="white"/>
<path d="M25.0011 10.8861C24.8911 10.8773 24.8856 10.953 24.8911 11.0276C24.9322 11.6132 24.6467 12.0947 24.3534 12.5586C23.9 13.2748 23.2611 13.7891 22.4634 14.1017C22.2556 14.1829 22.0522 14.3123 21.82 14.2805C21.6111 14.252 21.4622 14.4 21.2556 14.4066C20.3478 14.4362 19.5322 14.1609 18.7611 13.731C18.5911 13.6367 18.4845 13.4086 18.3111 13.3494C18.1078 13.2792 18.0989 13.096 17.9745 12.9874C17.6667 12.7209 17.4756 12.3689 17.3011 12.0059C17.0522 11.486 16.9556 10.9442 17.0045 10.3761C17.0178 10.2215 17.1034 10.1151 17.2811 10.1173C17.3734 10.1184 17.4656 10.1173 17.5589 10.1173C19.8145 10.1173 22.0711 10.125 24.3267 10.1075C24.5711 10.1053 24.7711 10.2248 25.0022 10.227C25.0011 10.4474 25.0011 10.6668 25.0011 10.8861Z" fill="white"/>
<path d="M9.27505 2.66081C9.68505 2.26818 10.0417 1.84046 10.6006 1.66718C10.6862 1.64086 10.7739 1.55422 10.7806 1.42042C10.7995 0.989405 11.0173 0.628584 11.3595 0.40595C11.7684 0.140544 12.2539 -0.100735 12.7495 0.0429358C13.5495 0.274344 14.0295 0.421304 14.2173 1.43029C14.2406 1.55531 14.3139 1.63866 14.4062 1.66937C14.9606 1.85033 15.3195 2.27367 15.7217 2.6619C17.6017 2.6619 19.4895 2.6619 21.3773 2.66081C21.5562 2.66081 21.7239 2.6641 21.8906 2.76609C22.1073 2.8977 22.2228 3.04247 22.2295 3.31555C22.2439 3.90558 22.235 3.99771 21.4584 4.23679C21.7862 4.738 22.1173 5.2381 22.4417 5.74149C22.8517 6.37759 23.2595 7.01479 23.665 7.65418C23.9039 8.03035 24.1495 8.40433 24.3684 8.79257C24.5206 9.06236 24.4728 9.2828 24.2762 9.46157C24.0962 9.62498 23.7528 9.63376 23.6006 9.44622C23.4173 9.2181 23.265 8.96476 23.1095 8.7169C22.6617 8.00513 22.2284 7.28348 21.7706 6.57829C21.5739 6.2756 21.3328 6.00251 21.1928 5.66253C21.1506 5.55944 21.0273 5.48925 20.9439 5.40809C20.6284 5.90491 20.325 6.38417 20.0206 6.86234C19.6795 7.39864 19.3339 7.93384 18.9984 8.47343C18.7995 8.79367 18.5573 9.0843 18.4017 9.43525C18.3062 9.6513 17.7184 9.63376 17.5806 9.43525C17.4328 9.22139 17.365 8.99217 17.5539 8.77173C17.895 8.37472 18.1228 7.90752 18.3962 7.46993C18.7417 6.91608 19.1084 6.3754 19.4573 5.82485C19.7717 5.33132 20.0273 4.79064 20.4373 4.35634C20.455 4.3366 20.4395 4.28615 20.4395 4.22473C18.1506 4.22473 15.8662 4.22473 13.565 4.22473C13.565 9.20932 13.565 14.1928 13.565 19.2246C14.0884 19.2246 14.6195 19.2268 15.1506 19.2235C16.0939 19.218 16.5184 19.6567 16.8739 20.3663C16.8139 20.5724 17.0673 20.7117 16.9939 20.9201C16.5339 21.0056 9.72171 21.0353 8.0306 20.9596C8.00282 20.3652 8.55505 19.4055 9.21616 19.3145C9.39949 19.2893 9.58949 19.2257 9.78394 19.2246C10.3195 19.2224 10.8562 19.2235 11.415 19.2235C11.415 14.218 11.415 9.22139 11.415 4.22473C9.12394 4.22473 6.83838 4.22473 4.51727 4.22473C4.81616 4.71058 5.09394 5.16133 5.37171 5.61318C5.72171 6.18347 6.1006 6.73732 6.45838 7.30322C6.75282 7.76823 7.02727 8.25189 7.36394 8.69496C7.47616 8.84302 7.69505 9.03385 7.4606 9.29706C7.37394 9.39357 7.37282 9.57124 7.1906 9.57124C7.01505 9.57015 6.84171 9.61072 6.68616 9.44402C6.40838 9.14571 6.21282 8.79696 5.99616 8.46246C5.59394 7.84171 5.20394 7.21439 4.80616 6.59145C4.55616 6.19992 4.30282 5.81168 4.04949 5.41906C3.73949 5.62963 3.65838 6.008 3.44394 6.29534C2.81505 7.13981 2.3506 8.09286 1.70838 8.92966C1.60616 9.06236 1.55171 9.23126 1.46838 9.37822C1.30838 9.66008 0.793936 9.6513 0.630602 9.37712C0.510602 9.17642 0.507269 8.97901 0.62838 8.7827C0.927269 8.30124 1.22949 7.82197 1.53171 7.34271C1.8706 6.80531 2.20727 6.26573 2.55282 5.73162C2.87171 5.2381 3.19949 4.75116 3.53282 4.24886C3.46727 4.11396 3.29727 4.18744 3.1806 4.13261C2.8706 3.98674 2.73505 3.79591 2.77505 3.47019C2.79838 3.28265 2.71171 3.08195 2.89838 2.91525C3.11171 2.72442 3.34282 2.65642 3.62616 2.65752C5.32949 2.66519 7.03282 2.6619 8.73727 2.6619C8.92282 2.66081 9.10616 2.66081 9.27505 2.66081Z" fill="white"/>
</g>
<defs>
<clipPath id="clip0_758_455">
<rect width="25" height="25" fill="white"/>
</clipPath>
</defs>
</svg>
