<svg width="25" height="25" viewBox="0 0 25 25" fill="none" xmlns="http://www.w3.org/2000/svg">
<g clip-path="url(#clip0_759_473)">
<path d="M25.0012 17.4363C24.4024 17.6275 23.8924 17.9943 23.3479 18.291C20.9557 19.5959 18.5668 20.9086 16.1868 22.2368C15.889 22.4035 15.6446 22.438 15.3135 22.3413C13.3535 21.7689 11.3812 21.2354 9.42124 20.6641C8.88679 20.5085 8.36791 20.5274 7.83346 20.5952C7.06457 20.6919 6.29235 20.7741 5.52457 20.8786C5.23013 20.9186 5.14235 20.8286 5.14457 20.5262C5.15679 18.0621 5.15679 15.599 5.14457 13.1349C5.14346 12.8392 5.25235 12.7758 5.52013 12.7358C7.10791 12.5002 8.70679 12.309 10.2724 11.9689C11.5846 11.6844 12.7401 12.1912 13.9457 12.4557C15.2568 12.7425 16.5501 13.1126 17.8557 13.4238C18.1423 13.4928 18.2557 13.6017 18.2412 13.9029C18.2179 14.3997 18.2346 14.8988 18.2346 15.4334C16.7479 15.0666 15.3035 14.7132 13.8612 14.3508C13.5079 14.2619 13.229 14.2308 13.2146 14.7321C13.2057 15.0544 12.8812 15.419 13.0824 15.6657C13.2412 15.8602 13.6546 15.8513 13.9568 15.9247C15.2968 16.2526 16.6401 16.5705 17.9768 16.9117C18.1879 16.965 18.3624 16.9506 18.5646 16.895C20.3901 16.3893 22.2224 15.9091 24.0424 15.3856C24.4057 15.2811 24.479 15.3912 24.5624 15.6957C24.7012 16.2037 24.7546 16.7361 25.0001 17.2129C25.0012 17.2885 25.0012 17.363 25.0012 17.4363Z" fill="white"/>
<path d="M0 12.8789C1.09 12.8856 2.18 12.9045 3.27 12.8934C3.58 12.89 3.67444 12.9723 3.67333 13.2902C3.66222 16.3968 3.66111 19.5034 3.67444 22.6111C3.67556 22.9334 3.57667 23.0057 3.27222 23.0001C2.18222 22.9823 1.09111 22.9934 0 22.9945C0 19.6223 0 16.2512 0 12.8789Z" fill="white"/>
<path d="M8.6085 2.64964C9.99628 2.64964 11.3841 2.63964 12.7707 2.65742C13.0685 2.66075 13.2218 2.56294 13.3785 2.31286C14.4874 0.533368 16.4229 -0.300247 18.4663 0.0976651C20.3196 0.457787 21.8829 2.03721 22.1863 4.02455C22.6652 7.16561 20.2374 9.49751 17.6663 9.55642C15.7907 9.59977 14.3629 8.80394 13.3629 7.23341C13.2141 7 13.0641 6.90552 12.7896 6.91108C11.9763 6.92664 11.1607 6.8933 10.3485 6.92664C9.94517 6.94331 9.84072 6.80549 9.87517 6.43092C9.90628 6.10081 9.86517 5.76403 9.88739 5.4328C9.90628 5.15271 9.7885 5.10491 9.53517 5.09713C8.36628 5.06157 8.36628 5.05267 8.36628 6.22974C8.36628 6.28531 8.37517 6.34311 8.36405 6.39646C8.32961 6.56541 8.47517 6.82661 8.25739 6.88774C8.01961 6.95443 7.74294 6.92331 7.49072 6.8844C7.32405 6.85884 7.38405 6.67211 7.38183 6.55318C7.37517 6.16416 7.37183 5.77625 7.38183 5.38723C7.38739 5.17271 7.30628 5.11381 7.09183 5.09824C5.88628 5.00821 5.88739 5.00043 5.88739 6.18306C5.88739 6.91664 5.88739 6.91664 5.17072 6.91664C4.48628 6.91664 3.80183 6.90663 3.11739 6.9222C2.86072 6.92775 2.75628 6.87107 2.76628 6.58875C2.7885 5.99744 2.78739 5.4039 2.76628 4.81259C2.75628 4.54139 2.90072 4.36133 3.03517 4.16682C3.37961 3.66776 3.58294 2.95863 4.08405 2.71411C4.56405 2.48069 5.24294 2.65186 5.83517 2.64964C6.7585 2.64742 7.68405 2.64964 8.6085 2.64964ZM19.0763 6.2064C19.8563 6.21862 20.5385 5.55173 20.5352 4.78036C20.5329 4.04344 19.8641 3.36877 19.1196 3.3521C18.3552 3.33543 17.6674 4.01899 17.6696 4.79259C17.6718 5.55729 18.3063 6.19528 19.0763 6.2064Z" fill="white"/>
</g>
<defs>
<clipPath id="clip0_759_473">
<rect width="25" height="25" fill="white"/>
</clipPath>
</defs>
</svg>
