<svg width="25" height="25" viewBox="0 0 25 25" fill="none" xmlns="http://www.w3.org/2000/svg">
<g clip-path="url(#clip0_318_173)">
<path d="M13.5641 24.2509C13.5641 24.2513 13.5641 24.2513 13.5641 24.2517L13.5654 24.2505C13.5645 24.2505 13.5645 24.2509 13.5641 24.2509ZM14.405 17.4426C14.2156 17.7857 13.9084 17.9861 13.4897 18.0688C13.6812 18.0773 13.8757 18.0752 14.0733 18.0602C13.7434 18.2474 13.3591 18.3249 12.9556 18.3629C12.8603 18.3718 12.765 18.3787 12.6706 18.3838C12.7715 18.449 12.8656 18.5087 12.9635 18.5654C13.0109 18.5926 13.054 18.6208 13.0945 18.6493C13.4166 18.6191 13.7351 18.5611 14.0581 18.4622C14.0098 18.9699 13.9663 19.4665 13.9179 19.9592C14.012 19.9145 14.1055 19.8774 14.1987 19.8476C14.2927 19.0006 14.3832 18.1536 14.4668 17.3066C14.4459 17.3548 14.4272 17.4021 14.405 17.4426ZM14.5725 14.3986C14.5194 14.1467 14.4315 13.8978 14.2962 13.6527C14.0529 13.2132 13.6925 12.8334 13.2703 12.4843C13.0692 12.3176 13.0074 12.1825 13.2076 11.9655C13.5036 11.645 13.4858 11.2643 13.3678 10.8956C12.9635 9.63384 12.5509 8.3738 12.1431 7.11291C12.1043 6.9927 12.073 6.93899 11.861 6.9927C10.8234 7.254 9.77495 7.26508 8.73605 6.99099C8.57589 6.94879 8.53236 6.95988 8.49363 7.08349C8.17895 8.08394 7.85601 9.0831 7.53394 10.0823C7.44558 10.3581 7.34809 10.6317 7.26235 10.9079C7.1357 11.3184 7.17574 11.7132 7.50739 12.0691C7.64318 12.2144 7.5496 12.3231 7.42774 12.4297C7.03733 12.7694 6.66564 13.1181 6.41625 13.5307C6.05153 14.1343 5.95795 14.7665 6.01584 15.4221C6.14206 16.8509 6.28133 18.2789 6.44367 19.7052C6.45281 19.7828 6.44498 19.8612 6.44498 19.9392L6.44106 19.9396C6.54421 20.3842 6.56206 20.8352 6.61603 21.2832C6.717 22.1268 6.81449 22.9704 6.91155 23.814C6.91764 23.8698 6.90981 23.9269 6.9085 23.9832L6.90894 23.9849C6.95638 24.0591 7.00295 24.1332 7.05039 24.207L7.05561 24.2117C7.12612 24.2432 7.17704 24.288 7.21317 24.343L7.21665 24.3455C7.23362 24.36 7.25103 24.3741 7.26801 24.3886C7.28759 24.3954 7.30674 24.4022 7.32676 24.409C7.34026 24.4184 7.35418 24.4278 7.36768 24.4372L7.37812 24.444C7.3951 24.4568 7.41163 24.4696 7.42904 24.4823L7.43253 24.4849C7.47735 24.4883 7.52305 24.4913 7.53916 24.5318L7.54133 24.5335C7.58573 24.5382 7.63186 24.5407 7.64927 24.5804C7.66929 24.5851 7.68931 24.5893 7.70933 24.594C7.7559 24.5881 7.79508 24.5957 7.81727 24.6307L7.81945 24.632C8.62158 24.8511 9.4581 24.9124 10.3029 24.9299L10.3007 24.9312C10.484 24.924 10.6667 24.9176 10.85 24.9103C10.9475 24.9065 11.0454 24.9018 11.1429 24.8971C11.3435 24.8873 11.5433 24.8698 11.74 24.8442C11.9955 24.8106 12.2471 24.7624 12.4934 24.695C12.5896 24.6686 12.6832 24.6341 12.7907 24.6439L12.7963 24.6418C12.8629 24.5603 12.9678 24.5348 13.0871 24.5301L13.0901 24.528C13.0975 24.5147 13.1067 24.5037 13.1162 24.4939C13.1506 24.4602 13.2002 24.447 13.2651 24.4534L13.269 24.4512C13.2886 24.441 13.3073 24.4308 13.3265 24.421L13.3395 24.4133C13.3556 24.4031 13.3713 24.3933 13.3874 24.383L13.4005 24.3753C13.4357 24.3195 13.4958 24.2811 13.5654 24.2509C13.5715 24.2168 13.5933 24.1921 13.6377 24.1801L13.6437 24.1729C13.6599 24.158 13.6755 24.1435 13.6916 24.129H13.6903C13.7565 23.9043 13.7956 23.6771 13.8226 23.4495C13.7434 23.4406 13.6646 23.4303 13.5854 23.4184C13.5262 23.8331 13.1955 24.0799 12.7115 24.2645C12.1761 24.4687 11.599 24.5378 11.0097 24.5574C10.9026 24.5608 10.7951 24.5642 10.6885 24.5663C10.0078 24.58 9.32971 24.5582 8.66728 24.4103C8.43052 24.357 8.20071 24.2901 7.99267 24.1895C7.61619 24.0083 7.36898 23.7752 7.33677 23.4175C7.29586 22.9606 7.20838 22.5036 7.17139 22.0492C7.08869 21.039 6.97945 20.03 6.88631 19.0202C6.85497 18.6753 6.84975 18.3279 6.76444 17.9856C6.73746 17.8778 6.82363 17.862 6.95029 17.8782C7.45168 17.9426 7.93957 18.0457 8.42529 18.1549C8.67294 18.2103 8.92016 18.264 9.16867 18.3147C9.99431 18.4835 10.8269 18.6186 11.6774 18.6651C11.5995 18.576 11.5416 18.4767 11.5189 18.3616C11.0093 18.319 10.5053 18.2376 10.0021 18.1425C9.7397 18.0931 9.47856 18.0394 9.21829 17.9844C8.4575 17.8241 7.70063 17.6519 6.9233 17.5385C6.84452 17.527 6.7479 17.5368 6.73398 17.4434C6.71961 17.3492 6.78577 17.3045 6.88544 17.2623C7.52175 16.992 8.19854 16.966 8.89796 17.0666C9.09773 17.0952 9.29402 17.1314 9.48814 17.1736C10.2206 17.3313 10.9192 17.5653 11.6417 17.7461C11.6565 17.7499 11.6713 17.7533 11.6861 17.7572C11.8236 17.5901 12.0369 17.4707 12.3115 17.4532C13.0688 17.4051 13.5136 17.1783 13.8326 16.6374C13.971 16.4025 14.257 16.2691 14.5664 16.235C14.586 16.0154 14.6047 15.7963 14.6222 15.5768C14.6539 15.1787 14.6539 14.7852 14.5725 14.3986ZM12.8434 11.5354C12.9443 11.5571 12.923 11.6172 12.9043 11.6748C12.8882 11.723 12.8817 11.7724 12.8729 11.8116C12.8303 12.214 12.9478 12.578 13.1942 12.9255C13.2568 13.0141 13.4183 13.1399 13.2442 13.226C13.0645 13.3151 12.9548 13.1659 12.8651 13.0759C12.4086 12.6168 12.4869 12.1207 12.7054 11.6185C12.7258 11.5716 12.7576 11.5175 12.8434 11.5354ZM9.66919 9.9936C9.67659 9.97783 9.68399 9.96206 9.69139 9.94671C9.68356 9.91347 9.70967 9.89514 9.74144 9.87894C9.75798 9.8589 9.77408 9.83844 9.79062 9.81798L9.78627 9.80605L9.80455 9.80264L9.80499 9.79113L9.81848 9.78601C9.83371 9.77408 9.84938 9.76214 9.86461 9.74978C9.98169 9.64108 10.1184 9.55285 10.3038 9.51491C10.3373 9.50553 10.3704 9.49573 10.4043 9.48635C10.4243 9.48337 10.4448 9.48038 10.4648 9.4774C10.4944 9.45097 10.5314 9.44415 10.5749 9.45438C10.6167 9.45225 10.658 9.45012 10.7003 9.44841C10.877 9.42411 11.0445 9.43989 11.1986 9.51448C11.6369 9.62275 12.0643 10.2033 11.9268 10.523C11.7305 10.9783 11.2038 11.2673 10.5954 11.2055C10.0017 11.1449 9.5643 10.7673 9.57997 10.3227C9.58302 10.2383 9.6087 10.1547 9.62393 10.0708C9.61566 10.0371 9.62654 10.0102 9.66919 9.9936ZM10.1349 11.7294C10.8626 11.7818 11.4584 11.6062 11.9194 11.1799C11.9907 11.1143 12.0504 11.0375 12.1792 11.0264C12.3232 11.0145 12.4434 11.0482 12.5269 11.1377C12.6214 11.2387 12.5914 11.3415 12.5134 11.4378C12.1714 11.8572 11.6586 12.0976 11.0263 12.1906C10.2176 12.3095 9.47638 12.1991 8.85792 11.7686C8.56587 11.5652 8.40049 11.3078 8.37002 11.0009C8.80874 11.46 9.40805 11.6769 10.1349 11.7294ZM7.5879 13.0333C7.6928 12.8227 7.85601 12.6318 7.91868 12.4054C7.98701 12.1577 7.98484 11.9161 7.93348 11.6705C7.9239 11.6228 7.89997 11.5652 7.97918 11.5409C8.07885 11.5103 8.1128 11.5729 8.14109 11.6245C8.28254 11.8768 8.33172 12.1398 8.30082 12.4118C8.27209 12.7012 8.17634 12.9706 7.87211 13.171C7.80073 13.2179 7.73458 13.3091 7.61228 13.243C7.50434 13.1846 7.55004 13.1096 7.5879 13.0333ZM13.0866 14.7904C12.6623 14.9101 12.2301 14.9792 11.7957 15.0167C11.236 15.0649 10.672 15.0615 10.1149 15.0495C9.23222 14.986 8.40266 14.8534 7.62055 14.5794C7.56919 14.5615 7.51696 14.544 7.46778 14.5235C7.41773 14.5026 7.35941 14.4758 7.3816 14.4268C7.40902 14.3645 7.47866 14.3782 7.5483 14.3884C7.89213 14.4374 8.23466 14.4975 8.58198 14.5286C9.65483 14.6237 10.7299 14.7303 11.8101 14.5917C12.5217 14.5005 13.1319 14.2524 13.6581 13.8854C13.7134 13.8466 13.7687 13.8061 13.8331 13.778C13.9349 13.7332 14.0424 13.7115 14.1482 13.781C14.2496 13.847 14.2492 13.9186 14.2096 14.0099C14.1316 14.1902 14.0085 14.333 13.8514 14.4485C13.6451 14.6015 13.3804 14.7072 13.0866 14.7904ZM13.83 20.8412C13.8265 21.01 13.8413 21.1826 13.7038 21.3455C13.6446 21.4149 13.7739 21.5424 13.7586 21.6609C13.7169 21.9921 13.6738 22.3229 13.6411 22.6545C13.7225 22.6677 13.8048 22.6788 13.8879 22.6886C13.8953 22.5974 13.904 22.5062 13.9136 22.4154C13.975 21.8544 14.0381 21.2939 14.1007 20.7329C14.0507 20.7521 13.9993 20.773 13.9475 20.796C13.9088 20.8131 13.8696 20.828 13.83 20.8412Z" fill="white"/>
<path d="M10.297 2.03125C10.4167 2.03764 10.4589 2.09903 10.4811 2.1749C10.4089 2.4362 10.4807 2.69281 10.5268 2.95028C10.5577 3.12291 10.4959 3.15872 10.2679 3.10373L10.2635 3.09947C10.2135 2.74226 10.143 2.38505 10.297 2.03125Z" fill="white"/>
<path d="M8.73864 4.17444C8.76083 4.16335 8.7826 4.15185 8.80479 4.14076C9.67744 3.76991 10.5775 3.72771 11.5019 4.02098C11.7944 4.11391 12.0003 4.27163 12.0991 4.50394C12.237 4.82748 12.399 5.14462 12.4742 5.48222C12.5121 5.65102 12.4429 5.77336 12.2597 5.86628C11.6913 6.15572 11.0576 6.28743 10.3764 6.26782C9.93466 6.25504 9.48898 6.25589 9.05549 6.1604C8.75692 6.09476 8.53016 5.94514 8.27816 5.82536C8.14759 5.76355 8.11321 5.65912 8.13497 5.54445C8.22767 5.06064 8.4022 4.59772 8.73864 4.17444ZM10.551 4.0602C10.1088 4.02823 9.71748 4.06404 9.34666 4.18595C9.22827 4.22474 9.0977 4.28228 9.08856 4.39396C9.07855 4.51886 9.20869 4.58664 9.34144 4.625C9.98428 4.81085 10.6315 4.82108 11.2734 4.61988C11.3962 4.58152 11.5215 4.52568 11.518 4.40888C11.515 4.2972 11.4027 4.23198 11.2804 4.18978C11.038 4.10624 10.7816 4.05721 10.551 4.0602Z" fill="white"/>
<path d="M9.8844 6.93529C9.56929 6.92591 9.18323 6.89522 8.82112 6.77544C8.64093 6.71576 8.5256 6.46725 8.61047 6.34193C8.65573 6.27543 8.71927 6.30655 8.78021 6.32061C9.81476 6.55677 10.8467 6.56657 11.8765 6.30484C11.9309 6.29078 11.9783 6.26861 12.0118 6.32957C12.0893 6.46981 11.9696 6.71661 11.7755 6.77629C11.1914 6.95618 10.579 6.97408 9.8844 6.93529Z" fill="white"/>
<path d="M11.6726 0.910637C11.8829 0.677897 12.0169 0.411908 12.2463 0.187266C12.426 0.0112188 12.6136 -0.0505896 12.7829 0.0444674C12.9792 0.15487 12.9427 0.288717 12.8434 0.439189C12.5849 0.830073 12.3425 1.22693 12.0957 1.6225C12.0726 1.65958 12.0665 1.70306 12.0522 1.74356C11.7545 2.13913 11.5899 2.57179 11.4111 3.00147C11.3715 3.09695 11.3876 3.27683 11.2487 3.26575C11.0764 3.25168 11.1895 3.09056 11.1808 2.99635C11.1134 2.27127 11.3623 1.58627 11.6726 0.910637Z" fill="white"/>
<path d="M11.0938 9.71272C11.097 9.64617 10.9541 9.58539 10.7745 9.57697C10.5949 9.56856 10.4466 9.61568 10.4434 9.68223C10.4401 9.74878 10.5831 9.80956 10.7627 9.81798C10.9423 9.82639 11.0905 9.77927 11.0938 9.71272Z" fill="white"/>
<path d="M11.386 9.77718C11.3873 9.75107 11.3313 9.72724 11.2609 9.72394C11.1906 9.72065 11.1325 9.73913 11.1312 9.76524C11.1299 9.79134 11.1859 9.81517 11.2563 9.81847C11.3266 9.82177 11.3847 9.80328 11.386 9.77718Z" fill="white"/>
<path d="M14.7029 14.3985C14.6646 14.3985 14.6267 14.3993 14.5884 14.4002C14.4017 14.4057 14.218 14.4223 14.0383 14.45C13.4668 14.5374 12.9367 14.7339 12.4688 15.0183C11.6588 15.5106 11.0352 16.2664 10.707 17.1752C10.6134 17.4339 10.5438 17.705 10.5007 17.9859C10.4841 18.0946 10.4715 18.2046 10.4628 18.3163C10.4528 18.4412 10.4485 18.5682 10.4493 18.6965C10.4624 20.6168 11.9561 22.2652 13.8777 22.6561C13.9399 22.6693 14.0026 22.6804 14.0661 22.6902C14.2977 22.7272 14.5344 22.7456 14.7756 22.7443C17.0914 22.7307 19.013 20.8282 18.9995 18.5631C18.9856 16.2433 17.0736 14.3904 14.7029 14.3985ZM16.9387 18.806C16.9243 18.821 16.9117 18.8384 16.8943 18.8487C16.4804 19.1014 16.422 19.4582 16.5522 19.8896C16.6579 20.2396 16.5248 20.5328 16.2362 20.7438C15.9563 20.9489 15.6282 20.9941 15.3387 20.7941C14.9518 20.5269 14.6176 20.538 14.2285 20.7345C14.1902 20.7536 14.151 20.7745 14.1114 20.7976C14.0818 20.8146 14.0518 20.8295 14.0217 20.8427C13.4799 21.0793 12.8797 20.6795 12.8736 20.0478C12.8923 19.9263 12.8901 19.746 12.9511 19.5895C13.0442 19.3512 12.9371 19.217 12.7717 19.0708C12.6285 18.9442 12.4801 18.8197 12.3778 18.6667C12.3182 18.5776 12.2743 18.4782 12.2569 18.3632C12.2495 18.3184 12.2464 18.2711 12.2481 18.2208C12.2534 18.055 12.3008 17.8917 12.3848 17.7587C12.4897 17.5916 12.6525 17.4723 12.8623 17.4548C13.4403 17.4066 13.7797 17.1798 14.0235 16.6389C14.1292 16.404 14.3473 16.2706 14.5836 16.2365C14.9044 16.1909 15.26 16.3277 15.4175 16.6432C15.6617 17.1334 15.9507 17.3691 16.5295 17.4301C17.2176 17.503 17.4222 18.309 16.9387 18.806Z" fill="#FEE73C"/>
<path d="M17.8361 24.6261C17.8283 24.9347 17.5519 25.0814 17.2586 24.9539C16.9674 24.8273 16.6802 24.6883 16.4021 24.5362C16.2327 24.4432 16.0865 24.4317 15.9111 24.5187C15.6178 24.6636 15.3109 24.783 15.015 24.9241C14.813 25.0204 14.6211 25.0247 14.4257 24.9177C14.417 24.9126 14.4091 24.9049 14.4 24.901C14.0918 24.7698 13.7889 24.5643 13.4768 24.4948C13.4259 24.4833 13.3746 24.4756 13.3232 24.4727C13.0085 24.453 12.7213 24.6777 12.4266 24.8452C12.3744 24.875 12.3222 24.9028 12.2695 24.9271C12.0454 25.0306 11.8608 25.02 11.7472 24.9113C11.6715 24.8388 11.6275 24.7229 11.6241 24.5673C11.6236 24.563 11.6236 24.5583 11.6236 24.5536C11.6188 23.8767 11.6223 23.1998 11.6223 22.4905C12.3648 22.9718 13.1012 23.2812 13.8355 23.4194C13.896 23.4313 13.956 23.4415 14.0165 23.4505C15.2922 23.6427 16.5614 23.3183 17.8422 22.4824C17.8422 23.2177 17.8544 23.9223 17.8361 24.6261Z" fill="#FEE73C"/>
<path d="M16.2191 18.4367C15.7138 18.8033 15.5671 19.2722 15.7691 19.8519C15.7991 19.9376 15.8182 20.0279 15.776 20.1226C15.6198 20.1345 15.5005 20.0416 15.3848 19.9683C15.0209 19.7372 14.6657 19.698 14.3045 19.8498C14.2336 19.8796 14.1622 19.9167 14.0904 19.9614C14.0873 19.9631 14.0847 19.9653 14.0817 19.967C13.9663 20.0394 13.8166 20.1925 13.7021 20.1068C13.6007 20.0313 13.686 19.8429 13.72 19.7082C13.824 19.2977 13.7687 18.938 13.4619 18.6515C13.431 18.623 13.3979 18.5948 13.3618 18.5676C13.2869 18.5109 13.2151 18.4512 13.1381 18.386C13.0828 18.3395 13.0245 18.2901 12.9609 18.2372C13.1816 18.1404 13.3318 18.1221 13.4841 18.1132C13.5833 18.1072 13.6765 18.0935 13.7631 18.071C14.0825 17.9883 14.3171 17.7879 14.4616 17.4448C14.4786 17.4043 14.493 17.357 14.5091 17.3088C14.5508 17.1796 14.6013 17.0466 14.7284 17.0449C14.8651 17.0428 14.9221 17.2853 14.9756 17.4273C15.1719 17.9495 15.5945 18.0906 16.099 18.1191C16.2087 18.1255 16.3601 18.1085 16.3997 18.2155C16.4363 18.3148 16.2961 18.3808 16.2191 18.4367Z" fill="#FEE73C"/>
</g>
<defs>
<clipPath id="clip0_318_173">
<rect width="13" height="25" fill="white" transform="translate(6)"/>
</clipPath>
</defs>
</svg>
