<svg width="25" height="25" viewBox="0 0 25 25" fill="none" xmlns="http://www.w3.org/2000/svg">
<g clip-path="url(#clip0_314_68)">
<path d="M5.61508 24.8616C5.59752 24.8587 5.57996 24.8558 5.5624 24.8529C5.54484 24.8426 5.52681 24.8323 5.50925 24.8219C5.50925 24.8219 5.50545 24.8203 5.50593 24.8203C5.46179 24.7753 5.40864 24.7422 5.34268 24.7257L5.33698 24.722C5.27861 24.6609 5.22024 24.6002 5.16187 24.5391L5.16092 24.5378C5.14621 24.4846 5.13672 24.4296 5.11632 24.3784C4.80406 23.6046 4.4918 22.8303 4.17669 22.0573C4.00917 21.6464 3.86965 21.2269 3.66322 20.8284L3.66654 20.8271C3.64471 20.754 3.62953 20.6789 3.60058 20.6078C3.0743 19.2984 2.56604 17.984 2.06823 16.6663C1.8395 16.0613 1.73984 15.4514 1.86655 14.8196C1.95292 14.3877 2.15603 13.9933 2.3767 13.6039C2.44551 13.4821 2.49106 13.3632 2.3411 13.2513C1.97522 12.9771 1.83333 12.6141 1.82194 12.2061C1.81387 11.9319 1.81672 11.6573 1.81197 11.3827C1.79441 10.3871 1.7778 9.39148 1.75408 8.39588C1.75123 8.27323 1.78302 8.25465 1.92349 8.26539C2.83702 8.33517 3.67936 8.13572 4.44292 7.70337C4.59905 7.615 4.63939 7.6596 4.70393 7.76531C5.38207 8.87489 6.06448 9.98241 6.73978 11.0936C6.93719 11.4182 7.05725 11.7721 6.90729 12.1264C6.80621 12.3659 6.89306 12.482 7.10139 12.6017C7.53846 12.8532 7.93424 13.1447 8.25267 13.5131C8.70207 14.0334 8.90945 14.633 9.04897 15.2594C9.53302 17.4344 9.94351 19.6205 10.3744 21.8033C10.4826 22.3513 10.6459 22.8923 10.6682 23.4518L10.6691 23.4514C10.6601 23.4679 10.6511 23.4848 10.6425 23.5013L10.6397 23.5092C10.6065 23.5286 10.596 23.5563 10.6008 23.5893L10.6017 23.5876C10.5533 23.6289 10.5154 23.6756 10.5025 23.7351L10.494 23.7446C10.484 23.757 10.4741 23.7689 10.4641 23.7813C10.4641 23.7813 10.4556 23.7912 10.4556 23.7908C10.4432 23.8036 10.4304 23.8164 10.4176 23.8296L10.4147 23.8325C10.345 23.84 10.3051 23.8738 10.2942 23.9341L10.2928 23.9362C10.1984 23.9622 10.1205 24.0055 10.0897 24.0935L10.0854 24.0964C9.99619 24.1067 9.93023 24.1559 9.85999 24.198C9.54156 24.3883 9.19371 24.5263 8.8283 24.6312C8.60574 24.6948 8.38174 24.7542 8.1587 24.8153L8.1606 24.8137C7.47439 24.9499 6.78344 25.0429 6.07587 24.9822L6.0735 24.9813C6.04597 24.9528 6.01275 24.9524 5.97669 24.9665C5.95913 24.9661 5.94205 24.9652 5.92449 24.9648C5.89981 24.9305 5.86184 24.9363 5.82483 24.94L5.82198 24.9388C5.79778 24.9037 5.76076 24.9091 5.72327 24.914L5.71948 24.9124C5.70239 24.9033 5.68531 24.8942 5.66823 24.8855L5.65826 24.881C5.6426 24.8744 5.62884 24.8682 5.61508 24.8616ZM3.57021 10.6927L3.56072 10.6997L3.56309 10.7104L3.54933 10.717L3.55645 10.7278C3.54885 10.7497 3.54126 10.772 3.53414 10.7938C3.51326 10.8149 3.49665 10.8368 3.51231 10.8661C3.51041 10.8822 3.50899 10.8983 3.50709 10.9144C3.47719 10.9375 3.47577 10.9652 3.49191 10.9949C3.50282 11.0767 3.50567 11.1597 3.52655 11.2394C3.63712 11.6594 4.09459 11.9348 4.58956 11.8844C5.09733 11.8328 5.44186 11.4665 5.47366 11.0036C5.49596 10.679 4.99008 10.2112 4.60712 10.1893C4.46238 10.1468 4.32333 10.1624 4.18713 10.217C4.15391 10.2265 4.12117 10.236 4.08795 10.2454C4.04999 10.2434 4.02246 10.2566 4.00585 10.2867C3.99019 10.2929 3.97501 10.2995 3.95934 10.3057C3.93514 10.3206 3.91094 10.3359 3.88674 10.3508C3.74769 10.4193 3.6618 10.5271 3.59773 10.6505C3.58824 10.6646 3.57922 10.6786 3.57021 10.6927ZM9.3935 18.0678C9.09643 18.2607 8.78607 18.3895 8.45672 18.4841C7.25372 18.8297 6.01275 18.838 4.76609 18.7954C4.34421 18.781 3.92233 18.7719 3.50045 18.802C3.39367 18.8095 3.32913 18.84 3.38038 18.9363C3.54363 19.2418 3.64424 19.5668 3.76573 19.8852C4.12022 20.816 4.488 21.7426 4.8349 22.6755C4.99103 23.0954 5.18797 23.5084 5.34742 23.9292C5.47271 24.2591 5.73609 24.4334 6.08963 24.5354C6.28562 24.5919 6.48921 24.6138 6.69469 24.6204C7.3605 24.6431 7.99546 24.5031 8.62377 24.3363C9.09358 24.2116 9.53919 24.0427 9.91457 23.7545C10.2804 23.4737 10.4817 23.1561 10.364 22.7056C10.2278 22.1832 10.1343 21.6522 10.0379 21.1228C10.0171 21.0088 9.87755 20.9122 9.90602 20.8366C9.98622 20.6211 9.88135 20.4328 9.84338 20.2383C9.70576 19.5214 9.54868 18.8074 9.3935 18.0678ZM9.29384 17.6879C8.6195 17.9043 7.93281 17.875 7.24613 17.832C6.4465 17.7821 5.65351 17.6454 4.84629 17.6892C4.25452 17.721 3.7159 17.8676 3.27788 18.2359C3.20954 18.2933 3.16873 18.3478 3.20622 18.4337C3.24324 18.5184 3.31822 18.4919 3.38513 18.4886C4.26828 18.4432 5.15096 18.5035 6.03411 18.4998C6.86648 18.4965 7.69174 18.4449 8.47713 18.174C8.79129 18.0654 9.07982 17.9229 9.29384 17.6879ZM5.26817 15.5774C6.0716 15.4188 6.88547 15.2309 7.59208 14.7981C7.96746 14.5681 8.25077 14.2882 8.28066 13.8632C8.28731 13.7703 8.26785 13.703 8.16772 13.6593C8.06284 13.6134 7.98264 13.6531 7.91288 13.7133C7.86875 13.7513 7.83505 13.7992 7.80136 13.8455C7.47914 14.2849 7.05631 14.6276 6.50819 14.8415C5.67582 15.1665 4.77938 15.2602 3.88816 15.3643C3.59963 15.3982 3.30683 15.4035 3.01592 15.4192C2.95755 15.4225 2.89729 15.4221 2.89254 15.4853C2.88874 15.5353 2.94284 15.5497 2.98888 15.5604C3.03443 15.5708 3.08141 15.5778 3.12792 15.5856C3.83359 15.7021 4.53925 15.6769 5.26817 15.5774ZM2.73926 12.0934C2.84936 12.3762 3.05389 12.5877 3.34574 12.7256C3.96362 13.0184 4.59193 12.9878 5.21028 12.7305C5.69433 12.5294 6.04075 12.2115 6.2002 11.756C6.23675 11.6519 6.232 11.5499 6.12807 11.4723C6.03553 11.4033 5.92971 11.393 5.81676 11.4306C5.71568 11.464 5.68863 11.547 5.64972 11.6214C5.3963 12.1045 4.96446 12.3771 4.36319 12.4592C3.76335 12.5406 3.21998 12.4448 2.73926 12.0934ZM3.07477 13.4297C3.02399 13.1691 2.91152 12.9308 2.72787 12.7198C2.69038 12.6764 2.64624 12.6236 2.57411 12.6703C2.51669 12.7074 2.55181 12.7574 2.57316 12.8003C2.68231 13.0217 2.75112 13.2475 2.76441 13.4924C2.77675 13.7167 2.69845 13.9248 2.67235 14.1412C2.66285 14.2196 2.64672 14.2985 2.7497 14.3336C2.86691 14.3736 2.89491 14.2762 2.93952 14.2192C3.12934 13.9764 3.13172 13.7063 3.07477 13.4297ZM6.59361 12.0418C6.58982 12.0033 6.58175 11.9559 6.5808 11.908C6.57985 11.8501 6.5808 11.7903 6.49301 11.7882C6.41898 11.7866 6.40854 11.8431 6.40521 11.8906C6.3682 12.4014 6.44223 12.8813 6.93767 13.2294C7.03495 13.2975 7.16498 13.4177 7.28504 13.3016C7.40131 13.1897 7.23616 13.1005 7.16118 13.0287C6.86648 12.7475 6.67049 12.4274 6.59361 12.0418Z" fill="#3AA059"/>
<path d="M1.80376 3.32712C1.902 3.31143 1.95325 3.36139 1.99216 3.4287C2.0064 3.68679 2.13548 3.91474 2.24415 4.14805C2.31676 4.30414 2.27737 4.34915 2.07806 4.33883L2.07331 4.33553C1.93332 4.0093 1.77719 3.68679 1.80376 3.32712Z" fill="#3AA059"/>
<path d="M1.13948 5.62028C1.15419 5.60583 1.16891 5.59138 1.18362 5.57651C1.78441 5.07107 2.49814 4.86914 3.32435 4.97774C3.58583 5.01202 3.79558 5.1231 3.93985 5.32296C4.14058 5.60129 4.35935 5.87011 4.51359 6.17321C4.59094 6.32476 4.56863 6.45195 4.44715 6.57212C4.0694 6.94666 3.59484 7.18451 3.04056 7.28899C2.68085 7.35671 2.32161 7.43765 1.94623 7.42608C1.6876 7.41824 1.46313 7.31872 1.2268 7.25223C1.10437 7.21796 1.04742 7.12587 1.03366 7.01479C0.973388 6.54404 0.985726 6.07824 1.13948 5.62028ZM2.56932 5.18669C2.20392 5.23625 1.8983 5.34072 1.6335 5.522C1.54903 5.57981 1.45933 5.65704 1.48306 5.76399C1.50964 5.88292 1.63302 5.92338 1.75071 5.93536C2.32066 5.994 2.84504 5.88704 3.30679 5.58229C3.39505 5.52407 3.48047 5.44932 3.44536 5.34031C3.41214 5.23625 3.30299 5.19536 3.19289 5.17761C2.97412 5.14168 2.7544 5.14209 2.56932 5.18669Z" fill="#3AA059"/>
<path d="M2.82844 8.00332C2.5717 8.05164 2.25185 8.09211 1.92726 8.04503C1.76543 8.02149 1.60361 7.80924 1.6373 7.67669C1.65533 7.60607 1.7156 7.62383 1.76828 7.62589C2.66757 7.66099 3.50231 7.48425 4.2597 7.05273C4.29957 7.03002 4.33184 7.0007 4.3755 7.05149C4.47705 7.16918 4.44905 7.42231 4.30858 7.51357C3.88765 7.78736 3.39933 7.91454 2.82844 8.00332Z" fill="#3AA059"/>
<path d="M2.60009 2.03045C2.70544 1.77442 2.73913 1.50064 2.86204 1.24833C2.95838 1.05053 3.0922 0.958861 3.25498 1.0175C3.44385 1.08563 3.45144 1.21778 3.413 1.37676C3.31287 1.79012 3.22745 2.20636 3.13824 2.62178C3.12969 2.66101 3.13681 2.70272 3.13681 2.74319C3.00678 3.16811 2.99397 3.60376 2.96882 4.03901C2.96312 4.13563 3.02624 4.30164 2.91092 4.31609C2.76808 4.33385 2.81459 4.16206 2.78137 4.07576C2.52653 3.40803 2.53745 2.72089 2.60009 2.03045Z" fill="#3AA059"/>
<path d="M4.33045 10.5508C4.47766 10.5274 4.5862 10.457 4.57287 10.3935C4.55954 10.33 4.4294 10.2975 4.28218 10.3209C4.13497 10.3443 4.02643 10.4147 4.03976 10.4782C4.05309 10.5417 4.18323 10.5742 4.33045 10.5508Z" fill="#3AA059"/>
<path d="M4.73678 10.4603C4.79453 10.4511 4.83711 10.4235 4.83188 10.3986C4.82666 10.3737 4.7756 10.3609 4.71785 10.3701C4.6601 10.3793 4.61752 10.4069 4.62275 10.4318C4.62797 10.4567 4.67903 10.4695 4.73678 10.4603Z" fill="#3AA059"/>
<path d="M17.3772 10.4355C17.372 10.4607 17.3212 10.4731 17.2633 10.464C17.2059 10.455 17.1632 10.4273 17.1684 10.4025C17.1736 10.3777 17.2244 10.3649 17.2823 10.374C17.3397 10.3835 17.3824 10.4108 17.3772 10.4355Z" fill="#0076D8"/>
<path d="M17.9603 10.4812C17.947 10.5444 17.817 10.577 17.6694 10.5535C17.5223 10.5299 17.4136 10.4597 17.4269 10.3966C17.4402 10.333 17.5707 10.3008 17.7178 10.3239C17.8649 10.3474 17.9736 10.4176 17.9603 10.4812Z" fill="#0076D8"/>
<path d="M11.4072 23.5876L11.4082 23.5893C11.4082 23.5889 11.4082 23.5889 11.4082 23.5885C11.4077 23.5881 11.4077 23.5881 11.4072 23.5876ZM19.6674 13.2513C20.0333 12.9771 20.1752 12.6141 20.1865 12.2061C20.1946 11.9319 20.1922 11.6573 20.197 11.3827C20.2145 10.3871 20.2311 9.39148 20.2549 8.39588C20.2577 8.27323 20.2259 8.25465 20.0855 8.26539C19.1719 8.33517 18.3296 8.13572 17.566 7.70337C17.4094 7.615 17.3696 7.6596 17.3046 7.76531C16.6264 8.87489 15.9445 9.98282 15.2687 11.0936C15.0718 11.4182 14.9512 11.7721 15.1012 12.1264C15.2023 12.3655 15.1154 12.4815 14.9071 12.6013C14.47 12.8532 14.0742 13.1447 13.7563 13.5127C13.3069 14.033 13.0995 14.6326 12.96 15.2594C12.4759 17.434 12.0654 19.6201 11.6345 21.8029C11.5268 22.3509 11.3636 22.8918 11.3408 23.4518L11.3398 23.451C11.3489 23.4675 11.3579 23.4844 11.3664 23.5009L11.3693 23.5088C11.4015 23.5282 11.4129 23.5554 11.4082 23.5885C11.4561 23.6294 11.4931 23.676 11.5064 23.7351L11.515 23.7446C11.5249 23.757 11.5349 23.7689 11.5449 23.7813L11.5534 23.7908C11.5662 23.804 11.5785 23.8168 11.5914 23.8296L11.5942 23.8325C11.664 23.84 11.7038 23.8738 11.7147 23.9341L11.7162 23.9366C11.8111 23.9626 11.8884 24.0055 11.9193 24.0939L11.9235 24.0968C12.0128 24.1071 12.0787 24.1563 12.149 24.1984C12.4674 24.3888 12.8152 24.5267 13.1811 24.6316C13.4032 24.6952 13.6277 24.7542 13.8507 24.8157L13.8488 24.8137C14.5355 24.9499 15.2265 25.0429 15.9336 24.9822L15.9359 24.9813C15.9635 24.9528 15.9971 24.9524 16.0332 24.9665C16.0503 24.9661 16.0679 24.9652 16.0854 24.9648C16.1101 24.9305 16.1476 24.9363 16.1851 24.94L16.1874 24.9388C16.2116 24.9037 16.2491 24.9091 16.2862 24.914L16.29 24.9124C16.307 24.9033 16.3241 24.8942 16.3412 24.8851L16.3512 24.881C16.3649 24.8748 16.3787 24.8682 16.3925 24.862L16.4451 24.8533C16.4632 24.8426 16.4807 24.8323 16.4988 24.8219L16.5021 24.8203C16.5462 24.7753 16.5994 24.7422 16.6653 24.7257L16.671 24.722C16.7294 24.6613 16.7878 24.6002 16.8461 24.5391L16.8471 24.5378C16.8618 24.4846 16.8713 24.4296 16.8917 24.3784C17.2039 23.6042 17.5162 22.8303 17.8318 22.0573C17.9993 21.6464 18.1388 21.2269 18.3453 20.8284L18.3419 20.8271C18.3638 20.754 18.379 20.6789 18.4074 20.6078C18.9337 19.2984 19.4424 17.984 19.9402 16.6663C20.1685 16.0618 20.2686 15.4514 20.1419 14.8196C20.0556 14.3877 19.8525 13.9933 19.6318 13.6039C19.563 13.4821 19.5179 13.3636 19.6674 13.2513ZM16.5467 10.8847C16.5472 10.8793 16.5486 10.8739 16.5495 10.8686C16.6497 10.3916 17.175 10.0757 17.7231 10.1629C18.2717 10.25 18.6347 10.7071 18.5346 11.1841C18.4345 11.6614 17.9091 11.9773 17.3606 11.8902C16.8623 11.8109 16.5173 11.4261 16.5334 10.9982C16.5315 10.9619 16.5362 10.9239 16.5467 10.8847ZM15.879 11.4723C15.9715 11.4033 16.0773 11.393 16.1903 11.4306C16.2914 11.464 16.3184 11.547 16.3573 11.6214C16.6108 12.1045 17.0426 12.3767 17.6439 12.4588C18.2442 12.541 18.7875 12.4452 19.2683 12.0934C19.1582 12.3762 18.9536 12.5877 18.6618 12.726C18.0439 13.0184 17.4156 12.9878 16.7973 12.731C16.3132 12.5294 15.9663 12.2115 15.8069 11.756C15.7708 11.6519 15.7751 11.5499 15.879 11.4723ZM14.8463 13.0295C15.141 12.7479 15.337 12.4274 15.4139 12.0422C15.4177 12.0038 15.4258 11.9559 15.4267 11.9084C15.4272 11.8506 15.4267 11.7907 15.5145 11.7886C15.5886 11.787 15.599 11.8435 15.6023 11.891C15.6393 12.4018 15.5653 12.8817 15.0699 13.2298C14.9726 13.2979 14.8426 13.4181 14.7225 13.3021C14.6062 13.1901 14.7714 13.101 14.8463 13.0295ZM18.6267 18.9367C18.4629 19.2422 18.3628 19.5672 18.2413 19.8856C17.8868 20.816 17.5191 21.7426 17.1722 22.6759C17.016 23.0958 16.8191 23.5088 16.6596 23.9296C16.5343 24.2595 16.2705 24.4338 15.9169 24.5358C15.7214 24.5923 15.5174 24.6142 15.3119 24.6212C14.6461 24.644 14.0111 24.504 13.3828 24.3371C12.913 24.2124 12.4674 24.0435 12.092 23.7553C11.7266 23.4741 11.5249 23.1569 11.6426 22.7064C11.7788 22.1841 11.8723 21.653 11.9686 21.1232C11.9895 21.0092 12.129 20.913 12.1006 20.837C12.0208 20.6215 12.1257 20.4332 12.1632 20.2387C12.3018 19.5218 12.4588 18.8078 12.614 18.0678C12.9111 18.2607 13.2215 18.3895 13.5508 18.4841C14.7538 18.8297 15.9943 18.8384 17.241 18.7959C17.6628 18.7814 18.0847 18.7723 18.5066 18.8025C18.6134 18.8099 18.6779 18.84 18.6267 18.9367ZM18.8013 18.4337C18.7643 18.5184 18.6893 18.4919 18.6224 18.4886C17.7392 18.4432 16.8561 18.5035 15.9734 18.4998C15.1406 18.4965 14.3158 18.4449 13.5304 18.174C13.2162 18.0658 12.9277 17.9233 12.7137 17.6879C13.388 17.9043 14.0747 17.875 14.7614 17.8325C15.561 17.7825 16.354 17.6458 17.1612 17.6896C17.753 17.7214 18.2916 17.868 18.7296 18.2359C18.798 18.2937 18.8388 18.3478 18.8013 18.4337ZM19.0191 15.5613C18.9736 15.572 18.9266 15.5786 18.8806 15.5865C18.1739 15.7021 17.4683 15.6769 16.7394 15.5778C15.9359 15.4192 15.1221 15.2313 14.4154 14.7986C14.0401 14.5686 13.7568 14.2886 13.7269 13.8637C13.7202 13.7707 13.7397 13.7034 13.8398 13.6597C13.9442 13.6138 14.0244 13.6535 14.0946 13.7138C14.1388 13.7522 14.1725 13.8001 14.2062 13.8463C14.5284 14.2853 14.9512 14.628 15.4993 14.8423C16.3322 15.1673 17.2282 15.2611 18.1194 15.3651C18.4079 15.3986 18.7007 15.4044 18.9921 15.42C19.0505 15.4233 19.1102 15.4229 19.1155 15.4861C19.1193 15.5365 19.0652 15.5509 19.0191 15.5613ZM19.4344 12.8007C19.3252 13.0217 19.2559 13.248 19.2426 13.4928C19.2308 13.7167 19.3091 13.9252 19.3352 14.1416C19.3447 14.22 19.3608 14.2989 19.2578 14.334C19.1406 14.3741 19.1126 14.2766 19.0685 14.2196C18.8782 13.9764 18.8758 13.7067 18.9328 13.4301C18.9835 13.1695 19.096 12.9312 19.2797 12.7198C19.3176 12.6769 19.3618 12.624 19.4334 12.6707C19.4908 12.7078 19.4557 12.7574 19.4344 12.8007Z" fill="#0076D8"/>
<path d="M20.1969 3.32712C20.0986 3.31143 20.0474 3.36139 20.0085 3.4287C19.9942 3.68679 19.8652 3.91474 19.7565 4.14805C19.6839 4.30414 19.7233 4.34915 19.9226 4.33883L19.9273 4.33553C20.0673 4.0093 20.2234 3.68679 20.1969 3.32712Z" fill="#0076D8"/>
<path d="M20.8606 5.62028C20.8459 5.60583 20.8311 5.59138 20.8164 5.57651C20.2156 5.07107 19.5019 4.86914 18.6757 4.97774C18.4142 5.01202 18.2045 5.1231 18.0602 5.32296C17.8595 5.60129 17.6407 5.87011 17.4865 6.17321C17.4091 6.32476 17.4314 6.45195 17.5529 6.57212C17.9306 6.94624 18.4052 7.1841 18.9595 7.28816C19.3192 7.35588 19.6784 7.43682 20.0538 7.42526C20.3125 7.41741 20.5369 7.31789 20.7732 7.25141C20.8957 7.21713 20.9526 7.12505 20.9664 7.01397C21.0267 6.54404 21.0143 6.07824 20.8606 5.62028ZM19.4312 5.18669C19.7966 5.23625 20.1022 5.34072 20.367 5.522C20.4515 5.57982 20.5412 5.65704 20.5175 5.76399C20.4909 5.88292 20.3675 5.92338 20.2498 5.93536C19.6799 5.994 19.1555 5.88704 18.6937 5.58229C18.6055 5.52407 18.52 5.44932 18.5552 5.34031C18.5884 5.23625 18.6975 5.19536 18.8076 5.17761C19.0259 5.14168 19.2461 5.14209 19.4312 5.18669Z" fill="#0076D8"/>
<path d="M19.1703 8.00332C19.4271 8.05164 19.7469 8.09211 20.0715 8.04503C20.2333 8.02149 20.3952 7.80924 20.3615 7.67669C20.3434 7.60607 20.2832 7.62383 20.2305 7.62589C19.3312 7.66099 18.4965 7.48425 17.7391 7.05273C17.6992 7.03002 17.6669 7.0007 17.6233 7.05149C17.5217 7.16918 17.5497 7.42231 17.6902 7.51357C18.1111 7.78736 18.5999 7.91454 19.1703 8.00332Z" fill="#0076D8"/>
<path d="M19.3939 2.03045C19.2886 1.77442 19.2549 1.50064 19.132 1.24833C19.0357 1.05053 18.9018 0.958861 18.7391 1.0175C18.5502 1.08563 18.5426 1.21778 18.581 1.37676C18.6812 1.79012 18.7666 2.20636 18.8558 2.62178C18.8643 2.66101 18.8572 2.70272 18.8572 2.74319C18.9873 3.16811 19.0001 3.60376 19.0252 4.03901C19.0309 4.13563 18.9678 4.30164 19.0831 4.31609C19.226 4.33385 19.1794 4.16206 19.2127 4.07576C19.4675 3.40803 19.4571 2.72089 19.3939 2.03045Z" fill="#0076D8"/>
<path d="M17.9603 10.4812C17.947 10.5444 17.817 10.577 17.6694 10.5535C17.5223 10.5299 17.4136 10.4597 17.4269 10.3966C17.4402 10.333 17.5707 10.3008 17.7178 10.3239C17.8649 10.3474 17.9736 10.4176 17.9603 10.4812Z" fill="#0076D8"/>
<path d="M17.3772 10.4355C17.372 10.4607 17.3212 10.4731 17.2633 10.464C17.2059 10.455 17.1632 10.4273 17.1684 10.4025C17.1736 10.3777 17.2244 10.3649 17.2823 10.374C17.3397 10.3835 17.3824 10.4108 17.3772 10.4355Z" fill="#0076D8"/>
<path d="M8.61893 23.6451C8.6028 23.6385 8.58666 23.6319 8.57005 23.6253C8.55582 23.6113 8.54158 23.5977 8.52734 23.5836L8.5245 23.5811C8.4946 23.5279 8.45236 23.4845 8.39352 23.454L8.38925 23.4494C8.35033 23.3776 8.31095 23.3061 8.27203 23.2343L8.27156 23.2326C8.27251 23.1781 8.27915 23.1228 8.27393 23.0687C8.19326 22.2515 8.11211 21.4342 8.02811 20.617C7.9835 20.183 7.96832 19.7461 7.8829 19.3154L7.88622 19.315C7.88622 19.2395 7.89239 19.1635 7.88527 19.0887C7.75049 17.7066 7.63423 16.3232 7.52888 14.9395C7.48047 14.3044 7.55877 13.692 7.86202 13.1072C8.0694 12.7075 8.37881 12.3697 8.70388 12.0406C8.80544 11.9378 8.88326 11.8325 8.77032 11.6913C8.49413 11.3465 8.46091 10.9641 8.56626 10.5664C8.63697 10.2988 8.71812 10.0337 8.79215 9.76654C9.0598 8.7986 9.32887 7.83066 9.59083 6.86107C9.6231 6.74173 9.65916 6.73058 9.79251 6.77146C10.6572 7.03698 11.5299 7.02666 12.3936 6.77311C12.5701 6.72108 12.5962 6.77311 12.6285 6.88956C12.9678 8.11105 13.3114 9.33171 13.6478 10.554C13.7461 10.9108 13.7612 11.28 13.5145 11.5905C13.3479 11.8003 13.3991 11.9316 13.5662 12.0926C13.9178 12.4308 14.2173 12.7992 14.4199 13.2245C14.7061 13.8258 14.7355 14.4514 14.6914 15.0885C14.5376 17.2999 14.3098 19.5058 14.102 21.7134C14.0498 22.2676 14.0531 22.8267 13.915 23.3738L13.9159 23.3734C13.9027 23.3875 13.8894 23.4019 13.8756 23.416L13.8709 23.423C13.8334 23.4345 13.8149 23.4589 13.8106 23.4924L13.812 23.4911C13.7532 23.5209 13.7033 23.5576 13.6734 23.6125L13.6625 23.62C13.6492 23.6295 13.636 23.6394 13.6231 23.6493L13.6122 23.6567C13.5966 23.6666 13.5804 23.6761 13.5648 23.686L13.561 23.6881C13.4912 23.6798 13.4428 23.7046 13.4153 23.7604L13.4134 23.762C13.3142 23.767 13.2269 23.7917 13.1714 23.8702L13.1666 23.8723C13.0774 23.8628 12.9996 23.8962 12.9189 23.9218C12.5563 24.0374 12.1795 24.0953 11.7956 24.1176C11.5621 24.1312 11.3282 24.1399 11.0942 24.1506L11.0966 24.1494C10.3928 24.1324 9.69713 24.073 9.02943 23.8607L9.02753 23.8595C9.00902 23.826 8.97675 23.8182 8.93784 23.824C8.92123 23.8194 8.90462 23.8153 8.88801 23.8107C8.87377 23.7723 8.83581 23.7699 8.79879 23.7653L8.79642 23.7637C8.78313 23.7244 8.74564 23.7215 8.70815 23.7182L8.70483 23.7158C8.69107 23.7034 8.67683 23.691 8.66307 23.6786L8.65453 23.672C8.64219 23.6637 8.6308 23.6542 8.61893 23.6451ZM10.6937 9.47954L10.6823 9.4845L10.6818 9.49523L10.6666 9.49854L10.6704 9.51051C10.6567 9.53033 10.6434 9.54974 10.6296 9.56956C10.6031 9.58525 10.5812 9.60301 10.5879 9.63481C10.5817 9.65009 10.5755 9.66536 10.5694 9.68023C10.5338 9.69634 10.5248 9.72276 10.5314 9.75497C10.5186 9.83632 10.4977 9.91767 10.4949 9.99902C10.482 10.4297 10.8456 10.7956 11.34 10.8542C11.8464 10.9141 12.2849 10.6341 12.4481 10.1927C12.5625 9.8834 12.2066 9.32056 11.8417 9.21608C11.714 9.1434 11.5745 9.12854 11.4269 9.15166C11.3922 9.15373 11.3571 9.15579 11.3225 9.15786C11.2864 9.14753 11.2556 9.15455 11.2309 9.18016C11.2143 9.18305 11.1972 9.18594 11.1806 9.18842C11.1531 9.19791 11.1251 9.207 11.0975 9.2165C10.9433 9.25283 10.8294 9.33873 10.7317 9.44403C10.7193 9.456 10.7065 9.46756 10.6937 9.47954ZM14.223 17.8842C13.8799 18.0064 13.5425 18.0642 13.197 18.0845C11.9328 18.1584 10.7288 17.8978 9.53341 17.5864C9.12908 17.4811 8.72286 17.3808 8.30573 17.3184C8.20037 17.3028 8.12872 17.318 8.15102 17.4225C8.22173 17.7541 8.226 18.0902 8.25258 18.4247C8.32945 19.403 8.42057 20.38 8.48938 21.3591C8.52023 21.7997 8.59283 22.242 8.627 22.6846C8.65358 23.0311 8.85954 23.257 9.17274 23.4329C9.34596 23.5303 9.5372 23.5952 9.73462 23.6468C10.3729 23.8128 11.0283 23.8149 11.6841 23.7897C12.1748 23.7707 12.655 23.7038 13.1007 23.506C13.5353 23.3131 13.8215 23.0493 13.8362 22.5876C13.8538 22.052 13.915 21.5177 13.9734 20.9837C13.9857 20.8685 13.8785 20.745 13.9273 20.6777C14.0669 20.4861 14.0189 20.2813 14.0379 20.0843C14.1096 19.36 14.1613 18.6345 14.223 17.8842ZM14.2353 17.4948C13.5202 17.5579 12.8634 17.3812 12.2109 17.1908C11.4506 16.9691 10.7217 16.6652 9.92729 16.5322C9.34501 16.4347 8.78171 16.4603 8.2521 16.7217C8.16953 16.7626 8.11448 16.8064 8.12587 16.8977C8.13726 16.9877 8.21746 16.9786 8.28342 16.9897C9.15186 17.1372 9.98946 17.3866 10.846 17.5745C11.6533 17.7516 12.4671 17.8805 13.3052 17.7884C13.6402 17.7512 13.9606 17.6761 14.2353 17.4948ZM10.94 14.5786C11.7634 14.5988 12.6052 14.5934 13.4139 14.3275C13.8433 14.1863 14.1978 13.9761 14.3483 13.5714C14.381 13.483 14.3815 13.4137 14.2975 13.3492C14.2092 13.2819 14.12 13.3034 14.0351 13.3468C13.9814 13.374 13.9349 13.4132 13.8889 13.4504C13.4509 13.8059 12.9431 14.0463 12.3513 14.1347C11.452 14.2689 10.557 14.1656 9.66438 14.0735C9.37538 14.0438 9.09017 13.9856 8.80401 13.9377C8.74659 13.9282 8.68822 13.9146 8.66544 13.9748C8.64741 14.0227 8.69534 14.0483 8.7371 14.0686C8.77839 14.0888 8.82157 14.1053 8.86428 14.1231C9.51537 14.3882 10.2059 14.5166 10.94 14.5786ZM9.48785 10.656C9.51347 10.9537 9.6511 11.2032 9.89407 11.3997C10.409 11.8168 11.0259 11.9238 11.6988 11.8085C12.2251 11.7185 12.6517 11.4856 12.9369 11.0789C13.0019 10.986 13.0271 10.8864 12.9483 10.7886C12.8786 10.7019 12.7789 10.6688 12.6588 10.6808C12.5516 10.6915 12.5013 10.7659 12.4424 10.829C12.0585 11.242 11.5626 11.4125 10.9571 11.3617C10.3515 11.3114 9.85278 11.1008 9.48785 10.656ZM9.43043 12.0233C9.45605 11.7598 9.41524 11.5046 9.29755 11.2606C9.27335 11.2106 9.24582 11.1499 9.16278 11.1796C9.09634 11.2032 9.11627 11.2589 9.12481 11.3056C9.16752 11.5434 9.16942 11.7776 9.112 12.0171C9.0598 12.2368 8.92455 12.4213 8.83676 12.6253C8.80496 12.6993 8.76652 12.7724 8.85669 12.8285C8.95872 12.8925 9.01377 12.8041 9.07309 12.7591C9.32697 12.5642 9.4067 12.3032 9.43043 12.0233ZM13.2354 11.4414C13.2425 11.4034 13.2487 11.3555 13.2615 11.3089C13.2772 11.2527 13.2947 11.1949 13.2108 11.1738C13.1396 11.1561 13.113 11.2089 13.0964 11.254C12.9146 11.7404 12.8487 12.2215 13.2288 12.6658C13.3033 12.7529 13.3949 12.8975 13.5448 12.8112C13.6891 12.7282 13.5553 12.6059 13.5031 12.52C13.2981 12.1839 13.1998 11.8313 13.2354 11.4414Z" fill="white"/>
<path d="M11.094 1.96875C11.1936 1.97494 11.2287 2.03441 11.2473 2.10791C11.187 2.36105 11.2468 2.60964 11.2852 2.85906C11.3108 3.0263 11.2596 3.06098 11.0698 3.00772L11.0664 3.00359C11.0242 2.65754 10.9654 2.31149 11.094 1.96875Z" fill="white"/>
<path d="M9.79681 4.04643C9.81532 4.03569 9.83335 4.02454 9.85186 4.0138C10.5784 3.65454 11.3273 3.61366 12.0965 3.89777C12.34 3.98779 12.5113 4.14058 12.5939 4.36563C12.7087 4.67906 12.8435 4.98629 12.9061 5.31334C12.9374 5.47686 12.88 5.59538 12.7277 5.6854C12.2545 5.96579 11.7273 6.09339 11.1602 6.07439C10.7924 6.062 10.4218 6.06283 10.0607 5.97033C9.812 5.90674 9.6236 5.76179 9.41337 5.64576C9.3047 5.58588 9.27575 5.48471 9.29426 5.37363C9.37114 4.90494 9.51682 4.45648 9.79681 4.04643ZM11.3054 3.93576C10.9376 3.90479 10.6116 3.93947 10.3032 4.05758C10.2049 4.09515 10.0958 4.1509 10.0887 4.25909C10.0806 4.38009 10.1883 4.44574 10.2989 4.48291C10.8342 4.66295 11.3723 4.67286 11.9067 4.47795C12.0087 4.44079 12.1131 4.38669 12.1103 4.27355C12.1079 4.16535 12.0139 4.10217 11.9124 4.06129C11.7102 3.98036 11.4972 3.93287 11.3054 3.93576Z" fill="white"/>
<path d="M10.7523 6.71978C10.4898 6.7107 10.1686 6.68096 9.86721 6.56493C9.71725 6.50711 9.62092 6.26637 9.69163 6.14496C9.72912 6.08054 9.78227 6.11069 9.83305 6.12432C10.6939 6.35309 11.5533 6.36258 12.4104 6.10904C12.4559 6.09541 12.4948 6.07394 12.5228 6.13299C12.5874 6.26885 12.4877 6.50794 12.3259 6.56575C11.8399 6.74001 11.3303 6.75736 10.7523 6.71978Z" fill="white"/>
<path d="M12.2416 0.882179C12.4167 0.656712 12.5282 0.399035 12.719 0.181414C12.8685 0.0108682 13.0246 -0.0490086 13.1655 0.0430777C13.3288 0.15003 13.2984 0.279694 13.2158 0.425463C13.0004 0.804132 12.7987 1.18858 12.5937 1.57179C12.5742 1.60772 12.5695 1.64984 12.5576 1.68907C12.3099 2.07228 12.1732 2.49142 12.0242 2.90767C11.991 3.00016 12.0048 3.17443 11.889 3.16369C11.7452 3.15006 11.8396 2.99397 11.8325 2.90271C11.776 2.20029 11.9829 1.53669 12.2416 0.882179Z" fill="white"/>
<path d="M11.7611 9.41301C11.7663 9.34862 11.6496 9.28894 11.5003 9.27969C11.351 9.27045 11.2257 9.31514 11.2205 9.37952C11.2152 9.4439 11.332 9.50359 11.4812 9.51283C11.6305 9.52208 11.7558 9.47739 11.7611 9.41301Z" fill="white"/>
<path d="M12.0049 9.47132C12.0069 9.44607 11.9611 9.42266 11.9026 9.41903C11.844 9.4154 11.7949 9.43293 11.7928 9.45818C11.7907 9.48344 11.8365 9.50685 11.8951 9.51047C11.9537 9.5141 12.0028 9.49657 12.0049 9.47132Z" fill="white"/>
</g>
<defs>
<clipPath id="clip0_314_68">
<rect width="25" height="25" fill="white"/>
</clipPath>
</defs>
</svg>
