<svg width="25" height="25" viewBox="0 0 25 25" fill="none" xmlns="http://www.w3.org/2000/svg">
<g clip-path="url(#clip0_318_191)">
<path d="M13.6763 22.9035C13.6017 22.8278 13.5271 22.7522 13.4521 22.6765C13.4327 22.927 13.418 23.1774 13.4142 23.4287C13.407 23.907 13.0847 24.1754 12.5905 24.3669C12.0841 24.5639 11.5351 24.6242 10.9731 24.6349C10.2215 24.649 9.47067 24.6345 8.73547 24.4502C8.50837 24.3934 8.28803 24.3225 8.08748 24.2186C7.72472 24.0305 7.48415 23.7925 7.44623 23.4326C7.39778 22.9736 7.30509 22.5137 7.26043 22.0563C7.161 21.0404 7.03587 20.0257 6.92674 19.0106C6.88967 18.6636 6.87745 18.3148 6.78897 17.9694C6.76117 17.8609 6.8429 17.8464 6.96424 17.8647C7.4437 17.937 7.91094 18.0485 8.37692 18.1652C9.39904 18.4212 10.4262 18.6486 11.4799 18.7268C11.4138 18.6268 11.3531 18.5234 11.2979 18.4174C10.8227 18.3657 10.3508 18.2776 9.88103 18.1772C8.89557 17.9665 7.93033 17.6921 6.9318 17.5232C6.85596 17.5104 6.76412 17.5185 6.74895 17.4249C6.73378 17.33 6.79571 17.286 6.88967 17.245C7.49131 16.9838 8.13635 16.968 8.80583 17.08C9.56968 17.2074 10.2834 17.4578 11.0093 17.6792C11.0026 17.6562 10.9967 17.6331 10.9908 17.6096C10.9592 17.4835 10.9339 17.3544 10.9162 17.2236C10.8762 16.9351 10.8703 16.6376 10.901 16.3363C10.9032 16.3145 10.9057 16.2927 10.9086 16.2714C10.9579 15.8747 11.0864 15.4665 11.2882 15.0806C10.8341 15.1024 10.3773 15.0908 9.92569 15.0733C9.08263 14.9955 8.28845 14.8498 7.53681 14.5626C7.4871 14.5438 7.43738 14.5254 7.38977 14.504C7.34132 14.4822 7.28571 14.4544 7.30551 14.4053C7.33037 14.3433 7.39736 14.3583 7.4635 14.3694C7.79298 14.4241 8.12076 14.4899 8.45276 14.5262C9.47825 14.6387 10.5063 14.7622 11.5339 14.6399C11.5427 14.6386 11.552 14.6378 11.5608 14.6365C11.7723 14.339 12.0314 14.0659 12.3344 13.8364C12.6563 13.5915 13.0283 13.3953 13.4445 13.2709C13.4816 13.2598 13.5191 13.2496 13.5562 13.2397C13.3615 12.9931 13.1332 12.764 12.8833 12.5461C12.6883 12.3759 12.6268 12.2392 12.8134 12.0246C13.089 11.7071 13.0641 11.3245 12.944 10.9527C12.5328 9.67942 12.1132 8.40788 11.6982 7.13506C11.659 7.01368 11.6278 6.95939 11.4264 7.00983C10.4422 7.25644 9.44202 7.25131 8.44518 6.95982C8.29182 6.91494 8.25053 6.92563 8.2164 7.04872C7.93665 8.04886 7.64888 9.04686 7.36239 10.0453C7.28318 10.3205 7.19597 10.5941 7.12013 10.8702C7.00806 11.2805 7.05398 11.6771 7.37756 12.04C7.50985 12.1883 7.42306 12.296 7.30888 12.4007C6.94318 12.7358 6.59559 13.0803 6.36639 13.4906C6.03102 14.0911 5.95434 14.7246 6.02302 15.3841C6.17301 16.8206 6.33521 18.2562 6.51933 19.6915C6.52902 19.7693 6.52354 19.8479 6.52523 19.9266C6.52523 19.9261 6.52101 19.9266 6.52101 19.9266C6.62845 20.3749 6.65499 20.828 6.71524 21.2784C6.829 22.1273 6.93896 22.9757 7.04893 23.8245C7.05609 23.8809 7.04977 23.9378 7.04977 23.9946L7.05061 23.9963C7.09696 24.0711 7.1433 24.1464 7.18965 24.2212L7.1947 24.2263C7.26296 24.2588 7.31225 24.3049 7.34764 24.3605L7.35101 24.3631C7.36744 24.3776 7.3843 24.3921 7.40073 24.4071C7.41969 24.4143 7.43823 24.4212 7.45718 24.4285C7.47025 24.4383 7.48373 24.4477 7.49721 24.4575L7.5069 24.4644C7.52333 24.4776 7.53976 24.4904 7.55577 24.5037L7.55957 24.5062C7.60254 24.5105 7.64594 24.5144 7.66195 24.555L7.66447 24.5567C7.70703 24.5622 7.75084 24.5656 7.7677 24.6058C7.78708 24.6105 7.80604 24.6152 7.82542 24.6199C7.87008 24.6148 7.90715 24.6233 7.92906 24.6584L7.93159 24.6597C8.70092 24.8922 9.49974 24.967 10.307 24.9978L10.304 24.999C10.572 24.9922 10.84 24.9875 11.1075 24.9777C11.5473 24.9619 11.9775 24.9089 12.3908 24.7956C12.4823 24.7708 12.5707 24.7375 12.6735 24.749L12.679 24.7469C12.7409 24.6665 12.8404 24.6422 12.9541 24.6392L12.9562 24.6375C12.987 24.5798 13.0418 24.5554 13.1218 24.5648L13.126 24.5631C13.1441 24.5533 13.1618 24.5434 13.18 24.5336L13.1926 24.5259C13.2073 24.5161 13.2225 24.5062 13.2373 24.4964L13.2495 24.4887C13.2823 24.4332 13.3384 24.396 13.4045 24.3665C13.4096 24.3323 13.4298 24.3079 13.4724 24.2964L13.4778 24.2891C13.4926 24.2746 13.5077 24.2601 13.5229 24.2459H13.5216C13.6362 23.8044 13.6518 23.3535 13.6763 22.9035ZM12.4566 11.5869C12.5535 11.6105 12.5345 11.6703 12.5176 11.728C12.5037 11.7759 12.4983 11.8254 12.4907 11.8648C12.4578 12.2682 12.5779 12.6354 12.8197 12.988C12.8812 13.0778 13.0376 13.2073 12.8741 13.2906C12.7043 13.3774 12.596 13.2256 12.5088 13.1342C12.0639 12.6662 12.1288 12.1691 12.3272 11.6682C12.3453 11.6216 12.3748 11.5673 12.4566 11.5869ZM9.39694 9.9893C9.4041 9.97391 9.41084 9.95809 9.41758 9.94228C9.40915 9.90937 9.43401 9.89142 9.46393 9.8756C9.47909 9.85552 9.49426 9.83543 9.50943 9.81491L9.50479 9.80295L9.52207 9.79953L9.52291 9.78841L9.53555 9.78328C9.54987 9.77174 9.5642 9.75978 9.57852 9.74781C9.68849 9.64053 9.81699 9.55377 9.9931 9.51872C10.0247 9.50974 10.0563 9.50034 10.0879 9.49136C10.1073 9.4888 10.1262 9.48624 10.1456 9.48367C10.173 9.4576 10.2084 9.45076 10.2497 9.4623C10.2897 9.46059 10.3293 9.45931 10.3693 9.4576C10.5379 9.43623 10.698 9.45461 10.8459 9.5324C11.2663 9.64737 11.686 10.2372 11.5617 10.556C11.3839 11.0104 10.8871 11.2925 10.3053 11.2207C9.73778 11.151 9.31309 10.765 9.31857 10.3184C9.31983 10.2338 9.34259 10.15 9.35523 10.0662C9.3468 10.0325 9.35649 10.0055 9.39694 9.9893ZM9.87724 11.7395C10.5724 11.8036 11.1374 11.6365 11.5684 11.2155C11.635 11.1506 11.6906 11.0745 11.8136 11.0655C11.951 11.0557 12.0656 11.0916 12.1473 11.1826C12.2396 11.2856 12.213 11.3886 12.1406 11.4835C11.8225 11.8998 11.3384 12.1332 10.7372 12.2165C9.96824 12.3234 9.25874 12.2011 8.66005 11.7592C8.37734 11.5506 8.21429 11.2895 8.17848 10.9805C8.60612 11.4485 9.18248 11.6759 9.87724 11.7395ZM7.47404 13.0094C7.5701 12.7995 7.72135 12.6106 7.77654 12.3841C7.83721 12.1362 7.82963 11.8938 7.77612 11.6464C7.76559 11.5981 7.74157 11.5399 7.81699 11.5169C7.91137 11.4874 7.94423 11.551 7.97288 11.6032C8.11318 11.8588 8.165 12.1238 8.14141 12.3965C8.11992 12.6867 8.03439 12.9555 7.74747 13.1521C7.6809 13.1983 7.61939 13.2885 7.501 13.2205C7.39694 13.1602 7.43949 13.0854 7.47404 13.0094ZM13.541 21.349C13.5254 21.3836 13.5052 21.4174 13.4787 21.4511C13.4757 21.455 13.4732 21.4592 13.4711 21.4639C13.5103 21.4426 13.5322 21.405 13.541 21.349ZM13.4045 24.3665C13.4045 24.3669 13.4045 24.3669 13.4045 24.3673L13.4058 24.366C13.4054 24.366 13.4049 24.3665 13.4045 24.3665Z" fill="white"/>
<path d="M9.83009 2.00391C9.94427 2.01203 9.98598 2.07443 10.0087 2.15094C9.94511 2.41208 10.0188 2.67109 10.0681 2.93053C10.101 3.10406 10.0433 3.1391 9.82419 3.08055L9.81998 3.07585C9.76478 2.7164 9.69021 2.35652 9.83009 2.00391Z" fill="white"/>
<path d="M8.38871 4.13272C8.40936 4.1216 8.43042 4.11092 8.45107 4.09981C9.27601 3.74078 10.1338 3.71257 11.0215 4.02159C11.3026 4.11947 11.5018 4.28103 11.6013 4.51567C11.7395 4.84264 11.9004 5.16405 11.9792 5.50384C12.0188 5.67395 11.9552 5.79534 11.7824 5.88638C11.2461 6.16804 10.6445 6.29028 9.99394 6.26036C9.5722 6.2407 9.14708 6.23429 8.73166 6.13171C8.44559 6.06118 8.22608 5.90732 7.98298 5.78337C7.85701 5.71926 7.82204 5.61369 7.84058 5.49914C7.91936 5.01489 8.07651 4.55286 8.38871 4.13272ZM10.1153 4.04638C9.69311 4.00706 9.32025 4.0374 8.96887 4.15409C8.8568 4.19127 8.73335 4.24683 8.72703 4.35924C8.71987 4.48447 8.84542 4.55457 8.97266 4.59517C9.58989 4.79178 10.2071 4.8123 10.8155 4.61996C10.9318 4.58321 11.0502 4.52935 11.0447 4.41181C11.0396 4.29983 10.9309 4.2323 10.8134 4.18785C10.5804 4.09981 10.3352 4.04681 10.1153 4.04638Z" fill="white"/>
<path d="M9.54182 6.92294C9.24099 6.90883 8.87192 6.87165 8.52433 6.74599C8.35117 6.68316 8.23573 6.43185 8.31409 6.30747C8.3558 6.24165 8.41732 6.2737 8.47546 6.28866C9.46724 6.54169 10.4523 6.56776 11.4289 6.32072C11.4807 6.30747 11.5254 6.2861 11.5587 6.34765C11.6358 6.48955 11.5266 6.73573 11.3421 6.79258C10.7889 6.9644 10.205 6.97252 9.54182 6.92294Z" fill="white"/>
<path d="M11.1252 0.899844C11.3211 0.669471 11.4433 0.404477 11.6577 0.182225C11.8258 0.00826926 12.0032 -0.0507131 12.1667 0.0471635C12.3563 0.160854 12.3238 0.295061 12.2324 0.444226C11.9935 0.832741 11.7707 1.22767 11.5436 1.62088C11.5221 1.65807 11.517 1.70124 11.5048 1.74141C11.2288 2.13377 11.081 2.56631 10.9192 2.99458C10.8834 3.08989 10.9023 3.27068 10.7696 3.25743C10.6049 3.24076 10.7093 3.08048 10.6992 2.98603C10.6196 2.2573 10.8429 1.57344 11.1252 0.899844Z" fill="white"/>
<path d="M10.7499 9.73273C10.7545 9.66609 10.6195 9.60205 10.4482 9.58968C10.2769 9.57731 10.1342 9.6213 10.1296 9.68794C10.1249 9.75457 10.26 9.81862 10.4312 9.83099C10.6025 9.84336 10.7452 9.79937 10.7499 9.73273Z" fill="white"/>
<path d="M11.0314 9.80029C11.0332 9.77416 10.9803 9.74904 10.9133 9.7442C10.8462 9.73936 10.7903 9.75662 10.7885 9.78275C10.7866 9.80889 10.8395 9.834 10.9066 9.83885C10.9737 9.84369 11.0296 9.82643 11.0314 9.80029Z" fill="white"/>
<path d="M17.8314 15.5824C17.5301 14.6686 16.9344 14.1275 16.6715 13.9176C16.1735 13.5201 15.5289 13.2342 14.8295 13.153C14.6529 13.132 14.473 13.1247 14.2906 13.1312C14.0488 13.1406 13.8031 13.1756 13.5575 13.2402C13.5204 13.25 13.4829 13.2602 13.4459 13.2714C13.0296 13.3957 12.6576 13.5919 12.3357 13.8368C12.0328 14.0663 11.7736 14.3394 11.5621 14.6369C11.4602 14.7797 11.3692 14.9284 11.2896 15.081C11.0877 15.4669 10.9592 15.8751 10.9099 16.2718C10.907 16.2931 10.9045 16.3149 10.9024 16.3367C10.8716 16.6381 10.8775 16.9355 10.9175 17.224C10.9352 17.3548 10.9605 17.4839 10.9921 17.61C10.998 17.6335 11.0039 17.6566 11.0106 17.6796C11.0797 17.9365 11.1766 18.184 11.2992 18.4178C11.3544 18.5238 11.4151 18.6272 11.4813 18.7272C11.8128 19.2333 12.2716 19.6598 12.8307 19.9603C13.0679 20.0881 13.4492 20.036 13.528 20.3539C13.5988 20.639 13.5348 20.9566 13.5466 21.2592C13.5478 21.2934 13.5466 21.3233 13.5423 21.3494C13.5335 21.4054 13.5116 21.443 13.4724 21.4644C13.4374 21.4836 13.389 21.4896 13.3245 21.4836C13.2213 21.4742 13.1168 21.4836 13.0132 21.4819C12.8653 21.4793 12.7258 21.4844 12.6647 21.661C12.6108 21.8153 12.7001 21.9106 12.7911 22.0042C13.0115 22.229 13.2327 22.4529 13.4534 22.6769C13.5284 22.7526 13.603 22.8282 13.6776 22.9039C13.7859 23.0137 13.8937 23.1236 14.0012 23.2334C14.0627 23.2958 14.1238 23.3586 14.1853 23.4215L14.1941 23.4304C14.366 23.607 14.524 23.6061 14.6946 23.4317C15.1606 22.9552 15.6312 22.482 16.0972 22.0055C16.1886 21.9123 16.2738 21.814 16.2215 21.6601C16.16 21.4814 16.0193 21.4866 15.8727 21.4806C15.3439 21.4614 15.3439 21.4596 15.3439 20.9019C15.3439 20.8232 15.354 20.7425 15.3422 20.6651C15.2917 20.3433 15.4202 20.2039 15.7315 20.0821C17.0233 19.5748 17.7842 18.584 17.9653 17.2039C18.042 16.6218 17.9953 16.0803 17.8314 15.5824ZM14.5379 18.9623C14.5063 18.964 14.4743 18.9644 14.4423 18.9644C14.4001 18.9644 14.358 18.9632 14.3163 18.961C14.2114 18.9546 14.1086 18.9409 14.0083 18.9196C13.9165 18.9008 13.8272 18.8755 13.7399 18.8448C13.6047 18.7977 13.4754 18.7366 13.3536 18.664C13.2306 18.5909 13.1147 18.5054 13.0085 18.4097C12.9062 18.3173 12.8122 18.2156 12.7279 18.1049C12.4469 17.7365 12.2767 17.2753 12.2683 16.774C12.2679 16.7547 12.2679 16.7359 12.2679 16.7167C12.2767 15.5691 13.0844 14.6758 14.1794 14.5506C14.2662 14.5403 14.3546 14.5352 14.4448 14.5352C14.5864 14.5352 14.725 14.548 14.8581 14.5728C15.8735 14.7596 16.6163 15.6315 16.6197 16.7201C16.6234 17.9275 15.6995 18.9123 14.5379 18.9623Z" fill="#E61E25"/>
<path d="M15.2282 17.7804C15.1836 17.8894 15.1216 18.0039 15.0041 18.0394C14.7976 18.1014 14.6818 18.1958 14.7087 18.4446C14.7205 18.5519 14.654 18.6258 14.563 18.6592C14.5272 18.6715 14.488 18.6784 14.448 18.6784C14.4083 18.678 14.3713 18.6728 14.3376 18.6613C14.2339 18.6284 14.1636 18.545 14.1762 18.4134C14.1901 18.2681 14.1568 18.1809 14.0713 18.124C14.033 18.0984 13.9845 18.0787 13.9247 18.0629C13.8067 18.0321 13.725 17.936 13.6757 17.8244C13.6656 17.8009 13.6563 17.777 13.6487 17.7522C13.6222 17.6671 13.6057 17.5774 13.6255 17.4983C13.6411 17.4338 13.6807 17.3761 13.757 17.3346C13.8754 17.2701 14.0005 17.2752 14.0877 17.3709C14.1012 17.385 14.113 17.4013 14.124 17.4197C14.1261 17.4227 14.1282 17.4257 14.1299 17.4291C14.2655 17.6667 14.48 17.5487 14.6506 17.5381H14.651C14.7724 17.5299 14.6919 17.3603 14.7125 17.2705C14.7336 17.1688 14.7231 17.1034 14.6877 17.0636C14.6447 17.0141 14.563 17.0038 14.4551 17.0119C14.405 17.0153 14.354 17.0183 14.3043 17.0192C14.2529 17.0205 14.2023 17.0192 14.153 17.0149C13.9205 16.9948 13.7212 16.9004 13.6369 16.6003C13.6133 16.5157 13.5973 16.4328 13.5876 16.3533C13.5354 15.9101 13.6997 15.5463 14.0578 15.3578C14.1952 15.2856 14.1678 15.2018 14.1682 15.1091C14.169 15.0202 14.1893 14.9458 14.2293 14.8911C14.2739 14.8291 14.3439 14.7928 14.4387 14.7911C14.6177 14.7873 14.7353 14.9108 14.7125 15.0976C14.7083 15.1309 14.7079 15.1608 14.7104 15.186C14.7235 15.3061 14.8082 15.3506 14.9308 15.3942C15.0976 15.4532 15.2093 15.5899 15.2514 15.7643C15.2864 15.9088 15.2746 16.0481 15.1259 16.1443C14.962 16.2494 14.8314 16.1738 14.7656 16.0438C14.6384 15.7921 14.4185 15.8874 14.2621 15.9156C14.247 15.9186 14.2335 15.9225 14.2225 15.928C14.1079 15.9836 14.1926 16.1656 14.1745 16.2828C14.1648 16.3456 14.1733 16.3841 14.1931 16.408C14.2339 16.4571 14.3241 16.443 14.4003 16.4469C14.5057 16.4524 14.6038 16.4665 14.6923 16.4896C14.705 16.4926 14.7176 16.496 14.7298 16.4999C15.2817 16.6585 15.4869 17.147 15.2282 17.7804Z" fill="#E61E25"/>
</g>
<defs>
<clipPath id="clip0_318_191">
<rect width="12" height="25" fill="white" transform="translate(6)"/>
</clipPath>
</defs>
</svg>
