<svg width="25" height="25" viewBox="0 0 25 25" fill="none" xmlns="http://www.w3.org/2000/svg">
<g clip-path="url(#clip0_374_32)">
<path d="M24.9919 7.89215C24.9919 7.96864 24.9919 8.03818 24.9919 8.10425C24.9919 11.9081 24.9919 15.7155 24.9919 19.5194C24.9919 20.7468 24.971 21.9742 24.9988 23.2016C25.0196 24.1682 24.2179 24.9992 23.2113 24.9958C16.0581 24.9853 8.90134 24.9923 1.74807 24.9888C0.765837 24.9888 0.0161497 24.2308 0.00573741 23.2225C-0.00467492 22.2524 0.00226663 21.2823 0.00226663 20.3122C0.00226663 16.2614 0.00226663 12.2072 0.00226663 8.1564C0.00226663 8.07296 0.00226663 7.98603 0.00226663 7.88867C8.33213 7.89215 16.6481 7.89215 24.9919 7.89215ZM10.9005 17.2385C11.9834 17.2385 13.0385 17.2385 14.1006 17.2385C14.1006 16.5118 14.1006 15.799 14.1006 15.0792C14.0728 15.0723 14.052 15.0618 14.0311 15.0618C13.0281 15.0618 12.0285 15.0618 11.0255 15.0584C10.9074 15.0584 10.9005 15.1175 10.9005 15.2113C10.904 15.6529 10.9005 16.0945 10.9005 16.5361C10.9005 16.7621 10.9005 16.9916 10.9005 17.2385ZM10.9005 22.4297C11.9834 22.4297 13.0385 22.4297 14.1006 22.4297C14.1006 21.703 14.1006 20.9902 14.1006 20.2705C14.0728 20.2635 14.052 20.2531 14.0277 20.2531C13.0246 20.2531 12.025 20.2531 11.022 20.2496C10.904 20.2496 10.897 20.3087 10.897 20.4026C10.9005 20.8442 10.897 21.2858 10.897 21.7273C10.9005 21.9568 10.9005 22.1863 10.9005 22.4297ZM6.41279 15.0757C5.34379 15.0757 4.28868 15.0757 3.2405 15.0757C3.2405 15.8059 3.2405 16.5222 3.2405 17.2385C4.30603 17.2385 5.3542 17.2385 6.41279 17.2385C6.41279 16.5152 6.41279 15.799 6.41279 15.0757ZM21.764 15.0723C20.695 15.0723 19.6434 15.0723 18.5917 15.0723C18.5917 15.8024 18.5917 16.5187 18.5917 17.2385C19.6538 17.2385 20.702 17.2385 21.764 17.2385C21.764 16.5152 21.764 15.799 21.764 15.0723ZM3.23703 22.4297C4.30256 22.4297 5.35767 22.4297 6.40932 22.4297C6.40932 21.703 6.40932 20.9902 6.40932 20.2705C5.34379 20.2705 4.28868 20.2705 3.23703 20.2705C3.23703 20.9937 3.23703 21.703 3.23703 22.4297ZM18.5952 20.2565C18.5952 20.9972 18.5952 21.7169 18.5952 22.4262C19.6607 22.4262 20.7089 22.4262 21.7744 22.4262C21.7744 21.7273 21.7744 21.0458 21.7744 20.3643C21.7744 20.2461 21.7016 20.2565 21.6252 20.2565C21.2087 20.2565 20.7887 20.2565 20.3723 20.2565C19.7857 20.2565 19.1957 20.2565 18.5952 20.2565ZM10.9074 12.0403C11.9799 12.0403 13.0385 12.0403 14.0971 12.0403C14.0971 11.317 14.0971 10.6042 14.0971 9.88798C13.0281 9.88798 11.973 9.88798 10.9074 9.88798C10.9074 10.6077 10.9074 11.3136 10.9074 12.0403ZM21.7675 9.89145C20.7054 9.89145 19.6503 9.89145 18.5952 9.89145C18.5952 10.6147 18.5952 11.331 18.5952 12.0403C19.6607 12.0403 20.7089 12.0403 21.7675 12.0403C21.7675 11.317 21.7675 10.6077 21.7675 9.89145Z" fill="white"/>
<path d="M5.3153 1.75891C10.1154 1.75891 14.8912 1.75891 19.6913 1.75891C19.6913 1.82497 19.6913 1.88408 19.6913 1.94667C19.6913 2.65946 19.6878 3.36878 19.6947 4.08158C19.6947 4.37017 19.903 4.60314 20.1737 4.64486C20.4479 4.68658 20.7082 4.53359 20.795 4.26934C20.8158 4.1998 20.8227 4.1233 20.8227 4.05028C20.8262 3.35487 20.8227 2.66294 20.8227 1.96753C20.8227 1.90494 20.8227 1.84236 20.8227 1.75543C20.8956 1.75543 20.9546 1.75543 21.0171 1.75543C21.7737 1.75543 22.5304 1.75543 23.287 1.75543C24.1963 1.75543 24.9807 2.50647 24.9877 3.41398C25.0015 4.74569 24.9911 6.07741 24.9911 7.40912C24.9911 7.43693 24.9842 7.46475 24.9807 7.503C16.6578 7.503 8.34529 7.503 0.00848412 7.503C0.00501334 7.44736 0.00154257 7.39173 0.00154257 7.33957C0.00154257 6.07045 -0.00192821 4.8048 0.00154257 3.53568C0.00501334 2.70467 0.52563 2.01621 1.29614 1.81106C1.41068 1.77977 1.53215 1.75543 1.65016 1.75543C2.45191 1.75195 3.25366 1.75195 4.05541 1.75195C4.09012 1.75195 4.12135 1.75891 4.17689 1.76238C4.17689 1.82845 4.17689 1.89104 4.17689 1.95015C4.17689 2.66642 4.17342 3.38617 4.18036 4.10244C4.18383 4.36322 4.35043 4.56489 4.59338 4.63095C4.83633 4.69354 5.10011 4.60314 5.21465 4.38408C5.27365 4.27282 5.30836 4.13373 5.31183 4.00856C5.32224 3.32706 5.3153 2.64208 5.3153 1.96058C5.3153 1.89799 5.3153 1.8354 5.3153 1.75891Z" fill="white"/>
<path d="M4.54688 2.11639C4.54688 1.49052 4.54688 0.868126 4.54688 0.242257C4.54688 0.0823127 4.61629 -0.00461357 4.74471 0.00234053C4.88701 0.00929463 4.93907 0.106652 4.93907 0.235303C4.93907 1.5079 4.93907 2.7805 4.93907 4.05311C4.93907 4.18523 4.88701 4.27564 4.73777 4.27564C4.58505 4.27216 4.54688 4.1748 4.54688 4.04615C4.55035 3.39942 4.55035 2.75617 4.54688 2.11639Z" fill="white"/>
<path d="M20.4478 2.13415C20.4478 2.77045 20.4478 3.40675 20.4478 4.04305C20.4478 4.1717 20.4304 4.27601 20.2707 4.27601C20.1146 4.27601 20.0625 4.18909 20.0625 4.04305C20.0625 2.7774 20.0625 1.50828 20.0625 0.242633C20.0625 0.0896425 20.1458 -0.00771491 20.2673 0.00271624C20.413 0.0131474 20.4478 0.110505 20.4478 0.242633C20.4443 0.871979 20.4478 1.50133 20.4478 2.13415Z" fill="white"/>
</g>
<defs>
<clipPath id="clip0_374_32">
<rect width="25" height="25" fill="white"/>
</clipPath>
</defs>
</svg>
