<svg width="25" height="25" viewBox="0 0 25 25" fill="none" xmlns="http://www.w3.org/2000/svg">
<g clip-path="url(#clip0_374_25)">
<path d="M0.00215345 8.17188C8.34119 8.17188 16.6588 8.17188 24.9872 8.17188C24.9915 8.21891 24.9957 8.26167 24.9957 8.3023C24.9957 10.6242 24.9957 12.944 24.9957 15.2659C24.9957 17.8443 24.9936 20.4249 24.9979 23.0034C25 24.1066 24.1253 24.996 23.0195 24.996C16.0194 24.996 9.01918 24.9918 2.01901 25.0003C0.926099 25.0025 -0.00426283 24.1387 1.46918e-05 23.0034C0.00643098 20.2731 0.00215345 17.5429 0.00215345 14.8105C0.00215345 12.6639 0.00215345 10.5194 1.46918e-05 8.37285C0.00215345 8.31298 0.00215345 8.24884 0.00215345 8.17188ZM3.6573 19.8199C3.26804 19.8199 2.87665 19.8177 2.4874 19.8199C2.22647 19.822 2.04467 19.9781 2.04253 20.224C2.03398 20.9787 2.03398 21.7355 2.04039 22.4903C2.04253 22.7426 2.20508 22.8944 2.45745 22.9072C2.56011 22.9115 2.66277 22.9072 2.76544 22.9072C3.43915 22.9072 4.11072 22.9093 4.78443 22.9093C5.1138 22.9093 5.28276 22.7447 5.28276 22.4176C5.28276 21.7099 5.2849 21.0043 5.28276 20.2967C5.28062 19.9845 5.11166 19.8199 4.80154 19.8199C4.41656 19.8199 4.038 19.8199 3.6573 19.8199ZM15.4675 19.8199C15.2879 19.8199 15.1061 19.8199 14.9264 19.8199C14.7468 19.8199 14.565 19.8199 14.3853 19.8199C13.9619 19.8199 13.8293 19.9546 13.8293 20.3822C13.8293 21.0492 13.8293 21.7184 13.8271 22.3855C13.8271 22.7597 13.9726 22.9072 14.349 22.9072C15.0911 22.9093 15.8311 22.9093 16.5733 22.9093C16.9112 22.9093 17.0738 22.7468 17.0759 22.4069C17.078 21.7099 17.078 21.0129 17.0759 20.3159C17.0759 19.9909 16.9048 19.8199 16.5818 19.8199C16.2076 19.8199 15.8376 19.8199 15.4675 19.8199ZM15.459 14.6929C15.459 14.6907 15.459 14.6907 15.459 14.6929C15.059 14.6907 14.6591 14.6886 14.2591 14.6907C14.0089 14.6929 13.8335 14.8447 13.8314 15.0927C13.8228 15.8474 13.8228 16.6043 13.8314 17.359C13.8335 17.6134 14.0132 17.7674 14.2677 17.7674C15.0526 17.7674 15.8376 17.7674 16.6225 17.7652C16.8855 17.7652 17.0652 17.6113 17.0695 17.3483C17.078 16.5979 17.078 15.8474 17.0695 15.097C17.0673 14.8447 16.8834 14.6907 16.6289 14.6907C16.2396 14.6907 15.8482 14.6929 15.459 14.6929ZM9.54745 22.9093C9.93243 22.9115 10.3174 22.9115 10.7024 22.9093C11.004 22.9072 11.1665 22.7468 11.1665 22.4496C11.1686 21.7291 11.1686 21.0065 11.1686 20.286C11.1686 19.9909 10.9997 19.8199 10.7088 19.8199C9.93885 19.8199 9.16889 19.8199 8.39894 19.822C8.09951 19.822 7.9391 19.9845 7.9391 20.2817C7.93696 20.9979 7.93696 21.7142 7.93696 22.4304C7.93696 22.7511 8.08882 22.9072 8.40749 22.9093C8.78819 22.9115 9.16889 22.9093 9.54745 22.9093ZM3.65944 14.6929C3.25949 14.6929 2.85954 14.6907 2.45959 14.6929C2.21577 14.695 2.04253 14.8447 2.04039 15.0863C2.03184 15.841 2.03184 16.5957 2.03826 17.3526C2.04039 17.6177 2.21577 17.7674 2.48312 17.7674C3.26377 17.7674 4.04228 17.7674 4.82293 17.7674C5.10096 17.7674 5.27634 17.607 5.27848 17.3291C5.28276 16.5936 5.28276 15.8581 5.27848 15.1226C5.27634 14.8618 5.1031 14.695 4.84431 14.6929C4.45078 14.6907 4.05511 14.6929 3.65944 14.6929ZM21.3406 17.7674C21.7363 17.7674 22.1298 17.7695 22.5255 17.7674C22.795 17.7652 22.9575 17.5985 22.9575 17.3269C22.9575 16.6064 22.9596 15.8838 22.9596 15.1632C22.9596 14.8425 22.8078 14.6907 22.4848 14.6907C21.7149 14.6907 20.9449 14.6907 20.1728 14.6907C19.8884 14.6907 19.7194 14.8554 19.7194 15.144C19.7173 15.8752 19.7194 16.6064 19.7215 17.3376C19.7215 17.5942 19.8969 17.7674 20.1536 17.7674C20.5514 17.7674 20.9449 17.7674 21.3406 17.7674ZM15.4547 9.54877C15.074 9.54663 14.6933 9.54663 14.3148 9.54663C13.9897 9.54663 13.8293 9.70912 13.8293 10.0298C13.8293 10.7375 13.8293 11.4431 13.8314 12.1508C13.8314 12.4715 13.9854 12.6297 14.3041 12.6297C15.0697 12.6318 15.8354 12.6339 16.6011 12.6318C16.9048 12.6318 17.0759 12.465 17.0759 12.1636C17.078 11.4473 17.078 10.7311 17.0738 10.0149C17.0716 9.71767 16.9048 9.5509 16.6118 9.54877C16.2247 9.54663 15.8397 9.54877 15.4547 9.54877ZM21.3363 12.6297C21.717 12.6318 22.0956 12.6318 22.4763 12.6318C22.8099 12.6318 22.9596 12.4821 22.9596 12.1508C22.9596 11.4495 22.9596 10.7482 22.9575 10.0469C22.9575 9.69843 22.8078 9.54877 22.4613 9.54877C21.7063 9.54877 20.9513 9.54877 20.1942 9.54877C19.8927 9.54877 19.7237 9.71553 19.7237 10.0191C19.7215 10.7354 19.7215 11.4516 19.7215 12.1679C19.7215 12.4586 19.8755 12.6254 20.1664 12.6297C20.5557 12.6361 20.9449 12.6297 21.3363 12.6297ZM9.54531 12.6318C9.94098 12.6339 10.3345 12.6382 10.7302 12.6318C11.0125 12.6275 11.1686 12.4608 11.1686 12.1785C11.1686 11.4473 11.1686 10.7161 11.1665 9.98706C11.1665 9.72622 11.0104 9.55518 10.7559 9.55304C9.95596 9.54663 9.1582 9.54663 8.3583 9.5509C8.09523 9.55304 7.9391 9.72622 7.93696 9.99134C7.93696 10.7119 7.93696 11.4324 7.93696 12.155C7.93696 12.4886 8.08026 12.6318 8.41819 12.6339C8.79461 12.6318 9.17103 12.6318 9.54531 12.6318ZM9.54745 17.7674C9.74636 17.7674 9.9474 17.7674 10.1463 17.7674C10.3516 17.7674 10.5548 17.7674 10.7601 17.7652C10.9804 17.7631 11.1644 17.6027 11.1644 17.3868C11.1708 16.6171 11.1686 15.8474 11.1644 15.0777C11.1622 14.8618 10.9933 14.695 10.7815 14.6929C9.96237 14.6886 9.14323 14.6886 8.32622 14.6907C8.10806 14.6907 7.9391 14.8639 7.93696 15.0841C7.93269 15.8346 7.93269 16.585 7.93483 17.3333C7.93483 17.6049 8.10379 17.7652 8.37541 17.7652C8.76894 17.7674 9.1582 17.7674 9.54745 17.7674Z" fill="white"/>
<path d="M0.00390625 7.75202C0.00390625 7.63657 0.00390625 7.5318 0.00390625 7.4249C0.00390625 6.49272 0.00390625 5.56268 0.00390625 4.6305C0.00390625 3.54438 0.87866 2.66992 1.96301 2.66992C2.56401 2.66992 3.16286 2.66992 3.76385 2.66992C3.81732 2.66992 3.86865 2.66992 3.94565 2.66992C3.94565 2.92649 3.94565 3.1745 3.94565 3.42037C3.94565 3.99978 3.94137 4.58132 3.94779 5.16073C3.9542 5.86842 4.45681 6.3623 5.1626 6.3623C5.45561 6.3623 5.74862 6.36444 6.04163 6.36444C6.40309 6.36444 6.76454 6.36444 7.12385 6.36444C7.82536 6.36658 8.32797 5.86414 8.32797 5.15859C8.32797 4.3889 8.32797 3.61707 8.32797 2.84738C8.32797 2.79393 8.32797 2.74261 8.32797 2.67847C11.1105 2.67847 13.8845 2.67847 16.6734 2.67847C16.6734 3.11891 16.6734 3.5572 16.6734 3.99336C16.6734 4.40387 16.6691 4.81223 16.6756 5.22273C16.682 5.83848 17.1867 6.35375 17.8006 6.36016C18.5128 6.36872 19.2228 6.36872 19.935 6.3623C20.5403 6.35803 21.0558 5.81924 21.0558 5.20135C21.0579 4.41242 21.0558 3.62135 21.0558 2.83241C21.0558 2.78538 21.0558 2.7362 21.0558 2.66992C21.1178 2.66992 21.1691 2.66992 21.2204 2.66992C21.83 2.66992 22.4395 2.66992 23.0491 2.66992C24.0928 2.66992 24.9761 3.51231 24.9954 4.55353C25.0125 5.59261 24.9996 6.62956 24.9996 7.66864C24.9996 7.69216 24.9954 7.71568 24.9911 7.74988C16.6691 7.75202 8.3515 7.75202 0.00390625 7.75202Z" fill="white"/>
<path d="M7.92527 2.99251C7.92527 3.70447 7.9103 4.41644 7.92955 5.12627C7.94452 5.68002 7.51677 5.98575 7.08474 5.96865C6.43242 5.94299 5.77795 5.96224 5.12563 5.9601C4.67863 5.95796 4.34926 5.63298 4.34926 5.18613C4.34712 3.71944 4.34712 2.25275 4.34926 0.786062C4.34926 0.326385 4.67221 0.00354241 5.12991 0.00354241C5.79934 -0.000733656 6.46664 -0.000733656 7.13393 0.00140437C7.60874 0.00140437 7.92099 0.309281 7.92313 0.786062C7.92955 1.51941 7.92527 2.25703 7.92527 2.99251Z" fill="white"/>
<path d="M17.0803 2.98202C17.0803 2.24654 17.0803 1.51105 17.0803 0.773433C17.0803 0.32017 17.3947 0.00374155 17.8502 0.00160352C18.5325 -0.000534508 19.2147 -0.000534508 19.897 0.00160352C20.3184 0.00374155 20.6477 0.332998 20.6477 0.752052C20.6477 2.23798 20.6477 3.72605 20.6477 5.21199C20.6477 5.63104 20.3205 5.96243 19.897 5.96457C19.2041 5.96671 18.5132 5.96671 17.8203 5.96243C17.3968 5.9603 17.0781 5.63532 17.0781 5.20557C17.0781 4.46367 17.0803 3.72178 17.0803 2.98202Z" fill="white"/>
</g>
<defs>
<clipPath id="clip0_374_25">
<rect width="25" height="25" fill="white"/>
</clipPath>
</defs>
</svg>
