<svg width="25" height="25" viewBox="0 0 25 25" fill="none" xmlns="http://www.w3.org/2000/svg">
<g clip-path="url(#clip0_756_342)">
<path d="M12.4921 17.4648C11.0972 17.4648 9.70225 17.46 8.30775 17.47C8.10836 17.4716 8.08126 17.4068 8.08652 17.2329C8.14597 15.2379 9.75887 13.4293 11.7617 13.1206C14.1179 12.7571 16.2671 14.1913 16.8078 16.4911C16.8677 16.7455 16.8984 17.0047 16.913 17.2667C16.9219 17.4237 16.881 17.4692 16.7168 17.4684C15.3086 17.462 13.9003 17.4648 12.4921 17.4648Z" fill="white"/>
<path d="M12.4959 12.5561C10.8247 12.5533 9.46701 11.1943 9.47267 9.52984C9.47834 7.87902 10.8453 6.52528 12.5035 6.52931C14.1735 6.53333 15.5336 7.89553 15.5267 9.55762C15.5194 11.2104 14.1569 12.5586 12.4959 12.5561Z" fill="white"/>
<path d="M22.6509 16.9216C23.3712 16.9216 24.0915 16.9261 24.8118 16.918C24.9643 16.9164 25.0007 16.9591 24.9998 17.1088C24.9934 18.3418 24.9934 19.5744 24.9998 20.8074C25.0007 20.9543 24.9683 21.0014 24.8138 21.0006C23.3667 20.9945 21.9192 20.9941 20.4722 20.9994C20.3257 20.9998 20.2942 20.9547 20.2946 20.8182C20.2991 19.5788 20.3007 18.339 20.293 17.0996C20.2918 16.9365 20.35 16.918 20.4904 16.9192C21.2107 16.9257 21.931 16.9224 22.6513 16.9224C22.6509 16.9224 22.6509 16.922 22.6509 16.9216ZM22.6497 20.6717C23.2357 20.6717 23.8221 20.6669 24.4082 20.6749C24.5618 20.6769 24.6148 20.6431 24.6132 20.4773C24.6047 19.4645 24.6063 18.4517 24.6132 17.4393C24.6144 17.2871 24.572 17.2505 24.4203 17.2513C23.2413 17.2578 22.062 17.257 20.8831 17.2513C20.731 17.2505 20.6756 17.2823 20.6768 17.4474C20.6845 18.4601 20.6837 19.4729 20.6768 20.4853C20.6756 20.6383 20.7213 20.6777 20.8709 20.6757C21.4634 20.6673 22.0567 20.6721 22.6497 20.6717Z" fill="white"/>
<path d="M2.34414 20.9957C1.62383 20.9957 0.903527 20.9929 0.183221 20.9985C0.0485425 20.9997 -0.000799112 20.9707 9.76644e-06 20.8238C0.00607635 19.5776 0.00607635 18.3313 0.000414206 17.085C-0.000394673 16.9478 0.0432848 16.918 0.170683 16.9184C1.63152 16.922 3.09235 16.9228 4.55278 16.918C4.68625 16.9176 4.70525 16.9655 4.70485 17.081C4.70121 18.3341 4.70081 19.5868 4.70485 20.8399C4.70525 20.9631 4.67088 20.9989 4.5455 20.9977C3.81185 20.9917 3.0782 20.9949 2.34414 20.9949C2.34414 20.9949 2.34414 20.9953 2.34414 20.9957ZM2.35061 20.6696C2.35061 20.6701 2.35061 20.6701 2.35061 20.6705C2.95039 20.6705 3.55018 20.6672 4.14955 20.6729C4.28019 20.6741 4.32346 20.6378 4.32266 20.5034C4.3174 19.4773 4.31659 18.4512 4.32225 17.4252C4.32306 17.2799 4.27331 17.2489 4.13742 17.2493C2.94473 17.2541 1.75204 17.2545 0.559754 17.2497C0.427502 17.2493 0.387058 17.2839 0.387462 17.4171C0.39272 18.4432 0.393933 19.4693 0.387867 20.4953C0.387058 20.6419 0.436804 20.6737 0.571887 20.6721C1.16439 20.6664 1.7577 20.6696 2.35061 20.6696Z" fill="white"/>
<path d="M2.35183 7.07251C1.63072 7.07251 0.910009 7.06809 0.188894 7.07614C0.0360164 7.07775 2.12619e-05 7.03508 0.00083014 6.88574C0.00730117 5.65155 0.00811004 4.41736 2.12619e-05 3.18357C-0.00119206 3.02376 0.0493628 3.00122 0.192939 3.00162C1.62829 3.00645 3.06365 3.00686 4.4986 3.00001C4.6632 2.99921 4.70931 3.03544 4.7081 3.20611C4.6996 4.42662 4.70001 5.64752 4.70769 6.86802C4.70891 7.0379 4.66037 7.07775 4.49455 7.07533C3.78031 7.06567 3.06607 7.07131 2.35183 7.07131C2.35183 7.07171 2.35183 7.07211 2.35183 7.07251ZM2.35143 3.32889C2.35143 3.32849 2.35143 3.32849 2.35143 3.32808C1.75165 3.32808 1.15186 3.3309 0.552081 3.32567C0.431558 3.32446 0.388283 3.35304 0.388687 3.48185C0.393945 4.52162 0.393136 5.56098 0.389901 6.60074C0.389496 6.71586 0.426705 6.74766 0.540756 6.74726C1.74679 6.74364 2.95324 6.74404 4.15968 6.74686C4.27575 6.74726 4.32388 6.7223 4.32307 6.59108C4.31781 5.55816 4.31822 4.52524 4.32388 3.49232C4.32469 3.35666 4.28101 3.32486 4.15078 3.32607C3.551 3.33251 2.95121 3.32889 2.35143 3.32889Z" fill="white"/>
<path d="M22.65 3.0052C23.3776 3.0052 24.1056 3.00882 24.8332 3.00198C24.9691 3.00077 24.9994 3.04103 24.999 3.16984C24.9942 4.41731 24.9934 5.66478 24.9994 6.91226C25.0002 7.05274 24.9509 7.07569 24.8263 7.07529C23.3708 7.07166 21.9156 7.07086 20.46 7.07609C20.3201 7.07649 20.2942 7.0298 20.2946 6.9038C20.2986 5.65633 20.3003 4.40886 20.293 3.16139C20.2922 3.01406 20.35 3.00238 20.4673 3.00319C21.1949 3.00681 21.9229 3.0048 22.6505 3.0048C22.65 3.0048 22.65 3.0052 22.65 3.0052ZM22.6658 6.74641C22.6658 6.74601 22.6658 6.74561 22.6658 6.7452C23.2523 6.7452 23.8383 6.74158 24.4247 6.74802C24.5574 6.74963 24.6124 6.72669 24.6116 6.57573C24.6047 5.54966 24.6063 4.52318 24.6116 3.4971C24.6124 3.36668 24.5792 3.32522 24.4433 3.32602C23.2506 3.33126 22.0579 3.33247 20.8649 3.32562C20.7071 3.32482 20.6756 3.37312 20.6764 3.51844C20.6825 4.52439 20.6841 5.53074 20.6764 6.53669C20.6752 6.70133 20.718 6.75285 20.8867 6.75003C21.4796 6.74078 22.0725 6.74641 22.6658 6.74641Z" fill="white"/>
<path d="M1.38085 14.5599C1.59601 14.6352 1.81279 14.706 2.02553 14.7877C2.1412 14.832 2.19499 14.8304 2.1873 14.6819C2.17638 14.4681 2.19054 14.2527 2.18205 14.0386C2.1776 13.9255 2.20995 13.8856 2.32764 13.8889C2.60347 13.8965 2.8797 13.8909 3.15594 13.8909C4.96054 13.8909 6.76475 13.8913 8.56935 13.8901C8.6919 13.8901 8.79988 13.8647 8.79624 14.0632C8.7926 14.2503 8.6923 14.2242 8.57785 14.2238C6.62521 14.223 4.67258 14.2258 2.71995 14.2193C2.5513 14.2189 2.49346 14.2588 2.51328 14.4266C2.52784 14.5522 2.51611 14.6806 2.51611 14.8344C2.79477 14.7402 3.05887 14.6509 3.32337 14.5619L3.31933 14.5663C3.26513 14.741 3.12318 14.8598 3.03015 15.0107C2.7705 15.4306 2.55413 15.8714 2.35595 16.3665C2.25727 16.1435 2.17841 15.9487 2.0866 15.7603C1.90258 15.3815 1.69672 15.0152 1.4395 14.6794C1.41442 14.6468 1.35982 14.6219 1.38571 14.5635C1.3853 14.5643 1.38085 14.5599 1.38085 14.5599Z" fill="white"/>
<path d="M23.6192 14.5671C23.3924 14.9346 23.1351 15.2848 22.9539 15.6793C22.8549 15.8951 22.7574 16.1116 22.645 16.3588C22.4112 15.7868 22.156 15.2679 21.8223 14.7893C21.7726 14.718 21.669 14.6738 21.6868 14.5614L21.6816 14.5574C21.8971 14.6331 22.1139 14.7047 22.3271 14.7865C22.4387 14.8291 22.4892 14.8368 22.4896 14.6842C22.4905 14.2221 22.4973 14.2221 22.0367 14.2221C20.1649 14.2221 18.2936 14.2185 16.4219 14.2273C16.2285 14.2281 16.1958 14.1633 16.2099 13.9995C16.2176 13.9101 16.2492 13.884 16.3325 13.8888C16.4198 13.8936 16.5076 13.8892 16.595 13.8892C18.5945 13.8892 20.594 13.8924 22.5936 13.8848C22.7841 13.884 22.8354 13.9387 22.8197 14.1182C22.8039 14.2978 22.8253 14.4805 22.8132 14.6605C22.8019 14.8271 22.8589 14.8332 22.9948 14.7784C23.1994 14.6963 23.4122 14.6331 23.6213 14.5618C23.6217 14.5627 23.6192 14.5671 23.6192 14.5671Z" fill="white"/>
<path d="M1.33203 9.45334C1.78258 8.87932 2.08469 8.28798 2.3496 7.625C2.62624 8.27591 2.91177 8.88093 3.32066 9.43442C3.10267 9.35834 2.88103 9.29111 2.6683 9.20256C2.52674 9.14338 2.51502 9.1945 2.5138 9.31688C2.50935 9.77014 2.50612 9.77014 2.95828 9.77014C4.83083 9.77014 6.70379 9.77296 8.57634 9.76571C8.75875 9.76491 8.81254 9.81442 8.79151 9.98872C8.7814 10.0728 8.7636 10.1131 8.67503 10.1018C8.64874 10.0986 8.62124 10.1018 8.59414 10.1018C6.52624 10.1018 4.45794 10.0994 2.39004 10.1059C2.22058 10.1063 2.16801 10.0636 2.18216 9.89613C2.19753 9.70976 2.1761 9.52016 2.18823 9.33338C2.19915 9.16874 2.14334 9.15707 2.00664 9.21222C1.80361 9.29474 1.59411 9.36075 1.33203 9.45334Z" fill="white"/>
<path d="M23.6079 9.43488C23.4137 9.36403 23.2172 9.29923 23.0259 9.22113C22.873 9.15874 22.795 9.16357 22.8132 9.36323C22.8293 9.54276 22.8063 9.72592 22.8192 9.90585C22.8305 10.0608 22.7865 10.1075 22.6231 10.1067C21.3568 10.0995 20.0901 10.1027 18.8238 10.1027C18.0153 10.1027 17.2068 10.1007 16.3988 10.1051C16.2742 10.1059 16.2058 10.0987 16.207 9.94007C16.2079 9.78871 16.2633 9.76899 16.3943 9.76899C18.3477 9.77221 20.3016 9.76899 22.255 9.77422C22.4297 9.77463 22.4997 9.74403 22.4916 9.54961C22.475 9.15069 22.4872 9.15069 22.0993 9.29077C21.9622 9.34028 21.8235 9.38577 21.629 9.45259C22.0775 8.87938 22.384 8.29046 22.6445 7.62305C22.9211 8.27395 23.2091 8.87817 23.6079 9.43488Z" fill="white"/>
<path d="M3.32437 14.5605L3.3268 14.5642C3.3268 14.5642 3.31993 14.5658 3.32033 14.5654L3.32437 14.5605Z" fill="white"/>
<path d="M1.38861 14.5626L1.37891 14.5639C1.37891 14.5639 1.38497 14.559 1.38457 14.5586C1.38416 14.5582 1.38861 14.5626 1.38861 14.5626Z" fill="white"/>
<path d="M21.6859 14.5622L21.6758 14.5659C21.6758 14.5659 21.6814 14.5586 21.681 14.5586C21.6806 14.5582 21.6859 14.5622 21.6859 14.5622Z" fill="white"/>
<path d="M23.6196 14.5625H23.6241C23.6241 14.5625 23.6168 14.5673 23.6172 14.5669C23.6176 14.5665 23.6196 14.5625 23.6196 14.5625Z" fill="white"/>
<path d="M22.6466 20.5157C22.1006 20.5153 21.555 20.5116 21.0095 20.5181C20.8764 20.5197 20.8359 20.479 20.8368 20.3474C20.8412 19.422 20.8416 18.4961 20.8359 17.5707C20.8351 17.4366 20.8776 17.4004 21.0082 17.4008C22.1067 17.4048 23.2047 17.4044 24.3032 17.4004C24.4262 17.4 24.4638 17.437 24.463 17.561C24.4581 18.4933 24.4565 19.4256 24.4638 20.3579C24.465 20.5064 24.4015 20.5185 24.2838 20.5177C23.7382 20.514 23.1922 20.5161 22.6466 20.5157Z" fill="white"/>
<path d="M2.35031 17.4037C2.88943 17.4037 3.42855 17.4085 3.96726 17.4009C4.11205 17.3988 4.16584 17.4302 4.16463 17.5876C4.15694 18.4998 4.15775 19.412 4.16382 20.3241C4.16463 20.4694 4.12984 20.5205 3.97373 20.5193C2.88902 20.5129 1.80391 20.5141 0.719209 20.5189C0.583317 20.5193 0.53438 20.4883 0.535593 20.3418C0.542469 19.4232 0.543278 18.5042 0.535189 17.5852C0.533571 17.425 0.59181 17.3988 0.73296 17.4005C1.27208 17.4077 1.81119 17.4037 2.35031 17.4037Z" fill="white"/>
<path d="M2.35664 6.58908C1.81105 6.58908 1.26546 6.58505 0.720277 6.5923C0.579128 6.59431 0.537875 6.55325 0.539088 6.41156C0.545155 5.49336 0.545155 4.57476 0.539088 3.65657C0.538279 3.5185 0.573466 3.47381 0.717446 3.47462C1.80822 3.48026 2.89939 3.47945 3.99017 3.47543C4.11878 3.47502 4.16691 3.50964 4.1665 3.64449C4.16165 4.56953 4.16205 5.49457 4.1665 6.41961C4.16731 6.55083 4.12606 6.5935 3.9934 6.59189C3.44741 6.58545 2.90223 6.58908 2.35664 6.58908Z" fill="white"/>
<path d="M22.6563 3.47708C23.2019 3.47708 23.7471 3.4807 24.2927 3.47466C24.4225 3.47305 24.4654 3.50606 24.4642 3.64293C24.4577 4.56796 24.4585 5.493 24.4634 6.41804C24.4642 6.54685 24.4318 6.59234 24.2959 6.59154C23.1983 6.58671 22.1006 6.58711 21.003 6.59033C20.8833 6.59073 20.8368 6.55732 20.8372 6.43173C20.8412 5.49985 20.8424 4.56837 20.8359 3.63649C20.8351 3.48956 20.9019 3.47426 21.0196 3.47507C21.5656 3.47869 22.1111 3.47708 22.6563 3.47708Z" fill="white"/>
</g>
<defs>
<clipPath id="clip0_756_342">
<rect width="25" height="25" fill="white"/>
</clipPath>
</defs>
</svg>
