<svg width="25" height="25" viewBox="0 0 25 25" fill="none" xmlns="http://www.w3.org/2000/svg">
<path d="M12.2574 17.9588C15.2853 17.9588 18.3124 17.9571 21.3403 17.9596C22.9495 17.9613 24.1596 18.9965 24.4194 20.5842C24.6741 22.1404 23.4691 23.7546 21.9034 23.9465C21.6291 23.9797 21.3514 23.9976 21.0753 23.9976C15.1375 24.0002 9.19962 24.0002 3.26177 23.9993C1.76876 23.9993 0.627854 23.2472 0.174054 21.9724C-0.516473 20.0334 0.932951 17.9716 3.01564 17.9622C6.09567 17.9485 9.17655 17.9588 12.2574 17.9588ZM18.7414 22.9965C19.7746 22.9965 20.6361 22.1336 20.6258 21.1078C20.6155 20.0914 19.7618 19.2463 18.7431 19.2455C17.7261 19.2446 16.8715 20.088 16.8587 21.1061C16.8467 22.1302 17.7082 22.9957 18.7414 22.9965ZM10.3781 21.1351C10.3824 22.166 11.2131 22.9948 12.2429 22.9957C13.2847 22.9965 14.1179 22.1558 14.1145 21.1078C14.1102 20.0803 13.2761 19.2481 12.248 19.2455C11.2105 19.2438 10.3739 20.0888 10.3781 21.1351ZM5.70255 19.266C4.66163 19.2719 3.84718 20.0871 3.84376 21.1274C3.84035 22.1762 4.67017 23.0025 5.72391 23C6.76654 22.9974 7.59124 22.1583 7.58355 21.1052C7.57757 20.0769 6.7409 19.26 5.70255 19.266Z" fill="white"/>
<path d="M18.1031 15.6528C17.0058 15.6528 15.9085 15.6536 14.8103 15.6519C14.3881 15.651 14.2326 15.4984 14.2318 15.0797C14.23 12.8789 14.23 10.6781 14.2318 8.47725C14.2318 8.07306 14.383 7.91787 14.7881 7.91361C15.3957 7.90764 16.0025 7.91617 16.6101 7.9102C16.8819 7.90764 16.9887 8.02616 16.9862 8.29732C16.9768 9.0946 16.9819 9.89188 16.9836 10.6892C16.9845 11.0652 17.0349 11.1172 17.4041 11.1189C17.8946 11.1215 18.3843 11.1138 18.8749 11.1215C19.1312 11.1257 19.2364 11.0234 19.2329 10.7608C19.2227 9.96351 19.2278 9.16623 19.2295 8.36895C19.2304 7.98182 19.2928 7.91531 19.6679 7.91361C20.2431 7.9102 20.8191 7.9102 21.3943 7.91361C21.8498 7.91617 22.0002 8.0543 22.001 8.49856C22.0053 10.6883 22.0053 12.8789 22.001 15.0687C22.0002 15.5129 21.8464 15.6519 21.396 15.6528C20.2978 15.6536 19.2005 15.6528 18.1031 15.6528Z" fill="white"/>
<path d="M7.1631 4.99741C8.01515 4.99741 8.86634 4.99485 9.71839 4.99826C10.2756 4.99997 10.673 5.33679 10.7089 5.82624C10.7448 6.31569 10.4303 6.69429 9.88846 6.77871C9.65002 6.81623 9.61584 6.95181 9.59704 7.15305C9.49534 8.23513 8.92702 9.00768 7.95447 9.20806C7.42889 9.31636 6.84433 9.31636 6.31874 9.20977C5.35645 9.0145 4.77702 8.23769 4.67874 7.18886C4.65823 6.97142 4.63259 6.81026 4.35484 6.77359C3.86771 6.70879 3.53612 6.29437 3.5686 5.84841C3.60449 5.36066 3.99249 5.00338 4.5138 4.99997C5.39576 4.99315 6.27943 4.99741 7.1631 4.99741ZM7.14857 8.20528C7.16225 8.23428 7.17507 8.26327 7.18874 8.29226C7.50666 8.14133 7.83397 8.00575 8.13736 7.82924C8.20658 7.78916 8.19205 7.60583 8.21598 7.48901C8.10403 7.49498 7.96558 7.46002 7.88439 7.51204C7.29813 7.89234 6.98876 7.89149 6.39224 7.50692C6.31191 7.4549 6.17175 7.49498 6.0598 7.49328C6.08202 7.60498 6.06578 7.75506 6.13329 7.82242C6.40848 8.09529 6.75716 8.21722 7.14857 8.20528Z" fill="white"/>
<path d="M10.7788 17.5412C10.7788 16.535 10.7822 15.5689 10.7762 14.6019C10.7753 14.4169 10.8574 14.1261 10.5548 14.1355C10.266 14.144 10.3463 14.4314 10.3446 14.6181C10.3386 15.574 10.342 16.5299 10.342 17.5139C9.57204 17.5139 8.82511 17.5139 8.04143 17.5139C8.04143 16.9588 8.04143 16.4199 8.04143 15.8801C8.04143 15.5501 8.03374 15.2201 8.04399 14.891C8.05425 14.555 7.97648 14.2591 7.72266 14.0366C7.84828 13.8004 7.96793 13.5735 8.08672 13.3501C8.48583 13.6418 8.51745 13.6315 8.71486 13.1225C8.91826 12.598 9.11653 12.0719 9.32164 11.5492C9.45068 11.2201 9.5746 11.1621 9.87885 11.3215C11.283 12.0557 12.0675 13.2163 12.1752 14.7921C12.229 15.5757 12.1863 16.3653 12.1974 17.1523C12.2017 17.4244 12.0829 17.5446 11.8171 17.542C11.4795 17.5395 11.1411 17.5412 10.7788 17.5412Z" fill="white"/>
<path d="M6.04584 13.3227C6.16634 13.5547 6.28171 13.7772 6.41161 14.0262C6.13386 14.2871 6.08772 14.6512 6.09541 15.0469C6.11079 15.8629 6.09968 16.6798 6.09968 17.5385C5.39462 17.5385 4.71606 17.5436 4.03835 17.5274C3.98964 17.5266 3.90418 17.3611 3.90332 17.2725C3.89307 16.4121 3.89734 15.5508 3.89734 14.6896C3.89734 14.6043 3.92042 14.5105 3.89136 14.4364C3.84692 14.3247 3.77855 14.1516 3.69822 14.1379C3.49653 14.1038 3.47858 14.2803 3.47858 14.4389C3.47944 15.3419 3.47858 16.2458 3.47858 17.1488C3.47858 17.2648 3.47858 17.3799 3.47858 17.5027C3.04615 17.5445 2.63679 17.5922 2.22572 17.6161C2.17102 17.6195 2.05736 17.5001 2.05821 17.4396C2.08556 16.2543 1.89413 15.0529 2.22315 13.8881C2.53423 12.7872 3.21621 11.9524 4.22124 11.3922C4.61949 11.1705 4.72803 11.2123 4.87929 11.631C5.05876 12.1298 5.23396 12.6295 5.41257 13.1292C5.59375 13.6365 5.64417 13.651 6.04584 13.3227Z" fill="white"/>
<path d="M7.12933 4.56703C6.06363 4.56703 4.99707 4.56703 3.93137 4.56703C3.82454 4.56703 3.71772 4.56703 3.61174 4.5568C3.34596 4.53122 3.20238 4.36153 3.19555 4.1151C3.18871 3.86526 3.33143 3.66487 3.59209 3.66317C3.90146 3.66061 4.02794 3.50883 4.15015 3.25131C4.45097 2.61775 4.93298 2.14962 5.57137 1.84094C5.81665 1.72241 5.90467 1.79489 5.96962 2.03962C6.03457 2.28264 6.13371 2.52225 6.25677 2.74139C6.30121 2.8207 6.45761 2.83775 6.56272 2.88294C6.58409 2.77294 6.64049 2.65527 6.61742 2.5555C6.58238 2.40372 6.48581 2.26729 6.42599 2.11977C6.28241 1.7659 6.37471 1.38986 6.65331 1.16901C6.91055 0.96521 7.31222 0.964358 7.57373 1.1673C7.85148 1.38218 7.94805 1.76164 7.80875 2.11636C7.75833 2.24427 7.66517 2.36194 7.64125 2.49326C7.61817 2.61775 7.6609 2.75418 7.67457 2.8855C7.78738 2.81984 7.94121 2.77977 8.00531 2.68256C8.11983 2.50775 8.2164 2.30566 8.25657 2.10187C8.31639 1.79745 8.45569 1.81365 8.68473 1.91427C9.33765 2.20334 9.81367 2.67062 10.1119 3.31015C10.2119 3.52418 10.3196 3.65208 10.5786 3.6572C10.8768 3.66231 11.0392 3.85503 11.0315 4.12107C11.0238 4.38711 10.8563 4.55765 10.5503 4.56277C9.89999 4.57386 9.24963 4.56789 8.60012 4.56874C8.10957 4.56703 7.61903 4.56703 7.12933 4.56703Z" fill="white"/>
<path d="M24.0775 8.78467C22.6374 7.97716 21.2273 7.18585 19.8172 6.39454C19.7241 6.34252 19.6335 6.28624 19.5386 6.23934C19.3343 6.13787 19.1976 6.00826 19.3292 5.76439C19.4728 5.4992 19.6377 5.44889 19.9078 5.59982C21.5051 6.4926 23.1015 7.38623 24.6953 8.28328C25.0483 8.48196 25.0876 8.68234 24.8415 9.00296C24.168 9.88125 23.492 10.7578 22.8109 11.6293C22.746 11.712 22.634 11.7572 22.5443 11.8203C22.5041 11.712 22.446 11.6063 22.4263 11.4937C22.3597 11.1117 22.499 10.8039 22.7451 10.5063C23.1998 9.95799 23.6194 9.38156 24.0775 8.78467Z" fill="white"/>
<path d="M12.1587 8.79207C12.651 9.43245 13.0988 10.0541 13.5902 10.6407C13.8705 10.975 13.7859 11.3365 13.7851 11.6989C13.7851 11.7407 13.6928 11.8243 13.6731 11.8158C13.5919 11.7834 13.503 11.7365 13.4509 11.6691C12.9458 11.0245 12.4467 10.3747 11.9459 9.72663C11.7442 9.46571 11.5366 9.20904 11.3426 8.943C11.158 8.6906 11.1913 8.48083 11.4597 8.32905C13.0988 7.40387 14.7431 6.48721 16.3856 5.56629C16.6472 5.41962 16.7856 5.58334 16.9027 5.77264C17.0428 5.99861 16.9018 6.12396 16.7172 6.22799C15.2986 7.02356 13.8799 7.82084 12.4621 8.61727C12.369 8.66843 12.2784 8.72215 12.1587 8.79207Z" fill="white"/>
<path d="M19.3105 4.67601C19.3139 5.3343 18.7772 5.87747 18.1218 5.88088C17.4688 5.88344 16.9244 5.34197 16.9219 4.68709C16.9202 4.03136 17.4569 3.48563 18.1098 3.48052C18.7593 3.47455 19.3071 4.02028 19.3105 4.67601Z" fill="white"/>
<path d="M18.8082 10.6633C18.3442 10.6633 17.9109 10.6633 17.4255 10.6633C17.4255 10.4603 17.4255 10.2531 17.4255 10.0468C17.4255 9.46266 17.4323 8.87941 17.422 8.29531C17.4169 8.0233 17.5289 7.90307 17.7998 7.91159C18.0339 7.91927 18.2724 7.88686 18.4997 7.92609C18.6134 7.9457 18.7928 8.08554 18.7946 8.17508C18.8176 8.99964 18.8082 9.82421 18.8082 10.6633Z" fill="white"/>
<path d="M7.62801 17.5408C7.28531 17.5408 6.98876 17.5518 6.69392 17.5314C6.62983 17.5271 6.52214 17.4094 6.52129 17.3429C6.51103 16.4834 6.50591 15.6239 6.52214 14.7652C6.52813 14.4378 6.78024 14.2118 7.0691 14.2109C7.36052 14.2101 7.61776 14.4352 7.62289 14.7592C7.63741 15.6699 7.62801 16.5815 7.62801 17.5408Z" fill="white"/>
<path d="M6.16536 10.2805C6.16279 9.70745 6.16279 9.71683 6.74222 9.72109C7.12338 9.7245 7.50454 9.68272 7.88569 9.6904C7.9703 9.6921 8.11729 9.81574 8.12242 9.89078C8.14122 10.1636 8.13866 10.4433 8.09507 10.7128C8.01132 11.2261 7.57547 11.5595 7.07894 11.5263C6.56104 11.4922 6.18758 11.0999 6.16621 10.5653C6.16194 10.4706 6.16536 10.3751 6.16536 10.2805Z" fill="white"/>
<path d="M18.8188 2.11792C18.8188 2.37288 18.818 2.62698 18.8188 2.88194C18.8188 3.08744 18.7317 3.15139 18.518 3.12922C18.2488 3.10109 17.9728 3.10705 17.7027 3.13093C17.5079 3.14798 17.4241 3.10023 17.4258 2.89985C17.4309 2.38055 17.4309 1.8604 17.4258 1.34025C17.4233 1.10917 17.5438 1.01537 17.7566 1.00343C17.7668 1.00258 17.7779 1.00258 17.7882 1.00258C18.9787 1.00173 18.8077 0.896844 18.8188 2.11792Z" fill="white"/>
<path d="M6.79637 11.9327C6.43145 12.2678 6.11182 12.562 5.77852 12.869C5.60162 12.3804 5.40335 11.8696 5.24012 11.3478C5.21106 11.2565 5.29738 11.0638 5.38455 11.0152C5.54436 10.9265 5.74519 10.9265 5.85117 11.1346C6.04431 11.5132 6.34684 11.7639 6.79637 11.9327Z" fill="white"/>
<path d="M8.32826 12.9339C8.0129 12.5996 7.7249 12.2952 7.39844 11.949C7.90864 11.8117 8.23681 11.5082 8.47696 11.0886C8.51713 11.0196 8.73591 10.9727 8.80086 11.0178C8.88376 11.0758 8.95554 11.2583 8.92478 11.3504C8.74958 11.8697 8.54191 12.3779 8.32826 12.9339Z" fill="white"/>
<path d="M7.07142 12.248C7.34062 12.5414 7.7158 12.7341 7.63119 13.2193C7.57564 13.5407 7.37395 13.7761 7.08424 13.7855C6.78598 13.7957 6.5672 13.5561 6.50823 13.2167C6.42362 12.729 6.79965 12.5388 7.07142 12.248Z" fill="white"/>
<path d="M20.1843 21.1103C20.1877 21.9195 19.5673 22.5522 18.7605 22.5616C17.9538 22.571 17.3068 21.9451 17.3008 21.1469C17.294 20.3241 17.9264 19.6786 18.74 19.6777C19.5416 19.676 20.1809 20.3096 20.1843 21.1103Z" fill="white"/>
<path d="M12.2599 22.5616C11.4548 22.5684 10.7865 21.9135 10.7891 21.1188C10.7916 20.3326 11.4428 19.6829 12.2317 19.6778C13.041 19.6735 13.7042 20.3241 13.7033 21.1222C13.7024 21.9067 13.0512 22.5548 12.2599 22.5616Z" fill="white"/>
<path d="M4.25782 21.1364C4.25526 20.3382 4.921 19.6774 5.72177 19.6817C6.50802 19.6868 7.16009 20.3382 7.16607 21.1253C7.17205 21.9183 6.4952 22.5911 5.70126 22.5809C4.91074 22.5706 4.26038 21.92 4.25782 21.1364Z" fill="white"/>
</svg>
