<svg width="25" height="25" viewBox="0 0 25 25" fill="none" xmlns="http://www.w3.org/2000/svg">
<g clip-path="url(#clip0_313_41)">
<path d="M5.6148 24.8616C5.59724 24.8587 5.57968 24.8558 5.56212 24.8529C5.54457 24.8426 5.52653 24.8323 5.50898 24.8219C5.50898 24.8219 5.50518 24.8203 5.50566 24.8203C5.46152 24.7753 5.40838 24.7422 5.34242 24.7257L5.33673 24.722C5.27836 24.6609 5.21999 24.6002 5.16163 24.5391L5.16068 24.5378C5.14597 24.4846 5.13648 24.4296 5.11607 24.3784C4.80384 23.6046 4.4916 22.8303 4.17652 22.0573C4.00901 21.6464 3.8695 21.2269 3.66308 20.8284L3.6664 20.8271C3.64458 20.754 3.62939 20.6789 3.60045 20.6078C3.0742 19.2984 2.56599 17.984 2.06821 16.6663C1.83949 16.0613 1.73984 15.4514 1.86654 14.8196C1.9529 14.3877 2.156 13.9933 2.37665 13.6039C2.44546 13.4821 2.49101 13.3632 2.34106 13.2513C1.9752 12.9771 1.83332 12.6141 1.82193 12.2061C1.81387 11.9319 1.81671 11.6573 1.81197 11.3827C1.79441 10.3871 1.7778 9.39148 1.75408 8.39588C1.75123 8.27323 1.78302 8.25465 1.92348 8.26539C2.83694 8.33517 3.67922 8.13572 4.44272 7.70337C4.59884 7.615 4.63918 7.6596 4.70371 7.76531C5.38181 8.87489 6.06417 9.98241 6.73942 11.0936C6.93682 11.4182 7.05687 11.7721 6.90692 12.1264C6.80585 12.3659 6.89269 12.482 7.101 12.6017C7.53804 12.8532 7.93379 13.1447 8.25219 13.5131C8.70157 14.0334 8.90893 14.633 9.04844 15.2594C9.53246 17.4344 9.94292 19.6205 10.3738 21.8033C10.482 22.3513 10.6452 22.8923 10.6675 23.4518L10.6685 23.4514C10.6594 23.4679 10.6504 23.4848 10.6419 23.5013L10.639 23.5092C10.6058 23.5286 10.5954 23.5563 10.6001 23.5893L10.6011 23.5876C10.5527 23.6289 10.5147 23.6756 10.5019 23.7351L10.4934 23.7446C10.4834 23.757 10.4734 23.7689 10.4635 23.7813C10.4635 23.7813 10.4549 23.7912 10.4549 23.7908C10.4426 23.8036 10.4298 23.8164 10.417 23.8296L10.4141 23.8325C10.3444 23.84 10.3045 23.8738 10.2936 23.9341L10.2922 23.9362C10.1977 23.9622 10.1199 24.0055 10.0891 24.0935L10.0848 24.0964C9.99559 24.1067 9.92963 24.1559 9.8594 24.198C9.541 24.3883 9.19317 24.5263 8.82779 24.6312C8.60524 24.6948 8.38127 24.7542 8.15824 24.8153L8.16014 24.8137C7.47398 24.9499 6.78307 25.0429 6.07556 24.9822L6.07319 24.9813C6.04566 24.9528 6.01245 24.9524 5.97638 24.9665C5.95882 24.9661 5.94174 24.9652 5.92418 24.9648C5.89951 24.9305 5.86155 24.9363 5.82453 24.94L5.82169 24.9388C5.79749 24.9037 5.76047 24.9091 5.72299 24.914L5.71919 24.9124C5.70211 24.9033 5.68503 24.8942 5.66794 24.8855L5.65798 24.881C5.64232 24.8744 5.62856 24.8682 5.6148 24.8616ZM3.57008 10.6927L3.56059 10.6997L3.56296 10.7104L3.5492 10.717L3.55632 10.7278C3.54872 10.7497 3.54113 10.772 3.53401 10.7938C3.51313 10.8149 3.49653 10.8368 3.51218 10.8661C3.51029 10.8822 3.50886 10.8983 3.50696 10.9144C3.47707 10.9375 3.47565 10.9652 3.49178 10.9949C3.50269 11.0767 3.50554 11.1597 3.52642 11.2394C3.63698 11.6594 4.09442 11.9348 4.58935 11.8844C5.09709 11.8328 5.4416 11.4665 5.47339 11.0036C5.49569 10.679 4.98985 10.2112 4.60691 10.1893C4.46218 10.1468 4.32314 10.1624 4.18696 10.217C4.15374 10.2265 4.121 10.236 4.08778 10.2454C4.04982 10.2434 4.0223 10.2566 4.00569 10.2867C3.99003 10.2929 3.97484 10.2995 3.95919 10.3057C3.93498 10.3206 3.91078 10.3359 3.88658 10.3508C3.74755 10.4193 3.66166 10.5271 3.5976 10.6505C3.58811 10.6646 3.57909 10.6786 3.57008 10.6927ZM9.39295 18.0678C9.0959 18.2607 8.78556 18.3895 8.45624 18.4841C7.25332 18.8297 6.01245 18.838 4.76587 18.7954C4.34402 18.781 3.92217 18.7719 3.50032 18.802C3.39355 18.8095 3.32902 18.84 3.38027 18.9363C3.5435 19.2418 3.6441 19.5668 3.76558 19.8852C4.12005 20.816 4.4878 21.7426 4.83468 22.6755C4.9908 23.0954 5.18773 23.5084 5.34716 23.9292C5.47244 24.2591 5.7358 24.4334 6.08932 24.5354C6.2853 24.5919 6.48887 24.6138 6.69434 24.6204C7.36009 24.6431 7.995 24.5031 8.62327 24.3363C9.09305 24.2116 9.53863 24.0427 9.91397 23.7545C10.2798 23.4737 10.481 23.1561 10.3633 22.7056C10.2272 22.1832 10.1337 21.6522 10.0373 21.1228C10.0165 21.0088 9.87696 20.9122 9.90543 20.8366C9.98563 20.6211 9.88076 20.4328 9.8428 20.2383C9.70518 19.5214 9.54812 18.8074 9.39295 18.0678ZM9.2933 17.6879C8.619 17.9043 7.93237 17.875 7.24573 17.832C6.44616 17.7821 5.65323 17.6454 4.84607 17.6892C4.25434 17.721 3.71575 17.8676 3.27777 18.2359C3.20944 18.2933 3.16863 18.3478 3.20612 18.4337C3.24313 18.5184 3.3181 18.4919 3.38501 18.4886C4.2681 18.4432 5.15071 18.5035 6.0338 18.4998C6.86611 18.4965 7.69131 18.4449 8.47664 18.174C8.79078 18.0654 9.07929 17.9229 9.2933 17.6879ZM5.26792 15.5774C6.07129 15.4188 6.88509 15.2309 7.59166 14.7981C7.96701 14.5681 8.2503 14.2882 8.28019 13.8632C8.28683 13.7703 8.26738 13.703 8.16726 13.6593C8.06239 13.6134 7.98219 13.6531 7.91244 13.7133C7.86831 13.7513 7.83461 13.7992 7.80092 13.8455C7.47872 14.2849 7.05592 14.6276 6.50785 14.8415C5.67553 15.1665 4.77916 15.2602 3.88801 15.3643C3.5995 15.3982 3.30672 15.4035 3.01583 15.4192C2.95747 15.4225 2.8972 15.4221 2.89246 15.4853C2.88866 15.5353 2.94276 15.5497 2.98879 15.5604C3.03434 15.5708 3.08132 15.5778 3.12782 15.5856C3.83344 15.7021 4.53905 15.6769 5.26792 15.5774ZM2.73919 12.0934C2.84928 12.3762 3.0538 12.5877 3.34563 12.7256C3.96346 13.0184 4.59172 12.9878 5.21003 12.7305C5.69404 12.5294 6.04044 12.2115 6.19988 11.756C6.23642 11.6519 6.23168 11.5499 6.12776 11.4723C6.03522 11.4033 5.9294 11.393 5.81647 11.4306C5.71539 11.464 5.68835 11.547 5.64944 11.6214C5.39604 12.1045 4.96422 12.3771 4.363 12.4592C3.76321 12.5406 3.21988 12.4448 2.73919 12.0934ZM3.07467 13.4297C3.0239 13.1691 2.91144 12.9308 2.7278 12.7198C2.69031 12.6764 2.64618 12.6236 2.57405 12.6703C2.51664 12.7074 2.55175 12.7574 2.5731 12.8003C2.68224 13.0217 2.75105 13.2475 2.76434 13.4924C2.77667 13.7167 2.69838 13.9248 2.67228 14.1412C2.66279 14.2196 2.64665 14.2985 2.74963 14.3336C2.86683 14.3736 2.89483 14.2762 2.93944 14.2192C3.12924 13.9764 3.13162 13.7063 3.07467 13.4297ZM6.59326 12.0418C6.58947 12.0033 6.5814 11.9559 6.58045 11.908C6.5795 11.8501 6.58045 11.7903 6.49266 11.7882C6.41864 11.7866 6.4082 11.8431 6.40488 11.8906C6.36786 12.4014 6.44189 12.8813 6.93729 13.2294C7.03457 13.2975 7.16459 13.4177 7.28464 13.3016C7.4009 13.1897 7.23577 13.1005 7.16079 13.0287C6.86611 12.7475 6.67013 12.4274 6.59326 12.0418Z" fill="white"/>
<path d="M1.80376 3.32712C1.90199 3.31143 1.95324 3.36139 1.99215 3.4287C2.00638 3.68679 2.13545 3.91474 2.24412 4.14805C2.31672 4.30414 2.27734 4.34915 2.07804 4.33883L2.07329 4.33553C1.93331 4.0093 1.77719 3.68679 1.80376 3.32712Z" fill="white"/>
<path d="M1.13947 5.62028C1.15418 5.60583 1.16889 5.59138 1.1836 5.57651C1.78435 5.07107 2.49803 4.86914 3.32418 4.97774C3.58564 5.01202 3.79538 5.1231 3.93963 5.32296C4.14036 5.60129 4.35911 5.87011 4.51333 6.17321C4.59068 6.32476 4.56838 6.45195 4.4469 6.57212C4.06918 6.94666 3.59466 7.18451 3.04041 7.28899C2.68072 7.35671 2.32151 7.43765 1.94616 7.42608C1.68755 7.41824 1.4631 7.31872 1.22679 7.25223C1.10436 7.21796 1.04742 7.12587 1.03365 7.01479C0.97339 6.54404 0.985727 6.07824 1.13947 5.62028ZM2.56921 5.18669C2.20383 5.23625 1.89824 5.34072 1.63345 5.522C1.54899 5.57981 1.4593 5.65704 1.48303 5.76399C1.5096 5.88292 1.63298 5.92338 1.75066 5.93536C2.32056 5.994 2.84491 5.88704 3.30662 5.58229C3.39488 5.52407 3.48029 5.44932 3.44518 5.34031C3.41196 5.23625 3.30282 5.19536 3.19273 5.17761C2.97398 5.14168 2.75427 5.14209 2.56921 5.18669Z" fill="white"/>
<path d="M2.82835 8.00332C2.57164 8.05164 2.25181 8.09211 1.92723 8.04503C1.76542 8.02149 1.60361 7.80924 1.6373 7.67669C1.65533 7.60607 1.7156 7.62383 1.76827 7.62589C2.66749 7.66099 3.50218 7.48425 4.25951 7.05273C4.29937 7.03002 4.33164 7.0007 4.3753 7.05149C4.47685 7.16918 4.44885 7.42231 4.30839 7.51357C3.88749 7.78736 3.3992 7.91454 2.82835 8.00332Z" fill="white"/>
<path d="M2.60009 2.03045C2.70543 1.77442 2.73912 1.50064 2.86202 1.24833C2.95835 1.05053 3.09217 0.958861 3.25493 1.0175C3.44379 1.08563 3.45138 1.21778 3.41294 1.37676C3.31282 1.79012 3.2274 2.20636 3.13819 2.62178C3.12965 2.66101 3.13677 2.70272 3.13677 2.74319C3.00675 3.16811 2.99394 3.60376 2.96879 4.03901C2.9631 4.13563 3.02621 4.30164 2.9109 4.31609C2.76807 4.33385 2.81457 4.16206 2.78135 4.07576C2.52653 3.40803 2.53745 2.72089 2.60009 2.03045Z" fill="white"/>
<path d="M4.33043 10.5508C4.47763 10.5274 4.58616 10.457 4.57283 10.3935C4.5595 10.33 4.42937 10.2975 4.28216 10.3209C4.13496 10.3443 4.02643 10.4147 4.03976 10.4782C4.05308 10.5417 4.18322 10.5742 4.33043 10.5508Z" fill="white"/>
<path d="M4.73677 10.4603C4.79452 10.4511 4.83709 10.4235 4.83187 10.3986C4.82664 10.3737 4.77559 10.3609 4.71784 10.3701C4.66009 10.3793 4.61752 10.4069 4.62275 10.4318C4.62797 10.4567 4.67902 10.4695 4.73677 10.4603Z" fill="white"/>
<path d="M11.4072 23.5876L11.4082 23.5893C11.4082 23.5889 11.4082 23.5889 11.4082 23.5885C11.4077 23.5881 11.4077 23.5881 11.4072 23.5876ZM19.6668 13.2513C20.0326 12.9771 20.1745 12.6141 20.1859 12.2061C20.194 11.9319 20.1916 11.6573 20.1963 11.3827C20.2139 10.3871 20.2305 9.39148 20.2542 8.39588C20.2571 8.27323 20.2253 8.25465 20.0848 8.26539C19.1714 8.33517 18.3291 8.13572 17.5656 7.70337C17.409 7.615 17.3691 7.6596 17.3041 7.76531C16.626 8.87489 15.9441 9.98282 15.2684 11.0936C15.0715 11.4182 14.951 11.7721 15.1009 12.1264C15.202 12.3655 15.1151 12.4815 14.9068 12.6013C14.4698 12.8532 14.074 13.1447 13.7561 13.5127C13.3067 14.033 13.0994 14.6326 12.9599 15.2594C12.4759 17.434 12.0654 19.6201 11.6345 21.8029C11.5268 22.3509 11.3636 22.8918 11.3408 23.4518L11.3398 23.451C11.3489 23.4675 11.3579 23.4844 11.3664 23.5009L11.3693 23.5088C11.4015 23.5282 11.4129 23.5554 11.4082 23.5885C11.4561 23.6294 11.4931 23.676 11.5064 23.7351L11.5149 23.7446C11.5249 23.757 11.5349 23.7689 11.5448 23.7813L11.5534 23.7908C11.5662 23.804 11.5785 23.8168 11.5913 23.8296L11.5942 23.8325C11.6639 23.84 11.7038 23.8738 11.7147 23.9341L11.7161 23.9366C11.811 23.9626 11.8884 24.0055 11.9192 24.0939L11.9235 24.0968C12.0127 24.1071 12.0787 24.1563 12.1489 24.1984C12.4673 24.3888 12.8151 24.5267 13.181 24.6316C13.4031 24.6952 13.6275 24.7542 13.8505 24.8157L13.8486 24.8137C14.5353 24.9499 15.2262 25.0429 15.9332 24.9822L15.9356 24.9813C15.9631 24.9528 15.9968 24.9524 16.0329 24.9665C16.05 24.9661 16.0675 24.9652 16.0851 24.9648C16.1097 24.9305 16.1472 24.9363 16.1847 24.94L16.1871 24.9388C16.2113 24.9037 16.2488 24.9091 16.2858 24.914L16.2896 24.9124C16.3067 24.9033 16.3238 24.8942 16.3408 24.8851L16.3508 24.881C16.3646 24.8748 16.3783 24.8682 16.3921 24.862L16.4448 24.8533C16.4628 24.8426 16.4804 24.8323 16.4984 24.8219L16.5017 24.8203C16.5458 24.7753 16.599 24.7422 16.6649 24.7257L16.6706 24.722C16.729 24.6613 16.7874 24.6002 16.8457 24.5391L16.8467 24.5378C16.8614 24.4846 16.8709 24.4296 16.8913 24.3784C17.2035 23.6042 17.5158 22.8303 17.8313 22.0573C17.9988 21.6464 18.1383 21.2269 18.3448 20.8284L18.3414 20.8271C18.3633 20.754 18.3784 20.6789 18.4069 20.6078C18.9332 19.2984 19.4418 17.984 19.9396 16.6663C20.1679 16.0618 20.268 15.4514 20.1413 14.8196C20.0549 14.3877 19.8518 13.9933 19.6312 13.6039C19.5624 13.4821 19.5173 13.3636 19.6668 13.2513ZM16.5463 10.8847C16.5468 10.8793 16.5482 10.8739 16.5492 10.8686C16.6493 10.3916 17.1746 10.0757 17.7227 10.1629C18.2712 10.25 18.6342 10.7071 18.5341 11.1841C18.434 11.6614 17.9087 11.9773 17.3601 11.8902C16.8619 11.8109 16.5169 11.4261 16.533 10.9982C16.5311 10.9619 16.5359 10.9239 16.5463 10.8847ZM15.8787 11.4723C15.9712 11.4033 16.077 11.393 16.1899 11.4306C16.291 11.464 16.3181 11.547 16.357 11.6214C16.6104 12.1045 17.0422 12.3767 17.6434 12.4588C18.2437 12.541 18.787 12.4452 19.2677 12.0934C19.1576 12.3762 18.9531 12.5877 18.6613 12.726C18.0434 13.0184 17.4152 12.9878 16.7969 12.731C16.3128 12.5294 15.966 12.2115 15.8065 11.756C15.7705 11.6519 15.7747 11.5499 15.8787 11.4723ZM14.8461 13.0295C15.1408 12.7479 15.3368 12.4274 15.4136 12.0422C15.4174 12.0038 15.4255 11.9559 15.4264 11.9084C15.4269 11.8506 15.4264 11.7907 15.5142 11.7886C15.5882 11.787 15.5987 11.8435 15.602 11.891C15.639 12.4018 15.565 12.8817 15.0696 13.2298C14.9723 13.2979 14.8423 13.4181 14.7222 13.3021C14.606 13.1901 14.7711 13.101 14.8461 13.0295ZM18.6261 18.9367C18.4624 19.2422 18.3623 19.5672 18.2408 19.8856C17.8864 20.816 17.5186 21.7426 17.1717 22.6759C17.0156 23.0958 16.8187 23.5088 16.6592 23.9296C16.534 24.2595 16.2701 24.4338 15.9166 24.5358C15.7211 24.5923 15.5171 24.6142 15.3116 24.6212C14.6458 24.644 14.0109 24.504 13.3827 24.3371C12.9129 24.2124 12.4673 24.0435 12.092 23.7553C11.7266 23.4741 11.5249 23.1569 11.6426 22.7064C11.7788 22.1841 11.8723 21.653 11.9686 21.1232C11.9895 21.0092 12.129 20.913 12.1005 20.837C12.0208 20.6215 12.1257 20.4332 12.1631 20.2387C12.3017 19.5218 12.4588 18.8078 12.6139 18.0678C12.911 18.2607 13.2213 18.3895 13.5506 18.4841C14.7536 18.8297 15.994 18.8384 17.2405 18.7959C17.6624 18.7814 18.0842 18.7723 18.5061 18.8025C18.6129 18.8099 18.6774 18.84 18.6261 18.9367ZM18.8008 18.4337C18.7638 18.5184 18.6888 18.4919 18.6219 18.4886C17.7388 18.4432 16.8557 18.5035 15.9731 18.4998C15.1403 18.4965 14.3156 18.4449 13.5302 18.174C13.2161 18.0658 12.9276 17.9233 12.7136 17.6879C13.3879 17.9043 14.0745 17.875 14.7612 17.8325C15.5607 17.7825 16.3537 17.6458 17.1608 17.6896C17.7525 17.7214 18.2911 17.868 18.7291 18.2359C18.7974 18.2937 18.8383 18.3478 18.8008 18.4337ZM19.0186 15.5613C18.973 15.572 18.926 15.5786 18.88 15.5865C18.1734 15.7021 17.4678 15.6769 16.739 15.5778C15.9356 15.4192 15.1218 15.2313 14.4152 14.7986C14.0399 14.5686 13.7566 14.2886 13.7267 13.8637C13.7201 13.7707 13.7395 13.7034 13.8396 13.6597C13.944 13.6138 14.0242 13.6535 14.0944 13.7138C14.1386 13.7522 14.1723 13.8001 14.206 13.8463C14.5282 14.2853 14.951 14.628 15.499 14.8423C16.3318 15.1673 17.2277 15.2611 18.1189 15.3651C18.4074 15.3986 18.7002 15.4044 18.9915 15.42C19.0499 15.4233 19.1097 15.4229 19.1149 15.4861C19.1187 15.5365 19.0646 15.5509 19.0186 15.5613ZM19.4338 12.8007C19.3246 13.0217 19.2554 13.248 19.2421 13.4928C19.2302 13.7167 19.3085 13.9252 19.3346 14.1416C19.3441 14.22 19.3602 14.2989 19.2573 14.334C19.1401 14.3741 19.1121 14.2766 19.0679 14.2196C18.8776 13.9764 18.8753 13.7067 18.9322 13.4301C18.983 13.1695 19.0954 12.9312 19.2791 12.7198C19.317 12.6769 19.3612 12.624 19.4328 12.6707C19.4903 12.7078 19.4551 12.7574 19.4338 12.8007Z" fill="white"/>
<path d="M20.1968 3.32712C20.0986 3.31143 20.0474 3.36139 20.0084 3.4287C19.9942 3.68679 19.8651 3.91474 19.7565 4.14805C19.6839 4.30414 19.7233 4.34915 19.9226 4.33883L19.9273 4.33553C20.0673 4.0093 20.2234 3.68679 20.1968 3.32712Z" fill="white"/>
<path d="M20.8603 5.62028C20.8456 5.60583 20.8309 5.59138 20.8162 5.57651C20.2154 5.07107 19.5018 4.86914 18.6756 4.97774C18.4142 5.01202 18.2044 5.1231 18.0602 5.32296C17.8594 5.60129 17.6407 5.87011 17.4865 6.17321C17.4091 6.32476 17.4314 6.45195 17.5529 6.57212C17.9306 6.94624 18.4051 7.1841 18.9594 7.28816C19.3191 7.35588 19.6783 7.43682 20.0536 7.42526C20.3122 7.41741 20.5367 7.31789 20.773 7.25141C20.8954 7.21713 20.9524 7.12505 20.9661 7.01397C21.0264 6.54404 21.0141 6.07824 20.8603 5.62028ZM19.4311 5.18669C19.7964 5.23625 20.102 5.34072 20.3668 5.522C20.4513 5.57982 20.541 5.65704 20.5172 5.76399C20.4907 5.88292 20.3673 5.92338 20.2496 5.93536C19.6797 5.994 19.1554 5.88704 18.6936 5.58229C18.6054 5.52407 18.52 5.44932 18.5551 5.34031C18.5883 5.23625 18.6974 5.19536 18.8075 5.17761C19.0258 5.14168 19.246 5.14209 19.4311 5.18669Z" fill="white"/>
<path d="M19.1702 8.00332C19.4269 8.05164 19.7468 8.09211 20.0713 8.04503C20.2331 8.02149 20.395 7.80924 20.3613 7.67669C20.3432 7.60607 20.283 7.62383 20.2303 7.62589C19.3311 7.66099 18.4964 7.48425 17.7391 7.05273C17.6992 7.03002 17.6669 7.0007 17.6233 7.05149C17.5217 7.16918 17.5497 7.42231 17.6902 7.51357C18.1111 7.78736 18.5998 7.91454 19.1702 8.00332Z" fill="white"/>
<path d="M19.3939 2.03045C19.2885 1.77442 19.2549 1.50064 19.132 1.24833C19.0356 1.05053 18.9018 0.958861 18.739 1.0175C18.5502 1.08563 18.5426 1.21778 18.581 1.37676C18.6812 1.79012 18.7666 2.20636 18.8558 2.62178C18.8643 2.66101 18.8572 2.70272 18.8572 2.74319C18.9872 3.16811 19 3.60376 19.0252 4.03901C19.0309 4.13563 18.9678 4.30164 19.0831 4.31609C19.2259 4.33385 19.1794 4.16206 19.2126 4.07576C19.4674 3.40803 19.457 2.72089 19.3939 2.03045Z" fill="white"/>
<path d="M17.3733 10.4355C17.3681 10.4607 17.3173 10.4731 17.2594 10.464C17.202 10.455 17.1593 10.4273 17.1645 10.4025C17.1697 10.3777 17.2205 10.3649 17.2784 10.374C17.3358 10.3835 17.3785 10.4108 17.3733 10.4355Z" fill="white"/>
<path d="M17.9563 10.4812C17.9431 10.5444 17.813 10.577 17.6655 10.5535C17.5184 10.5299 17.4097 10.4597 17.423 10.3966C17.4363 10.333 17.5668 10.3008 17.7139 10.3239C17.861 10.3474 17.9696 10.4176 17.9563 10.4812Z" fill="white"/>
<path d="M17.9563 10.4812C17.9431 10.5444 17.813 10.577 17.6655 10.5535C17.5184 10.5299 17.4097 10.4597 17.423 10.3966C17.4363 10.333 17.5668 10.3008 17.7139 10.3239C17.861 10.3474 17.9696 10.4176 17.9563 10.4812Z" fill="white"/>
<path d="M17.3733 10.4355C17.3681 10.4607 17.3173 10.4731 17.2594 10.464C17.202 10.455 17.1593 10.4273 17.1645 10.4025C17.1697 10.3777 17.2205 10.3649 17.2784 10.374C17.3358 10.3835 17.3785 10.4108 17.3733 10.4355Z" fill="white"/>
<path d="M8.61885 23.6451C8.60272 23.6385 8.58659 23.6319 8.56998 23.6253C8.55574 23.6113 8.54151 23.5977 8.52727 23.5836L8.52442 23.5811C8.49453 23.5279 8.4523 23.4845 8.39346 23.454L8.38919 23.4494C8.35027 23.3776 8.31089 23.3061 8.27198 23.2343L8.2715 23.2326C8.27245 23.1781 8.2791 23.1228 8.27388 23.0687C8.19321 22.2515 8.11206 21.4342 8.02807 20.617C7.98347 20.183 7.96828 19.7461 7.88287 19.3154L7.88619 19.315C7.88619 19.2395 7.89236 19.1635 7.88524 19.0887C7.75048 17.7066 7.63422 16.3232 7.52887 14.9395C7.48047 14.3044 7.55877 13.692 7.86199 13.1072C8.06936 12.7075 8.37875 12.3697 8.70379 12.0406C8.80534 11.9378 8.88316 11.8325 8.77023 11.6913C8.49405 11.3465 8.46084 10.9641 8.56618 10.5664C8.63689 10.2988 8.71803 10.0337 8.79206 9.76654C9.05969 8.7986 9.32874 7.83066 9.59068 6.86107C9.62295 6.74173 9.65901 6.73058 9.79235 6.77146C10.6569 7.03698 11.5296 7.02666 12.3932 6.77311C12.5697 6.72108 12.5958 6.77311 12.6281 6.88956C12.9674 8.11105 13.3109 9.33171 13.6474 10.554C13.7456 10.9108 13.7608 11.28 13.514 11.5905C13.3475 11.8003 13.3987 11.9316 13.5658 12.0926C13.9174 12.4308 14.2168 12.7992 14.4194 13.2245C14.7056 13.8258 14.735 14.4514 14.6908 15.0885C14.5371 17.2999 14.3093 19.5058 14.1015 21.7134C14.0493 22.2676 14.0526 22.8267 13.9145 23.3738L13.9155 23.3734C13.9022 23.3875 13.8889 23.4019 13.8751 23.416L13.8704 23.423C13.8329 23.4345 13.8144 23.4589 13.8101 23.4924L13.8116 23.4911C13.7527 23.5209 13.7029 23.5576 13.673 23.6125L13.6621 23.62C13.6488 23.6295 13.6355 23.6394 13.6227 23.6493L13.6118 23.6567C13.5961 23.6666 13.58 23.6761 13.5643 23.686L13.5605 23.6881C13.4908 23.6798 13.4424 23.7046 13.4149 23.7604L13.413 23.762C13.3138 23.767 13.2265 23.7917 13.171 23.8702L13.1662 23.8723C13.077 23.8628 12.9992 23.8962 12.9185 23.9218C12.556 24.0374 12.1792 24.0953 11.7953 24.1176C11.5618 24.1312 11.3279 24.1399 11.094 24.1506L11.0963 24.1494C10.3926 24.1324 9.69697 24.073 9.02932 23.8607L9.02742 23.8595C9.00891 23.826 8.97664 23.8182 8.93773 23.824C8.92113 23.8194 8.90452 23.8153 8.88791 23.8107C8.87367 23.7723 8.83571 23.7699 8.7987 23.7653L8.79633 23.7637C8.78304 23.7244 8.74555 23.7215 8.70806 23.7182L8.70474 23.7158C8.69098 23.7034 8.67675 23.691 8.66298 23.6786L8.65444 23.672C8.64211 23.6637 8.63072 23.6542 8.61885 23.6451ZM10.6935 9.47954L10.6821 9.4845L10.6816 9.49523L10.6664 9.49854L10.6702 9.51051C10.6565 9.53033 10.6432 9.54974 10.6294 9.56956C10.6028 9.58525 10.581 9.60301 10.5877 9.63481C10.5815 9.65009 10.5753 9.66536 10.5691 9.68023C10.5336 9.69634 10.5245 9.72276 10.5312 9.75497C10.5184 9.83632 10.4975 9.91767 10.4946 9.99902C10.4818 10.4297 10.8453 10.7956 11.3398 10.8542C11.8461 10.9141 12.2845 10.6341 12.4478 10.1927C12.5621 9.8834 12.2062 9.32056 11.8413 9.21608C11.7137 9.1434 11.5742 9.12854 11.4266 9.15166C11.392 9.15373 11.3569 9.15579 11.3222 9.15786C11.2861 9.14753 11.2553 9.15455 11.2306 9.18016C11.214 9.18305 11.1969 9.18594 11.1803 9.18842C11.1528 9.19791 11.1248 9.207 11.0973 9.2165C10.9431 9.25283 10.8292 9.33873 10.7314 9.44403C10.7191 9.456 10.7063 9.46756 10.6935 9.47954ZM14.2225 17.8842C13.8794 18.0064 13.542 18.0642 13.1966 18.0845C11.9324 18.1584 10.7286 17.8978 9.53326 17.5864C9.12897 17.4811 8.72277 17.3808 8.30567 17.3184C8.20033 17.3028 8.12867 17.318 8.15097 17.4225C8.22168 17.7541 8.22595 18.0902 8.25252 18.4247C8.32939 19.403 8.4205 20.38 8.48931 21.3591C8.52015 21.7997 8.59276 22.242 8.62692 22.6846C8.65349 23.0311 8.85944 23.257 9.17262 23.4329C9.34582 23.5303 9.53706 23.5952 9.73446 23.6468C10.3727 23.8128 11.028 23.8149 11.6838 23.7897C12.1745 23.7707 12.6547 23.7038 13.1002 23.506C13.5349 23.3131 13.821 23.0493 13.8358 22.5876C13.8533 22.052 13.9145 21.5177 13.9729 20.9837C13.9852 20.8685 13.878 20.745 13.9269 20.6777C14.0664 20.4861 14.0185 20.2813 14.0374 20.0843C14.1091 19.36 14.1608 18.6345 14.2225 17.8842ZM14.2348 17.4948C13.5197 17.5579 12.863 17.3812 12.2105 17.1908C11.4503 16.9691 10.7215 16.6652 9.92711 16.5322C9.34487 16.4347 8.78162 16.4603 8.25205 16.7217C8.16948 16.7626 8.11444 16.8064 8.12582 16.8977C8.13721 16.9877 8.21741 16.9786 8.28337 16.9897C9.15174 17.1372 9.98928 17.3866 10.8458 17.5745C11.653 17.7516 12.4668 17.8805 13.3048 17.7884C13.6398 17.7512 13.9601 17.6761 14.2348 17.4948ZM10.9397 14.5786C11.763 14.5988 12.6048 14.5934 13.4134 14.3275C13.8429 14.1863 14.1973 13.9761 14.3478 13.5714C14.3805 13.483 14.381 13.4137 14.297 13.3492C14.2087 13.2819 14.1195 13.3034 14.0346 13.3468C13.981 13.374 13.9345 13.4132 13.8884 13.4504C13.4504 13.8059 12.9427 14.0463 12.351 14.1347C11.4518 14.2689 10.5568 14.1656 9.66423 14.0735C9.37524 14.0438 9.09006 13.9856 8.80392 13.9377C8.7465 13.9282 8.68813 13.9146 8.66536 13.9748C8.64733 14.0227 8.69525 14.0483 8.73701 14.0686C8.77829 14.0888 8.82148 14.1053 8.86418 14.1231C9.51523 14.3882 10.2057 14.5166 10.9397 14.5786ZM9.48771 10.656C9.51333 10.9537 9.65094 11.2032 9.8939 11.3997C10.4088 11.8168 11.0256 11.9238 11.6985 11.8085C12.2248 11.7185 12.6514 11.4856 12.9365 11.0789C13.0015 10.986 13.0267 10.8864 12.9479 10.7886C12.8782 10.7019 12.7785 10.6688 12.6585 10.6808C12.5512 10.6915 12.5009 10.7659 12.4421 10.829C12.0582 11.242 11.5623 11.4125 10.9568 11.3617C10.3513 11.3114 9.85261 11.1008 9.48771 10.656ZM9.43029 12.0233C9.45591 11.7598 9.4151 11.5046 9.29742 11.2606C9.27322 11.2106 9.2457 11.1499 9.16266 11.1796C9.09622 11.2032 9.11615 11.2589 9.1247 11.3056C9.1674 11.5434 9.1693 11.7776 9.11188 12.0171C9.05969 12.2368 8.92445 12.4213 8.83666 12.6253C8.80487 12.6993 8.76643 12.7724 8.85659 12.8285C8.95861 12.8925 9.01366 12.8041 9.07297 12.7591C9.32684 12.5642 9.40656 12.3032 9.43029 12.0233ZM13.235 11.4414C13.2421 11.4034 13.2483 11.3555 13.2611 11.3089C13.2768 11.2527 13.2943 11.1949 13.2103 11.1738C13.1392 11.1561 13.1126 11.2089 13.096 11.254C12.9142 11.7404 12.8483 12.2215 13.2284 12.6658C13.3029 12.7529 13.3945 12.8975 13.5444 12.8112C13.6887 12.7282 13.5548 12.6059 13.5026 12.52C13.2977 12.1839 13.1994 11.8313 13.235 11.4414Z" fill="white"/>
<path d="M11.0979 1.96875C11.1975 1.97494 11.2326 2.03441 11.2511 2.10791C11.1909 2.36105 11.2507 2.60964 11.2891 2.85906C11.3147 3.0263 11.2635 3.06098 11.0737 3.00772L11.0704 3.00359C11.0281 2.65754 10.9693 2.31149 11.0979 1.96875Z" fill="white"/>
<path d="M9.79678 4.04643C9.81528 4.03569 9.83332 4.02454 9.85182 4.0138C10.5783 3.65454 11.3271 3.61366 12.0963 3.89777C12.3397 3.98779 12.511 4.14058 12.5936 4.36563C12.7085 4.67906 12.8432 4.98629 12.9059 5.31334C12.9372 5.47686 12.8798 5.59538 12.7274 5.6854C12.2543 5.96579 11.7271 6.09339 11.1601 6.07439C10.7923 6.062 10.4217 6.06283 10.0606 5.97033C9.81196 5.90674 9.62358 5.76179 9.41336 5.64576C9.3047 5.58588 9.27575 5.48471 9.29426 5.37363C9.37113 4.90494 9.51681 4.45648 9.79678 4.04643ZM11.3053 3.93576C10.9375 3.90479 10.6115 3.93947 10.3031 4.05758C10.2049 4.09515 10.0957 4.1509 10.0886 4.25909C10.0805 4.38009 10.1883 4.44574 10.2988 4.48291C10.8341 4.66295 11.3722 4.67286 11.9065 4.47795C12.0085 4.44079 12.1129 4.38669 12.1101 4.27355C12.1077 4.16535 12.0137 4.10217 11.9122 4.06129C11.7101 3.98036 11.497 3.93287 11.3053 3.93576Z" fill="white"/>
<path d="M10.7522 6.71978C10.4898 6.7107 10.1685 6.68096 9.8672 6.56493C9.71725 6.50711 9.62092 6.26637 9.69163 6.14496C9.72911 6.08054 9.78226 6.11069 9.83303 6.12432C10.6938 6.35309 11.5532 6.36258 12.4102 6.10904C12.4557 6.09541 12.4946 6.07394 12.5226 6.13299C12.5872 6.26885 12.4875 6.50794 12.3257 6.56575C11.8398 6.74001 11.3302 6.75736 10.7522 6.71978Z" fill="white"/>
<path d="M12.2415 0.882179C12.4166 0.656712 12.5282 0.399035 12.7189 0.181414C12.8684 0.0108682 13.0245 -0.0490086 13.1654 0.0430777C13.3287 0.15003 13.2983 0.279694 13.2157 0.425463C13.0003 0.804132 12.7986 1.18858 12.5936 1.57179C12.5742 1.60772 12.5694 1.64984 12.5576 1.68907C12.3099 2.07228 12.1732 2.49142 12.0242 2.90767C11.991 3.00016 12.0048 3.17443 11.889 3.16369C11.7452 3.15006 11.8396 2.99397 11.8325 2.90271C11.776 2.20029 11.9829 1.53669 12.2415 0.882179Z" fill="white"/>
<path d="M11.761 9.41301C11.7663 9.34862 11.6496 9.28894 11.5003 9.27969C11.351 9.27045 11.2257 9.31514 11.2205 9.37952C11.2152 9.4439 11.3319 9.50359 11.4812 9.51283C11.6305 9.52208 11.7558 9.47739 11.761 9.41301Z" fill="white"/>
<path d="M12.0049 9.47132C12.0069 9.44607 11.9611 9.42266 11.9026 9.41903C11.844 9.4154 11.7949 9.43293 11.7928 9.45818C11.7907 9.48344 11.8365 9.50685 11.8951 9.51047C11.9536 9.5141 12.0028 9.49657 12.0049 9.47132Z" fill="white"/>
</g>
<defs>
<clipPath id="clip0_313_41">
<rect width="25" height="25" fill="white"/>
</clipPath>
</defs>
</svg>
