<svg width="22" height="25" viewBox="0 0 22 25" fill="none" xmlns="http://www.w3.org/2000/svg">
<g clip-path="url(#clip0_757_423)">
<path d="M3.81125 14.1416C3.81125 13.1893 3.82344 12.2357 3.80448 11.2834C3.79771 10.9483 3.88033 10.8312 4.25011 10.8206C5.71434 10.7794 5.71434 10.7634 5.71434 12.2065C5.71434 12.672 5.7157 13.1375 5.71434 13.6016C5.71434 13.7373 5.7157 13.8823 5.87282 13.9315C5.99337 13.9687 6.08142 13.8756 6.16133 13.7971C6.40243 13.5631 6.66521 13.3476 6.87651 13.0909C7.12033 12.7957 7.2937 12.8462 7.51178 13.1095C7.68245 13.3144 7.88698 13.4912 8.08474 13.6735C8.21071 13.7892 8.31501 14.0033 8.51954 13.9208C8.71323 13.8437 8.68073 13.6296 8.68073 13.4513C8.67937 12.7425 8.69563 12.0336 8.67395 11.3247C8.66312 10.9709 8.74032 10.8273 9.14803 10.8193C10.5879 10.7953 10.5865 10.778 10.5865 12.1679C10.5865 13.7626 10.5676 15.3586 10.5987 16.9532C10.6082 17.4081 10.4565 17.5065 10.0285 17.5012C8.1335 17.4826 6.23718 17.4759 4.34222 17.5052C3.86272 17.5132 3.79093 17.3376 3.80177 16.932C3.82886 16.0023 3.81125 15.0713 3.81125 14.1416Z" fill="white"/>
<path d="M18.1884 14.2224C18.1884 15.1746 18.1775 16.1283 18.1951 17.0805C18.2006 17.3944 18.1084 17.5021 17.7766 17.4995C15.7909 17.4862 13.8052 17.4875 11.8194 17.4982C11.4862 17.4995 11.4036 17.3798 11.4063 17.0699C11.4185 15.1201 11.4172 13.1703 11.4077 11.2206C11.4063 10.9426 11.4876 10.8455 11.7829 10.8216C13.3189 10.6979 13.3175 10.6886 13.3175 12.2021C13.3175 12.645 13.3202 13.0879 13.3162 13.5321C13.3148 13.693 13.3216 13.8593 13.4909 13.9258C13.6426 13.9856 13.732 13.842 13.8309 13.7582C14.1682 13.4709 14.4174 12.9137 14.817 12.919C15.2111 12.9243 15.4631 13.4736 15.799 13.7622C15.8979 13.8473 15.9886 13.9843 16.1403 13.9244C16.3273 13.8513 16.2853 13.6704 16.2853 13.5201C16.288 12.7674 16.2975 12.0132 16.2812 11.2605C16.2744 10.9652 16.3381 10.8402 16.6821 10.8216C18.1911 10.7404 18.1897 10.7271 18.1897 12.2287C18.1884 12.8924 18.1884 13.5574 18.1884 14.2224Z" fill="white"/>
<path d="M3.37685 20.1822C3.77507 20.6051 4.06087 20.9164 4.35616 21.2196C4.4442 21.31 4.53089 21.447 4.69072 21.3952C4.87629 21.3353 4.87629 21.1704 4.87629 21.0121C4.87629 20.282 4.89255 19.5505 4.86952 18.8203C4.85868 18.4705 4.9237 18.3242 5.33547 18.3202C6.78751 18.3042 6.78751 18.2856 6.78751 19.7127C6.78751 21.2848 6.77396 22.8568 6.79699 24.4289C6.80241 24.8465 6.71166 25.0061 6.2457 24.9995C4.32907 24.9742 2.41243 24.9795 0.495796 24.9968C0.117887 25.0008 -0.00266455 24.901 4.44779e-05 24.5193C0.0190077 22.5935 0.0149441 20.6677 0.0027535 18.7405C4.44778e-05 18.4306 0.0826697 18.3348 0.413171 18.3229C1.91803 18.2657 1.91803 18.2537 1.91803 19.7247C1.91803 20.1676 1.91397 20.6105 1.92074 21.0534C1.92345 21.1731 1.86521 21.3313 2.03994 21.3912C2.19029 21.443 2.2973 21.3513 2.39076 21.2515C2.69282 20.9257 2.99352 20.5985 3.37685 20.1822Z" fill="white"/>
<path d="M21.9935 21.6091C21.9935 22.5614 21.9772 23.5137 22.0016 24.4646C22.0111 24.849 21.9366 25.0033 21.4923 24.998C19.5757 24.9714 17.659 24.9753 15.7424 24.9953C15.3333 24.9993 15.1992 24.8982 15.2046 24.4793C15.2277 22.5973 15.229 20.7154 15.2033 18.8334C15.1979 18.4145 15.3265 18.3214 15.7343 18.32C17.1253 18.316 17.1253 18.3001 17.1253 19.6314C17.1253 20.0969 17.1267 20.5611 17.1253 21.0266C17.124 21.1649 17.1321 21.3046 17.2635 21.379C17.4125 21.4642 17.5073 21.3418 17.6103 21.2567C17.9678 20.9627 18.2252 20.3576 18.6465 20.3962C18.9959 20.4281 19.302 20.9508 19.6217 21.262C19.7247 21.3617 19.8289 21.4442 19.9739 21.3844C20.1391 21.3165 20.0809 21.1583 20.0822 21.0386C20.089 20.2632 20.0958 19.4891 20.0795 18.7137C20.0741 18.4331 20.1513 18.3413 20.4534 18.3214C21.9948 18.2216 21.9948 18.211 21.9948 19.682C21.9935 20.3257 21.9935 20.9681 21.9935 21.6091Z" fill="white"/>
<path d="M14.3851 21.6067C14.3851 22.5576 14.3702 23.5099 14.3919 24.4609C14.4 24.8319 14.3512 25.0048 13.8947 24.9982C11.9578 24.9702 10.0195 24.9756 8.08117 24.9955C7.6843 24.9995 7.60032 24.8692 7.60303 24.5074C7.61929 22.6042 7.62064 20.7023 7.60168 18.799C7.59761 18.4266 7.70056 18.3229 8.08388 18.3202C9.51019 18.3096 9.51019 18.2936 9.51019 19.7234C9.51019 20.1663 9.50883 20.6078 9.51154 21.0507C9.5129 21.1784 9.48851 21.326 9.65241 21.3872C9.80818 21.4457 9.89758 21.3354 10.0005 21.2502C10.3554 20.9563 10.6128 20.3551 11.0367 20.399C11.3889 20.4363 11.691 20.955 12.0106 21.2649C12.1122 21.362 12.2124 21.4471 12.3614 21.3792C12.5172 21.3074 12.482 21.1571 12.4833 21.0308C12.4874 20.2567 12.4955 19.4813 12.4793 18.7073C12.4739 18.4306 12.5416 18.3362 12.8491 18.3202C14.3851 18.2378 14.3851 18.2271 14.3851 19.7473C14.3851 20.3671 14.3851 20.9869 14.3851 21.6067Z" fill="white"/>
<path d="M14.3849 6.71359C14.3849 7.64459 14.3714 8.57426 14.3917 9.50526C14.3998 9.85372 14.3402 10.0067 13.9271 10.0014C11.9644 9.97874 10.0017 9.98007 8.039 10C7.65839 10.004 7.60285 9.86436 7.60556 9.54117C7.61775 7.614 7.6164 5.68683 7.60691 3.75967C7.60556 3.46973 7.64755 3.33806 8.00108 3.32343C9.51136 3.26092 9.51136 3.24629 9.51136 4.72258C9.51136 5.16547 9.51001 5.60836 9.51271 6.05125C9.51407 6.17893 9.4775 6.32656 9.62649 6.40636C9.81613 6.50877 9.91636 6.35316 10.0247 6.25341C10.2211 6.0712 10.4351 5.8983 10.5963 5.68816C10.8984 5.29315 11.1178 5.3796 11.4294 5.70279C11.6935 5.9781 11.9468 6.53404 12.322 6.38641C12.7134 6.23346 12.4493 5.67087 12.4764 5.29049C12.5143 4.78376 12.5075 4.27038 12.4777 3.76366C12.4574 3.40323 12.5997 3.33274 12.941 3.32609C14.3849 3.29949 14.3849 3.28885 14.3849 4.71992C14.3849 5.38359 14.3849 6.04859 14.3849 6.71359Z" fill="white"/>
<path d="M6.123 13.2221C6.123 12.468 6.13519 11.8323 6.11758 11.1979C6.10946 10.9026 6.22594 10.7935 6.51039 10.8241C6.55509 10.8295 6.60114 10.8255 6.64584 10.8241C8.27397 10.7856 8.27397 10.7856 8.27397 12.3829C8.27397 12.6196 8.27397 12.855 8.27397 13.0838C8.18863 13.0838 8.13174 13.1011 8.10872 13.0811C7.1741 12.2712 7.17546 12.2712 6.123 13.2221Z" fill="white"/>
<path d="M15.8779 13.2252C14.8362 12.2809 14.8362 12.2809 13.7269 13.2C13.7269 12.4299 13.7255 11.7409 13.7283 11.052C13.7283 10.923 13.8055 10.8512 13.9341 10.8365C14.0005 10.8286 14.0682 10.8286 14.136 10.8232C15.8779 10.6902 15.8779 10.6902 15.8779 12.3926C15.8779 12.6307 15.8779 12.8661 15.8779 13.2252Z" fill="white"/>
<path d="M12.0775 5.6594C11.5845 5.46655 11.4192 4.85076 10.998 4.85741C10.5822 4.86406 10.3952 5.44793 9.9198 5.68999C9.9198 4.98908 9.93199 4.33871 9.91438 3.68967C9.90626 3.38244 10.0525 3.34121 10.3194 3.32525C12.0775 3.22018 12.0775 3.21353 12.0762 4.9412C12.0775 5.16198 12.0775 5.38143 12.0775 5.6594Z" fill="white"/>
<path d="M9.92199 20.6394C9.92199 19.9717 9.93825 19.3745 9.91522 18.7787C9.90303 18.4502 9.98295 18.3278 10.3527 18.3172C12.0824 18.2667 12.0811 18.2547 12.0797 19.9637C12.0797 20.1606 12.0797 20.3574 12.0797 20.5968C11.7316 20.541 11.5745 20.2776 11.4038 20.0781C11.1018 19.7283 10.8742 19.7682 10.5898 20.0914C10.4205 20.2856 10.2633 20.5104 9.92199 20.6394Z" fill="white"/>
<path d="M4.4567 20.644C3.95553 20.3939 3.79299 19.8327 3.36767 19.838C2.95184 19.8433 2.78659 20.3939 2.32605 20.6293C2.32605 19.9337 2.33824 19.2847 2.32063 18.6383C2.31251 18.3484 2.45879 18.3377 2.69042 18.3231C4.45806 18.214 4.45806 18.2101 4.4567 19.9284C4.4567 20.1399 4.4567 20.3527 4.4567 20.644Z" fill="white"/>
<path d="M19.6742 20.6123C19.1865 20.4089 19.0321 19.7558 18.5743 19.8516C18.2235 19.9247 17.9485 20.345 17.5394 20.6988C17.5394 19.9367 17.5476 19.305 17.5354 18.6745C17.53 18.4178 17.6248 18.3035 17.8875 18.3274C17.9322 18.3314 17.9769 18.3247 18.023 18.3287C18.5553 18.362 19.2353 18.1106 19.578 18.4285C19.8936 18.7211 19.6498 19.3901 19.6728 19.8915C19.6823 20.1096 19.6742 20.3304 19.6742 20.6123Z" fill="white"/>
<path d="M4.68531 1.64062C5.20815 2.20321 5.62128 2.62881 6.01273 3.07569C6.41638 3.53587 5.72829 3.54119 5.70932 3.99605C5.17565 3.45607 4.71782 3.04776 4.32907 2.58492C3.95116 2.13538 4.62707 2.13139 4.68531 1.64062Z" fill="white"/>
<path d="M4.44776 7.07156C4.62791 7.07156 4.81077 7.09018 4.98957 7.06757C5.36206 7.02235 5.50564 7.14338 5.50022 7.5344C5.4948 7.91079 5.33226 7.9733 5.00718 7.95468C4.62521 7.93207 4.23917 7.93074 3.8572 7.95468C3.51721 7.97596 3.37364 7.88419 3.37905 7.51844C3.38447 7.17796 3.47522 7.02501 3.83823 7.06624C4.04006 7.09018 4.24459 7.07156 4.44776 7.07156Z" fill="white"/>
<path d="M17.5162 7.95013C17.3361 7.95013 17.1532 7.93284 16.9744 7.95412C16.6304 7.99402 16.4922 7.87964 16.5003 7.51921C16.5085 7.18804 16.5857 7.03376 16.9582 7.06435C17.3388 7.09627 17.7262 7.09095 18.1081 7.06568C18.4752 7.04041 18.6256 7.13883 18.6215 7.53517C18.6174 7.92087 18.4441 7.97939 18.1258 7.95279C17.9239 7.9355 17.7194 7.95013 17.5162 7.95013Z" fill="white"/>
<path d="M17.0123 1.73828C17.2493 2.02556 17.4159 2.22506 17.5663 2.40727C17.1017 2.85947 16.6276 3.31965 16.1454 3.78781C15.4871 3.3396 15.4939 3.34492 16.0709 2.76238C16.3811 2.44983 16.6682 2.11467 17.0123 1.73828Z" fill="white"/>
<path d="M11.4151 1.12287C11.4151 1.32104 11.3989 1.52054 11.4192 1.71738C11.4517 2.02594 11.3474 2.14165 11.0142 2.13234C10.7189 2.12303 10.555 2.09377 10.5808 1.74265C10.6119 1.30375 10.6038 0.862194 10.5835 0.421964C10.5699 0.118724 10.6512 -0.00762556 10.9898 0.000354437C11.2932 0.00700443 11.4571 0.0575444 11.4206 0.396694C11.3948 0.636094 11.4151 0.880814 11.4151 1.12287Z" fill="white"/>
</g>
<defs>
<clipPath id="clip0_757_423">
<rect width="22" height="25" fill="white"/>
</clipPath>
</defs>
</svg>
