<svg width="25" height="25" viewBox="0 0 25 25" fill="none" xmlns="http://www.w3.org/2000/svg">
<path d="M20.8899 11.2677C21.1178 11.215 21.3286 11.1611 21.5405 11.1221C21.5747 11.1153 21.6453 11.168 21.6601 11.2081C21.8288 11.6688 22.0179 12.1249 22.1478 12.5971C22.6605 14.4536 22.64 16.3102 22.0441 18.1427C21.1577 20.8702 19.4213 22.8632 16.836 24.086C16.3597 24.3117 15.8561 24.494 15.348 24.6315C12.6066 25.373 10.0134 24.9959 7.59675 23.4992C5.8478 22.4162 4.58194 20.9023 3.77526 18.9999C3.52916 18.42 3.32862 17.8252 3.20785 17.2075C2.79198 15.0897 2.98909 13.0348 3.89945 11.0694C4.91237 8.88853 6.5075 7.28409 8.67802 6.26069C9.17821 6.02461 9.69321 5.82176 10.2333 5.70143C10.7187 5.59485 11.2086 5.51463 11.6962 5.41836C11.7783 5.40232 11.8125 5.43097 11.8284 5.50775C11.8649 5.67736 11.9025 5.84583 11.9446 6.0143C11.9686 6.11056 11.9355 6.1415 11.8398 6.15067C10.2401 6.31226 8.77829 6.86006 7.48623 7.81699C5.31913 9.42143 4.08631 11.5874 3.78438 14.276C3.65563 15.4277 3.7502 16.5738 4.08859 17.6831C4.93743 20.4737 6.70347 22.4517 9.37874 23.5863C10.7654 24.1742 12.2238 24.3702 13.7175 24.2006C15.896 23.9542 17.76 23.0396 19.272 21.4364C20.8523 19.7586 21.6772 17.753 21.7615 15.4449C21.7957 14.5018 21.6818 13.57 21.4118 12.6658C21.2773 12.2143 21.0836 11.7811 20.9173 11.3387C20.9116 11.3227 20.9059 11.3066 20.8899 11.2677Z" fill="white"/>
<path d="M12.3689 20.7002C11.1179 19.945 9.97392 19.1817 8.76276 18.5526C8.01191 18.1618 7.76922 17.6839 7.81365 16.8541C7.88885 15.4778 7.83416 14.0934 7.83416 12.6562C7.98912 12.7296 8.11445 12.7777 8.22839 12.8465C9.49994 13.6109 10.7669 14.3822 12.0419 15.1408C12.2823 15.2841 12.3814 15.4445 12.378 15.7414C12.3598 17.3584 12.3689 18.9789 12.3689 20.7002Z" fill="white"/>
<path d="M17.7024 13.0547C17.7024 14.8402 17.7058 16.5214 17.6944 18.2026C17.6933 18.3 17.6044 18.4422 17.5166 18.488C16.1403 19.2111 14.7582 19.9228 13.3169 20.6677C13.3169 18.9029 13.3135 17.2102 13.3249 15.5175C13.326 15.4189 13.416 15.2757 13.5049 15.2298C14.8676 14.5147 16.2371 13.8111 17.7024 13.0547Z" fill="white"/>
<path d="M17.2278 12.3446C16.6023 12.6666 16.0326 12.96 15.4629 13.2546C14.6779 13.6602 13.8974 14.0728 13.1056 14.4636C12.9745 14.5289 12.7523 14.5633 12.643 14.4957C11.2461 13.6362 9.86287 12.756 8.41016 11.8392C8.90465 11.5814 9.34217 11.3521 9.78083 11.1241C10.6331 10.6794 11.4831 10.2279 12.3433 9.79928C12.4903 9.72594 12.7318 9.68124 12.8549 9.75344C14.2996 10.5889 15.7295 11.4507 17.2278 12.3446Z" fill="white"/>
<path d="M17.3549 10.1712C19.5982 10.1712 21.4168 8.34198 21.4168 6.08558C21.4168 3.82918 19.5982 2 17.3549 2C15.1115 2 13.293 3.82918 13.293 6.08558C13.293 8.34198 15.1115 10.1712 17.3549 10.1712Z" stroke="white" stroke-width="4" stroke-miterlimit="10"/>
<path d="M17.3527 4.02734L17.8608 5.60084H19.5061L18.1753 6.57381L18.6834 8.14731L17.3527 7.17433L16.0219 8.14731L16.53 6.57381L15.1992 5.60084H16.8445L17.3527 4.02734Z" fill="white"/>
</svg>
