<svg width="25" height="25" viewBox="0 0 25 25" fill="none" xmlns="http://www.w3.org/2000/svg">
<path d="M22.8505 7.39371C22.3469 7.09182 21.8868 6.78649 21.3993 6.53453C21.0974 6.37825 20.9994 6.18727 21.0177 5.85527C21.0479 5.30446 21.0261 4.75098 21.0261 4.17578C21.0883 4.20551 21.139 4.22457 21.1847 4.25202C21.6962 4.55772 22.2063 4.8661 22.7189 5.1699C22.8154 5.22708 22.8558 5.2915 22.8543 5.41005C22.8466 6.05729 22.8505 6.7053 22.8505 7.39371Z" fill="white"/>
<path d="M24.999 4.33594C24.999 5.05027 25.0001 5.72306 24.9959 6.39546C24.9956 6.43472 24.9597 6.49114 24.9243 6.50943C24.3704 6.79875 23.8143 7.08349 23.2345 7.38158C23.2345 6.67563 23.2334 5.99827 23.2376 5.32129C23.2379 5.28165 23.2742 5.22447 23.31 5.20617C23.8581 4.91953 24.4093 4.6386 24.999 4.33594Z" fill="white"/>
<path d="M24.8054 4.05143C24.5539 4.18027 24.3244 4.29768 24.0953 4.41546C23.7797 4.57746 23.4652 4.7429 23.1466 4.89918C23.0936 4.9251 23.0048 4.93882 22.9605 4.91176C22.3991 4.56793 21.8422 4.21572 21.2578 3.84903C21.4568 3.74573 21.6329 3.65386 21.809 3.56276C22.1521 3.38513 22.4936 3.20407 22.8401 3.03292C22.8992 3.00395 22.9964 2.98565 23.0459 3.01462C23.6272 3.3493 24.2024 3.69388 24.8054 4.05143Z" fill="white"/>
<path d="M22.8505 14.3664C22.3469 14.0645 21.8868 13.7591 21.3993 13.5072C21.0974 13.3509 20.9994 13.1599 21.0177 12.8279C21.0479 12.2771 21.0261 11.7236 21.0261 11.1484C21.0883 11.1782 21.139 11.1972 21.1847 11.2247C21.6962 11.5304 22.2063 11.8388 22.7189 12.1426C22.8154 12.1997 22.8558 12.2642 22.8543 12.3827C22.8466 13.0299 22.8505 13.678 22.8505 14.3664Z" fill="white"/>
<path d="M24.999 11.3086C24.999 12.0229 25.0001 12.6957 24.9959 13.3681C24.9956 13.4074 24.9597 13.4638 24.9243 13.4821C24.3704 13.7714 23.8143 14.0561 23.2345 14.3542C23.2345 13.6483 23.2334 12.9709 23.2376 12.2939C23.2379 12.2543 23.2742 12.1971 23.31 12.1788C23.8581 11.8922 24.4093 11.6113 24.999 11.3086Z" fill="white"/>
<path d="M24.8054 11.0241C24.5539 11.1529 24.3244 11.2703 24.0953 11.3881C23.7797 11.5501 23.4652 11.7156 23.1466 11.8718C23.0936 11.8978 23.0048 11.9115 22.9605 11.8844C22.3991 11.5406 21.8422 11.1884 21.2578 10.8217C21.4568 10.7184 21.6329 10.6265 21.809 10.5354C22.1521 10.3578 22.4936 10.1767 22.8401 10.0056C22.8992 9.9766 22.9964 9.95831 23.0459 9.98728C23.6272 10.322 24.2024 10.6665 24.8054 11.0241Z" fill="white"/>
<path d="M22.8505 21.339C22.3469 21.0371 21.8868 20.7318 21.3993 20.4798C21.0974 20.3236 20.9994 20.1326 21.0177 19.8006C21.0479 19.2498 21.0261 18.6963 21.0261 18.1211C21.0883 18.1508 21.139 18.1699 21.1847 18.1973C21.6962 18.503 22.2063 18.8114 22.7189 19.1152C22.8154 19.1724 22.8558 19.2368 22.8543 19.3554C22.8466 20.0026 22.8505 20.6506 22.8505 21.339Z" fill="white"/>
<path d="M24.999 18.2812C24.999 18.9956 25.0001 19.6684 24.9959 20.3408C24.9956 20.38 24.9597 20.4364 24.9243 20.4547C24.3704 20.7441 23.8143 21.0288 23.2345 21.3269C23.2345 20.6209 23.2334 19.9436 23.2376 19.2666C23.2379 19.227 23.2742 19.1698 23.31 19.1515C23.8581 18.8648 24.4093 18.5839 24.999 18.2812Z" fill="white"/>
<path d="M24.8054 17.9967C24.5539 18.1256 24.3244 18.243 24.0953 18.3608C23.7797 18.5228 23.4652 18.6882 23.1466 18.8445C23.0936 18.8704 23.0048 18.8841 22.9605 18.8571C22.3991 18.5132 21.8422 18.161 21.2578 17.7943C21.4568 17.691 21.6329 17.5992 21.809 17.5081C22.1521 17.3304 22.4936 17.1494 22.8401 16.9782C22.8992 16.9493 22.9964 16.931 23.0459 16.9599C23.6272 17.2946 24.2024 17.6392 24.8054 17.9967Z" fill="white"/>
<path d="M4.72746 18.4454C3.43009 17.6675 2.24468 16.8808 0.988555 16.2317C0.21072 15.829 -0.0416827 15.3369 0.00545881 14.4815C0.0830458 13.0624 0.0270651 11.6363 0.0270651 10.1543C0.18715 10.2309 0.317771 10.28 0.435624 10.3507C1.75362 11.1384 3.06769 11.9329 4.38863 12.7157C4.63711 12.863 4.74121 13.029 4.73728 13.3344C4.71764 15.002 4.72746 16.6716 4.72746 18.4454Z" fill="white"/>
<path d="M10.2614 10.5684C10.2614 12.4089 10.2644 14.1423 10.2536 15.8748C10.2526 15.9759 10.1603 16.1213 10.0689 16.1684C8.64191 16.9138 7.20901 17.6475 5.71521 18.4155C5.71521 16.5966 5.71226 14.8514 5.72307 13.1071C5.72405 13.005 5.81735 12.8577 5.90967 12.8105C7.32195 12.072 8.74209 11.3482 10.2614 10.5684Z" fill="white"/>
<path d="M9.76163 9.83404C9.11343 10.166 8.5222 10.4685 7.93195 10.772C7.11876 11.1894 6.30852 11.6156 5.48747 12.0183C5.35095 12.0851 5.12212 12.1204 5.0082 12.0507C3.56154 11.1648 2.12667 10.2573 0.621094 9.31253C1.13376 9.04637 1.58749 8.80968 2.04123 8.57496C2.92513 8.11729 3.80511 7.65078 4.69785 7.20981C4.85008 7.13517 5.10052 7.08803 5.22819 7.16267C6.72591 8.02497 8.20792 8.91281 9.76163 9.83404Z" fill="white"/>
<rect x="12.1758" y="4.76953" width="0.982114" height="14.83" fill="white"/>
<rect x="12.1758" y="5.75195" width="0.98212" height="7.26764" transform="rotate(-90 12.1758 5.75195)" fill="white"/>
<rect x="13.1562" y="12.8223" width="0.98212" height="6.28553" transform="rotate(-90 13.1562 12.8223)" fill="white"/>
<rect x="13.1562" y="19.5996" width="0.98212" height="6.28553" transform="rotate(-90 13.1562 19.5996)" fill="white"/>
</svg>
