<svg width="25" height="25" viewBox="0 0 25 25" fill="none" xmlns="http://www.w3.org/2000/svg">
<g clip-path="url(#clip0_756_313)">
<path d="M18.77 20.7837C18.77 20.3389 18.77 20.1054 18.77 19.8706C18.77 13.7868 18.7685 7.70161 18.7715 1.61787C18.7715 0.512398 19.1767 3.6932e-05 20.0196 0.00590927C20.6503 0.0103135 21.1425 0.436058 21.2088 1.06293C21.2398 1.35361 21.2221 1.6487 21.2221 1.94231C21.2221 8.14643 21.2221 14.3491 21.2221 20.6604C21.9162 20.2038 22.3583 19.596 22.902 19.1013C23.3544 18.6917 23.8643 18.6462 24.3933 18.9251C24.9194 19.2026 25.0491 19.6856 24.9872 20.2332C24.9518 20.5371 24.7603 20.7646 24.5495 20.9731C23.3706 22.1476 22.1976 23.3279 21.0099 24.495C20.335 25.1586 19.6954 25.1674 19.0279 24.5126C17.8401 23.347 16.6612 22.171 15.4941 20.9848C14.8737 20.3536 14.8531 19.6459 15.3969 19.1071C15.92 18.5889 16.6524 18.633 17.286 19.2466C17.7488 19.6988 18.185 20.1774 18.77 20.7837Z" fill="white"/>
<path d="M8.75135 0.000958749C11.1799 0.000958749 13.6099 -0.00197742 16.0384 0.00242683C16.9167 0.00389492 17.4826 0.470746 17.5076 1.19011C17.5327 1.91094 16.983 2.45266 16.1077 2.45559C11.2005 2.47028 6.29188 2.47028 1.38471 2.45559C0.485805 2.45266 -0.0255419 1.93736 0.000983334 1.18423C0.0260349 0.439916 0.555065 0.00389492 1.46282 0.00242683C3.89282 -0.00197742 6.32135 0.000958749 8.75135 0.000958749Z" fill="white"/>
<path d="M7.49658 7.49255C9.48302 7.49255 11.4709 7.49109 13.4574 7.49402C14.3887 7.49549 14.9708 7.955 14.9914 8.69345C15.0135 9.48034 14.4344 9.98243 13.4589 9.98389C9.4845 9.98977 5.51161 9.98977 1.53725 9.98389C0.558769 9.98243 -0.0203644 9.48181 0.00468713 8.69638C0.0267915 7.95206 0.602978 7.49549 1.53578 7.49402C3.52222 7.49109 5.50867 7.49255 7.49658 7.49255Z" fill="white"/>
<path d="M6.22949 17.4784C4.6365 17.4784 3.04352 17.4828 1.45053 17.4769C0.586991 17.474 0.019646 16.9925 0.000488883 16.2687C-0.0186682 15.5303 0.526572 14.9959 1.39159 14.9915C4.62619 14.9768 7.86226 14.9768 11.0969 14.9915C11.9575 14.9959 12.4939 15.5347 12.4703 16.2849C12.4482 16.9866 11.8956 17.4725 11.0821 17.4755C9.46556 17.4843 7.84753 17.4784 6.22949 17.4784Z" fill="white"/>
<path d="M4.91692 24.9723C3.74097 24.9723 2.56355 24.9796 1.3876 24.9693C0.546158 24.9634 0.0259691 24.5083 0.00091752 23.7875C-0.0241341 23.0593 0.465109 22.5308 1.30949 22.5206C3.76013 22.4927 6.21076 22.4941 8.66139 22.5191C9.47631 22.5264 10.0201 23.096 9.98913 23.7846C9.95818 24.4937 9.41736 24.9634 8.59213 24.9693C7.36755 24.9781 6.14297 24.9723 4.91692 24.9723Z" fill="white"/>
</g>
<defs>
<clipPath id="clip0_756_313">
<rect width="25" height="25" fill="white"/>
</clipPath>
</defs>
</svg>
