<svg width="25" height="25" viewBox="0 0 25 25" fill="none" xmlns="http://www.w3.org/2000/svg">
<g clip-path="url(#clip0_722_424)">
<path d="M1.78301 12.4819C1.74454 17.5253 5.44771 22.3214 10.9868 23.1322C13.6307 23.5195 16.1244 22.9814 18.3787 21.4889C18.933 21.1221 19.4344 21.1462 19.7482 21.5866C20.08 22.0536 19.9454 22.5676 19.349 22.9537C16.7989 24.6018 14.0143 25.2872 10.9977 24.8902C6.5298 24.3026 3.25827 21.951 1.27443 17.9271C-2.35059 10.5767 2.11245 1.76279 10.1765 0.225624C17.055 -1.08591 23.6197 3.45197 24.8088 10.4187C25.4112 13.9491 24.5803 17.1887 22.4438 20.0748C22.0831 20.5623 21.5637 20.6672 21.1381 20.3571C20.7185 20.0519 20.6559 19.521 21.0287 19.0323C22.4053 17.2213 23.1568 15.1713 23.2422 12.909C23.4093 8.4749 20.8579 4.39671 16.752 2.61945C10.3688 -0.144791 3.04906 3.87427 1.96216 10.7481C1.87078 11.3212 1.84192 11.904 1.78301 12.4819Z" fill="white"/>
<path d="M11.9594 19.4905C10.3711 18.5349 8.91986 17.5684 7.38209 16.7709C6.42984 16.2762 6.12085 15.6717 6.17856 14.6208C6.27354 12.8773 6.20501 11.1254 6.20501 9.30469C6.40099 9.3988 6.5609 9.45913 6.70518 9.546C8.3187 10.5137 9.92742 11.4898 11.5445 12.4514C11.8487 12.6324 11.9762 12.8363 11.9714 13.2115C11.9473 15.2603 11.9594 17.3114 11.9594 19.4905Z" fill="white"/>
<path d="M18.734 9.8125C18.734 12.0736 18.7376 14.2032 18.7244 16.3316C18.7232 16.4558 18.6102 16.6344 18.4983 16.6923C16.7514 17.6081 14.9972 18.5094 13.1684 19.4529C13.1684 17.2184 13.1648 15.0743 13.178 12.9315C13.1792 12.806 13.2935 12.625 13.4065 12.5671C15.1354 11.6597 16.874 10.7705 18.734 9.8125Z" fill="white"/>
<path d="M18.1198 8.91211C17.3262 9.31993 16.6024 9.69155 15.8798 10.0644C14.8843 10.5772 13.8924 11.1008 12.8872 11.5955C12.7201 11.6776 12.44 11.721 12.3005 11.6353C10.5295 10.547 8.77286 9.43214 6.92969 8.27143C7.5573 7.94445 8.11278 7.65367 8.66825 7.3653C9.75035 6.80304 10.8276 6.22992 11.9205 5.68818C12.1069 5.59648 12.4135 5.53856 12.5698 5.63026C14.4034 6.68962 16.2177 7.78036 18.1198 8.91211Z" fill="white"/>
</g>
<defs>
<clipPath id="clip0_722_424">
<rect width="25" height="25" fill="white"/>
</clipPath>
</defs>
</svg>
