<svg width="25" height="25" viewBox="0 0 25 25" fill="none" xmlns="http://www.w3.org/2000/svg">
<g clip-path="url(#clip0_722_392)">
<path d="M17.073 17.8442C17.073 18.3476 17.0921 18.786 17.0589 19.2204C17.0509 19.326 16.8727 19.5026 16.772 19.5036C15.5822 19.5178 14.3863 19.5696 13.2015 19.4833C11.3049 19.3443 10.0929 17.3053 10.6718 15.3961C10.7825 15.0328 10.8046 14.6025 10.7342 14.228C10.0819 10.768 9.39332 7.3152 8.73799 3.85527C8.67156 3.50309 8.53465 3.41377 8.21253 3.43001C7.76054 3.45234 7.30655 3.44523 6.85456 3.43204C6.41265 3.41885 6.09555 3.10117 6.06838 2.67489C6.03918 2.22122 6.33715 1.82235 6.79417 1.80712C7.66491 1.77769 8.53868 1.77972 9.40943 1.80205C9.799 1.8122 10.0577 2.05375 10.1382 2.44958C10.3043 3.25849 10.4946 4.06435 10.6134 4.88137C10.6718 5.27923 10.8258 5.36347 11.1932 5.36246C16.0573 5.35129 20.9214 5.39493 25.7845 5.32795C27.0458 5.31069 28.1411 6.48599 27.4273 7.91909C26.4086 9.96622 25.4422 12.0397 24.4225 14.166C23.9917 13.824 23.59 13.5114 23.1944 13.1897C21.014 11.4125 18.134 12.264 17.2854 14.9567C17.1908 15.2571 17.0348 15.253 16.8073 15.252C15.5661 15.249 14.3249 15.2713 13.0847 15.2419C12.7193 15.2327 12.5391 15.3779 12.377 15.6671C11.8183 16.6679 12.5955 17.9315 13.6504 17.8614C14.7688 17.7863 15.8942 17.8442 17.073 17.8442Z" fill="white"/>
<path d="M23.0891 18.75C23.4384 19.4377 23.7819 20.0802 24.0931 20.7352C24.4129 21.4089 23.8583 22.084 23.0775 21.9915C22.7124 21.9482 22.4754 21.7438 22.3227 21.4429C22.0029 20.8118 21.6824 20.182 21.3403 19.509C21.1127 19.7313 20.9045 19.9364 20.6928 20.1394C20.3629 20.4556 19.9805 20.5422 19.5858 20.393C19.1875 20.2426 18.993 19.9723 19.0002 19.5283C19.0247 18.043 19.0506 16.5571 19.0917 15.0719C19.1126 14.319 19.5 13.9442 20.1778 14.0067C20.3564 14.0234 20.5516 14.1019 20.6935 14.2051C21.9856 15.1431 23.2662 16.0951 24.5526 17.0391C24.9163 17.3061 25.0906 17.6403 24.9531 18.0603C24.8155 18.4798 24.4813 18.6801 24.0081 18.6954C23.7214 18.7034 23.4348 18.7281 23.0891 18.75Z" fill="white"/>
<path d="M7.84493 7.2287C7.15035 7.2287 6.53529 7.2287 5.92023 7.2287C5.16625 7.2287 4.41228 7.24595 3.65931 7.22362C3.04626 7.20637 2.64763 6.76385 2.66877 6.18432C2.6889 5.62205 3.08451 5.2455 3.68951 5.24145C4.82802 5.23434 5.96754 5.2455 7.10606 5.23637C7.36778 5.23434 7.48858 5.30539 7.52784 5.59363C7.59629 6.1082 7.72212 6.61466 7.84493 7.2287Z" fill="white"/>
<path d="M8.6416 11.3379C7.27457 11.3379 5.95486 11.3582 4.63717 11.3268C4.18217 11.3156 3.84494 10.8447 3.83991 10.3697C3.83487 9.87032 4.13385 9.42578 4.611 9.40548C5.7636 9.35778 6.91822 9.37199 8.07284 9.37706C8.15237 9.37706 8.28424 9.49276 8.30135 9.57497C8.42618 10.1454 8.52583 10.7219 8.6416 11.3379Z" fill="white"/>
<path d="M9.06182 13.488C9.20275 14.1923 9.44233 14.8267 9.03363 15.4914C8.00786 15.4914 6.9539 15.5117 5.89995 15.4823C5.40065 15.4691 5.00101 14.983 5.00001 14.4948C4.99799 13.9873 5.37045 13.5133 5.88283 13.4981C6.93276 13.4656 7.98571 13.488 9.06182 13.488Z" fill="white"/>
</g>
<defs>
<clipPath id="clip0_722_392">
<rect width="25" height="25" fill="white"/>
</clipPath>
</defs>
</svg>
