<svg width="15" height="15" viewBox="0 0 15 15" fill="none" xmlns="http://www.w3.org/2000/svg">
<path d="M4.96094 0.518555C5.11914 0.199219 5.44434 0 5.79883 0H9.32617C9.68066 0 10.0059 0.199219 10.1641 0.518555L10.375 0.9375H13.1875C13.7061 0.9375 14.125 1.35645 14.125 1.875C14.125 2.39355 13.7061 2.8125 13.1875 2.8125H1.9375C1.41895 2.8125 1 2.39355 1 1.875C1 1.35645 1.41895 0.9375 1.9375 0.9375H4.75L4.96094 0.518555ZM1.9375 3.75H13.1875V13.125C13.1875 14.1592 12.3467 15 11.3125 15H3.8125C2.77832 15 1.9375 14.1592 1.9375 13.125V3.75ZM4.75 5.625C4.49219 5.625 4.28125 5.83594 4.28125 6.09375V12.6562C4.28125 12.9141 4.49219 13.125 4.75 13.125C5.00781 13.125 5.21875 12.9141 5.21875 12.6562V6.09375C5.21875 5.83594 5.00781 5.625 4.75 5.625ZM7.5625 5.625C7.30469 5.625 7.09375 5.83594 7.09375 6.09375V12.6562C7.09375 12.9141 7.30469 13.125 7.5625 13.125C7.82031 13.125 8.03125 12.9141 8.03125 12.6562V6.09375C8.03125 5.83594 7.82031 5.625 7.5625 5.625ZM10.375 5.625C10.1172 5.625 9.90625 5.83594 9.90625 6.09375V12.6562C9.90625 12.9141 10.1172 13.125 10.375 13.125C10.6328 13.125 10.8438 12.9141 10.8438 12.6562V6.09375C10.8438 5.83594 10.6328 5.625 10.375 5.625Z" fill="#F50000"/>
</svg>
