<svg width="14" height="15" viewBox="0 0 14 15" fill="none" xmlns="http://www.w3.org/2000/svg">
<g clip-path="url(#clip0_3239_1070)">
<path d="M8.26131 6.15344C8.14716 6.2621 8.29163 6.2965 8.32373 6.35445C8.57343 6.80176 8.33087 7.26173 7.81897 7.27803C6.55798 7.31425 5.48069 6.90136 4.64597 5.91259C4.59781 5.85645 4.55144 5.7985 4.49971 5.74598C4.48544 5.73149 4.45334 5.73692 4.39805 5.72787C4.4355 5.90172 4.32849 6.01943 4.25536 6.15344C4.25001 6.16431 4.24287 6.17517 4.23574 6.18423C3.58116 7.22552 3.22088 8.27767 3.51517 9.58155C3.86297 11.1281 3.62932 12.7072 3.29757 14.2538C3.21731 14.6304 2.95334 14.8369 2.64121 15.0017C2.4682 15.0017 2.29698 15.0017 2.12397 15.0017C1.50328 14.5671 1.43729 14.3805 1.59067 13.5982C1.90815 11.9629 1.97415 10.3313 1.53717 8.70324C1.49793 8.55837 1.45691 8.42074 1.34989 8.30484C0.993172 7.92454 0.939664 7.45551 1.05381 6.97742C1.38735 5.5667 2.03836 4.32258 3.02468 3.27043C3.49377 2.7688 4.06452 2.51889 4.75655 2.70723C5.43253 2.89194 5.74644 3.77749 5.37545 4.38053C5.28092 4.53446 5.18639 4.3751 5.08651 4.43667C5.51993 5.36206 6.20482 5.93613 7.21434 6.07195C7.5657 6.11903 7.92064 6.13352 8.27379 6.1625C8.27022 6.1625 8.26131 6.15344 8.26131 6.15344ZM4.47117 5.72606C4.41588 5.63008 4.38378 5.5667 4.34632 5.50694C4.07165 5.06145 3.85048 4.59241 3.74347 4.07267C3.69175 3.82095 3.7399 3.60002 3.95393 3.44066C4.15013 3.29397 4.35346 3.27948 4.56392 3.4153C4.61921 3.45152 4.6852 3.5149 4.74941 3.40625C4.52647 3.12736 4.22504 3.17264 3.96463 3.27586C3.65786 3.39719 3.54192 3.68513 3.59008 4.01472C3.67213 4.56525 3.90221 5.05963 4.19115 5.52686C4.24287 5.60654 4.26428 5.74236 4.47117 5.72606ZM4.97593 4.18314C5.02944 3.71592 4.99733 3.62537 4.72266 3.42436C4.81006 3.68151 4.8814 3.8952 4.97593 4.18314Z" fill="#283942"/>
<path d="M6.93236 0C7.55484 0.213691 8.03641 0.568635 8.2005 1.2586C8.39847 2.09707 7.92939 2.95545 7.12321 3.21623C6.30276 3.48062 5.40739 3.04419 5.10418 2.23108C4.80454 1.42702 5.17196 0.517928 5.94069 0.150308C6.04949 0.0996016 6.18504 0.106845 6.26708 0C6.48825 0 6.7112 0 6.93236 0Z" fill="#283942"/>
<path d="M12.997 11.628C12.997 12.5642 12.988 13.5005 13.0005 14.4367C13.0059 14.779 12.8971 14.9384 12.535 14.9347C10.6765 14.9239 8.81801 14.9257 6.96129 14.9347C6.63311 14.9365 6.4922 14.8134 6.4922 14.4748C6.49755 12.5896 6.49934 10.7044 6.4922 8.81919C6.49042 8.46425 6.64024 8.33024 6.98091 8.33205C8.82692 8.33929 10.6729 8.33929 12.519 8.33205C12.8614 8.33024 13.0077 8.46063 13.0023 8.81919C12.988 9.75545 12.997 10.6917 12.997 11.628ZM9.75082 9.3009C9.77044 9.07272 9.81682 8.79746 9.33346 8.84636C8.80552 8.90068 8.80017 8.85903 8.80017 9.29728C8.80017 9.82607 8.80017 9.82607 9.24072 9.82607C9.75082 9.82607 9.75082 9.82607 9.75082 9.3009ZM10.5873 8.85722C10.3537 8.81557 10.1004 8.81919 10.1682 9.26649C10.2092 9.53813 10.038 9.89127 10.5766 9.83875C11.1206 9.78623 11.1278 9.82789 11.1224 9.36972C11.1171 8.77211 11.1955 8.8699 10.5873 8.85722ZM12.4779 9.28823C12.4993 9.0691 12.5439 8.80833 12.082 8.84817C11.5273 8.89525 11.5237 8.85903 11.5237 9.31177C11.5237 9.82788 11.5237 9.82789 11.9785 9.82789C12.4779 9.82607 12.4779 9.82607 12.4779 9.28823Z" fill="#283942"/>
<path d="M8.26659 6.16285C8.10428 5.88034 7.81356 6.00892 7.57812 5.95097C7.78502 5.53083 7.95981 5.13786 7.89917 4.64166C7.80999 3.91004 8.24697 3.25448 8.9069 2.97922C9.58288 2.69852 10.3463 2.89048 10.81 3.45912C11.2505 3.99878 11.3094 4.77567 10.9545 5.38414C10.5888 6.01435 9.87004 6.32402 9.14769 6.15017C8.96219 6.1049 8.81059 6.056 8.65898 6.24072C8.50024 6.43449 8.41998 6.05781 8.25767 6.15379L8.26659 6.16285ZM8.39679 4.53844C8.40214 5.18313 8.92652 5.70649 9.55434 5.692C10.1679 5.67752 10.678 5.15416 10.6834 4.53663C10.6869 3.89917 10.1679 3.374 9.53472 3.37219C8.89263 3.37219 8.39144 3.88469 8.39679 4.53844Z" fill="#283942"/>
<path d="M7.00895 7.39941C7.02322 7.48996 6.95723 7.51893 6.91799 7.55877C6.58446 7.90104 6.29552 7.84671 6.09754 7.40846C6.07792 7.365 6.0476 7.32878 6.09754 7.27808C6.16532 7.20926 6.23487 7.19296 6.32762 7.21832C6.54879 7.28351 6.77352 7.33784 7.00895 7.39941Z" fill="#283942"/>
</g>
<defs>
<clipPath id="clip0_3239_1070">
<rect width="14" height="15" fill="white"/>
</clipPath>
</defs>
</svg>
