<svg width="15" height="15" viewBox="0 0 15 15" fill="none" xmlns="http://www.w3.org/2000/svg">
<g clip-path="url(#clip0_3239_1065)">
<path d="M7.00108 0C7.13439 0 7.26771 0 7.40102 0C7.79895 0.143415 7.96862 0.442365 8.007 0.85039C8.02922 1.09278 8.11406 1.32911 8.12618 1.56949C8.13628 1.76138 8.23121 1.81188 8.38473 1.83814C8.75438 1.90277 9.12402 1.97549 9.47145 2.12901C9.61891 2.19364 9.68354 2.13709 9.7603 2.01993C9.92392 1.76946 10.0976 1.52505 10.2794 1.28872C10.5218 0.973606 10.8167 0.904929 11.1904 1.05642C11.5661 1.20792 11.855 1.49273 12.1883 1.70684C13.0487 2.25828 13.0407 2.62187 12.463 3.30057C12.0974 3.73081 11.9923 4.1045 12.4226 4.55696C12.6044 4.74886 12.6549 5.14072 12.8528 5.22354C13.079 5.31646 13.4063 5.16698 13.6891 5.11648C14.3536 4.99529 14.6102 5.18718 14.7475 5.85982C14.8263 6.24158 14.8263 6.64153 14.998 7.0031C14.998 7.15863 14.998 7.31417 14.998 7.4697C14.8344 7.82319 14.5536 7.98882 14.1678 8.01912C13.9153 8.03932 13.6668 8.108 13.4144 8.14234C13.275 8.16052 13.2144 8.20899 13.1841 8.36049C13.1114 8.74024 13.0386 9.122 12.8831 9.47953C12.8245 9.61285 12.8528 9.69364 12.9821 9.77444C13.2346 9.932 13.483 10.1017 13.7194 10.2835C14.0506 10.538 14.1476 10.9197 13.9335 11.251C13.6406 11.7075 13.3275 12.1519 12.9982 12.5821C12.7639 12.8872 12.4064 12.9276 12.0772 12.7296C11.9438 12.6488 11.8025 12.572 11.6954 12.465C11.2914 12.061 10.8894 11.9721 10.4491 12.4145C10.2471 12.6165 9.83302 12.6023 9.7603 12.867C9.6896 13.1174 9.82898 13.4285 9.87948 13.7113C9.99259 14.3496 9.78454 14.6223 9.1422 14.7475C8.716 14.8303 8.27767 14.8566 7.86359 15.004C7.75249 15.004 7.6414 15.004 7.5303 15.004C7.17479 14.8404 7.0031 14.5617 6.98088 14.1738C6.9728 14.0102 6.90008 13.8466 6.89806 13.683C6.89402 13.3073 6.72637 13.1558 6.34662 13.1174C6.00323 13.0831 5.61743 12.7983 5.34877 12.8952C5.07406 12.9962 4.92459 13.4305 4.71048 13.7113C4.44385 14.0648 4.01764 14.1355 3.65001 13.889C3.37328 13.7052 3.10463 13.5073 2.83396 13.3174C1.95327 12.7033 1.92499 12.5397 2.54915 11.6489C2.9491 11.0773 2.9592 11.0712 2.57339 10.4875C2.4118 10.2431 2.38352 9.84312 2.10881 9.76838C1.85228 9.69566 1.53111 9.83908 1.23822 9.89564C0.698896 9.99865 0.391866 9.79464 0.260571 9.27148C0.181794 8.95839 0.171694 8.62308 0 8.33423C0 8.08982 0 7.84541 0 7.601C0.117156 7.20105 0.389847 7.01724 0.799892 6.98896C1.05238 6.97078 1.30084 6.89402 1.55333 6.86776C1.73108 6.84958 1.78158 6.77282 1.8139 6.60113C1.88257 6.2436 1.97953 5.89012 2.09669 5.54673C2.15123 5.38917 2.13305 5.3104 1.99569 5.22152C1.74522 5.05992 1.50081 4.88621 1.26246 4.70644C0.925128 4.44991 0.840291 4.0843 1.06248 3.74293C1.35335 3.29855 1.65836 2.86224 1.97751 2.43806C2.21788 2.12295 2.59157 2.07649 2.92486 2.28858C3.04605 2.36534 3.17533 2.43604 3.27633 2.53703C3.69243 2.9592 4.10248 3.02787 4.54888 2.57945C4.7428 2.38554 5.14476 2.38756 5.21344 2.14921C5.28414 1.90075 5.14274 1.58968 5.0882 1.30891C4.96701 0.682736 5.1892 0.381767 5.82346 0.260571C6.21936 0.183814 6.63345 0.191893 7.00108 0ZM7.44142 11.556C9.86938 11.5641 11.556 9.60275 11.5237 7.46566C11.4873 5.08618 9.51589 3.35308 7.22529 3.4561C5.11244 3.55104 3.3551 5.41745 3.40964 7.61514C3.4662 9.8108 5.29828 11.6025 7.44142 11.556Z" fill="#283942"/>
<path d="M5.82026 6.27842C5.89499 6.33498 5.97175 6.37942 6.03437 6.438C6.29494 6.68039 6.56763 6.91066 6.80194 7.17527C6.9898 7.38737 7.09281 7.33081 7.26047 7.15709C7.77959 6.60969 8.32295 6.08653 8.83803 5.53711C9.06224 5.29674 9.22586 5.31088 9.42987 5.54721C9.63388 5.78152 9.85608 5.99967 10.0742 6.21985C10.2338 6.37942 10.2641 6.53698 10.0924 6.70665C9.12082 7.6641 8.14924 8.62154 7.17765 9.57899C7.04635 9.71029 6.92718 9.68605 6.80598 9.56485C6.14547 8.90837 5.48293 8.25392 4.82241 7.59744C4.72747 7.5025 4.68102 7.38939 4.78807 7.27425C5.07692 6.96722 5.36981 6.66625 5.66674 6.36528C5.7031 6.32488 5.76168 6.30872 5.82026 6.27842Z" fill="#283942"/>
</g>
<defs>
<clipPath id="clip0_3239_1065">
<rect width="15" height="15" fill="white"/>
</clipPath>
</defs>
</svg>
