<svg width="15" height="15" viewBox="0 0 15 15" fill="none" xmlns="http://www.w3.org/2000/svg">
<path d="M6.83086 6.21516C8.62897 6.23832 10.0877 7.5163 10.3616 9.25308C10.7635 11.8033 8.13776 14.022 5.46144 13.0031C5.2992 12.9408 5.20691 12.9611 5.08932 13.0885C4.59514 13.6269 4.08607 14.1537 3.58445 14.6834C3.22423 15.0641 2.69582 15.1046 2.31327 14.7833C1.92328 14.4533 1.89054 13.9265 2.25373 13.5299C2.74196 12.9973 3.24061 12.4734 3.74223 11.9523C3.84345 11.8481 3.84345 11.7801 3.76605 11.6614C2.99649 10.4717 2.95481 9.24729 3.63059 8.01273C4.24088 6.89829 5.51652 6.19779 6.83086 6.21516ZM4.16496 9.76398C4.1858 11.1997 5.36916 12.3113 6.85468 12.2896C8.26429 12.2693 9.4402 11.0912 9.4149 9.70609C9.38959 8.28627 8.18391 7.16026 6.74602 7.1892C5.29176 7.21815 4.14561 8.35574 4.16496 9.76398Z" fill="#283942"/>
<path d="M8.67188 13.2539C9.19434 12.9195 9.6647 12.5461 10.0279 12.0555C10.0934 11.9672 10.1797 11.9904 10.2616 11.9889C10.6933 11.9875 11.1264 11.9744 11.5581 11.9932C11.7799 12.0034 11.826 11.9354 11.826 11.7284C11.82 9.0494 11.8215 6.36897 11.8215 3.68854C11.8215 3.52065 11.8111 3.35132 11.8245 3.18487C11.8364 3.02567 11.7694 2.96488 11.6176 2.99238C11.4048 3.03001 11.2931 2.92725 11.1859 2.76081C10.9686 2.42069 10.729 2.0936 10.467 1.7144C11.0669 1.739 11.6251 1.6348 12.1698 1.78676C12.6506 1.92137 12.99 2.37293 12.9915 2.86502C12.996 4.7639 12.993 6.66422 12.993 8.56311C12.993 9.71372 12.9945 10.8658 12.9945 12.0164C12.9945 12.7473 12.4795 13.251 11.7278 13.2524C10.7096 13.2553 9.6915 13.2539 8.67188 13.2539Z" fill="#283942"/>
<path d="M10.7898 3.35669C8.96934 3.35669 7.20993 3.35669 5.42969 3.35669C5.45053 3.20328 5.55621 3.1092 5.62766 3.00355C6.0623 2.36818 6.50289 1.7357 6.94498 1.10467C6.99559 1.0323 7.02089 0.959937 7.03578 0.875992C7.12062 0.388246 7.55229 0.023522 8.06135 0.00181228C8.55256 -0.0184502 9.01101 0.331801 9.12116 0.828231C9.15391 0.971515 9.21494 1.09164 9.29681 1.20888C9.78801 1.90793 10.2733 2.60988 10.7898 3.35669ZM8.46473 1.0352C8.4558 0.836915 8.27272 0.679157 8.06284 0.690735C7.86785 0.702314 7.70709 0.870203 7.71304 1.0598C7.71751 1.25374 7.90804 1.41584 8.11494 1.40426C8.30993 1.39268 8.47218 1.2219 8.46473 1.0352Z" fill="#283942"/>
<path d="M5.71293 1.71253C5.41672 2.13949 5.1473 2.52593 4.88086 2.91381C4.80048 3.03104 4.67842 2.99775 4.57423 2.98907C4.38965 2.97315 4.34351 3.03972 4.345 3.21485C4.35244 4.2656 4.345 5.31635 4.35244 6.36566C4.35393 6.53934 4.31374 6.65947 4.16489 6.77091C3.76895 7.06761 3.48316 7.45694 3.23607 7.87811C3.14527 7.83903 3.19141 7.76232 3.19141 7.70588C3.18843 6.10949 3.18546 4.51309 3.19141 2.91525C3.19439 2.22488 3.70643 1.72556 4.41496 1.71253C4.82876 1.70674 5.24405 1.71253 5.71293 1.71253Z" fill="#283942"/>
<path d="M6.27677 5.84503C6.18448 5.84792 6.1562 5.78858 6.11452 5.74951C5.87785 5.52807 5.65011 5.29794 5.40451 5.08519C5.27352 4.97085 5.30775 4.91151 5.42237 4.81598C5.71114 4.57428 5.70667 4.56994 5.95227 4.84493C6.2723 5.20387 6.2723 5.20387 6.59679 4.85217C6.78732 4.64665 6.99124 4.44981 7.1654 4.23127C7.30234 4.06193 7.3976 4.08654 7.51073 4.23995C7.54497 4.28771 7.59111 4.32824 7.63576 4.36732C7.69679 4.42087 7.70721 4.46139 7.63874 4.52797C7.21154 4.94335 6.78881 5.36452 6.36459 5.78279C6.33631 5.81174 6.2976 5.83055 6.27677 5.84503Z" fill="#283942"/>
<path d="M9.78386 4.9746C9.44746 4.9746 9.11106 4.96158 8.77763 4.97895C8.55734 4.99052 8.60348 4.85737 8.59604 4.7358C8.5871 4.60409 8.59604 4.52159 8.77912 4.52449C9.45043 4.53607 10.1217 4.53462 10.7931 4.52449C10.9791 4.52159 10.9806 4.60843 10.9717 4.73869C10.9642 4.86027 11.0089 4.99052 10.7901 4.97895C10.4552 4.96303 10.1188 4.97605 9.78386 4.9746Z" fill="#283942"/>
<path d="M9.76231 6.00212C9.43335 6.00212 9.1044 5.99199 8.77693 6.00646C8.59087 6.0137 8.58938 5.92107 8.59533 5.78936C8.60128 5.67213 8.57151 5.56358 8.76949 5.56792C9.44377 5.5795 10.1181 5.57805 10.7924 5.56647C10.9784 5.56358 10.9784 5.65331 10.974 5.78212C10.9695 5.90225 10.9978 6.0137 10.7998 6.00646C10.4545 5.99054 10.1091 6.00212 9.76231 6.00212Z" fill="#283942"/>
<path d="M9.5 6.8418C9.98972 6.8418 10.4273 6.84324 10.865 6.8418C11.0123 6.8418 10.984 6.946 10.9632 7.01692C10.9364 7.10376 11.0719 7.26297 10.8694 7.27165C10.5777 7.28323 10.28 7.30494 9.99269 7.26731C9.77984 7.23836 9.70392 6.99811 9.5 6.8418Z" fill="#283942"/>
<path d="M10.6813 7.86974C10.924 7.81475 10.979 7.92185 10.979 8.13605C10.979 8.30828 10.9031 8.32276 10.7632 8.31697C10.5697 8.30973 10.3613 8.1346 10.394 7.94645C10.4208 7.79738 10.5905 7.90593 10.6813 7.86974Z" fill="#283942"/>
<path d="M10.9777 10.4063C10.9494 10.4931 11.0387 10.6321 10.8527 10.6292C10.7797 10.6277 10.6934 10.6277 10.7395 10.5279C10.7931 10.415 10.6889 10.2181 10.872 10.1921C11.0521 10.166 10.9301 10.3397 10.9777 10.4063Z" fill="#283942"/>
<path d="M10.9792 9.36856C10.9509 9.44238 11.0238 9.59 10.9048 9.57408C10.7321 9.54948 10.8393 9.36567 10.7931 9.26146C10.7589 9.1862 10.8021 9.15291 10.8795 9.16015C11.0447 9.17317 10.9435 9.30054 10.9792 9.36856Z" fill="#283942"/>
<path d="M8.6404 8.98819C8.61509 9.01713 8.59574 9.04463 8.57192 9.06779C7.89019 9.7379 7.20697 10.4066 6.52673 11.0781C6.45677 11.1461 6.41956 11.123 6.36002 11.068C5.9358 10.6627 5.51157 10.2575 5.0814 9.85658C4.98613 9.76829 4.99804 9.70461 5.09331 9.63514C5.10075 9.6308 5.1067 9.62501 5.11414 9.61922C5.60386 9.16186 5.60386 9.16331 6.05041 9.64816C6.08465 9.68579 6.12186 9.72198 6.15609 9.75816C6.47463 10.1012 6.47761 10.1041 6.80954 9.75527C7.19506 9.35002 7.57612 8.94187 7.95271 8.52939C8.04946 8.42373 8.10751 8.40347 8.20575 8.52939C8.30846 8.65965 8.43945 8.76964 8.55704 8.88977C8.58532 8.92161 8.61063 8.9549 8.6404 8.98819Z" fill="#283942"/>
</svg>
