<svg width="15" height="15" viewBox="0 0 15 15" fill="none" xmlns="http://www.w3.org/2000/svg">
<g clip-path="url(#clip0_3238_1036)">
<path d="M3.09766 13.5603C2.89883 13.5484 2.81598 13.4039 2.70709 13.2997C2.38991 12.9894 2.09403 12.6579 1.76027 12.3689C1.43125 12.0847 1.36024 11.8099 1.67269 11.4807C1.85496 11.2888 1.80998 11.1136 1.69163 10.8909C1.46439 10.4646 1.24189 10.024 1.0975 9.56453C0.964945 9.14056 0.882098 8.75686 0.31874 8.76159C0.0701998 8.76396 0.0110235 8.55316 0.0110235 8.33289C0.0133906 7.9776 0.0181247 7.62469 0.00865646 7.26941C-0.00317879 6.78386 -0.0836585 6.27225 0.62409 6.19646C0.811087 6.17751 0.931806 6.04724 0.97678 5.85302C1.12827 5.20167 1.38628 4.59295 1.7366 4.0245C1.83365 3.86818 1.84549 3.74264 1.71767 3.61237C1.28923 3.17419 1.4928 2.8426 1.88336 2.52284C2.08693 2.35468 2.27156 2.16045 2.44909 1.9615C2.78994 1.57779 3.1237 1.21777 3.63261 1.73885C3.80777 1.91886 3.95453 1.77675 4.10129 1.69148C4.61967 1.39305 5.15936 1.14198 5.74875 1.01408C6.0186 0.957234 6.19849 0.810384 6.20323 0.528527C6.21033 0.0713977 6.47071 -0.0162385 6.8589 0.00744695C7.21159 0.0287639 7.56902 0.0263953 7.92171 0.00744695C8.39748 -0.0186071 8.81882 -0.0115014 8.82355 0.642217C8.82592 0.921706 9.08866 0.952497 9.29696 1.02592C9.7112 1.17514 10.142 1.29357 10.5302 1.49726C10.9302 1.70806 11.2735 1.95913 11.6948 1.53516C11.8581 1.36936 12.0569 1.45937 12.2155 1.62516C12.5067 1.92834 12.7931 2.23862 13.1103 2.51574C13.4819 2.84023 13.7257 3.15998 13.2831 3.6029C13.0866 3.79949 13.2381 3.95818 13.3209 4.13345C13.5174 4.55269 13.7423 4.96244 13.8843 5.40063C14.0263 5.8317 14.0926 6.26278 14.6962 6.2533C14.9447 6.24856 14.9874 6.47831 14.9874 6.69385C14.985 7.13677 14.9661 7.58206 14.9921 8.02261C15.0205 8.47737 14.9471 8.81133 14.3909 8.81844C14.1186 8.82317 14.0334 9.04345 13.9837 9.26609C13.8748 9.74454 13.7044 10.1993 13.4559 10.6185C13.2452 10.9738 13.0724 11.2983 13.444 11.6678C13.6476 11.8668 13.5387 12.0657 13.3565 12.2386C13.0677 12.5134 12.7742 12.7858 12.5138 13.0866C12.1777 13.4703 11.8486 13.7616 11.3776 13.2808C11.2048 13.1031 11.0652 13.2334 10.9066 13.3092C10.49 13.5082 10.0757 13.7261 9.64019 13.8753C9.19518 14.0269 8.73361 14.1027 8.73124 14.7256C8.73124 14.9482 8.53714 14.9956 8.34541 14.9956C7.79152 14.998 7.23763 14.9909 6.68374 14.998C6.38549 15.0027 6.2269 14.8748 6.21743 14.5716C6.2056 14.2021 5.99019 14.0506 5.6446 13.9629C5.26351 13.8658 4.88241 13.7284 4.53209 13.5461C4.09892 13.321 3.70362 13.025 3.25625 13.5034C3.22311 13.5461 3.14026 13.5461 3.09766 13.5603ZM7.4838 2.51337C4.59363 2.61522 2.50353 4.57874 2.44198 7.98945C2.42305 9.0245 3.06689 10.1164 3.88825 10.9501C4.82087 11.8975 5.99729 12.6081 7.24473 12.5726C10.0994 12.4897 12.438 10.6493 12.4806 7.4731C12.5162 4.74691 10.2272 2.511 7.4838 2.51337Z" fill="#283942"/>
<path d="M7.49678 6.79585C7.72165 6.45715 7.92759 6.17056 8.10748 5.86738C8.23294 5.66132 8.40336 5.62342 8.6093 5.67316C8.8389 5.72764 8.74185 5.92423 8.74422 6.0545C8.75369 7.02797 8.75132 8.00381 8.74895 8.97728C8.74895 9.16913 8.79629 9.42967 8.51935 9.44862C8.18086 9.46994 8.23767 9.17861 8.2353 8.96781C8.23057 8.24066 8.23294 7.51352 8.23294 6.75795C7.86604 6.91428 7.88025 7.46615 7.48021 7.44957C7.11332 7.43536 7.09912 6.95454 6.75116 6.72716C6.75116 7.49457 6.7559 8.21224 6.7488 8.92754C6.74643 9.13361 6.82928 9.43441 6.50499 9.44625C6.16887 9.46047 6.23988 9.15729 6.23988 8.94886C6.23278 7.97539 6.23278 6.99955 6.24225 6.02607C6.24225 5.8958 6.1523 5.69685 6.40321 5.66369C6.5831 5.64 6.74169 5.64237 6.85531 5.83185C7.04941 6.15161 7.26481 6.45241 7.49678 6.79585Z" fill="#283942"/>
<path d="M5.72312 7.74301C5.87461 8.16224 5.49588 8.6549 5.91722 9.10729C6.08528 9.2873 5.70182 9.47915 5.60003 9.38915C5.30889 9.13808 5.11242 9.37257 4.87808 9.43415C4.01884 9.65916 3.31346 9.14282 3.28743 8.24988C3.27086 7.69564 3.26139 7.13903 3.30399 6.58716C3.35607 5.90028 3.84131 5.55684 4.69109 5.545C5.1787 5.53789 5.67104 6.01634 5.71839 6.58479C5.74916 6.95902 5.72312 7.33799 5.72312 7.74301ZM5.27811 8.26172C5.27811 7.81407 5.27811 7.39483 5.27811 6.97323C5.27811 6.90691 5.28048 6.84059 5.27338 6.77428C5.21184 6.32662 4.9704 6.00924 4.50882 6.00924C4.04725 6.00924 3.77977 6.32425 3.75373 6.77428C3.72296 7.25983 3.71823 7.75012 3.75847 8.2333C3.81764 8.93439 4.20821 9.13572 4.88755 8.84912C4.71239 8.6099 4.33603 8.37541 4.5467 8.07461C4.75026 7.78564 4.96566 8.21198 5.27811 8.26172Z" fill="#283942"/>
<path d="M10.7997 7.39762C11.2352 7.34315 11.4506 7.61316 11.6068 7.96844C11.8057 8.4232 11.7252 8.84007 11.3843 9.18588C10.9938 9.58142 10.4943 9.53879 10.0091 9.43457C9.54512 9.33509 9.37706 8.91112 9.1735 8.54874C9.09302 8.40426 9.1664 8.21714 9.32735 8.15793C9.58063 8.06555 9.63034 8.26688 9.72265 8.45399C10.0635 9.14561 10.4493 9.24035 10.9441 8.7927C11.1192 8.634 11.2967 8.45636 11.1737 8.23372C11.0435 7.99687 10.8659 7.81686 10.5038 7.82159C9.65874 7.83344 9.15693 7.22472 9.27528 6.43363C9.36049 5.86754 9.77946 5.56437 10.5795 5.52884C11.1003 5.50516 11.4648 5.76333 11.6684 6.24414C11.7654 6.47389 11.6968 6.71785 11.5311 6.83628C11.3607 6.95707 11.2896 6.75575 11.2518 6.59706C11.1145 6.04992 10.7286 5.90307 10.2339 6.0286C9.90492 6.1115 9.70845 6.36494 9.74632 6.72022C9.7842 7.10156 10.2931 7.42131 10.7997 7.39762Z" fill="#283942"/>
</g>
<defs>
<clipPath id="clip0_3238_1036">
<rect width="15" height="15" fill="white"/>
</clipPath>
</defs>
</svg>
