<svg width="25" height="25" viewBox="0 0 25 25" fill="none" xmlns="http://www.w3.org/2000/svg">
<g clip-path="url(#clip0_511_2)">
<path d="M20.3175 19.8694C21.016 19.3523 21.569 18.9789 22.1219 18.5767C22.4712 18.3181 22.8495 17.7723 23.2861 18.3468C23.7226 18.9214 23.0824 19.1799 22.7622 19.4385C20.6959 21.1334 18.3094 22.2251 15.69 22.6847C10.8588 23.5466 6.4351 22.5698 2.50611 19.6109C2.27328 19.4672 2.06956 19.2949 1.86583 19.0938C1.6039 18.8639 1.42928 18.6054 1.72031 18.2894C1.98224 18.0021 2.27328 18.0308 2.53521 18.2607C3.2046 18.8065 3.87398 19.3236 4.74709 19.7832C4.74709 18.9789 4.74709 18.2319 4.74709 17.5137C4.77619 15.0719 6.66793 13.2046 9.11263 13.1758C11.3827 13.1471 13.6528 13.1471 15.9229 13.1758C18.3967 13.2046 20.2593 15.0719 20.3175 17.5137C20.3175 18.2319 20.3175 18.9214 20.3175 19.8694ZM14.6714 15.4741C13.9729 16.1923 13.2744 16.8817 12.6051 17.5425C11.6446 18.4905 11.6155 18.5192 10.6842 17.5999C10.2186 17.169 10.0148 17.5137 9.81111 17.7723C9.57829 18.0308 8.99621 18.1745 9.52008 18.6916C10.1895 19.381 10.8297 20.0992 11.4991 20.8462C12.7215 19.6396 13.7692 18.6054 14.7878 17.5712C15.8647 16.537 15.8647 16.537 14.6714 15.4741Z" fill="white"/>
<path d="M12.5173 2C15.1949 2 17.4067 4.12586 17.4067 6.76881C17.4649 9.41177 15.224 11.5951 12.4882 11.5951C9.8398 11.5663 7.62793 9.38304 7.62793 6.79754C7.65703 4.15458 9.8398 2 12.5173 2Z" fill="white"/>
<path d="M0.49789 16.709C0.847134 16.709 1.02176 16.8814 1.05086 17.2261C1.05086 17.5134 0.905341 17.7145 0.614305 17.7432C0.265061 17.7719 0.0322325 17.6283 0.00312893 17.2835C-0.0259747 16.9388 0.148647 16.7664 0.49789 16.709Z" fill="white"/>
<path d="M25.0032 17.0543C25.0614 17.6001 24.8286 17.8012 24.5375 17.8012C24.2465 17.8299 24.0137 17.6288 24.0137 17.2841C24.0137 16.9681 24.1883 16.767 24.5084 16.7383C24.8286 16.767 25.0032 16.9394 25.0032 17.0543Z" fill="white"/>
</g>
<defs>
<clipPath id="clip0_511_2">
<rect width="25" height="25" fill="white"/>
</clipPath>
</defs>
</svg>
