<svg width="25" height="25" viewBox="0 0 25 25" fill="none" xmlns="http://www.w3.org/2000/svg">
<path d="M9.29688 4.74469C9.33085 4.6806 9.36968 4.67074 9.4085 4.73483L9.35512 4.75455L9.29688 4.74469Z" fill="white"/>
<path d="M21.6199 6.72266C21.6248 6.75224 21.6345 6.78675 21.6345 6.81633C21.6345 6.82619 21.6005 6.83112 21.5859 6.84098C21.5956 6.80154 21.6054 6.7621 21.6199 6.72266Z" fill="white"/>
<path d="M22.2031 11.0849C22.2614 11.0356 22.2905 11.0603 22.3148 11.1195C22.2759 11.1096 22.242 11.0948 22.2031 11.0849Z" fill="white"/>
<path d="M14.7132 20.8168C14.6695 20.876 14.6307 20.8711 14.6016 20.807C14.6404 20.7922 14.6792 20.7922 14.7132 20.8168Z" fill="white"/>
<path d="M3.94588 14.6882C1.73757 14.6931 0.00974755 12.9577 4.0699e-05 10.7194C-0.00966615 8.491 1.71815 6.71122 3.90705 6.6915C6.12021 6.67671 7.90142 8.46635 7.89657 10.7046C7.88686 12.9331 6.15419 14.6833 3.94588 14.6882ZM3.63526 9.41294C3.63526 9.80243 3.64011 10.187 3.63526 10.5765C3.6304 10.7885 3.66438 10.9758 3.82454 11.1336C4.19826 11.5033 4.57197 11.8731 4.92627 12.2626C5.10099 12.4499 5.20291 12.3957 5.35822 12.2478C5.54265 12.0752 5.50383 11.9668 5.34366 11.8139C5.12041 11.6069 4.93112 11.3604 4.69816 11.173C4.31474 10.8673 4.19826 10.4926 4.23223 10.0046C4.27106 9.41787 4.24194 8.82132 4.24194 8.22971C4.24194 8.02757 4.28562 7.82543 3.96044 7.81557C3.61099 7.80571 3.63526 8.01771 3.63526 8.25436C3.64011 8.63891 3.63526 9.02346 3.63526 9.41294Z" fill="white"/>
<path d="M3.96823 15.3255C4.46814 15.3255 4.96804 15.3354 5.47279 15.3206C5.73488 15.3157 5.85136 15.3748 5.75915 15.6657C5.24468 17.3173 5.53589 17.0954 3.99735 17.1053C3.95852 17.1053 3.91484 17.1053 3.87602 17.1053C2.49279 17.0708 2.61413 17.411 2.13849 15.715C2.02686 15.3255 2.17732 15.3157 2.46852 15.3255C2.96843 15.3354 3.46833 15.3255 3.96823 15.3255Z" fill="white"/>
<path d="M3.89356 6.18482C3.39366 6.18482 2.89375 6.17989 2.39385 6.18482C2.13662 6.18975 2.05411 6.15031 2.12691 5.83971C2.45695 4.43955 2.45209 4.42969 3.86444 4.42969C3.94209 4.42969 4.0246 4.42969 4.10226 4.42969C5.35929 4.42969 5.62138 4.67127 5.77669 5.91859C5.81066 6.17003 5.68933 6.18482 5.50975 6.17989C4.97102 6.17989 4.43229 6.18482 3.89356 6.18482Z" fill="white"/>
<path d="M21.0805 20.3979C21.663 20.2401 22.1046 19.8556 22.3473 19.2689C22.4104 19.1111 22.5026 18.9533 22.2065 18.9484C20.6826 18.9336 19.1634 18.697 17.6395 18.9484C17.3386 18.9977 17.0522 19.0815 16.8241 19.2985C16.596 19.5203 16.3582 19.54 16.1446 19.2985C15.8971 19.0125 16.1203 18.8005 16.3193 18.6329C16.7319 18.2828 17.2318 18.13 17.7608 18.0758C19.5032 17.9032 21.2504 18.061 22.9977 18.0511C23.2306 18.0511 23.614 18.1399 24.012 17.9377C24.6138 17.637 25.1186 16.7989 24.9002 16.0446C24.8856 15.9903 24.7594 15.6058 24.4149 15.3346C24.1479 15.1226 23.7888 15.0191 23.3131 15.0043C22.9782 14.9944 22.4541 15.1423 22.4541 14.6197C22.4492 14.0577 22.9879 14.2007 23.3422 14.1957C24.3566 14.1711 25.0021 13.5893 24.9973 12.6773C24.9973 11.7997 24.3566 11.1933 23.3859 11.1538C23.0268 11.1391 22.6676 11.1292 22.3085 11.1144C22.2696 11.1045 22.2357 11.0898 22.1968 11.0799C21.9153 10.646 22.0027 10.4143 22.4832 10.3798C22.7016 10.365 22.9249 10.3897 23.1433 10.3699C23.9538 10.3059 24.5653 9.62549 24.5459 8.82681C24.5265 8.04291 23.9247 7.39213 23.1433 7.34283C22.7647 7.31818 22.3813 7.3379 21.9978 7.33297C21.6824 7.32804 21.4979 7.19493 21.5756 6.83996C21.5853 6.80051 21.5999 6.76107 21.6096 6.72163C21.8037 6.37159 22.1386 6.49977 22.4201 6.49977C22.9054 6.5047 23.3277 6.39624 23.6723 6.02648C24.3323 5.30668 24.2013 4.36995 23.3617 3.872C22.2648 3.22122 21.0369 3.15713 19.8235 3.06346C17.3822 2.87118 14.9944 3.09797 12.6793 3.99032C11.6358 4.3946 10.5292 4.61645 9.41291 4.73478L9.35952 4.7545L9.30128 4.74464C8.50532 4.9024 7.70451 4.95171 6.90369 4.97143C6.60763 4.98129 6.44262 5.04538 6.49115 5.38063C6.50571 5.45951 6.50086 5.54332 6.49115 5.62714C6.40379 6.37159 6.61734 6.90405 7.2046 7.46609C9.10229 9.27052 8.99066 12.3519 7.02017 14.1415C6.61734 14.5063 6.40379 14.8465 6.4863 15.379C6.50086 15.4776 6.4863 15.5811 6.4863 15.6847C6.4863 16.5622 6.4863 16.5672 7.35506 16.7446C7.94232 16.863 8.49076 17.075 8.88874 17.5285C10.4273 19.2837 12.3492 20.3338 14.5915 20.812C14.6303 20.7923 14.6692 20.7972 14.7031 20.8219C16.8678 21.1916 18.9887 20.9599 21.0805 20.3979Z" fill="white"/>
</svg>
