<svg width="25" height="25" viewBox="0 0 25 25" fill="none" xmlns="http://www.w3.org/2000/svg">
<g clip-path="url(#clip0_298_137)">
<path d="M10.5791 11.9185C10.9333 11.33 11.2387 10.8273 11.5441 10.3246C11.7517 9.99352 11.9838 9.78508 12.3747 9.87091C14.7321 10.4104 16.662 11.6978 18.1399 13.7821C18.1766 13.8434 18.1766 13.9293 18.201 14.0028C15.0252 15.4251 13.535 17.7179 13.8282 20.7341C13.6328 20.9057 13.4007 20.8199 13.1808 20.8199C9.47981 20.8199 5.7788 20.8199 2.0778 20.8199C1.08842 20.8199 0.978486 20.6973 1.00291 19.6183C1.08842 15.0205 4.58178 10.6679 8.74694 9.91995C9.18667 9.84638 9.41874 10.018 9.6386 10.3736C9.91954 10.864 10.2249 11.33 10.5791 11.9185Z" fill="white"/>
<path d="M10.5765 9.69838C8.10921 9.69838 6.08159 7.50368 6.0938 4.85532C6.0938 2.1947 8.13363 0 10.5888 0C13.0561 0 15.0715 2.1947 15.0837 4.85532C15.0837 7.51594 13.0439 9.69838 10.5765 9.69838Z" fill="white"/>
<path d="M19.556 15.2904C22.1577 15.3639 24.0754 17.5341 24.0021 20.3296C23.9288 22.9657 21.8279 25.0746 19.3484 25.001C16.9543 24.9274 15.0733 22.6837 15.1099 19.974C15.1588 17.3502 17.1619 15.2291 19.556 15.2904ZM19.556 21.0407C19.8247 21.3718 20.0202 21.617 20.2278 21.8622C20.5209 22.2178 20.8752 22.3526 21.2294 21.9971C21.5836 21.6415 21.4615 21.2614 21.1439 20.9181C20.9118 20.6606 20.692 20.4032 20.4232 20.0966C20.7164 19.8024 20.9851 19.5572 21.2294 19.2752C21.4981 18.9809 21.5225 18.6253 21.2783 18.3065C20.9851 17.951 20.6553 18.0123 20.3377 18.2943C20.0446 18.5518 19.8614 18.9318 19.4339 19.1158C19.2506 18.8951 19.0674 18.6621 18.8842 18.4414C18.5788 18.0736 18.2124 17.8774 17.8337 18.2943C17.4551 18.7234 17.6872 19.1035 18.017 19.4345C18.2246 19.643 18.4445 19.8269 18.872 20.207C18.4689 20.5135 18.1513 20.7097 17.8948 20.9672C17.6017 21.2614 17.5406 21.6538 17.846 21.9848C18.1513 22.3036 18.4933 22.2423 18.7987 21.9358C19.0063 21.6906 19.2262 21.4208 19.556 21.0407Z" fill="white"/>
</g>
<defs>
<clipPath id="clip0_298_137">
<rect width="25" height="25" fill="white"/>
</clipPath>
</defs>
</svg>
