<svg width="25" height="25" viewBox="0 0 25 25" fill="none" xmlns="http://www.w3.org/2000/svg">
<g clip-path="url(#clip0_298_153)">
<path d="M0 20.1142C0.0882145 20.0173 0.0882145 19.8762 0.149965 19.7617C0.90861 18.3869 1.89661 17.2148 3.29922 16.4481C4.13726 15.9899 5.03705 15.7343 5.99859 15.6374C7.22477 15.514 8.45977 15.4876 9.69478 15.5316C10.5857 15.5581 11.4767 15.5845 12.35 15.7872C14.0438 16.175 15.367 17.1179 16.4079 18.475C16.7078 18.8628 16.9725 19.2682 17.2018 19.7C17.7399 20.7046 17.0519 21.9296 15.9051 21.9825C15.8345 21.9825 15.7551 21.9825 15.6845 21.9825C11.0092 21.9825 6.3338 21.9825 1.64961 21.9825C0.829217 21.9825 0.273465 21.5771 0.0352858 20.7839C0.0352858 20.7751 0.0352858 20.7487 0 20.7399C0 20.5372 0 20.3257 0 20.1142Z" fill="white"/>
<path d="M25.003 13.495C24.9148 13.6536 24.9236 13.8387 24.8883 14.0149C24.4031 16.0771 22.7182 17.6193 20.6187 17.8925C17.9547 18.2362 15.4582 16.3943 15.0083 13.7505C14.5496 11.0098 16.3668 8.44534 19.1015 7.95184C21.7214 7.48477 24.2973 9.19441 24.8795 11.7941C24.9236 12.0056 24.9589 12.226 25.003 12.4463C25.003 12.79 25.003 13.1425 25.003 13.495ZM19.3749 11.7236C19.3749 12.1731 19.3749 12.6313 19.3749 13.0808C19.3749 13.1513 19.3837 13.2042 19.4455 13.257C20.0277 13.7153 20.6099 14.1824 21.201 14.6406C21.4921 14.8697 21.8626 14.8345 22.0743 14.5613C22.286 14.2881 22.2331 13.9268 21.942 13.6977C21.5362 13.3716 21.1304 13.0543 20.7158 12.7283C20.6187 12.6578 20.5746 12.5785 20.5835 12.4551C20.5923 11.7853 20.5923 11.1156 20.5835 10.4458C20.5835 10.0757 20.3276 9.80249 19.9836 9.79367C19.6396 9.78486 19.3837 10.0669 19.3749 10.4458C19.3749 10.8688 19.3749 11.3006 19.3749 11.7236Z" fill="white"/>
<path d="M8.70898 3C11.7965 3 14.2665 5.49397 14.2577 8.60482C14.2577 11.6452 11.7524 14.1303 8.68252 14.1215C5.60383 14.1215 3.125 11.6187 3.125 8.53432C3.13382 5.47635 5.63029 3 8.70898 3Z" fill="white"/>
</g>
<defs>
<clipPath id="clip0_298_153">
<rect width="25" height="25" fill="white"/>
</clipPath>
</defs>
</svg>
