<svg width="15" height="15" viewBox="0 0 15 15" fill="none" xmlns="http://www.w3.org/2000/svg">
<path d="M7.50156 8.75C4.37031 8.75 1.82031 10.85 1.82031 13.4375C1.82031 13.6125 1.95781 13.75 2.13281 13.75H12.8704C13.0454 13.75 13.1829 13.6125 13.1829 13.4375C13.1829 10.85 10.6329 8.75 7.50156 8.75Z" fill="#283942"/>
<path d="M10.45 6.46875L9.85 5.86875C10.1625 5.4 10.3438 4.8375 10.3438 4.23125C10.3438 2.58125 9.00625 1.25 7.3625 1.25C5.71875 1.25 4.375 2.5875 4.375 4.23125C4.375 5.875 5.7125 7.2125 7.35625 7.2125C7.9625 7.2125 8.525 7.03125 8.99375 6.71875L9.59375 7.31875C9.7125 7.4375 9.86875 7.49375 10.0188 7.49375C10.175 7.49375 10.3312 7.4375 10.4438 7.31875C10.6813 7.0875 10.6813 6.70625 10.45 6.46875Z" fill="#283942"/>
</svg>
