<svg width="15" height="15" viewBox="0 0 15 15" fill="none" xmlns="http://www.w3.org/2000/svg">
<path d="M3.49465 0C6.49095 0 9.48725 0 12.4835 0C12.49 0.00628931 12.4933 0.0125786 12.4997 0.0125786C12.8787 0.110063 13.0763 0.358491 13.0763 0.738994C13.0763 4.42453 13.0763 8.11006 13.0763 11.7925C13.0763 11.8679 13.0472 11.9308 12.9953 11.9843C12.8237 12.1604 12.652 12.3365 12.4803 12.5094C11.7709 13.2327 11.0648 13.9591 10.3521 14.6824C10.242 14.7925 10.1513 14.9214 10.0088 14.9969C7.83847 14.9969 5.66818 14.9969 3.49789 14.9969C3.48169 14.9654 3.44606 14.9686 3.41691 14.9591C3.13185 14.8616 2.9375 14.6006 2.9375 14.3145C2.9375 9.77673 2.9375 5.23585 2.9375 0.698113C2.9375 0.389937 3.12862 0.132075 3.4331 0.0314465C3.45254 0.0251572 3.48493 0.0314465 3.49465 0ZM7.99719 6.91195C9.17304 6.91195 10.3521 6.91195 11.528 6.91195C11.5668 6.91195 11.6057 6.91195 11.6446 6.9088C11.7223 6.90252 11.7839 6.86792 11.826 6.80189C11.8713 6.72641 11.881 6.6478 11.8357 6.56918C11.7806 6.4717 11.6932 6.4434 11.583 6.4434C9.19571 6.4434 6.80515 6.4434 4.41783 6.4434C4.25587 6.4434 4.1425 6.54088 4.1425 6.6761C4.1425 6.81447 4.25263 6.9088 4.41783 6.9088C5.60987 6.91195 6.80191 6.91195 7.99719 6.91195ZM8.00043 7.84906C9.19571 7.84906 10.391 7.84906 11.5863 7.84906C11.6057 7.84906 11.6284 7.84906 11.6478 7.84906C11.7547 7.83648 11.8422 7.75786 11.8616 7.65409C11.8778 7.56604 11.826 7.46226 11.7385 7.41509C11.6867 7.38679 11.6284 7.38365 11.5701 7.38365C9.19571 7.38365 6.82135 7.38365 4.44375 7.38365C4.40488 7.38365 4.36601 7.38365 4.32713 7.39308C4.19109 7.42138 4.11334 7.55975 4.15545 7.68868C4.19109 7.79245 4.27855 7.84906 4.41135 7.84906C5.60987 7.84906 6.80515 7.84906 8.00043 7.84906ZM8.00367 5.97484C9.18276 5.97484 10.3618 5.97484 11.5442 5.97484C11.5798 5.97484 11.6187 5.97484 11.6543 5.9717C11.7968 5.95912 11.894 5.81447 11.8551 5.68239C11.8195 5.56604 11.7288 5.50943 11.5733 5.50943C9.19571 5.50943 6.81811 5.50943 4.44051 5.50943C4.41459 5.50943 4.38868 5.50943 4.36277 5.51258C4.26559 5.52201 4.18461 5.58491 4.15545 5.6761C4.10687 5.83333 4.22348 5.97484 4.41135 5.97484C5.60987 5.97484 6.80839 5.97484 8.00367 5.97484ZM8.00367 8.3239C6.82135 8.3239 5.63903 8.3239 4.4567 8.3239C4.42107 8.3239 4.38868 8.3239 4.35305 8.32704C4.25263 8.33962 4.18785 8.39623 4.15222 8.48742C4.10687 8.61321 4.20728 8.78931 4.41459 8.78931C6.79868 8.78616 9.186 8.78616 11.5701 8.78616C11.5928 8.78616 11.6187 8.78616 11.6413 8.78616C11.7968 8.77359 11.8972 8.6195 11.8454 8.48113C11.8065 8.37421 11.7191 8.3239 11.5701 8.3239C10.3845 8.3239 9.19571 8.3239 8.00367 8.3239ZM5.2244 13.2421C5.81719 13.2453 6.30631 12.7767 6.31279 12.195C6.32251 11.6226 5.82042 11.1321 5.22764 11.1352C4.6381 11.1352 4.14898 11.6069 4.1425 12.1792C4.13926 12.7579 4.62514 13.239 5.2244 13.2421ZM11.5053 2.89937C11.5118 2.89937 11.515 2.90252 11.5215 2.90252C11.5215 2.92767 11.5215 2.94969 11.5215 2.97484C11.5215 3.17296 11.5215 3.37107 11.5215 3.57233C11.5215 3.66667 11.5668 3.73899 11.6575 3.77987C11.7418 3.82075 11.826 3.81132 11.9037 3.75786C11.9815 3.7044 12.0041 3.62579 12.0009 3.53459C12.0009 3.09434 12.0009 2.65094 12.0009 2.21069C12.0009 2.07233 11.9394 1.98113 11.8292 1.94654C11.7126 1.91195 11.596 1.95597 11.5182 2.06604C11.4049 2.22327 11.2947 2.3805 11.1814 2.53774C11.1652 2.55975 11.1555 2.58491 11.1263 2.60063C10.9903 2.41195 10.8607 2.22956 10.7279 2.04403C10.6599 1.94969 10.5562 1.91509 10.4525 1.9434C10.3521 1.9717 10.2841 2.06289 10.2841 2.1761C10.2841 2.63522 10.2841 3.09434 10.2841 3.55346C10.2841 3.69811 10.391 3.80189 10.5303 3.79874C10.6631 3.7956 10.7635 3.69182 10.7635 3.55031C10.7635 3.36792 10.7635 3.18868 10.7635 3.00629C10.7635 2.98113 10.7667 2.95283 10.7667 2.91195C10.8186 2.98428 10.8607 3.04088 10.9028 3.09748C11.0259 3.2673 11.2364 3.2673 11.3595 3.09434C11.4081 3.03459 11.4567 2.96855 11.5053 2.89937ZM12.2762 11.956C12.2276 11.956 12.2017 11.956 12.1726 11.956C11.5992 11.956 11.0291 11.956 10.4558 11.956C10.2549 11.956 10.1804 12.0283 10.1772 12.2233C10.1772 12.8459 10.1772 13.4686 10.1772 14.088C10.1772 14.1069 10.1642 14.1289 10.1934 14.1447C10.8834 13.4214 11.5733 12.695 12.2762 11.956ZM9.05967 3.01572C9.05967 2.85535 9.05319 2.69497 9.0629 2.53459C9.08234 2.22642 8.84264 2.01572 8.58998 1.95912C8.43773 1.92453 8.28225 1.93711 8.12676 1.9434C7.78017 1.96541 7.55018 2.21069 7.55018 2.54717C7.55018 2.86478 7.55018 3.18553 7.55018 3.50314C7.55018 3.53459 7.55018 3.56604 7.55666 3.59434C7.57609 3.72327 7.68299 3.80818 7.80608 3.80189C7.93565 3.79245 8.02959 3.69497 8.03283 3.56289C8.03283 3.48428 8.03607 3.40566 8.03283 3.32704C8.02959 3.28302 8.04254 3.26415 8.09437 3.26415C8.24014 3.2673 8.38266 3.2673 8.52843 3.26415C8.58026 3.26415 8.58998 3.28302 8.58998 3.32704C8.58674 3.4088 8.58674 3.49057 8.58998 3.57233C8.59645 3.71069 8.70011 3.80818 8.83292 3.80503C8.96897 3.80189 9.06614 3.70126 9.06614 3.55975C9.0629 3.37736 9.05967 3.19497 9.05967 3.01572ZM6.3711 9.72327C6.72417 9.72327 7.07401 9.72327 7.42709 9.72327C7.73806 9.72327 8.04578 9.72327 8.35675 9.72327C8.509 9.72327 8.61589 9.61006 8.60293 9.46541C8.58998 9.33648 8.48632 9.25786 8.3276 9.25786C7.02542 9.25786 5.72649 9.25786 4.42431 9.25786C4.40164 9.25786 4.37572 9.25786 4.35305 9.26101C4.25587 9.27673 4.18785 9.32704 4.15545 9.41509C4.09715 9.56918 4.217 9.72013 4.3984 9.72013C5.0592 9.72327 5.71677 9.72327 6.3711 9.72327ZM5.00414 1.94025C4.88752 1.94025 4.76767 1.94025 4.65106 1.94025C4.31094 1.9434 4.02912 2.2044 4.01617 2.53145C4.00645 2.74214 4.00321 2.95597 4.01293 3.16667C4.02588 3.53459 4.27207 3.78302 4.65106 3.80189C4.89076 3.81447 5.13371 3.80818 5.37665 3.80503C5.52889 3.80189 5.63255 3.69497 5.62607 3.56289C5.62283 3.43082 5.5127 3.33962 5.36045 3.33962C5.13694 3.33962 4.91344 3.33962 4.68993 3.33962C4.55712 3.33962 4.49234 3.27358 4.4891 3.14465C4.4891 2.96226 4.4891 2.78302 4.4891 2.60063C4.4891 2.45912 4.55388 2.40252 4.69641 2.40252C4.91992 2.40252 5.14342 2.40252 5.36693 2.40252C5.51918 2.40252 5.62607 2.30503 5.62607 2.16981C5.62607 2.03459 5.51918 1.94025 5.36693 1.94025C5.24384 1.94025 5.12399 1.94025 5.00414 1.94025ZM6.00182 2.87421C6.00182 3.10063 6.00182 3.32704 6.00182 3.55346C6.00182 3.69811 6.0828 3.79874 6.23181 3.80189C6.51362 3.80818 6.7922 3.80818 7.07401 3.80189C7.21654 3.79874 7.31048 3.68553 7.304 3.55975C7.29752 3.43082 7.19386 3.33962 7.05134 3.33962C6.88937 3.33962 6.72417 3.33648 6.56221 3.33962C6.49743 3.34277 6.47799 3.32704 6.47799 3.26101C6.48123 2.90566 6.48123 2.54717 6.47799 2.19182C6.47799 2.03774 6.37757 1.93711 6.23505 1.94025C6.09576 1.9434 6.00182 2.04402 6.00182 2.19182C6.00182 2.41824 6.00182 2.6478 6.00182 2.87421ZM9.43866 2.87107C9.43866 3.09748 9.43866 3.3239 9.43866 3.55031C9.43866 3.69497 9.53907 3.80189 9.67512 3.80189C9.81765 3.80503 9.91806 3.69811 9.91806 3.54717C9.91806 3.09748 9.91806 2.65094 9.91806 2.20126C9.91806 2.16667 9.91806 2.12893 9.90511 2.09434C9.86624 1.98428 9.75934 1.92138 9.63949 1.94025C9.52612 1.95597 9.4419 2.05031 9.4419 2.17296C9.43866 2.40566 9.43866 2.63836 9.43866 2.87107Z" fill="#283942"/>
<path d="M14.9989 2.49403C14.9665 2.50661 14.973 2.53806 14.9697 2.56007C14.7203 3.83366 14.4709 5.11038 14.2214 6.38397C14.0077 7.48145 13.7906 8.57579 13.5768 9.67328C13.5736 9.69843 13.5639 9.72045 13.5477 9.74246C13.5477 9.6324 13.5477 9.52234 13.5477 9.41227C13.5477 8.7173 13.5444 8.02548 13.5509 7.33051C13.5509 7.14498 13.6125 6.96259 13.6481 6.7802C13.8619 5.68271 14.0757 4.58523 14.2927 3.49089C14.364 3.1324 14.432 2.77391 14.5033 2.41856C14.5357 2.25818 14.4773 2.17328 14.3154 2.14183C14.0822 2.09466 13.8489 2.04749 13.6125 2.00347C13.5671 1.99403 13.5477 1.97831 13.5509 1.92799C13.5542 1.8085 13.5542 1.689 13.5509 1.5695C13.5509 1.52548 13.5574 1.50661 13.6092 1.51605C13.8975 1.57579 14.1858 1.62611 14.4741 1.689C14.73 1.7456 14.8952 1.90598 14.973 2.15127C14.9794 2.17013 14.973 2.19215 14.9989 2.20158C14.9989 2.30221 14.9989 2.39969 14.9989 2.49403Z" fill="#283942"/>
<path d="M1 2.20464C1.02915 2.18263 1.02591 2.14804 1.03563 2.11659C1.12957 1.88703 1.29801 1.73923 1.54743 1.68577C1.82601 1.62602 2.10458 1.57571 2.37992 1.51911C2.43498 1.50653 2.45442 1.51911 2.45118 1.57571C2.44794 1.69206 2.44794 1.81156 2.45118 1.92791C2.45442 1.98137 2.43498 1.99709 2.3864 2.00653C2.14993 2.05055 1.91671 2.09458 1.68348 2.14175C1.52476 2.17319 1.46645 2.26124 1.4956 2.41219C1.79361 3.93106 2.08838 5.45307 2.38963 6.97194C2.43498 7.19206 2.45442 7.41533 2.45442 7.6386C2.45118 8.30527 2.45442 8.96879 2.45442 9.63546C2.45442 9.6669 2.45442 9.69521 2.45442 9.7298C2.42203 9.72351 2.42851 9.69835 2.42527 9.67948C2.0981 8.01911 1.77094 6.35558 1.44702 4.69206C1.32068 4.04112 1.19112 3.39017 1.06802 2.73923C1.05831 2.69835 1.02267 2.66376 1.03239 2.61659C1.03563 2.56942 1.02915 2.52225 1 2.48137C1 2.38703 1 2.29584 1 2.20464Z" fill="#283942"/>
<path d="M5.82542 12.1855C5.82542 12.5126 5.55981 12.7767 5.22616 12.7767C4.89252 12.7799 4.61719 12.5094 4.61719 12.1824C4.62043 11.8585 4.89252 11.5975 5.22616 11.6006C5.56305 11.6038 5.82542 11.8616 5.82542 12.1855Z" fill="#283942"/>
<path d="M8.30335 2.80193C8.22884 2.80193 8.1511 2.80193 8.0766 2.80193C8.04421 2.80193 8.03125 2.7925 8.03125 2.7579C8.03125 2.673 8.03125 2.59124 8.03125 2.50633C8.03125 2.45287 8.06688 2.42457 8.11223 2.41828C8.2418 2.39312 8.37137 2.39312 8.50094 2.41828C8.55925 2.42772 8.5884 2.46545 8.58516 2.52834C8.57868 2.60067 8.58192 2.66985 8.58516 2.74218C8.5884 2.79564 8.56572 2.80822 8.51714 2.80507C8.44263 2.79879 8.37461 2.80193 8.30335 2.80193Z" fill="#283942"/>
</svg>
