<svg width="15" height="15" viewBox="0 0 15 15" fill="none" xmlns="http://www.w3.org/2000/svg">
<g clip-path="url(#clip0_3224_683)">
<path d="M6.93101 14.983C5.20396 14.983 3.47692 14.9665 1.74987 14.9941C1.21389 15.0023 1.00004 14.8507 1.00275 14.2745C1.0244 11.6142 1.01899 8.95106 1.00004 6.2907C0.997332 5.84961 1.13539 5.69798 1.56038 5.73106C1.9556 5.76414 2.35623 5.76966 2.74874 5.73106C3.63663 5.6456 4.40811 5.74485 4.77085 6.75109C4.9062 7.12603 5.2581 7.04883 5.55587 7.04883C7.72686 7.04883 9.89785 7.0764 12.0661 7.03505C12.7591 7.02127 12.9324 7.26111 12.9188 7.93378C12.8809 10.0014 12.8755 12.0691 12.9215 14.1367C12.9378 14.848 12.6969 15.0161 12.0418 14.9996C10.3364 14.9555 8.63369 14.983 6.93101 14.983ZM6.96891 10.1282C6.96349 11.1951 7.81619 12.0856 8.85837 12.0966C9.89244 12.1076 10.7668 11.2227 10.7749 10.153C10.783 9.08614 9.92492 8.19568 8.88544 8.18741C7.84055 8.1819 6.97703 9.05582 6.96891 10.1282ZM7.25855 11.6417C7.24502 11.4074 6.74694 11.0821 6.54121 11.2255C5.71287 11.8016 4.89266 12.3888 4.07245 12.9761C3.84777 13.136 3.66911 13.3289 3.86943 13.6239C4.07786 13.9327 4.32961 13.8803 4.5949 13.6928C5.41781 13.1084 6.24073 12.5267 7.06095 11.9395C7.14757 11.8761 7.2775 11.832 7.25855 11.6417Z" fill="#283942"/>
<path d="M3.63281 5.21523C4.19316 3.68518 4.73184 2.19372 5.28677 0.707784C5.54935 0.00203186 5.83899 -0.13581 6.52386 0.117819C8.47288 0.84287 10.4165 1.57895 12.3601 2.31503C12.9448 2.53557 13.1424 2.9298 12.9015 3.55009C12.5658 4.41023 12.2383 5.27588 11.9513 6.15256C11.8349 6.51095 11.6482 6.73425 11.3125 6.58262C10.9931 6.43927 11.2719 6.17185 11.3368 5.98163C11.613 5.17663 11.8945 4.36888 12.2139 3.58042C12.3709 3.19722 12.3601 3.00424 11.927 2.84434C10.1052 2.17718 8.29422 1.48246 6.48867 0.776706C6.12052 0.63335 5.9581 0.696757 5.82546 1.08823C5.40046 2.31778 4.92133 3.5308 4.49092 4.76035C4.34204 5.18215 4.15796 5.43026 3.63281 5.21523Z" fill="#283942"/>
<path d="M10.766 5.53765C10.6415 5.85744 10.4033 5.72787 10.1948 5.65068C9.42877 5.36672 8.66541 5.0745 7.90204 4.78503C7.2253 4.52864 6.55126 4.2695 5.87452 4.01035C5.69586 3.94143 5.49013 3.867 5.58758 3.61613C5.68503 3.36801 5.87994 3.45899 6.0613 3.52791C7.52307 4.08479 8.98483 4.63616 10.4466 5.19028C10.6009 5.24818 10.7606 5.30607 10.766 5.53765Z" fill="#283942"/>
<path d="M5.55826 4.35532C5.67737 4.39391 5.79106 4.42424 5.89934 4.46559C7.27177 4.98388 8.64691 5.50217 10.0139 6.03148C10.2088 6.10592 10.5634 6.14727 10.4416 6.46155C10.3361 6.73448 10.0356 6.59939 9.82715 6.51944C8.43306 5.99289 7.03897 5.46081 5.64759 4.92323C5.48246 4.85982 5.26049 4.83501 5.27403 4.57587C5.28486 4.39943 5.40938 4.34705 5.55826 4.35532Z" fill="#283942"/>
<path d="M11.0879 4.64745C11.0391 4.90383 10.8497 4.89556 10.6656 4.82664C9.16051 4.26149 7.65543 3.68806 6.15306 3.11188C6.00147 3.05399 5.83364 2.96301 5.90944 2.75074C5.97982 2.55224 6.15306 2.55224 6.3209 2.61565C7.82597 3.18632 9.33105 3.75698 10.8334 4.33041C10.9606 4.38003 11.0852 4.45722 11.0879 4.64745Z" fill="#283942"/>
<path d="M8.61885 6.53895C7.25183 6.82841 6.22589 6.12542 5.12956 5.75049C4.99692 5.70362 4.88864 5.57681 4.97797 5.41415C5.09979 5.18809 5.3001 5.2708 5.47064 5.3342C6.48305 5.72016 7.49816 6.11163 8.61885 6.53895Z" fill="#283942"/>
<path d="M10.1862 2.91629C10.1185 3.14511 10.0048 3.29398 9.77475 3.21127C9.13861 2.97969 8.50518 2.73709 7.87446 2.49173C7.73369 2.4366 7.64436 2.32357 7.67955 2.15815C7.71474 1.9955 7.84197 1.89625 7.98815 1.94863C8.6676 2.19399 9.34434 2.45314 10.0157 2.72055C10.0915 2.74812 10.1348 2.85288 10.1862 2.91629Z" fill="#283942"/>
<path d="M8.86503 8.65821C9.68254 8.65545 10.3349 9.30883 10.3403 10.1304C10.343 10.9547 9.70149 11.6108 8.88398 11.6136C8.05023 11.6163 7.41951 10.985 7.4141 10.1469C7.40868 9.3171 8.04482 8.66373 8.86503 8.65821Z" fill="#283942"/>
</g>
<defs>
<clipPath id="clip0_3224_683">
<rect width="15" height="15" fill="white"/>
</clipPath>
</defs>
</svg>
