<svg width="15" height="15" viewBox="0 0 15 15" fill="none" xmlns="http://www.w3.org/2000/svg">
<path d="M10.9546 4.85625C10.9109 4.85 10.8671 4.85 10.8234 4.85625C9.85469 4.825 9.08594 4.03125 9.08594 3.05625C9.08594 2.0625 9.89219 1.25 10.8921 1.25C11.8859 1.25 12.6984 2.05625 12.6984 3.05625C12.6921 4.03125 11.9234 4.825 10.9546 4.85625Z" fill="#283942"/>
<path d="M12.9938 9.18678C12.2938 9.65553 11.3125 9.83053 10.4062 9.71178C10.6437 9.19928 10.7687 8.63053 10.775 8.03053C10.775 7.40553 10.6375 6.81178 10.375 6.29303C11.3 6.16803 12.2813 6.34303 12.9875 6.81178C13.975 7.46178 13.975 8.53053 12.9938 9.18678Z" fill="#283942"/>
<path d="M4.02656 4.85625C4.07031 4.85 4.11406 4.85 4.15781 4.85625C5.12656 4.825 5.89531 4.03125 5.89531 3.05625C5.89531 2.05625 5.08906 1.25 4.08906 1.25C3.09531 1.25 2.28906 2.05625 2.28906 3.05625C2.28906 4.03125 3.05781 4.825 4.02656 4.85625Z" fill="#283942"/>
<path d="M4.09688 8.03064C4.09688 8.63689 4.22813 9.21189 4.46563 9.73064C3.58438 9.82439 2.66563 9.63689 1.99063 9.19314C1.00312 8.53689 1.00312 7.46814 1.99063 6.81189C2.65938 6.36189 3.60313 6.18064 4.49063 6.28064C4.23438 6.80564 4.09688 7.39939 4.09688 8.03064Z" fill="#283942"/>
<path d="M7.575 9.91875C7.525 9.9125 7.46875 9.9125 7.4125 9.91875C6.2625 9.88125 5.34375 8.9375 5.34375 7.775C5.35 6.5875 6.30625 5.625 7.5 5.625C8.6875 5.625 9.65 6.5875 9.65 7.775C9.64375 8.9375 8.73125 9.88125 7.575 9.91875Z" fill="#283942"/>
<path d="M5.54375 11.2129C4.6 11.8442 4.6 12.8817 5.54375 13.5067C6.61875 14.2254 8.38125 14.2254 9.45625 13.5067C10.4 12.8754 10.4 11.8379 9.45625 11.2129C8.3875 10.4942 6.625 10.4942 5.54375 11.2129Z" fill="#283942"/>
</svg>
