<svg width="15" height="15" viewBox="0 0 15 15" fill="none" xmlns="http://www.w3.org/2000/svg">
<mask id="mask0_3221_562" style="mask-type:luminance" maskUnits="userSpaceOnUse" x="1" y="1" width="13" height="13">
<path d="M14 1H1V14H14V1Z" fill="white"/>
</mask>
<g mask="url(#mask0_3221_562)">
<path d="M7.5 7.5C9.55156 7.5 11.2143 6.04512 11.2143 4.25C11.2143 2.45488 9.55156 1 7.5 1C5.44844 1 3.78572 2.45488 3.78572 4.25C3.78572 6.04512 5.44844 7.5 7.5 7.5ZM10.2799 8.32774L8.89285 13.1875L7.96428 9.73435L8.89285 8.3125H6.10715L7.03572 9.73435L6.10715 13.1875L4.72009 8.32774C2.65111 8.41406 1 9.89434 1 11.725V12.7813C1 13.4541 1.62388 14 2.39285 14H12.6072C13.3761 14 14 13.4541 14 12.7813V11.725C14 9.89434 12.3489 8.41406 10.2799 8.32774Z" fill="#283942"/>
</g>
</svg>
