<svg width="15" height="15" viewBox="0 0 15 15" fill="none" xmlns="http://www.w3.org/2000/svg">
<g clip-path="url(#clip0_3224_662)">
<mask id="mask0_3224_662" style="mask-type:luminance" maskUnits="userSpaceOnUse" x="0" y="0" width="15" height="15">
<path d="M14.7127 0.882812H0V14.1181H14.7127V0.882812Z" fill="white"/>
</mask>
<g mask="url(#mask0_3224_662)">
<path d="M0 11.1071C0.122056 10.7785 0.365183 10.6354 0.710678 10.5844C1.41348 10.4814 2.11137 10.3431 2.81319 10.2264C2.88997 10.2136 2.90079 10.1861 2.90572 10.1185C2.95099 9.44767 2.98446 8.77587 3.05336 8.10793C3.11046 7.55481 3.21086 7.0056 3.29256 6.4554C3.34472 6.10329 3.39689 5.75119 3.45103 5.38145C3.22661 5.5119 3.01793 5.63547 2.8063 5.75512C2.7561 5.78356 2.74724 5.81887 2.75118 5.87183C2.79744 6.53779 2.83681 7.20369 2.888 7.86964C2.91162 8.18541 2.72362 8.46104 2.43718 8.50025C2.11432 8.54437 1.8456 8.35411 1.80426 8.02654C1.76489 7.70977 1.75111 7.39003 1.72945 7.07128C1.695 6.57209 1.66646 6.0719 1.63102 5.5727C1.61232 5.31868 1.70779 5.13136 1.92927 5.00288C2.49427 4.67531 3.0573 4.34381 3.6223 4.01526C3.92055 3.84167 4.2375 3.77595 4.58497 3.83088C5.07516 3.90836 5.57028 3.96132 6.06044 4.03978C6.33706 4.08391 6.51328 4.26241 6.61072 4.53212C6.50044 4.53506 6.402 4.49877 6.28589 4.53408C6.55261 4.62627 6.80656 4.7116 7.05956 4.80085C7.14122 4.83027 7.15894 4.7626 7.1895 4.72141C7.52217 4.27908 7.85194 3.8348 8.18367 3.3915C8.31061 3.22085 8.48289 3.1365 8.6935 3.16592C9.12761 3.22673 9.32055 3.6867 9.06067 4.04174C8.68367 4.55762 8.28994 5.06172 7.91889 5.58251C7.597 6.03365 7.41294 6.09937 6.89122 5.89831C6.63828 5.80024 6.37739 5.72276 6.1215 5.63351C6.06733 5.61487 6.01617 5.5933 5.95022 5.62174C6.10572 5.71295 6.25439 5.80318 6.40694 5.88752C6.466 5.91988 6.48178 5.95323 6.47189 6.02287C6.37444 6.70157 6.28294 7.38021 6.18744 8.05891C6.17467 8.1472 6.1825 8.22468 6.22189 8.30608C6.48567 8.85429 6.73667 9.40747 7.00839 9.95277C7.15206 10.2421 7.14517 10.553 7.18061 10.858C7.26233 11.5484 7.33122 12.2409 7.40406 12.9323C7.42178 13.098 7.4405 13.2638 7.44933 13.4305C7.46806 13.7836 7.20917 14.0876 6.87644 14.1141C6.49356 14.1435 6.19239 13.914 6.151 13.5433C6.06044 12.7391 5.97583 11.9329 5.89311 11.1277C5.85572 10.7629 5.80161 10.4088 5.61456 10.0783C5.42853 9.74779 5.28187 9.39567 5.12339 9.05045C5.09484 8.98869 5.06138 8.94942 4.99346 8.93867C4.79955 8.90922 4.60662 8.87883 4.41369 8.84448C4.33593 8.83074 4.30936 8.84845 4.30443 8.93376C4.26408 9.56144 4.2188 10.1891 4.17057 10.8168C4.14694 11.1307 3.92744 11.365 3.61541 11.419C2.68031 11.5808 1.74422 11.7416 0.809111 11.9025C0.451803 11.9633 0.170288 11.8034 0.0324826 11.4661C0.0255923 11.4503 0.0127962 11.4367 0.00295296 11.4219C0 11.317 0 11.212 0 11.1071Z" fill="#283942"/>
<path d="M14.7143 7.49533C14.7143 9.49899 14.7143 11.5037 14.7143 13.5073C14.7143 13.8997 14.4987 14.1164 14.103 14.1164C12.5566 14.1174 11.0093 14.1174 9.46292 14.1164C9.05836 14.1164 8.84669 13.9036 8.84575 13.4985C8.84475 11.9764 8.84575 10.4542 8.84375 8.93213C8.84375 8.83899 8.85653 8.79873 8.96481 8.80071C9.34775 8.80755 9.73064 8.80562 10.1145 8.80171C10.1932 8.80071 10.2257 8.81246 10.2366 8.90665C10.2848 9.35191 10.7927 9.58336 11.154 9.31463C11.6796 8.92529 12.1954 8.52217 12.7052 8.11121C13.0104 7.86509 12.9956 7.43842 12.6865 7.19522C12.1905 6.80588 11.6934 6.41748 11.1914 6.03596C10.7957 5.73389 10.2966 5.94769 10.2336 6.44296C10.2258 6.50378 10.211 6.52435 10.15 6.52342C9.74242 6.52143 9.33592 6.52143 8.92842 6.52342C8.86642 6.52342 8.84475 6.50571 8.84475 6.44296C8.84669 5.92317 8.84669 5.40239 8.84475 4.88259C8.84475 4.82963 8.87425 4.79432 8.90281 4.75607C9.02192 4.59523 9.13608 4.42948 9.26308 4.27452C9.69714 3.74688 9.41764 3.06819 8.91658 2.91324C8.86147 2.89656 8.84475 2.86517 8.84475 2.80829C8.84769 2.33557 8.84081 1.86383 8.85164 1.3911C8.85753 1.10276 9.09081 0.88209 9.38414 0.88209C10.9837 0.879147 12.5832 0.879147 14.1827 0.88209C14.4957 0.88307 14.7152 1.1263 14.7152 1.45191C14.7142 3.46834 14.7143 5.48183 14.7143 7.49533Z" fill="#283942"/>
<path d="M9.49197 6.86531C9.81286 6.86531 10.1337 6.86139 10.4536 6.86729C10.5481 6.86922 10.5816 6.84176 10.5728 6.74763C10.5649 6.66722 10.5728 6.58582 10.5708 6.50443C10.5678 6.39358 10.6101 6.31119 10.7125 6.26314C10.811 6.21606 10.8986 6.23959 10.9793 6.30236C11.308 6.55638 11.6358 6.81138 11.9636 7.06638C12.1221 7.18897 12.2815 7.31156 12.439 7.43514C12.6241 7.58029 12.631 7.73917 12.4489 7.88139C11.9606 8.26483 11.4695 8.64342 10.9793 9.02399C10.8966 9.08867 10.8041 9.10538 10.7106 9.0622C10.6101 9.0161 10.5698 8.93079 10.5688 8.819C10.5678 8.70617 10.621 8.55612 10.5471 8.48945C10.4694 8.41886 10.3188 8.46888 10.2007 8.46888C9.66425 8.46689 9.12875 8.46788 8.59231 8.46788C8.35114 8.46788 8.25175 8.36978 8.25075 8.13149C8.24975 7.81665 8.24975 7.50182 8.25075 7.18698C8.25175 6.95851 8.34325 6.8663 8.57164 6.86531C8.87975 6.86432 9.18586 6.86531 9.49197 6.86531Z" fill="#283942"/>
<path d="M5.86008 3.5757C5.19763 3.57668 4.65723 3.04021 4.65625 2.38114C4.65527 1.71227 5.19467 1.17285 5.86402 1.17481C6.52152 1.17677 7.06686 1.72207 7.06586 2.37722C7.06486 3.03432 6.52058 3.57472 5.86008 3.5757Z" fill="#283942"/>
</g>
</g>
<defs>
<clipPath id="clip0_3224_662">
<rect width="15" height="15" fill="white"/>
</clipPath>
</defs>
</svg>
