<svg width="15" height="15" viewBox="0 0 15 15" fill="none" xmlns="http://www.w3.org/2000/svg">
<g clip-path="url(#clip0_3221_527)">
<mask id="mask0_3221_527" style="mask-type:luminance" maskUnits="userSpaceOnUse" x="0" y="0" width="15" height="15">
<path d="M15 0H0V15H15V0Z" fill="white"/>
</mask>
<g mask="url(#mask0_3221_527)">
<path d="M7.87602 6.39283C7.92226 6.3772 7.94301 6.37677 7.94776 6.36809C8.27363 5.76955 8.75594 5.28082 9.10903 4.70224C9.17472 4.59416 9.24776 4.56942 9.35754 4.5933C10.1869 4.77559 10.7025 5.17231 10.7505 6.07641C10.7773 6.57599 10.7639 7.07254 10.6986 7.56778C10.693 7.61075 10.6839 7.65328 10.674 7.69538C10.521 8.34644 10.4021 8.47058 9.74045 8.54654C8.2196 8.72059 6.69876 8.73404 5.17964 8.5066C4.89008 8.4632 4.71591 8.31259 4.61219 8.04565C4.51149 7.78697 4.4445 7.52046 4.43543 7.24528C4.42246 6.84119 4.41425 6.4358 4.4324 6.03214C4.47087 5.16102 5.03789 4.74261 5.84218 4.59373C5.94849 4.5742 6.01246 4.62108 6.06907 4.71353C6.40531 5.26042 6.86861 5.71833 7.17329 6.28822C7.21219 6.36071 7.28653 6.41627 7.31505 6.28605C7.3708 6.03257 7.43995 5.77909 7.43779 5.5178C7.43606 5.28863 7.29949 5.11415 7.16681 4.94053C7.10847 4.86457 7.00474 4.78818 7.06568 4.67663C7.12359 4.57159 7.24374 4.60154 7.34141 4.59981C7.54281 4.59677 7.74464 4.59286 7.9456 4.60502C8.13533 4.6163 8.1725 4.70007 8.06921 4.85806C8.01821 4.93662 7.959 5.00998 7.90238 5.0842C7.76322 5.26606 7.70963 5.46919 7.74982 5.69533C7.79175 5.9271 7.8341 6.15801 7.87602 6.39283Z" fill="#283942"/>
<path d="M5.45313 2.15285C5.45269 0.955335 6.40522 -0.00389447 7.59026 1.18888e-05C8.78264 0.00391825 9.73431 0.954901 9.73906 2.14678C9.74381 3.36426 8.7848 4.32739 7.57512 4.32002C6.38533 4.31264 5.45356 3.36122 5.45313 2.15285Z" fill="#283942"/>
<path d="M11.974 14.999C11.4022 14.996 10.9225 14.9651 10.4424 14.9148C10.1312 14.8822 9.96046 14.7221 9.89563 14.4261C9.79537 13.969 9.78413 13.5059 9.871 13.0497C9.95484 12.6079 10.5184 12.2459 10.9593 12.3114C11.0487 12.3249 11.117 12.3787 11.1922 12.4195C11.6585 12.6738 12.1279 12.676 12.5951 12.4269C13.0549 12.1812 13.7581 12.4408 13.8989 12.9534C14.0468 13.4898 14.0251 14.0393 13.8505 14.5749C13.7913 14.7568 13.6651 14.8549 13.4754 14.8883C12.9481 14.9812 12.4166 14.9864 11.974 14.999Z" fill="#283942"/>
<path d="M7.64153 14.9999C7.11297 14.996 6.63282 14.9683 6.1531 14.9175C5.83847 14.8841 5.6535 14.7326 5.58651 14.4231C5.48754 13.9656 5.46593 13.5029 5.56144 13.0476C5.68159 12.4738 6.39339 12.1609 6.90423 12.4317C7.37315 12.6804 7.84163 12.6704 8.30666 12.4157C8.57763 12.2672 9.04007 12.3267 9.27345 12.5329C9.34562 12.5967 9.34475 12.6626 9.32358 12.7464C9.1667 13.3753 9.18053 14.006 9.33049 14.6323C9.37501 14.8172 9.28727 14.8667 9.14206 14.8923C8.63036 14.9834 8.11261 14.99 7.64153 14.9999Z" fill="#283942"/>
<path d="M3.2619 15.0003C2.78694 14.992 2.3137 14.966 1.84046 14.9178C1.51157 14.8844 1.33394 14.7164 1.26825 14.4017C1.17749 13.9651 1.15761 13.525 1.23757 13.0879C1.32184 12.6265 1.85299 12.2589 2.32061 12.3105C2.40359 12.3196 2.46842 12.3626 2.53713 12.4021C3.02982 12.6838 3.52251 12.6808 4.01606 12.4038C4.26543 12.2636 4.79398 12.3474 4.97939 12.5523C5.0373 12.6165 5.02736 12.6812 5.00878 12.7537C4.84844 13.3835 4.86356 14.0137 5.02217 14.64C5.06496 14.8097 4.99797 14.8618 4.85276 14.8878C4.3268 14.9816 3.79435 14.9907 3.2619 15.0003Z" fill="#283942"/>
<path d="M3.27358 12.2316C2.48874 12.2298 1.88023 11.6148 1.88282 10.8266C1.88542 10.0266 2.503 9.40639 3.29217 9.41116C4.06491 9.41593 4.68725 10.0462 4.68811 10.8244C4.68941 11.6213 4.07398 12.2333 3.27358 12.2316Z" fill="#283942"/>
<path d="M7.59039 12.2314C6.8008 12.2314 6.19574 11.6251 6.19531 10.8334C6.19488 10.0295 6.80382 9.40972 7.59385 9.41016C8.36832 9.41059 8.99195 10.0352 8.99671 10.8156C9.00189 11.6133 8.3882 12.2314 7.59039 12.2314Z" fill="#283942"/>
<path d="M11.9029 12.231C11.1215 12.2332 10.5056 11.6194 10.5 10.833C10.4944 10.0478 11.1284 9.40713 11.9081 9.41017C12.692 9.41321 13.2975 10.0248 13.3014 10.8165C13.3053 11.6242 12.708 12.2288 11.9029 12.231Z" fill="#283942"/>
<path d="M10.8328 2.42475C11.2252 2.47553 11.6176 2.52718 12.0101 2.5771C12.1427 2.59402 12.2102 2.64741 12.0948 2.76417C11.9167 2.94386 11.9651 3.07494 12.1229 3.2529C13.4267 4.72256 13.9099 6.43528 13.5914 8.37631C13.5776 8.46182 13.562 8.54819 13.5344 8.62979C13.4769 8.79689 13.3537 8.87372 13.1808 8.83596C13.0157 8.79993 12.9388 8.67666 12.9548 8.51477C12.9738 8.32119 13.0231 8.13021 13.0438 7.93663C13.2189 6.31549 12.7629 4.89574 11.6941 3.66914C11.5576 3.51245 11.4845 3.56367 11.3847 3.69996C11.2386 3.89875 11.2269 3.89397 11.1323 3.66871C10.9862 3.32278 10.8445 2.97468 10.6971 2.62918C10.6344 2.48334 10.6513 2.40174 10.8328 2.42475Z" fill="#283942"/>
<path d="M2.22847 7.34889C2.531 7.33717 2.53229 7.33761 2.4182 7.6193C2.28811 7.94049 2.15759 8.26168 2.02405 8.58157C1.93502 8.79555 1.91514 8.79989 1.77943 8.62671C1.53914 8.32027 1.3049 8.00863 1.06461 7.7022C0.971688 7.58414 0.96434 7.50254 1.14067 7.4995C1.3788 7.49516 1.44449 7.38058 1.45703 7.14619C1.56378 5.13572 2.45666 3.56146 4.1037 2.41776C4.34486 2.25022 4.52205 2.25847 4.63442 2.42384C4.74722 2.59007 4.68499 2.75327 4.44253 2.91908C3.24496 3.73724 2.48173 4.85273 2.1671 6.27334C2.10141 6.56979 2.05689 6.86971 2.05646 7.17528C2.05646 7.29724 2.09406 7.3745 2.22847 7.34889Z" fill="#283942"/>
</g>
</g>
<defs>
<clipPath id="clip0_3221_527">
<rect width="15" height="15" fill="white"/>
</clipPath>
</defs>
</svg>
