<svg width="15" height="15" viewBox="0 0 15 15" fill="none" xmlns="http://www.w3.org/2000/svg">
<path d="M13.1794 4.3627C12.6481 3.7752 11.7606 3.48145 10.4731 3.48145H10.3231V3.45645C10.3231 2.40645 10.3231 1.10645 7.97319 1.10645H7.02319C4.67319 1.10645 4.67319 2.4127 4.67319 3.45645V3.4877H4.52319C3.22944 3.4877 2.34819 3.78145 1.81694 4.36895C1.19819 5.05645 1.21694 5.98144 1.27944 6.61269L1.28569 6.65644L1.32564 7.07598C1.33991 7.22575 1.42071 7.36126 1.54692 7.44315C1.69608 7.53993 1.89573 7.66689 2.02319 7.7377C2.11069 7.79395 2.20444 7.84395 2.29819 7.89395C3.36694 8.48145 4.54194 8.8752 5.73569 9.06894C5.79194 9.65644 6.04819 10.3439 7.41694 10.3439C8.78569 10.3439 9.05444 9.66269 9.09819 9.05644C10.3731 8.85019 11.6044 8.40644 12.7169 7.75644C12.7544 7.73769 12.7794 7.71894 12.8106 7.70019C13.0353 7.57322 13.2676 7.41953 13.4836 7.26596C13.5972 7.18523 13.6694 7.05895 13.6848 6.92044L13.6856 6.9127L13.7169 6.61895C13.7231 6.58145 13.7231 6.55019 13.7294 6.50644C13.7794 5.87519 13.7669 5.0127 13.1794 4.3627ZM8.17944 8.64394C8.17944 9.30644 8.17944 9.40645 7.41069 9.40645C6.64194 9.40645 6.64194 9.28769 6.64194 8.6502V7.86269H8.17944V8.64394ZM5.56694 3.48145V3.45645C5.56694 2.39395 5.56694 2.0002 7.02319 2.0002H7.97319C9.42944 2.0002 9.42944 2.4002 9.42944 3.45645V3.4877H5.56694V3.48145Z" fill="#283942"/>
<path d="M12.7416 8.7271C13.0965 8.56165 13.5037 8.84274 13.4683 9.23272L13.2744 11.3689C13.1431 12.6189 12.6306 13.8939 9.88068 13.8939H5.11818C2.36818 13.8939 1.85568 12.6189 1.72443 11.3752L1.54122 9.35986C1.50618 8.9744 1.90449 8.69393 2.25832 8.85082C2.96443 9.16392 3.99061 9.5962 4.69857 9.7962C4.86202 9.84238 4.99415 9.96093 5.07348 10.1111C5.47085 10.8633 6.27558 11.2627 7.41818 11.2627C8.5496 11.2627 9.36356 10.8479 9.76271 10.0925C9.84214 9.94227 9.97463 9.82375 10.1381 9.77716C10.8938 9.56174 11.9962 9.07455 12.7416 8.7271Z" fill="#283942"/>
</svg>
