<svg width="15" height="15" viewBox="0 0 15 15" fill="none" xmlns="http://www.w3.org/2000/svg">
<g clip-path="url(#clip0_3224_643)">
<path d="M4.87444 2C5.26185 2.13528 5.67487 2.15065 6.07508 2.21522C6.60977 2.29823 7.0484 2.50423 7.4166 2.87932C7.69515 3.16218 7.99931 3.42352 8.28426 3.70023C8.37071 3.78324 8.44755 3.87548 8.50838 3.97387C8.57241 4.08148 8.56601 4.20446 8.47636 4.30284C8.39632 4.39201 8.28426 4.41353 8.1722 4.37663C7.9929 4.31514 7.80721 4.25365 7.64072 4.16756C7.02919 3.84474 6.37604 3.65719 5.69408 3.54035C5.58522 3.52191 5.47316 3.52498 5.3611 3.52191C5.11777 3.51576 4.95448 3.62952 4.95448 3.85703C4.95448 4.0784 5.11137 4.21676 5.34829 4.21983C5.71009 4.22905 6.07188 4.15219 6.44008 4.21368C6.81147 4.27825 7.17967 4.33359 7.50625 4.52729C7.71436 4.65027 7.88405 4.81937 7.804 5.07763C7.73036 5.31437 7.49984 5.38816 7.27252 5.39124C6.53933 5.40046 5.85416 5.54497 5.20422 5.88317C4.63431 6.17832 4.0452 6.24597 3.43687 5.93236C3.17754 5.80015 2.87978 5.75711 2.57882 5.84627C2.38351 5.90469 2.25865 5.80938 2.21062 5.6372C2.03773 5.05611 1.88084 4.47195 1.71756 3.89085C1.68234 3.76172 1.70475 3.66026 1.86163 3.62337C2.68127 3.42045 3.26718 2.83321 3.96836 2.43351C4.19888 2.30131 4.41019 2.1445 4.63111 2C4.71436 2 4.7944 2 4.87444 2Z" fill="#283942"/>
<path d="M10.5502 13.9998C9.849 13.7385 9.17664 13.4156 8.51709 13.0682C7.88635 12.7362 7.27803 12.3734 6.69212 11.9675C6.36234 11.7369 6.27269 11.4418 6.44558 11.1651C6.61207 10.8945 6.98667 10.8023 7.32926 10.9621C7.71986 11.1405 8.10727 11.3342 8.49788 11.5125C8.59713 11.5586 8.66757 11.614 8.70279 11.7093C8.85327 12.1243 9.18304 12.3273 9.60887 12.3887C9.86821 12.4256 10.134 12.4349 10.3965 12.441C10.5214 12.4441 10.6558 12.4041 10.659 12.2535C10.659 12.0844 10.5278 12.0598 10.3805 12.0628C10.1083 12.0628 9.83299 12.112 9.56405 12.0198C9.45199 11.9798 9.33352 11.9429 9.23107 11.8845C9.06778 11.7861 8.95252 11.6478 9.01656 11.4479C9.07739 11.2696 9.23427 11.1681 9.41357 11.1897C10.0827 11.2727 10.6526 11.0544 11.2129 10.7346C11.7636 10.421 12.3912 10.5133 12.9963 10.5071C13.1147 10.5071 13.1243 10.5748 13.1243 10.6578C13.1243 11.4172 13.1243 12.1797 13.1243 12.9391C13.1243 13.0221 13.1115 13.0867 13.0187 13.1266C12.4424 13.3788 11.9173 13.7415 11.2994 13.9106C11.1905 13.9414 11.0528 13.8799 10.9696 13.9967C10.8351 13.9998 10.6942 13.9998 10.5502 13.9998Z" fill="#283942"/>
<path d="M15.0008 13.2991C14.5782 13.3544 14.1524 13.3114 13.7298 13.3268C13.5633 13.3329 13.5312 13.2499 13.5312 13.1085C13.5345 12.2353 13.5377 11.359 13.5312 10.4859C13.5312 10.3106 13.5857 10.2338 13.7746 10.2522C14.1812 10.2922 14.5974 10.1784 15.0008 10.3137C15.0008 11.3099 15.0008 12.3029 15.0008 13.2991Z" fill="#283942"/>
<path d="M0 3.8135C0.358591 3.71819 0.717183 3.61981 1.07577 3.5245C1.22625 3.48453 1.3095 3.52142 1.35752 3.69052C1.56564 4.46839 1.78975 5.24625 2.01387 6.02104C2.0619 6.18399 2.02348 6.27008 1.84098 6.31005C1.57524 6.36539 1.3095 6.42688 1.05336 6.51297C0.826041 6.58983 0.729989 6.52526 0.672359 6.30697C0.477054 5.566 0.265742 4.82811 0.0576307 4.08714C0.0448239 4.05332 0.0192102 4.02257 0 3.98875C0 3.93034 0 3.87192 0 3.8135Z" fill="#283942"/>
<path d="M7.67145 5.8335C7.68106 5.92574 7.60101 5.95341 7.55299 5.9903C7.37049 6.13173 7.18479 6.26086 7.36089 6.52528C7.3897 6.57139 7.3801 6.67593 7.34168 6.71897C7.14957 6.94034 7.31606 7.0787 7.44733 7.23242C8.00763 7.87501 8.56793 8.51452 9.12503 9.16017C9.21467 9.26471 9.28191 9.3508 9.43879 9.24934C9.53164 9.18784 9.66291 9.1694 9.75897 9.23704C9.97668 9.39077 10.1144 9.27701 10.2584 9.12943C10.3705 9.01567 10.4954 8.91728 10.6138 8.80967C10.7963 8.6498 11.0653 8.52374 10.8539 8.21321C10.8315 8.17939 10.8347 8.10252 10.8604 8.07178C11.0877 7.78892 10.8572 7.62904 10.6939 7.4415C10.1656 6.83581 9.6405 6.23012 9.11862 5.62136C9.01617 5.50145 8.94893 5.42766 8.75363 5.51375C8.43986 5.6521 8.31179 5.46148 8.27657 5.16632C8.22215 4.72051 8.54552 4.76048 8.79525 4.66209C8.90091 4.61905 8.92012 4.69591 8.95854 4.73896C9.97348 5.86732 10.9852 6.99568 12.0066 8.12097C12.1058 8.23166 12.093 8.29007 11.9906 8.37924C11.2382 9.03104 10.4858 9.68592 9.73655 10.3439C9.6373 10.433 9.58927 10.4238 9.50283 10.3254C8.39824 9.09253 7.29045 7.86271 6.18266 6.62981C6.13143 6.57447 6.06099 6.5345 6.15704 6.44534C6.57647 6.05179 6.99269 5.6644 7.67145 5.8335Z" fill="#283942"/>
<path d="M13.2897 8.2411C12.5437 8.88983 11.8105 9.52319 11.0901 10.1658C10.9492 10.2918 10.8884 10.2426 10.7795 10.1381C10.6675 10.0274 10.6771 9.969 10.7955 9.86754C11.2822 9.45247 11.7592 9.02818 12.2395 8.61004C12.5565 8.33641 12.5661 8.1919 12.2907 7.86908C11.4519 6.89137 10.6226 5.90751 9.77098 4.93902C9.55647 4.69613 9.81261 4.66231 9.90225 4.55163C10.0431 4.3733 10.1136 4.52088 10.1904 4.61312C11.2182 5.82142 12.2491 7.02665 13.2897 8.2411Z" fill="#283942"/>
<path d="M9.9416 7.50636C9.94801 7.86916 9.62784 8.18276 9.25324 8.18276C8.88184 8.18276 8.56807 7.89683 8.55526 7.54633C8.53925 7.18968 8.85943 6.86378 9.23082 6.85763C9.60863 6.8484 9.9352 7.14971 9.9416 7.50636Z" fill="#283942"/>
</g>
<defs>
<clipPath id="clip0_3224_643">
<rect width="15" height="15" fill="white"/>
</clipPath>
</defs>
</svg>
