<svg width="15" height="15" viewBox="0 0 15 15" fill="none" xmlns="http://www.w3.org/2000/svg">
<g clip-path="url(#clip0_3223_626)">
<mask id="mask0_3223_626" style="mask-type:luminance" maskUnits="userSpaceOnUse" x="0" y="0" width="15" height="15">
<path d="M15 0.9375H0.9375V14.582H15V0.9375Z" fill="white"/>
</mask>
<g mask="url(#mask0_3223_626)">
<path d="M7.16428 11.8164C5.92218 11.8164 4.71258 11.8164 3.50065 11.8164C3.00613 11.8164 2.87147 11.9457 2.87147 12.4195C2.86915 13.2471 2.90862 13.2857 3.75836 13.2857C5.32319 13.2857 6.88799 13.2879 8.45285 13.2834C8.60375 13.2834 8.74073 13.3084 8.88004 13.3695C9.69496 13.73 10.5354 13.7709 11.3921 13.5283C11.4269 13.5192 11.4618 13.5056 11.4966 13.4965C11.5128 13.492 11.5337 13.4965 11.55 13.4965C11.4849 14.0701 10.9069 14.5825 10.3264 14.5825C7.73312 14.5825 5.14209 14.5825 2.54876 14.5825C1.64562 14.5825 0.942143 13.9159 0.939822 13.034C0.9375 9.5356 0.935178 6.03489 0.942143 2.53648C0.944465 1.65904 1.65259 0.978852 2.54876 0.976585C3.91856 0.974317 5.28836 0.981119 6.66048 0.969783C6.87407 0.967516 6.92053 1.03327 6.9182 1.23052C6.90889 2.21679 6.93445 3.20306 6.90656 4.18706C6.87873 5.11891 7.62862 5.86031 8.59216 5.8331C9.53475 5.80816 10.4797 5.8331 11.4246 5.82404C11.6034 5.82177 11.6637 5.86484 11.6545 6.04623C11.6382 6.31603 11.6498 6.58811 11.6498 6.87833C11.0137 6.6516 10.3636 6.73097 9.7321 6.66292C8.81734 6.56317 7.9119 6.62212 7.00407 6.59718C5.82003 6.5677 4.63364 6.58811 3.44957 6.59037C3.01309 6.59037 2.87147 6.73097 2.87147 7.15719C2.86683 8.03692 2.88308 8.05278 3.7839 8.05278C4.90528 8.05278 6.02434 8.05278 7.14571 8.05278C7.23624 8.05278 7.32683 8.05278 7.46614 8.05278C7.2409 8.39514 7.05519 8.71255 6.9391 9.06173C6.89032 9.2091 6.7719 9.14787 6.68602 9.14787C5.60179 9.15241 4.51988 9.15014 3.43565 9.15014C3.01774 9.15014 2.88076 9.29073 2.87147 9.70337C2.85058 10.5037 2.88773 10.6443 3.79783 10.6239C4.72419 10.6034 5.65054 10.6239 6.57458 10.6171C6.74174 10.6148 6.80905 10.6465 6.83228 10.8279C6.87407 11.1658 7.01572 11.4809 7.16428 11.8164Z" fill="#283942"/>
<path d="M10.3093 7.07716C12.494 7.07261 14.0147 9.17443 13.2648 11.1787C13.1836 11.3963 13.2254 11.5142 13.3902 11.6548C13.8267 12.0289 14.2515 12.4211 14.681 12.8043C15.0548 13.1399 15.1082 13.6274 14.8041 13.9584C14.4976 14.2916 14.0194 14.2916 13.6247 13.9471C13.1905 13.5661 12.7587 13.1852 12.3408 12.7907C12.2108 12.666 12.1295 12.6637 11.9763 12.7545C10.1792 13.836 7.90169 12.9744 7.3073 10.9973C6.72226 9.04066 8.22206 7.0817 10.3093 7.07716ZM8.08048 10.1221C8.07116 11.3533 9.05554 12.3509 10.2884 12.3599C11.5374 12.3713 12.5637 11.3873 12.5799 10.1606C12.5962 8.96806 11.5862 7.95689 10.3697 7.94779C9.08343 7.93875 8.08973 8.88193 8.08048 10.1221Z" fill="#283942"/>
<path d="M7.67079 0.9375C7.72883 0.96244 7.74973 0.964707 7.76138 0.976044C9.05454 2.32735 10.3477 3.68091 11.6409 5.03221C11.5829 5.11837 11.5016 5.07756 11.4366 5.07756C10.7517 5.08209 10.0668 5.07982 9.38189 5.07982C8.42301 5.07982 7.73815 4.51527 7.68244 3.58795C7.63132 2.71959 7.67079 1.84215 7.67079 0.9375Z" fill="#283942"/>
</g>
</g>
<defs>
<clipPath id="clip0_3223_626">
<rect width="15" height="15" fill="white"/>
</clipPath>
</defs>
</svg>
