<svg width="15" height="15" viewBox="0 0 15 15" fill="none" xmlns="http://www.w3.org/2000/svg">
<path d="M7.50148 12.0028C6.71422 11.9891 5.94103 11.9206 5.19595 11.6741C5.02725 11.6194 4.87261 11.5509 4.71797 11.4687C4.36652 11.277 4.18377 10.9757 4.14159 10.5923C4.02913 9.79796 4.14159 9.05845 4.63362 8.4148C5.05537 7.86701 5.61769 7.51094 6.29248 7.31922C7.51554 6.97685 8.69642 7.1001 9.75078 7.82592C10.4396 8.30524 10.8192 8.97628 10.8895 9.79796C10.9176 10.1403 10.8895 10.469 10.8192 10.7977C10.7489 11.1264 10.524 11.3318 10.2428 11.4824C9.84918 11.7015 9.41338 11.8111 8.96352 11.8796C8.47149 11.9617 7.99351 12.0028 7.50148 12.0028Z" fill="#283942"/>
<path d="M9.75712 4.54031C9.81335 5.73175 8.82929 6.75886 7.57811 6.81364C6.35506 6.88211 5.28664 5.92348 5.23041 4.75943C5.16012 3.55429 6.05984 2.47241 7.35318 2.40393C8.66059 2.33546 9.70089 3.2667 9.75712 4.54031Z" fill="#283942"/>
<path d="M2.5747 10.5387C1.99832 10.525 1.37976 10.4702 0.775265 10.2648C0.269173 10.1005 0.0301855 9.75811 0.00206926 9.23771C-0.0401051 8.15583 0.564393 7.27937 1.63281 6.96439C2.61688 6.6768 3.54471 6.77266 4.3882 7.37523C4.51472 7.47109 4.62719 7.59435 4.72559 7.7039C4.76777 7.74499 4.76777 7.78607 4.72559 7.82716C4.00863 8.51189 3.71341 9.34727 3.76964 10.3196C3.76964 10.4155 3.75558 10.4428 3.65718 10.4565C3.31978 10.5113 2.96833 10.5387 2.5747 10.5387Z" fill="#283942"/>
<path d="M12.3896 10.5391C12.0381 10.5391 11.6867 10.5117 11.3352 10.4569C11.2509 10.4569 11.2227 10.4295 11.2227 10.3336C11.2649 9.62151 11.1243 8.95047 10.7166 8.36159C10.5901 8.18356 10.4636 8.00553 10.2949 7.86858C10.2246 7.80011 10.2246 7.75902 10.2949 7.69055C10.6323 7.2934 11.0681 7.0469 11.5742 6.92365C12.4036 6.70453 13.1909 6.7867 13.936 7.22493C14.7373 7.69055 15.1168 8.56701 14.9622 9.48456C14.8919 9.84062 14.6951 10.0734 14.3718 10.2104C14.0344 10.361 13.6548 10.4432 13.2893 10.4843C12.9941 10.5254 12.6988 10.5391 12.3896 10.5391Z" fill="#283942"/>
<path d="M4.34597 4.88369C4.34597 5.82863 3.55871 6.59553 2.5887 6.59553C1.64681 6.59553 0.845499 5.81493 0.859557 4.88369C0.859557 3.95245 1.64681 3.18555 2.60276 3.18555C3.57277 3.18555 4.34597 3.93876 4.34597 4.88369Z" fill="#283942"/>
<path d="M14.1272 4.89739C14.1272 5.84232 13.34 6.59553 12.3559 6.59553C11.414 6.59553 10.6268 5.81493 10.6408 4.88369C10.6408 3.93876 11.4281 3.18555 12.4121 3.18555C13.3681 3.18555 14.1413 3.95245 14.1272 4.89739Z" fill="#283942"/>
</svg>
