<svg width="15" height="15" viewBox="0 0 15 15" fill="none" xmlns="http://www.w3.org/2000/svg">
<g clip-path="url(#clip0_3227_798)">
<path d="M2.01039 7.50154C2.01039 5.14987 2.01978 2.79819 2.00005 0.446517C1.99723 0.0665806 2.1128 -0.00360468 2.46422 0.000138536C4.1837 0.0179188 5.90412 0.016983 7.62361 0.000138536C7.94683 -0.00266888 8.04173 0.069388 8.03704 0.40347C8.01637 1.7894 8.03986 3.17532 8.02012 4.56125C8.01543 4.89439 8.11314 4.97487 8.43825 4.97113C9.82981 4.95335 11.2214 4.97206 12.6129 4.95616C12.9136 4.95241 13.0019 5.02447 13 5.33516C12.9878 8.43454 12.9888 11.5339 12.9991 14.6333C13 14.9103 12.9474 15.0001 12.6458 14.9992C9.22188 14.987 5.79795 14.9861 2.37401 15.0001C2.04327 15.0011 2.00381 14.8841 2.00475 14.6034C2.01414 12.2358 2.01039 9.86913 2.01039 7.50154ZM6.52615 9.51633C6.26493 9.0999 6.05352 8.67785 5.6805 8.35593C6.28373 8.03401 6.45192 7.74859 6.31379 7.28163C6.16815 6.78846 5.75848 6.75196 5.3366 6.75103C5.00868 6.75009 4.67981 6.766 4.35283 6.74541C4.10853 6.73044 4.02961 6.80343 4.03524 7.05423C4.05122 7.78509 4.0437 8.51689 4.039 9.24869C4.03806 9.43491 4.03054 9.57248 4.29833 9.5678C4.54357 9.56312 4.63847 9.49668 4.61216 9.24962C4.59431 9.08024 4.60089 8.90712 4.61122 8.7368C4.61874 8.6217 4.54451 8.46261 4.69203 8.40366C4.84331 8.34283 5.01432 8.38775 5.12143 8.50753C5.28586 8.69188 5.45217 8.88653 5.56305 9.10364C5.75848 9.492 6.03285 9.66044 6.52615 9.51633ZM9.4239 8.15661C9.4239 8.54496 9.43517 8.93332 9.4192 9.32074C9.41074 9.53504 9.49625 9.58932 9.68981 9.57248C9.84015 9.55937 10.0065 9.61272 9.9933 9.35443C9.98015 9.09428 9.9125 8.76581 10.0393 8.58801C10.1775 8.39336 10.5326 8.559 10.7873 8.49817C10.8474 8.4832 10.9104 8.47478 10.9696 8.45887C11.4121 8.33534 11.5944 8.02372 11.5812 7.5867C11.5681 7.15997 11.3426 6.86894 10.9263 6.79875C10.4518 6.71827 9.89746 6.62189 9.5094 6.82776C9.24725 6.9672 9.45679 7.54459 9.4239 7.92546C9.41826 8.00126 9.4239 8.07893 9.4239 8.15661ZM6.98186 8.14444C6.97152 8.14444 6.96118 8.14444 6.95085 8.14444C6.95085 8.53373 6.96212 8.92303 6.94615 9.31139C6.93675 9.53224 7.03447 9.5706 7.22334 9.56218C7.38871 9.5547 7.52965 9.56967 7.52307 9.32823C7.51461 9.02035 7.42723 8.6217 7.58227 8.42612C7.75046 8.21369 8.16764 8.3709 8.47583 8.3578C8.63557 8.35125 8.6957 8.30446 8.69006 8.14163C8.68443 7.98535 8.67503 7.86089 8.46738 7.88148C8.37436 7.89084 8.26724 7.91142 8.18831 7.87774C7.96187 7.77948 7.52025 8.15754 7.51273 7.56331C7.50428 6.93351 7.97032 7.31438 8.21086 7.22922C8.33583 7.1843 8.48993 7.21332 8.62993 7.22361C8.8 7.23577 8.8855 7.19179 8.87893 6.99621C8.87423 6.82776 8.8498 6.72483 8.6506 6.74916C8.55852 6.76039 8.46268 6.74635 8.36966 6.75196C7.90737 6.7791 7.28723 6.55451 7.02696 6.83899C6.80333 7.08511 6.98186 7.69525 6.98186 8.14444Z" fill="#283942"/>
<path d="M8.76707 0.175781C10.1323 1.5355 11.4731 2.86996 12.8365 4.22688C11.5483 4.22688 10.2582 4.22313 8.96908 4.23062C8.74546 4.23155 8.76613 4.10335 8.76613 3.96017C8.76707 2.70245 8.76707 1.4438 8.76707 0.175781Z" fill="#283942"/>
<path d="M5.06604 7.93333C4.77664 7.9745 4.61127 7.93894 4.60939 7.56649C4.60751 7.21556 4.76537 7.19404 5.02282 7.22118C5.03785 7.22305 5.05383 7.22024 5.06886 7.22118C5.34323 7.2399 5.73316 7.11169 5.73222 7.56649C5.73128 8.01474 5.32255 7.87531 5.06604 7.93333Z" fill="#283942"/>
<path d="M10.0007 7.63426C9.93684 7.33293 9.99886 7.18133 10.3409 7.21315C10.6472 7.24216 10.9911 7.22157 10.9911 7.62864C10.9911 8.05069 10.6228 7.99454 10.3315 8.03104C9.97537 8.07502 9.93966 7.88692 10.0007 7.63426Z" fill="#283942"/>
</g>
<defs>
<clipPath id="clip0_3227_798">
<rect width="15" height="15" fill="white"/>
</clipPath>
</defs>
</svg>
