<svg width="15" height="15" viewBox="0 0 15 15" fill="none" xmlns="http://www.w3.org/2000/svg">
<mask id="mask0_3240_1109" style="mask-type:luminance" maskUnits="userSpaceOnUse" x="1" y="0" width="14" height="15">
<path d="M15 0H1V15H15V0Z" fill="white"/>
</mask>
<g mask="url(#mask0_3240_1109)">
<path d="M1.00679 7.27386C1.00679 5.60933 1.01433 3.94481 1.00008 2.28112C0.997569 1.98457 1.05037 1.87651 1.37978 1.87902C2.60518 1.88907 2.60518 1.87567 2.60518 0.65848C2.60518 0.00758076 2.60518 0.00758077 3.25561 0.00758077C5.68379 0.00758077 8.11282 0.0151201 10.541 4.1394e-05C10.909 -0.00247173 11.0146 0.108943 11.0121 0.472509C10.997 2.51149 11.0062 4.54963 11.0012 6.58862C11.0012 6.70003 11.0791 6.86506 10.9291 6.91783C10.7933 6.96558 10.6349 6.97061 10.5209 6.8148C10.4094 6.66317 10.2317 6.67741 10.0624 6.67741C7.66607 6.67825 5.2689 6.67741 2.87256 6.67909C2.40821 6.67909 2.32104 6.7704 2.32021 7.2437C2.31769 8.2699 2.31853 9.29609 2.32021 10.3223C2.32021 10.5032 2.3596 10.6875 2.06456 10.6691C1.86424 10.6565 1.88184 10.84 1.881 10.974C1.87765 11.459 1.87178 11.9449 1.88268 12.43C1.88771 12.6419 1.85753 12.7868 1.59686 12.7449C1.36385 12.7072 1.02523 12.8731 1.0093 12.4325C1.00595 12.3353 1.00847 12.2381 1.00847 12.1409C1.00679 10.52 1.00679 8.89734 1.00679 7.27386ZM3.12988 3.14312C2.40905 3.13726 1.82736 3.73203 1.86172 4.43906C1.89609 5.15111 2.53729 5.71907 3.22376 5.64536C3.98398 5.5641 4.48521 4.89309 4.34188 4.14753C4.29829 3.918 4.12395 3.68009 4.41731 3.48156C4.48856 3.43297 4.48269 3.33663 4.41396 3.26208C4.33014 3.1716 4.22872 3.16993 4.16586 3.2604C4.00409 3.49161 3.85741 3.38103 3.68727 3.27464C3.52047 3.1716 3.32517 3.14647 3.12988 3.14312ZM7.59567 3.9113C8.31733 3.9113 9.039 3.91298 9.76067 3.91046C9.91908 3.90962 10.1454 3.9557 10.1378 3.7136C10.1311 3.50836 9.91908 3.54438 9.77156 3.54438C8.32823 3.54271 6.88489 3.54187 5.44072 3.54522C5.2974 3.54522 5.09037 3.50082 5.08534 3.72198C5.08031 3.94146 5.28147 3.9113 5.42983 3.9113C6.15233 3.91214 6.874 3.9113 7.59567 3.9113ZM7.61662 4.67194C6.88322 4.67194 6.14982 4.67026 5.41642 4.67361C5.27225 4.67445 5.07193 4.63005 5.08282 4.86461C5.09204 5.06818 5.27896 5.01959 5.4072 5.02043C6.874 5.02378 8.3408 5.02378 9.80676 5.02043C9.94842 5.02043 10.1546 5.06566 10.142 4.83278C10.132 4.64513 9.95177 4.67278 9.81598 4.67278C9.08342 4.6711 8.35002 4.67194 7.61662 4.67194Z" fill="#283942"/>
<path d="M6.2889 11.0099C7.49586 11.0099 8.70283 11.0166 9.9098 11.004C10.1688 11.0015 10.2895 11.0517 10.2593 11.3391C10.2115 11.7889 10.4521 12.3938 10.1646 12.6493C9.91399 12.8729 9.32141 12.7205 8.88053 12.7221C7.93674 12.7263 6.9938 12.7205 6.05002 12.7263C5.86227 12.7272 5.70972 12.6844 5.5513 12.5739C4.93944 12.1466 4.32925 12.1659 3.69643 12.5864C3.26812 12.8704 2.78282 12.6794 2.32518 12.7079C2.21202 12.7154 2.24304 12.5538 2.2422 12.4624C2.23884 12.0746 2.25561 11.685 2.23549 11.298C2.22292 11.0526 2.31596 11.0023 2.54226 11.004C3.79114 11.0149 5.04002 11.0099 6.2889 11.0099Z" fill="#283942"/>
<path d="M10.6113 10.3465C10.6113 9.44516 10.6239 8.54294 10.6037 7.64157C10.5979 7.35591 10.6926 7.28973 10.9575 7.29978C11.4562 7.31905 11.9566 7.31654 12.4561 7.3023C12.9942 7.28722 13.3865 7.50251 13.6597 7.96576C13.9204 8.4064 14.1677 8.86127 14.4778 9.26589C14.9312 9.85731 15.0293 10.5116 14.9882 11.2236C14.9757 11.4456 14.9103 11.5101 14.6982 11.4975C14.2708 11.4724 14.1543 11.7296 14.1618 12.1066C14.171 12.5815 14.2766 12.7373 14.7167 12.7407C15.0461 12.7432 15.0134 12.8932 14.9245 13.1001C14.8323 13.3129 14.6605 13.3933 14.4342 13.4226C14.1886 13.4553 14.1492 13.2927 14.0662 13.1311C13.7737 12.5614 13.2901 12.2607 12.6564 12.2724C12.0421 12.2841 11.545 12.574 11.3103 13.152C11.1829 13.467 10.9742 13.4377 10.7538 13.41C10.4847 13.3765 10.6205 13.1428 10.618 13.0088C10.6046 12.1225 10.6113 11.2345 10.6113 10.3465ZM12.7838 10.4831C13.2281 10.4831 13.6723 10.4856 14.1165 10.4822C14.5641 10.4789 14.6312 10.3566 14.3956 9.95951C14.2045 9.63783 14.0051 9.32201 13.8031 9.00703C12.845 7.51675 13.2725 7.7555 11.4847 7.73372C11.4428 7.73288 11.4009 7.73791 11.3598 7.73288C11.1259 7.70775 11.0396 7.81246 11.0421 8.04451C11.0505 8.75237 11.0497 9.46023 11.043 10.1673C11.0404 10.401 11.1393 10.4889 11.3682 10.4848C11.8392 10.4772 12.312 10.4831 12.7838 10.4831ZM11.5819 11.2881C11.7378 11.2797 11.9507 11.3225 11.9507 11.1164C11.9507 10.881 11.7252 10.9312 11.5668 10.9296C11.4201 10.9279 11.2123 10.8919 11.2106 11.1005C11.2098 11.3509 11.4419 11.2663 11.5819 11.2881Z" fill="#283942"/>
<path d="M4.45193 8.34357C4.47623 8.35111 4.49048 8.35362 4.50306 8.35949C4.69081 8.45917 4.74529 8.83195 4.99087 8.72975C5.27082 8.61415 5.08307 8.28577 5.12917 8.0554C5.14007 8.00179 5.13085 7.94482 5.13085 7.88953C5.13085 6.96135 5.13001 6.96722 6.05032 7.03758C6.23137 7.05182 6.28753 7.10795 6.28669 7.28387C6.28082 8.33603 6.27998 9.38903 6.28669 10.4412C6.28753 10.6347 6.20203 10.6657 6.0344 10.6649C4.99506 10.659 3.95573 10.6573 2.9164 10.6665C2.70937 10.6682 2.66243 10.5945 2.66411 10.4027C2.67165 9.3639 2.67081 8.32514 2.66494 7.28638C2.66411 7.11298 2.70937 7.02167 2.89544 7.04261C2.9231 7.04596 2.95076 7.04345 2.97842 7.04261C3.83 7.01748 3.83 7.01748 3.83 7.86356C3.83 8.04367 3.82833 8.22378 3.83084 8.40388C3.83252 8.52535 3.7948 8.67279 3.93729 8.73562C4.10828 8.81101 4.17868 8.65771 4.26669 8.55635C4.32872 8.4843 4.39242 8.41226 4.45193 8.34357Z" fill="#283942"/>
<path d="M8.43712 8.33866C8.66343 8.4308 8.71205 8.84547 8.97607 8.724C9.23339 8.60672 9.04815 8.27164 9.09174 8.03708C9.1018 7.98347 9.09341 7.9265 9.09341 7.87121C9.09341 6.98492 9.19064 6.90701 10.0749 7.03853C10.2233 7.06031 10.2568 7.11811 10.256 7.24964C10.2535 8.31855 10.2518 9.38663 10.2568 10.4555C10.2576 10.6214 10.1956 10.6658 10.038 10.665C8.98278 10.6599 7.92752 10.6574 6.87226 10.6666C6.67277 10.6683 6.65014 10.5787 6.65014 10.4162C6.65433 9.37574 6.65768 8.33447 6.64846 7.29403C6.64679 7.08544 6.72474 7.04691 6.915 7.03853C7.81269 7.00084 7.81269 6.99413 7.81269 7.87289C7.81269 8.06724 7.80933 8.26159 7.81436 8.45593C7.81688 8.56232 7.7867 8.69133 7.92165 8.74243C8.05157 8.79186 8.12281 8.69552 8.19573 8.6084C8.27536 8.5129 8.36085 8.42326 8.43712 8.33866Z" fill="#283942"/>
<path d="M12.6794 15.0005C12.0281 14.9946 11.4925 14.4518 11.5001 13.8034C11.5076 13.1517 12.0466 12.6247 12.702 12.6289C13.3541 12.6331 13.8889 13.176 13.8813 13.8252C13.8738 14.4769 13.3315 15.0063 12.6794 15.0005ZM12.7062 13.1006C12.3223 13.0905 11.9921 13.4172 11.9904 13.8093C11.9879 14.198 12.2704 14.4962 12.6568 14.5121C13.0574 14.5289 13.3876 14.2298 13.4027 13.8386C13.417 13.4574 13.0893 13.1106 12.7062 13.1006Z" fill="#283942"/>
<path d="M4.63276 12.6309C5.28989 12.6242 5.82548 13.1478 5.83135 13.802C5.83721 14.4538 5.30833 14.9933 4.65707 15C4.00162 15.0067 3.46686 14.4823 3.461 13.8263C3.45429 13.1671 3.97396 12.6376 4.63276 12.6309ZM4.66377 13.1009C4.28492 13.0883 3.93792 13.42 3.93121 13.802C3.9245 14.1723 4.22792 14.4923 4.60259 14.5107C5.00994 14.5308 5.32844 14.2443 5.34269 13.8431C5.35778 13.4452 5.0552 13.1143 4.66377 13.1009Z" fill="#283942"/>
<path d="M8.1163 13.0793C8.7399 13.0793 9.3635 13.0767 9.98794 13.0818C10.0952 13.0826 10.2444 13.0189 10.2536 13.2334C10.2637 13.4738 10.1003 13.4143 9.97537 13.4143C8.78349 13.4169 7.59161 13.4143 6.39889 13.4177C6.23544 13.4185 6.06948 13.4169 6.07032 13.2066C6.07116 12.9779 6.26729 13.0868 6.37039 13.0843C6.95208 13.0734 7.53461 13.0793 8.1163 13.0793Z" fill="#283942"/>
<path d="M1.23438 1.50145C1.57551 1.08763 1.87642 0.722385 2.179 0.355469C2.29466 0.438402 2.24605 0.543953 2.24437 0.628562C2.21755 1.58355 2.47906 1.54334 1.23438 1.50145Z" fill="#283942"/>
<path d="M4.76037 8.0393C4.56591 7.81982 4.39157 7.79217 4.17867 8.07197C4.17867 7.77123 4.19125 7.57185 4.17532 7.37499C4.15604 7.1396 4.2122 7.03237 4.48293 7.03321C4.74193 7.03405 4.77629 7.14546 4.76288 7.35489C4.75115 7.55761 4.76037 7.76201 4.76037 8.0393Z" fill="#283942"/>
<path d="M8.7455 8.04071C8.55188 7.84385 8.37922 7.75338 8.16213 8.11359C8.16213 7.77432 8.17219 7.56322 8.15878 7.35295C8.14536 7.14353 8.17805 7.03295 8.43705 7.03127C8.70024 7.0296 8.77316 7.11672 8.74969 7.36301C8.73041 7.56406 8.7455 7.76846 8.7455 8.04071Z" fill="#283942"/>
<path d="M3.24598 13.0803C3.19988 13.2311 3.22418 13.4095 3.03727 13.4103C2.77828 13.4112 2.51174 13.4698 2.26196 13.3676C2.2343 13.3559 2.24268 13.2403 2.24604 13.1733C2.25107 13.0744 2.33153 13.082 2.39858 13.0811C2.67434 13.0794 2.95094 13.0803 3.24598 13.0803Z" fill="#283942"/>
<path d="M14.9777 12.129C14.9986 12.2965 14.9709 12.4096 14.7488 12.4054C14.5267 12.4004 14.5183 12.2755 14.5158 12.1114C14.5125 11.9346 14.5519 11.8374 14.7631 11.8341C15.0028 11.8299 14.9869 11.9689 14.9777 12.129Z" fill="#283942"/>
<path d="M3.96438 4.08194C4.06831 4.53514 3.97527 4.88865 3.60648 5.13159C3.30222 5.3318 2.97282 5.33348 2.66437 5.15002C2.33748 4.95567 2.19919 4.64991 2.24193 4.26959C2.28468 3.88173 2.61324 3.54832 3.00216 3.50811C3.25361 3.48214 3.60313 3.49052 3.64084 3.73094C3.67605 3.95293 3.35922 4.14644 3.16308 4.31147C3.05664 4.40111 2.9527 4.22854 2.84709 4.17828C2.74316 4.12801 2.64342 4.07021 2.55289 4.18833C2.43723 4.33995 2.56798 4.41032 2.66353 4.48572C3.12788 4.85514 3.17566 4.84761 3.57044 4.42373C3.67856 4.30728 3.75483 4.15063 3.96438 4.08194Z" fill="#283942"/>
<path d="M14.0698 10.1122C13.1838 10.1122 12.3842 10.1097 11.5846 10.1147C11.4337 10.1156 11.3977 10.0527 11.3994 9.91702C11.4044 9.3767 11.4061 8.83554 11.3985 8.29521C11.396 8.13354 11.4463 8.07657 11.6098 8.08244C11.9283 8.09333 12.2476 8.0883 12.5661 8.08579C12.7011 8.08495 12.8209 8.13019 12.8905 8.23825C13.2744 8.83889 13.6507 9.44371 14.0698 10.1122Z" fill="#283942"/>
<path d="M12.6978 13.4727C12.9116 13.4869 13.0331 13.6084 13.0323 13.8136C13.0314 14.0163 12.9099 14.1571 12.7012 14.1604C12.4724 14.1638 12.3357 14.0197 12.3441 13.7977C12.3508 13.5958 12.4866 13.4802 12.6978 13.4727Z" fill="#283942"/>
<path d="M4.99768 13.8205C4.96583 14.0215 4.8577 14.1589 4.64984 14.1589C4.41934 14.1589 4.29445 14.014 4.30535 13.7878C4.31541 13.5775 4.44951 13.4644 4.66157 13.4753C4.87195 13.4862 4.97421 13.6169 4.99768 13.8205Z" fill="#283942"/>
</g>
</svg>
