<svg width="15" height="15" viewBox="0 0 15 15" fill="none" xmlns="http://www.w3.org/2000/svg">
<path d="M9.44828 10.4492C9.27492 10.4492 9.10157 10.4448 8.92821 10.4509C8.85041 10.4535 8.82927 10.4275 8.83181 10.3505C8.83688 10.1479 8.83096 9.9445 8.83519 9.74194C8.83688 9.67269 8.81997 9.64672 8.74724 9.64758C8.67621 9.64845 8.65591 9.67009 8.65761 9.74108C8.66183 9.91421 8.6593 10.0873 8.65845 10.2613C8.65845 10.3072 8.66691 10.3617 8.59756 10.3617C8.52822 10.3617 8.53668 10.3063 8.53583 10.2613C8.53499 10.0925 8.53245 9.92286 8.53668 9.75406C8.53837 9.68308 8.52738 9.64412 8.4445 9.64672C8.3684 9.64932 8.35909 9.68135 8.36163 9.74887C8.36755 9.96009 8.34895 10.1713 8.37178 10.3817C8.37854 10.4457 8.35064 10.4466 8.2999 10.4448C8.03944 10.4362 7.77898 10.4405 7.51852 10.4448C7.33418 10.4474 7.14983 10.4267 6.96463 10.444C6.90121 10.45 6.92658 10.3808 6.92573 10.3462C6.92319 10.0847 6.92319 9.82245 6.92488 9.56102C6.92488 9.50042 6.93588 9.44762 6.84201 9.44675C6.74645 9.44589 6.74815 9.49436 6.74899 9.56362C6.75153 9.82591 6.74815 10.0882 6.75153 10.3496C6.75237 10.4336 6.73715 10.4526 6.64667 10.4414C6.46316 10.418 6.27628 10.4431 6.09108 10.4474C5.7486 10.4561 5.40527 10.4509 5.06278 10.45C4.88097 10.45 4.81501 10.3574 4.87082 10.1808C4.92663 10.0025 5.03826 9.86919 5.20316 9.79215C5.58962 9.61209 5.97861 9.43896 6.36676 9.26324C6.5232 9.19225 6.67457 9.11348 6.77351 8.96459C6.82341 8.89014 6.85131 8.94381 6.88768 8.97151C7.21494 9.22082 7.56588 9.25458 7.93881 9.09011C8.03098 9.04942 8.10625 8.94208 8.18658 8.93689C8.26523 8.93169 8.31258 9.07279 8.39715 9.12733C8.6297 9.27622 8.88677 9.36971 9.13455 9.48311C9.35611 9.58526 9.5802 9.68308 9.80091 9.78695C9.97004 9.86659 10.0842 10.0016 10.1417 10.1843C10.195 10.354 10.129 10.4474 9.95651 10.4492C9.78738 10.45 9.61826 10.4492 9.44828 10.4492Z" fill="#283942"/>
<path d="M4.90969 2.98344C4.90885 3.28036 4.82175 3.54698 4.656 3.79023C4.34058 4.25508 4.02684 4.7208 3.71226 5.18652C3.60994 5.33801 3.49071 5.34234 3.38923 5.19171C3.06196 4.70955 2.72794 4.23171 2.41505 3.74002C2.11315 3.26737 2.10301 2.76703 2.37699 2.27707C2.72624 1.65207 3.39768 1.48846 3.90676 1.63302C4.50632 1.80442 4.91477 2.35411 4.90969 2.98344ZM3.55075 3.7028C3.96934 3.70193 4.30421 3.35913 4.30506 2.9315C4.30506 2.50906 3.96342 2.16021 3.54821 2.15847C3.13723 2.15674 2.7939 2.50993 2.79474 2.9341C2.79474 3.36173 3.13131 3.7028 3.55075 3.7028Z" fill="#283942"/>
<path d="M10.0938 2.89267C10.1039 2.43388 10.3458 2.0175 10.8058 1.74828C11.3419 1.43492 12.0421 1.56996 12.4641 2.0452C12.8852 2.52044 12.9334 3.23287 12.5766 3.76698C12.2603 4.24049 11.9389 4.71141 11.6193 5.18319C11.5119 5.34246 11.3969 5.34333 11.2895 5.18405C10.9656 4.70535 10.6417 4.22664 10.3204 3.74534C10.1673 3.51854 10.0946 3.26144 10.0938 2.89267ZM11.4527 3.70292C11.8738 3.70032 12.2079 3.36186 12.2087 2.93336C12.2095 2.51005 11.8688 2.16033 11.4535 2.15773C11.0426 2.15514 10.6958 2.51092 10.6975 2.93249C10.7001 3.36186 11.0366 3.70465 11.4527 3.70292Z" fill="#283942"/>
<path d="M2.03976 9.70117C2.58689 9.71848 3.00633 9.95221 3.26002 10.443C3.5154 10.9373 3.48158 11.4307 3.17714 11.8947C2.86849 12.3639 2.54968 12.8262 2.2351 13.2919C2.1184 13.465 2.00678 13.4659 1.89092 13.2945C1.57719 12.8296 1.26007 12.3674 0.951415 11.8991C0.651212 11.4446 0.610621 10.959 0.852475 10.4699C1.09602 9.97472 1.50954 9.7306 2.03976 9.70117ZM2.8169 11.0585C2.82028 10.6317 2.4871 10.2838 2.06935 10.2768C1.65837 10.2708 1.30997 10.6205 1.30574 11.0438C1.30151 11.4671 1.64146 11.8212 2.05498 11.8229C2.47442 11.8255 2.81352 11.4844 2.8169 11.0585Z" fill="#283942"/>
<path d="M12.936 9.70117C13.4747 9.72195 13.8899 9.96346 14.1411 10.4534C14.3897 10.9382 14.3576 11.4264 14.0607 11.8826C13.7521 12.357 13.429 12.8218 13.1119 13.2902C12.9919 13.4676 12.8828 13.465 12.761 13.285C12.449 12.8227 12.131 12.3648 11.8257 11.8991C11.5255 11.4411 11.4841 10.9503 11.7327 10.4586C11.9813 9.96693 12.3957 9.72368 12.936 9.70117ZM12.186 11.049C12.1851 11.4784 12.5174 11.8212 12.9369 11.8229C13.3513 11.8246 13.692 11.4792 13.6954 11.0525C13.6988 10.6326 13.3538 10.2777 12.9403 10.2768C12.5251 10.276 12.1868 10.6222 12.186 11.049Z" fill="#283942"/>
<path d="M2.72109 6.65857C2.72532 6.94683 2.64244 7.20826 2.48431 7.44458C2.16888 7.91463 1.85177 8.38208 1.53465 8.8504C1.41711 9.02353 1.30717 9.0244 1.19048 8.85213C0.87336 8.38382 0.556244 7.91463 0.24082 7.44545C-0.0949003 6.9451 -0.0779874 6.30019 0.28141 5.8111C0.624741 5.34278 1.24798 5.14455 1.78834 5.33153C2.35323 5.52717 2.72109 6.05002 2.72109 6.65857ZM1.35791 7.38226C1.78243 7.38226 2.12068 7.03513 2.11815 6.60144C2.11561 6.18506 1.77566 5.83794 1.36721 5.83534C0.948622 5.83274 0.605291 6.18593 0.607828 6.61789C0.60952 7.03773 0.947776 7.38226 1.35791 7.38226Z" fill="#283942"/>
<path d="M14.996 6.66483C14.9926 6.9479 14.914 7.20673 14.7584 7.43959C14.4413 7.9131 14.1216 8.38401 13.802 8.85579C13.6878 9.02459 13.5796 9.02459 13.4654 8.85752C13.1153 8.34766 12.7754 7.83 12.4227 7.32099C12.1716 6.95915 12.2325 6.24239 12.5276 5.84506C12.8904 5.35683 13.3766 5.16293 13.9576 5.30749C14.5225 5.44859 14.8582 5.8416 14.9757 6.42505C14.9918 6.50295 14.9901 6.58519 14.996 6.66483ZM13.6303 7.38159C14.0481 7.38332 14.3863 7.04052 14.3889 6.61289C14.3905 6.18786 14.0523 5.83727 13.6379 5.83467C13.2252 5.83207 12.8794 6.18353 12.8785 6.6051C12.8768 7.03187 13.2134 7.37986 13.6303 7.38159Z" fill="#283942"/>
<path d="M8.42887 7.15779C8.58954 7.09373 8.6259 7.12316 8.60476 7.29283C8.58954 7.41489 8.56671 7.53521 8.51512 7.64688C8.49567 7.68843 8.47538 7.74643 8.44155 7.76028C8.31302 7.81222 8.30879 7.92735 8.29272 8.03556C8.24959 8.33161 8.05932 8.52811 7.84453 8.69345C7.60606 8.87784 7.26949 8.81811 7.05132 8.60775C6.84752 8.41125 6.71814 8.18272 6.68431 7.89792C6.68093 7.86935 6.68346 7.83127 6.65471 7.81828C6.4543 7.72825 6.44922 7.53088 6.40694 7.35343C6.40271 7.33698 6.40102 7.32053 6.39848 7.30322C6.37227 7.12143 6.40694 7.092 6.57438 7.15952C6.56423 6.98985 6.55831 6.82278 6.58199 6.65571C6.62004 6.39429 6.71306 6.31032 6.95576 6.38996C7.31854 6.50855 7.66525 6.51721 8.03142 6.39342C8.29779 6.30339 8.38574 6.38996 8.4238 6.67649C8.44494 6.83663 8.43733 6.99591 8.42887 7.15779Z" fill="#283942"/>
<path d="M11.0418 9.15928C11.0613 9.13244 11.0359 9.1134 11.0292 9.09089C10.9987 8.98268 11.0283 8.89698 11.1281 8.84678C11.2287 8.79657 11.3175 8.82773 11.375 8.92122C11.5044 9.13158 11.6313 9.34453 11.7522 9.56094C11.8317 9.70291 11.7547 9.84574 11.5949 9.86565C11.3733 9.89248 11.1526 9.91845 10.9311 9.94096C10.7822 9.95654 10.6926 9.90114 10.6714 9.78947C10.6495 9.67174 10.7154 9.58777 10.8761 9.54189C10.7788 9.46052 10.6672 9.42243 10.5649 9.36963C9.97126 9.06752 9.37593 8.76887 8.78059 8.46935C8.6436 8.4001 8.59202 8.28757 8.64614 8.1759C8.69603 8.07202 8.81357 8.04518 8.94634 8.11097C9.59664 8.43819 10.2469 8.76714 10.8972 9.09435C10.9446 9.11773 10.9877 9.15495 11.0444 9.15581C11.0495 9.16101 11.0537 9.1662 11.0588 9.17053C11.0596 9.1662 11.0621 9.16187 11.0604 9.15841C11.0554 9.14802 11.0486 9.14802 11.0418 9.15928Z" fill="#283942"/>
<path d="M4.10249 9.53685C4.27584 9.58446 4.3435 9.6693 4.32151 9.7853C4.29952 9.89956 4.21242 9.95583 4.06443 9.94025C3.84288 9.91774 3.62132 9.89264 3.4006 9.86493C3.23317 9.84416 3.16213 9.70133 3.2467 9.55157C3.35579 9.35766 3.46995 9.16722 3.58326 8.97591C3.66614 8.83481 3.76 8.79239 3.86402 8.84606C3.97564 8.9032 3.99847 9.00707 3.92406 9.1802C4.14223 9.072 4.34519 8.97158 4.5473 8.86944C5.04622 8.61753 5.54431 8.36476 6.04324 8.11286C6.17854 8.04447 6.28763 8.06784 6.34175 8.17518C6.4001 8.29118 6.35443 8.39592 6.21236 8.46864C5.54431 8.80711 4.8754 9.14471 4.2065 9.48232C4.17944 9.4953 4.15153 9.51088 4.10249 9.53685Z" fill="#283942"/>
<path d="M3.95766 7.31988C3.95935 7.36663 3.99148 7.37702 4.0084 7.39866C4.06844 7.47916 4.07436 7.564 4.01516 7.64364C3.95512 7.72501 3.86548 7.75098 3.78346 7.70077C3.55682 7.56227 3.33357 7.4177 3.11709 7.26275C3.01139 7.18657 3.0283 7.02816 3.14584 6.95112C3.35302 6.81434 3.56613 6.68709 3.77838 6.55811C3.86717 6.50357 3.95428 6.50704 4.01685 6.60053C4.08028 6.69402 4.06506 6.78405 3.9881 6.86369C3.97373 6.8784 3.95681 6.88966 3.93652 6.9061C3.97288 6.93553 4.01009 6.92255 4.04391 6.92255C4.61811 6.92342 5.1923 6.92342 5.76733 6.92342C5.92885 6.92342 6.01426 6.99267 6.01342 7.12252C6.01172 7.25236 5.92885 7.31988 5.76395 7.31988C5.20583 7.32075 4.64855 7.31988 4.09042 7.31988C4.04561 7.31988 4.00248 7.31988 3.95766 7.31988Z" fill="#283942"/>
<path d="M11.0836 6.92266C11.0498 6.86812 10.9991 6.87245 10.9762 6.83263C10.9297 6.75126 10.9221 6.66989 10.9788 6.59544C11.0346 6.52273 11.1191 6.51753 11.1927 6.55129C11.4379 6.66383 11.6603 6.81878 11.8785 6.97633C11.9775 7.04818 11.9639 7.20832 11.8574 7.2819C11.6527 7.423 11.443 7.55718 11.2325 7.69049C11.1454 7.74589 11.054 7.73637 10.9872 7.65327C10.917 7.56757 10.9238 7.47408 10.994 7.38838C11.0092 7.3702 11.0303 7.35808 11.0794 7.31913C10.9991 7.31913 10.9568 7.31913 10.9145 7.31913C10.3572 7.31913 9.79994 7.31913 9.24266 7.31913C9.21813 7.31913 9.19277 7.31913 9.16824 7.31653C9.04562 7.30095 8.97882 7.22391 8.98474 7.10618C8.99066 6.9971 9.06338 6.92352 9.18177 6.92352C9.79655 6.92439 10.4113 6.92785 11.0261 6.93045C11.0413 6.93045 11.0557 6.92612 11.0836 6.92266Z" fill="#283942"/>
<path d="M6.23438 6.43656C6.27666 6.27728 6.27919 6.11194 6.31133 5.9518C6.36122 5.70249 6.5016 5.52503 6.73922 5.43673C6.81449 5.40903 6.87706 5.36315 6.93964 5.31468C7.29396 5.0368 7.85293 5.04719 8.16836 5.33286C8.2673 5.42288 8.33833 5.53023 8.36708 5.66094C8.39753 5.80031 8.46518 5.90592 8.58103 5.98729C8.71549 6.08164 8.76369 6.22275 8.7527 6.38895C8.73325 6.34913 8.71464 6.30845 8.69266 6.26863C8.57173 6.04788 8.35863 5.94228 8.11086 5.97604C7.96371 5.99681 7.81911 6.0323 7.67873 6.08078C7.56119 6.12146 7.44618 6.11887 7.32695 6.08164C7.19672 6.04096 7.0648 6.00633 6.93118 5.98209C6.6276 5.92842 6.41365 6.04875 6.28004 6.33615C6.26566 6.37077 6.2496 6.40367 6.23438 6.43656Z" fill="#283942"/>
<path d="M9.80281 5.21004C9.60916 5.39442 9.43242 5.56409 9.25399 5.73289C9.12968 5.85062 9.01636 5.86187 8.9318 5.76665C8.84893 5.67316 8.87176 5.55803 8.99607 5.43944C9.18211 5.26111 9.36731 5.08279 9.55504 4.90273C9.54489 4.89494 9.53982 4.88628 9.53474 4.88715C9.36984 4.89494 9.2819 4.83781 9.26752 4.71315C9.25399 4.59456 9.33855 4.51405 9.49753 4.48635C9.70472 4.45086 9.91105 4.41191 10.1191 4.37642C10.3085 4.34439 10.4091 4.45952 10.3609 4.65169C10.3043 4.8759 10.2451 5.1001 10.1867 5.3243C10.1588 5.43251 10.0929 5.48272 9.98124 5.48531C9.86962 5.48878 9.80366 5.41433 9.80281 5.21004Z" fill="#283942"/>
<path d="M5.46884 4.8908C5.54495 5.02238 5.67264 5.10202 5.77496 5.20763C5.82993 5.26476 5.89082 5.31583 5.94578 5.37296C6.03035 5.4604 6.03711 5.57466 5.96523 5.65603C5.89082 5.74 5.78342 5.74693 5.68871 5.66555C5.60668 5.59544 5.53057 5.51753 5.45108 5.44308C5.37328 5.3695 5.29464 5.29506 5.19908 5.20416C5.19993 5.289 5.20585 5.35479 5.16441 5.41019C5.11959 5.46992 5.05617 5.48031 4.99021 5.49242C4.93355 5.50368 4.90057 5.4829 4.87266 5.43356C4.84983 5.39374 4.827 5.35479 4.81601 5.30891C4.75935 5.08384 4.69846 4.8605 4.64265 4.63543C4.59952 4.4597 4.70184 4.3463 4.87858 4.37573C5.08238 4.40949 5.28449 4.44758 5.48829 4.48394C5.66503 4.5151 5.74621 4.58609 5.7386 4.70555C5.73014 4.82934 5.64389 4.88907 5.46715 4.89339C5.4663 4.88993 5.4663 4.8856 5.46461 4.88301C5.46377 4.88214 5.45954 4.88387 5.45616 4.88387C5.46038 4.88647 5.46461 4.8882 5.46884 4.8908Z" fill="#283942"/>
<path d="M11.0469 9.15851C11.0536 9.14812 11.0596 9.14726 11.0646 9.15851C11.0663 9.16111 11.0638 9.1663 11.0629 9.17063C11.0579 9.16543 11.0536 9.16024 11.0486 9.15591C11.0494 9.15505 11.0469 9.15851 11.0469 9.15851Z" fill="#283942"/>
<path d="M5.47447 4.89096C5.47024 4.88837 5.46601 4.88663 5.46094 4.88404C5.46347 4.88317 5.46855 4.88231 5.46939 4.88317C5.47109 4.88663 5.47108 4.8901 5.47193 4.89356C5.47278 4.89356 5.47447 4.89096 5.47447 4.89096Z" fill="#283942"/>
</svg>
