<svg width="15" height="15" viewBox="0 0 15 15" fill="none" xmlns="http://www.w3.org/2000/svg">
<g clip-path="url(#clip0_3240_1079)">
<path d="M9.9328 0C10.192 0 10.4498 0 10.7089 0C10.9338 0.0672769 11.1573 0.134554 11.3822 0.201831C11.7799 0.398169 12.1199 0.670023 12.4106 1.00366C12.4051 1.02151 12.412 1.03249 12.4298 1.03661C12.641 1.35515 12.7987 1.6984 12.8906 2.06911C12.9413 2.41373 12.9536 2.75973 12.8947 3.10572C12.8234 3.45034 12.6808 3.76751 12.5121 4.07368C12.4778 4.12311 12.4435 4.17117 12.4093 4.22059C12.1583 4.53776 11.9088 4.85492 11.6578 5.17346C11.5495 5.3135 11.4398 5.45355 11.3315 5.59222C11.1573 5.78444 10.9914 5.9849 10.8529 6.20458C10.6842 6.40366 10.5142 6.60275 10.3455 6.8032C10.1769 6.60412 10.0096 6.40366 9.84093 6.20458C9.68186 5.96842 9.50771 5.74325 9.31437 5.53318C9.21838 5.40961 9.12377 5.28741 9.02778 5.16384C8.77959 4.8508 8.53276 4.53913 8.28457 4.22609C8.264 4.19725 8.2448 4.16842 8.22423 4.14096C8.02815 3.81556 7.86771 3.47368 7.79504 3.09748C7.73744 2.75561 7.75253 2.41373 7.80052 2.07323C7.89102 1.70526 8.0446 1.36476 8.2544 1.04897C8.264 1.03387 8.2736 1.01739 8.28457 1.00229C8.5931 0.665904 8.92357 0.359725 9.36236 0.201831C9.55159 0.130435 9.7422 0.0659039 9.9328 0ZM10.3455 4.38673C10.6225 4.39497 10.8872 4.35103 11.1244 4.19725C11.2273 4.17391 11.3164 4.12723 11.3849 4.04485C11.7346 3.82243 11.9622 3.51076 12.0596 3.10572C12.194 2.75973 12.1953 2.41236 12.061 2.06499C11.9622 1.66133 11.736 1.34828 11.3863 1.12311C11.3164 1.04348 11.2273 0.996796 11.1258 0.972082C10.8858 0.825172 10.6239 0.770252 10.3455 0.783982C10.0658 0.76476 9.80527 0.829291 9.56257 0.967963C9.46109 0.992677 9.37608 1.04348 9.30614 1.12174C8.95785 1.34828 8.72748 1.65995 8.62875 2.06499C8.49848 2.41236 8.49163 2.75835 8.63012 3.10572C8.72748 3.51213 8.95785 3.82243 9.30614 4.0476C9.37745 4.12449 9.45972 4.18078 9.56394 4.2C9.80939 4.32906 10.0603 4.42792 10.3455 4.38673Z" fill="#283942"/>
<path d="M14.998 9.31073C14.998 9.46588 14.998 9.62103 14.998 9.77618C14.9116 10.1414 14.6744 10.4215 14.4728 10.7235C14.3083 10.9419 14.1437 11.1602 13.9778 11.3798C13.7035 11.6956 13.7035 11.6956 13.4526 11.4155C13.4553 11.3991 13.4485 11.3867 13.432 11.3826C13.2209 11.0943 13.0193 10.7977 12.7944 10.5203C12.5064 10.1647 12.3611 9.77343 12.4187 9.31348C12.4379 9.2462 12.4571 9.17892 12.4776 9.11027C12.6408 8.7629 12.8931 8.50615 13.2442 8.34689C13.3114 8.32629 13.3786 8.3057 13.4457 8.28647C13.6158 8.28785 13.7844 8.26588 13.9558 8.30295C14.5139 8.42377 14.8225 8.7986 14.998 9.31073ZM13.7077 10.0851C13.9805 10.0837 14.2178 9.85032 14.2219 9.57572C14.2274 9.28876 13.9888 9.04986 13.6994 9.05123C13.4156 9.05261 13.1797 9.29837 13.1866 9.58533C13.1948 9.85856 13.4307 10.0865 13.7077 10.0851Z" fill="#283942"/>
<path d="M3.10192 15.0001C2.94697 15.0001 2.79202 15.0001 2.63707 15.0001C2.43961 14.9356 2.24489 14.8642 2.06663 14.7529C1.9775 14.6637 1.887 14.5731 1.79787 14.4838C1.58944 14.1694 1.51676 13.8234 1.5579 13.4513C1.85546 12.6523 2.25998 12.3818 3.09917 12.423C3.15402 12.4793 3.23081 12.4669 3.298 12.4848C3.65041 12.6426 3.90684 12.8967 4.06179 13.2523C4.08235 13.3182 4.06864 13.3964 4.12486 13.4513C4.15229 13.6765 4.12486 13.8989 4.08373 14.1214C3.89998 14.5731 3.55031 14.8408 3.10192 15.0001ZM2.44646 13.3978C2.28329 13.6504 2.28877 13.8577 2.46155 14.0513C2.63021 14.2394 2.85235 14.2669 3.1074 14.1296C3.3076 13.9799 3.37068 13.6971 3.25824 13.4472C3.2075 13.3909 3.15814 13.3346 3.1074 13.2797C2.8263 13.1328 2.65901 13.1616 2.44646 13.3978Z" fill="#283942"/>
<path d="M9.31324 15.0001C9.15829 15.0001 9.00334 15.0001 8.84839 15.0001C8.65093 14.9356 8.45485 14.8656 8.27796 14.753C8.18883 14.6637 8.09832 14.5731 8.00919 14.4839C7.80214 14.1695 7.72672 13.8235 7.76923 13.4514C8.07227 12.6495 8.47267 12.3818 9.31187 12.423C9.36809 12.4779 9.44351 12.4683 9.51207 12.4848C9.88094 12.6495 10.1415 12.9214 10.2951 13.2949C10.2951 13.3511 10.2896 13.4088 10.3389 13.4514C10.365 13.6765 10.3389 13.899 10.2978 14.1214C10.1113 14.5731 9.76027 14.8408 9.31324 15.0001ZM9.25976 13.2495C9.24331 13.2454 9.22685 13.2399 9.2104 13.2358C9.00883 13.1342 8.84291 13.2056 8.69344 13.3457C8.48913 13.6148 8.48638 13.8605 8.68521 14.0651C8.88267 14.2683 9.13361 14.2724 9.38592 14.0775C9.59846 13.8935 9.63411 13.6834 9.48053 13.4445C9.45448 13.3608 9.39963 13.3072 9.31598 13.2798C9.30913 13.2482 9.28993 13.2399 9.25976 13.2495Z" fill="#283942"/>
<path d="M0 13.4482C0.344181 13.4482 0.689734 13.4496 1.03392 13.4496H1.03254C1.03254 13.6212 1.03254 13.7929 1.03392 13.9645C0.689734 13.9645 0.344181 13.9659 0 13.9659C0 13.7929 0 13.6199 0 13.4482Z" fill="#283942"/>
<path d="M7.25451 12.4146C7.2504 12.5849 7.24628 12.7551 7.24217 12.9254C6.89799 12.9309 6.55381 12.935 6.20962 12.9405C5.86544 12.9405 5.52126 12.9405 5.17708 12.9405C5.13457 12.9377 5.09206 12.9268 5.05093 12.9323C4.69577 12.9831 4.38999 12.9254 4.22544 12.5561C4.18019 12.508 4.13631 12.4613 4.09106 12.4133C4.04169 12.335 3.97587 12.2746 3.88537 12.2458C3.87303 12.2361 3.85932 12.2265 3.84698 12.2169C3.63306 12.0384 3.37938 11.9574 3.10788 11.9231C2.69788 11.8572 2.31119 11.9149 1.96152 12.151C1.83948 12.1895 1.74075 12.2609 1.66259 12.3625C1.49667 12.4654 1.38697 12.6206 1.29921 12.7853C1.23751 12.9007 1.15797 12.9419 1.03868 12.9405C0.872756 12.9295 0.658842 12.9789 0.554628 12.8938C0.442186 12.8018 0.543658 12.5767 0.510748 12.4133C0.510748 12.0686 0.510748 11.724 0.510748 11.3808C0.510748 11.0361 0.510748 10.6902 0.510748 10.3455C0.510748 10.0009 0.510748 9.65628 0.510748 9.31304C0.510748 8.96841 0.510748 8.62242 0.509377 8.2778C0.518976 8.11166 0.46824 7.88649 0.555999 7.79725C0.643759 7.70937 0.870013 7.7588 1.03593 7.74919C1.38149 7.74919 1.72704 7.74919 2.07259 7.74919C2.23851 7.7588 2.46477 7.708 2.55253 7.79587C2.64028 7.88374 2.58818 8.11029 2.59778 8.27642C2.59778 8.75011 2.59778 9.22379 2.59778 9.73317C2.83774 9.60274 3.05029 9.48741 3.2642 9.3707C3.37938 9.31853 3.49594 9.2691 3.60838 9.21418C3.75922 9.14004 3.90594 9.04393 4.07734 9.16201C4.20624 9.25537 4.34611 9.32402 4.49832 9.37207C4.70537 9.50663 4.92889 9.60548 5.16611 9.70846C5.16611 9.56429 5.16611 9.43798 5.16611 9.31166C5.16611 8.96704 5.16611 8.62104 5.16611 8.27642C5.1428 8.1048 5.06464 7.93317 5.17845 7.76567C5.52263 7.76018 5.86681 7.75468 6.211 7.74919C6.55518 7.75468 6.89936 7.76017 7.24354 7.76429C7.24765 7.93592 7.25177 8.10617 7.25588 8.2778C7.25588 8.62242 7.25588 8.96704 7.25588 9.31029C7.25588 9.65628 7.25588 10.0009 7.25588 10.3469C7.25588 10.6915 7.25588 11.0361 7.25588 11.3794C7.25451 11.724 7.25451 12.0686 7.25451 12.4146Z" fill="#283942"/>
<path d="M1.55131 7.24087C1.04532 7.24499 1.04395 7.24499 1.08783 6.74522C1.13582 6.20426 1.29626 5.68939 1.45395 5.17314C1.61164 4.85186 1.76796 4.53058 1.92565 4.20792C1.95719 4.1681 1.98873 4.12966 2.0189 4.08984C2.05455 4.1228 2.09157 4.15437 2.12723 4.18733C2.35897 4.41387 2.34251 4.64591 2.15877 4.89579C2.0998 4.97543 2.07649 5.07978 2.03673 5.17314C2.02576 5.20472 2.01479 5.23767 2.00382 5.26925C1.85846 5.56719 1.76248 5.87886 1.71311 6.20563C1.5993 6.54202 1.60067 6.89488 1.55131 7.24087Z" fill="#283942"/>
<path d="M7.64238 1.04107C7.59164 1.15503 7.52857 1.26625 7.49291 1.38432C7.45315 1.51888 7.37225 1.57242 7.24061 1.56693C6.88957 1.56968 6.54402 1.60675 6.20669 1.70835C5.87896 1.75778 5.56632 1.85389 5.27013 2.00217C5.23859 2.01316 5.20568 2.02414 5.17415 2.03512C5.10833 2.04885 5.04799 2.09416 4.97669 2.06396C4.94926 1.90881 4.74632 1.79348 4.77649 1.67677C4.81351 1.53261 5.05073 1.5532 5.17415 1.45023C5.84605 1.22506 6.53579 1.08501 7.24335 1.02734C7.37636 1.03284 7.50937 1.03695 7.64238 1.04107Z" fill="#283942"/>
<path d="M13.4474 7.76267C13.4432 7.58967 13.4391 7.4153 13.435 7.2423C13.4282 6.89082 13.3939 6.54345 13.2897 6.20706C13.2403 5.84459 13.1141 5.50546 12.9661 5.17457C12.9523 5.13475 12.9469 5.0867 12.9222 5.05512C12.6685 4.73796 12.7576 4.46748 13.0511 4.21484C13.2033 4.38784 13.2595 4.62537 13.398 4.8121C13.4309 4.93979 13.4748 5.06473 13.5488 5.17594C13.6503 5.52056 13.7504 5.86656 13.8519 6.21118C13.893 6.55443 13.9328 6.89905 13.9739 7.2423C13.9725 7.25054 13.9698 7.25878 13.9698 7.26839C13.9492 7.75855 13.9492 7.75855 13.4474 7.76267Z" fill="#283942"/>
<path d="M11.988 11.3775C12.1293 11.2073 12.2705 11.0384 12.4117 10.8682C12.494 10.9725 12.5722 11.081 12.6585 11.1812C12.7134 11.2457 12.7353 11.3048 12.6805 11.3775C12.59 11.4929 12.4981 11.6082 12.4076 11.7235C12.2019 11.9322 11.9962 12.1409 11.7906 12.3496C11.7563 12.3537 11.7234 12.3592 11.6891 12.3634C11.5273 11.9858 11.6109 11.6769 11.9482 11.4393C11.9661 11.427 11.9743 11.3995 11.988 11.3775Z" fill="#283942"/>
<path d="M7.24465 13.9634C6.90046 13.9661 6.55628 13.9702 6.21073 13.973C5.86518 13.973 5.51963 13.973 5.17544 13.973C5.15899 13.9702 5.14253 13.9647 5.12608 13.9647C4.64889 13.9496 4.64889 13.9496 4.65849 13.4471C4.83126 13.4444 5.00404 13.4416 5.17682 13.4375C5.521 13.4375 5.86518 13.4375 6.20936 13.4375C6.55354 13.4416 6.89909 13.4444 7.24327 13.4485C7.24327 13.6201 7.24327 13.7917 7.24465 13.9634Z" fill="#283942"/>
<path d="M10.343 9.3449L10.3416 9.34353C10.4376 9.42453 10.45 9.54536 10.4911 9.65245C10.5473 9.79936 10.4788 9.8433 10.3458 9.83781C10.0002 9.83781 9.65465 9.83781 9.31047 9.83918C8.98275 9.86801 8.83602 10.0136 8.80448 10.3458C8.80174 10.5078 8.79351 10.6698 8.79626 10.8305C8.80174 11.16 8.96492 11.3261 9.31184 11.3701C9.65602 11.3701 10.0002 11.3701 10.3444 11.3687C10.5336 11.3728 10.7228 11.3769 10.9135 11.3811C11.004 11.7257 11.0945 12.0703 11.185 12.4149C11.1877 12.4396 11.1891 12.4657 11.1946 12.4904C11.2234 12.6305 11.344 12.8323 11.2645 12.8968C11.137 13.0012 10.9244 12.9243 10.7475 12.9325C10.6543 12.9367 10.6529 12.8488 10.6132 12.7994C10.5487 12.7211 10.4911 12.6387 10.4294 12.5577C10.3951 12.5 10.3595 12.4438 10.295 12.4149C10.0304 12.1293 9.70265 11.9742 9.3187 11.9303C8.94984 11.8561 8.60017 11.9042 8.27244 12.0923C8.0887 12.1568 7.93512 12.2653 7.80896 12.4136L7.78702 12.4149L7.76508 12.4136C7.7596 12.0689 7.75548 11.7243 7.75 11.3811C7.75 11.0364 7.75 10.6918 7.75 10.3486C7.75548 10.0039 7.7596 9.65932 7.76508 9.31607C7.93512 9.31195 8.10652 9.30783 8.27656 9.30371C8.62211 9.30371 8.96766 9.30371 9.31321 9.30371C9.65328 9.33941 10.0016 9.26252 10.343 9.3449Z" fill="#283942"/>
<path d="M11.3748 13.4528C11.3762 13.6216 11.3762 13.7891 11.3776 13.958C10.851 13.9772 10.851 13.9772 10.862 13.4473C11.0334 13.45 11.2048 13.4514 11.3748 13.4528Z" fill="#283942"/>
<path d="M4.13864 8.64576C3.98506 8.51258 3.83559 8.50709 3.65185 8.61143C3.47907 8.71166 3.30629 8.82699 3.10061 8.86132C3.09786 8.66498 3.09649 8.47001 3.09375 8.27368C3.09786 8.10342 3.10198 7.93317 3.10609 7.76292C3.45027 7.75743 3.79445 7.75194 4.13864 7.74644C4.30456 7.78489 4.52944 7.67368 4.62817 7.79862C4.71044 7.90159 4.65696 8.11166 4.66382 8.27368C4.66108 8.40136 4.64599 8.53043 4.65696 8.65674C4.6789 8.88191 4.59114 8.87505 4.43482 8.78443C4.34295 8.72951 4.23874 8.69244 4.13864 8.64576Z" fill="#283942"/>
<path d="M4.41049 2.06817C4.61755 2.38259 4.6916 2.72859 4.64772 3.0993C4.60658 3.20227 4.57915 3.31211 4.52293 3.40547C4.20481 3.9382 3.79206 4.40502 3.4328 4.90753C3.3848 4.97344 3.34641 4.9803 3.29704 4.90891C3.25865 4.85399 3.20929 4.80456 3.16541 4.75376C3.02828 4.53408 2.87333 4.32676 2.69918 4.13454C2.52229 3.83248 2.26176 3.58534 2.12601 3.25582C2.12738 3.19952 2.13149 3.14186 2.08213 3.0993C2.04099 2.26314 2.31249 1.85536 3.11056 1.55742C3.46022 1.51623 3.78795 1.58625 4.09511 1.75513C4.19795 1.86085 4.30354 1.9652 4.41049 2.06817ZM3.78795 3.10891C3.9525 2.88236 3.90176 2.66543 3.7235 2.48557C3.54387 2.30433 3.32584 2.26039 3.09821 2.41554C2.82808 2.61875 2.78283 2.81371 2.93778 3.10753C2.96383 3.18991 3.01868 3.24621 3.10233 3.27092C3.404 3.42607 3.58638 3.38213 3.78795 3.10891Z" fill="#283942"/>
<path d="M8.27385 6.71779C7.74593 6.73701 7.74593 6.73701 7.76238 6.20703C7.93241 6.2084 8.10245 6.20978 8.27111 6.20978C8.27248 6.38003 8.27385 6.54891 8.27385 6.71779Z" fill="#283942"/>
<path d="M10.6508 10.3459C10.6563 10.3624 10.6618 10.3775 10.6673 10.394C10.803 10.8443 10.803 10.8443 10.3437 10.8691C9.99949 10.8649 9.65531 10.8594 9.3125 10.8553C9.3125 10.6864 9.31387 10.5176 9.31387 10.3487C9.65805 10.3446 10.0009 10.3391 10.345 10.335C10.4465 10.3391 10.5494 10.3432 10.6508 10.3459Z" fill="#283942"/>
<path d="M7.24124 6.71837C6.71468 6.73896 6.71468 6.73896 6.73113 6.20898C6.90117 6.20898 7.0712 6.20898 7.24124 6.20898C7.24124 6.37924 7.24124 6.54949 7.24124 6.71837Z" fill="#283942"/>
<path d="M5.69207 6.20898C5.86073 6.21036 6.03077 6.21173 6.19943 6.21173C6.2008 6.38061 6.2008 6.54949 6.20217 6.71699C5.67562 6.74033 5.67562 6.74033 5.69207 6.20898Z" fill="#283942"/>
</g>
<defs>
<clipPath id="clip0_3240_1079">
<rect width="15" height="15" fill="white"/>
</clipPath>
</defs>
</svg>
