<svg width="313" height="174" viewBox="0 0 313 174" fill="none" xmlns="http://www.w3.org/2000/svg">
<rect width="312.212" height="174" rx="12" fill="white"/>
<path d="M166.035 78.7904C166.338 78.8347 166.602 78.8667 166.932 78.913C166.918 79.2255 166.911 79.4779 166.896 79.7345C166.769 82.6751 166.656 85.6134 166.846 88.5548C166.948 90.193 167.2 91.812 167.821 93.3385C168.107 94.0387 168.528 94.6867 168.913 95.3369C169.178 95.789 169.573 95.9053 170.092 95.7729C171.012 95.5313 171.844 95.1163 172.62 94.5794C174.159 93.5222 175.447 92.2033 176.701 90.839C177.033 90.4797 177.063 90.1589 176.883 89.6796C176.243 87.9194 176.202 86.0947 176.543 84.2644C177.081 81.3698 178.269 78.7437 179.995 76.3637C180.576 75.5628 181.291 74.8958 182.141 74.3834C182.87 73.9481 183.64 73.9533 184.422 74.1488C184.886 74.267 185.342 74.4307 185.782 74.6234C187.263 75.2692 187.568 76.017 187.535 77.5006C187.523 78.1648 187.383 78.8419 187.204 79.4923C186.653 81.522 185.81 83.4351 184.789 85.2619C184.167 86.3795 183.507 87.4849 182.798 88.5533C182.082 89.6196 181.289 90.6262 180.468 91.7405C180.718 92.0292 180.986 92.3654 181.277 92.6745C181.532 92.9446 181.872 92.8977 182.2 92.8612C183.236 92.7474 184.164 92.3154 185.062 91.8257C187.238 90.6335 188.942 88.9074 190.521 87.037C190.771 86.7401 191.026 86.4453 191.283 86.1443C191.112 85.7229 190.955 85.3201 190.798 84.9173C190.349 83.7708 190.299 82.5834 190.472 81.3868C190.808 79.0041 191.78 76.8857 193.221 74.9765C193.707 74.3374 194.24 73.7414 194.942 73.3042C195.427 73.0022 195.931 72.8512 196.49 72.8904C197.587 72.9688 198.575 73.3559 199.455 73.9896C200.189 74.5205 200.296 75.327 200.235 76.161C200.157 77.2579 199.84 78.304 199.426 79.3111C198.933 80.5193 198.4 81.7214 197.765 82.8557C197.038 84.1662 196.184 85.4006 195.37 86.6618C195.01 87.2115 195.189 87.6908 195.858 87.7109C196.398 87.7232 196.946 87.6693 197.471 87.5596C198.817 87.2791 200.098 86.7775 201.307 86.1354C202.722 85.3746 204.15 84.6116 205.473 83.7105C206.905 82.7283 208.245 81.6057 209.582 80.4955C210.349 79.8593 211.043 79.1304 211.75 78.4262C211.913 78.2662 212.036 78.0381 212.089 77.8145C212.451 76.3565 212.756 74.8863 213.151 73.4323C213.779 71.1456 214.41 68.8528 215.137 66.5988C215.873 64.32 216.683 62.0658 217.537 59.8258C218.16 58.2054 218.882 56.6177 219.602 55.0362C220.336 53.4319 221.099 51.844 221.9 50.2684C222.824 48.444 223.857 46.6833 225.142 45.081C225.797 44.2632 226.619 43.8999 227.666 44.024C228.606 44.1403 229.503 44.4077 230.367 44.7746C231.001 45.0452 231.404 45.5153 231.589 46.2098C231.864 47.2369 231.887 48.2775 231.813 49.3206C231.63 51.6779 231.111 53.9662 230.313 56.1832C229.734 57.7972 229.068 59.3826 228.41 60.9639C227.57 62.9948 226.587 64.958 225.502 66.8741C224.925 67.8964 224.335 68.9146 223.689 69.8937C222.583 71.5823 221.48 73.2791 220.274 74.8936C219.066 76.5143 217.817 78.1144 216.324 79.49C215.733 80.0324 215.514 80.6974 215.389 81.4344C215.035 83.5566 214.673 85.6828 214.332 87.809C213.737 91.5252 213.292 95.2635 213.009 99.0137C212.987 99.2682 212.939 99.5208 212.89 99.8562C213.091 99.7706 213.229 99.7266 213.355 99.6578C215.287 98.5163 217.215 97.3665 219.147 96.225C219.335 96.1146 219.512 95.9112 219.852 96.0091C219.72 96.1793 219.634 96.3162 219.52 96.4305C217.484 98.4951 215.365 100.477 213.117 102.307C212.825 102.548 212.687 102.799 212.676 103.188C212.623 105.843 212.521 108.496 212.482 111.148C212.432 114.148 212.575 117.15 212.804 120.139C212.876 121.092 212.997 122.041 213.092 122.989C213.105 123.137 213.096 123.293 213.109 123.442C213.145 123.75 212.97 123.885 212.711 123.938C212.519 123.978 212.32 124.016 212.13 123.988C211.482 123.905 210.832 123.829 210.196 123.689C209.586 123.557 209.104 123.22 208.678 122.735C207.161 121.024 205.654 119.302 204.065 117.664C202.496 116.046 200.619 114.802 198.698 113.626C198.429 113.461 198.249 113.485 197.993 113.656C196.904 114.413 195.797 115.137 194.708 115.895C192.977 117.096 191.269 118.331 189.523 119.514C187.689 120.756 185.815 121.951 183.966 123.175C183.13 123.727 182.309 124.297 181.461 124.824C180.483 125.432 179.486 126.013 178.48 126.578C177.002 127.407 175.528 128.244 174.029 129.033C172.646 129.762 171.244 130.465 169.821 131.106C168.373 131.759 166.909 132.38 165.421 132.923C163.895 133.482 162.337 133.989 160.764 134.415C159.189 134.848 157.599 135.22 155.993 135.498C153.779 135.885 151.542 136.004 149.291 135.814C147.3 135.648 145.368 135.24 143.489 134.587C141.844 134.019 140.348 133.183 139.077 131.979C137.468 130.465 136.896 128.583 137.162 126.411C137.423 124.3 138.367 122.475 139.54 120.753C141.356 118.079 143.656 115.881 146.226 113.93C147.759 112.767 149.36 111.731 151.064 110.845C154.324 109.141 157.768 107.926 161.361 107.137C164.709 106.4 168.097 105.964 171.527 105.88C175.728 105.775 179.884 106.184 183.993 107.053C187.567 107.809 191.022 108.945 194.335 110.496C195.338 110.964 195.352 110.941 196.271 110.327C197.428 109.551 198.598 108.799 199.773 108.056C201.667 106.861 203.578 105.678 205.477 104.491C206.398 103.912 207.31 103.317 208.249 102.765C208.548 102.588 208.686 102.378 208.705 102.047C208.762 101.246 208.807 100.441 208.896 99.6445C209.18 96.962 209.454 94.2837 209.777 91.6072C209.993 89.8187 210.272 88.03 210.527 86.2476C210.598 85.7611 210.674 85.2767 210.773 84.6411C210.111 85.1051 209.568 85.4777 209.03 85.8584C207.159 87.1921 205.146 88.2656 202.951 88.9489C200.172 89.8186 197.418 89.815 194.73 88.5657C194.593 88.5001 194.454 88.4406 194.307 88.3854C194.247 88.3587 194.18 88.3507 194.085 88.3262C193.725 88.7104 193.354 89.105 192.989 89.5017C191.772 90.8162 190.425 91.9781 188.887 92.9049C187.408 93.8025 185.835 94.3943 184.079 94.333C182.703 94.2868 181.43 93.8408 180.197 93.2768C179.94 93.1578 179.698 93.016 179.416 92.8682C178.812 93.4064 178.22 93.9488 177.62 94.4746C176.548 95.4099 175.353 96.1533 174.027 96.709C171.55 97.7471 168.466 96.8015 166.95 95.0633C166.296 94.3108 165.936 93.3936 165.68 92.4346C165.226 90.715 165.089 88.9549 165.127 87.1837C165.146 86.1843 165.192 85.1869 165.153 84.1753C164.919 85.2004 164.71 86.2336 164.439 87.2464C164.045 88.7149 163.606 90.1753 163.186 91.6418C162.778 93.071 162.218 94.4367 161.591 95.7799C160.655 97.7864 159.545 99.6736 158.087 101.343C156.907 102.69 155.544 103.798 153.789 104.296C153.128 104.485 152.419 104.568 151.732 104.583C149.711 104.635 147.852 104.024 146.158 102.977C144.503 101.958 143.561 100.381 142.993 98.5685C142.404 96.6942 142.486 94.8132 142.915 92.9019C143.342 91.0174 144.148 89.3197 145.174 87.7287C146.153 86.2186 147.252 84.7825 148.488 83.4534C150.206 81.601 152.024 79.8641 153.932 78.2117C155.012 77.2722 156.117 76.3616 157.233 75.4613C158.817 74.1846 160.424 72.9224 162.028 71.6663C162.474 71.317 162.934 70.9862 163.413 70.6822C163.648 70.5323 163.715 70.3479 163.737 70.0933C164.058 66.0803 164.266 62.0574 164.295 58.031C164.313 56.1151 164.286 54.2055 163.937 52.3138C163.876 51.9561 163.771 51.6048 163.67 51.179C163.29 51.3295 162.99 51.4445 162.695 51.5677C161.328 52.1442 160.058 52.9044 158.801 53.6894C156.636 55.0367 154.586 56.5387 152.598 58.1438C150.907 59.5161 149.187 60.8512 147.566 62.3018C145.504 64.1514 143.646 66.1988 142.145 68.5428C141.154 70.0902 140.507 71.7645 140.413 73.6207C140.35 74.8396 140.64 75.9474 141.448 76.9021C141.766 77.2753 142.123 77.4063 142.592 77.3817C144.361 77.3022 145.827 76.5723 147.074 75.3569C148.273 74.1811 148.988 72.7217 149.461 71.135C149.527 70.9154 149.604 70.7 149.79 70.4923C149.815 70.6039 149.867 70.7175 149.859 70.8251C149.685 72.841 149.188 74.7506 147.852 76.3221C146.523 77.8895 144.827 78.5645 142.778 78.1796C141.519 77.9446 140.34 77.5086 139.391 76.6041C138.325 75.5925 137.822 74.3179 137.783 72.8657C137.728 70.6852 138.387 68.7046 139.528 66.8691C140.954 64.5834 142.722 62.5818 144.661 60.7265C146.875 58.6032 149.24 56.6469 151.662 54.771C153.567 53.2903 155.563 51.9148 157.681 50.7518C158.707 50.1871 159.768 49.6821 160.951 49.4788C162.396 49.231 163.695 49.5961 164.996 50.1827C166.514 50.8677 167.205 52.0939 167.417 53.651C167.698 55.7271 167.748 57.8166 167.673 59.9065C167.59 62.2965 167.423 64.6869 167.292 67.075C167.283 67.2923 167.281 67.5054 167.27 67.853C168.019 67.3142 168.686 66.8377 169.346 66.3592C170.21 65.7413 171.07 65.1151 171.931 64.4889C172.69 63.9397 173.437 63.3864 174.194 62.8433C175.339 62.0215 176.494 61.21 177.645 60.3903C178.368 59.8701 179.085 59.3418 179.803 58.8134C181.113 57.8461 182.444 56.8994 183.714 55.8847C185.094 54.7888 186.466 53.6765 187.752 52.4672C188.778 51.5031 189.801 50.5101 190.501 49.2597C190.705 48.8927 190.9 48.5298 190.712 48.0547C190.058 47.9911 189.429 48.1633 188.813 48.3395C186.542 48.9837 184.496 50.0946 182.64 51.5296C181.402 52.4863 180.235 53.542 179.04 54.5605C178.839 54.7289 178.662 54.9117 178.378 55.1694C178.391 54.9397 178.376 54.8177 178.403 54.7162C179.266 51.7148 181.13 49.5039 183.782 47.9106C184.872 47.2566 185.978 46.677 187.242 46.4175C188.399 46.1853 189.529 46.2056 190.662 46.5508C191.864 46.9184 192.971 47.4478 193.973 48.2114C194.942 48.9503 195.29 50.0703 194.635 51.2667C193.891 52.6269 192.913 53.8204 191.792 54.8842C190.716 55.894 189.638 56.9101 188.529 57.8745C187.63 58.6601 186.691 59.3984 185.742 60.1263C184.398 61.1578 183.048 62.1812 181.662 63.1508C179.846 64.4201 177.981 65.6317 176.14 66.8721C175.309 67.432 174.5 68.0063 173.664 68.5579C172.756 69.1615 171.832 69.7321 170.93 70.3377C169.613 71.2202 168.309 72.1275 166.989 73.0017C166.76 73.1537 166.752 73.3441 166.724 73.5552C166.574 74.7661 166.425 75.9709 166.275 77.1818C166.176 77.7346 166.104 78.2687 166.035 78.7904ZM194.461 111.433C194.148 111.275 193.905 111.133 193.644 111.027C192.309 110.498 190.979 109.937 189.624 109.47C185.238 107.959 180.71 107.255 176.085 107.097C172.944 106.994 169.821 107.151 166.705 107.621C163.826 108.059 161.036 108.794 158.311 109.792C155.749 110.733 153.319 111.945 151.051 113.478C149.531 114.5 148.106 115.65 146.772 116.899C145.191 118.376 143.813 120.031 142.677 121.875C141.64 123.559 140.851 125.331 140.681 127.334C140.527 129.143 141.005 130.747 142.212 132.101C143.193 133.202 144.374 133.928 145.922 134.058C148.006 134.234 150.045 134.065 152.088 133.697C153.802 133.386 155.492 132.957 157.139 132.389C158.492 131.919 159.846 131.448 161.17 130.898C162.51 130.34 163.82 129.71 165.129 129.08C166.364 128.488 167.592 127.893 168.796 127.249C170.536 126.313 172.248 125.32 173.971 124.351C174.878 123.836 175.798 123.34 176.688 122.792C178.591 121.614 180.469 120.406 182.367 119.219C184.32 117.995 186.295 116.806 188.237 115.571C190.163 114.345 192.067 113.077 193.974 111.824C194.11 111.724 194.256 111.593 194.461 111.433ZM163.088 75.92C162.914 75.9663 162.865 75.9706 162.836 75.9955C161.322 77.1643 159.779 78.296 158.304 79.5122C156.11 81.3251 153.972 83.1978 152.056 85.3158C150.256 87.3133 148.645 89.428 147.603 91.9439C146.731 94.0536 146.321 96.24 146.676 98.5124C146.933 100.181 147.617 101.66 148.878 102.853C149.246 103.201 149.61 103.328 150.054 103.15C150.8 102.851 151.573 102.596 152.26 102.181C153.969 101.152 155.219 99.6349 156.315 97.9981C157.821 95.7452 159.015 93.3281 159.833 90.7386C160.378 88.9964 160.957 87.2582 161.363 85.4773C161.91 83.102 162.323 80.6962 162.766 78.3006C162.908 77.5346 162.978 76.7584 163.088 75.92ZM208.467 106.06C207.341 106.909 206.324 107.676 205.296 108.433C204.285 109.182 203.256 109.904 202.241 110.645C201.218 111.39 200.199 112.143 199.12 112.931C199.414 113.124 199.615 113.246 199.813 113.379C201.362 114.426 202.926 115.45 204.449 116.537C205.526 117.304 206.545 118.163 207.596 118.97C207.932 119.225 208.284 119.451 208.759 119.787C208.321 115.152 208.326 110.676 208.467 106.06ZM218.05 70.6217C218.087 70.634 218.129 70.6545 218.166 70.6668C218.252 70.5506 218.345 70.4364 218.421 70.3099C219.406 68.7191 220.424 67.1529 221.363 65.5333C222.762 63.1215 223.971 60.6195 225.028 58.0332C226.124 55.3495 227.073 52.6312 227.451 49.7456C227.499 49.3481 227.52 48.9487 227.556 48.5472C227.378 48.6059 227.316 48.6889 227.252 48.7781C225.963 50.6474 224.963 52.681 223.984 54.7146C222.839 57.1067 221.79 59.544 220.916 62.053C220.139 64.2699 219.362 66.4868 218.603 68.7099C218.382 69.3397 218.231 69.9858 218.05 70.6217ZM179.258 87.4853C179.461 87.2011 179.597 87.0391 179.712 86.8566C181.059 84.7719 182.296 82.6235 183.251 80.3273C183.725 79.1813 184.132 78.0066 184.303 76.7748C184.335 76.5513 184.328 76.3216 184.341 76.0505C181.808 77.3455 178.753 83.848 179.258 87.4853ZM196.549 76.2916C196.499 76.2545 196.447 76.2237 196.397 76.1866C196.027 76.7674 195.616 77.3277 195.298 77.9393C194.965 78.5737 194.69 79.241 194.455 79.9144C193.946 81.3999 193.952 81.4433 194.093 81.8958C195.066 80.0671 195.996 78.2655 196.549 76.2916Z" fill="#0B2034"/>
<path d="M110.18 74.8894C110.989 74.9213 111.662 74.9083 112.322 74.974C115.203 75.2604 117.999 75.8493 120.57 77.2873C121.781 77.9611 122.93 78.6972 123.884 79.6927C125.014 80.8634 125.828 82.2402 126.457 83.7418C127.023 85.0989 127.296 86.5109 127.516 87.9542C127.844 90.0798 127.829 92.1964 127.554 94.3099C127.355 95.8148 127.026 97.2975 126.715 98.7864C126.206 101.236 125.357 103.588 124.435 105.909C123.632 107.931 122.787 109.933 121.75 111.851C121.011 113.219 120.197 114.522 119.213 115.714C118.764 116.262 118.222 116.758 117.646 117.168C116.738 117.813 115.692 117.999 114.59 117.789C114.033 117.681 113.485 117.549 112.93 117.414C110.821 116.914 109.517 115.541 108.725 113.573C107.818 111.304 107.405 108.937 107.192 106.526C107.147 105.994 107.11 105.458 106.952 104.911C106.638 105.593 106.318 106.272 106.005 106.954C104.889 109.363 103.781 111.767 102.653 114.172C102.203 115.14 101.777 116.122 101.247 117.043C100.645 118.099 99.9847 119.121 99.2644 120.097C98.752 120.796 98.0169 121.146 97.0873 120.999C96.1516 120.85 95.2589 120.611 94.4151 120.182C93.8076 119.872 93.5635 119.358 93.4452 118.733C93.1515 117.197 93.2405 115.649 93.3274 114.108C93.443 111.956 93.5855 109.805 93.788 107.661C94.0619 104.755 94.3938 101.861 94.7154 98.9573C94.9051 97.2497 95.1155 95.5419 95.3384 93.8383C95.6055 91.8117 95.914 89.7849 96.1604 87.7584C96.4229 85.6201 96.6606 83.4736 96.5671 81.3078C96.5193 80.2176 96.4591 79.1234 95.9792 78.1115C95.9417 78.0372 95.8959 77.967 95.823 77.8535C95.077 78.0903 94.4477 78.5169 93.8391 78.9642C91.6772 80.5535 89.8995 82.524 88.2755 84.6346C85.9002 87.731 83.948 91.0698 82.7298 94.7947C81.9837 97.0839 81.4364 99.4178 81.5724 101.852C81.6371 103.038 81.8506 104.189 82.4176 105.25C82.5114 105.426 82.6176 105.585 82.7217 105.75C83.1693 106.462 83.783 106.774 84.6536 106.661C85.8385 106.513 86.8857 106.052 87.8284 105.363C88.6 104.798 89.305 104.141 90.037 103.528C90.2824 103.326 90.5195 103.108 90.8287 102.838C90.913 103.21 90.771 103.411 90.6455 103.583C89.5609 105.017 88.2643 106.216 86.5474 106.829C84.4173 107.589 81.4418 107.003 80.3005 104.065C79.6232 102.334 79.5023 100.545 79.6378 98.7298C79.8164 96.3022 80.4071 93.9619 81.2173 91.6662C82.4959 88.0301 84.4485 84.774 86.8905 81.8098C88.1959 80.228 89.6799 78.8152 91.3946 77.6643C93.4891 76.2594 95.622 76.224 97.8055 77.438C98.3177 77.7236 98.6607 78.1463 98.9008 78.6937C99.3581 79.7325 99.499 80.8327 99.5407 81.9415C99.6394 84.3845 99.4194 86.8123 99.1456 89.2362C98.8876 91.4655 98.6503 93.6947 98.4129 95.9239C98.1756 98.1532 97.9176 100.382 97.7072 102.614C97.4968 104.866 97.3258 107.123 97.1693 109.379C97.0382 111.265 96.9588 113.16 96.8671 115.052C96.8518 115.37 96.8696 115.693 96.9683 116.042C97.0607 115.887 97.1719 115.737 97.2457 115.576C98.2855 113.273 99.3233 110.976 100.351 108.669C101.364 106.406 102.371 104.141 103.371 101.873C104.152 100.105 104.923 98.327 105.688 96.5467C106.696 94.213 107.701 91.8711 108.693 89.525C108.945 88.9261 109.118 88.2944 109.348 87.681C109.589 87.0304 109.852 86.3797 110.093 85.7291C110.226 85.3665 110.484 85.231 110.861 85.2585C111.809 85.3292 112.706 85.5759 113.539 86.0361C113.848 86.2066 113.988 86.4315 113.892 86.7857C113.678 87.5831 113.507 88.3948 113.252 89.1717C112.81 90.5141 112.3 91.8341 111.848 93.1663C111.396 94.4984 111.317 95.8912 111.178 97.2779C110.939 99.6375 110.861 102.009 110.914 104.382C110.969 106.645 111.152 108.895 111.64 111.115C111.948 112.505 112.344 113.854 113.028 115.105C113.13 115.297 113.253 115.468 113.426 115.739C113.724 115.417 114.005 115.151 114.246 114.858C115.143 113.783 115.859 112.592 116.441 111.324C117.075 109.941 117.771 108.579 118.301 107.156C119.165 104.843 119.94 102.488 120.713 100.139C121.359 98.1746 121.789 96.1536 122.085 94.102C122.399 91.9532 122.567 89.7904 122.386 87.6167C122.269 86.2558 122.117 84.897 121.722 83.5828C121.418 82.5598 121.011 81.5787 120.544 80.633C120.354 80.2468 120.075 79.9003 119.807 79.5642C118.998 78.5474 118.031 77.7195 116.872 77.1179C115.783 76.5533 114.594 76.527 113.423 76.5482C112.446 76.5645 111.466 76.6967 110.498 76.833C109.009 77.0458 107.563 77.4654 106.139 77.9407C105.342 78.2087 104.557 78.5635 103.677 78.4533C102.566 78.3149 101.491 78.044 100.506 77.4997C99.865 77.1443 99.8264 76.801 100.414 76.3745C101.174 75.8253 101.956 75.3111 102.736 74.8032C103.518 74.289 104.308 73.7914 105.094 73.2855C107.934 71.4783 110.793 69.698 113.747 68.0869C115.157 67.3178 116.615 66.6334 118.01 65.8458C119.53 64.9956 121.122 64.3002 122.727 63.6297C124.817 62.7607 126.994 62.2575 129.276 62.3126C129.816 62.3249 130.351 62.4386 130.893 62.5689C123.732 66.185 117.028 70.5297 110.18 74.8894Z" fill="#0B2034"/>
</svg>
