<svg width="25" height="25" viewBox="0 0 25 25" fill="none" xmlns="http://www.w3.org/2000/svg">
<g clip-path="url(#clip0_306_88)">
<path d="M5.53711 11.0456C5.33231 10.9216 5.12162 10.8452 4.89767 10.8034C4.59121 10.7472 4.28917 10.7559 3.9945 10.8553C3.90904 10.8841 3.89431 10.8611 3.90462 10.7861C3.9061 10.7717 3.90462 10.7573 3.90462 10.7429C3.90168 9.13583 3.89726 7.52876 3.89873 5.92169C3.89873 5.51236 3.98271 5.11888 4.18604 4.75711C4.59416 4.03068 5.22328 3.62567 6.06457 3.53775C6.41671 3.50028 6.76884 3.53199 7.12097 3.53343C7.38323 3.53487 7.64402 3.52622 7.90627 3.52334C8.01678 3.5219 8.01678 3.52334 8.01678 3.63432C8.01678 4.07536 8.0153 4.51785 8.01825 4.95889C8.01825 5.0324 7.99615 5.04537 7.92543 5.04537C7.43038 5.04393 6.93533 5.04681 6.44028 5.05114C6.32094 5.05258 6.20307 5.06987 6.08815 5.10446C5.77727 5.19959 5.60488 5.41723 5.571 5.73144C5.52532 6.14942 5.53711 6.5674 5.53858 6.98683C5.54006 7.26068 5.54742 7.53309 5.5489 7.80694C5.5489 7.85306 5.56363 7.86171 5.60194 7.85882C5.62256 7.85738 5.64319 7.85882 5.66382 7.85882C6.95154 7.85882 8.23925 7.86459 9.52697 7.85738C12.0788 7.84441 14.6307 7.8545 17.1826 7.85162C19.2129 7.84873 21.2446 7.84873 23.2749 7.85018C23.3663 7.85018 23.3825 7.82423 23.381 7.74208C23.378 7.32842 23.3839 6.9162 23.3825 6.50254C23.3825 6.26328 23.3766 6.02403 23.3692 5.78621C23.3574 5.41435 23.1143 5.14482 22.7386 5.07852C22.6031 5.05402 22.4675 5.04393 22.3305 5.04393C21.8767 5.04393 21.4214 5.04249 20.9676 5.04537C20.9072 5.04537 20.8836 5.03961 20.8836 4.96898C20.8881 4.51929 20.8866 4.06816 20.8851 3.61847C20.8851 3.56225 20.894 3.53919 20.9588 3.54063C21.5142 3.54784 22.0712 3.53775 22.6266 3.55937C23.213 3.58243 23.7538 3.75251 24.1958 4.15031C24.6687 4.5755 24.9221 5.10591 24.9796 5.73144C24.9943 5.89142 24.9958 6.04997 24.9958 6.20996C24.9958 7.65271 24.9958 9.09403 24.9958 10.5368C24.9973 11.9565 25.0002 13.3747 25.0002 14.7944C25.0002 15.8495 24.9973 16.9031 24.9929 17.9581C24.9914 18.2623 24.9781 18.5678 24.9855 18.8719C24.9929 19.2251 24.9958 19.5782 24.9884 19.9313C24.9766 20.5597 24.6879 21.0354 24.1236 21.3424C23.8996 21.4649 23.655 21.5211 23.3957 21.5211C21.4848 21.5211 19.5738 21.5139 17.6614 21.5225C15.0197 21.534 12.3765 21.524 9.73472 21.5283C9.61243 21.5283 9.6139 21.5283 9.64926 21.4187C9.7966 20.9719 9.84522 20.5136 9.80249 20.0466C9.79512 19.9717 9.81133 19.9529 9.89089 19.9529C14.0487 19.9558 18.2065 19.9544 22.3644 19.9544C22.5014 19.9544 22.6384 19.9472 22.7725 19.9169C23.1055 19.8434 23.3132 19.6171 23.3677 19.2827C23.3957 19.1098 23.3928 18.9368 23.3943 18.7638C23.3987 17.7953 23.4031 16.8253 23.3943 15.8567C23.3825 14.4284 23.3928 13.0014 23.3884 11.5731C23.3869 10.8784 23.3869 10.1822 23.3898 9.48751C23.3898 9.40392 23.353 9.3895 23.2779 9.3895C21.7942 9.39094 20.312 9.39094 18.8283 9.39094C15.6503 9.39239 12.4707 9.3895 9.29271 9.39815C8.06982 9.40103 6.84545 9.39959 5.62256 9.40103C5.54595 9.40103 5.53416 9.42409 5.53564 9.49184C5.53711 10.0035 5.53711 10.5166 5.53711 11.0456Z" fill="white"/>
<path d="M4.18427 22.9998C3.62439 22.9911 2.83762 22.9263 2.07294 22.7072C1.61767 22.576 1.18893 22.3872 0.817639 22.0917C0.393311 21.7545 0.142839 21.3192 0.0455973 20.7946C-0.0722716 20.1546 0.0514908 19.5464 0.266602 18.9439C0.69093 17.7577 1.34216 16.7012 2.16134 15.7384C2.33667 15.5323 2.52084 15.3348 2.70501 15.1374C2.74922 15.0898 2.77721 15.0768 2.83909 15.1201C3.1647 15.3507 3.53452 15.4732 3.92938 15.5237C4.49515 15.5957 5.04913 15.5395 5.59133 15.3694C5.74456 15.3219 5.8919 15.2585 6.02008 15.1619C6.08491 15.1129 6.11437 15.1331 6.15857 15.1806C6.65657 15.711 7.10889 16.2746 7.50375 16.8814C7.91777 17.5199 8.29053 18.1786 8.54247 18.8963C8.7178 19.395 8.82388 19.9067 8.8062 20.4371C8.77821 21.3178 8.3421 21.9548 7.56269 22.3786C7.12215 22.6178 6.64773 22.7533 6.1571 22.8441C5.57954 22.9479 5.00199 23.0027 4.18427 22.9998ZM4.40085 21.4071C5.75635 21.4071 6.86579 20.3247 6.86284 19.0001C6.86137 17.6986 5.79465 16.5974 4.40969 16.5931C3.02621 16.5888 1.9536 17.6755 1.94181 18.9569C1.92855 20.3218 3.02768 21.4071 4.40085 21.4071Z" fill="white"/>
<path d="M4.3392 14.9772C4.05042 14.9743 3.72628 14.9267 3.42866 14.761C3.27838 14.6774 3.19587 14.5693 3.20766 14.3906C3.22387 14.1138 3.12663 13.8602 3.00581 13.6137C2.87763 13.3528 2.7185 13.1136 2.53581 12.8858C2.40762 12.7258 2.39584 12.5111 2.49897 12.3598C2.54465 12.292 2.60653 12.2459 2.68609 12.2286C2.83343 12.1954 2.97929 12.194 3.12073 12.2603C3.21355 12.3035 3.30932 12.3338 3.41098 12.3497C3.57895 12.3742 3.70566 12.3151 3.80142 12.181C3.93403 11.9937 4.10052 11.8409 4.33331 11.789C4.68102 11.7097 5.03021 11.7948 5.24827 12.1565C5.42065 12.4434 5.67112 12.5543 5.99379 12.5543C6.12197 12.5543 6.25015 12.55 6.37686 12.5702C6.57577 12.6019 6.68479 12.7576 6.63912 12.9478C6.61407 13.0545 6.57282 13.1539 6.51094 13.2447C6.2531 13.6267 6.00263 14.0158 5.78162 14.4194C5.63429 14.6904 5.41476 14.8345 5.12008 14.8965C4.87845 14.9426 4.63387 14.9757 4.3392 14.9772Z" fill="white"/>
<path d="M14.4395 5.04463C13.5688 5.04463 12.698 5.04319 11.8258 5.04608C11.7565 5.04608 11.733 5.03454 11.7344 4.9596C11.7389 4.51279 11.7389 4.06454 11.7344 3.61773C11.7344 3.54422 11.7565 3.53125 11.8258 3.53125C13.5761 3.53557 15.328 3.53846 17.0783 3.53846C17.1432 3.53846 17.1594 3.55287 17.1594 3.61773C17.1564 4.06742 17.1564 4.51855 17.1594 4.96824C17.1594 5.0331 17.1432 5.04752 17.0783 5.04752C16.1987 5.04319 15.3191 5.04463 14.4395 5.04463Z" fill="white"/>
<path d="M9.29005 13.6116C8.86424 13.6116 8.43992 13.6102 8.01411 13.6131C7.95371 13.6131 7.9375 13.6001 7.9375 13.5381C7.94045 12.7065 7.94045 11.8748 7.9375 11.0432C7.9375 10.9726 7.9596 10.9596 8.0259 10.961C8.87014 10.9625 9.71437 10.9639 10.5586 10.961C10.6352 10.961 10.6544 10.9783 10.6544 11.0547C10.6514 11.8777 10.6514 12.7007 10.6544 13.5237C10.6544 13.5929 10.6396 13.6145 10.5645 13.6131C10.1402 13.6102 9.71585 13.6116 9.29005 13.6116Z" fill="white"/>
<path d="M14.4429 13.6115C14.02 13.6115 13.5987 13.6101 13.1758 13.613C13.1139 13.613 13.0859 13.6058 13.0859 13.5322C13.0889 12.7006 13.0889 11.869 13.0859 11.0373C13.0859 10.9782 13.1021 10.9609 13.164 10.9609C14.0171 10.9624 14.8702 10.9638 15.7233 10.9609C15.7925 10.9609 15.8028 10.984 15.8028 11.0431C15.8013 11.8747 15.7999 12.7064 15.8028 13.538C15.8028 13.5985 15.7866 13.613 15.7262 13.613C15.2989 13.6115 14.8702 13.6115 14.4429 13.6115Z" fill="white"/>
<path d="M19.5918 13.6115C19.1689 13.6115 18.7476 13.6101 18.3247 13.613C18.2613 13.613 18.2422 13.6014 18.2422 13.5351C18.2451 12.7035 18.2451 11.8719 18.2422 11.0402C18.2422 10.9768 18.2569 10.9609 18.3232 10.9609C19.1734 10.9638 20.0235 10.9638 20.8736 10.9609C20.9384 10.9609 20.9576 10.9754 20.9561 11.0402C20.9532 11.8719 20.9532 12.7035 20.9561 13.5351C20.9561 13.6014 20.937 13.6144 20.8736 13.613C20.4478 13.6101 20.0205 13.6115 19.5918 13.6115Z" fill="white"/>
<path d="M14.4488 15.7319C14.8746 15.7319 15.2989 15.7334 15.7247 15.7305C15.7837 15.7305 15.8043 15.742 15.8028 15.804C15.7999 16.6414 15.8013 17.4788 15.8028 18.3162C15.8028 18.3738 15.7851 18.3854 15.7291 18.3854C14.8731 18.3839 14.0171 18.3839 13.1611 18.3854C13.0977 18.3854 13.0859 18.3652 13.0859 18.309C13.0874 17.4745 13.0874 16.6399 13.0859 15.8054C13.0859 15.7434 13.1051 15.7305 13.164 15.7305C13.5928 15.7334 14.0215 15.7319 14.4488 15.7319Z" fill="white"/>
<path d="M19.608 18.3839C19.1792 18.3839 18.752 18.3825 18.3232 18.3854C18.2599 18.3854 18.2422 18.3724 18.2422 18.3075C18.2451 17.473 18.2451 16.6385 18.2422 15.804C18.2422 15.742 18.2613 15.7305 18.3203 15.7305C19.1734 15.7319 20.0264 15.7319 20.881 15.7305C20.9414 15.7305 20.9591 15.7434 20.9576 15.804C20.9546 16.6385 20.9546 17.473 20.9576 18.3075C20.9576 18.3753 20.937 18.3854 20.8751 18.3854C20.4537 18.3839 20.0308 18.3839 19.608 18.3839Z" fill="white"/>
<path d="M18.2124 4.28163C18.2124 3.78581 18.2109 3.29 18.2124 2.79419C18.2139 2.43962 18.4511 2.13118 18.7973 2.03173C19.3086 1.88616 19.8287 2.25946 19.8302 2.7841C19.8346 3.78149 19.8331 4.77744 19.8302 5.77483C19.8287 6.1784 19.5237 6.51423 19.1259 6.56323C18.7134 6.61368 18.3406 6.36145 18.236 5.9622C18.2183 5.8959 18.2109 5.82816 18.2109 5.76042C18.2124 5.26749 18.2124 4.77456 18.2124 4.28163Z" fill="white"/>
<path d="M10.6852 4.28984C10.6852 4.78565 10.6867 5.28146 10.6852 5.77728C10.6837 6.17508 10.4126 6.48785 10.0104 6.56279C9.65384 6.6291 9.27813 6.42587 9.13374 6.08716C9.08954 5.98338 9.06891 5.87529 9.07039 5.76286C9.07039 4.77412 9.07039 3.78537 9.07039 2.79807C9.07039 2.36135 9.42989 2.00535 9.86895 2.00391C10.3272 2.00391 10.6837 2.34694 10.6852 2.79375C10.6867 3.29244 10.6852 3.79114 10.6852 4.28984Z" fill="white"/>
<path d="M10.6453 17.047C10.6453 17.4636 10.6438 17.8787 10.6467 18.2952C10.6467 18.3615 10.6305 18.3817 10.5598 18.3803C10.2018 18.3759 9.84376 18.3774 9.48574 18.3803C9.43712 18.3803 9.41502 18.3673 9.39733 18.3226C9.04815 17.4348 8.55752 16.6219 8.00353 15.8435C7.98143 15.8118 7.93134 15.7801 7.94902 15.7441C7.9667 15.7066 8.02269 15.7297 8.061 15.7297C8.8905 15.7282 9.72147 15.7297 10.551 15.7268C10.6335 15.7268 10.6482 15.7513 10.6482 15.8262C10.6438 16.2327 10.6453 16.6391 10.6453 17.047Z" fill="white"/>
<path d="M4.40555 17.1446C5.47963 17.1547 6.31503 17.9935 6.3003 19.0486C6.28704 20.0402 5.41775 20.869 4.39524 20.8603C3.29464 20.8517 2.47692 19.9609 2.5005 18.9535C2.52554 17.9589 3.38009 17.136 4.40555 17.1446ZM4.39819 20.5519C4.42471 20.5519 4.45123 20.549 4.47627 20.5519C4.54994 20.562 4.57499 20.5331 4.5691 20.4611C4.5632 20.3962 4.57057 20.3299 4.56762 20.2651C4.56468 20.2175 4.57499 20.1959 4.63098 20.1887C4.75769 20.1728 4.88145 20.1397 4.9949 20.0762C5.25716 19.9263 5.37355 19.6972 5.36029 19.406C5.3485 19.1408 5.1997 18.9621 4.96248 18.8468C4.84756 18.7906 4.72675 18.7488 4.60593 18.707C4.48512 18.6652 4.36283 18.6292 4.2479 18.5715C4.07847 18.485 4.05784 18.2919 4.20223 18.1708C4.29947 18.0887 4.4807 18.08 4.60593 18.1506C4.7017 18.204 4.75916 18.289 4.80336 18.3841C4.81957 18.4173 4.82988 18.4447 4.8785 18.4245C4.9949 18.3784 5.11129 18.3366 5.23064 18.2962C5.27189 18.2818 5.27484 18.2645 5.2601 18.227C5.1717 18.0007 5.01405 17.8436 4.77684 17.7687C4.71201 17.7485 4.62214 17.7528 4.58236 17.711C4.5411 17.6678 4.57352 17.5799 4.5691 17.5121C4.56762 17.4876 4.57352 17.4559 4.53374 17.4559C4.44091 17.4559 4.33778 17.4357 4.25822 17.4675C4.21107 17.4862 4.24938 17.5928 4.24201 17.6606C4.24201 17.6664 4.24201 17.6721 4.24201 17.6779C4.24496 17.7125 4.23317 17.7269 4.19486 17.7327C4.12709 17.7442 4.05784 17.76 3.99301 17.7831C3.5127 17.9517 3.37862 18.5701 3.74696 18.916C3.8442 19.0068 3.96649 19.0543 4.08731 19.1019C4.26558 19.1711 4.4527 19.2172 4.62656 19.2965C4.7238 19.3412 4.77979 19.4132 4.77831 19.5156C4.77537 19.628 4.72233 19.7174 4.61182 19.7649C4.34367 19.8802 4.04458 19.7491 3.96207 19.4767C3.94586 19.4233 3.92376 19.4176 3.87514 19.4305C3.75433 19.4608 3.63204 19.4896 3.50975 19.5141C3.45229 19.5257 3.44198 19.5502 3.45966 19.6006C3.5569 19.8918 3.74549 20.0907 4.05637 20.1685C4.11677 20.1843 4.2037 20.1656 4.23317 20.2146C4.26116 20.2622 4.24201 20.3371 4.24201 20.3991C4.24201 20.5519 4.24054 20.5519 4.39819 20.5519Z" fill="white"/>
</g>
<defs>
<clipPath id="clip0_306_88">
<rect width="25" height="25" fill="white"/>
</clipPath>
</defs>
</svg>
