<svg width="25" height="25" viewBox="0 0 25 25" fill="none" xmlns="http://www.w3.org/2000/svg">
<path d="M13.9526 23.7108C13.0886 22.7537 12.5447 21.6453 12.3425 20.3684C12.3305 20.2963 12.3401 20.2194 12.2992 20.152C12.292 20.1328 12.2775 20.14 12.2655 20.1424C12.2414 20.1352 12.2197 20.1352 12.1957 20.1424C12.1836 20.1424 12.1716 20.1424 12.1572 20.1424C12.1139 20.14 12.0729 20.1376 12.0296 20.1376C11.3702 20.1376 10.7107 20.1376 10.0513 20.1376C10.0055 20.1376 9.95982 20.14 9.91409 20.14C9.89243 20.1328 9.87077 20.1328 9.84911 20.14C9.80579 20.1352 9.76488 20.1328 9.72155 20.1424C9.68545 20.1328 9.64695 20.1304 9.61084 20.14C9.58437 20.14 9.5579 20.14 9.53142 20.14C9.49532 20.1304 9.45922 20.1328 9.42312 20.1424C9.3798 20.14 9.33888 20.1376 9.29556 20.1376C7.39183 20.1376 5.4881 20.1376 3.58437 20.1376C3.55308 20.1376 3.51939 20.14 3.4881 20.14C3.47366 20.14 3.45681 20.14 3.44237 20.14C3.39183 20.1352 3.3437 20.1352 3.29556 20.1424C3.25946 20.1328 3.22336 20.1304 3.18726 20.14C3.16078 20.14 3.13431 20.14 3.10543 20.14C3.07414 20.1328 3.04526 20.1328 3.01397 20.1424C2.79015 20.14 2.56632 20.14 2.34249 20.1376C2.239 20.1376 2.13551 20.14 2.03443 20.1352C1.85633 20.1232 1.71193 19.9861 1.68786 19.813C1.66379 19.6351 1.76006 19.4716 1.92853 19.4066C1.9863 19.385 2.04646 19.3802 2.10663 19.3802C2.32083 19.3802 2.53263 19.3802 2.74683 19.3802C3.11987 19.3802 3.49291 19.3778 3.86596 19.3778C3.88281 19.3826 3.90206 19.3826 3.91891 19.3754C3.9502 19.3826 3.98148 19.385 4.01277 19.3778C4.03924 19.385 4.06331 19.3826 4.08738 19.3754C4.16199 19.3946 4.2366 19.3826 4.31121 19.3826C6.26548 19.3826 8.21975 19.3826 10.1716 19.3826C10.2101 19.3826 10.2486 19.3802 10.2895 19.3802C10.3088 19.385 10.3256 19.385 10.3449 19.3778C10.369 19.385 10.3954 19.3874 10.4195 19.3802C10.4412 19.385 10.4628 19.385 10.4821 19.3802C10.5037 19.385 10.5278 19.385 10.5495 19.3802C10.5663 19.3874 10.5832 19.3874 10.6 19.3802C10.6145 19.3802 10.6289 19.3778 10.6433 19.3778C10.665 19.3802 10.6842 19.385 10.7059 19.385C11.1993 19.385 11.6927 19.385 12.1861 19.385C12.2101 19.385 12.2366 19.3922 12.2558 19.373C12.2944 19.3273 12.2775 19.272 12.2799 19.2191C12.2871 18.8656 12.3305 18.5194 12.4027 18.1731C12.4508 17.9447 12.523 17.7211 12.588 17.495C12.6217 17.4349 12.6433 17.3676 12.6602 17.3027C12.6722 17.2762 12.6867 17.2522 12.6963 17.2257C12.7998 16.9612 12.9297 16.7087 13.0693 16.4611C13.2595 16.1268 13.4833 15.8167 13.7312 15.5209C13.7552 15.4944 13.7914 15.4728 13.7841 15.4199C13.7384 15.4199 13.6951 15.4199 13.6542 15.4199C11.9935 15.4199 10.3329 15.4199 8.67222 15.4199C8.63612 15.4199 8.60242 15.4223 8.56632 15.4223C8.523 15.4752 8.47486 15.5161 8.4171 15.5353C8.47727 15.5161 8.5254 15.4752 8.56632 15.4223C8.36415 15.4127 8.16199 15.4127 7.96223 15.4223C7.93335 15.4223 7.90447 15.4199 7.87799 15.4199C5.99111 15.4199 4.10423 15.4199 2.21734 15.4199C2.19328 15.4199 2.1668 15.4223 2.14273 15.4223C2.00314 15.4199 1.87318 15.3886 1.76969 15.2852C1.69508 15.1867 1.66861 15.0761 1.68305 14.9558C1.69267 14.927 1.70471 14.8957 1.71433 14.8669C1.8082 14.713 1.94538 14.6505 2.12348 14.6553C2.29677 14.6601 2.47005 14.6529 2.64334 14.6529C2.65056 14.6529 2.66018 14.6529 2.6674 14.6529C2.70591 14.6553 2.74442 14.6577 2.78533 14.6577C4.83588 14.6577 6.88401 14.6577 8.93455 14.6577C8.97306 14.6577 9.01157 14.6553 9.05248 14.6529C9.0597 14.6529 9.06933 14.6529 9.07655 14.6529C9.10062 14.6553 9.12709 14.6577 9.15116 14.6577C10.9442 14.6577 12.7372 14.6577 14.5302 14.6601C14.5952 14.6601 14.6457 14.6432 14.6963 14.6024C14.9514 14.4004 15.221 14.2224 15.5025 14.0637C15.6084 14.0036 15.7143 13.9483 15.8202 13.8906C15.9165 13.8473 16.0128 13.8041 16.109 13.7608C16.1524 13.7439 16.1957 13.7247 16.239 13.7079C16.2631 13.7031 16.2871 13.7007 16.304 13.679C16.3617 13.6646 16.4171 13.6478 16.4701 13.6165C16.6241 13.5708 16.7757 13.5275 16.9297 13.4818C17.079 13.4386 17.0693 13.477 17.0693 13.2991C17.0693 11.8203 17.0693 10.3439 17.0693 8.86513C17.0693 7.06413 17.0693 5.26313 17.0693 3.45972C17.0693 3.15916 17.0212 2.87061 16.8912 2.6013C16.6313 2.06269 16.2173 1.70441 15.6373 1.54331C15.517 1.50483 15.3942 1.48079 15.2691 1.48319C15.2234 1.46636 15.1776 1.47117 15.1319 1.47117C14.4003 1.47117 13.6686 1.47117 12.937 1.47117C12.9153 1.47117 12.8936 1.47117 12.872 1.47117C12.8335 1.47117 12.8118 1.4856 12.8118 1.52647C12.8118 1.55533 12.8118 1.58418 12.8118 1.61063C12.8118 2.12521 12.8118 2.63978 12.8118 3.15435C12.8118 3.22889 12.8046 3.30343 12.7901 3.37557C12.7348 3.64007 12.5735 3.80117 12.3208 3.84445C12.2968 3.84205 12.2703 3.83964 12.2462 3.83964C11.4977 3.83964 10.7468 3.83964 9.99833 3.83964C9.96945 3.83964 9.94297 3.84205 9.91409 3.84445C9.80579 3.83483 9.69749 3.83483 9.58918 3.84445C9.5603 3.84205 9.53142 3.83964 9.50495 3.83964C8.72998 3.83964 7.95742 3.83964 7.18245 3.83964C7.15356 3.83964 7.12468 3.84205 7.09821 3.84445C7.0597 3.83724 7.0236 3.83724 6.98509 3.84445C6.93455 3.83724 6.88401 3.83243 6.83347 3.84205C6.78533 3.83724 6.7372 3.83724 6.68906 3.84445C6.62408 3.83483 6.5591 3.83243 6.49412 3.84445C6.45802 3.83724 6.42192 3.83724 6.38582 3.84445C6.34731 3.84205 6.3088 3.83964 6.27029 3.83964C5.79376 3.83964 5.31963 3.83964 4.8431 3.83964C4.80459 3.83964 4.76608 3.84205 4.72757 3.84445C4.71072 3.84445 4.69628 3.84445 4.67944 3.84445C4.67462 3.83964 4.6674 3.83964 4.66259 3.84445C4.42914 3.82041 4.29436 3.67854 4.21494 3.47175C4.18124 3.38278 4.1668 3.2866 4.1668 3.19042C4.1668 2.66623 4.1668 2.13963 4.1668 1.61544C4.1668 1.58659 4.16439 1.55773 4.1668 1.53128C4.16921 1.4856 4.14514 1.46877 4.10182 1.46877C4.07294 1.46877 4.04406 1.46877 4.01758 1.46877C3.68064 1.46877 3.3437 1.46877 3.00675 1.46877C2.93214 1.46877 2.85754 1.46155 2.78293 1.47358C2.75886 1.46636 2.7372 1.46636 2.71313 1.47358C2.65778 1.46877 2.60242 1.46877 2.54707 1.47358C2.51819 1.46636 2.4869 1.46636 2.45802 1.47358C2.21012 1.46636 1.96223 1.45434 1.71433 1.48319C0.903264 1.57457 0.222157 2.18772 0.0488715 2.98122C-0.0209239 3.29862 0.00795697 3.61842 0.00795697 3.93823C0.0705322 3.85888 0.145141 3.79396 0.217343 3.72182C0.145141 3.79155 0.0705322 3.85888 0.00795697 3.93823C0.000736757 3.9767 0.000736757 4.01277 0.00795697 4.05124C-0.00648346 4.1354 0.0031435 4.22196 0.0031435 4.30612C0.0031435 6.27784 0.0031435 8.24957 0.0031435 10.2213C0.0031435 10.267 0.00555023 10.3127 0.00795697 10.3583C0.000736757 10.3944 0.000736757 10.4329 0.00795697 10.469C-0.00648346 10.5579 0.0031435 10.6469 0.0031435 10.7359C0.0031435 12.6932 0.0031435 14.6529 0.0031435 16.6102C0.0031435 16.6606 0.00555023 16.7087 0.00795697 16.7592C0.000736757 16.7977 0.000736757 16.8338 0.00795697 16.8722C-0.00648346 16.9612 0.0031435 17.0502 0.0031435 17.1391C0.0031435 18.743 -0.00407672 20.3444 0.00555023 21.9482C0.0103637 22.7369 0.395442 23.3116 1.09099 23.6771C1.37739 23.8286 1.68786 23.8767 2.01036 23.8767C3.2739 23.8743 4.53503 23.8767 5.79857 23.8767C5.90206 23.8767 6.00555 23.8863 6.10663 23.8719C6.13792 23.8815 6.1668 23.8791 6.19809 23.8695C6.24382 23.8719 6.28955 23.8743 6.33527 23.8743C8.28955 23.8743 10.2462 23.8743 12.2005 23.8743C12.3112 23.8743 12.4195 23.8839 12.5302 23.8695C12.5615 23.8791 12.5928 23.8767 12.6241 23.8671C12.6385 23.8695 12.653 23.8719 12.6674 23.8719C13.1199 23.8719 13.5699 23.8719 14.0224 23.8719C14.0392 23.8719 14.0585 23.8767 14.0681 23.8574C14.0681 23.8502 14.0681 23.8406 14.0657 23.8382C14.0296 23.7949 13.9911 23.754 13.9526 23.7108ZM10.5134 19.2407C10.5302 19.2575 10.5423 19.284 10.5543 19.3225C10.5447 19.284 10.5326 19.2575 10.5134 19.2407ZM6.73961 16.5957C6.70591 16.5789 6.66981 16.5765 6.62649 16.5885C6.66981 16.5789 6.70591 16.5813 6.73961 16.5957ZM6.64574 16.6438C6.63612 16.6294 6.6289 16.6126 6.62649 16.5933C6.62649 16.6126 6.63371 16.6294 6.64574 16.6438ZM4.09701 19.3489C4.10423 19.3369 4.11385 19.3297 4.12589 19.3225C4.11626 19.3297 4.10663 19.3393 4.09701 19.3489ZM3.69989 6.88379C3.69989 6.85253 3.71433 6.82848 3.73118 6.80444C3.71433 6.82608 3.69989 6.85253 3.69989 6.88379ZM3.7023 6.88379C3.71915 6.88138 3.73359 6.87417 3.74562 6.86696C3.73118 6.87417 3.71674 6.88138 3.7023 6.88379ZM3.74562 6.86696C3.75044 6.86215 3.75525 6.85974 3.76247 6.85493C3.75525 6.85734 3.75044 6.86215 3.74562 6.86696ZM2.65537 8.12213C2.65537 8.09327 2.6674 8.07163 2.68184 8.04999C2.665 8.06923 2.65537 8.09327 2.65537 8.12213ZM3.01638 7.56668C3.01397 7.55225 3.01157 7.53542 3.00675 7.52099C3.01157 7.53542 3.01397 7.54985 3.01638 7.56668C3.11024 7.58832 3.20411 7.60034 3.29316 7.54504C3.29316 7.51618 3.29316 7.48733 3.29316 7.46088C3.27631 7.46569 3.26187 7.4729 3.24502 7.48252C3.25946 7.4729 3.2739 7.46569 3.29316 7.46088C3.29316 7.48973 3.29316 7.51859 3.29316 7.54504C3.20651 7.60034 3.11265 7.58832 3.01638 7.56668ZM3.29556 7.54504C3.30519 7.56187 3.31482 7.57149 3.32444 7.57389C3.31241 7.57389 3.30278 7.56187 3.29556 7.54504ZM3.08618 9.92072C3.11265 9.92072 3.13912 9.91832 3.16319 9.91591C3.13672 9.91832 3.11024 9.92072 3.08618 9.92072ZM3.01638 7.56668C3.0236 7.5763 3.03323 7.58832 3.04045 7.59794C3.03323 7.58832 3.02601 7.5763 3.01638 7.56668ZM3.89243 13.0899C3.88521 13.0779 3.8804 13.0659 3.87559 13.0538C3.87799 13.0659 3.88521 13.0779 3.89243 13.0899ZM3.85874 12.9432C3.86115 12.9336 3.86355 12.924 3.86837 12.9144C3.86355 12.924 3.85874 12.9336 3.85874 12.9432ZM3.26187 13.5925C3.24021 13.59 3.21614 13.5949 3.18967 13.6045C3.21373 13.5949 3.2378 13.59 3.26187 13.5925ZM3.21133 13.6622C3.21373 13.667 3.21855 13.6694 3.22095 13.6718C3.21855 13.6694 3.21373 13.6646 3.21133 13.6622ZM15.322 10.3656C15.298 10.5339 15.156 10.6661 14.9827 10.683C14.9442 10.6854 14.9057 10.6854 14.8648 10.6854C12.1235 10.6854 9.38461 10.6854 6.64334 10.6854C5.16319 10.6854 3.68305 10.6854 2.2029 10.6854C2.15236 10.6854 2.10423 10.6878 2.05368 10.6854C1.86355 10.6757 1.71193 10.5387 1.69027 10.3559C1.6662 10.166 1.77932 9.99767 1.96704 9.94236C1.99111 9.93515 2.01518 9.93034 2.03924 9.92553C2.16921 9.92553 2.30158 9.93034 2.43154 9.92794C2.62649 9.92553 2.82143 9.93515 3.01397 9.92313C3.03804 9.93034 3.06211 9.93034 3.08618 9.92313C3.1319 9.92553 3.17763 9.93034 3.22336 9.93034C4.40266 9.93034 5.57956 9.93034 6.75886 9.93034C6.82143 9.93034 6.88642 9.94236 6.94899 9.92553C6.96343 9.92553 6.97787 9.92553 6.99231 9.92313C6.99953 9.92072 7.00675 9.91832 7.01397 9.91591C7.00675 9.91832 7.00194 9.92072 6.99231 9.92313C7.1295 9.94236 7.26909 9.93034 7.40627 9.93034C8.03443 9.93034 8.66259 9.93034 9.29075 9.93034C9.33407 9.93034 9.37498 9.92553 9.41831 9.92553C9.40627 9.92553 9.39424 9.92313 9.3822 9.92313C9.35814 9.92072 9.33166 9.92072 9.3076 9.91832C9.33166 9.91832 9.35814 9.92072 9.3822 9.92313C9.39424 9.92313 9.40627 9.92553 9.41831 9.92553C9.44237 9.93274 9.46644 9.93274 9.49051 9.92553C9.52661 9.92794 9.5603 9.93034 9.5964 9.93034C10.7829 9.93034 11.9694 9.93034 13.156 9.93034C13.1921 9.93034 13.2258 9.92553 13.2619 9.92313C13.2763 9.92313 13.2907 9.92553 13.3028 9.92553C13.3124 9.89427 13.322 9.87023 13.3413 9.86782C13.322 9.86782 13.31 9.89427 13.3028 9.92553C13.5603 9.93755 13.8202 9.92794 14.0778 9.92794C14.3762 9.92794 14.6722 9.92553 14.9707 9.92553C15.0092 9.93515 15.0477 9.94236 15.0838 9.95679C15.2522 10.0217 15.3461 10.1876 15.322 10.3656ZM8.23178 9.01181C8.23419 9.02864 8.24141 9.04307 8.24863 9.05749C8.239 9.04307 8.23419 9.02864 8.23178 9.01181C8.23178 9.00459 8.23178 8.99738 8.23178 8.99017C8.22938 8.99978 8.22938 9.00459 8.23178 9.01181ZM10.2992 6.66979C10.3136 6.677 10.3305 6.68662 10.3449 6.69624C10.3305 6.68662 10.3136 6.6794 10.2992 6.66979ZM9.49051 9.92313C9.51458 9.92313 9.53864 9.92072 9.56271 9.91832C9.54105 9.91832 9.51698 9.92072 9.49051 9.92313ZM7.01638 9.91351C7.02119 9.9111 7.0236 9.9087 7.02601 9.9063C7.0236 9.9087 7.01879 9.9111 7.01638 9.91351ZM13.8275 9.69229C13.8395 9.6947 13.8515 9.6947 13.8636 9.6971C13.8515 9.6971 13.8395 9.6947 13.8275 9.69229ZM13.736 9.67786C13.7408 9.70431 13.7528 9.73076 13.7625 9.75721C13.7528 9.73076 13.7408 9.70672 13.736 9.67786ZM15.4881 8.12213C15.4881 8.09087 15.5025 8.06682 15.5194 8.04278C15.5025 8.06442 15.4881 8.08846 15.4881 8.12213ZM16.1283 7.54504C16.1283 7.51618 16.1283 7.48733 16.1283 7.46088C16.1114 7.46569 16.097 7.4729 16.0802 7.48252C16.0753 7.48733 16.0681 7.48973 16.0633 7.49454C16.0705 7.48973 16.0753 7.48733 16.0802 7.48252C16.0946 7.4729 16.109 7.46569 16.1283 7.46088C16.1283 7.48973 16.1283 7.51859 16.1283 7.54504ZM16.1283 7.54504C16.1355 7.55946 16.1451 7.56908 16.1524 7.57389C16.1548 7.57389 16.1572 7.5763 16.1596 7.5763C16.1572 7.5763 16.1548 7.5763 16.1524 7.57389C16.1451 7.56908 16.1379 7.55946 16.1283 7.54504ZM16.6891 12.9745C16.6891 12.9697 16.6891 12.9649 16.6891 12.9601C16.6891 12.9625 16.6891 12.9673 16.6891 12.9745ZM16.535 6.88379C16.5591 6.87898 16.5784 6.86696 16.5952 6.85493C16.5784 6.86936 16.5591 6.87898 16.535 6.88379ZM16.535 6.88379C16.535 6.85734 16.5447 6.8357 16.5591 6.81406C16.5447 6.83329 16.535 6.85493 16.535 6.88379ZM16.7276 13.0923C16.7035 13.0899 16.6818 13.0851 16.6602 13.0803C16.6818 13.0851 16.7035 13.0923 16.7276 13.0923ZM16.3136 6.891C16.2968 6.89822 16.2895 6.91024 16.2847 6.92467C16.2895 6.91024 16.2968 6.89581 16.3136 6.891ZM13.0332 3.83243C13.0164 3.84686 13.0019 3.86128 12.9851 3.87571C12.9995 3.86128 13.0164 3.84686 13.0332 3.83243ZM13.0477 3.89495C13.038 3.87811 13.0332 3.85647 13.0332 3.83483C13.0332 3.85407 13.038 3.87571 13.0477 3.89495ZM6.14514 5.20061C9.04045 5.20061 11.9382 5.20061 14.8335 5.20061C14.884 5.20061 14.9346 5.19821 14.9827 5.20542C15.1873 5.23187 15.3293 5.39297 15.3268 5.58774C15.3244 5.78732 15.168 5.94602 14.961 5.96285C14.9153 5.96525 14.8696 5.96525 14.8214 5.96525C12.7155 5.96525 10.6096 5.96525 8.50375 5.96525C6.38581 5.96525 4.27029 5.96525 2.15236 5.96525C2.08738 5.96525 2.0248 5.96525 1.96223 5.94602C1.79616 5.89793 1.68545 5.75125 1.68545 5.58293C1.68545 5.41462 1.79857 5.26794 1.96223 5.21985C2.0248 5.20061 2.08738 5.20061 2.15236 5.20061C3.48329 5.20061 4.81421 5.20061 6.14514 5.20061ZM0.903264 9.67786C0.908077 9.67786 0.915298 9.68027 0.920111 9.68027C0.915298 9.68027 0.908077 9.68027 0.903264 9.67786ZM0.917704 9.72836C0.915298 9.72355 0.912891 9.71634 0.910484 9.71153C0.912891 9.71874 0.915298 9.72355 0.917704 9.72836ZM0.908077 9.70672C0.905671 9.70191 0.905671 9.6971 0.903264 9.6947C0.905671 9.6971 0.908077 9.70191 0.908077 9.70672ZM0.794961 16.1341C0.794961 16.1485 0.778113 16.1725 0.756453 16.1942C0.778113 16.1749 0.794961 16.1485 0.794961 16.1341ZM0.198089 3.83243C0.178835 3.84926 0.159582 3.86609 0.140328 3.88533C0.159582 3.8685 0.178835 3.85166 0.198089 3.83243ZM8.24863 21.8809C8.24141 21.8665 8.23419 21.852 8.23178 21.8352C8.23419 21.8496 8.239 21.8665 8.24863 21.8809ZM12.6409 23.8142C12.6433 23.7973 12.6457 23.7781 12.6457 23.7613C12.6457 23.7781 12.6433 23.7949 12.6409 23.8142Z" fill="white"/>
<path d="M23.8726 18.3033C23.3431 15.8482 21.2011 14.0665 18.6957 13.9727C17.8461 13.9414 17.0326 14.0953 16.2528 14.4368C15.8244 14.6267 15.4249 14.86 15.0615 15.1581C14.893 15.276 14.7414 15.413 14.6018 15.5645C14.5826 15.5813 14.5633 15.5958 14.5465 15.615C13.6295 16.56 13.1024 17.6853 12.9845 18.9958C12.9123 19.7821 13.0061 20.5467 13.2661 21.2921C13.384 21.6312 13.5284 21.9582 13.7209 22.2636C13.7715 22.3645 13.8268 22.4631 13.9014 22.5473C13.9135 22.5882 13.9448 22.6218 13.9688 22.6555C15.2396 24.4517 17.4321 25.3245 19.5934 24.8797C22.5513 24.2786 24.5368 21.3835 23.8726 18.3033ZM23.1337 19.4935C23.1457 19.4983 23.1578 19.5056 23.1674 19.5128C23.1554 19.5056 23.1433 19.4983 23.1337 19.4935ZM15.8509 20.388C15.8726 20.3928 15.8966 20.3976 15.9183 20.4024C15.8966 20.4 15.8726 20.3952 15.8509 20.388ZM16.1277 20.3664C16.1277 20.3375 16.1277 20.3087 16.1277 20.2822C16.1132 20.2846 16.1012 20.2918 16.0892 20.299C16.1012 20.2918 16.1132 20.287 16.1277 20.2822C16.1277 20.3111 16.1277 20.3399 16.1277 20.3664ZM19.5741 23.3648C19.5765 23.3672 19.5765 23.3721 19.5814 23.3745C19.5765 23.3696 19.5741 23.3672 19.5741 23.3648ZM19.9905 22.6266C20.0146 22.6026 20.0386 22.5665 20.0386 22.5521C20.0362 22.5473 20.0314 22.5401 20.029 22.5377C20.0338 22.5401 20.0362 22.5473 20.0386 22.5521C20.0386 22.5641 20.0146 22.6026 19.9905 22.6266ZM21.4466 21.3955C21.4129 21.4099 21.3912 21.4388 21.3672 21.4628C21.2372 21.5927 21.1072 21.7201 20.9773 21.8524C20.9484 21.8812 20.9123 21.9077 20.893 21.9462C20.727 22.1073 20.5633 22.2684 20.3972 22.4295C20.378 22.4487 20.3587 22.4704 20.3347 22.4896C20.2817 22.5305 20.2312 22.5329 20.1806 22.4872C20.1397 22.4535 20.1036 22.415 20.0651 22.3766C19.5741 21.886 19.0832 21.3955 18.5922 20.905C18.5801 20.893 18.5681 20.8809 18.5537 20.8665C18.4791 20.7944 18.4791 20.792 18.4045 20.8665C17.8918 21.3787 17.3768 21.8933 16.8641 22.4054C16.8449 22.4247 16.8232 22.4463 16.804 22.4655C16.7246 22.5401 16.6716 22.5401 16.5922 22.4631C16.4309 22.3044 16.2697 22.1409 16.1084 21.9798C15.9063 21.7778 15.7065 21.5783 15.5043 21.3763C15.4779 21.3498 15.4466 21.3234 15.4394 21.2801C15.4297 21.2296 15.449 21.1911 15.4851 21.1551C15.5741 21.0685 15.6608 20.9795 15.7498 20.8906C16.1879 20.4529 16.6259 20.0153 17.0639 19.5777C17.0832 19.5585 17.1024 19.5368 17.1241 19.5176C17.1554 19.4911 17.1554 19.4647 17.1241 19.4382C17.0952 19.4118 17.0663 19.3853 17.0374 19.3589C16.9893 19.2964 16.9363 19.2386 16.8714 19.193C16.8449 19.1641 16.8208 19.1353 16.7919 19.1064C16.3732 18.6856 15.952 18.2672 15.5308 17.8464C15.5092 17.8248 15.4851 17.8031 15.4634 17.7767C15.4249 17.7262 15.4249 17.6709 15.4634 17.6204C15.4755 17.6036 15.4923 17.5891 15.5067 17.5747C15.8581 17.2236 16.2119 16.8702 16.5633 16.5191C16.5777 16.5047 16.5922 16.4879 16.609 16.4758C16.6692 16.4277 16.7197 16.4277 16.7823 16.4782C16.8064 16.4999 16.828 16.5215 16.8521 16.5456C17.3623 17.0553 17.8726 17.5651 18.3852 18.0749C18.4863 18.1758 18.4694 18.1734 18.5633 18.0773C19.0687 17.5723 19.5741 17.0673 20.0795 16.5624C20.0988 16.5432 20.1205 16.5215 20.1397 16.5023C20.2288 16.4157 20.2793 16.4157 20.3659 16.5023C20.5031 16.6369 20.6379 16.774 20.7727 16.9086C20.9941 17.1299 21.2155 17.3511 21.4369 17.5723C21.4634 17.5988 21.4947 17.6252 21.5067 17.6637C21.5212 17.7046 21.5116 17.743 21.4851 17.7743C21.4634 17.8031 21.4369 17.8272 21.4129 17.8512C20.9099 18.3538 20.4069 18.8563 19.9039 19.3589C19.8894 19.3733 19.8726 19.3877 19.8581 19.4046C19.7835 19.4815 19.7787 19.4719 19.8605 19.5512C20.3611 20.0514 20.8617 20.5515 21.3623 21.0517C21.3816 21.0709 21.4033 21.0925 21.4225 21.1118C21.5501 21.2368 21.5525 21.2657 21.4466 21.3955ZM16.5344 19.7075C16.5657 19.7027 16.5874 19.6835 16.609 19.6643C16.5874 19.6835 16.5657 19.7003 16.5344 19.7075ZM16.5344 19.7051C16.5344 19.6763 16.5465 19.6546 16.5609 19.633C16.544 19.6546 16.5344 19.6763 16.5344 19.7051ZM16.5681 19.621C16.5705 19.6162 16.5753 19.6138 16.5777 19.6089C16.5753 19.6114 16.5729 19.6162 16.5681 19.621Z" fill="#E21E26"/>
<path d="M5.08594 2.63304C5.08594 2.65469 5.08594 2.67633 5.08594 2.69797C5.09797 2.87109 5.21831 3.01537 5.38678 3.05865C5.43491 3.07067 5.48546 3.06827 5.536 3.06827C6.69123 3.06827 7.84647 3.06827 9.00411 3.06827C9.86091 3.06827 10.7177 3.06827 11.5745 3.06827C11.7767 3.06827 11.9211 2.96247 11.9764 2.78213C11.9909 2.73644 11.9909 2.69075 11.9909 2.64507C11.9909 1.90687 11.9909 1.16628 11.9909 0.428082C11.9909 0.399227 11.9909 0.370373 11.9861 0.343923C11.962 0.165987 11.8224 0.033737 11.6467 0.0169053C11.6058 7.34864e-05 11.5625 0.00728711 11.5192 0.00728711C11.0883 0.00728711 10.6575 0.00728711 10.2267 0.00728711C8.81879 0.00728711 7.40844 0.00728711 6.0005 0.00728711C5.96199 0.00728711 5.92108 0.00247803 5.88498 0.0145007C5.8585 7.34873e-05 5.83443 7.34873e-05 5.80796 0.00969165C5.68281 7.34873e-05 5.55525 -0.00714013 5.4301 0.0120962C5.35309 0.00728711 5.29292 0.0433552 5.23756 0.0890415C5.12685 0.178009 5.08594 0.295832 5.08594 0.4377C5.08594 1.16868 5.08594 1.89966 5.08594 2.63304ZM8.27727 2.42385C8.27968 2.41664 8.28209 2.40702 8.28449 2.3974C8.28209 2.40702 8.27968 2.41423 8.27727 2.42385ZM8.23395 2.54408C8.23395 2.54167 8.23636 2.53686 8.23636 2.53446C8.23877 2.52724 8.24358 2.51763 8.24839 2.51041C8.24358 2.51763 8.23877 2.52484 8.23636 2.53446C8.23636 2.53927 8.23636 2.54167 8.23395 2.54408C8.23395 2.54889 8.23395 2.55369 8.23395 2.5585C8.23395 2.56091 8.23395 2.56572 8.23636 2.56812C8.23636 2.56572 8.23395 2.56091 8.23395 2.5585C8.23395 2.5561 8.23395 2.54889 8.23395 2.54408Z" fill="white"/>
</svg>
