<svg width="25" height="25" viewBox="0 0 25 25" fill="none" xmlns="http://www.w3.org/2000/svg">
<path d="M10.3986 19.9803C11.3878 19.7106 12.305 20.1404 13.1698 20.7527C14.2396 21.5096 15.2557 21.4604 16.3608 20.7372C18.3421 19.4424 20.3799 18.2305 22.395 16.9876C23.0267 16.5986 23.5086 16.6365 23.828 17.0859C24.1615 17.5536 24.0117 18.0563 23.3843 18.4959C20.4844 20.528 17.5747 22.5488 14.6805 24.5893C14.0714 25.019 13.4624 25.0977 12.7543 24.8772C10.2686 24.1048 7.75735 23.4054 5.28994 22.5811C4.31485 22.2553 3.46694 22.2609 2.53142 22.6668C1.46164 23.1316 1.43621 23.0796 1.04334 22.0095C0.714073 21.1108 0.406 20.205 0.056945 19.3146C-0.0575224 19.0225 -0.0080612 18.9102 0.284467 18.8062C2.47489 18.0339 4.65119 17.2264 6.84868 16.4736C7.6556 16.197 8.48514 16.4961 9.29348 16.6028C11.6012 16.9062 13.9018 17.2531 16.2067 17.5732C16.7861 17.6533 17.2906 17.8176 17.3147 18.5085C17.333 19.0492 16.8709 19.3596 16.0993 19.3708C13.9344 19.4045 11.7694 19.4396 9.60437 19.4733C9.36837 19.4775 9.13379 19.4803 8.8992 19.4902C8.71125 19.4986 8.46959 19.4986 8.49079 19.7528C8.51058 19.9915 8.75082 19.9761 8.93877 19.9761C9.38816 19.9803 9.83472 19.9803 10.3986 19.9803Z" fill="white"/>
<path d="M15.8592 6.92681C15.9539 6.9254 16.0514 6.94225 16.1405 6.924C17.6186 6.61223 18.6234 7.3467 19.5519 8.36344C20.787 9.71582 21.8398 11.1398 22.0758 13.0244C22.1479 13.5946 22.097 14.1451 21.9868 14.6928C21.8469 15.3936 21.5967 15.9286 20.7502 16.1603C19.6508 16.4608 18.6192 17.3175 17.5508 17.3329C16.4754 17.347 15.3251 16.958 14.1988 16.7909C13.0838 16.6252 11.9702 16.4398 10.8495 16.3274C10.3945 16.2811 10.1896 16.0873 10.0567 15.6941C9.4858 13.999 9.72604 12.3784 10.5033 10.8126C11.2113 9.38439 12.2613 8.23003 13.4738 7.20767C13.7225 6.99843 13.9797 6.90995 14.3062 6.924C14.8234 6.94366 15.342 6.92821 15.8592 6.92681ZM15.6345 13.523C15.6374 14.3192 15.6006 14.3459 14.8884 14.1058C14.7329 14.0538 14.5732 14.0004 14.4362 13.9162C14.1959 13.7673 14.0899 13.7631 13.9175 14.0594C13.601 14.5987 13.7734 14.8557 14.2977 15.0102C14.6128 15.1029 14.9279 15.2026 15.2516 15.2503C15.53 15.291 15.6812 15.3753 15.6388 15.6842C15.6006 15.9665 15.636 16.1589 16.0274 16.1589C16.4514 16.1589 16.4132 15.9132 16.3892 15.6576C16.3567 15.3135 16.563 15.2489 16.8428 15.1717C17.7557 14.9189 18.2122 14.3937 18.2334 13.6353C18.2546 12.8868 17.8659 12.436 16.929 12.1257C16.4528 11.9684 16.1617 11.3743 16.4104 10.873C16.628 10.4348 16.9983 10.7901 17.2286 10.9025C17.7119 11.137 17.7119 10.7635 17.8447 10.5205C18.0129 10.2115 17.9649 9.99528 17.6031 9.89277C17.401 9.83519 17.2018 9.73829 16.9968 9.72003C16.6026 9.68633 16.2959 9.61471 16.3878 9.10774C16.4386 8.82547 16.2691 8.75666 16.009 8.75666C15.749 8.75525 15.5837 8.82547 15.636 9.10774C15.7222 9.5796 15.4537 9.66667 15.0622 9.76918C14.2298 9.98826 13.7875 10.5711 13.7804 11.3168C13.7734 12.0568 14.1253 12.5104 15.0368 12.7759C15.4918 12.9065 15.7547 13.0792 15.6345 13.523Z" fill="white"/>
<path d="M16.4684 5.34016C16.0643 5.34016 15.5795 5.47919 15.2969 5.30084C15.0213 5.1267 15.2602 4.62114 15.2559 4.26163C15.2432 3.20416 15.1457 2.15933 14.7655 1.16787C14.6129 0.77185 14.668 0.575242 15.075 0.448852C15.564 0.297184 16.1434 -0.174673 16.5094 0.0682769C16.8245 0.276119 16.4599 0.957222 16.4161 1.43048C16.3003 2.72388 16.1604 4.01587 16.4684 5.34016Z" fill="white"/>
<path d="M16.9412 5.33287C16.742 4.13076 16.7674 2.95673 16.9059 1.78271C16.9935 1.04122 17.108 0.941507 17.823 1.17322C18.0633 1.25187 18.2965 1.37966 18.5042 1.52431C19.1938 2.00178 19.2023 2.10851 18.6865 2.75591C18.2272 3.33169 17.9163 3.99454 17.8004 4.70373C17.6973 5.33989 17.3892 5.45645 16.9412 5.33287Z" fill="white"/>
<path d="M21.928 16.6793C20.5699 17.5162 19.2302 18.3434 17.8029 19.2239C17.7365 18.7858 17.899 18.467 17.7831 18.1608C17.6899 17.9151 17.8708 17.8491 18.0559 17.7746C19.0762 17.366 20.0937 16.9517 21.1112 16.536C21.391 16.4223 21.6496 16.4012 21.928 16.6793Z" fill="white"/>
<path d="M12.5312 2.30646C12.8492 2.24889 13.0711 2.18569 13.2972 2.17305C14.3401 2.11126 14.627 2.35281 14.6892 3.37376C14.7217 3.9046 14.7075 4.43965 14.7132 4.97189C14.7146 5.12497 14.8955 5.35247 14.5337 5.34826C14.3062 5.34545 14.1437 5.3286 14.0787 5.04773C13.8427 4.01414 13.3565 3.10413 12.5312 2.30646Z" fill="white"/>
<path d="M15.7916 6.4244C15.2758 6.4244 14.76 6.42581 14.2428 6.4244C14.0308 6.4244 13.8033 6.45108 13.8047 6.12809C13.8061 5.83599 14.0153 5.87531 14.199 5.8739C15.3012 5.8725 16.4035 5.8739 17.5072 5.87109C17.7093 5.87109 17.8973 5.88514 17.8831 6.15617C17.8704 6.41878 17.6782 6.4244 17.4818 6.4244C16.9165 6.423 16.3541 6.4244 15.7916 6.4244Z" fill="white"/>
<path d="M16.5962 19.9414C14.9089 21.0873 14.492 21.093 12.9375 19.9414C14.2051 19.9414 15.3781 19.9414 16.5962 19.9414Z" fill="white"/>
<path d="M16.3848 13.7378C16.4541 13.5665 16.2562 13.2617 16.5502 13.2392C16.7748 13.2224 16.9614 13.4288 16.9571 13.6999C16.9543 13.9639 16.7946 14.1675 16.5502 14.1661C16.2548 14.1647 16.4569 13.881 16.3848 13.7378Z" fill="white"/>
<path d="M15.6123 11.7514C15.2845 11.6995 15.0683 11.5759 15.0626 11.2655C15.057 10.9313 15.2605 10.7712 15.6123 10.7305C15.6123 11.0619 15.6123 11.3793 15.6123 11.7514Z" fill="white"/>
</svg>
