<svg width="25" height="25" viewBox="0 0 25 25" fill="none" xmlns="http://www.w3.org/2000/svg">
<g clip-path="url(#clip0_508_46)">
<path d="M0 20.1142C0.0882145 20.0173 0.0882145 19.8762 0.149965 19.7617C0.90861 18.3869 1.89661 17.2148 3.29922 16.4481C4.13726 15.9899 5.03705 15.7343 5.99859 15.6374C7.22477 15.514 8.45977 15.4876 9.69478 15.5316C10.5857 15.5581 11.4767 15.5845 12.35 15.7872C14.0438 16.175 15.367 17.1179 16.4079 18.475C16.7078 18.8628 16.9725 19.2682 17.2018 19.7C17.7399 20.7046 17.0519 21.9296 15.9051 21.9825C15.8345 21.9825 15.7551 21.9825 15.6845 21.9825C11.0092 21.9825 6.3338 21.9825 1.64961 21.9825C0.829217 21.9825 0.273465 21.5771 0.0352858 20.7839C0.0352858 20.7751 0.0352858 20.7487 0 20.7399C0 20.5372 0 20.3257 0 20.1142Z" fill="white"/>
<path d="M8.70654 3C11.794 3 14.2641 5.49397 14.2552 8.60482C14.2552 11.6452 11.7499 14.1303 8.68007 14.1215C5.60139 14.1215 3.12256 11.6187 3.12256 8.53432C3.13138 5.47635 5.62785 3 8.70654 3Z" fill="white"/>
<path d="M19.9542 7.87338C20.7481 7.86456 21.4979 8.032 22.1948 8.39332C23.6592 9.14239 24.5766 10.3321 24.903 11.9448C25.4235 14.5357 23.818 17.0914 21.2509 17.7699C20.9686 17.8493 20.6775 17.9021 20.3776 17.9109C20.36 17.9109 20.3423 17.9109 20.3423 17.9286C20.21 17.9286 20.0777 17.9286 19.9453 17.9286C19.9453 17.7347 19.9453 17.5408 19.9453 17.3381V17.3293C20.1571 17.3381 20.3688 17.3205 20.5717 17.2852C21.6655 17.1178 22.583 16.6331 23.2975 15.7959C24.2414 14.6943 24.5766 13.4253 24.2943 12.0065C24.0473 10.7463 23.3416 9.7769 22.2477 9.09833C21.542 8.6577 20.7657 8.4462 19.9365 8.4462V8.43738C19.9542 8.26113 19.9542 8.06725 19.9542 7.87338Z" fill="white"/>
<path d="M14.9346 13.4165C14.9699 13.4076 14.961 13.3812 14.961 13.3636C15.0228 13.2226 15.1375 13.1521 15.2786 13.1609C15.4109 13.1785 15.5168 13.2755 15.5433 13.4165C15.5697 13.5927 15.605 13.7602 15.6315 13.9364C15.6579 14.0862 15.5609 14.236 15.4109 14.2713C15.261 14.3065 15.1022 14.2184 15.0581 14.0686C15.0051 13.8923 14.9875 13.7161 14.961 13.5398C14.961 13.5222 14.9699 13.4958 14.9434 13.4958C14.9346 13.4693 14.9346 13.4429 14.9346 13.4165Z" fill="white"/>
<path d="M19.9537 17.3477C19.9537 17.5415 19.9537 17.7354 19.9537 17.9381C19.9273 17.9381 19.9008 17.9381 19.8743 17.9381C19.8655 17.9117 19.8479 17.9205 19.8302 17.9117C19.7067 17.85 19.645 17.7178 19.6626 17.5944C19.6891 17.4446 19.8038 17.3565 19.9537 17.3477Z" fill="white"/>
<path d="M19.9541 8.46289C20.7833 8.46289 21.5596 8.67439 22.2653 9.11502C23.3592 9.7936 24.0561 10.763 24.3119 12.0232C24.5942 13.4332 24.2501 14.711 23.3151 15.8126C22.6005 16.6498 21.6743 17.1433 20.5892 17.3019C20.3864 17.3372 20.1746 17.3548 19.9629 17.346C19.9629 16.0065 19.9629 14.667 19.9629 13.3363C19.9894 13.3627 20.0159 13.3803 20.0423 13.4068C20.7216 14.0765 21.392 14.7551 22.0624 15.4249C22.0889 15.4513 22.1154 15.4777 22.1506 15.5042C22.3271 15.6364 22.5653 15.5482 22.6182 15.3279C22.6446 15.2045 22.5917 15.1164 22.5123 15.0283C21.789 14.3057 21.0568 13.5742 20.3334 12.8516C20.2805 12.7987 20.254 12.7458 20.254 12.6665C20.254 11.7764 20.254 10.8952 20.254 10.0051C20.254 9.77597 20.1835 9.68784 19.9629 9.63497C19.9541 9.24721 19.9541 8.85065 19.9541 8.46289Z" fill="#F5842A"/>
<path d="M19.9541 9.63672C20.1746 9.68959 20.2452 9.76891 20.2452 10.0068C20.2452 10.8969 20.2452 11.7782 20.2452 12.6683C20.2452 12.7476 20.2717 12.8004 20.3246 12.8533C21.048 13.576 21.7801 14.2986 22.5035 15.03C22.5829 15.1094 22.6358 15.2063 22.6094 15.3297C22.5564 15.55 22.3183 15.6381 22.1418 15.5059C22.1065 15.4795 22.0801 15.453 22.0536 15.4266C21.3744 14.7568 20.7039 14.0783 20.0335 13.4085C20.007 13.3821 19.9806 13.3645 19.9541 13.338C19.9541 13.3292 19.9541 13.3292 19.9541 13.3204C19.9541 12.0866 19.9541 10.8705 19.9541 9.63672Z" fill="white"/>
<path d="M19.9542 9.64453C19.9542 10.8695 19.9542 12.0856 19.9542 13.3106C19.8836 13.2489 19.813 13.1784 19.7513 13.1167C19.6895 13.055 19.6631 12.9757 19.6631 12.8876C19.6631 11.9094 19.6631 10.9312 19.6631 9.95297C19.6631 9.77672 19.7689 9.67097 19.9542 9.64453Z" fill="white"/>
<path d="M16.3369 10.2442C16.3369 10.297 16.3193 10.3499 16.284 10.4028C16.1958 10.5438 16.1076 10.6936 16.0194 10.8346C15.9312 10.9844 15.7635 11.0285 15.6224 10.9492C15.4813 10.8699 15.4283 10.7024 15.5077 10.5438C15.5959 10.3764 15.693 10.2177 15.7988 10.0591C15.8782 9.94454 16.0105 9.90048 16.134 9.94454C16.2575 9.99742 16.3369 10.1032 16.3369 10.2442Z" fill="white"/>
<path d="M14.961 12.2627C14.9875 12.0776 15.0228 11.8749 15.0757 11.6722C15.1198 11.5312 15.2609 11.4431 15.3933 11.4695C15.5432 11.496 15.6579 11.6193 15.6403 11.7691C15.6138 11.9807 15.5785 12.1922 15.5256 12.3948C15.4903 12.5358 15.3403 12.6152 15.1904 12.5799C15.0492 12.5623 14.9522 12.4301 14.961 12.2627Z" fill="white"/>
<path d="M17.475 16.7386C17.475 16.9765 17.228 17.1175 17.034 16.9942C16.8575 16.8884 16.6988 16.7474 16.5488 16.5976C16.4429 16.4919 16.4429 16.3156 16.54 16.201C16.637 16.0865 16.8046 16.06 16.9281 16.1482C17.0869 16.2627 17.2369 16.3949 17.3868 16.5183C17.4486 16.5888 17.4839 16.6593 17.475 16.7386Z" fill="white"/>
<path d="M15.4463 15.0724C15.4463 14.9402 15.5257 14.8256 15.6492 14.7904C15.7727 14.7463 15.905 14.7904 15.9756 14.8962C16.0814 15.0636 16.1873 15.231 16.2755 15.4073C16.3461 15.5395 16.2931 15.7069 16.1608 15.7862C16.0373 15.8655 15.8697 15.8391 15.7815 15.7245C15.658 15.5571 15.5521 15.3632 15.4551 15.1782C15.4463 15.1341 15.4463 15.0988 15.4463 15.0724Z" fill="white"/>
<path d="M16.8047 9.66232C16.6812 9.66232 16.5842 9.60063 16.5313 9.48607C16.4872 9.3715 16.496 9.25694 16.5842 9.16881C16.7342 9.019 16.9018 8.89562 17.0782 8.78106C17.2017 8.70174 17.3693 8.73699 17.4575 8.85156C17.5457 8.96612 17.5457 9.14237 17.4399 9.23931C17.2811 9.38031 17.1135 9.50369 16.9459 9.62707C16.9106 9.65351 16.8577 9.66232 16.8047 9.66232Z" fill="white"/>
<path d="M18.6926 17.7704C18.6662 17.7616 18.6309 17.7616 18.5956 17.7528C18.428 17.6999 18.2516 17.6382 18.0839 17.5766C17.9252 17.5149 17.8546 17.3474 17.9075 17.1888C17.9693 17.039 18.1281 16.9685 18.2868 17.0214C18.4544 17.0742 18.6221 17.1271 18.7897 17.1888C18.922 17.2329 19.0102 17.3739 18.9837 17.5149C18.9749 17.6647 18.8514 17.7704 18.6926 17.7704Z" fill="white"/>
<path d="M19.0542 8.31469C19.0542 8.44688 18.9836 8.55263 18.8513 8.59669C18.6749 8.65838 18.5072 8.71126 18.3308 8.76413C18.172 8.8082 18.0221 8.72888 17.9691 8.57907C17.9162 8.42925 17.9868 8.27063 18.1367 8.20894C18.3132 8.13844 18.4984 8.07675 18.6837 8.03269C18.8777 7.97981 19.0542 8.12081 19.0542 8.31469Z" fill="white"/>
<path d="M19.9542 7.87305C19.9542 8.06692 19.9542 8.2608 19.9542 8.45468C19.7866 8.44587 19.6631 8.32249 19.6631 8.16386C19.6631 8.00524 19.7866 7.88186 19.9542 7.87305Z" fill="white"/>
</g>
<defs>
<clipPath id="clip0_508_46">
<rect width="25" height="25" fill="white"/>
</clipPath>
</defs>
</svg>
