<svg width="25" height="25" viewBox="0 0 25 25" fill="none" xmlns="http://www.w3.org/2000/svg">
<g clip-path="url(#clip0_508_27)">
<path d="M2.00184 12.5037C2.00184 9.32615 1.99699 6.14983 2.00305 2.97229C2.0079 1.03509 2.98959 0.0338848 4.92875 0.0230152C8.03626 0.00610698 11.1438 0.0230152 14.2513 6.83325e-05C14.6694 -0.00355486 14.7336 0.136542 14.7348 0.507315C14.7421 1.77302 14.6645 3.04234 14.8185 4.30321C14.9833 5.64862 16.228 6.9264 17.566 7.14137C18.8701 7.35031 20.1839 7.21867 21.494 7.23558C21.8697 7.24041 22.0018 7.30804 22.0006 7.71987C21.9824 12.5254 21.9934 17.331 21.9776 22.1365C21.9715 23.9554 20.8917 24.9989 19.0761 24.9989C14.2537 24.9989 9.43124 25.0001 4.60758 24.9989C3.27441 24.9989 2.18242 24.0194 2.05153 22.6969C2.01396 22.3177 2.0079 21.9336 2.0079 21.5532C2.00426 18.5375 2.00547 15.5206 2.00547 12.5049C2.00547 12.5037 2.00426 12.5037 2.00184 12.5037ZM9.02765 3.30321C7.93687 3.30321 7.93687 3.30321 7.93687 4.39983C7.93687 5.40587 7.93687 5.40586 6.93215 5.40586C5.84622 5.40586 5.84622 5.40587 5.84622 6.50731C5.84622 7.552 5.84622 7.552 6.87155 7.552C7.93687 7.552 7.93687 7.552 7.93687 8.61722C7.93687 9.65466 7.93687 9.65466 8.96463 9.65466C10.1124 9.65466 10.1124 9.65466 10.1124 8.48558C10.1124 7.552 10.1124 7.552 11.065 7.552C12.1751 7.552 12.1751 7.552 12.1751 6.42036C12.1751 5.40587 12.1751 5.40586 11.1292 5.40586C10.1087 5.40586 10.1087 5.40586 10.1087 4.35997C10.1087 3.30321 10.1087 3.30321 9.02765 3.30321ZM11.9946 13.4167C13.8913 13.4167 15.788 13.4059 17.6848 13.4264C18.0581 13.43 18.1696 13.3358 18.1526 12.9614C18.1368 12.6233 18.1356 12.4324 17.6836 12.4361C13.8901 12.4578 10.0966 12.4578 6.30313 12.4361C5.84743 12.4336 5.85349 12.6281 5.83531 12.9638C5.81592 13.3406 5.93348 13.43 6.30434 13.4264C8.19987 13.4059 10.0978 13.4167 11.9946 13.4167ZM12.0552 16.3068C10.139 16.3068 8.22169 16.3165 6.30556 16.2984C5.93712 16.2948 5.8135 16.3793 5.83531 16.7597C5.8547 17.0931 5.84379 17.2911 6.30192 17.2875C10.0954 17.2658 13.8877 17.2658 17.6811 17.2875C18.132 17.2899 18.1381 17.1039 18.1538 16.7621C18.1708 16.3877 18.0593 16.2935 17.686 16.2972C15.8086 16.3177 13.9313 16.3068 12.0552 16.3068ZM12.06 20.1498C10.1451 20.1498 8.23017 20.1643 6.31646 20.139C5.88985 20.1329 5.8244 20.2863 5.83652 20.6522C5.84622 20.9699 5.84864 21.1486 6.27404 21.1462C10.0833 21.1269 13.8925 21.1233 17.7005 21.1486C18.1902 21.1522 18.1235 20.9131 18.149 20.6039C18.1805 20.2283 18.0556 20.1353 17.6824 20.1402C15.8086 20.1607 13.9349 20.1498 12.06 20.1498Z" fill="white"/>
<path d="M21.0127 6.22913C19.8032 6.14459 18.4797 6.48396 17.2374 5.95618C16.2533 5.53831 15.7394 4.74 15.7625 3.63251C15.7806 2.71705 15.7661 1.80159 15.7661 0.945312C17.4907 2.68203 19.2529 4.45739 21.0127 6.22913Z" fill="white"/>
</g>
<defs>
<clipPath id="clip0_508_27">
<rect width="25" height="25" fill="white"/>
</clipPath>
</defs>
</svg>
