<svg width="25" height="25" viewBox="0 0 25 25" fill="none" xmlns="http://www.w3.org/2000/svg">
<g clip-path="url(#clip0_508_15)">
<path d="M6.76984 21.9891C5.4949 21.945 3.91508 22.074 2.34218 21.9314C-0.0310163 21.7142 -0.173062 20.3192 0.0971709 18.741C0.46441 16.5654 2.40801 15.0415 4.65995 15.0313C6.31253 15.0245 7.9651 15.0177 9.62114 15.0313C12.3928 15.055 14.5477 17.5599 14.1216 20.2412C13.9795 21.1338 13.3109 21.7108 12.2542 21.8771C11.1629 22.0502 10.0681 21.9654 8.97328 21.9823C8.33927 21.9993 7.70526 21.9891 6.76984 21.9891Z" fill="white"/>
<path d="M19.3807 3.00339C20.8393 3.00339 22.3013 3 23.7598 3.00339C24.6156 3.00679 24.9932 3.36317 24.9967 4.19811C25.0036 6.15648 25.0036 8.11147 24.9967 10.0698C24.9932 10.9048 24.6191 11.2578 23.7598 11.2578C21.7608 11.2612 19.7653 11.2646 17.7662 11.2544C17.4648 11.251 17.2154 11.3257 16.9728 11.4954C16.1518 12.0791 15.3168 12.6493 14.4923 13.2263C14.3329 13.3383 14.17 13.4741 13.9691 13.3926C13.7231 13.2908 13.7751 13.0532 13.7751 12.8496C13.7751 9.95105 13.7716 7.05252 13.7751 4.15738C13.7751 3.40729 14.1804 3.01018 14.9426 3.00679C16.4255 2.99661 17.9048 3 19.3807 3.00339ZM19.2768 8.08771C19.4223 8.06056 19.6994 8.16917 19.7271 7.98928C19.8138 7.45641 20.2919 7.36817 20.6314 7.12379C21.2827 6.65202 21.3867 5.7492 20.8462 5.20275C20.0944 4.44587 18.421 4.59861 17.8251 5.47767C17.4717 5.99696 17.5064 6.06824 18.0988 6.31261C18.4383 6.45177 18.6982 6.52983 18.8679 6.09539C18.9823 5.8035 19.2386 5.67453 19.5678 5.72204C19.7583 5.7492 19.8865 5.84762 19.9004 6.04787C19.9246 6.36013 19.7375 6.52304 19.4777 6.65202C19.1832 6.79796 18.9061 6.97446 18.7675 7.28332C18.5042 7.8637 18.6462 8.0911 19.2768 8.08771ZM19.2629 8.3219C18.7813 8.24044 18.5457 8.42372 18.5527 8.92604C18.5596 9.38085 18.7467 9.56074 19.2179 9.55395C19.6856 9.55055 19.9316 9.43855 19.9212 8.91586C19.9073 8.45088 19.7445 8.24723 19.2629 8.3219Z" fill="white"/>
<path d="M7.04361 14.3473C4.76049 14.31 3.01091 12.5247 3.05248 10.2676C3.09059 8.1633 4.97529 6.3916 7.13716 6.43233C9.40642 6.47306 11.1699 8.28549 11.1248 10.529C11.0832 12.6503 9.23319 14.3812 7.04361 14.3473Z" fill="white"/>
</g>
<defs>
<clipPath id="clip0_508_15">
<rect width="25" height="25" fill="white"/>
</clipPath>
</defs>
</svg>
