<svg width="25" height="25" viewBox="0 0 25 25" fill="none" xmlns="http://www.w3.org/2000/svg">
<path d="M20.9901 18.2513C20.7752 18.0658 20.453 18.0756 20.2674 18.2806C20.0916 18.4857 20.1209 18.808 20.3358 18.9935C20.5506 19.1791 20.8729 19.1693 21.0487 18.9642C21.2342 18.7592 21.2049 18.4369 20.9901 18.2513Z" fill="white"/>
<path d="M19.4082 15.5957C16.8496 15.5957 14.7793 17.666 14.7793 20.2246C14.7793 22.7832 16.8496 24.8535 19.4082 24.8535C21.9668 24.8535 24.0371 22.7832 24.0371 20.2246C24.0371 17.666 21.9668 15.5957 19.4082 15.5957ZM21.6348 20.1562C21.2539 20.5957 20.668 20.752 20.1113 20.6348L18.0117 23.0371L17.2305 23.0664C17.1133 23.0762 16.957 22.9395 16.9473 22.8223L16.8496 21.8555L16.8594 21.8457L17.4355 21.8262L17.377 21.2695L17.9336 21.25L17.8848 20.6934L18.4805 20.6152L18.4414 20.0098L18.8613 19.5313C18.6563 18.9941 18.7344 18.3789 19.1152 17.9297C19.6914 17.2656 20.6484 17.1582 21.3418 17.7734C22.0254 18.3887 22.2109 19.502 21.6348 20.1562Z" fill="white"/>
<path d="M17.1426 13.7402C17.1035 13.6914 17.0742 13.6621 17.0254 13.623C15.3945 12.0117 13.2168 10.9863 10.8145 10.8984C13.7344 10.6641 16.0391 8.32031 16.0391 5.45898C16.0391 2.44141 13.4902 0 10.3359 0C7.19141 0 4.63281 2.44141 4.63281 5.45898C4.63281 8.34961 6.98633 10.7227 9.95508 10.9082C5.31641 11.1621 1.55664 14.873 1.00977 19.6191C1 19.6484 1 19.6777 1 19.707C1 19.7363 1 19.7559 1 19.7852C1 20.3418 1.42969 20.791 1.9668 20.8301C1.98633 20.8301 2.01562 20.8301 2.04492 20.8301C2.07422 20.8301 2.09375 20.8301 2.12305 20.8301C2.12305 20.8301 10.4824 20.8301 12.6699 20.8301C13.0215 20.7715 13.2949 20.498 13.3633 20.1465C13.4219 17.7539 14.75 15.7129 16.8496 14.7754C16.8887 14.7656 16.9277 14.7461 16.9668 14.7266C17.1719 14.6191 17.3086 14.3945 17.3086 14.1504C17.2891 13.9941 17.2305 13.8574 17.1426 13.7402Z" fill="white"/>
</svg>
