<svg width="15" height="15" viewBox="0 0 15 15" fill="none" xmlns="http://www.w3.org/2000/svg">
<g clip-path="url(#clip0_3224_704)">
<path d="M9.35598 2.63083C9.24629 2.99505 9.04105 3.0976 8.74735 3.07284C8.54919 3.05516 8.34395 3.05516 8.14579 3.07284C7.83794 3.0976 7.62208 2.99859 7.51239 2.6273C7.40977 2.99505 7.19392 3.0976 6.88606 3.06931C6.69498 3.05163 6.50389 3.05516 6.31281 3.06931C5.99788 3.09406 5.76079 3.01273 5.67233 2.60962C5.56617 2.98091 5.35386 3.0976 5.03539 3.06931C4.80892 3.05163 4.57537 3.06931 4.34537 3.06577C4.04105 3.06223 3.88889 2.94201 3.83227 2.64144C3.78981 2.42574 3.79335 2.20297 3.86412 1.99081C4.03397 1.46393 4.20736 0.940594 4.37367 0.41372C4.46568 0.130834 4.64261 0 4.94692 0C6.64898 0.00707214 8.35103 0.00353607 10.0566 0.00353607C10.4211 0.00353607 10.5485 0.0990099 10.6617 0.445545C10.828 0.954738 10.9873 1.4604 11.15 1.96959C11.1713 2.04031 11.196 2.11457 11.2031 2.19236C11.2703 2.87836 11.0934 3.06931 10.4105 3.06931C10.276 3.06931 10.1415 3.0587 10.0106 3.07284C9.71338 3.10113 9.47983 3.02334 9.35598 2.63083Z" fill="#283942"/>
<path d="M8.75713 6.51662C8.2405 6.51662 7.72386 6.50955 7.20723 6.52016C7.04446 6.52369 6.99492 6.47419 6.99846 6.31153C7.00907 5.81648 6.99492 5.31789 7.00554 4.81931C7.01261 4.54703 6.89584 4.43741 6.62691 4.44802C6.34028 4.45863 6.05366 4.45509 5.76704 4.45156C5.53703 4.44802 5.43795 4.54703 5.44149 4.78041C5.44856 5.279 5.43087 5.77405 5.44856 6.27263C5.45564 6.4848 5.38487 6.54137 5.19025 6.52369C5.00978 6.50955 4.82578 6.52723 4.64531 6.51308C4.36576 6.4954 4.18529 6.34335 4.18176 6.064C4.16406 5.19413 4.1676 4.32426 4.16406 3.45439C4.16406 3.31648 4.24899 3.30941 4.35515 3.30941C4.59577 3.31294 4.83639 3.33062 5.07348 3.30587C5.4521 3.26697 5.82011 3.23515 6.20936 3.28819C6.62337 3.34123 7.08692 3.43317 7.49032 3.16443C7.50801 3.15382 7.54694 3.16089 7.56817 3.1715C8.00341 3.44024 8.4882 3.32001 8.94113 3.29173C9.22776 3.27405 9.49315 3.221 9.79039 3.29526C10.0416 3.35891 10.3247 3.32001 10.5901 3.30587C10.7635 3.29526 10.8237 3.33416 10.8201 3.52157C10.8095 4.33487 10.8166 5.14463 10.813 5.95792C10.813 6.34335 10.6326 6.51662 10.2504 6.51662C9.75147 6.51662 9.25253 6.51662 8.75713 6.51662ZM9.48607 4.69908C9.48607 4.57532 9.48253 4.45156 9.48607 4.32779C9.49315 4.18281 9.42592 4.1227 9.28791 4.10856C8.54127 4.02016 8.49527 4.05905 8.49527 4.79809C8.49527 4.82638 8.49527 4.85467 8.49527 4.88296C8.49527 5.29314 8.49527 5.29668 8.89513 5.29668C9.59223 5.2896 9.47546 5.37447 9.48607 4.69908Z" fill="#283942"/>
<path d="M13.3944 11.6651C13.2847 11.9657 13.0865 12.0364 12.8317 12.0117C12.6619 11.994 12.4885 11.9975 12.3151 12.0117C12.0603 12.0329 11.8869 11.9409 11.8162 11.6863C11.4588 12.1637 10.4361 12.1566 10.1955 11.6616C10.1 11.9551 9.89472 12.04 9.61164 12.0117C9.42055 11.994 9.22947 12.0046 9.03839 12.0117C8.79423 12.0223 8.66684 11.8879 8.6173 11.6687C8.5713 11.4706 8.57484 11.2691 8.63499 11.0746C8.77653 10.6185 8.93223 10.1694 9.07377 9.71675C9.15162 9.45862 9.3144 9.35254 9.58333 9.35254C11.0554 9.35608 12.5274 9.35961 13.9995 9.35254C14.2967 9.35254 14.4559 9.47984 14.5373 9.75565C14.6612 10.1764 14.7956 10.5937 14.9372 11.0074C15.0009 11.1948 15.008 11.3822 14.9903 11.5732C14.9655 11.8808 14.8204 12.0046 14.5055 12.0081C14.3038 12.0117 14.1056 12.0081 13.9039 12.0081C13.5996 12.0046 13.5678 11.9869 13.3944 11.6651Z" fill="#283942"/>
<path d="M4.80737 11.6622C4.55967 12.136 3.52641 12.1679 3.21148 11.7294C2.86824 12.136 1.92698 12.136 1.58374 11.7117C1.48466 11.9698 1.28296 12.0299 1.03172 12.0123C0.840637 11.9981 0.649554 12.0123 0.458471 12.0087C0.182463 12.0052 0.0303041 11.8744 0.0090727 11.6021C-0.00862015 11.4041 -0.00508158 11.206 0.0621513 11.008C0.207233 10.5837 0.341698 10.1558 0.472625 9.72797C0.554013 9.46276 0.720325 9.34961 1.00341 9.34961C2.47546 9.35668 3.9475 9.35668 5.42309 9.34961C5.69202 9.34961 5.85125 9.45923 5.93264 9.71382C6.07064 10.1594 6.21926 10.6049 6.36081 11.0469C6.41742 11.2237 6.42096 11.4041 6.39619 11.5844C6.35727 11.8956 6.23696 11.9981 5.9291 12.0017C5.75571 12.0017 5.58232 11.9911 5.41247 12.0052C5.12938 12.037 4.90645 11.9734 4.80737 11.6622Z" fill="#283942"/>
<path d="M12.8965 14.9962C12.4471 14.9962 11.9977 14.9892 11.5483 14.9998C11.3856 15.0033 11.3325 14.9538 11.336 14.7876C11.3466 14.3668 11.336 13.946 11.3431 13.5252C11.3466 13.2989 11.2617 13.1893 11.0211 13.2035C10.7911 13.2176 10.5611 13.2176 10.3311 13.2035C10.0869 13.1893 9.98076 13.2777 9.99138 13.5323C10.0055 13.9531 9.98784 14.3739 9.99845 14.7947C10.002 14.9644 9.94537 14.9962 9.78968 14.9998C8.9298 15.0139 8.89796 14.9856 8.89796 14.1334C8.89796 13.5606 8.9015 12.9878 8.89088 12.4114C8.88734 12.2699 8.91919 12.2204 9.07489 12.2134C9.43936 12.1957 9.81445 12.2947 10.1718 12.1037C10.2815 12.0472 10.4443 12.2417 10.6177 12.2204C10.9999 12.1745 11.4033 12.323 11.7642 12.0931C11.7819 12.0825 11.8137 12.0896 11.8385 12.1002C12.3374 12.2947 12.8364 12.2806 13.3389 12.1073C13.3707 12.0967 13.4203 12.0861 13.4415 12.1002C13.7564 12.3159 14.1103 12.1921 14.4464 12.2134C14.5986 12.224 14.6588 12.2487 14.6588 12.4185C14.6481 13.1151 14.6552 13.8152 14.6517 14.5118C14.6481 14.8513 14.5066 14.9892 14.1563 14.9927C13.7387 14.9963 13.3176 14.9927 12.8965 14.9962C12.8965 14.9927 12.8965 14.9927 12.8965 14.9962ZM13.5016 13.4757C13.5016 13.3202 13.5016 13.1964 13.5016 13.0726C13.5016 12.9665 13.4486 12.9277 13.3459 12.9135C12.7267 12.8145 12.6418 12.8817 12.6418 13.5005C12.6418 13.596 12.6418 13.6914 12.6418 13.7869C12.6453 13.8576 12.6665 13.9319 12.7444 13.9354C12.9709 13.9531 13.215 14.0062 13.4203 13.9142C13.6043 13.8258 13.4627 13.5995 13.5016 13.4757Z" fill="#283942"/>
<path d="M4.28484 14.9925C3.85314 14.9925 3.42497 14.9854 2.99327 14.996C2.8128 15.0031 2.74203 14.9571 2.75264 14.7626C2.77034 14.3913 2.75972 14.0165 2.75972 13.6452C2.75972 13.2173 2.74557 13.2032 2.33155 13.2032C2.14047 13.2032 1.94939 13.2138 1.7583 13.1997C1.49999 13.182 1.39029 13.2845 1.39737 13.5462C1.40799 13.9564 1.39029 14.3666 1.40445 14.7768C1.41152 14.9571 1.35137 14.9925 1.18152 14.9925C0.325184 14.996 0.300414 14.9748 0.300414 14.1155C0.300414 13.5533 0.300414 12.9875 0.296875 12.4253C0.296875 12.298 0.296875 12.2202 0.466726 12.2096C0.838276 12.1848 1.2346 12.3298 1.58138 12.0752C1.83261 12.2555 2.12278 12.2272 2.40586 12.2166C2.66064 12.2096 2.92603 12.2732 3.1525 12.0999C3.19143 12.0717 3.2162 12.0893 3.25158 12.0999C3.75052 12.2874 4.24592 12.2874 4.74486 12.1035C4.76963 12.0964 4.80501 12.0787 4.81917 12.0858C5.14118 12.305 5.50565 12.199 5.85243 12.2096C6.0329 12.2131 6.07536 12.2661 6.07182 12.4394C6.06121 13.1077 6.06474 13.776 6.06121 14.4444C6.05767 14.8687 5.93736 14.9889 5.51273 14.9889C5.10579 14.996 4.69532 14.9925 4.28484 14.9925ZM4.91471 13.4684C4.91471 13.3729 4.90763 13.2951 4.91471 13.2209C4.93948 12.9946 4.86517 12.8991 4.61393 12.9097C3.95576 12.9309 4.0513 12.839 4.04422 13.4932C4.04422 13.5886 4.04068 13.6841 4.04422 13.7796C4.04776 13.8468 4.06899 13.9281 4.14684 13.9352C4.37331 13.9564 4.61747 14.0059 4.82271 13.921C5.01379 13.8362 4.87225 13.6063 4.91471 13.4684Z" fill="#283942"/>
<path d="M7.50081 8.10065C6.21984 8.10065 4.93534 8.10772 3.65438 8.09711C3.43145 8.09358 3.33945 8.14662 3.36776 8.38C3.38191 8.49315 3.36776 8.60984 3.36422 8.723C3.36068 8.83969 3.27929 8.85383 3.18375 8.8503C3.08821 8.8503 3.04221 8.8114 3.04221 8.71592C3.04221 8.44718 3.03513 8.17844 3.04221 7.91324C3.04929 7.71875 3.21206 7.76826 3.32529 7.76826C4.56025 7.76472 5.79522 7.75411 7.03018 7.77179C7.30265 7.77533 7.36634 7.694 7.35573 7.4394C7.35219 7.3015 7.22126 7.03629 7.49373 7.02568C7.80159 7.01508 7.66712 7.29443 7.66358 7.4394C7.6565 7.694 7.7202 7.77533 7.99267 7.77179C9.21701 7.75411 10.4414 7.77179 11.6692 7.75765C11.9311 7.75411 12.0089 7.84605 11.9877 8.09004C11.9736 8.28099 11.9842 8.47194 11.9842 8.66288C11.9842 8.78665 11.9346 8.85737 11.7931 8.8503C11.6516 8.84322 11.6586 8.75482 11.6515 8.65228C11.6409 8.47547 11.7329 8.23856 11.6091 8.13247C11.4782 8.01932 11.2446 8.09711 11.0535 8.09711C9.87519 8.09711 8.68623 8.10065 7.50081 8.10065Z" fill="#283942"/>
</g>
<defs>
<clipPath id="clip0_3224_704">
<rect width="15" height="15" fill="white"/>
</clipPath>
</defs>
</svg>
