<svg width="15" height="15" viewBox="0 0 15 15" fill="none" xmlns="http://www.w3.org/2000/svg">
<path d="M7.03746 13.9908C5.37976 13.9908 3.72659 13.9774 2.0689 13.9996C1.57974 14.0041 1.4031 13.8531 1.40763 13.3601C1.42574 10.7976 1.43933 8.23508 1.39857 5.67257C1.38951 5.01528 1.85149 5.27287 2.10513 5.22846C2.5037 5.16184 2.30894 5.51713 2.30894 5.66813C2.32706 7.1559 2.33159 8.63922 2.30894 10.127C2.30442 10.5223 2.4267 10.6155 2.81622 10.6155C5.64699 10.5978 8.48229 10.5978 11.3131 10.6111C11.7071 10.6155 11.8249 10.5089 11.8203 10.1226C11.8022 8.61702 11.8067 7.11148 11.8203 5.60595C11.8203 5.46383 11.6845 5.13075 12.0287 5.2329C12.2687 5.29951 12.7307 4.97975 12.7262 5.62371C12.699 8.2262 12.7081 10.8242 12.7216 13.4267C12.7262 13.8797 12.536 13.9996 12.1147 13.9952C10.4299 13.9819 8.7314 13.9908 7.03746 13.9908Z" fill="#283942"/>
<path d="M7.0694 10.207C6.2315 10.207 5.39812 10.1936 4.56021 10.2114C4.1254 10.2203 4.14805 10.0515 4.3111 9.76285C4.58739 9.27432 5.05843 9.16774 5.57023 9.11444C6.27226 9.04339 6.27226 9.03895 5.9371 8.44828C5.68799 8.00861 5.58835 7.53785 5.6427 7.04045C5.72875 6.23217 6.31302 5.69923 7.10111 5.70812C7.85749 5.71256 8.4327 6.23661 8.52329 7.01824C8.59123 7.60003 8.478 8.15517 8.11113 8.62592C7.8439 8.97233 8.00696 9.05227 8.33759 9.0878C8.87204 9.14553 9.42913 9.15441 9.78241 9.64294C9.88206 9.78061 10.0225 9.94493 9.94547 10.1226C9.86394 10.3002 9.66013 10.2025 9.51972 10.2025C8.69993 10.2114 7.88467 10.2025 7.0694 10.207Z" fill="#283942"/>
<path d="M4.98568 1.47954C4.91774 2.27894 4.85433 3.11387 4.77733 3.95324C4.71845 4.61052 4.29724 4.99246 3.7492 4.89919C3.21022 4.80593 2.95205 4.36626 3.06528 3.74007C3.20116 2.98952 3.35515 2.24341 3.45933 1.48843C3.50462 1.1509 3.60879 0.991023 3.97566 1.03988C4.19306 1.06652 4.415 1.06208 4.6324 1.03988C4.95397 1.01323 5.08985 1.11982 4.98568 1.47954Z" fill="#283942"/>
<path d="M9.81239 1.11198C10.5189 0.881047 10.682 1.18748 10.7454 1.69821C10.836 2.41323 10.999 3.11936 11.1168 3.83438C11.2119 4.3984 10.8858 4.84695 10.3695 4.90469C9.8758 4.96242 9.45911 4.63378 9.40023 4.08308C9.30059 3.16822 9.19641 2.25335 9.16471 1.33848C9.14206 0.698961 9.7218 1.28075 9.81239 1.11198Z" fill="#283942"/>
<path d="M1.86447 4.90853C1.28925 4.89965 0.881624 4.43334 1.03109 3.9537C1.29831 3.101 1.61083 2.25719 1.92788 1.41783C2.05017 1.09807 2.80202 0.884893 3.05566 1.06698C3.20512 1.17356 3.12359 1.32012 3.10095 1.44003C2.95148 2.34158 2.78843 3.24312 2.62538 4.14466C2.54385 4.59321 2.29474 4.88189 1.86447 4.90853Z" fill="#283942"/>
<path d="M11.5341 1.0492C11.9281 1.00479 12.15 1.16023 12.2678 1.51108C12.5214 2.26607 12.8113 3.01661 13.0649 3.7716C13.2506 4.31786 13.0287 4.75752 12.5396 4.88632C12.0685 5.00623 11.6292 4.70423 11.525 4.15353C11.362 3.29196 11.2442 2.4215 11.054 1.56881C10.9498 1.08917 11.1128 0.969263 11.5341 1.0492Z" fill="#283942"/>
<path d="M7.30469 1.15077C7.38621 0.950918 7.54474 1.06639 7.67608 1.06639C7.96143 1.49717 8.39623 1.16853 8.74498 1.27068C8.74951 1.39059 8.75857 1.50606 8.7631 1.62597C8.55928 1.76808 8.57287 1.88799 8.80839 1.97681C8.8718 2.63854 8.93974 3.29582 8.99862 3.95755C9.04391 4.46383 8.79028 4.81024 8.29659 4.89018C7.78932 4.97012 7.3998 4.77027 7.30922 4.20625C7.58097 3.47791 7.38168 2.72292 7.42245 1.98125C7.44056 1.70591 7.5538 1.39503 7.30469 1.15077Z" fill="#283942"/>
<path d="M6.84203 4.20696C6.75598 4.76654 6.36646 4.96639 5.85919 4.8909C5.37003 4.81096 5.11187 4.46899 5.15263 3.9627C5.20698 3.30542 5.27492 2.64814 5.33833 1.98641C5.49685 2.19515 5.53761 2.10632 5.5195 1.91536C5.4742 1.43572 5.54214 1.08931 6.18076 1.26251C6.3257 1.30248 6.45252 1.23587 6.47969 1.06266C6.61104 1.06266 6.76504 0.951636 6.85109 1.14704C6.61104 1.37354 6.71521 1.66221 6.7288 1.91536C6.77409 2.68367 6.56122 3.45642 6.84203 4.20696Z" fill="#283942"/>
<path d="M6.46949 1.06738C6.44232 1.24059 6.3155 1.3072 6.17056 1.26723C5.53647 1.08959 5.464 1.44044 5.50929 1.92007C5.52741 2.11104 5.48665 2.19986 5.32812 1.99113C5.35983 1.71134 5.38701 1.43155 5.41418 1.15176C5.44589 1.12512 5.47759 1.09403 5.50929 1.06738C5.83087 1.06738 6.15245 1.06738 6.46949 1.06738Z" fill="#283942"/>
<path d="M6.83935 4.20729C6.55854 3.45674 6.77141 2.68399 6.72159 1.92456C6.70801 1.67142 6.60383 1.37831 6.84388 1.15625C6.89823 2.16882 6.90729 3.19028 6.83935 4.20729Z" fill="#283942"/>
<path d="M7.29916 1.15137C7.54827 1.39563 7.43503 1.70651 7.42145 1.97741C7.38068 2.71908 7.57997 3.47406 7.30822 4.20241C7.23575 3.18983 7.24934 2.16838 7.29916 1.15137Z" fill="#283942"/>
<path d="M8.74077 1.27167C8.39202 1.16953 7.95269 1.49817 7.67188 1.06738C7.99345 1.06738 8.3105 1.06738 8.63207 1.06738C8.66378 1.09403 8.70001 1.12512 8.73172 1.15176C8.73624 1.19173 8.74077 1.2317 8.74077 1.27167Z" fill="#283942"/>
<path d="M8.81472 1.97292C8.57467 1.8841 8.56561 1.76863 8.76943 1.62207C8.78302 1.74198 8.7966 1.85745 8.81472 1.97292Z" fill="#283942"/>
<path d="M5.52318 1.06641C5.49148 1.09306 5.45524 1.12415 5.42354 1.1508C5.41448 1.0753 5.44166 1.03977 5.52318 1.06641Z" fill="#283942"/>
<path d="M8.74027 1.15097C8.70856 1.12433 8.67233 1.09324 8.64062 1.06659C8.71762 1.04439 8.74933 1.07547 8.74027 1.15097Z" fill="#283942"/>
</svg>
