<svg width="15" height="15" viewBox="0 0 15 15" fill="none" xmlns="http://www.w3.org/2000/svg">
<path d="M7.5625 7.5C9.63379 7.5 11.3125 5.82129 11.3125 3.75C11.3125 1.67871 9.63379 0 7.5625 0C5.49121 0 3.8125 1.67871 3.8125 3.75C3.8125 5.82129 5.49121 7.5 7.5625 7.5ZM10.1875 8.4375H9.69825C9.04786 8.73633 8.32422 8.90625 7.5625 8.90625C6.80078 8.90625 6.08008 8.73633 5.42676 8.4375H4.9375C2.76367 8.4375 1 10.2012 1 12.375V13.5938C1 14.3701 1.62988 15 2.40625 15H12.7188C13.4951 15 14.125 14.3701 14.125 13.5938V12.375C14.125 10.2012 12.3613 8.4375 10.1875 8.4375Z" fill="#283942"/>
</svg>
