<svg width="25" height="25" viewBox="0 0 25 25" fill="none" xmlns="http://www.w3.org/2000/svg">
<path d="M0.859851 10.2575C1.63497 10.7735 2.43296 11.1062 3.31038 11.2569C5.99321 11.7161 8.68446 10.278 9.80261 7.77422C9.94463 7.45477 10.0662 7.12808 10.1432 6.78693C10.1709 6.66397 10.213 6.59647 10.3671 6.59767C11.803 6.60611 13.2401 6.60008 14.676 6.60491C15.1394 6.60611 15.5041 6.97981 15.5101 7.44754C15.5161 7.94178 15.5209 8.43723 15.5065 8.93148C15.5005 9.1328 15.5438 9.2003 15.7628 9.1991C17.3696 9.18825 18.9765 9.1991 20.5845 9.18945C20.9383 9.18704 21.2043 9.31241 21.421 9.58485C22.5343 10.9832 23.65 12.3779 24.7658 13.7739C24.9234 13.9704 24.9969 14.1874 24.9969 14.4441C24.9921 16.4139 24.9945 18.3824 24.9933 20.3522C24.9933 20.9393 24.6466 21.2804 24.0532 21.2804C23.236 21.2816 22.4188 21.284 21.6027 21.2768C21.4595 21.2756 21.3921 21.3142 21.3259 21.4516C20.8493 22.4461 20.0633 23.0042 18.95 23.0006C17.8487 22.997 17.0724 22.4401 16.5957 21.4588C16.5331 21.3298 16.4778 21.2756 16.3261 21.2756C13.7769 21.2816 11.2265 21.2816 8.67724 21.2756C8.51475 21.2756 8.45698 21.3383 8.38958 21.4733C7.90573 22.4497 7.127 23.003 6.0245 22.9994C4.922 22.9958 4.14448 22.4401 3.66906 21.46C3.59804 21.3142 3.52342 21.2732 3.37297 21.2756C2.81691 21.2828 2.25964 21.2828 1.70357 21.2768C1.24982 21.272 0.863461 20.9115 0.863461 20.4679C0.857443 17.0793 0.859851 13.6907 0.859851 10.2575ZM15.5125 15.2349C15.5125 16.403 15.5089 17.5724 15.5149 18.7405C15.5161 19.0057 15.3957 19.3721 15.5654 19.5108C15.7279 19.6446 16.0782 19.5421 16.3466 19.5542C16.4694 19.5602 16.5295 19.5204 16.5849 19.4047C17.0591 18.3945 17.8463 17.8291 18.9704 17.8327C20.0826 17.8352 20.8637 18.3981 21.3343 19.3975C21.3945 19.524 21.4619 19.559 21.5943 19.5566C22.0793 19.5481 22.5644 19.5421 23.0482 19.559C23.248 19.5662 23.2769 19.4963 23.2757 19.3179C23.2673 18.3198 23.2649 17.3216 23.2769 16.3247C23.2793 16.1258 23.2143 16.0956 23.0362 16.0969C21.421 16.1041 19.8045 16.1017 18.1893 16.1005C17.5791 16.1005 17.2385 15.7617 17.2385 15.1566C17.2373 13.8173 17.2348 12.478 17.2421 11.1387C17.2433 10.9639 17.1999 10.9121 17.023 10.9169C16.6018 10.9302 16.1793 10.9338 15.758 10.9157C15.5558 10.9073 15.5077 10.9627 15.5101 11.164C15.5173 12.519 15.5125 13.8764 15.5125 15.2349ZM9.50772 15.2349C8.35949 15.2349 7.21246 15.2301 6.06422 15.2373C5.55751 15.2398 5.17717 15.6122 5.16874 16.0872C5.16152 16.5549 5.54667 16.9564 6.04376 16.9576C8.3306 16.9648 10.6174 16.9612 12.9031 16.9588C13.1751 16.9588 13.4122 16.8551 13.5831 16.6381C13.7937 16.3705 13.8491 16.0739 13.7047 15.7569C13.5422 15.4013 13.2521 15.2361 12.8682 15.2349C11.75 15.2337 10.6295 15.2349 9.50772 15.2349ZM10.3418 14.3718C11.1663 14.3718 11.9908 14.3694 12.8164 14.373C13.009 14.3742 13.1919 14.3429 13.358 14.2476C13.677 14.0632 13.8455 13.6702 13.76 13.3291C13.6529 12.9047 13.334 12.648 12.8814 12.6468C11.1964 12.6432 9.51134 12.6432 7.82509 12.6468C7.28467 12.648 6.88869 13.0241 6.89471 13.5159C6.90072 14.009 7.29551 14.3694 7.84074 14.3706C8.67363 14.3742 9.50772 14.3718 10.3418 14.3718ZM23.0194 14.3718C22.302 13.4737 21.6172 12.613 20.9299 11.7547C20.706 11.4762 20.5279 11.0917 20.2354 10.9579C19.9309 10.8181 19.5145 10.929 19.1486 10.9157C18.9933 10.9097 18.9572 10.9603 18.9572 11.1098C18.9632 12.1332 18.9632 13.1567 18.9572 14.1801C18.956 14.3272 18.9885 14.3766 19.1462 14.3766C20.4184 14.3694 21.6906 14.3718 23.0194 14.3718ZM11.6453 11.7824C12.057 11.7824 12.4698 11.7873 12.8814 11.7812C13.399 11.7728 13.7901 11.3931 13.7865 10.9133C13.7829 10.4311 13.3929 10.061 12.8694 10.0574C12.0449 10.0526 11.2217 10.0526 10.3972 10.0574C9.87242 10.061 9.48486 10.4263 9.47884 10.9109C9.47282 11.4003 9.87121 11.7764 10.4092 11.7812C10.8221 11.7849 11.2337 11.7824 11.6453 11.7824Z" fill="white"/>
<path d="M4.31251 9.64933C1.92938 9.65295 0.00240948 7.73141 2.27703e-06 5.35059C-0.00240493 2.93843 1.9041 1.00604 4.29325 1.00001C6.68841 0.993987 8.61899 2.92034 8.61899 5.31804C8.62019 7.72659 6.71249 9.64692 4.31251 9.64933ZM2.24351 6.44999C2.24713 6.90084 2.406 7.16243 2.72736 7.31673C3.06076 7.47585 3.3761 7.42642 3.65173 7.18653C3.84069 7.02138 4.01762 6.84056 4.18613 6.65492C4.28482 6.54522 4.34621 6.55848 4.43888 6.65974C4.58933 6.8261 4.75062 6.98281 4.9131 7.13832C5.27659 7.48549 5.77849 7.49393 6.12031 7.16363C6.45973 6.83574 6.46334 6.2981 6.12272 5.93163C5.97588 5.77371 5.82543 5.61821 5.66535 5.47475C5.5462 5.36988 5.52212 5.29634 5.65813 5.18062C5.82182 5.04078 5.96866 4.88166 6.1167 4.72495C6.46093 4.3621 6.46454 3.82445 6.12874 3.49295C5.79534 3.16385 5.28261 3.16626 4.91912 3.50379C4.76145 3.65086 4.60257 3.79914 4.46416 3.96308C4.34139 4.10895 4.26075 4.08122 4.15002 3.95464C4.00679 3.79311 3.85153 3.64363 3.69385 3.49656C3.45434 3.27234 3.17149 3.18796 2.85254 3.2844C2.19296 3.48571 2.0389 4.24878 2.54803 4.76834C2.72375 4.94675 3.02224 5.12034 3.03548 5.31322C3.05113 5.53503 2.72255 5.69053 2.54562 5.87497C2.36387 6.06785 2.23509 6.27158 2.24351 6.44999Z" fill="white"/>
</svg>
