<svg width="22" height="25" viewBox="0 0 22 25" fill="none" xmlns="http://www.w3.org/2000/svg">
<g clip-path="url(#clip0_341_258)">
<path d="M2.03465 13.9241C2.03465 10.9869 2.03601 8.04892 2.03125 5.11165C2.03125 4.96386 2.05914 4.91802 2.21492 4.92212C2.66252 4.93444 3.11013 4.92828 3.55773 4.92486C3.64685 4.92418 3.69242 4.94128 3.72031 5.03981C3.87405 5.58922 4.3237 5.94021 4.88967 5.9409C6.93042 5.945 8.97117 5.945 11.0119 5.9409C11.5738 5.93953 12.033 5.57759 12.1765 5.03228C12.2024 4.93376 12.2459 4.92486 12.3269 4.92555C12.8581 4.9276 13.3887 4.9317 13.92 4.92349C14.0431 4.92144 14.0608 4.96181 14.0608 5.07196C14.0574 7.60077 14.0588 10.1303 14.0567 12.6591C14.0567 12.8082 14.1241 13.0073 14.0268 13.0928C13.9424 13.1667 13.7493 13.1188 13.6044 13.1188C12.9017 13.1202 12.199 13.1195 11.4956 13.1195C10.7024 13.1195 10.1868 13.6368 10.1868 14.4305C10.1875 17.2158 10.1861 20.0019 10.1902 22.7873C10.1902 22.9145 10.1643 22.9508 10.0317 22.9508C7.41816 22.946 4.80463 22.946 2.19111 22.9501C2.05778 22.9501 2.03125 22.9104 2.03125 22.7839C2.03533 19.8309 2.03465 16.8778 2.03465 13.9241ZM6.52227 19.473C6.52499 18.5712 5.78488 17.8241 4.88967 17.8261C3.99582 17.8282 3.27543 18.5576 3.27135 19.4648C3.26727 20.3652 3.99173 21.0994 4.88898 21.1048C5.77331 21.1096 6.51955 20.3638 6.52227 19.473ZM3.62916 13.6327C3.40876 13.632 3.28155 13.7086 3.20468 13.8626C3.12645 14.0206 3.1523 14.1889 3.28427 14.323C3.72303 14.7691 4.16384 15.2139 4.60872 15.6538C4.78014 15.8235 5.00735 15.8262 5.18013 15.6538C5.89644 14.9395 6.60866 14.2204 7.3202 13.5006C7.4304 13.3891 7.46578 13.2502 7.41544 13.0963C7.3134 12.7856 6.95967 12.7165 6.71478 12.9615C6.14337 13.5335 5.57264 14.1061 5.00667 14.6836C4.92096 14.7705 4.87742 14.789 4.78355 14.6891C4.49376 14.3819 4.19037 14.0877 3.8931 13.7873C3.80534 13.6997 3.71147 13.6306 3.62916 13.6327ZM7.43516 8.2836C7.44129 8.22955 7.4168 8.16592 7.38347 8.10639C7.24673 7.85871 6.93926 7.82382 6.72566 8.03729C6.14269 8.62023 5.56175 9.20385 4.98422 9.79158C4.91143 9.86547 4.87402 9.86342 4.80395 9.79089C4.49512 9.47274 4.1822 9.15869 3.86725 8.8467C3.6897 8.67086 3.44685 8.67017 3.28359 8.83575C3.11761 9.00338 3.12033 9.24217 3.2972 9.42211C3.72916 9.86068 4.16316 10.2972 4.5992 10.731C4.77742 10.9089 5.00463 10.9109 5.18081 10.7344C5.89236 10.0228 6.60118 9.30785 7.31068 8.59354C7.39163 8.51281 7.43585 8.41702 7.43516 8.2836ZM10.5099 9.22917C10.4732 9.22917 10.4371 9.22917 10.4004 9.22917C9.67183 9.22917 8.94328 9.23122 8.21405 9.2278C8.0195 9.22711 7.86576 9.28664 7.78141 9.47069C7.64876 9.75942 7.86576 10.044 8.21881 10.044C9.73373 10.0447 11.248 10.0447 12.7629 10.0434C12.8248 10.0434 12.8881 10.0386 12.9479 10.0222C13.1166 9.977 13.2384 9.81416 13.2411 9.64037C13.2438 9.47411 13.1323 9.31059 12.9745 9.25311C12.8942 9.22369 12.8098 9.22985 12.7275 9.22985C11.9881 9.2278 11.2493 9.22848 10.5099 9.22917ZM8.3467 19.8726C8.53377 19.8726 8.72084 19.8726 8.90791 19.8726C9.00723 19.8726 9.1045 19.8623 9.18953 19.8028C9.33239 19.7029 9.40245 19.5223 9.35824 19.3642C9.30654 19.1802 9.16096 19.0632 8.95417 19.0598C8.56438 19.0543 8.1746 19.0563 7.78481 19.0584C7.52224 19.0598 7.34401 19.2219 7.33925 19.4573C7.33517 19.6995 7.51407 19.8685 7.78481 19.8726C7.97256 19.8753 8.15963 19.8726 8.3467 19.8726ZM8.5535 15.3651C8.68887 15.3651 8.82356 15.3678 8.95893 15.3644C9.19361 15.3589 9.36708 15.1879 9.37048 14.9628C9.3732 14.7472 9.20586 14.5591 8.98342 14.5516C8.69771 14.542 8.41132 14.5413 8.12562 14.5522C7.90386 14.5605 7.74128 14.7513 7.74604 14.9696C7.75148 15.1879 7.92222 15.3575 8.14739 15.3644C8.28344 15.3685 8.41881 15.3651 8.5535 15.3651Z" fill="white"/>
<path d="M21.9958 19.4718C21.9958 21.1474 21.9903 22.823 22.0005 24.4986C22.0026 24.8366 21.7883 25.0001 21.5073 25.0001C18.17 24.9946 14.8327 24.9967 11.4954 24.996C11.1437 24.996 10.9961 24.8455 10.9961 24.489C10.9961 21.1426 10.9961 17.7968 10.9961 14.4504C10.9961 14.0748 11.1396 13.9332 11.5158 13.9332C12.177 13.9332 12.8382 13.9359 13.4994 13.9304C13.6212 13.929 13.6545 13.9605 13.6538 14.085C13.6491 15.305 13.6525 16.5249 13.6491 17.7455C13.6484 17.9398 13.696 18.0999 13.877 18.1896C14.0572 18.2785 14.215 18.221 14.3667 18.1027C14.6293 17.8974 14.9001 17.7031 15.1633 17.4985C15.2368 17.441 15.2817 17.4328 15.3585 17.4999C15.6368 17.7435 15.9232 17.9788 16.2089 18.2142C16.4129 18.3825 16.5918 18.3805 16.7966 18.2101C17.0653 17.987 17.3381 17.7681 17.5966 17.5327C17.7054 17.4342 17.7734 17.4417 17.8809 17.5286C18.1278 17.7284 18.3891 17.9104 18.638 18.1068C18.785 18.2224 18.9401 18.2737 19.1142 18.1923C19.2979 18.1068 19.3469 17.946 19.3462 17.7517C19.3435 16.5317 19.3475 15.3118 19.3421 14.0912C19.3414 13.9571 19.3809 13.9284 19.5074 13.9297C20.174 13.9359 20.84 13.9325 21.5067 13.9332C21.8543 13.9338 21.9958 14.0782 21.9958 14.4285C21.9951 16.1096 21.9951 17.7907 21.9958 19.4718ZM19.4543 21.7118C19.8809 21.7118 20.3067 21.7125 20.7332 21.7118C20.9958 21.7111 21.174 21.5524 21.1788 21.3164C21.1842 21.0728 21.0019 20.899 20.7346 20.8983C19.8768 20.8969 19.019 20.8969 18.1619 20.8983C17.9108 20.899 17.7204 21.0783 17.7197 21.3061C17.719 21.538 17.9054 21.7111 18.1605 21.7118C18.5918 21.7125 19.0231 21.7118 19.4543 21.7118ZM20.1802 22.7457C19.9829 22.7457 19.7849 22.7457 19.5877 22.7457C19.5775 22.7457 19.5666 22.7457 19.5564 22.7457C19.3292 22.7525 19.1571 22.9174 19.1496 23.135C19.1421 23.3608 19.3074 23.5523 19.54 23.5578C19.9557 23.5674 20.372 23.5674 20.7876 23.5585C21.0196 23.553 21.1863 23.3587 21.1788 23.1356C21.1713 22.9181 21.0005 22.7511 20.7727 22.747C20.5754 22.7429 20.3774 22.7463 20.1802 22.7457Z" fill="white"/>
<path d="M0 13.9334C0 10.5459 0 7.15772 0 3.77024C0 3.21125 0.334684 2.87394 0.89453 2.87325C1.76933 2.87189 2.64346 2.87599 3.51826 2.86915C3.65295 2.86846 3.6822 2.91157 3.6788 3.03678C3.67063 3.34535 3.67131 3.65461 3.6788 3.96319C3.68152 4.0795 3.65159 4.11439 3.53186 4.11303C3.04752 4.1055 2.56387 4.10892 2.07953 4.11029C1.57138 4.11166 1.22717 4.45307 1.22717 4.96417C1.22581 10.9441 1.22717 16.9233 1.22513 22.9032C1.22513 23.4444 1.65845 23.766 2.09449 23.7639C4.73387 23.753 7.37324 23.7598 10.0126 23.7551C10.1568 23.7551 10.1895 23.7934 10.1902 23.9343C10.1929 24.2675 10.1425 24.6048 10.2405 24.9332C10.2561 24.9852 10.2262 24.9976 10.1827 24.9969C10.1514 24.9962 10.1201 24.9969 10.0888 24.9969C7.03312 24.9969 3.97675 24.9969 0.92106 24.9969C0.321759 24.9962 0 24.6705 0 24.065C0 20.6878 0 17.3106 0 13.9334Z" fill="white"/>
<path d="M7.93426 5.12704C6.94586 5.12704 5.95677 5.12772 4.96837 5.12704C4.62688 5.12704 4.48879 4.98678 4.48879 4.64057C4.48811 3.87153 4.48811 3.1018 4.48879 2.33276C4.48879 1.99135 4.63028 1.85108 4.97449 1.85108C5.46903 1.85108 5.9629 1.85108 6.45744 1.85108C6.76423 1.85108 6.92613 1.68551 6.93293 1.37899C6.9377 1.17578 6.90844 0.971887 6.96218 0.770048C7.08871 0.294529 7.56013 -0.046203 8.02474 0.00511201C8.56622 0.0646374 8.95804 0.484052 8.96688 1.01499C8.96892 1.14088 8.96688 1.26609 8.96756 1.39199C8.96892 1.68277 9.13287 1.8504 9.41925 1.85108C9.92944 1.85245 10.4389 1.85108 10.9491 1.85177C11.2552 1.85245 11.4076 2.00435 11.4083 2.31429C11.4097 3.09907 11.4097 3.88453 11.4083 4.66931C11.4076 4.97993 11.2607 5.12635 10.9471 5.12704C9.94236 5.12772 8.93831 5.12704 7.93426 5.12704Z" fill="white"/>
<path d="M16.0893 8.31734C16.0893 9.86637 16.0879 11.4161 16.092 12.9651C16.092 13.0835 16.0696 13.1273 15.941 13.1225C15.6444 13.1122 15.3478 13.1108 15.0512 13.1232C14.9043 13.1293 14.8621 13.0951 14.8628 12.9391C14.8689 10.8872 14.8669 8.83528 14.8669 6.78404C14.8669 6.17716 14.8682 5.56959 14.8662 4.9627C14.8648 4.45913 14.5254 4.11361 14.0275 4.11156C13.4703 4.1095 12.9139 4.10814 12.3568 4.11429C12.2384 4.11566 12.2078 4.08214 12.2112 3.96514C12.2193 3.6463 12.2166 3.32678 12.2119 3.00726C12.2105 2.91215 12.2262 2.87042 12.337 2.8711C13.305 2.87521 14.273 2.87042 15.241 2.87452C15.7519 2.87658 16.0879 3.22004 16.0886 3.73251C16.09 5.26101 16.0886 6.78952 16.0893 8.31734Z" fill="white"/>
<path d="M14.4591 16.9962C14.4591 16.002 14.4604 15.0236 14.457 14.0445C14.457 13.9556 14.4808 13.931 14.5706 13.9317C15.8515 13.9344 17.1318 13.9337 18.4127 13.9323C18.493 13.9323 18.5345 13.9426 18.5338 14.0411C18.5304 15.0202 18.5317 15.9993 18.5317 17.0078C18.3521 16.873 18.1896 16.7506 18.0263 16.6295C17.776 16.4434 17.6263 16.4495 17.3882 16.6507C17.1216 16.8758 16.8502 17.0961 16.5876 17.3267C16.5162 17.3889 16.4753 17.3862 16.4066 17.3273C16.1339 17.0927 15.8563 16.8635 15.5808 16.6322C15.3665 16.4522 15.2067 16.4488 14.9795 16.6199C14.821 16.7382 14.6625 16.8566 14.504 16.975C14.4965 16.9805 14.4876 16.9832 14.4591 16.9962Z" fill="white"/>
<path d="M5.71227 19.4604C5.71363 19.9106 5.33337 20.2931 4.8878 20.2883C4.44224 20.2835 4.07286 19.9106 4.07422 19.4666C4.07558 19.0102 4.4504 18.6339 4.89733 18.6387C5.34153 18.6449 5.71023 19.0164 5.71227 19.4604Z" fill="white"/>
</g>
<defs>
<clipPath id="clip0_341_258">
<rect width="22" height="25" fill="white"/>
</clipPath>
</defs>
</svg>
