<svg width="25" height="25" viewBox="0 0 25 25" fill="none" xmlns="http://www.w3.org/2000/svg">
<g clip-path="url(#clip0_342_2)">
<path d="M9.64896 24.9858C6.63035 24.9858 3.61044 24.9728 0.59182 24.9988C0.0971344 25.0027 1.02969e-05 24.8675 0.00130528 24.3929C0.0181401 18.4621 0.0194351 12.5313 1.0297e-05 6.59912C-0.00128469 6.109 0.119149 5.9946 0.598294 6.005C2.21444 6.0388 3.83317 6.005 5.44932 6.0258C5.87537 6.031 6.01393 5.88669 6.00875 5.46678C5.99192 3.86511 6.01782 2.26215 5.99192 0.660485C5.98415 0.185966 6.05926 -0.00384135 6.60704 5.88025e-05C10.6603 0.0273599 14.715 0.0195596 18.7683 0.00655906C19.1632 0.00525901 19.3173 0.0676616 19.316 0.52138C19.2966 4.89475 19.2966 9.26683 19.316 13.6402C19.3186 14.1186 19.1671 14.2031 18.7346 14.1914C17.5704 14.1615 16.4062 14.194 15.242 14.1745C14.825 14.168 14.6256 14.2486 14.6282 14.7387C14.6489 17.7042 14.645 20.6709 14.6308 23.6363C14.6282 24.0666 14.7823 24.2031 15.1967 24.1966C16.3829 24.1784 17.5691 24.1901 18.754 24.1901C19.0454 24.1901 19.3381 24.1043 19.3238 24.6152C19.3109 25.1028 19.0208 24.9845 18.7683 24.9845C15.7289 24.9871 12.6883 24.9858 9.64896 24.9858ZM12.4837 8.87161C10.8896 8.87161 9.29672 8.86901 7.7026 8.87421C7.43971 8.87551 7.05381 8.77541 7.04086 9.17583C7.0292 9.57494 7.40604 9.51124 7.67799 9.51254C10.887 9.51384 14.0959 9.51384 17.3049 9.51384C17.5846 9.51384 17.9459 9.55674 17.9382 9.16932C17.9317 8.82351 17.5859 8.87161 17.3282 8.87161C15.7147 8.87161 14.0998 8.87161 12.4837 8.87161ZM12.4979 13.6987C14.1542 13.6987 15.8105 13.6987 17.4668 13.7C17.6895 13.7 17.9446 13.6974 17.9472 13.4114C17.9498 13.1579 17.731 13.0669 17.4901 13.0695C17.4254 13.0695 17.3606 13.0682 17.2959 13.0682C14.0908 13.0682 10.8857 13.0682 7.67929 13.0695C7.40216 13.0695 7.03568 13.0318 7.04345 13.4192C7.05122 13.778 7.41122 13.6961 7.65468 13.6961C9.27082 13.7 10.8844 13.6974 12.4979 13.6987ZM9.95069 17.309C9.13485 17.309 8.31901 17.3116 7.50317 17.3077C7.27395 17.3064 7.03309 17.3285 7.03438 17.608C7.03568 17.8667 7.25971 17.946 7.49669 17.946C9.10766 17.946 10.7173 17.946 12.3283 17.9473C12.5679 17.9473 12.7919 17.8654 12.7984 17.6158C12.8061 17.3428 12.5692 17.3064 12.3348 17.309C11.5396 17.3129 10.7458 17.309 9.95069 17.309ZM9.91443 22.1243C10.7096 22.1243 11.5034 22.1217 12.2985 22.1256C12.5199 22.1269 12.7777 22.1347 12.7945 21.8565C12.8126 21.551 12.5575 21.4912 12.3011 21.4912C10.7121 21.4912 9.1232 21.4912 7.53425 21.4912C7.27913 21.4912 7.02143 21.5419 7.03956 21.8526C7.0551 22.1321 7.31151 22.1256 7.53295 22.1256C8.32548 22.1217 9.11931 22.1243 9.91443 22.1243ZM4.82513 21.1389C4.75261 21.0401 4.70599 20.94 4.6283 20.8789C4.48455 20.7671 4.34987 20.8269 4.23203 20.9465C3.94584 21.2364 3.66094 21.5289 3.36698 21.811C3.26856 21.9046 3.1792 22.0996 3.00309 21.9709C2.78682 21.8123 2.56538 21.707 2.40998 21.9904C2.25199 22.2778 2.57833 22.3831 2.70912 22.556C2.96683 22.8979 3.21805 22.8641 3.49648 22.5599C3.82929 22.1958 4.19318 21.8591 4.53635 21.5055C4.63865 21.4002 4.72024 21.2741 4.82513 21.1389ZM3.08726 18.6376C3.17661 18.5791 3.27374 18.5336 3.34496 18.4634C3.77231 18.0422 4.19188 17.6145 4.61664 17.1906C4.76556 17.0424 4.87952 16.8903 4.67103 16.7083C4.48196 16.5419 4.3175 16.6329 4.16987 16.7798C3.94195 17.006 3.7231 17.2414 3.49 17.4624C3.29705 17.6444 3.16755 17.9746 2.7933 17.6288C2.60034 17.4494 2.33617 17.6769 2.38538 17.907C2.4579 18.2489 2.75963 18.4556 3.08726 18.6376ZM2.76222 13.4114C2.54078 13.3789 2.38926 13.4738 2.3802 13.6246C2.36077 13.947 2.67675 14.0692 2.85157 14.2746C2.98237 14.428 3.16496 14.4462 3.30611 14.3084C3.78267 13.8417 4.24627 13.3633 4.70988 12.8849C4.84326 12.7471 4.78887 12.6119 4.66844 12.491C4.53635 12.3584 4.40297 12.3649 4.27347 12.4858C4.10124 12.647 3.95749 12.8537 3.76065 12.9733C3.4395 13.167 3.32165 13.9015 2.76222 13.4114ZM3.07431 10.1847C3.1546 10.1574 3.22971 10.1535 3.26985 10.1132C3.75547 9.62824 4.2385 9.14072 4.71765 8.648C4.82513 8.5375 4.79923 8.4192 4.69304 8.30999C4.54283 8.15658 4.38613 8.16699 4.24239 8.30089C4.02224 8.505 3.82022 8.72861 3.59878 8.93272C3.36309 9.15112 3.20769 9.57884 2.74797 9.18233C2.60034 9.05492 2.33487 9.29543 2.39056 9.48654C2.48768 9.81675 2.75963 10.0417 3.07431 10.1847Z" fill="white"/>
<path d="M23.9938 19.1536C23.9938 20.451 23.9809 21.7485 24.0016 23.0459C24.0081 23.4177 23.9472 23.566 23.5225 23.5621C20.9157 23.54 18.3101 23.5426 15.7033 23.5595C15.32 23.5621 15.2501 23.4347 15.2527 23.081C15.2669 20.4861 15.2708 17.8912 15.2501 15.2963C15.2462 14.8595 15.3731 14.736 15.7927 14.7672C16.4104 14.8127 17.2198 14.5748 17.6031 14.8855C18.0097 15.2144 17.7041 16.0582 17.7274 16.6757C17.752 17.3231 17.7326 17.9731 17.7326 18.6219C17.7326 18.8156 17.7106 19.0314 17.9475 19.1094C18.156 19.1783 18.2532 18.9989 18.3632 18.8702C18.7155 18.462 19.0755 18.0589 19.4096 17.6364C19.5766 17.4245 19.6789 17.4336 19.8408 17.6364C20.1646 18.0407 20.5077 18.4295 20.8444 18.8221C20.9662 18.9638 21.0633 19.1848 21.3003 19.1029C21.5644 19.0119 21.5126 18.7636 21.5126 18.553C21.5139 17.4934 21.5463 16.4326 21.4997 15.3743C21.4751 14.8348 21.6642 14.7048 22.1524 14.7477C22.6017 14.7867 23.0589 14.7854 23.5082 14.7477C23.9265 14.7126 24.0094 14.8777 24.0029 15.2625C23.9809 16.5587 23.9938 17.8561 23.9938 19.1536Z" fill="white"/>
<path d="M0.53125 5.39338C2.19013 3.73192 3.77131 2.14975 5.42501 0.492188C5.42501 1.03821 5.42501 1.53743 5.42501 2.03535C5.42501 3.00649 5.4263 3.97763 5.42501 4.94877C5.42501 5.15677 5.48199 5.39598 5.13623 5.39468C3.6198 5.39078 2.10336 5.39338 0.53125 5.39338Z" fill="white"/>
<path d="M20.9065 17.9692C19.6697 16.4326 19.671 16.4325 18.525 17.7339C18.4887 17.7742 18.4304 17.7963 18.3242 17.8626C18.3242 16.9149 18.3307 16.0191 18.3204 15.1247C18.3178 14.8491 18.411 14.7438 18.6933 14.7503C19.3162 14.7672 19.9391 14.7581 20.562 14.7542C20.7498 14.7529 20.9077 14.7633 20.9065 15.0129C20.9052 15.9489 20.9065 16.885 20.9065 17.9692Z" fill="white"/>
</g>
<defs>
<clipPath id="clip0_342_2">
<rect width="25" height="25" fill="white"/>
</clipPath>
</defs>
</svg>
