<svg width="25" height="25" viewBox="0 0 25 25" fill="none" xmlns="http://www.w3.org/2000/svg">
<g clip-path="url(#clip0_341_279)">
<path d="M0 18.3974C0.988741 16.8997 1.97944 15.4027 2.96492 13.9031C3.08247 13.7248 3.22353 13.6414 3.44492 13.6446C4.14501 13.6549 4.84509 13.653 5.54518 13.6446C5.70779 13.6427 5.76657 13.6728 5.76657 13.8499C5.76069 16.4963 5.76069 19.1427 5.76657 21.7891C5.76722 21.9578 5.7202 21.9931 5.55236 22.0027C5.29505 22.0175 5.16836 21.9572 5.07367 21.6897C4.7517 20.7764 3.87203 20.2094 2.87088 20.219C1.94483 20.228 1.09715 20.8437 0.763433 21.7353C0.728821 21.8283 0.773229 21.9957 0.579269 21.9969C0.380084 21.9982 0.183511 22.0078 0.0672657 21.8032C0.0483268 21.7699 0.0228573 21.7404 0.000653065 21.709C0 20.6051 0 19.5013 0 18.3974ZM3.36198 18.3871C3.71202 18.3871 4.06207 18.3929 4.41211 18.3859C4.86664 18.3762 5.18077 18.0773 5.1886 17.6329C5.19905 17.0415 5.1984 16.4495 5.18926 15.8581C5.18207 15.4117 4.87383 15.1077 4.42256 15.0942C4.08101 15.0839 3.7388 15.0878 3.39725 15.0935C3.11904 15.098 2.89243 15.2116 2.74222 15.445C2.36932 16.0249 1.98858 16.5996 1.63332 17.1896C1.29829 17.7464 1.67707 18.3775 2.33732 18.3865C2.67822 18.391 3.01977 18.3878 3.36198 18.3871Z" fill="white"/>
<path d="M6.60746 16.0723C6.60746 14.1847 6.61203 12.2977 6.60158 10.41C6.60027 10.1804 6.67276 10.1413 6.88566 10.1419C9.64617 10.149 12.4067 10.149 15.1672 10.1406C15.3866 10.14 15.4336 10.1951 15.433 10.4042C15.4238 12.1315 15.4317 13.8595 15.4258 15.5868C15.4238 16.155 15.5531 16.6784 15.9091 17.1332C16.2872 17.6155 16.7763 17.8817 17.4131 17.8836C18.9354 17.8875 20.4577 17.9086 21.9806 17.9106C22.1831 17.9106 22.2347 17.9587 22.2327 18.1588C22.2223 19.3665 22.2242 20.5743 22.2314 21.7814C22.232 21.9437 22.1968 22.0001 22.0192 21.9982C21.1885 21.9886 20.3578 21.9899 19.5277 21.9976C19.3742 21.9989 19.3311 21.9514 19.2919 21.8058C19.0235 20.8026 18.1223 20.1183 17.0807 20.1074C16.0416 20.0965 15.1411 20.7661 14.8518 21.7776C14.806 21.9379 14.7466 22.0001 14.5631 21.9995C11.99 21.9918 9.41695 21.9918 6.84387 21.9995C6.64534 22.0001 6.60484 21.9431 6.6055 21.759C6.61007 19.863 6.60746 17.9676 6.60746 16.0723Z" fill="white"/>
<path d="M24.2676 14.641C23.9777 14.423 23.7301 14.4954 23.5061 14.6994C23.3932 14.8027 23.3083 14.7764 23.1966 14.6962C22.823 14.4281 22.7492 14.4262 22.3822 14.6936C22.266 14.7783 22.1883 14.7789 22.0714 14.6949C21.6926 14.4223 21.6214 14.4223 21.2361 14.7013C21.1218 14.7841 21.05 14.7667 20.9455 14.693C20.5647 14.423 20.4903 14.4217 20.1089 14.6936C19.9979 14.7725 19.9175 14.7821 19.8196 14.6891C19.5009 14.387 19.1058 14.4653 18.7329 14.5063C18.4997 14.532 18.4083 14.7218 18.4155 14.9489C18.4286 15.3972 18.4279 15.8443 18.328 16.2849C18.2561 16.6018 18.1752 16.9244 17.7957 17.0155C17.3667 17.1188 16.9683 17.0578 16.6574 16.7166C16.4034 16.4376 16.2793 16.1021 16.2787 15.7308C16.2754 12.6674 16.278 9.60347 16.2734 6.54013C16.2734 6.3971 16.3022 6.35156 16.4589 6.35156C19 6.35669 21.5411 6.35605 24.0815 6.35349C24.2062 6.35349 24.2715 6.36696 24.2709 6.51704C24.267 9.21285 24.2676 11.908 24.2676 14.641ZM20.2676 9.85554C21.1224 9.85554 21.9773 9.85682 22.8322 9.85489C23.034 9.85425 23.2972 9.91775 23.4199 9.81834C23.5505 9.7125 23.4376 9.44247 23.4637 9.24749C23.4905 9.04737 23.416 8.99862 23.2129 8.99991C21.3896 9.00825 19.5655 9.00311 17.7415 9.00696C17.5332 9.0076 17.2478 8.91396 17.1368 9.04994C17.0316 9.17822 17.1159 9.44761 17.0963 9.65349C17.08 9.82731 17.1446 9.86259 17.3118 9.86067C18.2973 9.85169 19.2828 9.85554 20.2676 9.85554ZM20.2578 12.4045C19.4271 12.4045 18.597 12.4013 17.7663 12.4064C17.5495 12.4077 17.2439 12.3108 17.1388 12.4474C17.0277 12.5918 17.1107 12.8753 17.0976 13.0972C17.0904 13.2242 17.1361 13.2588 17.2635 13.2588C19.2743 13.255 21.2857 13.255 23.2965 13.2588C23.4219 13.2588 23.4722 13.2293 23.4643 13.0997C23.4539 12.9323 23.45 12.763 23.465 12.5962C23.4794 12.434 23.4173 12.4 23.2619 12.4013C22.2607 12.4077 21.2589 12.4045 20.2578 12.4045ZM20.282 7.31046C19.4277 7.31046 18.5735 7.30789 17.7193 7.31238C17.5188 7.31366 17.2452 7.22258 17.1381 7.35086C17.0369 7.47145 17.1198 7.73186 17.097 7.92748C17.0747 8.11798 17.1544 8.14492 17.3268 8.14428C19.1574 8.13786 20.9879 8.14171 22.8185 8.13915C23.0268 8.13915 23.3122 8.22894 23.4219 8.09938C23.5277 7.97495 23.4441 7.70364 23.4637 7.49903C23.48 7.33162 23.4088 7.30725 23.2586 7.30789C22.2673 7.31366 21.2746 7.31046 20.282 7.31046ZM20.2558 11.5431C21.1179 11.5431 21.9806 11.5456 22.8426 11.5411C23.0431 11.5399 23.3161 11.6303 23.4239 11.5033C23.5251 11.3834 23.4421 11.1223 23.4656 10.9267C23.4885 10.7349 23.4082 10.7099 23.2358 10.7105C21.4052 10.7163 19.5753 10.7131 17.7448 10.7163C17.5365 10.7169 17.2517 10.6246 17.1401 10.7554C17.0343 10.8799 17.1179 11.1505 17.0976 11.3551C17.0813 11.5232 17.1531 11.5469 17.3027 11.5463C18.2868 11.5405 19.271 11.5431 20.2558 11.5431Z" fill="white"/>
<path d="M13.5273 9.31425C12.982 9.31425 12.4366 9.31041 11.8913 9.31682C11.7535 9.31874 11.6406 9.2886 11.5348 9.20137C10.0275 7.95256 9.44168 6.35804 9.90471 4.49092C10.3703 2.61225 11.6373 1.43593 13.5906 1.0761C16.0762 0.618139 18.469 2.2768 18.9118 4.71605C18.9333 4.83343 18.951 4.95209 18.9647 5.07075C19.0169 5.51844 19.0163 5.51844 18.5709 5.51844C17.7082 5.51844 16.8455 5.51716 15.9828 5.51908C15.5544 5.51973 15.427 5.64416 15.427 6.0585C15.4257 7.0655 15.4218 8.0725 15.4309 9.0795C15.4329 9.26936 15.382 9.32388 15.1874 9.31939C14.6342 9.30592 14.0804 9.31425 13.5273 9.31425ZM14.8066 4.4813C14.8066 4.28118 14.8125 4.08106 14.8047 3.88159C14.7962 3.66864 14.9013 3.37745 14.7609 3.26584C14.6264 3.15937 14.3416 3.24147 14.1235 3.22992C13.9988 3.22287 13.9531 3.2575 13.9576 3.38707C13.9674 3.65068 13.9622 3.91494 13.9602 4.17856C13.9576 4.58585 14.0543 5.0297 13.9204 5.3908C13.7833 5.76025 13.4156 6.04503 13.1557 6.37279C13.0231 6.54019 12.756 6.70247 12.7913 6.87436C12.8259 7.04049 13.0988 7.15594 13.2589 7.30218C13.3607 7.39518 13.4189 7.38364 13.5064 7.27652C13.8923 6.80189 14.2881 6.33559 14.6799 5.86544C14.7707 5.7564 14.8112 5.6339 14.8086 5.48958C14.802 5.15349 14.8066 4.81739 14.8066 4.4813Z" fill="white"/>
<path d="M18.9766 17.0702C19.0824 16.7745 19.1699 16.5039 19.211 16.2204C19.2508 15.9446 19.2633 15.6668 19.2659 15.375C19.3906 15.3859 19.4592 15.4706 19.5415 15.5257C19.8386 15.7265 20.0815 15.738 20.3702 15.5341C20.4858 15.4526 20.5596 15.4411 20.6804 15.5289C20.971 15.7393 21.214 15.7406 21.5046 15.5334C21.6254 15.4475 21.7018 15.4571 21.8167 15.5386C22.1067 15.7444 22.3399 15.7425 22.6422 15.5328C22.7532 15.4558 22.8238 15.4558 22.9348 15.5341C23.2489 15.756 23.4507 15.7483 23.7825 15.5373C23.8439 15.4981 23.8994 15.4096 23.9901 15.4872C24.3245 15.7733 24.6622 15.7669 25.0031 15.4744C25.0122 16.1992 24.5916 16.8444 24.0208 17.0208C23.9092 17.0555 23.7968 17.0677 23.6852 17.0677C22.123 17.0715 20.5609 17.0702 18.9766 17.0702Z" fill="white"/>
<path d="M17.0618 23.874C16.2612 23.874 15.6022 23.2152 15.6016 22.4135C15.6009 21.6143 16.2631 20.9479 17.0586 20.9453C17.8749 20.9428 18.5247 21.5983 18.5221 22.4218C18.5201 23.2306 17.8736 23.874 17.0618 23.874Z" fill="white"/>
<path d="M4.39253 22.5196C4.39579 23.3208 3.74665 23.9859 2.94599 24.0013C2.15382 24.0167 1.46679 23.3291 1.46875 22.5235C1.47071 21.7262 2.13749 21.056 2.92966 21.0547C3.72314 21.0534 4.38926 21.7205 4.39253 22.5196Z" fill="white"/>
<path d="M2.41406 17.5396C2.74974 17.0111 3.06517 16.5146 3.37995 16.0182C3.41913 15.956 3.47725 15.9457 3.54582 15.947C3.76525 15.9496 3.98468 15.9547 4.20346 15.9457C4.33212 15.9399 4.34583 15.9983 4.34518 16.1022C4.34061 16.5326 4.34191 16.9636 4.34452 17.394C4.34518 17.4819 4.34322 17.5434 4.22109 17.5422C3.63138 17.5364 3.04231 17.5396 2.41406 17.5396Z" fill="white"/>
</g>
<defs>
<clipPath id="clip0_341_279">
<rect width="25" height="25" fill="white"/>
</clipPath>
</defs>
</svg>
