<svg width="25" height="25" viewBox="0 0 25 25" fill="none" xmlns="http://www.w3.org/2000/svg">
<g clip-path="url(#clip0_340_242)">
<path d="M10.2037 18.9919C11.1076 22.011 14.0038 24.1006 17.3315 23.7971C17.2173 24.2579 16.6642 24.7499 16.0775 24.9173C15.838 24.9857 15.5926 24.9995 15.3465 24.9995C10.9713 25.0003 6.59544 25.001 2.22029 24.9995C0.85859 24.9988 0.000845805 24.1436 0.000845805 22.7913C0.000113316 16.6912 -0.000619173 10.5918 0.000845805 4.49179C0.00157829 2.21363 1.48487 0.452249 3.7446 0.0555737C4.02075 0.00680817 4.30861 0.00826386 4.59135 0.00826386C9.48658 0.00535248 14.3825 0.0104474 19.2785 0.000257569C19.8645 -0.00119812 20.4424 -0.00192596 21.0116 0.159655C22.7117 0.642216 23.9576 2.1867 23.9833 3.94372C24.0133 6.01298 23.995 8.08297 23.9899 10.1522C23.9884 10.6617 23.6353 11.0417 23.1204 11.0489C21.9147 11.0664 20.709 11.0562 19.5034 11.0577C19.3803 11.0577 19.2756 10.9973 19.1664 10.955C15.1795 9.39673 10.8197 11.8263 10.0652 15.9677C9.97515 16.4612 9.9583 16.9568 9.9627 17.454C8.29482 17.454 6.63793 17.4518 4.98177 17.4554C4.53788 17.4562 4.2046 17.7422 4.11743 18.1767C4.04272 18.5486 4.28078 18.9584 4.66021 19.1149C4.79865 19.1724 4.94441 19.1775 5.09018 19.1775C6.56981 19.179 8.04943 19.1775 9.52906 19.179C9.77078 19.1775 10.0015 19.1426 10.2037 18.9919ZM17.5806 6.4526C17.5791 6.4526 17.5769 6.4526 17.5755 6.4526C17.5755 7.33256 17.5755 8.2118 17.5755 9.09176C17.5755 9.19876 17.5476 9.30138 17.7293 9.29992C19.1708 9.29338 20.6131 9.29483 22.0546 9.29847C22.1909 9.2992 22.2253 9.25116 22.2224 9.12451C22.215 8.83483 22.2209 8.54442 22.2202 8.25401C22.2143 6.78522 22.2348 5.31571 22.1923 3.84764C22.1608 2.75151 21.1119 1.70924 19.7671 1.76674C18.6251 1.8155 17.6077 2.79591 17.585 3.94881C17.5681 4.78365 17.5806 5.61849 17.5806 6.4526ZM15.1971 6.7612C15.1956 6.33542 15.0315 6.06393 14.7048 5.9169C14.3723 5.7677 14.0434 5.80409 13.7614 6.04646C13.5892 6.19421 13.431 6.35943 13.2757 6.52538C13.1974 6.60908 13.1468 6.62364 13.0626 6.53121C12.9212 6.3769 12.7711 6.23061 12.6172 6.08868C12.2437 5.74513 11.6987 5.75168 11.3669 6.09814C11.0329 6.44678 11.0446 6.94972 11.3969 7.31801C11.5668 7.49487 11.8708 7.66519 11.8767 7.84496C11.8833 8.05386 11.5625 8.20961 11.3903 8.39449C11.038 8.77297 11.0358 9.2941 11.3889 9.63619C11.7339 9.97027 12.2466 9.9659 12.6172 9.6209C12.7637 9.4848 12.908 9.34505 13.0413 9.19657C13.1388 9.08812 13.2062 9.10559 13.2977 9.20312C13.4464 9.36252 13.598 9.52119 13.7636 9.66239C14.0441 9.90258 14.3635 9.95353 14.7026 9.79268C15.0418 9.63182 15.1971 9.3567 15.1963 8.98622C15.1956 8.66597 15.0059 8.45271 14.7942 8.24528C14.3965 7.85588 14.3957 7.85006 14.7942 7.46285C15.0147 7.24959 15.2117 7.02905 15.1971 6.7612ZM6.45554 8.28604C6.45554 8.58737 6.45041 8.81445 6.45627 9.04081C6.46872 9.50518 6.81006 9.8429 7.27153 9.85527C7.75864 9.86837 8.1388 9.56268 8.17176 9.09977C8.19813 8.72929 8.18421 8.35664 8.19007 7.98471C8.19447 7.70376 8.30947 7.53709 8.49845 7.55892C8.7431 7.58731 8.78852 7.76636 8.78852 7.9767C8.78778 8.35737 8.7746 8.74021 8.8039 9.11942C8.83759 9.55613 9.24632 9.90622 9.65139 9.88657C10.1319 9.86328 10.5113 9.50008 10.5201 9.04081C10.5282 8.63249 10.5274 8.22417 10.5201 7.81585C10.5018 6.87475 9.75906 6.00788 8.85078 5.86086C7.83701 5.69637 6.89503 6.25462 6.55882 7.20446C6.42331 7.5844 6.46579 7.97306 6.45554 8.28604ZM7.30962 14.5251C8.06701 14.5251 8.82368 14.5266 9.58107 14.5244C10.1341 14.5229 10.5143 14.183 10.5223 13.6881C10.5311 13.1793 10.1737 12.8067 9.62648 12.8038C8.08533 12.7943 6.54344 12.7943 5.00228 12.8045C4.47928 12.8081 4.10205 13.1917 4.10498 13.6692C4.10718 14.1554 4.50565 14.5229 5.03891 14.5251C5.79483 14.5266 6.55223 14.5251 7.30962 14.5251ZM4.4075 5.82884C4.04199 5.82884 3.67721 5.82811 3.3117 5.82884C3.13736 5.82956 2.96596 5.84776 2.80921 5.93364C2.48105 6.11269 2.29207 6.50719 2.37045 6.85146C2.46421 7.26342 2.78797 7.56329 3.19523 7.54436C3.48603 7.53054 3.54609 7.62734 3.53144 7.89227C3.50947 8.28094 3.51313 8.67325 3.53437 9.06192C3.56074 9.53866 3.96141 9.90112 4.41336 9.88875C4.88582 9.87565 5.25499 9.49208 5.26012 9.00078C5.26451 8.59246 5.27037 8.18414 5.25719 7.77655C5.25133 7.59531 5.30919 7.55019 5.48792 7.55019C6.06292 7.54946 6.43649 7.19791 6.4321 6.68842C6.4277 6.18402 6.04461 5.8383 5.47474 5.83029C5.11948 5.82447 4.76349 5.82811 4.4075 5.82884Z" fill="white"/>
<path d="M11.1172 17.1433C11.1179 14.0856 13.5981 11.6321 16.6863 11.6328C19.7415 11.6335 22.2334 14.1097 22.2356 17.147C22.2371 20.1879 19.7276 22.6837 16.6695 22.6822C13.6018 22.68 11.1165 20.201 11.1172 17.1433ZM19.2874 16.0763C19.2837 15.7175 19.0662 15.406 18.7329 15.2808C18.3784 15.1476 17.996 15.2436 17.7477 15.5479C17.328 16.0617 16.9185 16.5836 16.5032 17.1018C16.3787 17.2576 16.2637 17.5196 16.1208 17.5364C15.9414 17.5575 15.8212 17.2838 15.663 17.1513C15.6557 17.1455 15.6498 17.139 15.6432 17.1324C15.2726 16.786 14.7621 16.7765 14.4134 17.1091C14.0633 17.4432 14.0545 17.9825 14.4105 18.3508C14.7899 18.7439 15.1759 19.1303 15.5729 19.5059C15.9692 19.8807 16.5325 19.8444 16.8738 19.4215C17.6166 18.5029 18.3498 17.5764 19.0867 16.6528C19.2214 16.4846 19.3013 16.2968 19.2874 16.0763Z" fill="white"/>
</g>
<defs>
<clipPath id="clip0_340_242">
<rect width="25" height="25" fill="white"/>
</clipPath>
</defs>
</svg>
