<svg width="25" height="25" viewBox="0 0 25 25" fill="none" xmlns="http://www.w3.org/2000/svg">
<g clip-path="url(#clip0_336_167)">
<path d="M13.8215 25C14.2376 24.4384 14.2906 23.832 14.2891 23.2003C14.2816 18.0482 14.2854 12.8953 14.2846 7.74314C14.2846 6.59308 13.6649 5.73464 12.6336 5.446C12.3904 5.37813 12.1421 5.35576 11.8901 5.3565C10.3926 5.35874 8.89519 5.35352 7.3985 5.36247C7.1979 5.36396 7.13525 5.32667 7.13674 5.10964C7.14793 3.58443 7.14197 2.05922 7.14346 0.53401C7.14346 0.149165 7.29484 0.000745823 7.68561 0.000745823C13.2741 0 18.8634 0 24.4527 0C24.8546 0 24.9986 0.147673 24.9986 0.557876C24.9986 8.51879 24.9986 16.4805 24.9986 24.4414C24.9986 24.8292 24.8539 24.9985 24.5079 24.9985C20.9649 25.0007 17.4219 25 13.8215 25ZM16.0401 4.4645C18.2333 4.4645 20.4265 4.46524 22.6197 4.46375C23.05 4.46375 23.2118 4.30415 23.2133 3.88052C23.2155 3.36963 23.2163 2.858 23.2133 2.34711C23.211 1.95555 23.0447 1.78699 22.6532 1.78699C18.2668 1.7855 13.8804 1.7855 9.49401 1.78699C9.09952 1.78699 8.93173 1.95331 8.92949 2.34189C8.92651 2.83413 8.92874 3.32712 8.92874 3.81936C8.92949 4.32279 9.06969 4.4645 9.57231 4.4645C11.7282 4.4645 13.8842 4.4645 16.0401 4.4645ZM24.2297 17.7178C24.2431 17.553 24.1507 17.4396 24.0425 17.3322C23.6801 16.972 23.3199 16.6095 22.9575 16.2493C22.6301 15.9241 22.4422 15.9248 22.1133 16.2537C21.0484 17.318 19.982 18.3801 18.9238 19.4496C18.7903 19.5846 18.718 19.5995 18.5793 19.4548C18.1363 18.9916 17.6792 18.5419 17.2228 18.0922C16.9685 17.8416 16.7485 17.8386 16.4979 18.084C16.1064 18.4673 15.7187 18.8552 15.3346 19.246C15.0937 19.4913 15.0907 19.7315 15.3324 19.9739C16.3481 20.9942 17.3667 22.013 18.3876 23.028C18.6404 23.2794 18.8575 23.2809 19.111 23.028C20.7628 21.3813 22.4101 19.7315 24.0597 18.0825C24.1611 17.9818 24.2417 17.8714 24.2297 17.7178ZM20.507 7.14275C21.1953 7.14275 21.8829 7.14275 22.5712 7.14275C23.217 7.14275 23.2073 7.14275 23.22 6.50134C23.2245 6.29251 23.1715 6.24254 22.9627 6.24403C21.4847 6.25448 20.0059 6.24925 18.5278 6.24925C17.8492 6.24925 17.8567 6.24925 17.8522 6.91826C17.8515 7.10024 17.8984 7.14872 18.0804 7.14648C18.8888 7.13678 19.6979 7.14275 20.507 7.14275ZM20.5085 8.929C19.8388 8.929 19.1699 8.929 18.5002 8.929C17.8529 8.929 17.8626 8.929 17.8507 9.56891C17.847 9.77476 17.8955 9.82921 18.1065 9.82771C19.5845 9.81727 21.0633 9.82175 22.5414 9.82175C23.2207 9.82175 23.214 9.82175 23.2178 9.15424C23.2185 8.97524 23.1753 8.92229 22.9911 8.92452C22.164 8.93496 21.3363 8.929 20.5085 8.929ZM20.5361 12.5C21.2147 12.5 21.8933 12.5 22.572 12.5C23.2163 12.5 23.2058 12.5 23.2193 11.8578C23.2237 11.646 23.1663 11.6005 22.9605 11.602C21.4824 11.6117 20.0036 11.6072 18.5256 11.6072C17.8477 11.6072 17.8552 11.6072 17.8515 12.2777C17.85 12.462 17.9014 12.5067 18.0811 12.5045C18.8992 12.4948 19.718 12.5 20.5361 12.5ZM20.5346 14.2855C19.856 14.2855 19.1774 14.2855 18.4988 14.2855C17.8537 14.2855 17.8641 14.2855 17.8507 14.9277C17.8462 15.138 17.9022 15.185 18.1087 15.1835C19.5868 15.1738 21.0656 15.1783 22.5436 15.1783C23.2215 15.1783 23.214 15.1783 23.2185 14.5085C23.22 14.325 23.17 14.2788 22.9888 14.281C22.1707 14.2915 21.3527 14.2855 20.5346 14.2855ZM16.0572 7.14275C16.1318 7.14275 16.2056 7.14275 16.2802 7.14275C17.011 7.14275 17.0073 7.14275 16.967 6.40289C16.9603 6.28132 16.9297 6.24403 16.8089 6.24702C16.4935 6.25448 16.1773 6.24925 15.8611 6.24925C15.1303 6.24925 15.134 6.24925 15.1743 6.98911C15.181 7.11068 15.2116 7.14872 15.3324 7.14424C15.574 7.13678 15.8156 7.14275 16.0572 7.14275ZM16.0766 8.929C16.002 8.929 15.9282 8.929 15.8536 8.929C15.1631 8.929 15.1713 8.929 15.172 9.62038C15.172 9.80683 15.2384 9.8307 15.3958 9.82473C15.6926 9.81354 15.9901 9.82175 16.2877 9.82175C16.9782 9.82175 16.97 9.82175 16.9693 9.13037C16.9693 8.94391 16.9029 8.91781 16.7455 8.92601C16.5233 8.9372 16.2996 8.929 16.0766 8.929ZM16.0445 12.5C16.1281 12.5 16.2116 12.5 16.2951 12.5C16.9819 12.5 16.976 12.5 16.9678 11.8012C16.9655 11.6416 16.9208 11.6005 16.7657 11.6035C16.3108 11.6132 15.8544 11.6169 15.3995 11.6028C15.2145 11.5968 15.1713 11.6535 15.1728 11.8325C15.1765 12.5 15.1698 12.5 15.8484 12.5C15.914 12.5 15.9797 12.5 16.0445 12.5ZM16.0542 15.179C16.1288 15.179 16.2026 15.179 16.2772 15.179C16.9864 15.179 16.9819 15.179 16.967 14.4697C16.964 14.3288 16.9349 14.2766 16.7836 14.2825C16.4771 14.2945 16.1706 14.2862 15.8633 14.2862C15.1318 14.2862 15.1347 14.2862 15.1735 15.0231C15.1795 15.1402 15.2026 15.1865 15.3286 15.182C15.571 15.1715 15.8126 15.179 16.0542 15.179Z" fill="white"/>
<path d="M0.00082183 15.7126C0.00082183 13.0343 0.00082183 10.3561 0.00082183 7.67784C0.00082183 6.80299 0.550428 6.25033 1.42145 6.25033C4.93684 6.24959 8.45148 6.25033 11.9669 6.25033C12.8409 6.25033 13.3927 6.8 13.3927 7.67262C13.3935 12.9732 13.3935 18.2745 13.3927 23.5751C13.3927 24.4477 12.8409 25.0003 11.9699 25.0003C8.34335 25.0011 4.7161 25.0003 1.08959 25.0003C0.365486 25.0003 0.0724123 24.7303 0.00827917 23.9987C-0.00365258 23.86 0.00082183 23.7198 0.00082183 23.5803C0.00082183 20.958 0.00082183 18.3349 0.00082183 15.7126ZM6.68186 10.7148C8.29861 10.7148 9.91536 10.7171 11.5321 10.7133C12.1145 10.7118 12.4926 10.3367 12.4986 9.75868C12.5046 9.2105 12.5031 8.66232 12.4986 8.11414C12.4941 7.51898 12.1183 7.14457 11.5194 7.14383C8.30457 7.14159 5.08897 7.14159 1.87411 7.14383C1.26111 7.14383 0.896449 7.51823 0.893466 8.1395C0.891229 8.65039 0.891974 9.16203 0.893466 9.67291C0.894957 10.3613 1.24918 10.7141 1.94271 10.7141C3.52218 10.7148 5.10239 10.7148 6.68186 10.7148ZM0.893466 20.9826C0.893466 21.8283 0.89272 22.6734 0.894212 23.5191C0.894957 23.9465 1.05454 24.1068 1.4826 24.1076C2.87637 24.1091 4.26941 24.1091 5.66318 24.1076C6.08974 24.1068 6.25082 23.9457 6.25082 23.5184C6.25231 21.8276 6.25231 20.1368 6.25082 18.446C6.25082 18.0187 6.08974 17.8583 5.66244 17.8583C4.26866 17.8568 2.87563 17.8568 1.48185 17.8583C1.05454 17.8583 0.895703 18.0187 0.894957 18.4468C0.89272 19.2918 0.893466 20.1376 0.893466 20.9826ZM7.14347 20.9841C7.14347 21.8298 7.14272 22.6749 7.14421 23.5206C7.14496 23.9472 7.30529 24.1068 7.73334 24.1076C9.12712 24.1091 10.5202 24.1091 11.9139 24.1076C12.3397 24.1068 12.5001 23.9457 12.5001 23.5176C12.5008 21.8269 12.5016 20.1361 12.5001 18.4453C12.5001 18.0187 12.339 17.8591 11.9102 17.8583C10.5164 17.8576 9.12339 17.8568 7.72961 17.8583C7.30231 17.8591 7.14421 18.0187 7.14347 18.4483C7.14197 19.2933 7.14347 20.1383 7.14347 20.9841ZM6.25008 14.2858C6.25008 13.5892 6.25157 12.8926 6.24933 12.196C6.24859 11.7687 6.08825 11.6091 5.66095 11.6083C4.26791 11.6068 2.87414 11.6068 1.4811 11.6083C1.0538 11.6083 0.894212 11.7687 0.893466 12.1968C0.891974 13.59 0.891974 14.9832 0.893466 16.3771C0.894212 16.8045 1.05454 16.9648 1.48185 16.9648C2.87488 16.9663 4.26866 16.9663 5.66169 16.9648C6.08825 16.9648 6.24859 16.803 6.24933 16.3764C6.25157 15.679 6.25008 14.9824 6.25008 14.2858ZM9.82214 16.9648C10.5187 16.9648 11.2152 16.9663 11.9124 16.9641C12.339 16.9633 12.4993 16.8022 12.5001 16.3749C12.5016 14.9817 12.5016 13.5885 12.5001 12.1945C12.4993 11.7672 12.339 11.6076 11.9109 11.6076C10.5179 11.6061 9.12414 11.6061 7.7311 11.6076C7.3038 11.6076 7.14421 11.7679 7.14421 12.196C7.14272 13.5892 7.14272 14.9824 7.14421 16.3764C7.14496 16.8037 7.30529 16.9626 7.7326 16.9641C8.42911 16.9656 9.12563 16.9648 9.82214 16.9648Z" fill="white"/>
<path d="M16.0435 3.57135C14.0539 3.57135 12.0636 3.56762 10.0739 3.57657C9.86588 3.57731 9.81218 3.52883 9.81666 3.31926C9.82934 2.67859 9.81964 2.67785 10.4654 2.67785C14.3246 2.67785 18.1838 2.68009 22.0422 2.67188C22.2742 2.67114 22.3346 2.72484 22.3278 2.95753C22.3099 3.5706 22.3226 3.5706 21.7066 3.5706C19.8192 3.57135 17.9317 3.57135 16.0435 3.57135Z" fill="white"/>
<path d="M23.1882 17.7525C23.1323 17.7906 23.0793 17.8159 23.0406 17.8555C21.6595 19.2337 20.2784 20.612 18.9032 21.9963C18.7817 22.1186 18.719 22.1193 18.5982 21.9955C17.8555 21.2408 17.106 20.4919 16.3513 19.7491C16.235 19.6343 16.2372 19.5671 16.3573 19.4694C16.5355 19.324 16.6653 19.0234 16.8644 19.0316C17.0307 19.0383 17.1888 19.3039 17.3461 19.459C17.6899 19.7991 18.0285 20.1429 18.3723 20.4823C18.643 20.75 18.8622 20.75 19.1359 20.477C20.215 19.4016 21.2948 18.3261 22.3657 17.2416C22.5036 17.1022 22.5827 17.091 22.7072 17.2416C22.8191 17.3774 22.9548 17.493 23.0786 17.619C23.1077 17.6504 23.133 17.6862 23.1882 17.7525Z" fill="white"/>
<path d="M6.69674 8.03455C8.24935 8.03455 9.80272 8.03903 11.3553 8.02933C11.5627 8.02784 11.6216 8.07557 11.6126 8.28589C11.5947 8.73115 11.5999 9.17864 11.6111 9.62465C11.6149 9.78276 11.5679 9.82378 11.4113 9.82378C8.268 9.81931 5.12547 9.81931 1.9822 9.82378C1.8256 9.82378 1.77862 9.78351 1.78235 9.62465C1.79279 9.16895 1.79502 8.71325 1.7816 8.25755C1.77638 8.07408 1.82858 8.02858 2.00979 8.03008C3.57211 8.03828 5.13442 8.03455 6.69674 8.03455Z" fill="white"/>
<path d="M5.35631 20.9821C5.35631 21.6608 5.35109 22.3395 5.36004 23.0182C5.36228 23.1755 5.31902 23.2188 5.16093 23.2181C4.10124 23.2113 3.04081 23.2113 1.98112 23.2181C1.82377 23.2188 1.78126 23.1763 1.78126 23.0189C1.78723 21.6615 1.78723 20.3041 1.78126 18.946C1.78051 18.7886 1.82228 18.7454 1.98037 18.7461C3.04006 18.7528 4.10049 18.7528 5.16018 18.7461C5.31753 18.7454 5.36153 18.7871 5.36004 18.9452C5.35184 19.6239 5.35631 20.3034 5.35631 20.9821ZM4.10124 22.5513C4.1512 22.52 4.19073 22.4961 4.22876 22.4707C4.37492 22.373 4.51512 22.2634 4.66949 22.1799C4.82013 22.0986 4.80298 22.0247 4.71572 21.9032C4.53749 21.6556 4.38014 21.3923 4.20266 21.1439C4.11914 21.0276 4.11541 20.9411 4.20042 20.8225C4.3794 20.5749 4.53675 20.3123 4.71423 20.0632C4.7985 19.9446 4.82609 19.8708 4.67173 19.7858C4.47784 19.6784 4.28842 19.439 4.11466 19.4546C3.93643 19.4703 3.84172 19.7716 3.72986 19.9596C3.60905 20.1624 3.54343 20.1684 3.41069 19.9611C3.03186 19.3696 3.02738 19.3793 2.4472 19.8C2.33161 19.8842 2.33683 19.9357 2.40768 20.0379C2.58814 20.2959 2.75444 20.5637 2.93789 20.8195C3.02067 20.9351 3.02514 21.0231 2.94013 21.1409C2.76637 21.3811 2.61574 21.6377 2.44049 21.8763C2.33907 22.0136 2.31595 22.1023 2.49269 22.1911C2.68807 22.2888 2.8663 22.5491 3.04528 22.5043C3.20039 22.4655 3.29361 22.1821 3.41442 22.0068C3.4353 21.9763 3.45618 21.9457 3.47408 21.9129C3.53672 21.7988 3.59339 21.7928 3.66573 21.9099C3.77237 22.0829 3.88945 22.2507 4.0028 22.42C4.03338 22.4648 4.06768 22.5058 4.10124 22.5513Z" fill="white"/>
<path d="M11.6071 20.9948C11.6071 21.6645 11.6011 22.3335 11.6116 23.0033C11.6138 23.1711 11.5772 23.2218 11.3998 23.2203C10.349 23.2106 9.29829 23.2114 8.24755 23.2196C8.07976 23.2211 8.02979 23.1845 8.03128 23.0078C8.03949 21.6593 8.03874 20.3116 8.03203 18.9632C8.03128 18.7954 8.06633 18.7446 8.24307 18.7461C9.29381 18.7558 10.3446 18.7551 11.3953 18.7469C11.5631 18.7454 11.6153 18.7812 11.6123 18.9587C11.6004 19.6366 11.6071 20.3161 11.6071 20.9948ZM9.82179 21.4296C10.0448 21.4296 10.2677 21.4296 10.4907 21.4296C11.1783 21.4296 11.1731 21.4296 11.1649 20.7323C11.1634 20.5749 11.1216 20.5309 10.9643 20.5331C10.3692 20.5421 9.77481 20.5368 9.17971 20.5368C8.44591 20.5368 8.45039 20.5368 8.47798 21.2625C8.4832 21.396 8.51601 21.4356 8.65024 21.4326C9.04026 21.4236 9.43103 21.4296 9.82179 21.4296ZM9.84715 20.0901C10.2677 20.0901 10.2677 20.0901 10.2677 19.6739C10.2677 19.1973 10.2677 19.1974 9.79569 19.1974C9.3751 19.1974 9.3751 19.1973 9.3751 19.6135C9.3751 20.0901 9.3751 20.0901 9.84715 20.0901ZM9.82403 21.8756C9.3751 21.8756 9.3751 21.8756 9.3751 22.3194C9.3751 22.7684 9.3751 22.7684 9.81881 22.7684C10.2677 22.7684 10.2677 22.7684 10.2677 22.3246C10.2677 21.8756 10.2677 21.8756 9.82403 21.8756Z" fill="white"/>
<path d="M3.5703 16.0709C3.04009 16.0709 2.51062 16.0649 1.9804 16.0746C1.8223 16.0776 1.7798 16.0328 1.78129 15.8755C1.788 14.8156 1.788 13.7558 1.78129 12.6953C1.78054 12.5379 1.82305 12.4946 1.9804 12.4961C3.04009 12.5028 4.10052 12.5028 5.16021 12.4961C5.31756 12.4954 5.36081 12.5379 5.35932 12.6953C5.35261 13.7551 5.35261 14.8149 5.35932 15.8755C5.36007 16.0328 5.31756 16.0776 5.16021 16.0753C4.62999 16.0649 4.09978 16.0709 3.5703 16.0709ZM3.59417 15.6241C4.017 15.6241 4.017 15.6241 4.017 15.2094C4.017 14.7306 4.017 14.7306 4.48681 14.7306C4.90964 14.7306 4.90964 14.7306 4.90964 14.3159C4.90964 13.8371 4.90964 13.8371 4.43983 13.8371C4.017 13.8371 4.017 13.8371 4.017 13.4224C4.017 12.9436 4.017 12.9436 3.54719 12.9436C3.12436 12.9436 3.12436 12.9436 3.12436 13.3583C3.12436 13.8371 3.12436 13.8371 2.65454 13.8371C2.23171 13.8371 2.23171 13.8371 2.23171 14.2518C2.23171 14.7306 2.23171 14.7306 2.70152 14.7306C3.12436 14.7306 3.12436 14.7306 3.12436 15.1453C3.12361 15.6241 3.12361 15.6241 3.59417 15.6241Z" fill="white"/>
<path d="M9.84939 12.5C10.3699 12.5 10.8912 12.5059 11.411 12.4962C11.5691 12.4933 11.6116 12.5387 11.6101 12.6961C11.6034 13.7559 11.6034 14.8157 11.6101 15.8763C11.6108 16.0344 11.5676 16.0769 11.4102 16.0754C10.3505 16.0687 9.29009 16.0687 8.2304 16.0754C8.0723 16.0762 8.0298 16.0329 8.03129 15.8756C8.038 14.8157 8.038 13.7559 8.03129 12.6954C8.03054 12.5373 8.07305 12.4933 8.23114 12.4962C8.77106 12.5059 9.31022 12.5 9.84939 12.5ZM9.80315 14.7322C10.0448 14.7322 10.2864 14.7322 10.528 14.7322C11.1649 14.7322 11.1567 14.7322 11.1656 14.0811C11.1678 13.8917 11.1298 13.829 10.927 13.8342C10.3416 13.8492 9.75617 13.8395 9.17002 13.8395C8.45934 13.8395 8.4668 13.8395 8.47649 14.5465C8.47873 14.7188 8.54286 14.7389 8.68753 14.7352C9.05966 14.7262 9.43103 14.7322 9.80315 14.7322Z" fill="white"/>
</g>
<defs>
<clipPath id="clip0_336_167">
<rect width="25" height="25" fill="white"/>
</clipPath>
</defs>
</svg>
