<svg width="25" height="25" viewBox="0 0 25 25" fill="none" xmlns="http://www.w3.org/2000/svg">
<g clip-path="url(#clip0_338_230)">
<path d="M13.9945 0.0056322C15.9699 0.0056322 17.9452 0.00983928 19.9206 2.27559e-05C20.1408 -0.0013796 20.1874 0.0617266 20.1867 0.274885C20.1804 4.20079 20.1811 8.126 20.1853 12.0519C20.1853 12.2258 20.1374 12.331 19.9935 12.4369C18.4121 13.5959 16.8356 14.7627 15.2619 15.9329C15.1299 16.0311 15.0423 16.0416 14.9068 15.9379C14.3975 15.5473 13.8799 15.1659 13.3602 14.7886C12.3617 14.0636 11.1437 14.0615 10.1488 14.7879C9.62347 15.1715 9.10515 15.5662 8.59099 15.9652C8.48329 16.0486 8.41172 16.0542 8.30125 15.9729C6.68373 14.7739 5.06343 13.5784 3.44174 12.3857C3.34655 12.3156 3.31459 12.2391 3.31459 12.1241C3.31737 9.65878 3.31876 7.19273 3.31251 4.72738C3.31181 4.54858 3.38129 4.53526 3.52442 4.53596C4.86749 4.54017 6.20987 4.53315 7.55294 4.54367C7.76416 4.54507 7.80654 4.48127 7.80515 4.28143C7.79682 2.94358 7.80654 1.60573 7.79473 0.268575C7.79265 0.0434959 7.85796 2.27558e-05 8.06849 0.00142512C10.0438 0.0091381 12.0192 0.0056322 13.9945 0.0056322ZM16.5292 3.43861C16.459 3.50242 16.3861 3.56272 16.3194 3.63003C14.977 4.98331 13.6353 6.33729 12.2936 7.69127C11.8038 8.1856 11.3133 8.68064 10.8234 9.17497C10.7512 9.24789 10.6726 9.30188 10.7435 9.43721C11.3508 10.5977 11.9504 11.7623 12.557 12.934C12.5848 12.8898 12.6077 12.8625 12.6209 12.8309C13.9389 9.71137 15.257 6.59182 16.5744 3.47227C16.5883 3.44492 16.6029 3.41617 16.5681 3.39584C16.5646 3.39374 16.5424 3.42389 16.5292 3.43861ZM6.49821 6.83092C7.67314 7.45006 8.82792 8.05588 9.97783 8.67012C10.1265 8.74935 10.1821 8.65049 10.2578 8.57406C12.1088 6.70751 13.9591 4.84027 15.8073 2.97163C15.8497 2.92885 15.9331 2.9001 15.8969 2.7809C12.7689 4.12857 9.64571 5.47414 6.49821 6.83092Z" fill="white"/>
<path d="M19.4695 23.9997C19.3306 23.9997 19.2555 23.9997 19.1805 23.9997C13.4712 23.9997 7.76196 23.999 2.052 24.0011C1.46489 24.0011 0.947946 23.8447 0.520637 23.4163C0.367778 23.2627 0.360135 23.1912 0.546345 23.051C3.11298 21.1192 5.67266 19.1784 8.23443 17.2403C9.01679 16.6485 9.79845 16.0553 10.5822 15.4649C11.3117 14.9159 12.1587 14.8983 12.8904 15.4376C14.6017 16.699 16.306 17.9695 18.0146 19.2344C18.1181 19.3109 18.1834 19.3684 18.1355 19.5275C17.6172 21.2363 18.0264 22.6878 19.3445 23.8791C19.3688 23.9022 19.3931 23.926 19.4695 23.9997Z" fill="white"/>
<path d="M0 10.832C2.5979 12.7512 5.18051 14.6598 7.77841 16.5789C5.18329 18.5436 2.61318 20.4908 0 22.4702C0 18.5717 0 14.7243 0 10.832Z" fill="white"/>
<path d="M23.5043 17.2023C23.0728 17.0368 22.6496 16.8986 22.1973 16.8671C20.7466 16.7647 19.5807 17.3032 18.6969 18.4567C18.5711 18.6207 18.5107 18.6137 18.3627 18.5015C17.5532 17.8894 16.7347 17.2892 15.9204 16.6841C15.8725 16.649 15.828 16.6098 15.7578 16.553C18.3411 14.645 20.9091 12.7484 23.5036 10.832C23.5043 12.9727 23.5043 15.0784 23.5043 17.2023Z" fill="white"/>
<path d="M21.8425 17.6445C23.5753 17.641 25.0052 19.0813 24.9983 20.823C24.9913 22.5619 23.5844 23.9804 21.8557 23.9909C20.1263 24.0021 18.7068 22.5661 18.7109 20.809C18.7151 19.0595 20.111 17.648 21.8425 17.6445ZM23.7594 19.7376C23.7317 19.5679 23.6608 19.4332 23.4989 19.3701C23.3134 19.2972 23.1633 19.3659 23.0313 19.4999C22.4747 20.0622 21.9147 20.6217 21.3617 21.1883C21.2623 21.29 21.2005 21.3124 21.0976 21.1946C20.9552 21.0305 20.7982 20.8791 20.6411 20.7297C20.4577 20.5551 20.218 20.5467 20.061 20.7003C19.8984 20.8595 19.8963 21.0971 20.0735 21.2837C20.3493 21.5733 20.6307 21.8579 20.9177 22.1363C21.1372 22.3495 21.3339 22.3481 21.5513 22.1307C22.2399 21.4421 22.9236 20.7473 23.6101 20.0573C23.7011 19.9661 23.7462 19.8582 23.7594 19.7376Z" fill="white"/>
<path d="M7.0054 0.046875C7.0054 1.24099 7.00471 2.40985 7.0061 3.57802C7.0061 3.66637 6.99568 3.72947 6.88381 3.72947C5.70889 3.72737 4.53466 3.72807 3.34375 3.72807C4.57148 2.49399 5.77767 1.28165 7.0054 0.046875Z" fill="white"/>
<path d="M20.9922 8.95312C21.5911 9.39557 22.1616 9.81698 22.7306 10.2398C22.7785 10.2756 22.873 10.305 22.7612 10.387C22.1775 10.8141 21.5974 11.2446 20.9922 11.6912C20.9922 10.7608 20.9922 9.87307 20.9922 8.95312Z" fill="white"/>
<path d="M2.50736 8.95312C2.50736 9.88429 2.50736 10.7559 2.50736 11.6253C2.42815 11.6716 2.39272 11.5987 2.34964 11.5678C1.83131 11.1899 1.31437 10.8084 0.799515 10.4256C0.74393 10.3842 0.606357 10.3548 0.752962 10.2475C1.32479 9.8282 1.89384 9.40609 2.50736 8.95312Z" fill="white"/>
<path d="M16.5312 3.43741C16.5445 3.42268 16.5667 3.39253 16.5702 3.39464C16.6056 3.41497 16.5903 3.44372 16.5764 3.47106C16.5618 3.45985 16.5465 3.44863 16.5312 3.43741Z" fill="white"/>
</g>
<defs>
<clipPath id="clip0_338_230">
<rect width="25" height="25" fill="white"/>
</clipPath>
</defs>
</svg>
