<svg width="25" height="25" viewBox="0 0 25 25" fill="none" xmlns="http://www.w3.org/2000/svg">
<g clip-path="url(#clip0_337_213)">
<path d="M12.0188 21.2265C11.9415 21.2265 11.8817 21.2265 11.8211 21.2265C8.42787 21.2265 5.03463 21.2279 1.64139 21.2258C0.815877 21.2251 0.20753 20.7529 0.0300378 19.9806C0.00498002 19.8717 0.000803728 19.755 0.000803728 19.6426C0.000107679 14.9282 -0.00058837 10.2145 0.000803728 5.50144C0.000803728 4.62376 0.675972 3.93863 1.5516 3.93793C5.31792 3.93441 9.08425 3.93511 12.8513 3.93793C13.7387 3.93863 14.4216 4.62095 14.4229 5.51198C14.4278 7.89484 14.4236 10.2784 14.4271 12.6613C14.4271 12.7849 14.3965 12.8657 14.2942 12.9459C13.6656 13.4384 13.1318 14.0217 12.7037 14.6998C12.632 14.8129 12.5972 14.8403 12.4782 14.7391C11.9742 14.3119 11.4049 14.2135 10.8098 14.5073C10.2174 14.7996 9.94178 15.3055 9.94526 15.9724C9.95013 16.9098 9.94456 17.8472 9.94735 18.7846C9.95013 19.7157 10.6337 20.3846 11.5566 20.3453C11.7237 20.3383 11.7807 20.3938 11.8183 20.5378C11.8754 20.7641 11.9478 20.9862 12.0188 21.2265ZM7.22719 4.93576C5.604 4.93576 3.98081 4.93506 2.35763 4.93576C1.53072 4.93646 1.00938 5.45646 1.00311 6.29198C0.998938 6.87873 0.997546 7.46619 1.00311 8.05294C1.01147 8.87089 1.53211 9.39651 2.3451 9.39721C5.59147 9.40072 8.83784 9.40072 12.0842 9.39721C12.884 9.39651 13.3963 8.8737 13.4039 8.06559C13.4095 7.48727 13.3851 6.90824 13.4095 6.33062C13.4471 5.43608 12.7796 4.91819 12.0181 4.92873C10.4221 4.95122 8.82462 4.93576 7.22719 4.93576ZM12.9863 11.8588C12.98 11.0022 12.3132 10.3381 11.4613 10.3402C10.6072 10.3423 9.9383 11.0296 9.94595 11.8967C9.95361 12.7393 10.6378 13.4089 11.4863 13.404C12.3278 13.3998 12.9926 12.7147 12.9863 11.8588ZM2.93535 10.3402C2.0973 10.343 1.41657 11.0366 1.42353 11.8792C1.43118 12.728 2.10914 13.4047 2.95066 13.404C3.78801 13.4033 4.47362 12.7175 4.47779 11.8763C4.48266 11.0247 3.79218 10.3367 2.93535 10.3402ZM2.94231 16.8796C3.78244 16.8824 4.46874 16.2043 4.47849 15.3617C4.48823 14.5248 3.80123 13.8193 2.97015 13.8137C2.11331 13.8081 1.42422 14.4904 1.42353 15.3463C1.42283 16.1909 2.10218 16.8768 2.94231 16.8796ZM7.19517 16.8789C8.04783 16.8838 8.74179 16.1909 8.73622 15.3407C8.73065 14.5058 8.05618 13.8193 7.23484 13.813C6.3801 13.8067 5.68474 14.489 5.67987 15.34C5.6743 16.1804 6.35782 16.8747 7.19517 16.8789ZM7.22023 20.3544C8.05897 20.3495 8.74179 19.6574 8.73553 18.8169C8.72926 17.961 8.03808 17.2794 7.18334 17.2864C6.35643 17.2935 5.66595 18.0067 5.67917 18.8408C5.69309 19.6869 6.37731 20.3594 7.22023 20.3544ZM7.20631 13.404C8.04713 13.4047 8.72648 12.7273 8.73553 11.8792C8.74457 11.0401 8.05966 10.343 7.22301 10.3402C6.36826 10.3367 5.67639 11.0247 5.67987 11.8756C5.68335 12.7168 6.36896 13.4033 7.20631 13.404ZM2.95901 20.3544C3.79914 20.3502 4.48197 19.6609 4.47918 18.8204C4.4764 17.9709 3.77896 17.2815 2.92839 17.2864C2.098 17.2914 1.40961 18.0011 1.42422 18.838C1.43884 19.6911 2.11471 20.3586 2.95901 20.3544Z" fill="white"/>
<path d="M15.2488 12.2876C15.2488 10.7957 15.2488 9.3334 15.2488 7.87108C15.2488 7.11778 15.2523 6.36449 15.2481 5.61119C15.2398 4.13271 14.2228 3.10606 12.759 3.10466C9.75697 3.10184 6.75422 3.10044 3.75216 3.11028C3.50019 3.11098 3.43198 3.04844 3.44242 2.79406C3.46399 2.26071 3.44799 1.72596 3.44938 1.1912C3.45147 0.426661 3.86561 0.00644553 4.6257 0.00644553C7.75792 0.00504013 10.8908 0.00574283 14.0231 0.00574283C14.8472 0.00574283 15.672 0.0141752 16.4961 0.000121223C16.7189 -0.00339228 16.7697 0.0689859 16.7641 0.280499C16.7495 0.796984 16.7551 1.31417 16.7606 1.83066C16.7718 2.93109 17.5625 3.71882 18.6581 3.72444C19.1787 3.72725 19.6993 3.73006 20.22 3.72163C20.3703 3.71882 20.4281 3.74482 20.4274 3.91768C20.4211 6.42281 20.4225 8.92864 20.4246 11.4338C20.4246 11.5553 20.4239 11.6347 20.2604 11.5968C18.5453 11.2012 16.911 11.4394 15.3511 12.2468C15.3295 12.2573 15.3052 12.2651 15.2488 12.2876Z" fill="white"/>
<path d="M18.6878 24.9985C15.2089 24.9894 12.3802 22.1329 12.3711 18.6194C12.3614 15.0932 15.2138 12.2318 18.7309 12.2403C22.2105 12.2487 25.0135 15.1255 25.0016 18.6763C24.9898 22.1462 22.1325 25.0076 18.6878 24.9985ZM24.2443 18.6362C24.2736 15.5647 21.8068 13.0441 18.7407 13.0125C15.6774 12.9809 13.1472 15.4699 13.1298 18.5568C13.1124 21.6768 15.5416 24.1595 18.5458 24.2206C21.7107 24.2853 24.2144 21.8026 24.2443 18.6362Z" fill="white"/>
<path d="M10.7766 17.3414C10.7766 16.8425 10.7682 16.3436 10.7794 15.8454C10.7863 15.5277 11.0007 15.2762 11.2938 15.1996C11.575 15.1258 11.8764 15.2431 12.0469 15.4891C12.1318 15.6121 12.1527 15.7266 12.0907 15.8777C11.6306 16.9957 11.4643 18.1593 11.5979 19.3631C11.6153 19.5198 11.5478 19.5437 11.4225 19.5338C11.0731 19.5057 10.7891 19.226 10.7801 18.8642C10.7675 18.3568 10.7766 17.8488 10.7766 17.3414Z" fill="white"/>
<path d="M17.5772 0.658203C18.3178 1.40658 19.0389 2.13528 19.7809 2.88577C19.2686 2.85555 18.7438 2.97501 18.2392 2.8169C17.832 2.68901 17.6072 2.35874 17.5828 1.93009C17.5584 1.51409 17.5772 1.09599 17.5772 0.658203Z" fill="white"/>
<path d="M7.21207 8.55807C5.60698 8.55807 4.00119 8.55807 2.3961 8.55807C1.96107 8.55807 1.82952 8.42245 1.82882 7.97553C1.82812 7.41477 1.82743 6.85402 1.82952 6.29326C1.83091 5.92223 1.98056 5.77396 2.35295 5.77396C5.58957 5.77326 8.8269 5.77326 12.0635 5.77396C12.4464 5.77396 12.5939 5.92364 12.596 6.31504C12.5981 6.88423 12.5988 7.45412 12.596 8.02331C12.5939 8.40699 12.4401 8.55736 12.0552 8.55736C10.4403 8.55877 8.8262 8.55807 7.21207 8.55807Z" fill="white"/>
<path d="M11.478 12.5753C11.0938 12.5817 10.7827 12.2795 10.7736 11.893C10.7646 11.4897 11.0646 11.1692 11.4579 11.1622C11.8407 11.1559 12.1762 11.4883 12.1734 11.8726C12.1713 12.25 11.8553 12.5697 11.478 12.5753Z" fill="white"/>
<path d="M2.95063 12.5766C2.56223 12.5766 2.23857 12.2471 2.24623 11.8585C2.25388 11.4797 2.57337 11.1628 2.94854 11.1621C3.33694 11.1621 3.65085 11.4861 3.64598 11.8831C3.64111 12.2682 3.33206 12.5766 2.95063 12.5766Z" fill="white"/>
<path d="M3.64585 15.3459C3.64655 15.738 3.3201 16.0662 2.93727 16.0577C2.5621 16.0493 2.24679 15.7261 2.24609 15.3487C2.2454 14.9573 2.56837 14.639 2.96094 14.6446C3.34585 14.6495 3.64585 14.9573 3.64585 15.3459Z" fill="white"/>
<path d="M6.51172 15.3445C6.51312 14.9559 6.8145 14.6488 7.19942 14.6446C7.59199 14.6404 7.91426 14.9601 7.91217 15.3515C7.90939 15.7295 7.59408 16.0514 7.21891 16.0584C6.83608 16.0661 6.51033 15.7373 6.51172 15.3445Z" fill="white"/>
<path d="M7.20854 18.1211C7.6018 18.1211 7.9199 18.4443 7.91224 18.8357C7.90458 19.211 7.57883 19.5349 7.20923 19.5363C6.82849 19.537 6.50622 19.2018 6.51179 18.8104C6.51666 18.4211 6.82014 18.1211 7.20854 18.1211Z" fill="white"/>
<path d="M7.91218 11.8663C7.91496 12.2464 7.60592 12.5655 7.22587 12.5753C6.8333 12.5852 6.51382 12.2717 6.51173 11.8747C6.50964 11.4798 6.83052 11.1566 7.21752 11.1622C7.59478 11.1678 7.9094 11.4868 7.91218 11.8663Z" fill="white"/>
<path d="M3.64592 18.8147C3.6487 19.2054 3.32226 19.5406 2.94361 19.5357C2.57331 19.5307 2.25104 19.2047 2.24617 18.8301C2.2406 18.438 2.56008 18.1183 2.95474 18.1211C3.34314 18.1232 3.64314 18.4247 3.64592 18.8147Z" fill="white"/>
<path d="M18.6874 23.391C16.0466 23.3875 13.9529 21.2569 13.957 18.5768C13.9612 15.9719 16.0967 13.8287 18.686 13.8301C21.292 13.8315 23.4351 16 23.4275 18.6295C23.4205 21.2562 21.292 23.3938 18.6874 23.391ZM18.0923 19.6766C17.683 19.1313 17.2932 18.607 16.8978 18.087C16.7162 17.8481 16.4927 17.8053 16.2909 17.9563C16.0974 18.1011 16.0716 18.3513 16.2429 18.5817C16.7308 19.2402 17.2215 19.8965 17.7171 20.5493C17.9377 20.8395 18.2106 20.8515 18.4333 20.5732C19.3375 19.4433 20.2361 18.3084 21.1326 17.1728C21.3052 16.9543 21.2871 16.7231 21.1048 16.5657C20.9196 16.4055 20.6795 16.4413 20.4895 16.6585C20.4491 16.7041 20.4122 16.7526 20.3746 16.8011C19.6215 17.7497 18.8677 18.6991 18.0923 19.6766Z" fill="white"/>
</g>
<defs>
<clipPath id="clip0_337_213">
<rect width="25" height="25" fill="white"/>
</clipPath>
</defs>
</svg>
