<svg width="25" height="25" viewBox="0 0 25 25" fill="none" xmlns="http://www.w3.org/2000/svg">
<g clip-path="url(#clip0_373_29)">
<path d="M12.497 8.93234C16.4161 8.93234 20.3412 8.93234 24.2603 8.93234C24.3498 8.93234 24.4333 8.92638 24.5228 8.93234C24.8389 8.95021 24.994 9.11108 24.994 9.43281C24.994 11.4764 24.994 13.526 24.994 15.5696C24.994 15.8913 24.8389 16.0522 24.5228 16.0701C24.4512 16.076 24.3856 16.0701 24.314 16.0701C16.434 16.0701 8.55404 16.0701 0.680029 16.0701C0.620377 16.0701 0.560725 16.0701 0.495109 16.0701C0.155094 16.0582 0 15.8973 0 15.5458C0 14.1099 0 12.674 0 11.2381C0 10.6483 0 10.0525 0 9.4626C0 9.09916 0.155094 8.93829 0.524934 8.93829C1.24672 8.93234 1.97447 8.93829 2.69625 8.93829C5.96516 8.93234 9.23407 8.93234 12.497 8.93234ZM9.83059 12.4774C9.83059 13.0434 9.83059 13.6094 9.83059 14.1754C9.83059 14.521 9.97972 14.7116 10.2541 14.7176C10.5404 14.7295 10.7134 14.5329 10.7134 14.1814C10.7194 13.8358 10.7134 13.4843 10.7134 13.1387C10.7134 13.0732 10.6836 12.9957 10.7552 12.9481C11.0356 12.7693 11.5903 13.0494 11.6022 13.383C11.6142 13.669 11.6022 13.955 11.6082 14.2469C11.6142 14.5389 11.7931 14.7236 12.0496 14.7236C12.3061 14.7236 12.4851 14.5389 12.497 14.2469C12.503 13.949 12.503 13.6571 12.497 13.3592C12.4911 13.1208 12.4314 12.8885 12.2882 12.6978C12.1809 12.5608 12.1809 12.4714 12.2823 12.3165C12.8251 11.4824 12.2882 10.3861 11.298 10.2967C10.9759 10.2669 10.6538 10.2729 10.3317 10.2789C9.97972 10.2848 9.83655 10.4457 9.83655 10.8032C9.83059 11.3632 9.83059 11.9173 9.83059 12.4774ZM21.8743 12.5131C21.8743 13.0672 21.8683 13.6273 21.8743 14.1814C21.8802 14.5627 22.0353 14.7176 22.4171 14.7236C22.7213 14.7295 23.0255 14.7355 23.3298 14.7116C24.0277 14.658 24.5288 14.1158 24.5407 13.4188C24.5466 12.811 24.5466 12.2033 24.5407 11.5956C24.5347 10.8985 24.0277 10.3563 23.3357 10.3027C23.0434 10.2789 22.7452 10.2848 22.4469 10.2908C22.0294 10.2908 21.8802 10.4457 21.8802 10.8568C21.8743 11.399 21.8743 11.959 21.8743 12.5131ZM0.459318 12.8944C0.459318 13.3353 0.459318 13.7822 0.459318 14.2231C0.459318 14.5269 0.620377 14.7057 0.876879 14.7176C1.15128 14.7295 1.3183 14.5508 1.33023 14.229C1.3362 14.0026 1.33023 13.7762 1.3362 13.5498C1.3362 13.4902 1.30041 13.389 1.41374 13.389C1.68218 13.389 1.9685 13.3413 2.20711 13.4307C2.32045 13.4724 2.23097 13.7822 2.2429 13.9729C2.24887 14.0622 2.2429 14.1456 2.2429 14.235C2.24887 14.5329 2.40993 14.7116 2.67239 14.7176C2.93486 14.7236 3.11978 14.5448 3.11978 14.2469C3.12575 13.3592 3.14364 12.4714 3.11382 11.5837C3.08995 10.8032 2.48151 10.2491 1.74779 10.2789C0.996182 10.3086 0.465283 10.8747 0.459318 11.6611C0.459318 12.0782 0.459318 12.4833 0.459318 12.8944ZM12.9623 12.5072C12.9623 12.8289 12.9504 13.1506 12.9623 13.4724C12.9862 14.1456 13.535 14.6819 14.2269 14.7176C14.9069 14.7534 15.5273 14.2648 15.587 13.5856C15.6526 12.8647 15.6526 12.1437 15.587 11.4228C15.5273 10.7436 14.9189 10.2491 14.2329 10.2789C13.529 10.3086 12.9802 10.8508 12.9563 11.542C12.9563 11.8637 12.9623 12.1854 12.9623 12.5072ZM4.56335 10.2789C4.40229 10.2789 4.27702 10.2789 4.15772 10.2789C3.72226 10.2848 3.58506 10.4218 3.5791 10.8568C3.5791 11.3275 3.5791 11.7982 3.5791 12.2629C3.5791 12.9302 3.57313 13.6035 3.58506 14.2708C3.59103 14.5508 3.77595 14.7176 4.02649 14.7116C4.27702 14.7057 4.44405 14.5269 4.45001 14.2529C4.45598 13.9907 4.45001 13.7286 4.45001 13.4724C4.45001 12.954 4.45001 12.954 4.96898 12.9302C5.59532 12.9004 6.13815 12.4297 6.22167 11.8399C6.31711 11.1547 5.95323 10.5589 5.32093 10.3444C5.06442 10.261 4.79003 10.2848 4.56335 10.2789ZM6.69888 12.4774C6.69888 13.0672 6.69291 13.663 6.69888 14.2529C6.70484 14.5448 6.88976 14.7236 7.15223 14.7236C7.40873 14.7176 7.58172 14.5329 7.58769 14.241C7.59365 13.9907 7.58769 13.7345 7.58769 13.4843C7.58769 12.96 7.58769 12.96 8.10069 12.9361C8.79265 12.9064 9.34741 12.3582 9.36531 11.6909C9.38917 10.9521 8.88809 10.3623 8.17227 10.3027C7.86805 10.2789 7.56383 10.2848 7.2596 10.2848C6.85397 10.2848 6.70484 10.4457 6.69888 10.8627C6.69888 11.399 6.69888 11.9352 6.69888 12.4774ZM19.1959 12.4774C19.1959 13.0494 19.1959 13.6273 19.1959 14.1993C19.1959 14.521 19.3391 14.7057 19.6254 14.7176C20.0847 14.7355 20.55 14.7295 21.0093 14.7176C21.2718 14.7057 21.4269 14.515 21.4149 14.2708C21.403 14.0324 21.23 13.8656 20.9676 13.8596C20.7349 13.8537 20.4963 13.8537 20.2637 13.8596C20.1324 13.8656 20.0668 13.8299 20.0847 13.6869C20.0907 13.6213 20.0847 13.5498 20.0847 13.4783C20.0966 13.3055 20.0131 13.097 20.1205 12.9719C20.21 12.8647 20.4188 12.954 20.5739 12.9302C20.8125 12.9004 20.9735 12.7276 20.9735 12.5012C20.9735 12.2688 20.8065 12.108 20.5679 12.0722C20.4068 12.0484 20.1921 12.1556 20.1086 12.0127C20.037 11.8875 20.0907 11.6909 20.0847 11.5241C20.0847 11.4705 20.0907 11.4168 20.0847 11.3692C20.0608 11.2024 20.1145 11.1309 20.2935 11.1487C20.4903 11.1666 20.6932 11.1547 20.896 11.1547C21.2241 11.1547 21.409 11.0057 21.4149 10.7376C21.4269 10.4576 21.2419 10.2908 20.9019 10.2848C20.5082 10.2789 20.1205 10.2789 19.7268 10.2848C19.351 10.2908 19.2019 10.4516 19.1959 10.8389C19.1959 11.3811 19.1959 11.9292 19.1959 12.4774ZM17.4362 12.3701C17.4183 12.3701 17.4063 12.3701 17.3885 12.3701C17.2453 11.7922 17.0962 11.2083 16.953 10.6304C16.8993 10.4218 16.7681 10.2967 16.5474 10.2848C16.3445 10.2729 16.1954 10.3623 16.1119 10.5529C16.0523 10.69 16.088 10.827 16.1238 10.964C16.2372 11.4347 16.3565 11.9054 16.4758 12.3761C16.6428 13.0494 16.8158 13.7167 16.9888 14.3899C17.0484 14.6163 17.2035 14.7236 17.4302 14.7176C17.645 14.7116 17.7822 14.5865 17.8418 14.378C17.8597 14.3184 17.8776 14.2588 17.8895 14.2052C18.0744 13.4605 18.2653 12.7097 18.4503 11.965C18.5397 11.5956 18.6411 11.2262 18.7246 10.8568C18.7843 10.5768 18.6531 10.3623 18.4204 10.3027C18.158 10.2372 17.9671 10.3563 17.8776 10.6483C17.8597 10.6959 17.8478 10.7495 17.8358 10.7972C17.6986 11.3215 17.5674 11.8458 17.4362 12.3701Z" fill="white"/>
<path d="M4.29297 8.0387C5.50986 5.54228 8.45665 3.36163 11.8807 3.1531C16.3366 2.88499 19.4982 5.60782 20.7151 8.0387C15.239 8.0387 9.77495 8.0387 4.29297 8.0387Z" fill="white"/>
<path d="M4.27734 16.957C9.76529 16.957 15.2294 16.957 20.7412 16.957C20.0194 18.2976 19.0352 19.376 17.8063 20.222C16.5775 21.0681 15.2175 21.5984 13.7381 21.789C9.43125 22.3372 5.82829 19.948 4.27734 16.957Z" fill="white"/>
<path d="M24.1517 8.05592C23.3703 8.05592 22.6306 8.04996 21.8909 8.06187C21.7298 8.06187 21.6941 7.9725 21.6344 7.8593C20.2565 5.24371 18.1567 3.49205 15.3173 2.65792C10.6645 1.28756 5.58811 3.49204 3.39293 7.81163C3.30346 7.99038 3.19608 8.06187 2.98134 8.06187C2.27745 8.044 1.57356 8.05592 0.839844 8.05592C1.09635 7.21583 1.58549 6.59023 2.32517 6.16721C2.57571 6.02422 2.69501 5.85143 2.73677 5.55949C2.95748 3.98656 4.09682 2.89624 5.6597 2.73537C5.89234 2.71154 6.01164 2.58642 6.11305 2.40172C6.60816 1.52589 7.34187 0.977746 8.33209 0.78113C8.8272 0.679843 9.32231 0.697717 9.79952 0.840711C10.062 0.924123 10.2767 0.876459 10.4974 0.703675C11.7382 -0.249614 13.2951 -0.237697 14.518 0.727508C14.7088 0.876459 14.8818 0.918165 15.1204 0.852627C16.6833 0.441521 18.0792 1.02541 18.8785 2.41364C18.9918 2.61025 19.141 2.71154 19.3736 2.74133C20.9723 2.93199 22.0997 4.08189 22.2667 5.67865C22.2906 5.8991 22.4099 6.01826 22.5829 6.11955C23.2808 6.50086 23.7759 7.06092 24.0622 7.80568C24.098 7.87717 24.1219 7.95463 24.1517 8.05592Z" fill="white"/>
<path d="M0.869277 16.9513C1.62685 16.9513 2.38443 16.9572 3.14797 16.9453C3.29113 16.9453 3.31499 17.0406 3.35675 17.13C4.25749 18.8817 5.54596 20.2759 7.24007 21.2887C9.14296 22.4208 11.2009 22.9272 13.408 22.6948C17.1303 22.3016 19.8624 20.4129 21.64 17.136C21.6937 17.0347 21.7235 16.9453 21.8786 16.9453C22.6302 16.9513 23.3758 16.9513 24.1573 16.9513C23.9306 17.7258 23.4832 18.3097 22.833 18.7446C22.7495 18.8042 22.6541 18.8578 22.5646 18.9055C22.3856 19.0008 22.3021 19.1379 22.2782 19.3404C22.0754 20.9849 20.9659 22.0871 19.3136 22.2718C19.0929 22.2956 18.9795 22.4267 18.8841 22.5995C18.389 23.4753 17.6612 24.0235 16.671 24.2261C16.1819 24.3273 15.6987 24.3154 15.2274 24.1724C14.9411 24.0831 14.7204 24.1248 14.4818 24.3095C13.2828 25.233 11.7199 25.233 10.5209 24.3035C10.2883 24.1248 10.0795 24.089 9.80509 24.1605C8.37345 24.5537 6.90006 23.9401 6.16038 22.6531C6.02318 22.4148 5.86212 22.2897 5.57579 22.248C4.01292 22.0335 2.91533 20.8955 2.73041 19.3345C2.70655 19.1081 2.58724 18.977 2.39636 18.8757C1.71036 18.4944 1.21526 17.9403 0.928928 17.2075C0.899102 17.13 0.857346 17.0526 0.869277 16.9513Z" fill="white"/>
<path d="M10.7148 11.5821C10.7148 11.1353 10.8461 11.04 11.2756 11.177C11.4903 11.2425 11.6096 11.3915 11.6037 11.6179C11.5977 11.8443 11.4724 11.9873 11.2517 12.0409C10.7924 12.166 10.7148 12.1005 10.7148 11.5821Z" fill="white"/>
<path d="M22.7578 12.4766C22.7578 12.0953 22.7638 11.708 22.7578 11.3267C22.7578 11.1896 22.7996 11.1539 22.9368 11.1479C23.5154 11.1301 23.6705 11.273 23.6705 11.851C23.6705 12.3276 23.6764 12.8102 23.6705 13.2869C23.6645 13.7337 23.247 14.0078 22.8354 13.8529C22.7399 13.8171 22.7697 13.7397 22.7697 13.6801C22.7578 13.275 22.7578 12.8758 22.7578 12.4766Z" fill="white"/>
<path d="M2.2436 11.9886C2.2436 12.501 2.2436 12.501 1.73656 12.501C1.33689 12.501 1.33689 12.501 1.33689 12.1137C1.33689 11.929 1.33093 11.7443 1.34882 11.5655C1.37268 11.3272 1.5576 11.1604 1.77831 11.1544C2.00499 11.1485 2.21377 11.3332 2.23763 11.5715C2.25553 11.7085 2.2436 11.8515 2.2436 11.9886Z" fill="white"/>
<path d="M14.7477 12.5187C14.7477 12.7988 14.7536 13.0728 14.7477 13.3529C14.7417 13.6448 14.5449 13.8533 14.2884 13.8533C14.0438 13.8533 13.8469 13.6627 13.841 13.3767C13.829 12.7988 13.829 12.2149 13.841 11.631C13.8469 11.345 14.0498 11.1543 14.2943 11.1603C14.5508 11.1603 14.7417 11.3688 14.7477 11.6667C14.7477 11.9468 14.7477 12.2327 14.7477 12.5187Z" fill="white"/>
<path d="M4.45703 11.6071C4.45703 11.1543 4.45703 11.1543 4.74336 11.1543C5.14899 11.1543 5.3697 11.3211 5.3697 11.6131C5.3697 11.905 5.14303 12.0718 4.73739 12.0718C4.45703 12.0659 4.45703 12.0659 4.45703 11.6071Z" fill="white"/>
<path d="M7.58619 11.5954C7.58619 11.5894 7.58022 11.5775 7.58619 11.5716C7.6697 11.4405 7.40127 11.1605 7.77707 11.1545C8.24235 11.1485 8.46307 11.2737 8.48096 11.5775C8.49886 11.8635 8.3199 12.0482 8.00375 12.072C7.58619 12.1018 7.58619 12.1018 7.58619 11.5954Z" fill="white"/>
</g>
<defs>
<clipPath id="clip0_373_29">
<rect width="25" height="25" fill="white"/>
</clipPath>
</defs>
</svg>
