<svg width="23" height="25" viewBox="0 0 23 25" fill="none" xmlns="http://www.w3.org/2000/svg">
<g clip-path="url(#clip0_373_17)">
<path d="M11.7352 25.0006C3.78207 25.0033 -1.74765 17.5892 0.507679 10.2713C0.728977 9.55447 1.14972 9.23465 1.65242 9.44199C2.29173 9.70624 2.22479 10.1955 2.07179 10.7457C1.10737 14.2176 1.71116 17.3995 4.15364 20.0814C6.91987 23.1183 10.4238 24.1238 14.3702 22.9367C18.314 21.7496 20.6718 18.9864 21.2687 14.9412C22.0925 9.3661 18.0312 4.40079 12.3485 3.84653C11.951 3.80723 11.8158 3.9048 11.8499 4.29915C11.8786 4.63523 11.8745 4.97673 11.8513 5.31417C11.8089 5.92535 11.3171 6.21129 10.8076 5.87927C9.6697 5.13529 8.54955 4.3642 7.44443 3.57143C6.94446 3.21367 6.96358 2.78408 7.47858 2.41819C8.54682 1.65388 9.62599 0.903121 10.7229 0.178111C11.3294 -0.221662 11.8212 0.0778288 11.8567 0.813681C11.8786 1.26088 11.6573 1.85038 11.9483 2.11464C12.2215 2.36263 12.8034 2.27319 13.2501 2.33417C18.273 3.02259 22.3957 7.26153 22.9312 12.2905C23.5978 18.5514 19.3372 24.0059 13.0575 24.9125C12.5425 24.9884 12.0138 24.9843 11.7352 25.0006Z" fill="white"/>
<path d="M11.5723 17.3732C10.4576 17.3732 9.33883 17.3271 8.22824 17.3895C7.49467 17.4301 7.22283 17.1144 7.08486 16.4639C6.50156 13.7102 5.87592 10.966 5.30082 8.20963C5.19426 7.69738 5.00848 7.45616 4.4648 7.53476C4.2435 7.56728 4.00854 7.54831 3.78451 7.5212C3.44847 7.48055 3.24083 7.28405 3.24219 6.93849C3.24219 6.59699 3.43617 6.36932 3.77905 6.35712C4.41426 6.33273 5.0522 6.33679 5.68877 6.35306C6.03574 6.36254 6.1983 6.59699 6.26387 6.91951C6.35813 7.38298 6.47834 7.84238 6.55757 8.3072C6.6286 8.7273 6.81439 8.87637 7.27611 8.8723C10.28 8.84655 13.2839 8.85875 16.2879 8.8601C16.4928 8.8601 16.7031 8.84113 16.8999 8.88314C17.4162 8.99155 17.52 9.33305 17.3998 9.80465C17.0091 11.3319 16.6116 12.8578 16.2551 14.3932C16.1335 14.915 15.8644 15.083 15.3508 15.0803C13.12 15.064 10.8906 15.0694 8.65991 15.0844C8.48095 15.0857 8.06978 14.877 8.1613 15.3554C8.22277 15.6793 8.07251 16.159 8.71318 16.1536C10.8756 16.1346 13.0367 16.1427 15.1991 16.1495C15.7947 16.1509 16.0761 16.4355 15.9723 16.8962C15.8781 17.3177 15.5598 17.3759 15.1909 17.3732C13.9847 17.3692 12.7785 17.3732 11.5723 17.3732Z" fill="white"/>
<path d="M9.99451 19.1552C9.99041 19.7678 9.48224 20.2759 8.86889 20.2854C8.22959 20.2949 7.71186 19.761 7.73098 19.1119C7.75011 18.4858 8.25144 18.0115 8.87982 18.0237C9.50273 18.0359 9.99997 18.54 9.99451 19.1552Z" fill="white"/>
<path d="M15.5512 19.1524C15.5512 19.773 15.0539 20.2758 14.4351 20.2826C13.7958 20.2894 13.2535 19.7432 13.274 19.1131C13.2931 18.5087 13.8204 18.0154 14.4392 18.0235C15.0662 18.0317 15.5512 18.5249 15.5512 19.1524Z" fill="white"/>
</g>
<defs>
<clipPath id="clip0_373_17">
<rect width="23" height="25" fill="white"/>
</clipPath>
</defs>
</svg>
