<svg width="25" height="25" viewBox="0 0 25 25" fill="none" xmlns="http://www.w3.org/2000/svg">
<g clip-path="url(#clip0_350_2)">
<path d="M12.4445 18.0703C11.6471 18.0703 10.8439 18.0165 10.0504 18.0838C9.26642 18.1512 8.90903 17.8047 8.65732 17.106C8.04822 15.4275 7.3661 13.7741 6.73202 12.1052C6.30162 10.9734 5.68675 9.98789 4.65493 9.31034C4.2668 9.05626 3.99203 8.71749 4.30139 8.28247C4.61843 7.8359 5.02577 8.03994 5.39085 8.29402C6.08257 8.77331 6.70897 9.33729 7.09902 10.0784C7.39108 10.6327 7.77345 10.7232 8.33067 10.7193C11.332 10.6962 14.3333 10.7059 17.3346 10.7097C18.4971 10.7116 18.6316 10.9176 18.2223 12.0321C17.594 13.7375 16.9368 15.4333 16.3412 17.1503C16.1087 17.822 15.7724 18.1377 15.0288 18.0838C14.1719 18.0222 13.3053 18.0703 12.4445 18.0703Z" fill="white"/>
<path d="M3.12865 22.4812C2.84043 21.4918 2.91921 20.5986 2.75781 19.6285C3.7147 19.7113 4.58511 19.7844 5.49204 19.8634C5.4709 20.2733 5.04434 20.3561 4.94635 20.768C6.62377 22.356 8.66243 23.3435 11.0028 23.611C15.3606 24.1077 18.9768 22.6409 21.5496 19.0703C24.1186 15.5093 24.3703 11.6269 22.5833 7.61551C22.3124 7.00726 22.3086 7.00918 23.375 6.4375C24.3069 7.92349 24.7411 9.56924 24.9333 11.2881C25.4771 16.1542 22.862 21.0953 18.506 23.4782C14.1482 25.8612 8.61247 25.43 4.80992 22.3406C4.16047 21.8113 3.70125 21.4899 3.12865 22.4812Z" fill="white"/>
<path d="M2.64353 17.9649C2.32649 18.1613 2.00369 18.3595 1.61748 18.5982C0.345477 16.3654 -0.171394 13.9882 0.0495733 11.482C0.643302 4.77585 6.15979 -0.163329 12.8791 0.00413354C15.6767 0.0734283 18.2054 1.00506 20.3632 2.81442C20.9012 3.26484 21.3027 3.56896 21.8215 2.67006C22.006 3.69408 22.1136 4.56026 22.1232 5.54386C21.222 5.46687 20.3516 5.39372 19.4658 5.31865C19.4774 4.84321 19.9808 4.75082 20.1076 4.39472C17.2946 1.25336 11.3612 0.129249 6.79963 2.82404C2.64353 5.27631 -0.626778 11.2934 2.64353 17.9649Z" fill="white"/>
<path d="M9.96143 4.68881C10.4629 4.69266 10.8261 4.41355 10.707 3.84187C10.607 3.36451 10.8703 3.32409 11.1604 3.1778C11.5024 3.00456 11.7023 3.02381 11.9559 3.36066C12.2691 3.78028 12.736 3.79953 13.0492 3.35681C13.2951 3.00841 13.4911 3.02573 13.8389 3.16625C14.2174 3.31831 14.3654 3.4415 14.2866 3.91694C14.2098 4.38853 14.5422 4.7735 15.0975 4.63491C15.5529 4.52135 15.6336 4.78313 15.77 5.09303C15.9102 5.41255 15.9756 5.63199 15.6067 5.88222C15.157 6.18827 15.1628 6.66756 15.574 6.98708C15.891 7.23346 15.941 7.4067 15.7911 7.7628C15.6336 8.14007 15.4702 8.28829 15.0187 8.24401C14.521 8.19782 14.1387 8.53659 14.2943 9.0717C14.4442 9.58179 14.0887 9.57986 13.8332 9.72038C13.5161 9.89361 13.2913 9.90709 13.0511 9.53751C12.7475 9.07362 12.2729 9.0794 11.9617 9.51634C11.7157 9.85896 11.514 9.87436 11.1739 9.73577C10.8146 9.58949 10.6166 9.46437 10.7223 8.98123C10.8222 8.51542 10.4629 8.16702 9.98833 8.24016C9.53295 8.31138 9.3677 8.15932 9.21783 7.77435C9.08525 7.43365 9.06603 7.24309 9.41766 6.99478C9.85383 6.68488 9.83077 6.19404 9.40229 5.89377C9.04682 5.64354 9.05835 5.43565 9.22743 5.1142C9.3677 4.84087 9.41574 4.45783 9.96143 4.68881ZM11.3257 6.53667C11.4102 7.18342 11.8022 7.58764 12.492 7.63383C13.1357 7.67618 13.691 7.06793 13.6698 6.40963C13.6468 5.74748 13.053 5.18157 12.4113 5.27204C11.7369 5.36636 11.3353 5.7648 11.3257 6.53667Z" fill="white"/>
<path d="M11.682 20.3254C11.6724 21.2108 10.9134 21.9365 10.0103 21.9211C9.10145 21.9057 8.41165 21.1685 8.44239 20.2465C8.47122 19.3899 9.18984 18.6835 10.043 18.6739C10.9095 18.6662 11.6916 19.4534 11.682 20.3254Z" fill="white"/>
<path d="M16.5541 20.2677C16.5752 21.1935 15.8873 21.9134 14.9689 21.9231C14.0792 21.9327 13.3145 21.1858 13.3164 20.3062C13.3164 19.4439 14.11 18.6643 14.9785 18.6739C15.8143 18.6855 16.5348 19.4131 16.5541 20.2677Z" fill="white"/>
</g>
<defs>
<clipPath id="clip0_350_2">
<rect width="25" height="25" fill="white"/>
</clipPath>
</defs>
</svg>
