<svg width="25" height="25" viewBox="0 0 25 25" fill="none" xmlns="http://www.w3.org/2000/svg">
<g clip-path="url(#clip0_373_24)">
<path d="M0 12.4972C0 10.5377 0 8.57827 0 6.61879C0.0111334 3.41238 2.34914 0.651303 5.51102 0.105767C5.88956 0.0389668 6.26809 0.00556669 6.64663 0.00556669C9.89757 0.00556669 13.1541 0.0111334 16.405 0C16.6277 0 16.6667 0.0612336 16.6667 0.272768C16.6555 1.54754 16.6611 2.82231 16.6611 4.09708C16.6667 5.74482 17.7188 7.06413 19.3164 7.42596C19.578 7.4872 19.8452 7.5039 20.118 7.5039C21.6544 7.5039 23.1908 7.50946 24.7217 7.49833C24.9332 7.49833 24.9944 7.5373 24.9944 7.75996C24.9889 11.3004 24.9944 14.8408 24.9889 18.3812C24.9833 21.3817 22.9292 24.0314 20.0178 24.7885C19.489 24.9276 18.949 25 18.4035 25C14.4678 25 10.5266 25.0056 6.59096 25C3.40681 24.9944 0.634603 22.6342 0.1002 19.4945C0.0334001 19.1049 0 18.7208 0 18.3311C0 16.3883 0 14.4456 0 12.4972ZM10.8383 17.9192C11.1222 17.9025 11.3338 17.7744 11.523 17.574C12.937 16.0599 14.3565 14.5458 15.7704 13.0316C16.3995 12.358 17.0285 11.69 17.6575 11.0165C17.8969 10.7604 17.9804 10.4654 17.8579 10.1314C17.7466 9.83077 17.5184 9.65264 17.2066 9.60254C16.8782 9.55244 16.6221 9.69717 16.405 9.93097C14.6126 11.8515 12.8145 13.7664 11.022 15.6869C10.8884 15.8317 10.8161 15.8539 10.6713 15.6925C9.96437 14.9187 9.24627 14.1505 8.5226 13.3935C8.1886 13.0483 7.69316 13.0372 7.35916 13.3545C7.02516 13.6662 6.99733 14.1728 7.3202 14.5235C8.2888 15.5645 9.26297 16.5999 10.2316 17.6408C10.393 17.819 10.6045 17.9025 10.8383 17.9192Z" fill="white"/>
<path d="M18.3259 0.3125C18.6543 0.462801 18.9159 0.635368 19.1498 0.858035C20.753 2.35547 22.3562 3.84735 23.9594 5.34479C24.1097 5.48395 24.2488 5.63425 24.3769 5.84022C24.1264 5.84022 23.9148 5.84022 23.6977 5.84022C22.4731 5.84022 21.254 5.84022 20.0293 5.84022C19.044 5.84022 18.3203 5.12769 18.3203 4.14795C18.3259 2.87874 18.3259 1.60954 18.3259 0.3125Z" fill="white"/>
</g>
<defs>
<clipPath id="clip0_373_24">
<rect width="25" height="25" fill="white"/>
</clipPath>
</defs>
</svg>
