<svg width="25" height="25" viewBox="0 0 25 25" fill="none" xmlns="http://www.w3.org/2000/svg">
<g clip-path="url(#clip0_344_83)">
<path d="M13.926 6.99822C17.5634 6.97342 20.7936 9.58298 21.5435 13.1524C22.4256 17.3503 19.7846 21.4486 15.5837 22.3575C13.5319 22.8015 11.5985 22.4504 9.80509 21.3531C9.71869 21.3006 9.65462 21.2325 9.59814 21.1496C8.65823 19.774 7.71663 18.3997 6.77545 17.0253C6.74384 16.9791 6.71982 16.9219 6.67725 16.8895C6.29285 16.6015 6.26124 16.1693 6.2056 15.7493C5.67495 11.7225 8.4517 7.89666 12.4415 7.14705C12.9334 7.05498 13.4278 7.01378 13.926 6.99822ZM14.269 11.651C14.2686 11.651 14.2682 11.651 14.2678 11.651C14.2678 11.2306 14.2669 10.8106 14.2682 10.3902C14.2686 10.2065 14.2041 10.061 14.0309 9.98112C13.7443 9.84911 13.4661 10.0543 13.464 10.4083C13.4598 11.2277 13.4581 12.0471 13.4674 12.8665C13.4691 13.0267 13.4202 13.0939 13.2697 13.149C12.5667 13.4059 12.1165 14.0828 12.1473 14.8088C12.1814 15.6173 12.7947 16.3097 13.5905 16.438C14.3942 16.5675 15.187 16.1117 15.4635 15.3398C15.5225 15.1754 15.5955 15.1313 15.7594 15.1376C16.0958 15.1506 16.4334 15.1422 16.7706 15.1414C17.0627 15.1405 17.2371 14.9942 17.2405 14.75C17.2443 14.4977 17.0656 14.3455 16.7613 14.3447C16.403 14.3434 16.0452 14.3413 15.6869 14.3459C15.5832 14.3472 15.528 14.3266 15.4905 14.2139C15.3114 13.6741 14.9438 13.3096 14.406 13.1255C14.2863 13.0843 14.2653 13.0212 14.2665 12.9115C14.2716 12.4919 14.269 12.0715 14.269 11.651ZM7.63697 14.3535C7.63697 14.3544 7.63697 14.3552 7.63697 14.356C7.46163 14.356 7.28587 14.3472 7.11096 14.3581C6.88925 14.3724 6.72698 14.5486 6.72698 14.7554C6.72698 14.9656 6.8863 15.1435 7.11011 15.1506C7.45362 15.162 7.79756 15.1632 8.14107 15.1536C8.39564 15.1464 8.56297 14.9703 8.55665 14.7466C8.55033 14.5242 8.37415 14.3623 8.12126 14.3544C7.95983 14.3493 7.7984 14.3535 7.63697 14.3535ZM19.0183 9.97355C19.0108 9.80454 18.9328 9.67884 18.7743 9.61535C18.6091 9.54935 18.4578 9.5834 18.3309 9.70911C18.0974 9.94076 17.8631 10.1716 17.6338 10.407C17.4525 10.5928 17.4487 10.8186 17.6148 10.9842C17.7804 11.1491 18.0118 11.1465 18.1935 10.97C18.4245 10.7459 18.6512 10.5172 18.8793 10.2901C18.9669 10.2035 19.023 10.1018 19.0183 9.97355ZM9.07719 9.59727C8.93346 9.60947 8.80238 9.67926 8.73157 9.83355C8.65654 9.99668 8.68394 10.1501 8.80828 10.2775C9.03757 10.513 9.26896 10.7467 9.50626 10.9742C9.7052 11.1646 9.9425 11.1701 10.1014 11.0015C10.2641 10.8295 10.2536 10.5987 10.0651 10.4041C9.84598 10.1783 9.6209 9.95842 9.39667 9.73727C9.3149 9.65739 9.21881 9.60274 9.07719 9.59727ZM19.0449 19.4827C19.0394 19.386 19.0099 19.2981 18.945 19.2317C18.6904 18.9719 18.4367 18.7104 18.1716 18.461C18.022 18.3202 17.7792 18.3383 17.638 18.4779C17.4934 18.6204 17.4673 18.8604 17.6076 19.0101C17.8609 19.2804 18.1261 19.5403 18.395 19.7955C18.5193 19.9136 18.6774 19.9157 18.8261 19.8383C18.9669 19.7652 19.0348 19.6382 19.0449 19.4827ZM14.2505 8.53403C14.2505 8.373 14.2505 8.2124 14.2505 8.05138C14.2505 8.03751 14.2505 8.02321 14.2497 8.00934C14.2353 7.78862 14.0697 7.62423 13.8581 7.62087C13.6511 7.6175 13.4611 7.78189 13.4552 7.99757C13.445 8.35408 13.445 8.71144 13.4556 9.06796C13.4623 9.28784 13.6448 9.4455 13.8573 9.44298C14.0731 9.44046 14.2387 9.28406 14.2484 9.05871C14.2564 8.88424 14.2501 8.70892 14.2505 8.53403ZM13.4821 20.9499C13.4821 21.1038 13.4821 21.2577 13.4821 21.4116C13.4821 21.4254 13.4817 21.4397 13.4826 21.4536C13.4952 21.6953 13.6507 21.8606 13.8712 21.866C14.092 21.8715 14.2762 21.6945 14.2817 21.4502C14.2893 21.1147 14.2893 20.7788 14.2808 20.4433C14.2749 20.2096 14.0971 20.0427 13.8787 20.0439C13.6554 20.0452 13.4922 20.2075 13.4838 20.4471C13.4779 20.6144 13.4826 20.7822 13.4821 20.9499ZM9.1109 19.8989C9.19815 19.9014 9.28456 19.8867 9.34652 19.8262C9.61584 19.5621 9.88981 19.3015 10.1448 19.0236C10.294 18.8609 10.2658 18.6422 10.1128 18.4959C9.96231 18.3517 9.73723 18.3353 9.58002 18.4829C9.3149 18.7314 9.05822 18.9895 8.80744 19.2527C8.6911 19.375 8.68689 19.5319 8.75686 19.6828C8.82556 19.8299 8.95032 19.8968 9.1109 19.8989ZM20.0982 14.3346C19.9229 14.3346 19.7475 14.3283 19.5726 14.3363C19.3425 14.3464 19.1857 14.5044 19.1789 14.7189C19.173 14.919 19.318 15.1153 19.5279 15.125C19.9052 15.1418 20.2849 15.1405 20.6621 15.1199C20.8792 15.1082 21.0086 14.9244 21.0002 14.7121C20.9922 14.5053 20.8408 14.3485 20.6238 14.3375C20.4489 14.3279 20.2735 14.335 20.0982 14.3346Z" fill="white"/>
<path d="M10.7565 22.7453C11.3411 22.9399 11.927 23.127 12.5394 23.2203C14.9815 23.5924 17.2137 23.0677 19.1567 21.5513C21.5394 19.6921 22.6627 17.2104 22.4941 14.1951C22.2778 10.3314 19.3329 7.0513 15.5155 6.35424C10.8476 5.50205 6.39036 8.53161 5.49597 13.1697C5.31852 14.0909 5.2945 15.0187 5.43022 15.9491C5.44202 16.0294 5.48964 16.1354 5.31979 16.119C4.74109 16.0635 4.24584 16.2611 3.80244 16.6546C3.7135 16.4486 3.70929 16.2392 3.68653 16.0383C3.35651 13.1563 4.08315 10.5669 5.90649 8.30753C7.3956 6.46271 9.3062 5.23214 11.6387 4.76378C15.6538 3.95741 19.0594 5.10054 21.7337 8.1978C23.5478 10.2986 24.3111 12.7981 24.094 15.559C23.7446 20.0075 20.554 23.6958 16.2165 24.7141C14.5179 25.1131 12.8214 25.0765 11.1363 24.614C11.0545 24.5917 10.9466 24.6056 10.9955 24.4522C11.189 23.8472 11.0511 23.2926 10.7182 22.7722C10.7317 22.7629 10.7439 22.7541 10.7565 22.7453Z" fill="white"/>
<path d="M5.1058 24.9975C3.78571 24.9975 2.46562 25.0004 1.14595 24.9962C0.449652 24.9941 -0.0270487 24.5014 0.00119082 23.8258C0.00962053 23.6244 0.0787442 23.4415 0.190859 23.2776C1.53203 21.3192 2.87193 19.3601 4.21942 17.4064C4.6898 16.7244 5.60316 16.7341 6.07564 17.4215C7.40416 19.3546 8.72932 21.2902 10.0503 23.2284C10.5084 23.9002 10.2264 24.7389 9.48251 24.9559C9.35986 24.9916 9.23426 24.9996 9.10781 24.9996C7.77381 24.9996 6.43981 24.9996 5.1058 24.9996C5.1058 24.9992 5.1058 24.9983 5.1058 24.9975ZM5.53488 20.2123C5.53572 20.2123 5.53656 20.2123 5.53741 20.2123C5.53741 19.6733 5.53951 19.1343 5.53656 18.5953C5.53488 18.3267 5.37008 18.1476 5.13826 18.1484C4.91951 18.1492 4.73869 18.3267 4.73742 18.576C4.73195 19.6611 4.73152 20.7458 4.737 21.8309C4.73827 22.0953 4.92035 22.2606 5.16102 22.25C5.38988 22.24 5.53403 22.0726 5.53488 21.8082C5.53614 21.2763 5.53488 20.7441 5.53488 20.2123ZM5.53783 23.4054C5.53614 23.1939 5.34141 23.0055 5.13109 23.0114C4.91951 23.0173 4.7349 23.2103 4.73827 23.4218C4.74206 23.6391 4.92456 23.8119 5.14669 23.809C5.36965 23.8052 5.53951 23.6299 5.53783 23.4054Z" fill="white"/>
<path d="M13.8632 1.64764C12.9431 1.64764 12.0234 1.64175 11.1033 1.65184C10.8963 1.65394 10.834 1.58626 10.8403 1.38698C10.8525 0.995142 10.8479 0.602468 10.8415 0.210214C10.839 0.059282 10.8879 0.000422828 11.0476 0.000422828C12.9228 0.00462705 14.798 0.00420663 16.6728 2.40518e-06C16.8237 -0.000418017 16.8671 0.0542369 16.865 0.19676C16.8587 0.610035 16.8561 1.02331 16.8658 1.43659C16.8696 1.60518 16.8068 1.65184 16.6441 1.651C15.7173 1.64469 14.7904 1.64764 13.8632 1.64764Z" fill="white"/>
<path d="M22.0827 2.80859C22.1198 2.83928 22.1527 2.86367 22.183 2.89142C23.0922 3.7125 23.9992 4.53611 24.9122 5.35299C25.0226 5.45179 25.0268 5.50939 24.9227 5.61281C24.7343 5.7999 24.5526 5.9954 24.3836 6.20056C24.2829 6.32291 24.2192 6.31912 24.105 6.21528C23.3442 5.52242 22.5767 4.83629 21.8113 4.14806C21.6604 4.01226 21.5099 3.87605 21.3578 3.74109C21.3127 3.70115 21.2764 3.6713 21.3354 3.60782C21.5635 3.36145 21.7869 3.11004 22.0123 2.86115C22.0305 2.84223 22.0549 2.82919 22.0827 2.80859Z" fill="white"/>
<path d="M13.859 2.44607C14.1541 2.44607 14.4491 2.45112 14.7437 2.44355C14.8605 2.44061 14.9056 2.47088 14.9026 2.59406C14.8946 2.92998 14.8929 3.26632 14.8997 3.60265C14.9022 3.72626 14.8592 3.75737 14.7424 3.74644C14.1469 3.68926 13.5509 3.69431 12.9553 3.74812C12.8466 3.75779 12.8066 3.7292 12.8087 3.61527C12.815 3.2722 12.8154 2.92872 12.8091 2.58565C12.807 2.47424 12.8437 2.44145 12.9532 2.44397C13.255 2.45028 13.5572 2.44607 13.859 2.44607Z" fill="white"/>
<path d="M22.8649 6.17989C22.8425 6.21016 22.8244 6.23875 22.8021 6.26397C22.5454 6.54986 22.287 6.83449 22.0316 7.12164C21.9747 7.18554 21.9359 7.20152 21.8672 7.12752C21.5726 6.80926 21.254 6.51497 20.9172 6.24169C20.8417 6.18073 20.851 6.13953 20.9109 6.07436C21.1616 5.80151 21.4086 5.52571 21.6544 5.24865C21.7083 5.18769 21.7496 5.15868 21.8242 5.22679C22.1492 5.52403 22.4784 5.81622 22.8054 6.11094C22.8257 6.1286 22.8413 6.15172 22.8649 6.17989Z" fill="white"/>
<path d="M10.7169 22.7718C10.7152 22.7554 10.7068 22.7293 10.7135 22.7243C10.7321 22.7108 10.7481 22.7235 10.7544 22.7449C10.7418 22.7537 10.7295 22.7626 10.7169 22.7718Z" fill="white"/>
<path d="M13.8719 15.6548C13.3699 15.6586 12.9556 15.2567 12.9493 14.7593C12.9426 14.2515 13.3543 13.8344 13.8631 13.834C14.3765 13.8336 14.7903 14.2439 14.7874 14.7505C14.7844 15.2474 14.376 15.6515 13.8719 15.6548Z" fill="white"/>
</g>
<defs>
<clipPath id="clip0_344_83">
<rect width="25" height="25" fill="white"/>
</clipPath>
</defs>
</svg>
