<svg width="25" height="25" viewBox="0 0 25 25" fill="none" xmlns="http://www.w3.org/2000/svg">
<path d="M0 12.4912C0 9.23226 0 5.98208 0 2.72312C0 1.43183 0.783092 0.41286 2.01112 0.0878426C2.26029 0.0263528 2.51835 0 2.78532 0C5.86429 0 8.94327 0 12.0222 0C12.6363 0 13.1524 0.210822 13.5884 0.632467C15.0656 2.09065 16.5428 3.54884 18.02 5.00703C18.4561 5.43746 18.6696 5.93816 18.6607 6.55306C18.6518 8.44167 18.6607 10.3303 18.6518 12.2189C18.6518 12.4473 18.7052 12.5264 18.9455 12.5C19.1324 12.4824 19.3192 12.4912 19.5061 12.5C19.8799 12.5176 20.218 12.5176 20.485 12.1574C20.6719 11.9027 21.01 11.8412 21.3304 11.8324C21.7664 11.8236 22.2024 11.8236 22.6385 11.8324C23.3682 11.85 23.9555 12.3419 23.9733 13.0622C24.0089 14.4413 24.0089 15.8117 23.9733 17.1908C23.9555 17.9199 23.3682 18.4118 22.6385 18.4118C22.2024 18.4118 21.7664 18.4118 21.3304 18.4118C20.921 18.4118 20.5829 18.2537 20.3159 17.955C20.1735 17.8057 19.5862 17.6739 19.4082 17.7706C19.2836 17.832 19.3459 17.955 19.3459 18.0429C19.3459 19.668 19.3459 21.2843 19.3459 22.9093C19.3459 24.2094 18.5451 24.9912 17.228 24.9912C12.663 24.9912 8.09789 24.9912 3.53281 24.9912C2.9099 24.9912 2.29588 24.9209 1.69967 24.6926C0.622914 24.2797 0 23.4013 0 22.2593C0 19.0004 0 15.7502 0 12.4912ZM4.84093 7.90583C4.57397 7.90583 4.29811 7.89705 4.03115 7.91462C3.6129 7.93219 3.35484 8.18693 3.35484 8.56465C3.35484 8.93359 3.6129 9.17955 4.04004 9.2059C4.15573 9.21469 4.27141 9.22347 4.3871 9.2059C4.58287 9.17955 4.68076 9.24104 4.73415 9.44308C4.80534 9.69782 5.01001 9.83837 5.28587 9.86472C5.56174 9.88229 5.8198 9.78566 5.89099 9.53092C5.97998 9.24104 6.16685 9.14441 6.41602 9.02143C7.09233 8.71399 7.43048 7.99368 7.297 7.24701C7.18131 6.57941 6.5762 6.026 5.85539 5.95573C5.57063 5.92938 5.27697 5.94694 4.99221 5.92937C4.79644 5.92059 4.68076 5.81518 4.68076 5.61314C4.67186 5.40232 4.78754 5.28812 4.99221 5.27056C5.1079 5.26177 5.22358 5.27056 5.33037 5.26177C5.8109 5.26177 6.29144 5.27056 6.77197 5.2442C7.11012 5.22663 7.33259 4.94554 7.33259 4.61174C7.33259 4.27793 7.11012 4.02319 6.77197 3.97927C6.5762 3.9617 6.38932 3.9617 6.20245 3.97048C6.07786 3.97048 6.01557 3.95292 5.97108 3.80358C5.88209 3.46978 5.64182 3.31167 5.33927 3.31167C5.03671 3.31167 4.79644 3.48735 4.71635 3.80358C4.67186 3.9617 4.59177 4.01441 4.45829 4.06711C3.71079 4.33064 3.26585 5.05095 3.37264 5.83275C3.47052 6.57063 4.08454 7.15039 4.85873 7.22066C5.1168 7.24701 5.37486 7.23823 5.64182 7.23823C5.8554 7.24701 6.00667 7.32607 6.01557 7.56325C6.00667 7.80921 5.8465 7.90583 5.62403 7.90583C5.36596 7.90583 5.099 7.90583 4.84093 7.90583ZM17.2992 16.4441C18.1179 16.4441 18.9366 16.4353 19.7642 16.4441C19.9422 16.4441 19.9867 16.3914 19.9867 16.2245C19.9778 15.4954 19.9778 14.7663 19.9867 14.0372C19.9867 13.8616 19.9422 13.8089 19.7642 13.8089C18.1446 13.8176 16.525 13.8176 14.9055 13.8089C14.7008 13.8089 14.6652 13.8703 14.6652 14.0548C14.6741 14.7751 14.6741 15.4866 14.6652 16.207C14.6652 16.4002 14.7186 16.4441 14.9055 16.4441C15.6974 16.4353 16.4983 16.4441 17.2992 16.4441ZM6.31813 17.0942C6.81646 17.0942 7.31479 17.0942 7.81313 17.0942C8.13348 17.0942 8.46274 17.103 8.77419 17.0678C9.07675 17.0415 9.25473 16.8394 9.29922 16.5408C9.34372 16.2421 9.20133 15.9786 8.94327 15.8556C8.80089 15.7853 8.64071 15.7853 8.48943 15.7853C7.05673 15.7853 5.61513 15.7853 4.18243 15.7853C4.09344 15.7853 3.99555 15.7853 3.90656 15.8029C3.56841 15.8556 3.35484 16.1103 3.35484 16.4441C3.35484 16.7779 3.57731 17.0239 3.91546 17.0678C4.02225 17.0854 4.12013 17.0854 4.22692 17.0854C4.92992 17.0942 5.62403 17.0942 6.31813 17.0942ZM17.9755 20.5639C17.9755 19.7119 17.9666 18.8598 17.9755 18.0077C17.9755 17.8233 17.9399 17.753 17.7353 17.7618C17.4416 17.7793 17.1568 17.7706 16.8632 17.7618C16.7119 17.753 16.6496 17.7969 16.6496 17.9638C16.6585 19.6592 16.6496 21.3457 16.6585 23.0411C16.6585 23.4715 16.8988 23.6736 17.3615 23.6648C17.7709 23.656 17.9755 23.454 17.9755 23.0235C17.9844 22.1978 17.9755 21.3809 17.9755 20.5639ZM6.35373 13.8001C7.10122 13.8001 7.84872 13.8001 8.60512 13.8001C9.05006 13.8001 9.31702 13.5541 9.32592 13.1676C9.33482 12.7723 9.05006 12.5 8.59622 12.5C7.10122 12.4912 5.59733 12.5 4.10234 12.5C3.6485 12.5 3.36374 12.7635 3.36374 13.1588C3.36374 13.5541 3.6485 13.8001 4.11123 13.8001C4.84983 13.8089 5.60623 13.8001 6.35373 13.8001ZM6.32703 19.0882C5.57953 19.0882 4.83204 19.0882 4.08454 19.0882C3.6396 19.0882 3.36374 19.3342 3.36374 19.7207C3.35484 20.116 3.6396 20.3883 4.09344 20.3883C5.58843 20.397 7.09232 20.397 8.58732 20.3883C9.04116 20.3883 9.32592 20.1247 9.32592 19.7294C9.32592 19.3342 9.05006 19.0882 8.57842 19.0882C7.83092 19.0882 7.08343 19.0882 6.32703 19.0882ZM12.0044 15.1177C12.0044 15.7063 12.0133 16.286 12.0044 16.8746C12.0044 17.0502 12.0578 17.1117 12.2358 17.103C12.5028 17.0942 12.7786 17.0854 13.0456 17.103C13.2948 17.1205 13.3393 17.0239 13.3304 16.8043C13.3215 15.9434 13.3304 15.0826 13.3215 14.2217C13.3215 13.8879 13.4372 13.4223 13.2681 13.2467C13.0545 13.0271 12.5829 13.2027 12.2269 13.1764C12.04 13.1588 12.0044 13.2379 12.0044 13.4048C12.0133 13.9758 12.0044 14.5467 12.0044 15.1177ZM21.3393 15.0914C21.3393 15.6887 21.3482 16.2772 21.3393 16.8746C21.3393 17.0415 21.3838 17.1117 21.5617 17.103C21.8643 17.0854 22.1669 17.0942 22.4605 17.103C22.6029 17.103 22.6563 17.0678 22.6563 16.9185C22.6474 15.7326 22.6474 14.5379 22.6563 13.3521C22.6563 13.2203 22.6207 13.1764 22.4783 13.1764C22.1758 13.1852 21.8732 13.194 21.5795 13.1764C21.3571 13.1588 21.3304 13.2467 21.3304 13.4399C21.3393 13.9845 21.3393 14.5379 21.3393 15.0914ZM13.3482 2.37175C13.3482 3.14476 13.3304 3.92656 13.3571 4.70836C13.366 4.99824 13.5706 5.22663 13.8732 5.23542C14.6741 5.26177 15.4839 5.2442 16.267 5.2442C15.297 4.28672 14.327 3.32923 13.3482 2.37175Z" fill="white"/>
</svg>
