<svg width="25" height="25" viewBox="0 0 25 25" fill="none" xmlns="http://www.w3.org/2000/svg">
<g clip-path="url(#clip0_344_36)">
<path d="M13.826 24.7143C11.0664 24.7143 8.33835 24.7127 5.6103 24.7173C5.44774 24.7173 5.38072 24.6727 5.40383 24.5094C5.41076 24.4624 5.4046 24.4139 5.4046 24.3653C5.4046 17.0187 5.40614 9.67128 5.39844 2.32464C5.39844 2.06506 5.4593 1.99882 5.72201 1.99959C10.8037 2.00806 15.8861 2.00961 20.9678 1.99805C21.2721 1.99728 21.3183 2.08663 21.3175 2.36238C21.3098 8.4797 21.3098 14.5978 21.316 20.7151C21.316 20.9547 21.2613 21.0425 21.0101 21.1103C20.7135 21.1904 20.4647 21.2058 20.1673 21.1056C19.7112 20.9524 19.2367 20.9955 18.7875 21.1765C18.6511 21.232 18.544 21.225 18.4123 21.175C17.8715 20.9685 17.3268 20.9701 16.786 21.1819C16.6866 21.2212 16.5995 21.2489 16.4893 21.2027C15.4293 20.7613 14.3915 21.1927 13.8476 21.8805C13.2721 22.6076 13.1488 23.7237 13.7875 24.6072C13.8029 24.628 13.806 24.6565 13.826 24.7143ZM13.3722 3.1542C11.702 3.1542 10.0309 3.15343 8.36069 3.15497C8.04405 3.15497 7.96315 3.22968 7.96238 3.53932C7.9593 5.16147 7.96007 6.78361 7.96238 8.40576C7.96315 8.72695 8.05406 8.81399 8.3761 8.81399C11.6881 8.81476 15.0009 8.81476 18.3129 8.81399C18.655 8.81399 18.7313 8.73543 18.7313 8.39036C18.732 6.78747 18.732 5.18458 18.7313 3.58169C18.7313 3.19194 18.6943 3.15497 18.2975 3.15497C16.6558 3.15343 15.014 3.1542 13.3722 3.1542ZM11.1088 15.0661C9.41539 15.0307 8.01477 16.3994 7.96315 18.1402C7.91385 19.8201 9.30753 21.2466 11.0363 21.2843C12.7467 21.3221 14.1542 19.9549 14.1858 18.2272C14.2182 16.4942 12.8638 15.1031 11.1088 15.0661ZM14.4863 9.38783C13.2197 9.38783 11.9531 9.38783 10.6858 9.38783C10.4793 9.38783 10.249 9.37011 10.249 9.66435C10.249 9.95935 10.484 9.93779 10.6873 9.94164C10.7066 9.94164 10.7259 9.94164 10.7451 9.94164C13.2405 9.94164 15.7351 9.94164 18.2305 9.94087C18.326 9.94087 18.4239 9.94241 18.5171 9.92546C18.6565 9.90004 18.7305 9.80761 18.7313 9.66281C18.732 9.51569 18.6496 9.42942 18.5163 9.39707C18.4431 9.37936 18.3638 9.3886 18.2867 9.3886C17.0194 9.38783 15.7528 9.38783 14.4863 9.38783ZM14.4601 14.4746C15.7189 14.4746 16.977 14.4746 18.2359 14.4746C18.3129 14.4746 18.39 14.4761 18.4662 14.4715C18.638 14.4615 18.7328 14.3683 18.7282 14.1957C18.7243 14.0386 18.6357 13.9492 18.477 13.9377C18.41 13.9331 18.343 13.9346 18.2752 13.9346C15.7482 13.9346 13.2212 13.9346 10.695 13.9346C10.618 13.9346 10.5402 13.93 10.4647 13.9415C10.3214 13.9631 10.2482 14.0548 10.2451 14.1988C10.242 14.3428 10.3114 14.4391 10.4539 14.4645C10.5379 14.4792 10.6265 14.4746 10.7128 14.4746C11.9616 14.4746 13.2105 14.4746 14.4601 14.4746ZM14.4886 10.5309C13.2297 10.5309 11.9716 10.5309 10.7128 10.5309C10.6357 10.5309 10.5587 10.527 10.4824 10.5355C10.3245 10.5532 10.2428 10.6472 10.2459 10.8059C10.249 10.9645 10.3345 11.0539 10.4932 11.067C10.5602 11.0724 10.6273 11.0701 10.695 11.0701C13.222 11.0701 15.749 11.0701 18.2752 11.0701C18.3522 11.0701 18.43 11.0739 18.5055 11.0631C18.6488 11.0431 18.7259 10.9522 18.7289 10.8089C18.7328 10.6518 18.6534 10.554 18.4947 10.5363C18.4092 10.5263 18.3222 10.5309 18.2359 10.5309C16.9863 10.5309 15.7374 10.5309 14.4886 10.5309ZM15.0348 12.7893C13.94 12.7893 12.8453 12.7877 11.7505 12.79C11.4616 12.7908 11.3191 12.9448 11.3961 13.1651C11.4601 13.3492 11.6188 13.3538 11.7744 13.3538C13.9539 13.3546 16.1342 13.3546 18.3137 13.3538C18.5148 13.3538 18.7243 13.3361 18.7259 13.0704C18.7274 12.8039 18.5256 12.7877 18.3191 12.7877C17.2243 12.7908 16.1296 12.7893 15.0348 12.7893ZM12.6273 12.2154C13.2991 12.2154 13.9701 12.2139 14.6419 12.2162C14.8383 12.217 15.0271 12.1946 15.0371 11.9504C15.0487 11.6847 14.8484 11.6501 14.6427 11.6501C13.3091 11.6493 11.9762 11.6493 10.6427 11.6501C10.4377 11.6501 10.2374 11.6809 10.2482 11.9489C10.2575 12.1962 10.4454 12.2162 10.6419 12.2154C11.3037 12.2139 11.9655 12.2154 12.6273 12.2154ZM16.6234 12.2154C16.8437 12.2154 17.0641 12.2162 17.2844 12.2154C17.4624 12.2146 17.5803 12.1338 17.591 11.9481C17.6018 11.7563 17.4809 11.6608 17.3091 11.657C16.8491 11.647 16.3892 11.6477 15.9293 11.6554C15.7559 11.6585 15.6242 11.7563 15.6311 11.9374C15.638 12.1268 15.7675 12.22 15.9616 12.217C16.1827 12.2131 16.4031 12.2154 16.6234 12.2154ZM8.66577 9.93856C8.80907 9.93856 8.9516 9.94318 9.09489 9.93702C9.26362 9.93008 9.36916 9.82918 9.36839 9.66743C9.36762 9.5103 9.27055 9.39553 9.10029 9.39091C8.81446 9.38321 8.52787 9.38475 8.24204 9.39014C8.07101 9.39322 7.97394 9.50337 7.97009 9.66204C7.96623 9.82456 8.06639 9.92854 8.23665 9.93625C8.37995 9.94318 8.52325 9.93779 8.66577 9.93856ZM8.68734 12.79V12.7908C8.5348 12.7908 8.38149 12.7831 8.22895 12.7931C8.07409 12.8031 7.98164 12.9056 7.97009 13.0511C7.95853 13.199 8.03865 13.3176 8.19274 13.3361C8.50553 13.3739 8.8214 13.37 9.13496 13.3384C9.2875 13.323 9.37841 13.2083 9.36839 13.0604C9.35838 12.9032 9.25668 12.7985 9.08796 12.7916C8.95468 12.7854 8.8214 12.79 8.68734 12.79ZM8.64035 12.2146C8.79289 12.2146 8.9462 12.2223 9.09875 12.2123C9.26593 12.2016 9.36531 12.0937 9.36916 11.9343C9.37301 11.7856 9.27671 11.6716 9.12571 11.6647C8.8214 11.6508 8.51554 11.6508 8.21123 11.6647C8.06023 11.6716 7.967 11.7848 7.97086 11.9358C7.97548 12.0976 8.07332 12.2016 8.2405 12.2131C8.37224 12.2223 8.5063 12.2146 8.64035 12.2146ZM8.64497 14.4715C8.64497 14.4722 8.64497 14.4722 8.64497 14.473C8.79828 14.473 8.95237 14.4761 9.10568 14.4722C9.28365 14.4676 9.37301 14.3521 9.36762 14.1934C9.363 14.0509 9.27594 13.9392 9.11107 13.9369C8.81369 13.9338 8.51554 13.9323 8.21816 13.9385C8.05329 13.9415 7.9724 14.0594 7.97086 14.2027C7.96932 14.3467 8.0479 14.463 8.21354 14.4699C8.35684 14.4761 8.5009 14.4715 8.64497 14.4715ZM8.66962 11.0701C8.81369 11.0701 8.95776 11.0731 9.10183 11.0693C9.27902 11.0647 9.3707 10.9507 9.36839 10.7928C9.36608 10.6495 9.28133 10.5363 9.11569 10.534C8.81831 10.5309 8.52016 10.5301 8.22278 10.534C8.05714 10.5363 7.97317 10.6487 7.97163 10.7935C7.97009 10.9537 8.061 11.0647 8.23819 11.0693C8.38149 11.0724 8.52556 11.0701 8.66962 11.0701ZM18.1712 11.657C18.0109 11.6878 17.9023 11.7633 17.9092 11.9435C17.9154 12.1191 18.0194 12.2139 18.1827 12.21C18.346 12.2062 18.4454 12.106 18.4447 11.9304C18.4431 11.7486 18.3268 11.6832 18.1712 11.657Z" fill="white"/>
<path d="M3.4012 11.3543C3.4012 7.67555 3.40428 3.99683 3.39504 0.31812C3.39504 0.0654779 3.45282 -0.000763632 3.71014 6.61759e-06C8.81183 0.00847937 13.9143 0.00847937 19.016 0.000776867C19.2556 0.000776867 19.3311 0.0577753 19.3149 0.298864C19.2933 0.623909 19.3041 0.952035 19.3118 1.27785C19.3149 1.40263 19.2772 1.45424 19.15 1.4396C19.0838 1.4319 19.016 1.43806 18.9482 1.43806C14.4135 1.43806 9.87809 1.43806 5.34342 1.43806C4.89504 1.43806 4.83417 1.49968 4.83417 1.95644C4.83417 8.76622 4.83186 15.5768 4.84111 22.3865C4.84188 22.6692 4.771 22.747 4.49673 22.7224C4.20089 22.6962 3.9012 22.7077 3.60382 22.7201C3.43433 22.727 3.37732 22.6654 3.39889 22.5052C3.40659 22.4482 3.40043 22.3904 3.40043 22.3326C3.4012 18.6732 3.4012 15.0137 3.4012 11.3543Z" fill="white"/>
<path d="M23.2834 23.2768C23.2841 24.2296 22.5145 25.0053 21.5738 24.9983C20.6416 24.9922 19.8804 24.2234 19.8789 23.2899C19.8781 22.3379 20.6486 21.5622 21.5892 21.5684C22.5245 21.5753 23.2826 22.3394 23.2834 23.2768Z" fill="white"/>
<path d="M18.0065 24.9255C17.3624 25.1049 16.6613 24.8615 16.2515 24.32C15.8208 23.7501 15.7869 22.9783 16.159 22.3805C16.518 21.8029 17.2969 21.4278 18.0134 21.6365C17.0997 22.731 17.0935 23.8294 18.0065 24.9255Z" fill="white"/>
<path d="M16.0267 21.6322C15.1069 22.6735 15.1415 23.9429 16.0083 24.9134C15.4405 25.1175 14.7486 24.8965 14.3041 24.3688C13.858 23.8397 13.7925 23.0448 14.1385 22.4371C14.4528 21.884 15.1962 21.4211 16.0267 21.6322Z" fill="white"/>
<path d="M19.9791 21.6423C19.0839 23.038 19.0839 23.752 19.9814 24.9028C19.4522 25.1277 18.7326 24.9043 18.2819 24.3744C17.8081 23.8175 17.7549 22.9987 18.1517 22.371C18.5454 21.7479 19.2696 21.459 19.9791 21.6423Z" fill="white"/>
<path d="M23.9915 9.09961C24.5478 9.09884 25.0038 9.54867 25.0015 10.0948C24.9985 10.637 24.5262 11.1015 23.9846 11.0922C23.4422 11.083 23.0008 10.6409 22.9961 10.1025C22.9907 9.54713 23.4337 9.10115 23.9915 9.09961Z" fill="white"/>
<path d="M0.7127 18.7458C0.325181 18.7419 -0.00532783 18.4092 6.50826e-05 18.0271C0.00545799 17.642 0.337507 17.3224 0.728108 17.3262C1.12872 17.3301 1.43381 17.642 1.42996 18.0433C1.42765 18.4423 1.11332 18.7496 0.7127 18.7458Z" fill="white"/>
<path d="M24.4266 15.4731C24.432 15.7065 24.2332 15.9052 23.9936 15.906C23.7579 15.9067 23.576 15.735 23.5668 15.5031C23.5568 15.262 23.7424 15.0564 23.9782 15.0471C24.2078 15.0387 24.4212 15.2412 24.4266 15.4731Z" fill="white"/>
<path d="M0.860574 1.28629C0.865197 1.53277 0.681067 1.72533 0.439157 1.72611C0.201868 1.72611 -0.00229181 1.5243 1.94346e-05 1.29322C0.00233068 1.07447 0.196476 0.876519 0.418355 0.865736C0.656414 0.854182 0.855952 1.04366 0.860574 1.28629Z" fill="white"/>
<path d="M1.1456 13.4624C1.16332 13.2205 1.37133 13.0526 1.62403 13.0765C1.85361 13.098 2.02541 13.3045 2.00461 13.5332C1.98381 13.7566 1.77041 13.9461 1.55315 13.933C1.31586 13.9184 1.12865 13.7027 1.1456 13.4624Z" fill="white"/>
<path d="M2.00553 23.42C2.00938 23.6572 1.81215 23.8559 1.57332 23.8559C1.34374 23.8559 1.15499 23.6757 1.14497 23.4477C1.13419 23.2081 1.32217 23.004 1.56023 22.9963C1.79675 22.9886 2.00168 23.1835 2.00553 23.42Z" fill="white"/>
<path d="M24.142 4.98488C24.1412 5.22212 23.9417 5.41699 23.7021 5.41314C23.474 5.40929 23.2876 5.2252 23.2814 4.9972C23.2745 4.75766 23.4663 4.55662 23.7044 4.55277C23.9417 4.54969 24.1428 4.74841 24.142 4.98488Z" fill="white"/>
<path d="M13.3377 8.24626C11.8208 8.24626 10.303 8.24241 8.7861 8.25088C8.57886 8.25242 8.51337 8.21314 8.51568 7.989C8.52801 6.64491 8.52724 5.30082 8.51645 3.95751C8.51491 3.74107 8.56884 3.68869 8.78533 3.68946C11.8292 3.69716 14.8732 3.69716 17.9171 3.69023C18.1266 3.68946 18.1967 3.73337 18.1944 3.95674C18.1836 5.30082 18.1829 6.64491 18.1952 7.98823C18.1975 8.21622 18.1235 8.25242 17.9178 8.25088C16.3916 8.24241 14.8647 8.24626 13.3377 8.24626ZM14.4155 7.29115C14.102 6.43232 13.8023 5.61971 13.5118 4.80324C13.4664 4.67461 13.3909 4.63841 13.2799 4.66537C13.1467 4.69849 12.9602 4.55445 12.8816 4.76781C12.5866 5.56348 12.2969 6.36146 12.0041 7.1579C11.9833 7.21412 11.9633 7.2588 12.0457 7.28961C12.3161 7.39205 12.5981 7.2796 12.6628 7.00077C12.7222 6.74812 12.8431 6.64568 13.0981 6.68958C13.1728 6.70268 13.253 6.70191 13.3277 6.68958C13.5357 6.65569 13.6598 6.7358 13.6852 6.94454C13.7222 7.2457 13.8947 7.34199 14.1782 7.29192C14.2422 7.28191 14.31 7.29115 14.4155 7.29115ZM16.0396 6.41923C16.1613 6.61333 16.2622 6.77585 16.3639 6.9376C16.6205 7.34815 16.6698 7.3674 17.1728 7.25187C17.1705 7.23338 17.1736 7.21181 17.1644 7.19795C16.9887 6.93529 16.8115 6.67341 16.6336 6.41229C16.35 5.99482 16.35 5.99559 16.6259 5.59352C16.8292 5.29697 17.0311 4.99889 17.2591 4.66383C17.1359 4.66383 17.0604 4.67461 16.9887 4.66229C16.7191 4.61607 16.5419 4.7085 16.4217 4.96345C16.3246 5.16911 16.1798 5.3532 16.0396 5.57426C15.9194 5.38709 15.8115 5.21995 15.7044 5.05203C15.4217 4.60606 15.3909 4.59296 14.8423 4.70619C15.0935 5.07514 15.3323 5.44255 15.5912 5.79609C15.6983 5.94244 15.706 6.04334 15.5966 6.19354C15.3439 6.53785 15.1128 6.89755 14.8593 7.27035C15.2668 7.3389 15.5866 7.32119 15.7453 6.89216C15.8015 6.73349 15.9232 6.59946 16.0396 6.41923ZM10.3608 6.21357C10.3608 6.49163 10.3832 6.772 10.3547 7.04698C10.3239 7.34199 10.5087 7.27805 10.6744 7.29192C10.8739 7.30887 10.9656 7.26804 10.9533 7.03389C10.9309 6.62257 10.9471 6.20972 10.9471 5.79686C10.9471 5.19992 10.9471 5.18375 11.5504 5.19222C11.7946 5.1953 11.7537 5.06513 11.753 4.92494C11.7514 4.78784 11.8015 4.64688 11.5527 4.65612C10.9587 4.67769 10.3631 4.67076 9.76838 4.65844C9.58656 4.65458 9.55729 4.71081 9.54573 4.88181C9.52724 5.13599 9.60428 5.22919 9.85775 5.18837C9.96021 5.17142 10.0696 5.1953 10.1736 5.18375C10.3308 5.16603 10.3693 5.23304 10.3639 5.38016C10.3539 5.65745 10.3608 5.93551 10.3608 6.21357Z" fill="white"/>
<path d="M8.52344 18.1718C8.52498 16.7645 9.67752 15.6168 11.0874 15.6191C12.4895 15.6215 13.649 16.7845 13.6452 18.1848C13.6413 19.5844 12.4749 20.7436 11.0743 20.7398C9.66905 20.7367 8.5219 19.5813 8.52344 18.1718ZM11.1891 17.6295C11.1305 17.3599 11.2507 17.3322 11.4603 17.4285C11.5119 17.4523 11.5697 17.4677 11.6159 17.5001C11.7507 17.5956 11.8131 17.5556 11.8848 17.4115C12.0481 17.0826 12.0596 17.0842 11.7276 16.9571C11.6213 16.9162 11.5096 16.8862 11.3971 16.8646C11.2761 16.8415 11.2122 16.793 11.2291 16.6567C11.2392 16.5704 11.2684 16.4579 11.1036 16.4649C10.9572 16.4703 10.9872 16.5712 10.9965 16.6467C11.0111 16.7776 10.9587 16.8261 10.8362 16.8639C10.3663 17.0071 10.1482 17.2675 10.1459 17.6603C10.1436 18.01 10.3262 18.2403 10.817 18.3666C11.1382 18.449 11.0581 18.6793 11.0157 18.8334C10.968 19.0044 10.7992 18.8704 10.686 18.8396C10.6128 18.8195 10.5388 18.7903 10.4772 18.7479C10.3501 18.6601 10.2769 18.6686 10.2014 18.8218C10.0234 19.1815 10.0188 19.1908 10.4071 19.3317C10.5142 19.371 10.6251 19.4134 10.7368 19.4219C10.9372 19.4373 11.0327 19.5151 10.9957 19.7269C10.9811 19.8124 10.9795 19.8979 11.1182 19.894C11.2345 19.8909 11.2461 19.8247 11.2299 19.7454C11.1845 19.5197 11.3062 19.4627 11.4988 19.4226C11.9318 19.3333 12.129 19.0606 12.1082 18.6223C12.0912 18.2642 11.9094 18.0678 11.4194 17.9314C11.2461 17.8829 11.1359 17.829 11.1891 17.6295ZM13.3077 18.3297C13.3093 17.6395 13.0935 17.0818 12.7399 16.6929C12.612 16.5519 12.4695 16.4495 12.2969 16.5873C12.1097 16.7375 12.186 16.9001 12.3162 17.0595C12.9071 17.7835 12.904 18.5653 12.3093 19.3056C12.1883 19.4558 12.119 19.6113 12.2846 19.7592C12.4518 19.9094 12.6005 19.8232 12.7284 19.6784C13.1059 19.2524 13.2962 18.7548 13.3077 18.3297ZM9.70295 16.5319C9.56889 16.5157 9.49879 16.6135 9.42097 16.6975C8.67829 17.4947 8.66982 18.8226 9.3994 19.6398C9.53654 19.7931 9.686 19.9333 9.88245 19.7546C10.062 19.5913 9.95718 19.4327 9.82775 19.2817C9.46951 18.8627 9.337 18.3813 9.44563 17.8367C9.50957 17.517 9.66211 17.2459 9.88245 17.0102C9.97875 16.907 10.0003 16.7892 9.94023 16.6667C9.89555 16.5773 9.81389 16.5234 9.70295 16.5319Z" fill="white"/>
<path d="M12.8711 6.28673C12.9728 5.97786 13.0652 5.70057 13.1692 5.38477C13.3287 5.65204 13.3711 5.93164 13.4697 6.18814C13.5105 6.29366 13.4181 6.28596 13.3534 6.28673C13.2031 6.2875 13.0521 6.28673 12.8711 6.28673Z" fill="white"/>
<path d="M11.0324 17.7973C10.8945 17.7788 10.8105 17.7349 10.7774 17.6409C10.7535 17.5724 10.7496 17.4876 10.819 17.4337C10.8683 17.396 10.923 17.3351 10.9908 17.3736C11.0593 17.4121 11.027 17.4922 11.0308 17.5539C11.0355 17.6278 11.0324 17.7025 11.0324 17.7973Z" fill="white"/>
<path d="M11.1849 18.5078C11.3313 18.5317 11.4469 18.5679 11.4738 18.7119C11.4977 18.8421 11.4114 18.9006 11.3013 18.9245C11.1503 18.9569 11.1919 18.8382 11.1865 18.7643C11.1811 18.6827 11.1849 18.5995 11.1849 18.5078Z" fill="white"/>
</g>
<defs>
<clipPath id="clip0_344_36">
<rect width="25" height="25" fill="white"/>
</clipPath>
</defs>
</svg>
