<svg width="23" height="18" viewBox="0 0 23 18" fill="none" xmlns="http://www.w3.org/2000/svg">
<g clip-path="url(#clip0_1175_3274)">
<path d="M8.94727 1H14.8074L13.08 2.70357V16.0159H13.1804L13.6223 16.0516H13.7328V2.83108L15.0585 1.47435L15.2292 1.74977L14.0391 2.9841V16.0567C14.4057 16.0924 14.7572 16.1077 15.0936 16.1077C16.3942 16.1077 17.3734 15.817 18.0412 15.2304C18.7091 14.6439 19.156 13.6799 19.382 12.3333C20.1503 14.598 20.9387 16.1485 21.7471 16.9799H8.94727L10.6395 15.5722V2.58116L8.94727 1ZM22.9473 16.8779L22.3949 18H9.59504L9.28873 17.6634H22.2593L22.6158 16.8779C21.717 15.7558 20.9989 14.5061 20.4566 13.129L20.4064 12.9913L20.7981 13.1392L20.8834 13.3534C21.4308 14.5827 22.0836 15.715 22.8468 16.7555L22.9473 16.8779Z" fill="url(#paint0_linear_1175_3274)"/>
</g>
<path d="M8.89954 6.60181C9.25762 6.2356 9.25762 5.64087 8.89954 5.27466C8.54147 4.90845 7.95996 4.90845 7.60189 5.27466L4.58548 8.36255L1.56621 5.27759C1.20814 4.91138 0.626628 4.91138 0.268555 5.27759C-0.0895182 5.6438 -0.0895182 6.23853 0.268555 6.60474L3.28783 9.6897L0.271419 12.7776C-0.0866536 13.1438 -0.0866536 13.7385 0.271419 14.1047C0.629492 14.4709 1.211 14.4709 1.56908 14.1047L4.58548 11.0168L7.60475 14.1018C7.96283 14.468 8.54434 14.468 8.90241 14.1018C9.26048 13.7356 9.26048 13.1409 8.90241 12.7747L5.88314 9.6897L8.89954 6.60181Z" fill="#FB0909"/>
<defs>
<linearGradient id="paint0_linear_1175_3274" x1="15.9473" y1="1" x2="15.9473" y2="18" gradientUnits="userSpaceOnUse">
<stop stop-color="#F102E4"/>
<stop offset="1" stop-color="#920FE8"/>
</linearGradient>
<clipPath id="clip0_1175_3274">
<rect width="14" height="17" fill="white" transform="translate(8.94727 1)"/>
</clipPath>
</defs>
</svg>
