<svg width="15" height="16" viewBox="0 0 15 16" fill="none" xmlns="http://www.w3.org/2000/svg">
<g clip-path="url(#clip0_1256_2177)">
<path d="M11.0084 10.131C12.1901 10.3325 13.1272 10.925 13.8077 11.9115C14.172 12.4399 14.402 13.0247 14.4793 13.6653C14.4983 13.6869 14.5161 13.6856 14.5326 13.6622C14.5326 13.5088 14.5326 13.3555 14.5326 13.2022C14.5211 13.1768 14.5211 13.1515 14.5326 13.1261C14.5307 13.0754 14.5275 13.0247 14.5275 12.9734C14.5275 8.78905 14.5275 4.60466 14.5275 0.420917C14.5275 0.289125 14.53 0.157967 14.5313 0.0261758C14.4888 0.0179388 14.447 0.00970181 14.4046 0.00146484C14.3539 0.00336568 14.3032 0.00716736 14.2525 0.00780098C13.4624 0.0135035 12.6723 -0.00423768 11.8821 0.0185724C11.8137 0.0318783 11.7447 0.0451842 11.6762 0.0591236C11.6224 0.0743304 11.5685 0.0901707 11.5147 0.105377C11.3924 0.167471 11.2701 0.229566 11.1478 0.29166C11.1041 0.323974 11.061 0.356288 11.0173 0.388602C10.9533 0.446895 10.8886 0.505821 10.8246 0.564113C10.7822 0.614802 10.7391 0.666125 10.6967 0.716814C10.6815 0.756732 10.6599 0.79158 10.6276 0.820093C10.6289 0.829597 10.6251 0.835933 10.6162 0.839101C10.6054 0.878385 10.587 0.913868 10.556 0.941747C10.39 1.27756 10.357 1.63555 10.3589 2.00495C10.3646 3.24366 10.3615 4.48238 10.3608 5.72109C10.3608 5.77622 10.3564 5.83071 10.3545 5.88583C10.357 5.90737 10.3475 5.91561 10.3266 5.91244C10.293 5.91434 10.2588 5.91751 10.2252 5.91751C8.21923 5.91751 6.21321 5.91751 4.20719 5.91751C4.16474 5.91751 4.12292 5.91371 4.08047 5.91118C4.05512 5.92195 4.02978 5.92258 4.00444 5.90991C3.9189 5.91308 3.83336 5.91688 3.75036 5.89153C3.72374 5.90104 3.69777 5.89597 3.67306 5.88393C3.64771 5.88203 3.62237 5.87949 3.59702 5.87759C3.5457 5.86936 3.49438 5.86049 3.44242 5.85225C3.3214 5.83641 3.20291 5.8117 3.08696 5.77241C2.97988 5.75594 2.87914 5.71856 2.77966 5.67674C2.70553 5.659 2.63583 5.63048 2.5693 5.595C2.44638 5.55128 2.32663 5.50186 2.21955 5.42646C2.19927 5.42456 2.18026 5.41949 2.16886 5.40048C2.13464 5.39605 2.1074 5.38021 2.08649 5.35233C2.06114 5.33776 2.0358 5.32318 2.01045 5.30861C1.97687 5.29847 1.94646 5.28453 1.92492 5.25539C1.86472 5.22624 1.80897 5.19139 1.76144 5.14387C1.70759 5.12106 1.66197 5.08748 1.62522 5.04122C1.5796 5.01588 1.53588 4.98737 1.5042 4.94428C1.44084 4.9088 1.38571 4.86508 1.34643 4.80235C1.32489 4.78334 1.30398 4.7637 1.28243 4.74469C1.23364 4.71681 1.19563 4.67753 1.16648 4.63001C1.14747 4.60847 1.1291 4.58629 1.11009 4.56475C1.05877 4.53117 1.01948 4.48681 0.990971 4.43232C0.953588 4.40761 0.928243 4.3734 0.911769 4.33221C0.861714 4.29293 0.826232 4.24287 0.798353 4.18648C0.769206 4.1643 0.750198 4.13452 0.738793 4.10031C0.647553 3.99513 0.579756 3.87538 0.521464 3.74929C0.502455 3.72711 0.484714 3.70367 0.48218 3.67262C0.443529 3.62573 0.417551 3.57314 0.404245 3.51422C0.389672 3.48254 0.375099 3.45022 0.360526 3.41854C0.344052 3.4027 0.33138 3.38496 0.335181 3.36025C0.238872 3.15686 0.169175 2.9446 0.12799 2.72283C0.078568 2.60815 0.0798353 2.48016 0.0418185 2.35724C-0.0139395 2.38385 0.0202756 2.43581 0 2.46749C0 2.59484 0 2.72283 0 2.85019C0.00253445 2.90531 0.00696974 2.9598 0.00696974 3.01493C0.00760336 7.28992 0.00760336 11.5649 0.00887058 15.8399C0.00887058 15.8944 -0.0202756 15.9615 0.0525899 15.9983C0.0734991 15.9958 0.0944084 15.9901 0.115318 15.9901C0.911136 15.9907 1.70632 15.9913 2.50214 15.9926C2.52431 15.9913 2.54649 15.9901 2.56867 15.9882C2.58831 15.9863 2.60795 15.985 2.62759 15.9831C2.64343 15.9717 2.65991 15.9685 2.67765 15.978C2.83098 15.9432 2.98305 15.9026 3.13132 15.8488C3.15286 15.8234 3.18137 15.8107 3.21369 15.8063C3.21875 15.7993 3.22572 15.7962 3.23396 15.7981C3.25487 15.7715 3.28338 15.7582 3.3157 15.7506C3.33027 15.7303 3.35055 15.7201 3.37462 15.7151C3.39807 15.6872 3.42595 15.6663 3.4608 15.6549C3.46523 15.6479 3.47093 15.6435 3.47917 15.6409C3.50261 15.608 3.53429 15.5858 3.57041 15.5687C3.60209 15.5377 3.63377 15.5072 3.66609 15.4762C3.6946 15.4306 3.73071 15.3926 3.7738 15.3609L3.77887 15.352C3.83083 15.2779 3.88215 15.2037 3.9341 15.1296C3.96895 15.0612 4.00317 14.9928 4.03802 14.9243C4.0659 14.8413 4.09377 14.7577 4.12229 14.6747C4.16537 14.47 4.17108 14.2622 4.17044 14.0537C4.16917 12.7751 4.17171 11.4965 4.16791 10.2178C4.16727 10.1051 4.19705 10.0778 4.30857 10.0784C6.32663 10.0822 8.34405 10.0816 10.3621 10.081C10.5782 10.0835 10.7949 10.0949 11.0084 10.131Z" fill="#FFCE00"/>
<path d="M0.0200372 1.49976C0.0308087 1.55109 0.0409465 1.60177 0.035244 1.65436C0.0396793 1.68795 0.0447482 1.72153 0.0491834 1.75511C0.11001 2.07635 0.198716 2.39062 0.307698 2.69856C0.41161 2.92286 0.525661 3.14272 0.648581 3.35688C0.682797 3.38476 0.703072 3.42151 0.717645 3.46206C0.74299 3.48044 0.757563 3.50642 0.767701 3.53556C0.842467 3.61603 0.907729 3.7041 0.968556 3.79534C0.979328 3.80802 0.990099 3.82069 1.00087 3.83273C1.15611 3.98796 1.31134 4.14383 1.46658 4.29907C1.47925 4.3092 1.49192 4.31997 1.50459 4.33011C1.59203 4.39728 1.67884 4.4638 1.76628 4.53097C1.91771 4.62474 2.06851 4.71788 2.21994 4.81166C2.29534 4.8332 2.36377 4.86995 2.4284 4.91304C2.46008 4.92634 2.49176 4.93965 2.52344 4.95295C2.5849 4.97766 2.64573 5.00174 2.70719 5.02645C2.71416 5.03026 2.72113 5.03342 2.72873 5.03722C2.77245 5.0518 2.81617 5.06574 2.85989 5.08031C3.08482 5.14937 3.31419 5.2007 3.54419 5.24822C3.56193 5.23871 3.57841 5.24061 3.59425 5.25265C3.72984 5.26469 3.86607 5.27736 4.00166 5.2894C4.02067 5.28243 4.03905 5.2818 4.05615 5.29511C4.08023 5.28687 4.10494 5.28307 4.12902 5.29511C4.14549 5.27926 4.16133 5.26342 4.17781 5.24758C4.17527 5.1969 4.1702 5.14621 4.1702 5.09552C4.16957 4.01964 4.1683 2.94377 4.16957 1.86789C4.16957 1.67211 4.15563 1.47885 4.11001 1.28814C4.09734 1.25772 4.07833 1.22984 4.08213 1.19436C4.04665 1.11072 4.0118 1.02645 3.97632 0.942816C3.9269 0.883257 3.89015 0.816727 3.85593 0.747664C3.82172 0.703944 3.78813 0.659591 3.75392 0.615872C3.71527 0.587359 3.68295 0.553144 3.65824 0.512593C3.62276 0.491684 3.59235 0.465706 3.57017 0.430857C3.52202 0.409948 3.48527 0.375099 3.45042 0.337082C3.40543 0.307302 3.36108 0.277523 3.31609 0.247743C3.23119 0.205924 3.14628 0.164106 3.06075 0.122287C3.01006 0.10518 2.95874 0.0880722 2.90805 0.0709647C2.86433 0.0741327 2.82631 0.0570252 2.78766 0.0411849C2.78196 0.0437193 2.77689 0.0430857 2.77182 0.0386504C2.70592 0.0285126 2.64066 0.0183748 2.57477 0.00823697C1.88666 0.00823697 1.19919 0.00760336 0.511087 0.00633613C0.358387 0.00633613 0.205686 0.00253445 0.0529851 0C0.0365112 0.00823697 0.0194036 0.0164739 0.00292969 0.0253445C0.0149683 0.516395 -0.00847535 1.00871 0.0200372 1.49976Z" fill="#FFCE00"/>
<path d="M14.4623 14.1965C14.4604 14.1794 14.4585 14.1623 14.4559 14.1446C14.4445 14.1084 14.4261 14.0736 14.435 14.0337L14.4376 14.0324C14.4249 13.9925 14.4097 13.9526 14.3989 13.912C14.2513 13.3506 14.0086 12.8349 13.6449 12.3812C12.8332 11.3687 11.7757 10.8346 10.4781 10.7782C10.4021 10.775 10.3558 10.7756 10.3565 10.8802C10.3615 11.9041 10.3622 12.9274 10.359 13.9513C10.3577 14.2802 10.3666 14.6052 10.487 14.9169C10.5079 14.9353 10.5212 14.9581 10.5218 14.9866C10.5472 15.0354 10.5731 15.0836 10.5985 15.1324C10.6454 15.2014 10.6923 15.2705 10.7392 15.3396C10.7525 15.3548 10.7658 15.3706 10.7791 15.3858C10.8317 15.4289 10.8798 15.4758 10.9172 15.5328C10.9324 15.5461 10.947 15.5588 10.9622 15.5721C10.9964 15.5841 11.0224 15.6069 11.0446 15.6348C11.0598 15.6475 11.075 15.6595 11.0902 15.6722C11.1225 15.6804 11.1491 15.6969 11.1687 15.7242C11.1846 15.7337 11.2011 15.7432 11.2169 15.7533C11.2416 15.7539 11.2574 15.7691 11.2733 15.7856C11.4577 15.8775 11.6528 15.9377 11.8543 15.9801C11.8721 15.9706 11.8885 15.9725 11.9044 15.9846C11.924 15.9865 11.9437 15.9877 11.9633 15.9896C11.9855 15.9909 12.0076 15.9922 12.0298 15.9941C12.4113 15.9928 12.7927 15.9915 13.1741 15.9909C13.5898 15.9903 14.0054 15.9909 14.4204 15.9915C14.4787 15.9915 14.5282 15.996 14.5263 15.9098C14.5161 15.3377 14.5611 14.7642 14.4623 14.1965Z" fill="#FFCE00"/>
</g>
<defs>
<clipPath id="clip0_1256_2177">
<rect width="14.5326" height="16" fill="white"/>
</clipPath>
</defs>
</svg>
