<svg width="15" height="14" viewBox="0 0 15 14" fill="none" xmlns="http://www.w3.org/2000/svg">
<path fill-rule="evenodd" clip-rule="evenodd" d="M9.96486 0.244459C10.5173 0.464352 10.8111 1.05252 11.0466 1.52402C11.1602 1.75143 11.2602 1.95169 11.3692 2.07041C11.7041 2.43527 12.1832 2.55932 12.4484 2.55932C13.8576 2.55932 15 3.70176 15 5.11014V9.80878C15 11.698 13.4676 13.2304 11.5784 13.2304H3.42162C1.53162 13.2304 0 11.698 0 9.80878V5.11014C0 3.70176 1.14243 2.55932 2.55162 2.55932C2.81595 2.55932 3.29514 2.43527 3.63081 2.07041C3.7398 1.95165 3.83977 1.75129 3.95329 1.5238C4.18854 1.05234 4.48195 0.464317 5.03432 0.244459C5.85405 -0.0814865 9.14595 -0.0814865 9.96486 0.244459ZM4.42221 7.60388C4.42221 5.90395 5.79985 4.52631 7.49978 4.52631C9.19971 4.52631 10.5773 5.90395 10.5773 7.60388C10.5773 9.3038 9.19971 10.6814 7.49978 10.6814C5.79985 10.6814 4.42221 9.3038 4.42221 7.60388ZM7.49978 5.52631C6.35214 5.52631 5.42221 6.45623 5.42221 7.60388C5.42221 8.75152 6.35214 9.68144 7.49978 9.68144C8.64742 9.68144 9.57735 8.75152 9.57735 7.60388C9.57735 6.45623 8.64742 5.52631 7.49978 5.52631ZM11.9557 4.1621C11.6795 4.1621 11.4557 4.38596 11.4557 4.6621C11.4557 4.93825 11.6795 5.1621 11.9557 5.1621H11.9625C12.2386 5.1621 12.4625 4.93825 12.4625 4.6621C12.4625 4.38596 12.2386 4.1621 11.9625 4.1621H11.9557Z" fill="white"/>
</svg>
