<svg width="24" height="24" viewBox="0 0 24 24" fill="none" xmlns="http://www.w3.org/2000/svg">
<circle cx="12" cy="12" r="12" fill="white"/>
<path fill-rule="evenodd" clip-rule="evenodd" d="M14.1252 6.22876C14.8915 6.53378 15.126 7.59604 15.4393 7.93748C15.7527 8.27892 16.2011 8.39501 16.4492 8.39501C17.7679 8.39501 18.837 9.4641 18.837 10.7821V15.1791C18.837 16.947 17.403 18.381 15.6351 18.381H8.002C6.23334 18.381 4.80005 16.947 4.80005 15.1791V10.7821C4.80005 9.4641 5.86914 8.39501 7.18785 8.39501C7.43521 8.39501 7.88363 8.27892 8.19776 7.93748C8.51112 7.59604 8.74482 6.53378 9.51116 6.22876C10.2783 5.92375 13.3588 5.92375 14.1252 6.22876Z" fill="#4343EF"/>
<path d="M15.9882 10.3628H15.995" stroke="white" stroke-linecap="round" stroke-linejoin="round"/>
<path fill-rule="evenodd" clip-rule="evenodd" d="M14.2304 13.1157C14.2304 11.7833 13.1507 10.7036 11.8183 10.7036C10.486 10.7036 9.40625 11.7833 9.40625 13.1157C9.40625 14.4481 10.486 15.5278 11.8183 15.5278C13.1507 15.5278 14.2304 14.4481 14.2304 13.1157Z" stroke="white" stroke-linecap="round" stroke-linejoin="round"/>
</svg>
