<svg width="100" height="100" viewBox="0 0 100 100" fill="none" xmlns="http://www.w3.org/2000/svg">
<g clip-path="url(#clip0_64_193)">
<path d="M0.240768 44.628C0.268128 44.3428 0.297443 44.0711 0.297443 44.0692C0.530006 41.9979 0.920867 39.9579 1.41531 37.9355C6.30499 17.885 23.329 2.8741 44.0231 0.351432C44.0564 0.347524 44.2772 0.324076 44.5821 0.294765C44.5821 0.294765 51.2873 -0.352023 55.2897 0.267408C55.3562 0.277179 55.5184 0.298673 55.7783 0.343616C56.7379 0.505801 57.7111 0.597641 58.6668 0.773505C70.8812 3.00307 80.94 8.9414 88.7846 18.5338C94.8938 26.0002 98.478 34.5843 99.6056 44.1806C99.6212 44.3095 99.6466 44.4561 99.674 44.6632C99.674 44.6632 100.401 50.0446 99.6799 55.3323C99.6721 55.3929 99.6486 55.5961 99.6115 55.8188C99.4454 56.8115 99.3535 57.8159 99.1737 58.8066C97.5673 67.6173 93.901 75.4609 88.0947 82.2922C82.867 80.8521 77.6411 79.4119 72.4134 77.9698C71.0747 77.5028 69.7145 77.1218 68.3152 76.8853C67.4846 76.6391 66.6638 76.3558 65.8215 76.1584C65.1746 76.008 64.9538 75.7012 64.9655 75.0231C64.9987 73.1238 64.9479 71.2206 64.9303 69.3213C64.942 68.1606 64.9538 67.0018 64.9655 65.8411C66.271 64.2153 67.1367 62.3825 67.5374 60.3366C68.3738 56.067 68.3347 51.7075 68.8643 47.4067C68.9875 46.9084 69.0891 46.4023 69.2357 45.9099C69.8024 44.0047 70.3379 42.078 72.2863 41.0346C72.4818 40.929 72.5228 40.7278 72.558 40.5421C73.2518 36.978 74.0999 33.4314 73.9397 29.7597C73.7052 24.3744 71.8642 20.2924 64.9987 18.9168C64.7075 18.0433 64.2248 17.2715 63.6717 16.5485C61.0276 13.084 57.3847 11.4133 53.1615 11.1612C48.0138 10.8544 42.8134 11.5325 37.7127 10.319C37.1752 10.192 37.1147 10.4558 37.1479 10.8974C37.23 11.9702 37.4332 13.0097 37.9765 13.9867C37.5993 14.1196 37.2632 14.2368 36.927 14.356C31.7247 16.1909 28.2714 19.6867 26.6865 25.0134C25.5178 28.941 25.8657 32.8608 26.6102 36.7884C26.9933 38.8089 27.1027 40.8411 28.9984 42.3535C30.2218 43.3286 30.4935 45.1107 30.8355 46.6778C30.9039 47.0511 30.9723 47.4243 31.0407 47.7975C31.2869 50.5664 31.5371 53.3333 31.7755 56.1022C31.926 57.8432 32.1331 59.5686 32.6119 61.2628C33.0888 62.9452 34.0386 64.3639 34.92 65.8294C34.9297 66.994 34.9376 68.1566 34.9473 69.3213C34.9336 71.2401 34.8907 73.1609 34.9258 75.0798C34.9376 75.7344 34.6835 76.0021 34.0933 76.1487C33.2471 76.3617 32.4165 76.6372 31.5781 76.8873C30.1769 77.112 28.8186 77.5048 27.4799 77.9679C22.2502 79.41 17.0205 80.854 11.7907 82.2961C11.0852 81.409 10.3465 80.5453 9.67617 79.6327C6.94014 75.9064 4.77085 71.9553 3.18005 67.7737C2.3397 65.5656 0.924776 61.3703 0.29158 55.9693C0.297443 55.9693 -0.331844 50.6094 0.240768 44.628Z" fill="#F4EDE4"/>
<path d="M72.4136 77.9697C77.6414 79.4099 82.8672 80.85 88.095 82.2921C88.0149 82.4288 87.9523 82.5813 87.8507 82.7005C85.2515 85.7195 82.3279 88.3887 79.0817 90.6964C72.2456 95.56 64.6883 98.5907 56.3434 99.6185C56.1225 99.6459 55.7512 99.5462 55.8099 99.9996C51.9032 99.9996 47.9965 99.9996 44.0879 99.9996C44.1485 99.5404 43.7694 99.64 43.5524 99.6205C41.8131 99.4603 40.1128 99.1007 38.4165 98.7021C30.6579 96.8829 23.7514 93.3656 17.6618 88.248C15.5237 86.4522 13.4737 84.5529 11.7969 82.296C17.0266 80.8539 22.2563 79.4099 27.4861 77.9678C27.8163 79.3082 28.4319 80.5393 29.2059 81.6531C31.7191 85.2642 35.2095 87.6129 39.292 89.1039C43.6091 90.6808 48.0473 91.2767 52.6576 90.8508C56.9629 90.4541 61.0083 89.3481 64.7137 87.1303C68.3213 84.9711 71.1414 82.1103 72.4136 77.9697Z" fill="#E5A323"/>
<path d="M34.925 65.8317C34.0456 64.3662 33.0938 62.9456 32.6169 61.2651C32.1362 59.5709 31.931 57.8455 31.7805 56.1045C31.5421 53.3356 31.2919 50.5667 31.0457 47.7998C31.2841 47.452 31.2646 47.0885 31.1004 46.7192C30.9636 42.69 30.7916 38.6705 31.5714 34.6667C32.5642 29.5784 35.31 26.0298 40.2915 24.3748C42.4237 23.6654 44.4522 23.8726 46.2561 25.3694C47.0573 26.0337 47.9368 26.5985 48.8768 27.0557C50.6943 27.9389 52.5704 28.3024 54.5326 27.5794C55.3221 27.2882 56.0921 26.9482 56.8699 26.6297C58.4568 26.2682 60.0554 25.9908 61.6892 26.0103C65.7581 26.0552 67.3001 27.3293 68.1209 31.3038C69.143 36.2514 68.9632 41.2557 68.8205 46.2581C68.8088 46.6411 68.6798 47.0299 68.8655 47.407C68.3358 51.7079 68.3769 56.0673 67.5385 60.3369C67.1379 62.3828 66.2721 64.2157 64.9666 65.8415C63.3465 67.4418 61.5309 68.8018 59.6489 70.07C57.1083 71.7798 54.7221 73.7436 51.4096 73.9312C48.783 74.0797 46.2952 73.8667 44.0203 72.4754C40.8075 70.5097 37.7216 68.368 34.925 65.8317ZM43.7057 59.1665C43.3715 59.1762 42.9904 59.0121 42.7891 59.356C42.5585 59.7488 42.8028 60.1122 43.0002 60.4444C45.8261 65.2279 52.8069 65.8884 57.0243 62.1346C57.2764 61.9099 57.4914 61.652 57.337 61.2885C57.2002 60.9661 56.8856 60.972 56.5944 60.9329C55.4061 60.7746 54.2179 60.6027 53.0297 60.4405C49.9145 60.0145 46.7994 59.5905 43.7057 59.1665ZM50.9308 48.0265C50.9308 49.3591 50.9679 50.6937 50.9151 52.0244C50.8858 52.7572 51.1242 52.9956 51.8552 52.9663C52.5177 52.9409 52.9398 52.9174 52.9203 52.042C52.8636 49.5076 52.9046 46.9693 52.8988 44.4349C52.8968 43.3368 53.3307 42.4555 54.0616 41.6387C55.9494 39.5303 61.914 39.3759 63.6435 41.6719C64.1028 42.2816 65.121 42.3246 65.6878 41.7481C66.2213 41.203 65.4728 40.863 65.2519 40.48C65.0507 40.1321 64.6852 39.8566 64.3451 39.6143C61.7576 37.7658 58.8985 37.674 55.9651 38.4634C53.2329 39.1981 50.5692 41.6172 50.9171 45.2986C51.0031 46.1975 50.9308 47.1159 50.9308 48.0265ZM41.21 38.0667C38.0323 38.0648 36.1582 38.7897 34.6358 40.6148C34.3817 40.9196 33.8149 41.3671 34.3661 41.7169C34.8292 42.0139 35.4468 42.561 36.1113 41.924C38.8551 39.2958 43.3832 39.2821 46.0489 41.8849C46.6587 42.4809 47.2313 42.4379 47.925 41.6954C48.4742 41.1092 47.7062 40.8825 47.5381 40.5015C47.4541 40.3139 47.2137 40.1927 47.0397 40.0481C45.316 38.6119 43.3324 37.9475 41.21 38.0667ZM58.8711 46.092C59.2933 46.092 59.7154 46.0666 60.1356 46.0998C60.5811 46.133 60.7766 45.92 60.8802 45.5233C61.1577 44.4643 60.5655 43.4071 59.4985 43.0769C58.5154 42.774 57.423 43.3329 57.0653 44.3177C56.6471 45.4686 57.0771 46.09 58.2887 46.092C58.4822 46.092 58.6776 46.092 58.8711 46.092ZM40.8954 46.092C41.3175 46.092 41.7397 46.0646 42.1579 46.0998C42.625 46.1389 42.7852 45.8673 42.8849 45.496C43.1546 44.4936 42.5781 43.4521 41.5599 43.1042C40.5788 42.7681 39.4629 43.284 39.0838 44.2493C38.6225 45.4256 39.0681 46.092 40.3111 46.0939C40.5065 46.092 40.7019 46.092 40.8954 46.092Z" fill="#F1CDA4"/>
<path d="M56.8712 26.6293C56.0914 26.9478 55.3214 27.2897 54.5338 27.5789C52.5697 28.3019 50.6936 27.9365 48.8781 27.0553C47.938 26.598 47.0586 26.0333 46.2573 25.3689C44.4535 23.8702 42.4249 23.665 40.2928 24.3743C35.3112 26.0294 32.5654 29.5779 31.5727 34.6663C30.7909 38.6701 30.9649 42.6895 31.1017 46.7188C31.0157 46.7051 30.9297 46.6914 30.8417 46.6777C30.4997 45.1126 30.2281 43.3285 29.0047 42.3534C27.109 40.843 26.9996 38.8088 26.6165 36.7883C25.8719 32.8607 25.5241 28.9409 26.6927 25.0133C28.2777 19.6885 31.731 16.1908 36.9333 14.356C37.2695 14.2368 37.6056 14.1195 37.9828 13.9866C37.4375 13.0077 37.2343 11.9701 37.1542 10.8973C37.1209 10.4537 37.1815 10.1899 37.719 10.3189C42.8197 11.5324 48.0201 10.8543 53.1678 11.1611C57.391 11.4132 61.0338 13.0819 63.678 16.5484C64.2311 17.2733 64.7138 18.0432 65.005 18.9167C64.45 19.8312 63.5119 20.347 62.7634 21.0603C60.9576 22.7818 59.0952 24.4427 57.1448 26.002C56.963 26.1427 56.4901 26.2228 56.8712 26.6293Z" fill="#6B373E"/>
<path d="M31.584 76.8893C32.4224 76.6392 33.253 76.3636 34.0992 76.1507C34.6894 76.0022 34.9434 75.7364 34.9317 75.0818C34.8985 73.1629 34.9415 71.2441 34.9532 69.3232C35.0978 69.3916 35.2718 69.4288 35.3812 69.5343C37.3805 71.4317 39.6181 73.0535 41.6624 74.8864C44.5801 77.5029 47.965 78.2259 51.684 77.8976C53.0657 77.7764 54.4318 77.413 55.6337 76.6274C57.8069 75.2049 59.7847 73.5342 61.7898 71.8909C62.8373 71.033 63.6737 69.9153 64.9343 69.3213C64.9518 71.2226 65.0027 73.1239 64.9694 75.0232C64.9577 75.7012 65.1785 76.008 65.8254 76.1585C66.6677 76.3558 67.4885 76.6392 68.3191 76.8854C66.8377 80.8853 63.7402 83.2497 60.0348 84.938C56.4213 86.5833 52.5889 87.107 48.6373 86.937C44.7072 86.767 41.0018 85.8232 37.6306 83.7714C34.9083 82.1144 32.6628 80.004 31.584 76.8893Z" fill="#E5C09B"/>
<path d="M31.5845 76.8897C32.6613 80.0044 34.9088 82.1148 37.6272 83.7698C40.9984 85.8235 44.7038 86.7673 48.6339 86.9354C52.5855 87.1054 56.4179 86.5817 60.0314 84.9364C63.7368 83.2501 66.8344 80.8837 68.3157 76.8838C69.715 77.1202 71.0752 77.5013 72.4139 77.9683C71.1397 82.1069 68.3216 84.9696 64.7159 87.1288C61.0105 89.3486 56.9632 90.4526 52.6598 90.8493C48.0476 91.2753 43.6113 90.6793 39.2943 89.1024C35.2117 87.6115 31.7213 85.2627 29.2081 81.6516C28.4342 80.5378 27.8186 79.3088 27.4883 77.9663C28.825 77.5071 30.1833 77.1144 31.5845 76.8897Z" fill="#D88C22"/>
<path d="M56.8711 26.6296C56.49 26.2212 56.9629 26.1411 57.1427 25.9984C59.0931 24.4391 60.9556 22.7782 62.7614 21.0567C63.5099 20.3434 64.4479 19.8276 65.0029 18.9131C71.8684 20.2887 73.7074 24.3707 73.9439 29.7561C74.1042 33.4277 73.256 36.9743 72.5622 40.5385C72.527 40.7241 72.486 40.9273 72.2906 41.0309C70.3421 42.0724 69.8066 44.001 69.2399 45.9062C69.0933 46.3986 68.9917 46.9028 68.8686 47.403C68.6829 47.0278 68.8119 46.637 68.8236 46.254C68.9663 41.2517 69.1461 36.2474 68.124 31.2998C67.3032 27.3252 65.7612 26.0512 61.6923 26.0063C60.0566 25.9926 58.458 26.27 56.8711 26.6296Z" fill="#462429"/>
<path d="M64.9322 69.319C63.6717 69.913 62.8353 71.0308 61.7878 71.8886C59.7826 73.53 57.8049 75.2007 55.6317 76.6252C54.4317 77.4127 53.0637 77.7742 51.682 77.8953C47.9649 78.2236 44.5781 77.5006 41.6603 74.8841C39.6161 73.0512 37.3765 71.4294 35.3792 69.532C35.2697 69.4284 35.0958 69.3913 34.9512 69.321C34.9414 68.1564 34.9336 66.9937 34.9238 65.8291C37.7204 68.3654 40.8063 70.5071 44.0192 72.4709C46.2959 73.8622 48.7818 74.0771 51.4084 73.9266C54.719 73.7391 57.1072 71.7752 59.6478 70.0655C61.5298 68.7992 63.3453 67.4373 64.9655 65.8369C64.9557 66.9996 64.944 68.1603 64.9322 69.319Z" fill="#D4B08C"/>
<path d="M30.8398 46.6777C30.9258 46.6914 31.0118 46.7051 31.0998 46.7188C31.2639 47.0881 31.2854 47.4496 31.047 47.7994C30.9766 47.4242 30.9082 47.051 30.8398 46.6777Z" fill="#CC9973"/>
<path d="M43.7074 59.1658C46.801 59.5878 49.9162 60.0138 53.0314 60.4398C54.2196 60.602 55.4059 60.7739 56.596 60.9322C56.8892 60.9713 57.2038 60.9654 57.3387 61.2878C57.4931 61.6532 57.2781 61.9112 57.026 62.1339C52.8086 65.8877 45.8278 65.2272 43.0019 60.4437C42.8045 60.1096 42.5602 59.7461 42.7908 59.3553C42.9921 59.0133 43.3732 59.1755 43.7074 59.1658Z" fill="#A47160"/>
<path d="M50.9311 48.0264C50.9311 47.1158 51.0034 46.1994 50.9174 45.2966C50.5696 41.6172 53.2352 39.1961 55.9654 38.4614C58.8988 37.672 61.758 37.7638 64.3455 39.6123C64.6855 39.8546 65.051 40.1301 65.2523 40.478C65.4731 40.8609 66.2216 41.201 65.6881 41.7461C65.1233 42.3245 64.1031 42.2796 63.6439 41.6699C61.9124 39.3739 55.9478 39.5283 54.0619 41.6367C53.329 42.4535 52.8971 43.3348 52.8991 44.4329C52.905 46.9693 52.8639 49.5056 52.9206 52.04C52.9401 52.9154 52.518 52.9389 51.8555 52.9643C51.1246 52.9936 50.8862 52.7532 50.9155 52.0224C50.9682 50.6937 50.9311 49.3591 50.9311 48.0264Z" fill="#BB8761"/>
<path d="M41.2116 38.066C43.334 37.9487 45.3177 38.6111 47.0433 40.0493C47.2172 40.1939 47.4576 40.3151 47.5417 40.5026C47.7097 40.8837 48.4778 41.1104 47.9286 41.6966C47.2329 42.4391 46.6622 42.4821 46.0525 41.8861C43.3868 39.2814 38.8587 39.297 36.1148 41.9252C35.4503 42.5622 34.8328 42.0151 34.3696 41.7181C33.8185 41.3663 34.3853 40.9189 34.6393 40.616C36.1598 38.787 38.0339 38.0621 41.2116 38.066Z" fill="#CC9973"/>
<path d="M58.8716 46.0916C58.6762 46.0916 58.4827 46.0916 58.2873 46.0916C57.0756 46.0897 56.6457 45.4683 57.0639 44.3173C57.4215 43.3325 58.514 42.7736 59.497 43.0765C60.564 43.4048 61.1562 44.4639 60.8787 45.523C60.7751 45.9177 60.5797 46.1326 60.1341 46.0994C59.7159 46.0662 59.2937 46.0916 58.8716 46.0916Z" fill="#2D2223"/>
<path d="M40.8957 46.0915C40.7002 46.0915 40.5068 46.0915 40.3113 46.0915C39.0684 46.0915 38.6228 45.4232 39.084 44.2469C39.4612 43.2816 40.5791 42.7657 41.5601 43.1018C42.5783 43.4516 43.1549 44.4911 42.8852 45.4935C42.7855 45.8648 42.6252 46.1364 42.1582 46.0973C41.7419 46.0622 41.3178 46.0915 40.8957 46.0915Z" fill="#2D2223"/>
</g>
<defs>
<clipPath id="clip0_64_193">
<rect width="100" height="100" fill="white"/>
</clipPath>
</defs>
</svg>
