<svg width="33" height="18" viewBox="0 0 33 18" fill="none" xmlns="http://www.w3.org/2000/svg">
<g clip-path="url(#clip0_161_35)">
<path d="M16.8386 12.0735C16.8518 14.9648 14.4641 17.3586 11.5574 17.3693C8.62669 17.3801 6.21497 15.0289 6.20365 12.1503C6.19234 9.19714 8.55645 6.81368 11.5037 6.80666C14.4326 6.79964 16.8254 9.16203 16.8386 12.0735ZM11.4594 12.4245C11.4594 12.425 11.4594 12.4255 11.4594 12.426C11.5457 12.426 11.6324 12.4311 11.7187 12.425C12.636 12.3595 12.9401 12.7517 12.875 13.6289C12.8746 13.6369 12.875 13.6444 12.8746 13.6523C12.8472 14.0867 12.545 14.3994 12.1057 14.4167C11.7135 14.4321 11.3198 14.4317 10.9281 14.4167C10.4831 14.3994 10.1739 14.0666 10.1649 13.6242C10.163 13.5231 10.1724 13.4202 10.1583 13.3205C10.1319 13.136 10.0211 13.0218 9.82831 13.0185C9.63598 13.0153 9.51153 13.1211 9.49126 13.3092C9.42762 13.9037 9.57187 14.4242 10.0734 14.8033C10.3459 15.0088 10.6556 15.1085 10.9969 15.0917C11.1431 15.0842 11.194 15.1329 11.1822 15.277C11.1723 15.4006 11.1732 15.5274 11.1897 15.6506C11.2133 15.8284 11.3288 15.9291 11.5094 15.9333C11.7007 15.9375 11.8228 15.835 11.854 15.6491C11.8719 15.5429 11.8719 15.4301 11.8591 15.3224C11.8379 15.1408 11.8978 15.0889 12.0887 15.0893C12.8208 15.0912 13.42 14.5838 13.5369 13.8695C13.5694 13.6715 13.5576 13.4651 13.5572 13.2629C13.5562 12.3857 12.9278 11.7575 12.0477 11.7519C11.6866 11.7496 11.325 11.7585 10.9639 11.7496C10.4925 11.7383 10.172 11.4093 10.1649 10.9445C10.163 10.8195 10.1635 10.695 10.1649 10.57C10.1706 10.0926 10.4963 9.76632 10.9814 9.7593C11.3349 9.75415 11.6885 9.75603 12.0416 9.7593C12.5408 9.76398 12.8614 10.0804 12.876 10.578C12.8788 10.6791 12.8694 10.7825 12.8868 10.8808C12.9208 11.0685 13.0457 11.1659 13.2366 11.1575C13.4171 11.1495 13.5345 11.0423 13.5506 10.8668C13.568 10.6739 13.5727 10.4773 13.535 10.284C13.3945 9.56926 12.8265 9.09931 12.0642 9.08574C11.9002 9.08293 11.8389 9.04454 11.8587 8.87931C11.8714 8.77165 11.8695 8.66025 11.8568 8.55259C11.8327 8.3546 11.7135 8.24038 11.5108 8.24413C11.3189 8.24741 11.2067 8.36068 11.1846 8.54838C11.1728 8.64855 11.1695 8.75246 11.1822 8.85216C11.2048 9.03284 11.1431 9.0862 10.954 9.08854C10.2568 9.09837 9.7015 9.52433 9.53133 10.1684C9.45071 10.4731 9.46344 10.7877 9.4922 11.0989C9.5615 11.839 10.1465 12.3908 10.8946 12.4236C11.0818 12.4316 11.2708 12.4245 11.4594 12.4245Z" fill="#FDCA10"/>
<path d="M4.19491e-05 5.89894C0.0108843 3.2117 2.08508 0.934023 4.7542 0.677516C7.46149 0.417732 9.90999 2.19409 10.4752 4.83313C10.5601 5.23006 10.5954 5.63354 10.5879 6.04124C10.5855 6.16715 10.5436 6.20881 10.4205 6.2369C7.82448 6.82293 6.22169 8.40223 5.63007 10.9837C5.60132 11.1087 5.5603 11.1578 5.41841 11.1616C2.46127 11.2369 -0.0117433 8.83802 4.19491e-05 5.89894ZM4.94842 3.8759C4.94842 4.52279 4.94606 5.16921 4.94936 5.81609C4.95077 6.1269 5.06768 6.24392 5.3741 6.24485C6.26082 6.24719 7.14754 6.24579 8.03425 6.24626C8.04981 6.24626 8.06584 6.24626 8.0814 6.24579C8.31946 6.23643 8.47219 6.09647 8.46465 5.89614C8.45758 5.70563 8.30814 5.57363 8.07998 5.57269C7.33468 5.56988 6.58892 5.56661 5.84362 5.5755C5.68051 5.57737 5.6329 5.53712 5.63432 5.37142C5.64233 4.37394 5.63856 3.37693 5.63809 2.37945C5.63809 2.19269 5.64657 2.00452 5.63149 1.81869C5.61687 1.63521 5.51269 1.51491 5.31706 1.50274C5.10964 1.4901 4.9965 1.60478 4.95643 1.79623C4.9437 1.85614 4.94889 1.92027 4.94889 1.98252C4.94889 2.61349 4.94889 3.24446 4.94842 3.8759Z" fill="#101010"/>
<path d="M12.1648 2.25317C12.4137 2.49704 12.664 2.73997 12.9115 2.98525C13.1203 3.19261 13.1448 3.39014 12.9874 3.55724C12.8276 3.72715 12.6046 3.70749 12.3929 3.49826C11.9418 3.05312 11.4921 2.60657 11.0438 2.15862C10.8048 1.9199 10.8019 1.75186 11.0348 1.51875C11.4935 1.0591 11.9531 0.600381 12.4174 0.146344C12.6461 -0.077398 12.9464 -0.0380793 13.0553 0.219833C13.1293 0.39583 13.0666 0.536722 12.9379 0.661232C12.6758 0.913995 12.4156 1.16863 12.1077 1.46773C12.7941 1.46773 13.4107 1.46633 14.0273 1.46867C14.2154 1.46914 14.4068 1.45884 14.5911 1.48786C15.492 1.62875 16.1142 2.32104 16.1284 3.22631C16.1444 4.2397 16.134 5.25309 16.1312 6.26648C16.1307 6.52721 15.9827 6.69197 15.7654 6.69431C15.5415 6.69618 15.3958 6.52487 15.3958 6.2487C15.3944 5.27416 15.3963 4.29961 15.3949 3.32507C15.3939 2.63044 14.9654 2.20449 14.2658 2.20309C13.5757 2.20168 12.8856 2.20262 12.1959 2.20262C12.1855 2.21947 12.1751 2.23632 12.1648 2.25317Z" fill="#136BB5"/>
<path d="M4.70755 16.5295C3.91841 16.5295 3.19999 16.5327 2.48203 16.5285C1.90597 16.5253 1.4322 16.2996 1.07016 15.854C0.820787 15.547 0.688321 15.1931 0.687378 14.7976C0.68455 13.7767 0.685493 12.7553 0.686907 11.7345C0.687378 11.4705 0.82503 11.3085 1.04376 11.3048C1.27381 11.3006 1.41335 11.463 1.41382 11.7457C1.4157 12.7043 1.41429 13.663 1.41523 14.6216C1.4157 15.3808 1.83007 15.7946 2.58904 15.7955C3.26975 15.7965 3.95047 15.7955 4.70755 15.7955C4.39548 15.4936 4.12583 15.2399 3.86514 14.9778C3.67092 14.7821 3.68082 14.5256 3.88211 14.3927C4.04663 14.2836 4.21493 14.2986 4.35494 14.4353C4.84661 14.9169 5.33641 15.4005 5.82054 15.8896C5.99308 16.0637 5.98742 16.2692 5.8097 16.4485C5.33594 16.9259 4.85793 17.3996 4.37709 17.8701C4.20408 18.0395 3.98017 18.0423 3.83262 17.8925C3.67988 17.7376 3.68459 17.5326 3.86231 17.3528C4.123 17.0893 4.39359 16.8342 4.70755 16.5295Z" fill="#136BB5"/>
</g>
<g clip-path="url(#clip1_161_35)">
<mask id="mask0_161_35" style="mask-type:luminance" maskUnits="userSpaceOnUse" x="16" y="0" width="16" height="18">
<path d="M31.8956 0H16.8389V18H31.8956V0Z" fill="white"/>
</mask>
<g mask="url(#mask0_161_35)">
<path d="M16.8389 0H23.1413L21.2835 1.80378V15.8992H21.3915L21.8668 15.937H21.9856V1.93879L23.4113 0.50225L23.5949 0.793879L22.315 2.10081V15.9424C22.7093 15.9802 23.0873 15.9964 23.4491 15.9964C24.8479 15.9964 25.901 15.6886 26.6192 15.0675C27.3375 14.4464 27.8182 13.4257 28.0612 12C28.8875 14.3978 29.7354 16.0396 30.6049 16.9199H16.8389L18.6588 15.4293V1.67417L16.8389 0ZM31.8956 16.8119L31.3015 18H17.5355L17.2061 17.6436H31.1557L31.5392 16.8119C30.5725 15.6238 29.8002 14.3006 29.2169 12.8425L29.1629 12.6967L29.5842 12.8533L29.676 13.0801C30.2646 14.3816 30.9667 15.5806 31.7876 16.6823L31.8956 16.8119Z" fill="url(#paint0_linear_161_35)"/>
</g>
</g>
<defs>
<linearGradient id="paint0_linear_161_35" x1="24.3672" y1="0" x2="24.3672" y2="18" gradientUnits="userSpaceOnUse">
<stop stop-color="#F102E4"/>
<stop offset="1" stop-color="#920FE8"/>
</linearGradient>
<clipPath id="clip0_161_35">
<rect width="16.8387" height="18" fill="white"/>
</clipPath>
<clipPath id="clip1_161_35">
<rect width="16" height="18" fill="white" transform="translate(16.8389)"/>
</clipPath>
</defs>
</svg>
