<svg width="225" height="125" viewBox="0 0 225 125" fill="none" xmlns="http://www.w3.org/2000/svg">
<g clip-path="url(#clip0_1089_3269)">
<path d="M213.75 0H11.25C5.0368 0 0 4.6637 0 10.4167V114.583C0 120.336 5.0368 125 11.25 125H213.75C219.963 125 225 120.336 225 114.583V10.4167C225 4.6637 219.963 0 213.75 0Z" fill="#E9EEF1"/>
<mask id="mask0_1089_3269" style="mask-type:luminance" maskUnits="userSpaceOnUse" x="95" y="49" width="36" height="28">
<path d="M130.003 49H95V76.9985H130.003V49Z" fill="white"/>
</mask>
<g mask="url(#mask0_1089_3269)">
<path d="M112.514 76.966C107.771 76.966 103.027 76.9677 98.2853 76.966C96.2803 76.9643 95.0163 75.7483 95.0129 73.7245C94.9957 66.6413 95.0026 59.5563 95.0078 52.4731C95.0078 50.1286 96.5153 48.9864 98.5236 49.0001C107.924 49.0653 117.324 49.0275 126.725 49.0292C128.934 49.0292 129.966 50.0651 129.968 52.281C129.97 59.4226 129.909 66.5641 130.004 73.704C130.031 75.7998 128.507 77.0363 126.656 76.9986C121.943 76.8991 117.228 76.966 112.514 76.966ZM112.563 74.5769C117.218 74.5769 121.873 74.5786 126.527 74.5752C127.589 74.5752 127.718 74.4483 127.718 73.397C127.719 66.4595 127.719 59.522 127.718 52.5846C127.718 51.5435 127.587 51.42 126.514 51.42C117.204 51.4183 107.895 51.4183 98.5854 51.42C97.5203 51.42 97.3951 51.5435 97.3951 52.5983C97.3934 59.5358 97.3934 66.4732 97.3951 73.4107C97.3951 74.4534 97.5238 74.5752 98.5991 74.5769C103.254 74.5769 107.909 74.5769 112.563 74.5769Z" fill="#BABDBF"/>
<path d="M112.562 74.5769C107.907 74.5769 103.253 74.5786 98.5978 74.5751C97.5242 74.5751 97.3939 74.4517 97.3939 73.4089C97.3921 66.4714 97.3921 59.534 97.3939 52.5965C97.3939 51.5417 97.5208 51.4183 98.5841 51.4183C107.894 51.4165 117.203 51.4165 126.512 51.4183C127.586 51.4183 127.716 51.5417 127.716 52.5828C127.718 59.5203 127.718 66.4577 127.716 73.3952C127.716 74.4482 127.588 74.5734 126.526 74.5734C121.871 74.5769 117.217 74.5769 112.562 74.5769ZM112.528 72.3284C116.498 72.3284 120.468 72.3113 124.439 72.3438C125.161 72.349 125.362 72.126 125.348 71.4211C125.307 69.2807 125.314 67.1369 125.346 64.9965C125.355 64.4013 125.159 63.9863 124.742 63.5764C122.624 61.4943 120.511 59.4053 118.446 57.2701C117.896 56.7007 117.608 56.783 117.1 57.301C114.438 60.0108 111.73 62.6743 109.06 65.3772C108.64 65.8026 108.372 65.8249 107.969 65.3772C107.377 64.7203 106.7 64.1407 106.108 63.4838C105.715 63.0482 105.455 63.1116 105.077 63.5026C103.927 64.6946 102.826 65.9535 101.548 66.9962C100.105 68.1745 99.5428 69.5328 99.7366 71.3714C99.8224 72.1792 100.04 72.349 100.786 72.3438C104.7 72.3113 108.614 72.3284 112.528 72.3284ZM103.229 60.6779C105.103 60.6985 106.72 59.1309 106.791 57.2272C106.856 55.4367 105.144 53.6822 103.314 53.665C101.438 53.6461 99.7898 55.2497 99.7778 57.1054C99.7641 59.1498 101.219 60.6556 103.229 60.6779Z" fill="#E8EBEE"/>
<path d="M112.529 72.3286C108.615 72.3286 104.702 72.3115 100.788 72.3441C100.042 72.3509 99.8222 72.1794 99.7382 71.3716C99.5444 69.5314 100.107 68.173 101.549 66.9965C102.825 65.9537 103.928 64.6931 105.079 63.5029C105.456 63.1118 105.717 63.0484 106.11 63.484C106.703 64.1409 107.379 64.7206 107.97 65.3775C108.375 65.8251 108.641 65.8045 109.061 65.3775C111.73 62.6745 114.44 60.011 117.102 57.3012C117.609 56.7849 117.897 56.7009 118.448 57.2703C120.513 59.4056 122.626 61.4928 124.744 63.5766C125.161 63.9865 125.356 64.4016 125.348 64.9967C125.315 67.1388 125.308 69.281 125.349 71.4214C125.363 72.1263 125.162 72.3492 124.44 72.3441C120.47 72.3115 116.5 72.3286 112.529 72.3286Z" fill="#BABDBF"/>
<path d="M103.228 60.6782C101.218 60.6559 99.7637 59.15 99.7774 57.1057C99.7894 55.25 101.438 53.6481 103.314 53.6652C105.144 53.6824 106.856 55.4369 106.79 57.2274C106.72 59.1312 105.103 60.6987 103.228 60.6782Z" fill="#BABDBF"/>
</g>
</g>
<defs>
<clipPath id="clip0_1089_3269">
<rect width="225" height="125" fill="white"/>
</clipPath>
</defs>
</svg>
