<svg width="13" height="13" viewBox="0 0 13 13" fill="none" xmlns="http://www.w3.org/2000/svg">
<g clip-path="url(#clip0_1266_2131)">
<path d="M7.3125 11.375H1.625V5.6875H3.25V4.0625H1.625C0.728711 4.0625 0 4.79121 0 5.6875V11.375C0 12.2713 0.728711 13 1.625 13H7.3125C8.20879 13 8.9375 12.2713 8.9375 11.375V9.75H7.3125V11.375ZM5.6875 8.9375H11.375C12.2713 8.9375 13 8.20879 13 7.3125V1.625C13 0.728711 12.2713 0 11.375 0H5.6875C4.79121 0 4.0625 0.728711 4.0625 1.625V7.3125C4.0625 8.20879 4.79121 8.9375 5.6875 8.9375Z" fill="#0095FF"/>
</g>
<defs>
<clipPath id="clip0_1266_2131">
<rect width="13" height="13" fill="white"/>
</clipPath>
</defs>
</svg>
