<svg width="250" height="346" viewBox="0 0 250 346" fill="none" xmlns="http://www.w3.org/2000/svg">
<g clip-path="url(#clip0_745_266)">
<path d="M23.0803 116.039C22.3261 113.103 26.1246 105.08 26.4271 104.448C26.5812 103.636 27.7439 97.8065 29.4225 97.3259C29.6632 97.2577 30.0291 97.2593 30.4215 97.6476C32.198 92.7137 33.2427 92.4978 33.5925 92.4256C34.0852 92.3253 34.6918 92.6334 34.8363 93.5377C35.564 92.0645 36.2252 91.2934 36.8455 91.1875C38.3323 90.9412 38.1775 93.2007 37.9062 94.6836C38.5682 93.5121 39.5536 92.3446 40.4675 93.3347C41.9222 94.9235 39.4709 102.374 39.1508 103.321L37.964 111.357C37.9512 111.446 37.8886 111.519 37.8027 111.546L23.3796 116.204C23.248 116.247 23.1124 116.167 23.0803 116.039ZM29.5525 97.78C28.4805 98.0865 27.3467 102.105 26.8845 104.566C26.8805 104.586 26.8749 104.606 26.8652 104.624C26.8259 104.706 23.0282 112.638 23.4871 115.675L37.5195 111.143L38.6878 103.232C38.6902 103.218 38.6934 103.204 38.6982 103.191C39.4605 100.939 41.2025 94.8352 40.1201 93.6533C39.219 92.6784 37.9103 95.6144 37.4007 96.85C37.3542 96.9648 37.2258 97.0242 37.1079 96.9832C36.9899 96.9431 36.9241 96.8188 36.9562 96.6984C37.3189 95.3552 38.2818 91.4002 36.9249 91.6513C36.6088 91.7051 35.9171 92.1656 34.8435 94.6483C34.7977 94.7534 34.6854 94.8095 34.5715 94.7839C34.4607 94.7566 34.3845 94.6531 34.3917 94.5383C34.4399 93.833 34.3805 92.753 33.688 92.8862C33.3286 92.9608 32.3191 93.6316 30.7079 98.2494C30.6365 98.4564 30.3452 98.4613 30.2658 98.2567C30.1583 97.975 29.8421 97.6966 29.5525 97.78Z" fill="black"/>
<path d="M16.9896 109.768C19.2885 112.677 23.136 113.231 26.0503 111.579L51.991 96.8225C51.8635 96.7832 51.7391 96.7391 51.6107 96.6917C50.5796 96.3684 49.5357 96.0338 48.495 95.6944C43.6589 94.1184 38.7739 92.3925 34.2974 90.6914L19.0879 99.3389C15.2781 101.507 14.4396 106.478 16.9896 109.768Z" fill="white"/>
<path d="M16.8052 109.914C16.8044 109.914 16.8036 109.913 16.8036 109.912C14.1132 106.443 15.1114 101.33 18.9717 99.1343L34.1812 90.4869C34.2413 90.4516 34.3152 90.4468 34.381 90.4716C38.9137 92.1944 43.8196 93.9227 48.5682 95.4706C49.6081 95.81 50.6512 96.1438 51.6815 96.4671C51.8179 96.5177 51.9374 96.5602 52.061 96.5987C52.256 96.6597 52.2865 96.9261 52.1067 97.028L26.1668 111.784C23.1955 113.468 19.2028 112.952 16.8052 109.914ZM17.1751 109.622C19.3737 112.411 23.0872 112.987 25.9341 111.373L51.4183 96.8772C50.4329 96.5682 49.4259 96.2449 48.4221 95.9175C43.7024 94.3793 38.8286 92.663 34.3176 90.9507L19.2044 99.5435C15.4837 101.661 14.7358 106.474 17.1751 109.622Z" fill="black"/>
<path d="M16.9893 109.768C19.2881 112.677 23.1356 113.231 26.0499 111.579L51.9907 96.8225C51.8631 96.7832 51.7387 96.7391 51.6103 96.6917C50.5793 96.3684 49.5353 96.0338 48.4946 95.6943L23.8562 109.714C21.6311 110.974 19.0177 110.885 16.9893 109.768Z" fill="white"/>
<path d="M16.8047 109.914C16.7349 109.825 16.7373 109.701 16.8103 109.616C16.8833 109.53 17.0045 109.508 17.1032 109.561C19.053 110.635 21.5734 110.737 23.7398 109.508L48.3783 95.4889C48.4344 95.4568 48.5051 95.4496 48.5676 95.4697C49.6075 95.8091 50.6507 96.1429 51.6809 96.4663C51.8173 96.5168 51.9369 96.5593 52.0605 96.5978C52.2555 96.6588 52.2859 96.9252 52.1062 97.0271L26.1663 111.783C23.1404 113.498 19.1646 112.904 16.8047 109.914ZM17.9425 110.452C20.0833 112.445 23.3194 112.856 25.9344 111.373L51.4186 96.8771C50.4653 96.5786 49.492 96.2665 48.5219 95.9503L23.9733 109.918C22.0275 111.021 19.8257 111.118 17.9425 110.452Z" fill="black"/>
<path d="M53.4326 34.6157C57.9052 37.8711 66.0752 55.113 73.4613 69.3885C81.8455 84.8812 71.0204 103.577 51.6095 96.6941C36.4362 91.9439 19.7038 85.2631 16.292 82.3207L53.4326 34.6157Z" fill="white"/>
<path d="M51.5307 96.9157C35.6432 91.9416 19.4316 85.3387 16.1385 82.499C16.043 82.4172 16.0294 82.2751 16.1064 82.1756L53.247 34.4707C53.3249 34.3704 53.4685 34.3503 53.572 34.4249C57.3064 37.1442 63.3492 49.0262 69.7451 61.6054C71.0619 64.1939 72.3778 66.7824 73.6697 69.2803C77.989 77.2609 77.408 86.6979 72.2221 92.7577C66.9865 98.8775 59.0989 99.5989 51.5307 96.9157ZM16.6184 82.2848C20.234 85.1646 36.0966 91.5902 51.6799 96.4687C59.8476 99.3654 67.2031 97.9002 71.8651 92.4511C76.925 86.5375 77.4835 77.3147 73.254 69.5001C71.959 66.9975 70.6422 64.4081 69.3255 61.8188C63.3348 50.0388 57.1443 37.864 53.4749 34.9449L16.6184 82.2848Z" fill="black"/>
<path d="M51.8076 96.7586C71.0949 103.446 81.8173 84.8237 73.4627 69.388C72.9709 68.4395 72.4726 67.471 71.9791 66.4985C72.4854 82.3371 64.8675 91.7147 51.8076 96.7586Z" fill="#FFAE44"/>
<path d="M51.7304 96.9807C51.5242 96.91 51.5178 96.618 51.7224 96.5385C65.6688 91.152 72.218 81.3283 71.743 66.5048C71.7342 66.2568 72.072 66.1637 72.1883 66.39C72.6818 67.3625 73.1801 68.3302 73.6712 69.2779C77.9752 77.2304 77.4095 86.6474 72.2605 92.7079C67.11 98.7724 59.3106 99.6093 51.7304 96.9807ZM52.4959 96.7399C60.3546 99.2667 67.4012 97.702 71.9019 92.4038C76.9257 86.4909 77.4689 77.2866 73.2547 69.4993C72.9161 68.8462 72.5751 68.185 72.2357 67.5206C72.3841 81.7816 65.9168 91.3526 52.4959 96.7399Z" fill="black"/>
<path d="M18.9926 45.1529C8.13851 57.9207 5.96561 73.8988 14.134 80.8428C22.3024 87.7868 37.7189 83.0687 48.5738 70.3001C59.4254 57.5347 61.6007 41.5598 53.4323 34.6158C45.2639 27.6719 29.8442 32.3876 18.9926 45.1529Z" fill="white"/>
<path d="M13.982 81.0226C9.96762 77.6101 8.26814 71.9732 9.19731 65.1504C10.1209 58.3653 13.5351 51.2095 18.8141 45.0006C24.0906 38.7932 30.6029 34.2709 37.1505 32.2681C43.7357 30.2541 49.5716 31.0236 53.5852 34.4362C61.8387 41.4524 59.6714 57.6095 48.7531 70.4527C43.475 76.6616 36.9627 81.1847 30.4151 83.1891C24.7253 84.9311 18.5116 84.8734 13.982 81.0226ZM37.2885 32.7191C30.826 34.6962 24.3923 39.1664 19.1727 45.3063C13.9523 51.4471 10.575 58.5178 9.66351 65.2146C8.7576 71.8729 10.3993 77.3597 14.2869 80.664C18.1745 83.9683 23.8531 84.7057 30.2779 82.739C36.7404 80.7611 43.1741 76.2893 48.3945 70.1485C59.1442 57.5028 61.3364 41.6442 53.2803 34.7957C48.8791 31.0541 42.8138 31.0284 37.2885 32.7191Z" fill="black"/>
<path d="M24.5428 50.2836C15.7983 60.5704 14.0507 73.4408 20.6279 79.0319C24.7747 82.5569 31.2388 82.3531 37.642 79.1403C41.4004 77.2578 45.138 74.3435 48.3708 70.5402C50.6793 67.8248 52.5 64.933 53.8015 62.0291C57.458 53.969 57.125 45.9129 52.2825 41.7958C45.7061 36.2047 33.2841 40.0009 24.5428 50.2836Z" fill="#FFAE44"/>
<path d="M20.4752 79.2116C17.2303 76.4529 15.8566 71.8985 16.6061 66.3868C17.3507 60.9121 20.1053 55.1388 24.3628 50.1311C28.6188 45.1249 33.8721 41.478 39.1551 39.862C44.4734 38.2355 49.1907 38.859 52.4339 41.6168C57.2066 45.6737 57.8269 53.7242 54.0147 62.1269C52.6731 65.1239 50.834 68.0061 48.5503 70.6933C45.4041 74.394 41.669 77.3877 37.7469 79.3512C32.1734 82.1476 25.2046 83.2316 20.4752 79.2116ZM24.7223 50.436C20.5226 55.3763 17.8056 61.0637 17.0731 66.4502C16.3453 71.7974 17.662 76.2018 20.7801 78.8521C24.7111 82.1925 30.973 82.2238 37.5358 78.9283C41.4018 76.9929 45.0864 74.0393 48.1917 70.3868C50.4464 67.7341 52.2606 64.8896 53.5862 61.9319C57.3093 53.725 56.7372 45.892 52.1298 41.9747C49.0117 39.3236 44.4525 38.733 39.2939 40.3113C34.0951 41.9017 28.9205 45.4972 24.7223 50.436Z" fill="black"/>
<path d="M44.0556 57.3545L33.6621 69.5814L36.7433 77.8389C36.9383 78.3508 37.252 78.7938 37.642 79.1404C41.4004 77.258 45.138 74.3437 48.3709 70.5403C50.6794 67.825 52.5 64.9331 53.8015 62.0293C53.4573 61.4218 52.8988 60.9316 52.2208 60.6548L44.0556 57.3545Z" fill="white"/>
<path d="M34.9459 60.141C32.0749 63.5183 31.5004 67.7438 33.6612 69.5805C35.8213 71.4171 39.8991 70.1694 42.77 66.7921C45.6402 63.4156 46.2155 59.1902 44.0555 57.3543C41.8946 55.5168 37.816 56.7646 34.9459 60.141Z" fill="white"/>
<path d="M36.1446 70.6557C35.1368 70.6557 34.2228 70.3677 33.5087 69.7603C31.2523 67.8417 31.8172 63.4582 34.7669 59.9887C36.1839 58.3221 37.9347 57.1072 39.6976 56.5672C41.4974 56.0168 43.099 56.2318 44.2071 57.1738C46.4626 59.0916 45.8985 63.4743 42.9489 66.9438C40.9341 69.3149 38.3183 70.6557 36.1446 70.6557ZM41.5616 56.7405C41.0223 56.7405 40.4422 56.832 39.8356 57.0182C38.157 57.5317 36.4848 58.6952 35.1255 60.2944C32.3436 63.5665 31.7546 67.6524 33.8128 69.4024C35.871 71.1508 39.8083 69.9127 42.5902 66.6405C45.3713 63.3684 45.9595 59.2834 43.9022 57.5341C43.2843 57.0077 42.4811 56.7405 41.5616 56.7405Z" fill="black"/>
<path d="M40.4786 111.347C40.4786 111.347 43.2052 100.577 39.8808 98.2124C36.5565 95.8477 36.0309 106.253 36.0309 106.253C36.0309 106.253 32.6079 106.236 33.0596 111.375" fill="white"/>
<path d="M33.0588 111.612C32.9376 111.612 32.8349 111.519 32.8245 111.397C32.6528 109.444 33.005 107.978 33.8708 107.038C34.5729 106.276 35.413 106.083 35.8078 106.035C35.8864 104.804 36.3735 98.7277 38.3594 97.7656C38.8738 97.5184 39.4298 97.6043 40.0172 98.0215C43.4338 100.451 40.8204 110.959 40.7072 111.406C40.6751 111.532 40.55 111.609 40.4216 111.576C40.2956 111.544 40.2194 111.417 40.2515 111.29C40.278 111.184 42.9002 100.65 39.7444 98.4059C39.2998 98.0905 38.9139 98.0215 38.5656 98.19C36.9753 98.9603 36.3671 104.282 36.2668 106.267C36.2603 106.392 36.156 106.49 36.0309 106.491C36.0212 106.491 35.0006 106.503 34.2118 107.365C33.4439 108.204 33.135 109.547 33.2947 111.356C33.3059 111.486 33.2104 111.6 33.0804 111.611C33.0724 111.611 33.0652 111.612 33.0588 111.612Z" fill="black"/>
<path d="M160.046 122.258L151.994 114.402C151.907 114.317 151.899 114.181 151.974 114.086L157.055 107.749C157.532 106.869 161.324 100.004 163.478 99.9888C163.48 99.9888 163.481 99.9888 163.484 99.9888C164.828 99.9888 164.638 101.509 164.232 102.783C165.24 101.434 166.038 100.771 166.652 100.768C166.653 100.768 166.655 100.768 166.657 100.768C168.222 100.768 167.717 102.795 167.161 104.254C167.866 103.78 168.53 103.924 168.823 104.408C169.008 104.713 169.56 105.626 167.153 110.285C167.703 110.308 167.955 110.574 168.069 110.799C168.869 112.378 165.281 117.308 164.869 117.865C164.806 117.97 163.02 120.833 160.324 122.295C160.229 122.346 160.118 122.328 160.046 122.258ZM152.476 114.214L160.25 121.797C162.754 120.369 164.463 117.629 164.479 117.601C165.979 115.571 168.153 112.006 167.648 111.012C167.616 110.949 167.517 110.755 167.073 110.755C167.005 110.762 166.915 110.774 166.812 110.815C166.608 110.895 166.414 110.679 166.516 110.486C168.804 106.163 168.609 104.966 168.419 104.652C168.052 104.052 167.21 104.749 166.729 105.261C166.651 105.344 166.524 105.36 166.427 105.296C166.331 105.232 166.295 105.11 166.342 105.005C166.848 103.853 167.909 101.164 166.653 101.239C166.281 101.241 165.364 101.713 163.402 104.851C163.335 104.956 163.199 104.992 163.091 104.934C162.981 104.875 162.936 104.741 162.988 104.628C163.54 103.429 164.809 100.461 163.484 100.461C163.482 100.461 163.481 100.461 163.48 100.461C161.877 100.472 158.59 105.901 157.458 107.992C157.452 108.005 157.444 108.016 157.435 108.027L152.476 114.214Z" fill="black"/>
<path d="M153.047 113.143C153.047 113.143 152.485 104.471 155.379 103.126C158.274 101.781 157.194 109.86 157.194 109.86C157.194 109.86 159.829 110.335 158.749 114.223" fill="white"/>
<path d="M158.687 114.45C158.562 114.416 158.489 114.286 158.523 114.16C158.899 112.807 158.855 111.744 158.393 111.001C157.923 110.245 157.16 110.093 157.152 110.091C157.029 110.068 156.945 109.952 156.961 109.828C157.166 108.294 157.457 104.14 156.364 103.336C156.135 103.167 155.846 103.169 155.479 103.339C152.762 104.601 153.276 113.042 153.282 113.127C153.29 113.257 153.192 113.369 153.062 113.378C152.908 113.382 152.821 113.288 152.812 113.158C152.789 112.797 152.275 104.309 155.281 102.912C155.81 102.666 156.269 102.681 156.644 102.956C158.047 103.988 157.592 108.549 157.454 109.687C157.771 109.795 158.368 110.074 158.788 110.743C159.327 111.603 159.391 112.794 158.977 114.286C158.943 114.406 158.819 114.486 158.687 114.45Z" fill="black"/>
<path d="M109.545 268.011V344.794L44.3643 330.349V252.074L109.545 268.011Z" fill="white"/>
<path d="M109.544 345.029C109.476 345.029 111.484 345.463 44.3127 330.579C44.2051 330.555 44.1289 330.459 44.1289 330.349V252.073C44.1289 252.001 44.1618 251.933 44.2188 251.888C44.2749 251.844 44.3496 251.827 44.4202 251.844L109.601 267.782C109.707 267.807 109.78 267.902 109.78 268.01V344.793C109.78 344.924 109.674 345.029 109.544 345.029ZM44.5991 330.16L109.309 344.5V268.196L44.5991 252.374V330.16Z" fill="black"/>
<path d="M81.5009 261.151V338.582L68.1113 335.612V257.878L81.5009 261.151Z" fill="#FFA186"/>
<path d="M177.96 252.074V328.306L109.545 344.794V268.011L177.96 252.074Z" fill="white"/>
<path d="M109.31 344.794V268.011C109.31 267.902 109.384 267.807 109.492 267.782C180.944 251.172 177.932 251.75 178.106 251.889C178.163 251.934 178.195 252.002 178.195 252.074V328.307C178.195 328.416 178.121 328.51 178.016 328.535L109.6 345.023C109.448 345.058 109.31 344.943 109.31 344.794ZM109.781 268.198V344.496L177.724 328.121V252.371L109.781 268.198Z" fill="black"/>
<path d="M155.675 257.268V333.674L142.285 336.901V260.382L155.675 257.268Z" fill="#FFA186"/>
<path d="M109.542 268.008L86.8762 289.962L26.6738 272.95L44.3667 252.073L109.542 268.008Z" fill="white"/>
<path d="M86.813 290.189L26.6099 273.177C26.532 273.155 26.4718 273.095 26.4486 273.019C26.4253 272.943 26.443 272.859 26.4943 272.798L44.188 251.921C44.2458 251.852 44.3356 251.823 44.4231 251.844L109.599 267.779C109.778 267.823 109.84 268.048 109.706 268.177L87.0401 290.132C86.9823 290.189 86.8956 290.213 86.813 290.189ZM27.0905 272.822L86.8106 289.698L109.073 268.135L44.4528 252.336L27.0905 272.822Z" fill="black"/>
<path d="M109.543 268.008L132.208 289.962L196.291 272.779L177.959 252.073L109.543 268.008Z" fill="white"/>
<path d="M132.045 290.132L109.379 268.177C109.245 268.048 109.309 267.82 109.49 267.779L177.906 251.844C177.99 251.824 178.078 251.852 178.135 251.917L196.468 272.623C196.585 272.754 196.52 272.961 196.353 273.006L132.27 290.19C132.191 290.211 132.105 290.19 132.045 290.132ZM110.017 268.14L132.277 289.701L195.863 272.651L177.875 252.335L110.017 268.14Z" fill="black"/>
<path d="M21.9199 230.118L44.5861 252.073L109.543 244.65L91.2102 223.944L21.9199 230.118Z" fill="white"/>
<path d="M44.5864 252.308C44.5254 252.308 44.4668 252.285 44.4227 252.241L21.7565 230.287C21.6113 230.146 21.6996 229.901 21.8994 229.883L91.1896 223.71C91.2659 223.702 91.3365 223.731 91.387 223.788L109.719 244.494C109.845 244.636 109.76 244.862 109.57 244.884L44.6136 252.306C44.604 252.307 44.596 252.308 44.5864 252.308ZM22.4538 230.307L44.6706 251.826L109.066 244.468L91.1134 224.189L22.4538 230.307Z" fill="black"/>
<path d="M200.107 230.118L177.441 252.073L109.543 244.65L127.875 223.944L200.107 230.118Z" fill="white"/>
<path d="M109.517 244.884C109.328 244.863 109.239 244.636 109.366 244.494L127.698 223.789C127.747 223.732 127.811 223.699 127.895 223.71L200.127 229.884C200.218 229.892 200.298 229.953 200.328 230.039C200.36 230.126 200.336 230.223 200.27 230.287L177.604 252.242C177.451 252.391 180.389 252.596 109.517 244.884ZM110.02 244.466L177.356 251.827L199.571 230.309L127.973 224.19L110.02 244.466Z" fill="black"/>
<path d="M44.3672 252.073L109.543 244.65L177.958 252.073L109.543 268.008L44.3672 252.073Z" fill="white"/>
<path d="M44.312 252.302C44.2013 252.275 44.1251 252.172 44.1323 252.059C44.1395 251.945 44.2278 251.853 44.3409 251.84L109.517 244.417L177.985 251.84C178.099 251.853 178.187 251.945 178.195 252.06C178.201 252.174 178.124 252.277 178.012 252.303L109.597 268.237C109.492 268.263 112.396 268.937 44.312 252.302ZM45.7058 252.157L109.545 267.766L176.557 252.157L109.518 244.884L45.7058 252.157Z" fill="black"/>
<path d="M109.543 281.216C109.413 281.216 109.308 281.111 109.308 280.98V244.65C109.308 244.52 109.413 244.414 109.543 244.414C109.673 244.414 109.778 244.519 109.778 244.65V280.98C109.778 281.11 109.673 281.216 109.543 281.216Z" fill="black"/>
<path d="M63.2837 215.606L79.0348 210.427L80.8811 192.29C80.8803 192.29 63.1722 208.078 63.2837 215.606Z" fill="black"/>
<path d="M151.482 249.201C151.031 252.197 150.306 255.358 149.334 258.74L118.048 266.027C119.593 261.842 120.863 257.635 121.132 253.468C121.473 248.281 120.081 243.511 117.451 239.504C111.267 230.091 98.8498 225.536 89.8277 219.302C90.3484 219.109 77.4033 199.966 77.9297 199.709C81.6633 197.853 87.2231 194.518 91.2086 191.778C92.5133 190.872 93.6551 190.04 94.5032 189.338C100.841 184.112 118.797 199.141 122.431 192.768C146.086 216.943 154.438 229.707 151.482 249.201Z" fill="white"/>
<path d="M117.826 265.945C119.103 262.488 120.606 257.943 120.896 253.453C121.235 248.305 119.846 243.581 117.253 239.634C112.932 233.055 105.482 228.831 98.5059 224.851C95.3734 223.064 92.4141 221.376 89.6932 219.496C89.6194 219.445 89.5752 219.353 89.5985 219.245C89.3971 218.573 86.4483 213.975 83.8397 209.908C78.6763 201.857 77.5842 200.038 77.6893 199.662C77.707 199.597 77.7655 199.526 77.8257 199.496C81.4558 197.693 87.0276 194.365 91.0749 191.584C92.5216 190.579 93.5936 189.785 94.3527 189.156C100.826 183.818 118.741 198.763 122.226 192.65C122.299 192.522 122.482 192.483 122.599 192.602C145.62 216.128 154.752 229.198 151.715 249.236C151.275 252.158 150.57 255.288 149.56 258.805C149.537 258.887 149.471 258.951 149.388 258.97L118.1 266.256C117.921 266.299 117.76 266.122 117.826 265.945ZM90.0527 219.172C92.7327 221.016 95.651 222.681 98.7394 224.442C105.779 228.458 113.269 232.711 117.648 239.375C120.348 243.489 121.706 248.32 121.367 253.484C121.085 257.859 119.672 262.266 118.419 265.699L149.146 258.543C150.13 255.1 150.818 252.032 151.25 249.167C154.248 229.389 145.223 216.42 122.472 193.146C118.362 199.11 100.786 184.47 94.6536 189.52C93.8745 190.166 92.8217 190.945 91.3437 191.972C87.3341 194.727 81.8329 198.017 78.182 199.846C78.5439 200.779 81.6877 205.679 84.2369 209.654C88.6356 216.514 89.889 218.544 90.0527 219.172ZM78.0359 199.918C78.0351 199.919 78.0343 199.919 78.0335 199.92C78.0351 199.919 78.0359 199.918 78.0359 199.918Z" fill="black"/>
<path d="M121.132 253.468C121.244 251.772 121.188 250.081 120.914 248.405C119.527 239.925 114.069 234.475 107.528 230.037C106.415 224.37 105.298 218.703 104.181 213.035C103.759 210.887 102.85 204.93 106.42 204.646C107.959 204.524 108.477 206.099 109.147 207.155C110.045 208.561 111.199 209.785 112.25 211.065C120.334 220.925 121.661 233.978 122 246.642C122.061 248.992 122.087 251.331 121.132 253.468Z" fill="black"/>
<path d="M134.435 260.981C134.308 260.952 134.23 260.824 134.259 260.698C135.74 254.321 136.063 247.95 135.217 241.762C133.026 225.731 122.168 209.977 110.792 201.522C110.688 201.444 110.666 201.297 110.743 201.192C110.821 201.087 110.97 201.066 111.073 201.144C121.947 209.225 133.376 224.816 135.683 241.699C136.537 247.944 136.212 254.372 134.717 260.805C134.688 260.932 134.559 261.01 134.435 260.981Z" fill="black"/>
<path d="M117.502 245.514C117.01 253.304 114.248 260.25 108.964 267.864L79.3921 260.636C82.1845 256.583 83.8992 252.482 84.0974 247.544C84.6887 233.867 72.5685 223.649 65.5106 213.015C66.0611 213.033 61.1568 190.449 61.7361 190.402C67.2606 189.958 76.7418 188.284 80.9849 186.926C84.0629 185.943 87.6448 188.541 91.209 191.777C96.7046 196.763 102.153 203.259 105.635 200.491C112.599 217.234 116.691 229.296 117.451 239.503C117.614 241.582 117.631 243.577 117.502 245.514Z" fill="white"/>
<path d="M108.964 268.1C108.946 268.1 108.926 268.098 108.908 268.093L79.3364 260.865C79.1767 260.826 79.1045 260.639 79.1984 260.502C81.953 256.502 83.6638 252.445 83.8619 247.535C84.296 237.482 77.7958 229.304 71.5098 221.396C69.2647 218.572 67.1448 215.904 65.3137 213.146C65.2648 213.073 65.2616 212.978 65.3049 212.901C65.3097 212.893 65.3137 212.886 65.3185 212.879C65.3787 212.182 64.35 206.824 63.4401 202.086C61.6331 192.679 61.2937 190.58 61.5288 190.271C61.5697 190.218 61.65 190.174 61.7158 190.168C67.4625 189.705 76.7912 188.021 80.9115 186.702C84.2062 185.65 88.0457 188.589 91.3652 191.603C92.3232 192.473 93.2893 193.397 94.2233 194.291C98.6197 198.496 102.77 202.465 105.487 200.308C105.544 200.262 105.62 200.247 105.692 200.264C105.763 200.283 105.822 200.333 105.85 200.402C112.374 216.086 116.881 228.734 117.683 239.487C117.848 241.558 117.865 243.592 117.736 245.529C117.251 253.219 114.604 260.149 109.156 267.999C109.113 268.063 109.04 268.1 108.964 268.1ZM79.7793 260.488L108.863 267.598C114.197 259.877 116.791 253.056 117.267 245.5V245.499C117.395 243.584 117.377 241.573 117.215 239.523C116.423 228.895 111.976 216.373 105.532 200.859C102.505 202.871 98.3228 198.863 93.8991 194.632C92.9676 193.74 92.0031 192.818 91.0498 191.953C87.8298 189.029 84.1235 186.172 81.056 187.152C76.9485 188.466 67.7073 190.141 61.9196 190.625C61.9107 191.629 63.0108 197.355 63.9031 201.999C65.4357 209.98 65.8457 212.333 65.7679 212.979C67.5741 215.688 69.6659 218.32 71.8789 221.104C78.2187 229.081 84.7751 237.329 84.333 247.556C84.138 252.406 82.4971 256.466 79.7793 260.488Z" fill="black"/>
<path d="M95.8851 262.645C95.7744 262.577 95.7399 262.431 95.8081 262.321C103.485 249.887 104.569 239.972 99.1204 232.009C97.3511 229.799 94.8861 227.915 92.5022 226.092C91.7808 225.54 91.0691 224.996 90.3887 224.452C88.3795 222.445 87.2312 220.053 86.217 217.943C83.8387 212.997 83.1254 206.355 85.7468 201.415C85.8086 201.299 85.9498 201.256 86.0653 201.317C86.1801 201.378 86.2234 201.52 86.1632 201.635C83.622 206.423 84.3137 212.904 86.6415 217.739C87.6388 219.815 88.7702 222.169 90.7024 224.102C91.3612 224.626 92.0697 225.169 92.7886 225.718C95.1942 227.557 97.6825 229.459 99.4983 231.728C105.074 239.877 103.994 249.96 96.2085 262.569C96.1394 262.681 95.9934 262.713 95.8851 262.645Z" fill="black"/>
<path d="M168.114 119.896C166.012 135.609 158.75 148.847 146.129 157.641C145.487 158.092 144.831 158.529 144.169 158.952C142.592 159.963 140.947 160.892 139.239 161.745C134.139 164.312 128.458 166.224 122.252 167.453C123.884 173.455 125.318 190.517 126.724 196.574C118.804 206.529 99.3785 199.352 87.8328 201.101C79.0722 202.439 65.567 205.737 62.631 215.603C62.7402 214.456 58.8485 207.451 57.7284 197.756C57.141 192.682 57.1547 182.434 57.3119 173.503V173.469C57.2847 173.455 57.2502 173.448 57.2229 173.435C50.9505 170.629 44.8619 166.516 39.2796 161.083C34.2951 156.235 30.5199 151.115 27.884 146.82C26.0064 143.755 24.7025 141.105 23.9578 139.269C20.9673 131.936 19.6153 123.688 20.0389 114.695C26.5528 113.016 35.238 111.705 41.7173 109.984C41.3899 126.678 52.3138 138.737 69.6777 142.088C88.1128 140.32 88.9938 140.245 108.951 137.718C129.318 135.138 144.688 129.504 147.631 111.377C153.701 114.229 162.01 117.076 168.114 119.896Z" fill="#6680FF"/>
<path d="M139.26 161.761C134.165 164.324 128.48 166.238 122.277 167.464L118.137 150.591L139.26 161.761Z" fill="black"/>
<path d="M119.792 260.751L149.334 258.74L118.048 266.027L119.792 260.751Z" fill="black"/>
<path d="M111.419 264.068L79.3926 260.636L108.964 267.864C109.903 266.515 110.754 265.227 111.419 264.068Z" fill="black"/>
<path d="M85.0252 110.234C85.0252 110.234 82.4864 113.292 83.9452 115.617C85.4039 117.943 93.046 113.818 93.046 113.818L85.0252 110.234Z" fill="black"/>
<path d="M81.4478 139.521L82.9194 134.435C71.5647 130.542 85.8129 112.572 87.2323 111.23L102.224 122.361L96.3058 132.19L93.4437 141.573C84.9631 152.702 82.1684 148.845 81.4478 139.521Z" fill="white"/>
<path d="M84.6586 148.509C82.7361 147.941 81.6416 145.091 81.2131 139.539C81.2107 139.511 81.2139 139.483 81.222 139.456L82.6318 134.584C80.3401 133.74 78.9472 132.246 78.4906 130.142C76.9893 123.226 86.1776 111.905 87.0707 111.06C87.1525 110.98 87.2801 110.974 87.3732 111.041L102.365 122.172C102.462 122.245 102.489 122.379 102.426 122.483L96.5085 132.312C93.4778 142.256 93.672 141.665 93.6319 141.716C91.7414 144.196 87.6091 149.379 84.6586 148.509ZM81.6858 139.545C82.0942 144.776 83.1108 147.56 84.7926 148.056C86.6358 148.601 89.4762 146.384 93.2315 141.463L96.0808 132.12L101.912 122.422L87.2568 111.541C85.8358 113.079 77.5486 123.581 78.9496 130.041C79.3837 132.037 80.7437 133.44 82.9945 134.212C83.1132 134.253 83.179 134.38 83.1445 134.5L81.6858 139.545Z" fill="black"/>
<path d="M84.6909 107.553C85.779 103.6 92.4381 105.66 101.072 109.182C117.94 116.062 104.419 134.019 96.9973 132.86C91.4921 131.999 98.5203 126.551 98.5203 126.551C98.5203 126.551 94.1713 125.925 95.6308 122.584C97.0904 119.244 82.5245 115.425 84.6909 107.553Z" fill="black"/>
<path d="M83.7733 124.38C83.194 124.207 82.4349 123.903 82.1059 123.423C81.7866 122.957 81.9928 122.469 82.5208 122.234C82.9083 122.061 83.3922 122.013 83.7934 121.894C84.6503 121.638 85.0668 121.06 85.4704 120.501C85.5466 120.394 85.6935 120.371 85.7994 120.448C85.9045 120.524 85.9285 120.671 85.8523 120.777C85.4447 121.342 84.9376 122.045 83.9266 122.346C83.5334 122.463 83.0383 122.519 82.7117 122.664C82.4622 122.776 82.3418 122.936 82.4943 123.158C82.6861 123.438 83.2012 123.719 83.9065 123.929C84.0317 123.966 84.1023 124.098 84.0654 124.222C84.0293 124.344 83.9001 124.417 83.7733 124.38Z" fill="black"/>
<path d="M88.9889 122.139C89.1932 121.788 89.0748 121.339 88.7245 121.134C88.3742 120.93 87.9246 121.049 87.7204 121.399C87.5162 121.749 87.6346 122.199 87.9849 122.403C88.3352 122.607 88.7847 122.489 88.9889 122.139Z" fill="black"/>
<path d="M90.3571 121.577C90.2857 120.897 90.0385 120.409 89.6229 120.128C88.8799 119.624 87.8127 119.917 87.8014 119.92C87.6763 119.954 87.5455 119.883 87.511 119.758C87.4757 119.633 87.5471 119.503 87.6723 119.467C87.7252 119.452 88.9569 119.111 89.8853 119.736C90.4221 120.099 90.739 120.701 90.8257 121.528C90.8393 121.657 90.7454 121.773 90.617 121.787C90.4895 121.801 90.3707 121.708 90.3571 121.577Z" fill="black"/>
<path d="M82.6541 119.029C82.549 119.422 82.7817 119.822 83.1749 119.927C83.5649 120.031 83.9685 119.801 84.0736 119.407C84.1787 119.013 83.9428 118.612 83.5528 118.508C83.1597 118.404 82.7593 118.635 82.6541 119.029Z" fill="black"/>
<path d="M85.3676 119.022C85.2954 118.341 85.0483 117.854 84.6326 117.573C83.8896 117.069 82.8224 117.362 82.8112 117.364C82.6868 117.4 82.5552 117.327 82.5207 117.202C82.4854 117.077 82.5568 116.947 82.682 116.911C82.735 116.897 83.9659 116.555 84.8942 117.18C85.4318 117.543 85.7488 118.145 85.8354 118.972C85.8491 119.101 85.7552 119.217 85.6268 119.231C85.5024 119.246 85.3821 119.154 85.3676 119.022Z" fill="black"/>
<path d="M82.898 134.446C84.7547 135.148 87.2141 134.597 89.8612 133.786C89.8612 133.786 88.7306 137.743 82.3291 136.678L82.898 134.446Z" fill="black"/>
<path d="M82.2916 136.911C82.156 136.888 82.0677 136.754 82.1022 136.62L82.6703 134.387C82.6864 134.322 82.7305 134.268 82.7899 134.236C82.8485 134.205 82.9191 134.201 82.9817 134.225C84.8063 134.915 87.3339 134.313 89.7932 133.561C89.9721 133.505 90.1398 133.671 90.0893 133.85C89.5557 135.716 86.9704 137.688 82.2916 136.911ZM82.6222 136.485C87.2568 137.171 88.9314 135.099 89.4418 134.158C86.8613 134.92 84.7646 135.289 83.0635 134.752L82.6222 136.485Z" fill="black"/>
<path d="M95.0984 127.376C94.6707 128.874 95.5381 130.436 97.0354 130.864C98.5391 131.294 100.102 130.426 100.53 128.929C100.96 127.425 100.092 125.862 98.588 125.433C97.0915 125.005 95.5285 125.873 95.0984 127.376Z" fill="white"/>
<path d="M96.9714 131.09C95.3506 130.627 94.4093 128.931 94.8715 127.311C95.3369 125.687 97.0308 124.741 98.6532 125.206C100.277 125.67 101.221 127.369 100.757 128.994C100.293 130.618 98.5995 131.557 96.9714 131.09ZM95.3257 127.441C94.9341 128.812 95.7309 130.246 97.1014 130.638C98.4631 131.027 99.9082 130.254 100.304 128.865C100.697 127.49 99.8985 126.052 98.524 125.659C97.156 125.267 95.7181 126.067 95.3257 127.441Z" fill="black"/>
<path d="M82.6475 127.133C82.6754 126.461 82.1532 125.894 81.4811 125.866C80.809 125.838 80.2416 126.36 80.2136 127.032C80.1857 127.704 80.7079 128.272 81.38 128.3C82.0521 128.327 82.6196 127.805 82.6475 127.133Z" fill="black"/>
<path d="M164.939 126.093L145.563 121.484C145.436 121.454 145.358 121.327 145.388 121.201C145.419 121.075 145.544 120.993 145.672 121.027L165.048 125.636C165.175 125.665 165.253 125.793 165.223 125.919C165.192 126.048 165.061 126.124 164.939 126.093Z" fill="black"/>
<path d="M149.574 118.923C149.448 118.892 149.371 118.764 149.402 118.638L150.085 115.906C150.117 115.78 150.247 115.703 150.371 115.735C150.497 115.767 150.574 115.895 150.543 116.021L149.86 118.752C149.828 118.88 149.698 118.955 149.574 118.923Z" fill="black"/>
<path d="M40.386 120.979C29.5504 120.57 33.1074 120.705 22.2831 120.296C22.1539 120.291 22.052 120.182 22.0568 120.052C22.0616 119.926 22.1659 119.825 22.2919 119.825C22.2943 119.825 22.2975 119.825 22.3007 119.825L40.3948 120.508C40.524 120.513 40.6259 120.622 40.6211 120.752C40.6163 120.879 40.512 120.979 40.386 120.979Z" fill="black"/>
<path d="M37.5967 116.875C37.4707 116.843 37.3936 116.715 37.4249 116.589L38.1078 113.858C38.1399 113.731 38.2699 113.655 38.3934 113.687C38.5194 113.718 38.5964 113.846 38.5651 113.972L37.8823 116.704C37.851 116.832 37.7202 116.907 37.5967 116.875Z" fill="black"/>
<path d="M67.0636 176.058C57.1982 175.042 48.7513 169.715 43.4033 165.424L43.8238 164.899C49.102 169.133 57.43 174.389 67.1318 175.389L67.0636 176.058Z" fill="black"/>
<path d="M158.794 144.961C155.374 149.911 151.126 154.158 146.128 157.641C145.842 156.705 145.685 155.709 145.685 154.67C145.685 149.058 150.225 144.518 155.831 144.518C156.862 144.518 157.859 144.668 158.794 144.961Z" fill="black"/>
<path d="M40.2624 156.726C40.2624 158.283 39.9141 159.764 39.2794 161.082C34.295 156.234 30.5197 151.113 27.8838 146.819C28.6011 146.655 29.345 146.573 30.1096 146.573C35.7152 146.573 40.2624 151.113 40.2624 156.726Z" fill="black"/>
<path d="M43.3348 17.9223C43.2931 17.7987 43.3589 17.6655 43.4816 17.6238C46.0421 16.758 52.6948 14.0395 52.7349 11.893C52.7509 11.0241 51.1076 10.3918 49.5189 9.78033C47.7231 9.08947 46.0277 8.43632 45.9643 7.26722C45.8126 4.45803 53.9233 0.206921 54.2691 0.0271838C54.383 -0.0321937 54.5267 0.0127406 54.5868 0.127484C54.647 0.243029 54.6021 0.385053 54.4865 0.445233C52.2085 1.62877 46.3221 5.15852 46.4345 7.24074C46.481 8.10573 48.1115 8.7332 49.6882 9.33982C51.5088 10.0411 53.2276 10.7023 53.2051 11.9011C53.1513 14.8162 44.0209 17.9383 43.6325 18.0691C43.5121 18.1108 43.3765 18.0466 43.3348 17.9223Z" fill="black"/>
<path d="M4.98917 19.828C4.90171 19.7317 4.90813 19.5832 5.00522 19.4958C5.10231 19.4083 5.24995 19.4155 5.33741 19.5118C7.06418 21.4111 11.9813 26.2014 13.9656 25.5603C14.7897 25.2939 14.9798 23.5575 15.1636 21.8781C15.3762 19.9387 15.5768 18.1076 16.7419 17.8236C19.5784 17.1311 24.924 25.1615 25.151 25.5033C25.2224 25.6116 25.1928 25.7577 25.0844 25.8299C24.9769 25.9013 24.8301 25.8716 24.7579 25.7633C23.267 23.5094 18.9397 17.7714 16.8534 18.2809C16.0093 18.4872 15.8175 20.2372 15.6322 21.9302C15.4228 23.8424 15.2246 25.6494 14.11 26.0088C11.7678 26.7631 6.6365 21.6422 4.98917 19.828Z" fill="black"/>
<path d="M33.2781 20.8625C33.1498 20.8408 33.0639 20.7188 33.0856 20.5904C33.5373 17.9257 34.2996 10.7803 32.4284 9.72678C31.6717 9.30151 30.3357 10.4465 29.0431 11.5554C27.5835 12.8088 26.205 13.9923 25.1442 13.4932C22.599 12.2945 22.7033 3.13748 22.7089 2.74832C22.7106 2.61913 22.8157 2.51562 22.9441 2.51562C22.9457 2.51562 22.9457 2.51562 22.9473 2.51562C23.0772 2.51723 23.1816 2.62475 23.1792 2.75474C23.1414 5.32241 23.4576 12.1789 25.3448 13.0672C26.1256 13.4355 27.4527 12.2985 28.735 11.1984C30.2154 9.92738 31.6148 8.7294 32.6587 9.31595C35.1991 10.7466 33.6176 20.2647 33.5485 20.6691C33.5277 20.7999 33.4025 20.8841 33.2781 20.8625Z" fill="black"/>
<path d="M102.429 55.4947C102.319 55.4264 102.284 55.2812 102.352 55.1705C102.421 55.059 102.566 55.0252 102.677 55.0935C104.934 56.4848 107.904 55.7811 109.296 53.5224C110.687 51.2652 109.993 48.3036 107.724 46.905C107.613 46.8368 107.578 46.6915 107.647 46.5808C107.715 46.4685 107.86 46.4364 107.971 46.5038C110.455 48.0348 111.229 51.2837 109.698 53.7695C108.163 56.2609 104.897 57.016 102.429 55.4947Z" fill="black"/>
<path d="M0.143384 175.777C-0.529026 172.943 1.22823 170.091 4.05989 169.419C6.90038 168.747 9.74649 170.505 10.4197 173.338C10.4494 173.465 10.3708 173.592 10.2448 173.621C10.118 173.653 9.99122 173.572 9.96073 173.447C9.3485 170.867 6.75113 169.267 4.16902 169.877C1.5893 170.49 -0.0106769 173.088 0.601553 175.669C0.631242 175.796 0.552607 175.923 0.42663 175.952C0.30627 175.983 0.173875 175.908 0.143384 175.777Z" fill="black"/>
<path d="M156.8 236.238C156.8 236.238 163.012 204.4 185.45 199.474L193.218 208.302C180.35 207.951 168.467 220.671 156.8 236.238Z" fill="#75C675"/>
<path d="M66.3198 245.935C66.3198 245.935 62.3463 213.844 37.2537 208.305L29.9014 217.998C42.7694 217.648 54.6521 230.367 66.3198 245.935Z" fill="#FFC176"/>
<path d="M191.175 95.1337C181.588 93.1967 173.194 89.557 166.522 85.0363L148.98 93.3893C148.795 93.4799 148.587 93.2978 148.657 93.098L155.124 74.7881C148.448 66.598 145.742 57.2974 147.503 48.5858C152.033 26.1146 181.255 17.6421 205.793 22.5921C233.904 28.257 253.5 49.1378 249.476 69.1392C245.012 91.2453 216.209 100.18 191.175 95.1337ZM167.08 84.8606C173.734 89.3027 182.091 92.8332 191.553 94.7052C215.959 99.5268 244.609 91.1032 249.017 69.729C252.97 50.4818 233.634 30.3713 205.913 24.9006C182.266 20.225 152.977 27.9409 148.46 49.8768C146.73 58.2659 149.417 67.2359 156.03 75.1339C156.082 75.1957 156.098 75.28 156.07 75.3562L149.78 92.8027L166.847 84.8421C166.92 84.8084 167.009 84.814 167.08 84.8606Z" fill="black"/>
<path d="M241.47 69.1498C237.69 84.9467 215.387 93.1416 191.649 87.4622C167.903 81.7812 151.725 64.3788 155.504 48.582C159.283 32.786 181.589 24.5822 205.334 30.2632C229.072 35.9426 245.249 53.3538 241.47 69.1498Z" fill="#CAD5FF"/>
<path d="M212.225 151.353C212.115 151.285 212.08 151.14 212.148 151.029C212.217 150.917 212.361 150.884 212.472 150.952C214.737 152.346 217.697 151.645 219.092 149.381C220.483 147.124 219.778 144.155 217.52 142.763C217.409 142.695 217.374 142.55 217.443 142.439C217.511 142.328 217.654 142.294 217.767 142.362C220.245 143.89 221.02 147.149 219.493 149.628C217.96 152.114 214.711 152.886 212.225 151.353Z" fill="black"/>
<path d="M173.611 54.0312C173.529 54.2309 173.365 54.5327 173.121 54.9363C172.829 55.4193 172.432 55.5573 171.928 55.3511C171.648 55.2364 171.398 54.9491 171.176 54.4893C170.206 52.4721 169.266 49.817 168.357 46.5223C167.908 47.5518 167.634 48.1841 167.538 48.42C167.408 48.7361 167.221 49.2144 166.974 49.8555C166.728 50.4966 166.54 50.9748 166.411 51.291C165.928 52.4697 165.398 52.9415 164.823 52.7056C164.531 52.586 164.334 52.4007 164.233 52.1487C164.143 51.9249 164.143 51.6994 164.237 51.4715C164.303 51.3118 164.415 51.0751 164.574 50.7622C164.732 50.4492 164.844 50.2125 164.91 50.0529C165.006 49.817 165.159 49.4663 165.369 49.0017C165.578 48.5371 165.731 48.1865 165.828 47.9506C165.931 47.6986 166.08 47.3167 166.276 46.804C166.472 46.2912 166.622 45.9093 166.725 45.6573C166.823 45.4174 166.945 45.0499 167.092 44.5548C167.239 44.0598 167.362 43.6923 167.46 43.4523C167.558 43.2124 167.749 43.0407 168.031 42.9372C168.314 42.8337 168.587 42.8361 168.851 42.9444C169.147 43.0656 169.369 43.4555 169.52 44.1143C170.273 47.4475 171.197 50.2928 172.294 52.651C172.35 52.5251 172.477 52.2217 172.674 51.7427C173.481 49.7728 174.006 48.436 174.247 47.7323C174.287 47.6128 174.349 47.3865 174.434 47.0527C174.509 46.7566 174.579 46.5287 174.644 46.3691C174.871 45.8178 175.275 45.6613 175.858 45.9005C176.51 46.1676 176.423 47.3063 175.6 49.3155C175.582 49.3596 175.448 49.6733 175.2 50.2575C174.344 52.2779 173.814 53.5353 173.611 54.0312Z" fill="white"/>
<path d="M176.447 57.3283C175.708 57.025 175.176 56.5115 174.852 55.7861C174.496 54.9917 174.495 54.1252 174.847 53.1863C175.181 52.2917 175.745 51.6032 176.54 51.1218C177.481 50.5553 178.494 50.4943 179.576 50.938C180.375 51.2654 180.88 51.8455 181.09 52.6784C181.277 53.4271 181.197 54.2279 180.848 55.0784C180.468 56.0052 179.896 56.6952 179.132 57.1478C178.277 57.6509 177.382 57.7111 176.447 57.3283ZM178.85 52.4883C178.36 52.2828 177.881 52.3478 177.412 52.6832C177.017 52.9649 176.715 53.3589 176.507 53.8668C176.31 54.3466 176.296 54.7695 176.463 55.137C176.595 55.429 176.806 55.6345 177.093 55.7524C177.44 55.8952 177.791 55.9009 178.143 55.7693C178.548 55.6128 178.856 55.3031 179.07 54.8401C179.648 53.5739 179.575 52.7908 178.85 52.4883Z" fill="white"/>
<path d="M189.135 58.2076C189.067 58.1795 188.905 58.0969 188.649 57.9597C188.395 58.5093 188.007 59.4232 187.483 60.7023C187.396 60.9141 187.248 61.0658 187.038 61.1572C186.827 61.2487 186.608 61.2471 186.381 61.154C186.153 61.0609 185.996 60.9077 185.908 60.6942C185.82 60.4808 185.82 60.2682 185.906 60.0563L186.592 58.3841C186.845 57.7647 187.261 56.8644 187.838 55.6817C188.42 54.4781 188.837 53.5738 189.091 52.9672C189.52 51.9296 190.016 51.5517 190.578 51.8334C190.729 51.8534 190.928 51.9032 191.175 51.9834C191.422 52.0636 191.717 52.1744 192.062 52.3148C192.845 52.6358 193.476 53.191 193.955 53.9798C194.486 54.86 194.584 55.7073 194.25 56.5226C193.832 57.5456 193.093 58.1924 192.034 58.4636C191.096 58.7011 190.13 58.616 189.135 58.2076ZM191.29 53.8049C191.162 53.7527 191.048 53.707 190.949 53.6692C190.851 53.6307 190.766 53.6019 190.694 53.5826C190.617 53.7704 190.5 54.0512 190.342 54.4251C190.152 54.8656 189.831 55.5412 189.378 56.452C189.569 56.5675 189.698 56.6389 189.766 56.667C190.389 56.9222 190.967 56.9864 191.5 56.8596C192.069 56.724 192.459 56.3966 192.672 55.8766C192.811 55.5372 192.729 55.1513 192.426 54.7188C192.136 54.3015 191.757 53.9966 191.29 53.8049Z" fill="white"/>
<path d="M199.234 61.2047C198.948 61.8017 198.545 61.9935 198.025 61.7801C197.521 61.5738 197.376 61.2112 197.589 60.6912L197.808 60.0734C196.85 59.8487 196.017 60.0469 195.31 60.6671L194.081 63.685C193.987 63.9128 193.832 64.0693 193.614 64.156C193.397 64.2418 193.169 64.2362 192.929 64.1375C192.681 64.0356 192.522 63.8775 192.452 63.6617C192.383 63.4651 192.394 63.2557 192.486 63.0318L194.095 59.1057C194.146 58.9821 194.226 58.7984 194.334 58.556C194.442 58.3137 194.523 58.1308 194.573 58.0064C194.665 57.7825 194.808 57.6228 195.004 57.5282C195.199 57.4335 195.421 57.4367 195.668 57.5378C196.112 57.7191 196.282 58.0553 196.18 58.5456C197.103 58.3081 197.996 58.3659 198.86 58.7197C199.659 59.0471 199.841 59.7428 199.405 60.8051C199.322 61.0098 199.265 61.143 199.234 61.2047Z" fill="white"/>
<path d="M200.663 67.2507C199.924 66.9474 199.392 66.4338 199.068 65.7085C198.712 64.9141 198.71 64.0475 199.063 63.1087C199.397 62.214 199.961 61.5256 200.756 61.0441C201.697 60.4776 202.71 60.4167 203.792 60.8604C204.591 61.1878 205.095 61.7679 205.305 62.6008C205.493 63.3494 205.413 64.1502 205.064 65.0008C204.684 65.9275 204.112 66.6176 203.348 67.0701C202.493 67.5741 201.597 67.6342 200.663 67.2507ZM203.066 62.4114C202.576 62.206 202.097 62.271 201.628 62.6064C201.232 62.888 200.931 63.282 200.723 63.7899C200.526 64.2698 200.512 64.6926 200.679 65.0601C200.811 65.3522 201.021 65.5576 201.309 65.6756C201.656 65.8184 202.007 65.824 202.359 65.6924C202.763 65.536 203.072 65.2262 203.286 64.7633C203.864 63.4971 203.791 62.7131 203.066 62.4114Z" fill="white"/>
<path d="M211.651 64.3041C212.261 62.9625 212.708 62.0469 212.993 61.5567C213.254 61.1129 213.61 60.9838 214.062 61.1683C214.298 61.2646 214.456 61.4195 214.537 61.6313C214.618 61.8439 214.613 62.0606 214.522 62.2828C214.282 62.8678 213.88 63.7215 213.316 64.8425C212.751 65.9634 212.349 66.8172 212.11 67.4021C211.524 68.8312 211.178 69.8061 211.072 70.3277C211.058 70.3975 211.04 70.4585 211.018 70.5106C210.928 70.7329 210.773 70.8821 210.554 70.96C210.335 71.0378 210.12 71.033 209.909 70.9463C209.612 70.8252 209.447 70.6029 209.411 70.2803C209.072 70.3325 208.747 70.3245 208.435 70.2547C208.122 70.1849 207.81 70.0862 207.499 69.9586C206.603 69.5919 205.978 69.0013 205.621 68.1877C205.256 67.3572 205.259 66.4898 205.629 65.5871C206.07 64.5119 206.729 63.7689 207.607 63.3557C208.486 62.9432 209.414 62.9376 210.393 63.3388C210.693 63.4616 210.948 63.6036 211.157 63.7641C211.367 63.9262 211.531 64.1059 211.651 64.3041ZM210.757 66.1432C210.728 65.8375 210.633 65.5791 210.472 65.3689C210.311 65.1586 210.084 64.9933 209.793 64.8738C209.202 64.6315 208.688 64.6202 208.252 64.8409C207.817 65.0616 207.459 65.5133 207.179 66.1969C207.002 66.6286 207.01 67.0635 207.204 67.5024C207.397 67.9414 207.706 68.2471 208.13 68.4212C208.437 68.5472 208.686 68.6073 208.875 68.6009C209.003 68.5969 209.239 68.5448 209.584 68.4437C209.674 68.4156 209.766 68.3803 209.857 68.3385C209.929 68.142 210.228 67.411 210.757 66.1432Z" fill="white"/>
<path d="M218.675 70.1723C218.566 70.4403 218.403 70.8447 218.185 71.3855C217.968 71.9263 217.805 72.3307 217.695 72.5987C217.66 72.683 217.616 72.8106 217.563 72.9823C217.509 73.154 217.465 73.2816 217.43 73.3658C217.339 73.5897 217.182 73.7413 216.96 73.8208C216.738 73.9002 216.51 73.8914 216.274 73.7951C215.943 73.6595 215.762 73.4099 215.733 73.0481C215.145 73.0264 214.577 72.9028 214.029 72.679C213.461 72.4463 213.033 72.1317 212.743 71.7345C212.419 71.282 212.323 70.7757 212.454 70.2172C212.706 69.1596 212.992 68.2393 213.313 67.4561C213.525 66.9394 213.827 66.3737 214.218 65.7591C214.482 65.3426 214.844 65.2287 215.303 65.4173C215.535 65.5119 215.703 65.666 215.808 65.8778C215.912 66.0897 215.919 66.3071 215.828 66.5294C215.756 66.7043 215.615 66.9659 215.404 67.3149C215.193 67.664 215.048 67.936 214.968 68.1302C214.739 68.6894 214.558 69.1861 214.424 69.621C214.29 70.0551 214.206 70.425 214.17 70.7299C214.252 70.8142 214.335 70.888 214.42 70.9506C214.504 71.0132 214.59 71.0621 214.678 71.0982C215.122 71.2796 215.635 71.416 216.219 71.5059C216.345 71.1985 216.487 70.8479 216.643 70.4547C216.827 69.9837 216.96 69.6467 217.043 69.4429C217.379 68.6236 217.707 67.932 218.026 67.3679C218.281 66.9169 218.651 66.7902 219.134 66.9883C219.37 67.0846 219.541 67.2419 219.648 67.4578C219.755 67.6744 219.757 67.8919 219.654 68.1109C218.954 69.6002 218.628 70.2886 218.675 70.1723Z" fill="white"/>
<path d="M220.99 75.6083C220.111 75.2481 219.476 74.696 219.086 73.953C218.674 73.1682 218.646 72.345 218.999 71.4816C219.325 70.6864 219.943 69.9803 220.853 69.3641C221.889 68.6588 222.83 68.4798 223.678 68.8273C224.093 68.9974 224.533 69.3087 224.997 69.7597C225.559 70.3117 225.766 70.7683 225.62 71.1277C225.539 71.3235 225.4 71.4696 225.202 71.5659C224.991 71.671 224.772 71.6766 224.544 71.5835C224.373 71.5129 224.204 71.3356 224.038 71.0507C223.872 70.7659 223.548 70.5243 223.064 70.3262C222.756 70.2002 222.299 70.3655 221.692 70.8212C221.109 71.2642 220.731 71.6974 220.557 72.1203C220.385 72.54 220.402 72.9315 220.608 73.2958C220.802 73.6417 221.135 73.9113 221.607 74.1038C221.875 74.2138 222.244 74.2459 222.715 74.2009C223.186 74.156 223.473 74.1544 223.577 74.1977C223.793 74.286 223.947 74.44 224.036 74.6583C224.126 74.8765 224.13 75.0868 224.048 75.2866C223.921 75.5979 223.453 75.7704 222.646 75.8041C221.926 75.8306 221.374 75.7656 220.99 75.6083Z" fill="white"/>
<path d="M230.903 73.5937C230.819 73.5592 230.722 73.5159 230.61 73.4629C230.499 73.41 230.401 73.3666 230.317 73.3321C230.154 73.2647 229.957 73.203 229.728 73.1468C229.139 74.7909 228.742 75.8605 228.539 76.3556C228.517 76.4077 228.48 76.5056 228.426 76.6484C228.371 76.7921 228.327 76.9076 228.29 76.9959C227.914 77.9154 227.436 78.2557 226.857 78.0181C226.637 77.9283 226.475 77.7822 226.37 77.5808C226.253 77.365 226.239 77.1491 226.328 76.9333C226.386 76.7897 226.481 76.5762 226.611 76.293C226.741 76.0105 226.836 75.7971 226.894 75.6527C227.092 75.1696 227.481 74.1193 228.058 72.5033C227.815 72.3893 227.454 72.2032 226.975 71.944C226.496 71.6848 226.351 71.3229 226.541 70.8591C226.633 70.6353 226.787 70.4764 227.003 70.3833C227.218 70.2902 227.446 70.2919 227.685 70.3905C227.833 70.4507 228.163 70.6144 228.675 70.88C228.723 70.7508 228.8 70.535 228.905 70.2325C228.994 69.9701 229.067 69.7695 229.124 69.6291C229.216 69.4052 229.374 69.2527 229.598 69.1725C229.823 69.0915 230.051 69.0987 230.283 69.1942C230.874 69.4365 230.966 70.0551 230.558 71.0501L230.345 71.5364C230.607 71.6022 230.816 71.6664 230.972 71.7306C231.432 71.9191 231.733 72.0772 231.876 72.2064C232.15 72.4495 232.21 72.7584 232.056 73.1339C231.963 73.3618 231.807 73.5199 231.589 73.6074C231.372 73.6972 231.143 73.6924 230.903 73.5937Z" fill="white"/>
</g>
<defs>
<clipPath id="clip0_745_266">
<rect width="250" height="345.031" fill="white"/>
</clipPath>
</defs>
</svg>
