<svg width="100" height="100" viewBox="0 0 100 100" fill="none" xmlns="http://www.w3.org/2000/svg">
<g clip-path="url(#clip0_64_210)">
<path d="M0.364442 43.9689C0.438518 43.359 0.918059 39.1801 2.32744 34.835C8.45817 15.9475 24.2869 2.84381 43.9715 0.318453C44.2366 0.285224 44.5212 0.261769 44.5212 0.261769C50.1178 -0.289432 54.4786 0.171857 55.8684 0.337999C56.2993 0.388819 60.6112 0.881382 64.9778 2.3063C83.8125 8.45356 96.8829 24.325 99.3878 44.0647C99.4112 44.2523 99.4619 44.4067 99.4619 44.4067C99.7406 45.73 100.417 49.4359 99.6354 55.333C99.534 56.1031 99.2592 58.0304 98.5905 60.7297C97.8147 63.863 96.4501 69.2479 92.9043 75.2896C90.9471 78.6222 88.5825 81.7359 85.795 84.621C85.5162 83.2214 85.2608 81.8161 84.9509 80.4205C84.7053 79.3122 84.4733 78.1903 84.099 77.1231C83.3992 75.1293 81.7988 73.9312 80.0444 72.9715C74.2177 69.7815 67.8375 68.6009 61.3344 67.8973C61.0635 67.6744 60.7984 67.4438 60.5177 67.2327C59.5488 66.5056 58.8003 65.5009 57.6833 64.9614C57.3539 64.9067 57.0264 64.85 56.6969 64.7953C56.3324 62.9619 56.8197 61.1617 56.9114 59.3478C57.5196 58.4721 58.4962 58.0245 59.2623 57.3267C61.8998 54.9206 63.8667 52.061 65.2156 48.7596C65.3345 48.4665 65.4125 48.0638 65.8238 48.0951C67.7927 48.2456 68.243 46.7816 68.6855 45.3703C69.3034 43.4079 69.5841 41.3771 69.6738 39.3267C69.7576 37.4014 69.2001 36.512 67.6289 35.8787C67.6328 33.3964 67.5763 30.9179 67.2605 28.4512C67.4379 28.0446 67.4008 27.6166 67.3463 27.2003C66.97 24.3837 66.2741 21.655 65.1532 19.0339C64.276 16.9796 62.8549 15.4511 60.9426 14.333C58.1765 12.7166 55.1686 11.8761 52.0165 11.4793C51.6773 10.3886 50.8001 10.1267 49.8215 10.1384C48.8781 10.1502 48.0379 10.4258 47.726 11.4813C45.8877 11.7217 44.0807 12.1087 42.3282 12.7244C38.6283 14.0223 35.5932 16.0394 34.1877 19.9662C33.4294 22.087 32.7335 24.2136 32.3904 26.4419C32.2871 27.1103 32.1935 27.8003 32.4762 28.4629C32.174 30.9258 32.0922 33.3983 32.1448 35.8768C30.8231 36.211 30.2266 37.1199 30.1623 38.4315C30.0239 41.2969 30.5054 44.0627 31.5931 46.7112C31.9167 47.4989 32.4898 48.1381 33.4197 48.0814C34.176 48.0364 34.4041 48.4332 34.6497 49.0177C35.8583 51.8948 37.5289 54.4495 39.7746 56.6485C40.7512 57.6043 41.9578 58.2806 42.8273 59.3458C42.9189 61.1617 43.4062 62.9599 43.0417 64.7933C42.7122 64.8481 42.3828 64.9048 42.0553 64.9595C40.6752 65.7101 39.7083 66.9747 38.4471 67.8719C36.371 67.9931 34.3242 68.3488 32.289 68.7495C27.9166 69.6095 23.6222 70.7178 19.6962 72.9382C17.3297 74.2752 15.6006 76.0578 15.1503 78.8998C14.8443 80.8231 14.355 82.7152 13.9476 84.6229C10.1073 80.7215 7.08387 76.2474 4.74854 71.3061C3.47951 68.6185 2.46 65.8567 1.6978 63.0205C1.32353 61.6327 0.727022 59.168 0.350797 56.0269C0.0369502 53.3765 -0.255453 49.1291 0.364442 43.9689Z" fill="#E4A917"/>
<path d="M13.9492 84.6251C14.3566 82.7193 14.8479 80.8253 15.152 78.902C15.6023 76.0599 17.3314 74.2773 19.6979 72.9404C23.6239 70.7219 27.9183 69.6136 32.2907 68.7516C34.3258 68.3509 36.3707 67.9952 38.4468 67.876C38.322 68.0656 38.3746 68.2415 38.478 68.4194C39.745 70.6027 41.0238 72.7781 42.2656 74.9751C42.5209 75.4266 42.8055 75.2996 43.1525 75.2019C45.328 74.5901 47.5035 73.9861 49.6809 73.3782C49.8076 73.3782 49.9363 73.3782 50.063 73.3782C52.1839 73.9744 54.3126 74.5529 56.4257 75.1765C57.0085 75.3485 57.3321 75.2742 57.6499 74.6976C58.7493 72.7058 59.917 70.7551 61.0496 68.7829C61.2036 68.5151 61.4823 68.2708 61.3342 67.8994C67.8372 68.605 74.2175 69.7856 80.0441 72.9756C81.7985 73.9353 83.3989 75.1354 84.0987 77.1272C84.473 78.1944 84.705 79.3163 84.9506 80.4246C85.2586 81.8182 85.5159 83.2236 85.7947 84.6251C84.0403 86.6872 81.9661 88.3955 79.816 90.0081C72.7632 95.2933 64.8781 98.54 56.1235 99.6228C55.8935 99.6521 55.5017 99.529 55.5231 100.002C51.755 100.002 47.9889 100.002 44.2208 100.002C44.2559 99.914 44.287 99.83 44.1759 99.7655C43.79 99.5349 43.3533 99.6404 42.942 99.5779C34.5071 98.3191 26.8325 95.2112 20.002 90.0726C17.8304 88.4346 15.7231 86.7126 13.9492 84.6251Z" fill="#D51E1E"/>
<path d="M42.8307 59.3498C41.9613 58.2845 40.7547 57.6082 39.778 56.6524C37.5324 54.4554 35.8618 51.8988 34.6532 49.0216C34.4076 48.4372 34.1775 48.0385 33.4231 48.0854C32.4933 48.1401 31.9202 47.5009 31.5966 46.7152C30.5089 44.0667 30.0274 41.3009 30.1658 38.4354C30.2301 37.1239 30.8247 36.2169 32.1483 35.8808C33.8189 35.8632 33.8306 35.8632 34.0235 37.5148C34.1697 38.7697 34.2711 40.0304 34.4212 41.2853C34.4446 41.4866 34.3101 41.8814 34.7019 41.8501C35.0294 41.8247 35.2965 41.6175 35.2711 41.1973C35.2536 40.9061 35.275 40.6148 35.2848 40.3216C35.392 36.9187 35.5713 33.5215 36.0392 30.1459C36.5967 31.2464 37.4954 31.5376 38.6903 31.4731C40.4818 31.3754 42.2537 31.1271 43.9731 30.6873C47.8971 29.6846 51.7724 29.6846 55.6945 30.6971C57.3807 31.133 59.1196 31.3832 60.8798 31.4731C62.145 31.5376 63.106 31.2229 63.6947 30.0501C63.8273 31.178 63.9949 32.3038 64.0885 33.4355C64.2931 35.9296 64.5329 38.4218 64.5056 40.9276C64.4998 41.4045 64.607 41.8521 65.1255 41.8345C65.5407 41.8208 65.4043 41.3302 65.4394 41.0429C65.5797 39.8486 65.6889 38.6524 65.8156 37.4562C65.9852 35.8553 65.9871 35.8573 67.6324 35.8788C69.2055 36.514 69.7611 37.4014 69.6773 39.3267C69.5876 41.3771 69.3069 43.408 68.6889 45.3704C68.2445 46.7797 67.7942 48.2456 65.8273 48.0951C65.4179 48.0639 65.34 48.4665 65.2191 48.7597C63.8701 52.061 61.9032 54.9207 59.2658 57.3268C58.4997 58.0246 57.523 58.4702 56.9148 59.3478C56.0864 59.557 55.3807 60.0359 54.6243 60.3994C52.0434 61.6387 49.3962 62.0863 46.6515 61.021C45.3552 60.5206 44.1017 59.9108 42.8307 59.3498ZM45.1856 52.9133C47.7646 55.3995 51.6496 55.5364 54.2676 53.228C54.484 53.0364 54.9109 52.8331 54.3534 52.5282C53.367 51.6447 52.2734 51.0916 50.9303 51.5802C50.1896 51.85 49.5014 51.8421 48.7743 51.5646C47.5521 51.0994 46.5111 51.6721 45.4819 52.2135C45.2304 52.3484 44.977 52.5497 45.1856 52.9133Z" fill="#F3B281"/>
<path d="M32.4806 28.4652C32.198 27.8025 32.2915 27.1126 32.3948 26.4441C32.7379 24.2158 33.4338 22.0892 34.1921 19.9685C35.5976 16.0416 38.6308 14.0225 42.3327 12.7266C44.0851 12.1129 45.8922 11.7239 47.7304 11.4835C49.1613 11.3623 50.5901 11.3682 52.021 11.4815C55.1731 11.8783 58.179 12.7168 60.9471 14.3353C62.8594 15.4533 64.2785 16.9818 65.1577 19.0361C66.2785 21.6572 66.9745 24.3859 67.3507 27.2025C67.4053 27.6188 67.4423 28.0469 67.2649 28.4534C66.2805 28.2169 65.298 27.9804 64.3136 27.7419C60.4909 26.0825 56.4577 25.2752 52.3348 24.9957C48.2022 24.7162 44.089 25.0798 40.085 26.19C38.51 26.6259 36.8511 26.9054 35.4612 27.8807C34.467 28.0762 33.4728 28.2697 32.4806 28.4652ZM52.6155 19.6694C52.6019 18.0842 51.3972 16.9232 49.8006 16.9583C48.2548 16.9916 47.13 18.1546 47.132 19.7183C47.1339 21.3152 48.3133 22.5544 49.8494 22.572C51.4089 22.5935 52.6292 21.3132 52.6155 19.6694Z" fill="#D51E1E"/>
<path d="M42.832 59.3496C44.105 59.9106 45.3564 60.5224 46.6528 61.0247C49.3975 62.09 52.0447 61.6424 54.6256 60.4031C55.382 60.0396 56.0877 59.5587 56.9161 59.3516C56.8245 61.1674 56.3372 62.9656 56.7017 64.7991C56.6725 65.1548 56.7348 65.493 56.9005 65.8116C55.5457 67.5668 53.8732 69.0269 52.3995 70.6707C51.6041 71.5581 50.6256 72.2911 50.0661 73.3818C49.9394 73.3818 49.8107 73.3818 49.684 73.3818C49.068 72.252 48.0583 71.4623 47.2161 70.528C45.7814 68.937 44.1615 67.5179 42.8496 65.8116C43.0153 65.493 43.0777 65.1548 43.0484 64.7991C43.411 62.9637 42.9237 61.1635 42.832 59.3496Z" fill="#E1A379"/>
<path d="M42.8474 65.8102C44.1593 67.5166 45.7793 68.9356 47.214 70.5267C48.0561 71.4591 49.0659 72.2507 49.6819 73.3804C47.5064 73.9864 45.329 74.5923 43.1535 75.2041C42.8084 75.3018 42.5238 75.4308 42.2665 74.9774C41.0248 72.7804 39.746 70.6029 38.4789 68.4216C38.3756 68.2437 38.323 68.0678 38.4477 67.8782C39.7109 66.9791 40.6778 65.7144 42.0579 64.9658C42.2431 65.3196 42.5238 65.5854 42.8474 65.8102Z" fill="#D3D4D5"/>
<path d="M50.0625 73.3785C50.622 72.2878 51.6005 71.5548 52.3959 70.6674C53.8696 69.0236 55.5421 67.5635 56.8969 65.8083C57.2205 65.5835 57.5012 65.3196 57.6845 64.9639C58.8015 65.5053 59.55 66.508 60.5188 67.2351C60.7995 67.4462 61.0647 67.6788 61.3356 67.8997C61.4838 68.2711 61.205 68.5154 61.051 68.7832C59.9184 70.7554 58.7488 72.7081 57.6513 74.6978C57.3336 75.2745 57.01 75.3487 56.4271 75.1767C54.3121 74.5532 52.1853 73.9746 50.0625 73.3785Z" fill="#D3D4D5"/>
<path d="M64.3113 27.7432C65.2957 27.9797 66.2782 28.2181 67.2626 28.4546C67.5765 30.9214 67.633 33.3998 67.6311 35.8822C65.9858 35.8587 65.9839 35.8587 65.8143 37.4595C65.6876 38.6558 65.5784 39.852 65.438 41.0463C65.4049 41.3355 65.5394 41.8262 65.1242 41.8379C64.6057 41.8535 64.4984 41.4079 64.5043 40.9309C64.5316 38.4251 64.2918 35.933 64.0871 33.4389C63.9936 32.3072 63.8279 31.1813 63.6934 30.0535C63.9 29.2814 64.1066 28.5113 64.3113 27.7432Z" fill="#34322F"/>
<path d="M32.4808 28.4653C33.475 28.2698 34.4672 28.0763 35.4614 27.8809C35.6544 28.6373 35.8454 29.3918 36.0384 30.1482C35.5706 33.5238 35.3912 36.9209 35.284 40.3239C35.2743 40.6152 35.2528 40.9084 35.2704 41.1996C35.2957 41.6198 35.0306 41.827 34.7012 41.8524C34.3093 41.8837 34.4458 41.4889 34.4204 41.2876C34.2723 40.0327 34.169 38.772 34.0228 37.5171C33.8317 35.8635 33.82 35.8655 32.1475 35.883C32.0949 33.4007 32.1787 30.9281 32.4808 28.4653Z" fill="#34322F"/>
<path d="M52.021 11.4808C50.5902 11.3674 49.1613 11.3635 47.7305 11.4827C48.0404 10.4292 48.8806 10.1516 49.826 10.1399C50.8046 10.1301 51.6799 10.3901 52.021 11.4808Z" fill="#BC211C"/>
<path d="M42.8461 65.8094C42.5225 65.5846 42.2418 65.3188 42.0586 64.963C42.388 64.9083 42.7175 64.8516 43.045 64.7969C43.0742 65.1526 43.0118 65.4908 42.8461 65.8094Z" fill="#C9C4BA"/>
<path d="M57.6847 64.963C57.5015 65.3188 57.2227 65.5846 56.8972 65.8074C56.7315 65.4908 56.6691 65.1526 56.6984 64.7949C57.0278 64.8516 57.3572 64.9083 57.6847 64.963Z" fill="#C9C4BA"/>
<path d="M36.036 30.1458C35.843 29.3893 35.652 28.6348 35.459 27.8784C36.8489 26.905 38.5078 26.6255 40.0829 26.1877C44.0868 25.0774 48.198 24.7139 52.3326 24.9934C56.4555 25.2729 60.4887 26.0802 64.3114 27.7396C64.1048 28.5078 63.9001 29.2779 63.6935 30.0461C63.1047 31.2188 62.1437 31.5335 60.8786 31.469C59.1183 31.3772 57.3795 31.127 55.6933 30.6931C51.7712 29.6806 47.8959 29.6806 43.9718 30.6833C42.2525 31.1231 40.4805 31.3713 38.6891 31.469C37.4941 31.5394 36.5935 31.2462 36.036 30.1458Z" fill="#BA1D1C"/>
<path d="M54.3534 52.5283C54.9109 52.8332 54.484 53.0365 54.2676 53.2281C51.6496 55.5365 47.7645 55.3996 45.1855 52.9134C46.2869 52.544 47.4059 52.7101 48.5189 52.8176C50.478 53.0072 52.4157 52.7629 54.3534 52.5283Z" fill="#D89364"/>
<path d="M54.354 52.5285C52.4164 52.763 50.4787 53.0074 48.5196 52.8178C47.4046 52.7103 46.2876 52.5441 45.1862 52.9135C44.9776 52.55 45.233 52.3487 45.4845 52.2158C46.5137 51.6724 47.5547 51.0997 48.7769 51.5668C49.5021 51.8444 50.1921 51.8502 50.9329 51.5825C52.2741 51.0918 53.3676 51.647 54.354 52.5285Z" fill="#E4A073"/>
<path d="M52.6144 19.6689C52.628 21.3127 51.4077 22.593 49.8483 22.5734C48.3102 22.5539 47.1328 21.3166 47.1309 19.7197C47.1289 18.156 48.2537 16.993 49.7995 16.9598C51.3961 16.9246 52.6008 18.0837 52.6144 19.6689Z" fill="#931616"/>
</g>
<defs>
<clipPath id="clip0_64_210">
<rect width="100" height="100" fill="white"/>
</clipPath>
</defs>
</svg>
