<svg width="18" height="18" viewBox="0 0 18 18" fill="none" xmlns="http://www.w3.org/2000/svg">
<g clip-path="url(#clip0_155_720)">
<path d="M17.7343 8.99973C17.7343 13.8234 13.8239 17.7338 9.00022 17.7338C4.17651 17.7338 0.266113 13.8234 0.266113 8.99973C0.266113 4.17602 4.17651 0.265625 9.00022 0.265625C13.8239 0.265625 17.7343 4.17602 17.7343 8.99973Z" fill="white" stroke="#EAA306" stroke-width="0.5" stroke-miterlimit="10"/>
<path d="M8.67332 9.00636C8.67332 6.56485 8.67332 4.12302 8.67332 1.6815C8.67332 1.31819 8.77217 1.2206 9.13327 1.22473C10.3084 1.23808 11.4178 1.51971 12.4708 2.03656C12.5729 2.08678 12.597 2.11984 12.5312 2.22887C12.2703 2.66243 12.0211 3.10299 11.7696 3.54228C11.6952 3.67197 11.6943 3.80547 11.7852 3.92912C11.8688 4.04292 11.9864 4.07724 12.1218 4.05436C12.2483 4.03306 12.3195 3.94374 12.3793 3.8398C12.6237 3.41482 12.8726 2.99238 13.1123 2.56485C13.166 2.46917 13.1997 2.45264 13.2976 2.51812C14.174 3.10458 14.9019 3.83726 15.4909 4.71107C15.5544 4.80515 15.5427 4.84234 15.4454 4.8967C15.0039 5.144 14.5668 5.39924 14.1291 5.6529C13.9861 5.73586 13.9222 5.86173 13.9514 6.02607C13.9766 6.16752 14.1031 6.27655 14.2506 6.29149C14.3443 6.30102 14.4244 6.26351 14.5036 6.21742C14.9324 5.96917 15.3634 5.72505 15.7909 5.47426C15.8723 5.42658 15.9101 5.41704 15.9603 5.51749C16.4308 6.45995 16.6892 7.45805 16.7671 8.50636C16.7763 8.63065 16.7458 8.66466 16.6193 8.66243C16.1333 8.65449 15.6469 8.65798 15.1609 8.65957C14.9359 8.66021 14.7916 8.76765 14.7671 8.94597C14.7359 9.17547 14.8891 9.33853 15.1479 9.34012C15.6393 9.3433 16.131 9.34648 16.6221 9.33726C16.7553 9.33471 16.775 9.37922 16.7665 9.49651C16.6905 10.5397 16.4311 11.5324 15.9667 12.4714C15.9187 12.5687 15.8863 12.5852 15.7868 12.5258C15.357 12.2686 14.9219 12.021 14.487 11.7727C14.2839 11.657 14.078 11.7069 13.9826 11.8878C13.8923 12.0588 13.954 12.2444 14.1457 12.356C14.5783 12.6081 15.0109 12.8605 15.448 13.1046C15.5503 13.1618 15.549 13.2009 15.4883 13.2912C14.9031 14.1612 14.1781 14.8894 13.3078 15.4746C13.2115 15.5394 13.172 15.5445 13.1097 15.4323C12.8694 14.9991 12.6145 14.5737 12.3685 14.1437C12.2871 14.0013 12.1759 13.9228 12.0077 13.9415C11.7642 13.9689 11.6412 14.2292 11.7715 14.46C12.0153 14.8913 12.2623 15.321 12.5172 15.746C12.5869 15.8617 12.5846 15.9104 12.454 15.9736C11.4028 16.4816 10.2986 16.7616 9.12913 16.7756C8.77694 16.7797 8.67236 16.6796 8.67236 16.3306C8.67332 13.8897 8.67332 11.4482 8.67332 9.00636Z" fill="#EAA306"/>
<path d="M2.24659 8.65965C2.45766 8.65965 2.66872 8.65647 2.87978 8.66028C3.10896 8.66473 3.25804 8.8011 3.25867 8.99881C3.25963 9.19684 3.11055 9.33829 2.88264 9.34051C2.45511 9.34464 2.02759 9.34496 1.60038 9.34019C1.37279 9.33765 1.22752 9.19493 1.23102 8.99404C1.23452 8.80046 1.37755 8.66569 1.59752 8.6606C1.81366 8.65583 2.03013 8.65965 2.24659 8.65965Z" fill="#EAA306"/>
<path d="M2.57865 13.0604C2.42194 13.063 2.29162 12.9701 2.24521 12.829C2.19435 12.6748 2.24521 12.5213 2.39365 12.4323C2.68291 12.2588 2.97693 12.0932 3.26905 11.9244C3.36505 11.8691 3.45945 11.8112 3.55767 11.76C3.74203 11.664 3.92957 11.712 4.02588 11.8757C4.12347 12.0413 4.0777 12.2337 3.89874 12.3398C3.51381 12.5687 3.1241 12.7902 2.73536 13.0134C2.68513 13.0423 2.63078 13.0642 2.57865 13.0604Z" fill="#EAA306"/>
<path d="M4.07512 5.9491C4.07353 6.20307 3.81161 6.37663 3.59133 6.25711C3.17938 6.03333 2.77474 5.79557 2.37328 5.55304C2.21466 5.45736 2.18383 5.26188 2.27665 5.10644C2.3666 4.95641 2.54397 4.88902 2.70195 4.97612C3.1174 5.20498 3.52649 5.44465 3.93494 5.68591C4.03157 5.74281 4.06781 5.84579 4.07512 5.9491Z" fill="#EAA306"/>
<path d="M5.96894 4.06257C5.83639 4.06257 5.73595 4.00568 5.66983 3.89124C5.44606 3.5044 5.22006 3.11915 5.00168 2.72945C4.9006 2.54891 4.95496 2.36041 5.11897 2.26505C5.28617 2.1681 5.47435 2.21229 5.58083 2.39124C5.81192 2.77967 6.0411 3.16969 6.2582 3.56575C6.38439 3.79589 6.22228 4.05971 5.96894 4.06257Z" fill="#EAA306"/>
<path d="M5.96923 13.9396C6.2321 13.9422 6.38245 14.2066 6.25085 14.4501C6.11036 14.7098 5.95778 14.9625 5.81029 15.2181C5.73655 15.3458 5.66567 15.4755 5.58779 15.6008C5.47781 15.7785 5.29218 15.8322 5.12593 15.74C4.9616 15.6491 4.90057 15.4523 4.99911 15.2756C5.22002 14.8799 5.44857 14.4879 5.67743 14.097C5.74068 13.9898 5.84145 13.9361 5.96923 13.9396Z" fill="#EAA306"/>
</g>
<defs>
<clipPath id="clip0_155_720">
<rect width="18" height="18" fill="white"/>
</clipPath>
</defs>
</svg>
