<svg width="18" height="18" viewBox="0 0 18 18" fill="none" xmlns="http://www.w3.org/2000/svg">
<g clip-path="url(#clip0_1175_3274)">
<path d="M0 1H5.86011L4.13271 2.70357V16.0159H4.23314L4.67504 16.0516H4.78551V2.83108L6.11119 1.47435L6.28192 1.74977L5.09182 2.9841V16.0567C5.45839 16.0924 5.8099 16.1077 6.14634 16.1077C7.44692 16.1077 8.42611 15.817 9.09397 15.2304C9.76184 14.6439 10.2088 13.6799 10.4347 12.3333C11.203 14.598 11.9914 16.1485 12.7999 16.9799H0L1.69225 15.5722V2.58116L0 1ZM14 16.8779L13.4476 18H0.647776L0.341463 17.6634H13.3121L13.6686 16.8779C12.7697 15.7558 12.0517 14.5061 11.5093 13.129L11.4591 12.9913L11.8508 13.1392L11.9362 13.3534C12.4835 14.5827 13.1363 15.715 13.8996 16.7555L14 16.8779Z" fill="url(#paint0_linear_1175_3274)"/>
</g>
<path d="M15.8141 5.41211C16.1722 5.0459 16.1722 4.45117 15.8141 4.08496C15.456 3.71875 14.8745 3.71875 14.5164 4.08496L11.5 7.17285L8.48076 4.08789C8.12269 3.72168 7.54118 3.72168 7.18311 4.08789C6.82503 4.4541 6.82503 5.04883 7.18311 5.41504L10.2024 8.5L7.18597 11.5879C6.8279 11.9541 6.8279 12.5488 7.18597 12.915C7.54404 13.2813 8.12555 13.2813 8.48363 12.915L11.5 9.82715L14.5193 12.9121C14.8774 13.2783 15.4589 13.2783 15.817 12.9121C16.175 12.5459 16.175 11.9512 15.817 11.585L12.7977 8.5L15.8141 5.41211Z" fill="#FB0909"/>
<defs>
<linearGradient id="paint0_linear_1175_3274" x1="7" y1="1" x2="7" y2="18" gradientUnits="userSpaceOnUse">
<stop stop-color="#F102E4"/>
<stop offset="1" stop-color="#920FE8"/>
</linearGradient>
<clipPath id="clip0_1175_3274">
<rect width="14" height="17" fill="white" transform="translate(0 1)"/>
</clipPath>
</defs>
</svg>
