<svg width="34" height="18" viewBox="0 0 34 18" fill="none" xmlns="http://www.w3.org/2000/svg">
<g clip-path="url(#clip0_161_34)">
<path d="M33.6775 12.0735C33.6907 14.9648 31.303 17.3586 28.3963 17.3693C25.4656 17.3801 23.0538 15.0289 23.0425 12.1503C23.0312 9.19714 25.3953 6.81368 28.3426 6.80666C31.2714 6.79964 33.6643 9.16203 33.6775 12.0735ZM28.2983 12.4245C28.2983 12.425 28.2983 12.4255 28.2983 12.426C28.3845 12.426 28.4713 12.4311 28.5575 12.425C29.4749 12.3595 29.7789 12.7517 29.7139 13.6289C29.7134 13.6369 29.7139 13.6444 29.7134 13.6523C29.6861 14.0867 29.3839 14.3994 28.9446 14.4167C28.5523 14.4321 28.1587 14.4317 27.767 14.4167C27.322 14.3994 27.0127 14.0666 27.0038 13.6242C27.0019 13.5231 27.0113 13.4202 26.9972 13.3205C26.9708 13.136 26.86 13.0218 26.6672 13.0185C26.4748 13.0153 26.3504 13.1211 26.3301 13.3092C26.2665 13.9037 26.4107 14.4242 26.9123 14.8033C27.1848 15.0088 27.4945 15.1085 27.8358 15.0917C27.9819 15.0842 28.0329 15.1329 28.0211 15.277C28.0112 15.4006 28.0121 15.5274 28.0286 15.6506C28.0522 15.8284 28.1677 15.9291 28.3482 15.9333C28.5396 15.9375 28.6617 15.835 28.6928 15.6491C28.7107 15.5429 28.7107 15.4301 28.698 15.3224C28.6768 15.1408 28.7367 15.0889 28.9276 15.0893C29.6597 15.0912 30.2588 14.5838 30.3757 13.8695C30.4083 13.6715 30.3965 13.4651 30.396 13.2629C30.3951 12.3857 29.7667 11.7575 28.8866 11.7519C28.5255 11.7496 28.1639 11.7585 27.8028 11.7496C27.3314 11.7383 27.0108 11.4093 27.0038 10.9445C27.0019 10.8195 27.0024 10.695 27.0038 10.57C27.0094 10.0926 27.3352 9.76632 27.8202 9.7593C28.1738 9.75415 28.5274 9.75603 28.8804 9.7593C29.3797 9.76398 29.7002 10.0804 29.7148 10.578C29.7177 10.6791 29.7082 10.7825 29.7257 10.8808C29.7596 11.0685 29.8845 11.1659 30.0755 11.1575C30.256 11.1495 30.3734 11.0423 30.3894 10.8668C30.4069 10.6739 30.4116 10.4773 30.3739 10.284C30.2334 9.56926 29.6653 9.09931 28.9031 9.08574C28.739 9.08293 28.6777 9.04454 28.6975 8.87931C28.7103 8.77165 28.7084 8.66025 28.6957 8.55259C28.6716 8.3546 28.5523 8.24038 28.3496 8.24413C28.1578 8.24741 28.0456 8.36068 28.0234 8.54838C28.0116 8.64855 28.0083 8.75246 28.0211 8.85216C28.0437 9.03284 27.9819 9.0862 27.7929 9.08854C27.0957 9.09837 26.5404 9.52433 26.3702 10.1684C26.2896 10.4731 26.3023 10.7877 26.3311 11.0989C26.4004 11.839 26.9854 12.3908 27.7335 12.4236C27.9207 12.4316 28.1097 12.4245 28.2983 12.4245Z" fill="#FDCA10"/>
<path d="M16.8389 5.89894C16.8498 3.2117 18.9239 0.934023 21.5931 0.677516C24.3004 0.417732 26.7489 2.19409 27.3141 4.83313C27.3989 5.23006 27.4343 5.63354 27.4267 6.04124C27.4244 6.16715 27.3824 6.20881 27.2594 6.2369C24.6633 6.82293 23.0606 8.40223 22.4689 10.9837C22.4402 11.1087 22.3992 11.1578 22.2573 11.1616C19.3001 11.2369 16.8271 8.83802 16.8389 5.89894ZM21.7873 3.8759C21.7873 4.52279 21.7849 5.16921 21.7882 5.81609C21.7896 6.1269 21.9065 6.24392 22.213 6.24485C23.0997 6.24719 23.9864 6.24579 24.8731 6.24626C24.8887 6.24626 24.9047 6.24626 24.9203 6.24579C25.1583 6.23643 25.3111 6.09647 25.3035 5.89614C25.2964 5.70563 25.147 5.57363 24.9188 5.57269C24.1736 5.56988 23.4278 5.56661 22.6825 5.5755C22.5194 5.57737 22.4718 5.53712 22.4732 5.37142C22.4812 4.37394 22.4774 3.37693 22.477 2.37945C22.477 2.19269 22.4854 2.00452 22.4704 1.81869C22.4557 1.63521 22.3516 1.51491 22.1559 1.50274C21.9485 1.4901 21.8354 1.60478 21.7953 1.79623C21.7826 1.85614 21.7878 1.92027 21.7878 1.98252C21.7878 2.61349 21.7878 3.24446 21.7873 3.8759Z" fill="#101010"/>
<path d="M29.0036 2.25317C29.2525 2.49704 29.5029 2.73997 29.7504 2.98525C29.9592 3.19261 29.9837 3.39014 29.8262 3.55724C29.6664 3.72715 29.4435 3.70749 29.2318 3.49826C28.7807 3.05312 28.3309 2.60657 27.8826 2.15862C27.6436 1.9199 27.6408 1.75186 27.8737 1.51875C28.3324 1.0591 28.792 0.600381 29.2563 0.146344C29.485 -0.077398 29.7852 -0.0380793 29.8941 0.219833C29.9681 0.39583 29.9054 0.536722 29.7768 0.661232C29.5146 0.913995 29.2544 1.16863 28.9466 1.46773C29.633 1.46773 30.2496 1.46633 30.8662 1.46867C31.0543 1.46914 31.2457 1.45884 31.43 1.48786C32.3308 1.62875 32.9531 2.32104 32.9672 3.22631C32.9833 4.2397 32.9729 5.25309 32.9701 6.26648C32.9696 6.52721 32.8216 6.69197 32.6043 6.69431C32.3803 6.69618 32.2347 6.52487 32.2347 6.2487C32.2333 5.27416 32.2351 4.29961 32.2337 3.32507C32.2328 2.63044 31.8043 2.20449 31.1047 2.20309C30.4146 2.20168 29.7244 2.20262 29.0348 2.20262C29.0244 2.21947 29.014 2.23632 29.0036 2.25317Z" fill="#136BB5"/>
<path d="M21.5464 16.5295C20.7573 16.5295 20.0389 16.5327 19.3209 16.5285C18.7448 16.5253 18.2711 16.2996 17.909 15.854C17.6597 15.547 17.5272 15.1931 17.5262 14.7976C17.5234 13.7767 17.5244 12.7553 17.5258 11.7345C17.5262 11.4705 17.6639 11.3085 17.8826 11.3048C18.1127 11.3006 18.2522 11.463 18.2527 11.7457C18.2546 12.7043 18.2532 13.663 18.2541 14.6216C18.2546 15.3808 18.6689 15.7946 19.4279 15.7955C20.1086 15.7965 20.7893 15.7955 21.5464 15.7955C21.2343 15.4936 20.9647 15.2399 20.704 14.9778C20.5098 14.7821 20.5197 14.5256 20.721 14.3927C20.8855 14.2836 21.0538 14.2986 21.1938 14.4353C21.6855 14.9169 22.1753 15.4005 22.6594 15.8896C22.8319 16.0637 22.8263 16.2692 22.6486 16.4485C22.1748 16.9259 21.6968 17.3996 21.216 17.8701C21.043 18.0395 20.819 18.0423 20.6715 17.8925C20.5187 17.7376 20.5235 17.5326 20.7012 17.3528C20.9619 17.0893 21.2325 16.8342 21.5464 16.5295Z" fill="#136BB5"/>
</g>
<g clip-path="url(#clip1_161_34)">
<mask id="mask0_161_34" style="mask-type:luminance" maskUnits="userSpaceOnUse" x="0" y="0" width="16" height="18">
<path d="M15.8956 0H0.838867V18H15.8956V0Z" fill="white"/>
</mask>
<g mask="url(#mask0_161_34)">
<path d="M0.838867 0H7.1413L5.28351 1.80378V15.8992H5.39153L5.86677 15.937H5.98558V1.93879L7.41133 0.50225L7.59495 0.793879L6.31502 2.10081V15.9424C6.70926 15.9802 7.08729 15.9964 7.44913 15.9964C8.84787 15.9964 9.90098 15.6886 10.6192 15.0675C11.3375 14.4464 11.8182 13.4257 12.0612 12C12.8875 14.3978 13.7354 16.0396 14.6049 16.9199H0.838867L2.65885 15.4293V1.67417L0.838867 0ZM15.8956 16.8119L15.3015 18H1.53554L1.2061 17.6436H15.1557L15.5392 16.8119C14.5725 15.6238 13.8002 14.3006 13.2169 12.8425L13.1629 12.6967L13.5842 12.8533L13.676 13.0801C14.2646 14.3816 14.9667 15.5806 15.7876 16.6823L15.8956 16.8119Z" fill="url(#paint0_linear_161_34)"/>
</g>
</g>
<defs>
<linearGradient id="paint0_linear_161_34" x1="8.36722" y1="0" x2="8.36722" y2="18" gradientUnits="userSpaceOnUse">
<stop stop-color="#F102E4"/>
<stop offset="1" stop-color="#920FE8"/>
</linearGradient>
<clipPath id="clip0_161_34">
<rect width="16.8387" height="18" fill="white" transform="translate(16.8389)"/>
</clipPath>
<clipPath id="clip1_161_34">
<rect width="16" height="18" fill="white" transform="translate(0.838867)"/>
</clipPath>
</defs>
</svg>
