<svg width="19" height="18" viewBox="0 0 19 18" fill="none" xmlns="http://www.w3.org/2000/svg">
<g clip-path="url(#clip0_1175_3273)">
<path d="M0 1H5.86011L4.13271 2.70357V16.0159H4.23314L4.67504 16.0516H4.78551V2.83108L6.11119 1.47435L6.28192 1.74977L5.09182 2.9841V16.0567C5.45839 16.0924 5.8099 16.1077 6.14634 16.1077C7.44692 16.1077 8.42611 15.817 9.09397 15.2304C9.76184 14.6439 10.2088 13.6799 10.4347 12.3333C11.203 14.598 11.9914 16.1485 12.7999 16.9799H0L1.69225 15.5722V2.58116L0 1ZM14 16.8779L13.4476 18H0.647776L0.341463 17.6634H13.3121L13.6686 16.8779C12.7697 15.7558 12.0517 14.5061 11.5093 13.129L11.4591 12.9913L11.8508 13.1392L11.9362 13.3534C12.4835 14.5827 13.1363 15.715 13.8996 16.7555L14 16.8779Z" fill="url(#paint0_linear_1175_3273)"/>
</g>
<g clip-path="url(#clip1_1175_3273)">
<path d="M18.7272 2.08789C19.0899 2.4541 19.0899 3.04883 18.7272 3.41504L11.2986 10.915C10.9359 11.2813 10.3469 11.2813 9.98413 10.915L6.26985 7.16504C5.90712 6.79883 5.90712 6.2041 6.26985 5.83789C6.63257 5.47168 7.22163 5.47168 7.58435 5.83789L10.6428 8.92285L17.4156 2.08789C17.7783 1.72168 18.3674 1.72168 18.7301 2.08789H18.7272Z" fill="#23D138"/>
</g>
<defs>
<linearGradient id="paint0_linear_1175_3273" x1="7" y1="1" x2="7" y2="18" gradientUnits="userSpaceOnUse">
<stop stop-color="#F102E4"/>
<stop offset="1" stop-color="#920FE8"/>
</linearGradient>
<clipPath id="clip0_1175_3273">
<rect width="14" height="17" fill="white" transform="translate(0 1)"/>
</clipPath>
<clipPath id="clip1_1175_3273">
<rect width="13" height="13" fill="white" transform="translate(6)"/>
</clipPath>
</defs>
</svg>
