<svg width="16" height="18" viewBox="0 0 16 18" fill="none" xmlns="http://www.w3.org/2000/svg">
<g clip-path="url(#clip0_1175_3261)">
<path d="M0 0H6.30243L4.44464 1.80378V15.8992H4.55266L5.0279 15.937H5.14671V1.93879L6.57246 0.50225L6.75608 0.793879L5.47615 2.10081V15.9424C5.87039 15.9802 6.24842 15.9964 6.61026 15.9964C8.009 15.9964 9.06211 15.6886 9.78038 15.0675C10.4986 14.4464 10.9793 13.4257 11.2223 12C12.0486 14.3978 12.8965 16.0396 13.766 16.9199H0L1.81998 15.4293V1.67417L0 0ZM15.0567 16.8119L14.4626 18H0.69667L0.367237 17.6436H14.3168L14.7003 16.8119C13.7336 15.6238 12.9613 14.3006 12.378 12.8425L12.324 12.6967L12.7453 12.8533L12.8371 13.0801C13.4257 14.3816 14.1278 15.5806 14.9487 16.6823L15.0567 16.8119Z" fill="url(#paint0_linear_1175_3261)"/>
</g>
<defs>
<linearGradient id="paint0_linear_1175_3261" x1="7.52835" y1="0" x2="7.52835" y2="18" gradientUnits="userSpaceOnUse">
<stop stop-color="#F102E4"/>
<stop offset="1" stop-color="#920FE8"/>
</linearGradient>
<clipPath id="clip0_1175_3261">
<rect width="15.0567" height="18" fill="white"/>
</clipPath>
</defs>
</svg>
