<svg width="36" height="25" viewBox="0 0 36 25" fill="none" xmlns="http://www.w3.org/2000/svg">
<g opacity="0.9" clip-path="url(#clip0_1411_2135)">
<path d="M31.1638 6.04455C29.4223 5.44348 27.7147 5.58877 26.007 6.2376C24.5979 2.42421 21.9369 0.133392 17.8608 0.00402373C13.6473 -0.127335 10.8291 2.10577 9.20101 5.99479C8.02475 5.63654 6.83456 5.54498 5.65233 5.78183C2.07777 6.49634 -0.308583 9.72658 0.0317561 13.3389C0.362144 16.8458 3.35554 19.5705 6.95796 19.6123C9.21295 19.6382 11.466 19.6243 13.721 19.6263C13.7409 19.5646 13.7508 19.5009 13.7508 19.4372C13.5737 19.2561 13.3965 19.0769 13.2214 18.8958C12.4034 18.2092 11.6112 17.5086 11.5097 16.3383C11.4023 15.0844 11.9655 14.0117 13.0423 13.4524C14.115 12.8951 15.341 13.0285 16.2745 13.8823C16.8298 14.3898 17.3094 14.9829 17.8986 15.6158C18.4957 14.9949 18.9554 14.4774 19.457 14.0057C20.7009 12.8354 22.4225 12.8354 23.557 13.9838C24.6894 15.1302 24.6775 16.8538 23.5132 18.0878C23.2425 18.3744 22.936 18.6271 22.6454 18.8958C22.5658 19.1586 22.1319 19.2282 22.2513 19.6143C24.5501 19.6143 26.8389 19.6541 29.1258 19.6044C32.4794 19.5307 35.3156 16.9653 35.8151 13.6256C36.3028 10.3515 34.3244 7.13721 31.1638 6.04455Z" fill="url(#paint0_linear_1411_2135)"/>
<path d="M22.9917 22.0663C22.8026 21.8633 22.6135 21.6623 22.4245 21.4593C22.1836 21.308 21.9727 21.1229 21.8373 20.8662C21.6562 20.7786 21.5229 20.6432 21.4373 20.4601C21.1746 20.2233 20.8999 19.9964 20.6531 19.7416C20.5018 19.5864 20.5874 19.4531 20.7705 19.3774C20.9118 19.1565 21.081 18.9634 21.3179 18.8381C21.3835 18.7724 21.4492 18.7087 21.5149 18.643C21.5109 18.6012 21.5308 18.5773 21.5726 18.5714C21.9826 18.1395 22.4066 17.7195 22.7986 17.2717C23.4893 16.4855 23.4833 15.4546 22.8066 14.758C22.108 14.0395 21.0253 14.0355 20.2192 14.7679C19.8271 15.1242 19.453 15.5043 19.0868 15.8865C18.7424 16.2447 18.42 16.6229 18.0478 17.0349C17.0905 16.3164 16.4297 15.4406 15.6197 14.7281C14.9768 14.1649 14.1807 14.0554 13.506 14.4355C12.8373 14.8117 12.5307 15.3929 12.5586 16.1631C12.5825 16.8219 13.0721 17.212 13.4065 17.6936C14.0274 18.1992 14.5807 18.7724 15.1062 19.3774C15.5341 20.0083 14.7977 19.9924 14.6066 20.279C14.535 20.3487 14.4633 20.4183 14.3917 20.49L14.4076 20.4721C14.332 20.5537 14.2563 20.6353 14.1827 20.7169C13.8901 21.0314 13.6035 21.3518 13.305 21.6583C12.3874 22.5997 12.3019 23.6844 13.092 24.4586C13.8682 25.2189 14.8992 25.1612 15.8147 24.2636C16.5173 23.5749 17.1801 22.8445 17.9364 22.0524C18.6907 22.8425 19.3176 23.5232 19.9724 24.178C20.8203 25.0279 21.5686 25.199 22.3648 24.7651C23.1489 24.3372 23.4136 23.6128 23.2126 22.4504C23.135 22.325 23.0633 22.1957 22.9917 22.0663Z" fill="#FF0000"/>
</g>
<defs>
<linearGradient id="paint0_linear_1411_2135" x1="-31" y1="10" x2="47.5" y2="20" gradientUnits="userSpaceOnUse">
<stop stop-color="#3827B4"/>
<stop offset="1" stop-color="#6A18A1"/>
</linearGradient>
<clipPath id="clip0_1411_2135">
<rect width="35.8849" height="25" fill="white"/>
</clipPath>
</defs>
</svg>
