<svg width="32" height="32" viewBox="0 0 32 32" fill="none" xmlns="http://www.w3.org/2000/svg">
<path d="M8.23608 10.1998V21.8015L17.4987 23.4249V8.57422L8.23608 10.1998ZM13.6002 18.5696L12.6711 16.9185L11.741 18.5696H10.684L12.1421 15.9809L10.8131 13.6247H11.8712L12.6701 15.0433L13.469 13.6247H14.526L13.198 15.9809L14.6561 18.5696H13.6002Z" fill="#20744B"/>
<path d="M17.9475 10.2002V11.3778H19.4099V12.9702H17.9475V13.9281H19.4099V15.5205H17.9475V16.4784H19.4099V18.0708H17.9475V19.0287H19.4099V20.6201H17.9475V21.7976H23.7638V10.2002H17.9475ZM22.7089 20.6233H20.1554V19.0319H22.7089V20.6233ZM22.7089 18.0708H20.1554V16.4794H22.7089V18.0708ZM22.7089 15.5216H20.1554V13.9291H22.7089V15.5216ZM22.7089 12.9702H20.1554V11.3778H22.7089V12.9702Z" fill="#20744B"/>
<path d="M16 31C24.2843 31 31 24.2843 31 16C31 7.71573 24.2843 1 16 1C7.71573 1 1 7.71573 1 16C1 24.2843 7.71573 31 16 31Z" fill="white" stroke="#0055A2" stroke-miterlimit="10"/>
<g clip-path="url(#clip0_1317_3315)">
<path d="M23.8483 12.7963H23.3921V10.5947C23.3921 10.5809 23.3899 10.5671 23.3881 10.5532C23.3873 10.4658 23.3595 10.3799 23.2996 10.3119L19.6364 6.12742C19.6353 6.12635 19.6342 6.12596 19.6335 6.12482C19.6116 6.10042 19.5862 6.08012 19.5592 6.06258C19.5513 6.05725 19.5432 6.05278 19.5349 6.0481C19.5116 6.03542 19.4868 6.02485 19.4614 6.01719C19.4545 6.01528 19.4483 6.01254 19.4414 6.01067C19.4137 6.00409 19.385 6 19.3559 6H10.3528C9.94176 6 9.60777 6.33437 9.60777 6.74511V12.7961H9.15153C8.56353 12.7961 8.08667 13.2727 8.08667 13.861V19.399C8.08667 19.9867 8.56353 20.4639 9.15153 20.4639H9.60777V24.2549C9.60777 24.6657 9.94176 25 10.3528 25H22.6469C23.0577 25 23.392 24.6657 23.392 24.2549V20.4639H23.8483C24.4362 20.4639 24.9131 19.987 24.9131 19.399V13.8612C24.9132 13.2727 24.4362 12.7963 23.8483 12.7963ZM10.3528 6.74511H18.9833V10.5572C18.9833 10.7631 19.1503 10.9297 19.3559 10.9297H22.647V12.7963H10.3528V6.74511ZM14.0281 13.7984H15.4724L15.9597 14.8137C16.1245 15.1518 16.2486 15.4244 16.3807 15.7382H16.3973C16.5289 15.3832 16.6364 15.1355 16.7767 14.8137L17.2476 13.7984H18.6839L17.1155 16.5139L18.7663 19.3619H17.3134L16.81 18.3549C16.6036 17.9669 16.4714 17.6782 16.3145 17.356H16.298C16.1824 17.6782 16.0422 17.9669 15.8689 18.3549L15.4068 19.3619H13.9703L15.5801 16.5472L14.0281 13.7984ZM9.28979 14.855V13.7984H13.5654V14.855H12.0466V19.3616H10.784V14.855H9.28979ZM22.647 24.053H10.3528V20.4639H22.6469V24.053H22.647ZM23.348 14.855H21.8291V19.3616H20.5663V14.855H19.0721V13.7984H23.348V14.855H23.348Z" fill="#004985"/>
</g>
<defs>
<clipPath id="clip0_1317_3315">
<rect width="19" height="19" fill="white" transform="translate(7 6)"/>
</clipPath>
</defs>
</svg>
