<svg width="31" height="32" viewBox="0 0 31 32" fill="none" xmlns="http://www.w3.org/2000/svg">
<path d="M8.0376 10.1998V21.8015L17.0462 23.4249V8.57422L8.0376 10.1998ZM13.2546 18.5696L12.351 16.9185L11.4464 18.5696H10.4184L11.8365 15.9809L10.5439 13.6247H11.573L12.35 15.0433L13.127 13.6247H14.155L12.8635 15.9809L14.2816 18.5696H13.2546Z" fill="#20744B"/>
<path d="M17.4827 10.2002V11.3778H18.9049V12.9702H17.4827V13.9281H18.9049V15.5205H17.4827V16.4784H18.9049V18.0708H17.4827V19.0287H18.9049V20.6201H17.4827V21.7976H23.1395V10.2002H17.4827ZM22.1135 20.6233H19.63V19.0319H22.1135V20.6233ZM22.1135 18.0708H19.63V16.4794H22.1135V18.0708ZM22.1135 15.5216H19.63V13.9291H22.1135V15.5216ZM22.1135 12.9702H19.63V11.3778H22.1135V12.9702Z" fill="#20744B"/>
<path d="M15.5887 31C23.6458 31 30.1773 24.2843 30.1773 16C30.1773 7.71573 23.6458 1 15.5887 1C7.53157 1 1 7.71573 1 16C1 24.2843 7.53157 31 15.5887 31Z" fill="white" stroke="#EC2A31" stroke-miterlimit="10"/>
<path d="M17.4827 10.1997V11.3773H17.7285H18.9049H19.63H21.878H22.1135V12.9697H21.878H19.63H18.9049H17.7285H17.4827V13.9276H17.5771H18.9049H21.9206V13.9286H22.1135V15.5211H21.9206H19.63H17.5771V15.5201H17.4827V16.4779H18.9049H21.8127V16.479H22.1135V18.0704H21.8127H19.63H18.9049H17.4827V19.0293H18.9049H22.1135V19.0314V20.6228H19.63H17.4827V21.7982H23.1395V10.1997H17.4827Z" fill="#EC2A31"/>
<path d="M17.0452 23.426L8.0376 21.8004V10.1998L17.0452 8.57422V23.426Z" fill="#EC2A31"/>
<path d="M13.9957 16.3972C13.7322 16.1828 13.4802 15.9631 13.3131 15.7924C13.0963 15.5695 12.9023 15.3519 12.7332 15.1461C12.9967 14.312 13.1119 13.8821 13.1119 13.6528C13.1119 12.679 12.7696 12.4795 12.2561 12.4795C11.865 12.4795 11.4002 12.6886 11.4002 13.6816C11.4002 14.1189 11.6336 14.6501 12.0963 15.2677C11.9822 15.6228 11.8484 16.0324 11.7 16.4932C11.6284 16.714 11.5506 16.9188 11.4666 17.1097C11.4002 17.1407 11.3349 17.1716 11.2726 17.2047C11.0454 17.3199 10.8297 17.4265 10.6305 17.5236C9.71759 17.9662 9.11694 18.2585 9.11694 18.8398C9.11694 19.2611 9.56094 19.5203 9.97278 19.5203C10.5029 19.5203 11.3048 18.7897 11.8899 17.5652C12.4967 17.3177 13.253 17.1353 13.8474 17.0201C14.3246 17.3977 14.8526 17.7593 15.1088 17.7593C15.8163 17.7593 15.9647 17.3369 15.9647 16.986C15.9647 16.2927 15.1939 16.2927 14.8236 16.2927C14.7084 16.2916 14.4003 16.3268 13.9957 16.3972ZM9.97278 18.9305C9.80888 18.9305 9.69995 18.8537 9.6875 18.8387C9.6875 18.6297 10.2913 18.3364 10.8732 18.0516C10.9095 18.0334 10.949 18.0153 10.9863 17.9972C10.5589 18.6361 10.1356 18.9305 9.97278 18.9305ZM11.9697 13.6794C11.9697 13.064 12.1554 13.064 12.2561 13.064C12.4573 13.064 12.5403 13.064 12.5403 13.6507C12.5403 13.7754 12.4604 14.0837 12.3131 14.5669C12.089 14.2128 11.9697 13.9088 11.9697 13.6794ZM12.1897 16.8313C12.2063 16.7823 12.2249 16.7289 12.2405 16.6756C12.3463 16.3503 12.4417 16.057 12.5268 15.7935C12.6451 15.9268 12.7716 16.0644 12.9106 16.2042C12.9635 16.2607 13.0963 16.3834 13.2737 16.538C12.921 16.618 12.5476 16.7172 12.1897 16.8313ZM15.3941 16.986C15.3941 17.1161 15.3941 17.1727 15.1306 17.1727C15.0518 17.1577 14.8734 17.0479 14.6503 16.8932C14.7302 16.8825 14.7904 16.8783 14.8236 16.8783C15.2447 16.8783 15.3651 16.9209 15.3941 16.986Z" fill="white" stroke="white" stroke-width="0.1" stroke-miterlimit="10"/>
</svg>
