<svg width="50" height="50" viewBox="0 0 50 50" fill="none" xmlns="http://www.w3.org/2000/svg">
<g clip-path="url(#clip0_979_2131)">
<path d="M26.0613 0.00166628C26.1788 0.0258273 26.2971 0.0274936 26.4146 0.00249942C26.4696 0.00583197 26.5254 0.00833139 26.5804 0.0116639C26.6312 0.0141634 26.6829 0.0166628 26.7337 0.0191622C26.8953 0.126637 27.0736 0.0916453 27.2486 0.0774819L27.2744 0.0808145C27.3452 0.15663 27.4219 0.149132 27.501 0.0949778C27.5693 0.124971 27.6385 0.129137 27.7101 0.109141C27.7651 0.173293 27.8343 0.17246 27.9076 0.153298C29.0115 0.289932 30.0987 0.521545 31.186 0.750658C31.2435 0.824808 31.3209 0.83064 31.4043 0.813977C32.5057 1.1264 33.5946 1.47882 34.6485 1.92788C35.3825 2.24031 36.0998 2.59273 36.8247 2.92765V2.92598C36.8605 2.99513 36.9238 3.00846 36.993 3.01263L36.9888 3.0093C36.9996 3.05095 37.0238 3.07512 37.0696 3.06845C37.0871 3.09345 37.1104 3.10261 37.1404 3.09678C37.2079 3.18926 37.2987 3.24008 37.4129 3.25007L37.4187 3.25341C37.6895 3.49085 38.0069 3.65248 38.3251 3.81244C38.351 3.82161 38.376 3.83161 38.4018 3.84077C38.4176 3.88409 38.4476 3.90909 38.4951 3.90825L38.5101 3.91742C38.5359 3.98574 38.5926 4.00657 38.6592 4.0099L38.6559 4.0074C38.6659 4.04989 38.6901 4.07405 38.7367 4.06905C38.7509 4.09155 38.7717 4.10071 38.7975 4.09571C38.82 4.1432 38.8575 4.16903 38.9092 4.17403L38.9075 4.17319C38.9208 4.21652 38.9475 4.23984 38.9942 4.23651L39.0142 4.24984C39.0358 4.32066 39.0916 4.33982 39.1583 4.34399L39.1541 4.34065C39.1666 4.38648 39.1949 4.41147 39.2441 4.40731L39.2599 4.41647C39.3066 4.51561 39.3899 4.56477 39.494 4.5831L39.4982 4.58643C39.549 4.68557 39.6348 4.73556 39.7398 4.75972L39.7373 4.75722C39.8223 4.87636 39.9273 4.96884 40.0731 5.00633C40.1564 5.1263 40.2614 5.21878 40.4047 5.26044L40.4013 5.25711C40.4138 5.30376 40.4438 5.32792 40.4921 5.33042L40.4996 5.33626C40.5071 5.37875 40.5296 5.40291 40.5755 5.39874L40.5971 5.41374C40.6371 5.51621 40.7196 5.56703 40.8212 5.59286L40.8187 5.58953C40.8304 5.63618 40.8604 5.66118 40.9079 5.66618L40.9129 5.67034C40.922 5.71367 40.9445 5.74033 40.992 5.73866L41.007 5.74949C41.0295 5.82114 41.0845 5.84614 41.1537 5.8503L41.1462 5.84197C41.1537 5.89529 41.1853 5.92362 41.237 5.93195L41.2303 5.92528C41.2395 5.97694 41.2736 6.00193 41.3228 6.01026L41.3186 6.00693C41.3303 6.05359 41.3586 6.08275 41.4078 6.08775C41.4519 6.18939 41.5244 6.25771 41.636 6.2777L41.6344 6.27187C41.6427 6.34019 41.671 6.39101 41.746 6.40351C41.771 6.46599 41.8177 6.50265 41.8826 6.51681C41.8993 6.5643 41.9293 6.59513 41.9801 6.60346L41.976 6.60013C41.986 6.65095 42.0193 6.67511 42.0684 6.68011L42.0659 6.67844C42.4567 7.12001 42.8799 7.53074 43.3106 7.93232C43.3356 7.96314 43.3606 7.99397 43.3856 8.02479C43.4131 8.05229 43.4406 8.08061 43.4689 8.10811C43.4848 8.17226 43.5173 8.22225 43.5831 8.24391C43.5989 8.31389 43.6514 8.34555 43.7131 8.36805C44.1121 8.90709 44.5429 9.4203 44.9869 9.92269C44.9886 9.96934 45.0111 9.9985 45.0569 10.0085C45.0852 10.1143 45.1377 10.2026 45.2369 10.2568L45.2344 10.2543C45.2585 10.3593 45.3094 10.4442 45.4085 10.4959L45.4118 10.5001C45.4302 10.605 45.4793 10.6875 45.5785 10.7342L45.5876 10.7492C45.5859 10.7966 45.6101 10.8258 45.6543 10.84L45.6509 10.8358C45.6551 10.9016 45.6743 10.9574 45.7451 10.9799L45.7576 10.9991C45.7542 11.0458 45.7776 11.0733 45.8209 11.0866L45.8201 11.0849C45.8242 11.1374 45.8509 11.1749 45.8984 11.1966C45.8917 11.2232 45.9 11.244 45.925 11.2574C45.92 11.304 45.9442 11.3282 45.9867 11.3382L45.9842 11.3349C45.9875 11.4015 46.0084 11.4573 46.0767 11.4832L46.0858 11.4982C46.085 11.5456 46.11 11.5756 46.1533 11.5915C46.1625 11.6173 46.1725 11.6423 46.1816 11.6681C46.3408 11.9872 46.5057 12.303 46.7407 12.5754L46.744 12.5812C46.7557 12.6945 46.8057 12.7854 46.8981 12.852C46.8923 12.882 46.9023 12.9062 46.9265 12.9237C46.919 12.9703 46.944 12.9936 46.9848 13.0045L46.9823 13.0011C46.9831 13.1028 47.0373 13.1836 47.0823 13.2702C47.5205 14.1184 47.9321 14.9782 48.2795 15.868C48.6169 16.7319 48.8885 17.6167 49.1651 18.5007C49.1618 18.6865 49.1801 18.8673 49.3076 19.0172C49.3892 19.7337 49.5925 20.4269 49.7 21.1401C50.0099 23.2063 50.0766 25.2783 49.8883 27.3561C49.8441 27.8468 49.8391 28.3509 49.6633 28.8249C49.4467 28.8358 49.3567 28.6533 49.2351 28.5317C46.8998 26.2014 44.5687 23.8678 42.2334 21.5383C42.1126 21.4175 42.0251 21.2292 41.8035 21.2534H41.8177C41.8243 21.1692 41.806 21.1017 41.7102 21.0834C41.3944 20.5935 40.9479 20.3677 40.3647 20.4127C40.2705 20.4202 40.1755 20.4019 40.0806 20.3961C40.0639 20.3744 40.0497 20.3494 40.0306 20.3303C37.4054 17.705 34.7801 15.0798 32.1549 12.4554C32.0583 12.3588 31.975 12.2388 31.8158 12.2396C31.4184 11.6081 30.891 11.1632 30.1071 11.1616C26.9053 11.1541 23.7036 11.1574 20.5018 11.1599C20.0386 11.1599 19.6445 11.344 19.2954 11.6439C18.7414 12.1222 18.6106 12.7537 18.6106 13.4435C18.6131 16.1879 18.6122 18.9322 18.6106 21.6766C18.6106 21.8416 18.6339 22.009 18.5839 22.1723C18.3973 22.194 18.2907 22.0707 18.1682 21.9599C17.8799 21.6958 17.6533 21.3658 17.3109 21.1609C17.0384 20.7327 16.6969 20.4152 16.1487 20.4152C14.11 20.4161 12.0713 20.4152 10.0326 20.4161C9.68016 20.4161 9.39189 20.5585 9.14279 20.8026C8.81703 21.1217 8.76287 21.5233 8.76287 21.9507C8.76454 26.4997 8.76954 31.0478 8.75788 35.5967C8.75621 36.234 8.95116 36.7323 9.49604 37.0763C9.5252 37.2846 9.72765 37.3388 9.84845 37.4613C13.8459 41.4678 17.8491 45.4686 21.8498 49.4718C21.9448 49.5668 22.0773 49.6418 22.0773 49.8034C21.7573 49.8184 21.4457 49.7542 21.1342 49.6992C20.4277 49.5751 19.7228 49.4401 19.0171 49.3102C18.8672 49.1827 18.6872 49.1644 18.5014 49.1677C17.4334 48.8436 16.3686 48.5095 15.3422 48.0688C14.609 47.7547 13.8917 47.4039 13.1677 47.0699L13.1693 47.0707C13.1344 47.0015 13.0694 46.9882 13.0011 46.9849L13.0044 46.9874C12.9711 46.9149 12.9069 46.8991 12.8361 46.8966L12.8428 46.9007C12.7828 46.8041 12.6936 46.7574 12.5828 46.7466C12.5545 46.6758 12.4987 46.6524 12.4279 46.6533C12.2021 46.4533 11.9405 46.3109 11.6697 46.1834C11.6439 46.1742 11.6189 46.1642 11.593 46.1551C11.5772 46.1117 11.5472 46.0876 11.4997 46.0884L11.4847 46.0793C11.4589 46.0101 11.4031 45.9901 11.3364 45.9859L11.3398 45.9884C11.3298 45.9459 11.3056 45.9218 11.259 45.9268C11.2456 45.9026 11.2248 45.8935 11.1973 45.9001C11.1748 45.8526 11.1382 45.8268 11.0857 45.8226C11.0732 45.7793 11.0465 45.756 10.9999 45.7593L10.9807 45.746C10.9582 45.6752 10.9024 45.656 10.8366 45.6519L10.8407 45.6552C10.8282 45.6094 10.8007 45.5852 10.7516 45.5894C10.7249 45.5194 10.6724 45.4886 10.5991 45.4877C10.5824 45.4419 10.55 45.4169 10.5016 45.4127L10.4966 45.4094C10.445 45.3111 10.36 45.2594 10.255 45.2361L10.2575 45.2386C10.1734 45.1186 10.0642 45.0303 9.9226 44.9853C9.41855 44.5446 8.90784 44.113 8.3688 43.7148C8.3463 43.6532 8.31465 43.6007 8.24466 43.5848C8.22217 43.519 8.17301 43.4865 8.10886 43.4707C8.08053 43.4432 8.05304 43.4157 8.02471 43.3874C7.99389 43.3624 7.96306 43.3374 7.93223 43.3124C7.52733 42.8842 7.12076 42.4576 6.67836 42.0677L6.68003 42.0702C6.67503 42.0202 6.65003 41.9877 6.59921 41.9777L6.60254 41.9819C6.59421 41.9311 6.56255 41.9002 6.51507 41.8844C6.5009 41.8194 6.46424 41.7736 6.40176 41.7486C6.38926 41.6744 6.33844 41.6453 6.27012 41.637L6.27595 41.6386C5.89271 41.0862 5.44865 40.5822 5.00958 40.074C4.98542 39.9707 4.93377 39.889 4.83296 39.8457C4.83129 39.7941 4.80796 39.7582 4.75714 39.7424C4.73631 39.6358 4.68383 39.5516 4.58552 39.5L4.58218 39.495C4.57802 39.4466 4.55302 39.4141 4.5072 39.3966C4.50637 39.3242 4.47554 39.2717 4.40556 39.245C4.40972 39.1959 4.38473 39.1675 4.33891 39.155L4.34224 39.1592C4.33807 39.0934 4.31808 39.0376 4.24809 39.0142L4.2356 38.9959C4.2381 38.9492 4.21477 38.9218 4.17145 38.9093V38.9101C4.16728 38.8576 4.14145 38.8201 4.09396 38.7984C4.0998 38.7701 4.0898 38.7501 4.0648 38.736C4.0698 38.691 4.04647 38.6676 4.00565 38.6568L4.00732 38.6593C4.00482 38.5918 3.98482 38.5368 3.91567 38.511L3.90651 38.496C3.90734 38.4485 3.88235 38.4185 3.83902 38.4027C3.82986 38.3769 3.81986 38.3511 3.8107 38.3261C3.68573 38.0536 3.53659 37.7962 3.34081 37.5679C3.34164 37.4971 3.31914 37.4404 3.24833 37.4129C3.23833 37.2996 3.18501 37.2113 3.0942 37.1447C3.10086 37.1138 3.0917 37.0897 3.0667 37.0714C3.0742 37.0247 3.04921 37.0014 3.00755 36.9905L3.01005 36.9939C3.00672 36.9247 2.99339 36.8606 2.92424 36.8256L2.9259 36.8272C2.9209 36.7723 2.89424 36.7331 2.84592 36.7064L2.85509 36.6814L2.83759 36.6614C2.84425 36.5423 2.77011 36.454 2.72095 36.3574C2.28522 35.4959 1.88948 34.6178 1.55622 33.7105C1.47207 33.4805 1.43042 33.2297 1.26462 33.034L1.27629 33.0165L1.26546 32.999C1.25629 32.8273 1.2238 32.664 1.098 32.5349L1.10966 32.5174L1.09883 32.4999C1.09716 32.3033 1.03801 32.1242 0.932201 31.96L0.943032 31.935L0.925536 31.9134C0.933867 31.7643 0.895543 31.6251 0.828058 31.4935C0.828058 31.2877 0.799732 31.0886 0.674761 30.9161C0.378997 29.449 0.120723 27.9768 0.0415752 26.478C-0.0425718 24.8817 -0.00841315 23.2904 0.214868 21.7066C0.327342 20.9118 0.473141 20.1211 0.603111 19.3288L0.596446 19.2963C0.727249 19.1055 0.757242 18.8873 0.767239 18.6631L0.776404 18.629C0.943865 18.2924 1.01218 17.9233 1.11716 17.5676C1.3821 16.6653 1.77367 15.8096 2.07277 14.9207C2.09776 14.9057 2.10526 14.8849 2.09443 14.8574C2.20107 14.7641 2.24523 14.6416 2.25856 14.5041L2.25689 14.5058C2.35354 14.4133 2.39603 14.2958 2.41685 14.1675L2.41935 14.1625C2.52016 14.0759 2.56515 13.9617 2.58348 13.8343L2.58598 13.8293C2.83176 13.4269 3.0792 13.0261 3.25416 12.5854C3.32248 12.5529 3.3433 12.4946 3.3433 12.4238C3.52743 12.2013 3.68156 11.9614 3.77654 11.6873L3.77154 11.6898C3.86318 11.6589 3.90484 11.5915 3.91234 11.4998L3.9165 11.4932C4.01315 11.4423 4.06314 11.3607 4.07397 11.2532C4.09646 11.2432 4.10479 11.2265 4.09813 11.2032C4.14728 11.1807 4.17228 11.1424 4.17644 11.0891L4.17394 11.0924C4.2181 11.0807 4.24143 11.0549 4.2381 11.0074C4.26142 10.9974 4.27059 10.9799 4.26642 10.9549C4.3489 10.9108 4.40639 10.8491 4.41222 10.7508L4.41639 10.7442C4.5147 10.6933 4.56635 10.61 4.58635 10.5042L4.58718 10.5034C4.68716 10.4509 4.73798 10.3642 4.76464 10.2584C4.8113 10.2434 4.83296 10.2101 4.83462 10.1618C4.9346 10.1118 4.98709 10.0285 5.00292 9.92019C5.46948 9.41447 5.89854 8.87793 6.31594 8.33139L6.33177 8.31556C6.40342 8.2964 6.43092 8.24474 6.43508 8.17559L6.42592 8.18309C6.48091 8.17643 6.5084 8.1406 6.52423 8.09228C6.60338 8.06812 6.6542 8.01563 6.67586 7.93482C7.11992 7.53907 7.53816 7.11834 7.93473 6.67594C8.01555 6.65428 8.0672 6.60429 8.0922 6.52431C8.14052 6.50848 8.17634 6.48099 8.18301 6.426L8.17551 6.43517C8.24466 6.431 8.29632 6.40351 8.31548 6.33186L8.33131 6.31853C8.87785 5.90112 9.41272 5.47039 9.9201 5.0055C10.7549 4.45146 11.5889 3.89659 12.4237 3.34255L12.4212 3.34422C12.492 3.34505 12.5512 3.32506 12.5836 3.25591L12.5853 3.25507C12.9736 3.11427 13.3185 2.89516 13.6609 2.67021L13.6684 2.66688C13.7375 2.67104 13.7959 2.65521 13.83 2.58773L13.8359 2.5844C13.9042 2.58773 13.9608 2.56773 13.9942 2.50275L14.0017 2.49942C14.07 2.50358 14.1291 2.48775 14.1633 2.4211L14.1683 2.4186C14.2966 2.39861 14.4149 2.35612 14.5057 2.25864L14.504 2.26031C14.6415 2.24781 14.7648 2.20449 14.8581 2.09701L14.8939 2.09951L14.9206 2.07535C15.6729 1.84457 16.3794 1.49299 17.1309 1.25887C17.6308 1.10391 18.1449 0.991435 18.6272 0.779818C18.6431 0.789816 18.6556 0.786483 18.6631 0.768987C18.8863 0.75899 19.1046 0.72983 19.2954 0.599027C19.3054 0.61319 19.3179 0.61569 19.3329 0.605692C20.0294 0.489053 20.7243 0.361582 21.4224 0.256607C22.6721 0.0699837 23.9285 -0.0224948 25.1932 0.00749825C25.4706 0.0141634 25.7481 0.00249942 26.0255 0L26.0422 0.0324924L26.0613 0.00166628Z" fill="#169AE8"/>
<path d="M33.9496 48.3995L33.9304 48.3895L33.9138 48.4029C33.7538 48.4129 33.6105 48.4662 33.4855 48.567L33.4847 48.5603C32.769 48.7519 32.065 48.9802 31.3635 49.2168L31.3352 49.2277C31.1094 49.2368 30.8936 49.2785 30.6987 49.401C30.6562 49.3676 30.617 49.3785 30.5795 49.4093C29.8297 49.5326 29.0807 49.6651 28.3292 49.7767C26.7488 50.0125 25.1575 50.0408 23.5653 49.9583C23.0696 49.9325 22.5681 49.9275 22.0807 49.8059C22.0807 49.6434 21.9482 49.5693 21.8532 49.4743C17.8525 45.471 13.8493 41.4703 9.85187 37.4637C9.73023 37.3421 9.52778 37.2871 9.49945 37.0788C9.73856 37.1605 9.98434 37.1796 10.2359 37.1763C10.6525 37.1705 11.0691 37.1755 11.4848 37.1747C11.9697 37.1738 11.9181 37.1996 11.9189 36.7564C11.9206 35.9516 11.9322 35.146 11.9122 34.3411C11.9047 34.042 12.0055 33.9662 12.2888 33.9771C12.8153 33.9979 13.3436 33.9821 13.8709 33.9837C14.26 33.9854 14.2625 33.9871 14.2633 34.3611C14.265 35.1385 14.2633 35.9158 14.2642 36.6931C14.2642 37.173 14.265 37.1738 14.7241 37.1738C15.1265 37.1746 15.5297 37.1588 15.9313 37.1771C16.6053 37.208 17.0827 36.9364 17.3493 36.3115C17.3585 36.3082 17.3751 36.3032 17.3751 36.3024C17.3718 36.2874 17.3659 36.2732 17.361 36.259C17.3784 36.1857 17.3968 36.1116 17.4143 36.0382C17.4168 34.2103 17.4209 32.3824 17.4209 30.5554C17.4201 27.5502 17.4159 24.5459 17.4134 21.5408C17.3801 21.415 17.346 21.2892 17.3126 21.1634C17.655 21.3683 17.8817 21.6983 18.1699 21.9624C18.2916 22.074 18.399 22.1973 18.5857 22.1748C18.6323 22.3806 18.6165 22.5889 18.6165 22.7972C18.6173 26.6688 18.6165 30.5404 18.6182 34.412C18.6182 34.6752 18.624 34.9393 18.6357 35.2026C18.6873 36.4115 19.4796 37.1688 20.6993 37.1738C21.49 37.1771 22.2815 37.1755 23.0721 37.1738C23.4829 37.173 23.4854 37.1713 23.4862 36.7731C23.487 35.3851 23.4862 33.9979 23.487 32.6099C23.4879 32.2175 23.4904 32.2141 23.8653 32.2133C24.8367 32.2108 25.8081 32.2116 26.7796 32.2133C27.1612 32.2141 27.1637 32.2166 27.1645 32.5999C27.1662 34.0012 27.1728 35.4026 27.1587 36.8047C27.1562 37.088 27.222 37.1888 27.5219 37.1813C28.2984 37.1605 29.0774 37.143 29.853 37.1813C31.2177 37.2488 32.0159 36.1332 32.0117 35.031C31.9825 27.8435 31.995 20.6552 32.0009 13.4677C32.0009 13.0469 31.97 12.6387 31.8192 12.2446C31.9784 12.2438 32.0617 12.3646 32.1583 12.4604C34.7844 15.0848 37.4096 17.71 40.034 20.3352C40.0532 20.3544 40.0673 20.3794 40.084 20.4011C39.9315 20.4077 39.7799 20.4194 39.6274 20.4194C37.9628 20.4211 36.2974 20.4219 34.6328 20.4186C34.3795 20.4177 34.1354 20.4402 33.9088 20.5644C33.3989 20.8426 33.2281 21.2875 33.2297 21.8457C33.2364 25.1475 33.2331 28.4492 33.2331 31.7509C33.2331 33.1248 33.2264 34.4978 33.2364 35.8716C33.2422 36.6606 33.7555 37.163 34.5444 37.1738C35.0302 37.1805 35.5159 37.1597 36.0008 37.1813C36.2799 37.1938 36.3515 37.0947 36.3465 36.8272C36.3315 35.9816 36.3482 35.1351 36.3365 34.2887C36.3332 34.0537 36.4073 33.9746 36.644 33.9796C37.2263 33.9937 37.8095 33.9987 38.3919 33.9779C38.6776 33.9671 38.7401 34.0745 38.736 34.337C38.7218 35.1826 38.7343 36.0291 38.7285 36.8756C38.7268 37.0688 38.7543 37.1855 38.9959 37.1788C39.5508 37.163 40.1056 37.1855 40.6605 37.168C41.2054 37.1505 41.6828 36.7581 41.8027 36.2357C41.8452 36.0499 41.8377 35.85 41.8386 35.6567C41.8402 31.1344 41.8402 26.6113 41.8386 22.089C41.8386 21.8124 41.8186 21.5358 41.8086 21.2584C42.0302 21.2342 42.1177 21.4225 42.2385 21.5433C44.5738 23.8728 46.9049 26.2072 49.2402 28.5367C49.3618 28.6583 49.4518 28.8408 49.6684 28.8299C49.7059 29.189 49.5459 29.5273 49.5543 29.883C49.3885 30.4654 49.246 31.0536 49.1419 31.6509L49.1452 31.6501C49.096 31.6643 49.086 31.6993 49.0969 31.7442C48.9461 32.24 48.7961 32.7357 48.6453 33.2306C48.4804 33.5022 48.407 33.8121 48.2946 34.1045C47.958 34.976 47.5347 35.8075 47.1573 36.6606C46.9549 36.9439 46.7899 37.2471 46.6525 37.5662C46.4708 37.7895 46.3217 38.0319 46.2134 38.2986L46.2167 38.3019C46.1667 38.3169 46.1501 38.3552 46.1459 38.4019L46.1501 38.3977C46.1026 38.4119 46.0793 38.4444 46.0801 38.4935C45.7377 38.9909 45.3952 39.4891 45.0537 39.9865C45.0103 39.9973 44.9912 40.0257 44.9928 40.0698C44.5504 40.5789 44.1089 41.0887 43.7198 41.6403L43.7331 41.6386C43.6756 41.6453 43.6473 41.6786 43.6432 41.7353L43.6532 41.7253C43.5957 41.7311 43.569 41.7661 43.5623 41.8211L43.5723 41.8119C43.5165 41.8186 43.4882 41.8561 43.4707 41.9052C43.3932 41.9294 43.3441 41.9802 43.3232 42.0593C42.8842 42.4617 42.4618 42.8808 42.061 43.3215C41.9827 43.3424 41.9311 43.3924 41.9069 43.4698C41.8577 43.4873 41.8202 43.5157 41.8144 43.5715L41.8227 43.5607C41.7686 43.5673 41.7328 43.594 41.7278 43.6515L41.7369 43.6406C41.6803 43.6448 41.647 43.6731 41.6411 43.7315L41.6428 43.7173C41.0904 44.1064 40.583 44.5504 40.0723 44.9903C40.029 44.9887 39.999 45.0053 39.989 45.0511C39.4916 45.3936 38.9942 45.736 38.496 46.0776C38.446 46.0776 38.4144 46.1009 38.4002 46.1484L38.4044 46.1442C38.3569 46.1484 38.3194 46.1659 38.3044 46.2159L38.3011 46.2117C38.0336 46.3192 37.792 46.47 37.5679 46.6499C37.2496 46.7891 36.9455 46.9524 36.6631 47.1548C36.2565 47.3114 35.8683 47.5056 35.4976 47.733C35.3609 47.7513 35.2376 47.798 35.1393 47.8988C35.1135 47.8871 35.0943 47.8938 35.0818 47.9188C34.6902 48.0529 34.2995 48.1771 33.9496 48.3995Z" fill="#1173AD"/>
<path d="M31.8184 12.2429C31.9692 12.637 32 13.0452 32 13.466C31.9942 20.6534 31.9817 27.8418 32.0109 35.0293C32.015 36.1315 31.2169 37.2471 29.8522 37.1796C29.0774 37.1413 28.2984 37.1588 27.5211 37.1796C27.2212 37.1879 27.1553 37.0871 27.1578 36.803C27.172 35.4017 27.1653 34.0003 27.1637 32.5982C27.1637 32.2149 27.1603 32.2124 26.7788 32.2116C25.8073 32.2099 24.8359 32.2099 23.8644 32.2116C23.4904 32.2124 23.487 32.2157 23.4862 32.6082C23.4845 33.9962 23.4862 35.3833 23.4854 36.7713C23.4854 37.1696 23.4829 37.1713 23.0713 37.1721C22.2806 37.1738 21.4892 37.1754 20.6985 37.1721C19.4788 37.1671 18.6865 36.4098 18.6348 35.2009C18.6232 34.9376 18.6173 34.6743 18.6173 34.4102C18.6165 30.5386 18.6165 26.667 18.6157 22.7954C18.6157 22.588 18.6315 22.3789 18.5848 22.1731C18.6348 22.0098 18.6115 21.8423 18.6115 21.6774C18.6132 18.933 18.614 16.1886 18.6115 13.4443C18.6107 12.7553 18.7423 12.1229 19.2963 11.6447C19.6446 11.3439 20.0387 11.1607 20.5027 11.1607C23.7045 11.1582 26.9062 11.1548 30.108 11.1623C30.8928 11.1665 31.4202 11.6106 31.8184 12.2429ZM30.3296 15.0822C30.3296 14.7781 30.3229 14.4732 30.3321 14.17C30.3371 13.99 30.2671 13.9283 30.0888 13.9308C29.5081 13.9383 28.9274 13.9392 28.3467 13.9308C28.1409 13.9275 28.0885 14.0175 28.091 14.2058C28.0985 14.7723 28.1018 15.3397 28.0893 15.9062C28.0843 16.1312 28.1751 16.1895 28.3817 16.1853C28.9208 16.1753 29.4606 16.1653 29.9997 16.1886C30.2904 16.2011 30.3521 16.0845 30.3338 15.8296C30.3163 15.5813 30.3304 15.3313 30.3296 15.0822ZM26.428 23.2145C26.428 22.9237 26.423 22.6338 26.4297 22.343C26.4338 22.1723 26.3772 22.0914 26.1931 22.0939C25.6124 22.1006 25.0317 22.1006 24.4501 22.0939C24.2793 22.0923 24.1952 22.1439 24.1969 22.3272C24.2019 22.9221 24.201 23.5169 24.1977 24.111C24.1969 24.2668 24.2527 24.3342 24.416 24.3334C25.0108 24.3284 25.6057 24.3259 26.1997 24.3342C26.3889 24.3367 26.4347 24.2534 26.4305 24.0851C26.4222 23.796 26.4272 23.5053 26.428 23.2145ZM30.3296 23.2262C30.3296 22.9346 30.3204 22.643 30.3329 22.353C30.3413 22.1506 30.2596 22.0906 30.0655 22.0939C29.4973 22.1031 28.9283 22.1023 28.3601 22.0939C28.1659 22.0914 28.0885 22.1556 28.091 22.3564C28.0993 22.9387 28.0993 23.5211 28.091 24.1035C28.0885 24.2934 28.1751 24.3359 28.3426 24.3351C28.9249 24.3292 29.5073 24.3284 30.0897 24.3359C30.2654 24.3384 30.3404 24.2859 30.3329 24.1001C30.3213 23.8085 30.3296 23.5178 30.3296 23.2262ZM24.1985 19.1338C24.1985 19.4104 24.2077 19.6878 24.1952 19.9636C24.186 20.1719 24.2468 20.261 24.4726 20.256C25.0392 20.2427 25.6065 20.2444 26.1739 20.2552C26.3805 20.2594 26.433 20.1786 26.4305 19.9869C26.4222 19.4196 26.4188 18.8522 26.4313 18.2857C26.4363 18.0565 26.3389 18.0074 26.1339 18.0107C25.5807 18.0207 25.0275 18.0232 24.4743 18.0099C24.2485 18.0049 24.186 18.094 24.1952 18.3032C24.2077 18.5798 24.1985 18.8564 24.1985 19.1338ZM29.2065 18.0149C28.9149 18.0149 28.6242 18.0216 28.3326 18.0124C28.1509 18.0074 28.0893 18.0824 28.0918 18.259C28.0976 18.8414 28.0985 19.4237 28.091 20.0061C28.0885 20.1811 28.1443 20.256 28.3276 20.2535C28.9241 20.246 29.5206 20.2469 30.1163 20.2535C30.2804 20.2552 30.3321 20.1885 30.3304 20.0319C30.3254 19.4354 30.3229 18.8389 30.3313 18.2432C30.3338 18.0524 30.248 18.0074 30.0788 18.0124C29.7897 18.0207 29.4981 18.0149 29.2065 18.0149ZM24.1994 15.0447C24.1994 15.3497 24.2027 15.6546 24.1977 15.9595C24.1952 16.117 24.2585 16.1837 24.4185 16.1828C25.0142 16.1787 25.6107 16.1787 26.2064 16.1828C26.3622 16.1837 26.4305 16.1287 26.4297 15.9662C26.4247 15.3705 26.4247 14.774 26.4305 14.1783C26.4322 14.0058 26.3747 13.9283 26.1914 13.9308C25.609 13.9375 25.0275 13.9375 24.4451 13.9308C24.2693 13.9292 24.1927 13.9917 24.1977 14.1716C24.2035 14.4624 24.1985 14.754 24.1994 15.0447ZM22.5114 23.2437C22.5114 22.9379 22.5089 22.633 22.5123 22.3272C22.5139 22.1789 22.4723 22.0931 22.3015 22.0948C21.7049 22.0998 21.1076 22.0989 20.5102 22.0948C20.3486 22.0939 20.2844 22.1664 20.2844 22.3197C20.2853 22.9171 20.2869 23.5136 20.2819 24.111C20.2811 24.2668 20.3353 24.3359 20.5002 24.3342C21.0968 24.3284 21.6941 24.3292 22.2915 24.3342C22.4489 24.3359 22.5173 24.2801 22.5131 24.1185C22.5064 23.8269 22.5114 23.5353 22.5114 23.2437ZM22.5114 19.1455C22.5114 18.8555 22.5031 18.5648 22.5148 18.2748C22.5223 18.0765 22.4481 18.0082 22.2507 18.0116C21.6841 18.0207 21.1176 18.0207 20.551 18.0116C20.3528 18.0082 20.2811 18.0849 20.2828 18.2782C20.2886 18.858 20.2886 19.4387 20.2819 20.0194C20.2794 20.2027 20.3578 20.256 20.5302 20.2544C21.1101 20.2477 21.6908 20.2469 22.2715 20.2552C22.4489 20.2577 22.5198 20.1977 22.5139 20.0169C22.5048 19.7262 22.5114 19.4362 22.5114 19.1455ZM22.5123 15.1181C22.5123 14.8273 22.5014 14.5357 22.5156 14.2458C22.5264 14.0217 22.4656 13.9208 22.2173 13.9283C21.6775 13.9442 21.1376 13.9425 20.5977 13.9292C20.3661 13.9233 20.2753 13.9967 20.2803 14.2349C20.2919 14.7881 20.2911 15.343 20.2803 15.8962C20.2761 16.1087 20.3436 16.1911 20.5635 16.1861C21.1167 16.1745 21.6716 16.1753 22.2248 16.1853C22.4331 16.1895 22.5281 16.132 22.5148 15.907C22.4998 15.6446 22.5123 15.3805 22.5123 15.1181Z" fill="#FBFDFD"/>
<path d="M41.8069 21.2567C41.8178 21.5333 41.8369 21.8099 41.8369 22.0874C41.8386 26.6096 41.8386 31.1327 41.8369 35.655C41.8369 35.8483 41.8444 36.0483 41.8011 36.2341C41.6811 36.7564 41.2037 37.1488 40.6589 37.1663C40.1048 37.1838 39.5491 37.1613 38.9942 37.1772C38.7535 37.1838 38.726 37.0672 38.7268 36.8739C38.7326 36.0274 38.7201 35.181 38.7343 34.3353C38.7385 34.0729 38.676 33.9654 38.3902 33.9762C37.8087 33.9979 37.2247 33.9921 36.6423 33.9779C36.4049 33.9721 36.3315 34.0521 36.3349 34.287C36.3457 35.1335 36.3299 35.9799 36.3449 36.8256C36.3499 37.093 36.2782 37.1913 35.9991 37.1797C35.5142 37.158 35.0285 37.1788 34.5428 37.1722C33.7538 37.1613 33.2398 36.659 33.2348 35.87C33.2248 34.497 33.2314 33.1231 33.2314 31.7493C33.2314 28.4475 33.2348 25.1458 33.2281 21.8441C33.2273 21.285 33.3981 20.841 33.9071 20.5627C34.1345 20.4386 34.3778 20.4169 34.6311 20.4169C36.2957 20.4202 37.9612 20.4194 39.6258 20.4177C39.7782 20.4177 39.9299 20.4061 40.0823 20.3994C40.1773 20.4061 40.2731 20.4236 40.3664 20.4161C40.9505 20.3711 41.3962 20.5969 41.7119 21.0868C41.7361 21.1509 41.7278 21.2359 41.8194 21.2567H41.8069ZM35.0443 28.9008C35.745 28.9008 35.745 28.9008 35.7458 28.2101C35.7458 27.4844 35.7458 27.4844 34.9993 27.4844C34.3162 27.4844 34.3162 27.4844 34.3162 28.1509C34.3153 28.9008 34.3153 28.9008 35.0443 28.9008ZM40.0107 26.2614C40.7563 26.2614 40.7563 26.2614 40.7563 25.5316C40.7563 24.845 40.7563 24.845 40.089 24.845C39.3267 24.845 39.3267 24.845 39.3267 25.5982C39.3267 26.2614 39.3267 26.2614 40.0107 26.2614ZM35.0052 26.2614C35.7458 26.2614 35.7458 26.2614 35.7458 25.5282C35.7458 24.8442 35.7458 24.8442 35.0385 24.8442C34.317 24.8442 34.317 24.8442 34.3162 25.5582C34.3162 26.2614 34.3162 26.2614 35.0052 26.2614ZM40.0615 27.4853C39.3267 27.4853 39.3267 27.4853 39.3267 28.2209C39.3267 28.9008 39.3267 28.9008 40.0382 28.9008C40.7563 28.9008 40.7563 28.9008 40.7563 28.1826C40.7563 27.4853 40.7563 27.4853 40.0615 27.4853ZM38.2444 28.2051C38.2444 27.4853 38.2444 27.4853 37.5379 27.4853C37.5238 27.4853 37.5104 27.4853 37.4963 27.4853C36.8264 27.4853 36.8264 27.4853 36.8264 28.1576C36.8264 28.9008 36.8264 28.9008 37.5521 28.9008C38.2444 28.9008 38.2444 28.9008 38.2444 28.2051ZM36.8273 22.923C36.8273 23.6537 36.8273 23.6537 37.5654 23.6537C38.2444 23.6537 38.2444 23.6537 38.2444 22.9455C38.2444 22.2373 38.2444 22.2373 37.5254 22.2373C36.8273 22.2365 36.8273 22.2365 36.8273 22.923ZM35.016 23.6537C35.7458 23.6537 35.7458 23.6537 35.7458 22.9505C35.7458 22.2365 35.7458 22.2365 35.0277 22.2373C34.3162 22.2373 34.3162 22.2373 34.3162 22.9596C34.3162 23.6537 34.3162 23.6537 35.016 23.6537ZM38.2444 25.5457C38.2444 24.8459 38.2444 24.8459 37.5579 24.845C37.5438 24.845 37.5304 24.845 37.5163 24.845C36.8273 24.845 36.8273 24.845 36.8273 25.5415C36.8273 26.2614 36.8273 26.2614 37.5338 26.2614C38.2444 26.2614 38.2444 26.2614 38.2444 25.5457ZM39.3267 22.9238C39.3267 23.6537 39.3267 23.6537 40.0707 23.6537C40.7563 23.6537 40.7563 23.6537 40.7563 22.9855C40.7563 22.2373 40.7563 22.2373 40.029 22.2373C39.3267 22.2365 39.3267 22.2365 39.3267 22.9238Z" fill="#FBFDFD"/>
<path d="M17.3509 36.3115C17.0835 36.9372 16.607 37.208 15.9329 37.1771C15.5314 37.1588 15.1281 37.1738 14.7257 37.1738C14.2667 37.173 14.2658 37.173 14.2658 36.6931C14.2658 35.9158 14.2675 35.1385 14.265 34.3611C14.2642 33.9871 14.2617 33.9854 13.8726 33.9837C13.3452 33.9821 12.817 33.9979 12.2905 33.9771C12.0072 33.9654 11.9064 34.042 11.9139 34.3411C11.9339 35.146 11.9222 35.9508 11.9205 36.7564C11.9197 37.1996 11.9714 37.173 11.4865 37.1746C11.0699 37.1755 10.6533 37.1705 10.2376 37.1763C9.986 37.1796 9.74022 37.1605 9.50111 37.0788C8.95541 36.7347 8.76128 36.2365 8.76295 35.5992C8.77461 31.0502 8.76961 26.5021 8.76795 21.9532C8.76795 21.5258 8.8221 21.1251 9.14786 20.8051C9.39697 20.561 9.68524 20.4186 10.0377 20.4186C12.0763 20.4186 14.115 20.4194 16.1537 20.4177C16.7028 20.4177 17.0444 20.7352 17.316 21.1634C17.3493 21.2892 17.3834 21.415 17.4168 21.5408C17.3593 21.6591 17.3859 21.7866 17.3851 21.909C17.3834 26.4963 17.3834 31.0827 17.3851 35.67C17.3851 35.7933 17.3593 35.9199 17.4176 36.0382C17.4001 36.1116 17.3818 36.1857 17.3643 36.259C17.3426 36.2724 17.3384 36.2899 17.3509 36.3115ZM10.5659 28.9007C11.304 28.9007 11.304 28.9007 11.304 28.2451C11.304 27.4852 11.304 27.4852 10.5459 27.4861C9.8502 27.4861 9.8502 27.4861 9.8502 28.1817C9.85103 28.9007 9.85103 28.9007 10.5659 28.9007ZM13.0744 28.9007C13.8226 28.9007 13.8226 28.9007 13.8226 28.2142C13.8226 27.4852 13.8226 27.4852 13.0769 27.4861C12.3688 27.4861 12.3688 27.4861 12.3688 28.2126C12.3696 28.9007 12.3696 28.9007 13.0744 28.9007ZM10.5642 26.2614C11.304 26.2614 11.304 26.2614 11.304 25.6073C11.304 24.8459 11.304 24.8459 10.5484 24.8459C9.85186 24.8459 9.85186 24.8459 9.85103 25.5415C9.8502 26.2614 9.8502 26.2614 10.5642 26.2614ZM13.1086 22.2373C12.3696 22.2373 12.3696 22.2373 12.3696 22.8921C12.3696 23.6528 12.3696 23.6528 13.1261 23.6528C13.8226 23.6528 13.8226 23.6528 13.8226 22.9571C13.8226 22.2373 13.8226 22.2373 13.1086 22.2373ZM13.1286 24.8459C12.3696 24.8459 12.3696 24.8459 12.3696 25.604C12.3696 26.2614 12.3696 26.2614 13.0653 26.2614C13.8234 26.2614 13.8234 26.2614 13.8234 25.5032C13.8226 24.8459 13.8226 24.8459 13.1286 24.8459ZM10.5467 23.6528C11.304 23.6528 11.304 23.6528 11.304 22.9346C11.304 22.2373 11.304 22.2373 10.6075 22.2373C9.85103 22.2373 9.85103 22.2373 9.85103 22.9563C9.85103 23.6528 9.85103 23.6528 10.5467 23.6528ZM15.6263 23.6528C16.322 23.6528 16.322 23.6528 16.322 22.953C16.322 22.2373 16.322 22.2373 15.6005 22.2373C14.9065 22.2373 14.9065 22.2373 14.9065 22.9363C14.9065 23.6528 14.9065 23.6528 15.6263 23.6528ZM15.623 24.8459C14.9057 24.8459 14.9057 24.8459 14.9057 25.5657C14.9057 26.2614 14.9057 26.2614 15.603 26.2614C16.322 26.2614 16.322 26.2614 16.322 25.5432C16.322 24.8459 16.322 24.8459 15.623 24.8459ZM15.6114 28.9007C16.322 28.9007 16.322 28.9007 16.322 28.1734C16.322 27.4861 16.322 27.4861 15.6155 27.4861C14.9065 27.4861 14.9065 27.4861 14.9065 28.2101C14.9065 28.9007 14.9065 28.9007 15.6114 28.9007Z" fill="#F8FCFD"/>
<path d="M30.3296 15.0823C30.3296 15.3314 30.3154 15.5813 30.3338 15.8287C30.3521 16.0837 30.2904 16.2012 29.9997 16.1878C29.4615 16.1645 28.9216 16.1745 28.3817 16.1845C28.1743 16.1878 28.0835 16.1303 28.0893 15.9054C28.1018 15.3389 28.0984 14.7715 28.091 14.205C28.0885 14.0175 28.1401 13.9267 28.3467 13.93C28.9274 13.9392 29.5081 13.9384 30.0888 13.93C30.2671 13.9275 30.3371 13.9892 30.3321 14.1691C30.3229 14.4741 30.3296 14.7782 30.3296 15.0823Z" fill="#1173AD"/>
<path d="M26.428 23.2145C26.428 23.5053 26.4222 23.7952 26.4305 24.086C26.4355 24.2543 26.3889 24.3376 26.1997 24.3351C25.6049 24.3268 25.01 24.3285 24.416 24.3343C24.2535 24.336 24.1969 24.2685 24.1977 24.1118C24.2019 23.517 24.2027 22.9221 24.1969 22.3281C24.1952 22.1448 24.2793 22.0923 24.4501 22.0948C25.0308 22.1015 25.6115 22.1015 26.1931 22.0948C26.3772 22.0923 26.4338 22.1731 26.4297 22.3439C26.423 22.6339 26.428 22.9246 26.428 23.2145Z" fill="#1173AD"/>
<path d="M30.3296 23.2262C30.3296 23.5178 30.3213 23.8086 30.3329 24.0993C30.3404 24.2851 30.2654 24.3376 30.0897 24.3351C29.5073 24.3276 28.9249 24.3285 28.3426 24.3343C28.1751 24.336 28.0876 24.2926 28.091 24.1027C28.0993 23.5203 28.0993 22.938 28.091 22.3556C28.0876 22.1548 28.1659 22.0906 28.3601 22.0931C28.9283 22.1015 29.4973 22.1023 30.0655 22.0931C30.2596 22.0898 30.3413 22.1498 30.3329 22.3523C30.3204 22.6439 30.3296 22.9355 30.3296 23.2262Z" fill="#1173AD"/>
<path d="M24.1985 19.1338C24.1985 18.8572 24.2077 18.5797 24.1952 18.304C24.186 18.0957 24.2494 18.0057 24.4743 18.0107C25.0275 18.0232 25.5807 18.0215 26.1339 18.0115C26.3389 18.0082 26.4363 18.0565 26.4313 18.2865C26.4188 18.853 26.4213 19.4204 26.4305 19.9877C26.4338 20.1785 26.3805 20.2602 26.1739 20.256C25.6074 20.2443 25.0392 20.2435 24.4726 20.2568C24.2469 20.2618 24.1852 20.1727 24.1952 19.9644C24.2077 19.687 24.1985 19.4104 24.1985 19.1338Z" fill="#1173AD"/>
<path d="M29.2065 18.0151C29.4981 18.0151 29.7889 18.0209 30.0805 18.0126C30.2496 18.0076 30.3354 18.0526 30.3329 18.2434C30.3246 18.8399 30.3271 19.4364 30.3321 20.0321C30.3338 20.1887 30.2813 20.2545 30.118 20.2537C29.5215 20.2479 28.9249 20.2471 28.3293 20.2537C28.146 20.2562 28.0901 20.1812 28.0926 20.0063C28.1001 19.4239 28.0993 18.8415 28.0935 18.2592C28.0918 18.0834 28.1535 18.0076 28.3342 18.0126C28.6242 18.0209 28.9158 18.0151 29.2065 18.0151Z" fill="#1173AD"/>
<path d="M24.1985 15.0449C24.1985 14.7541 24.2035 14.4625 24.196 14.1717C24.1919 13.9926 24.2677 13.9293 24.4435 13.931C25.0258 13.9376 25.6074 13.9376 26.1897 13.931C26.373 13.9285 26.4305 14.0059 26.4288 14.1784C26.423 14.7741 26.4238 15.3706 26.428 15.9663C26.4297 16.128 26.3605 16.1838 26.2047 16.1829C25.609 16.1788 25.0125 16.1788 24.4168 16.1829C24.2568 16.1838 24.1935 16.1171 24.196 15.9597C24.2027 15.6547 24.1994 15.3498 24.1985 15.0449Z" fill="#1173AD"/>
<path d="M22.5114 23.2436C22.5114 23.5352 22.5064 23.8268 22.5131 24.1184C22.5173 24.2809 22.4498 24.3359 22.2915 24.3342C21.6941 24.3292 21.0976 24.3284 20.5002 24.3342C20.3361 24.3359 20.2811 24.2667 20.282 24.1109C20.2861 23.5144 20.2845 22.9171 20.2845 22.3197C20.2845 22.1672 20.3486 22.0939 20.5102 22.0948C21.1076 22.0989 21.7041 22.0997 22.3015 22.0948C22.4723 22.0931 22.5139 22.1789 22.5123 22.3272C22.5089 22.633 22.5114 22.9379 22.5114 23.2436Z" fill="#1173AD"/>
<path d="M22.5114 19.1456C22.5114 19.4355 22.5048 19.7263 22.5139 20.0162C22.5198 20.197 22.4489 20.257 22.2715 20.2545C21.6916 20.247 21.1109 20.247 20.5302 20.2537C20.3578 20.2553 20.2794 20.202 20.2819 20.0187C20.2886 19.4389 20.2886 18.8582 20.2828 18.2775C20.2811 18.0842 20.3528 18.0075 20.5511 18.0109C21.1176 18.02 21.6841 18.02 22.2507 18.0109C22.4481 18.0075 22.5223 18.0767 22.5148 18.2741C22.5031 18.5649 22.5114 18.8557 22.5114 19.1456Z" fill="#1173AD"/>
<path d="M22.5123 15.1181C22.5123 15.3814 22.4998 15.6446 22.5156 15.9071C22.5298 16.132 22.4339 16.1895 22.2257 16.1853C21.6716 16.1753 21.1176 16.1737 20.5644 16.1862C20.3436 16.1912 20.2769 16.1087 20.2811 15.8962C20.2919 15.3422 20.2928 14.7882 20.2811 14.235C20.2761 13.9975 20.3669 13.9234 20.5985 13.9292C21.1384 13.9425 21.6791 13.945 22.2182 13.9284C22.4664 13.9209 22.5273 14.0217 22.5164 14.2458C22.5014 14.5357 22.5123 14.8273 22.5123 15.1181Z" fill="#1173AD"/>
<path d="M35.0443 28.9009C34.3162 28.9009 34.3162 28.9009 34.3162 28.1519C34.3162 27.4854 34.3162 27.4854 34.9993 27.4854C35.7467 27.4854 35.7467 27.4854 35.7458 28.211C35.745 28.9009 35.745 28.9009 35.0443 28.9009Z" fill="#1173AD"/>
<path d="M40.0107 26.2613C39.3267 26.2613 39.3267 26.2613 39.3267 25.5981C39.3267 24.845 39.3267 24.845 40.089 24.845C40.7563 24.845 40.7563 24.845 40.7563 25.5315C40.7563 26.2613 40.7563 26.2613 40.0107 26.2613Z" fill="#1173AD"/>
<path d="M35.0052 26.2613C34.3162 26.2613 34.3162 26.2613 34.3162 25.559C34.3162 24.845 34.3162 24.845 35.0385 24.845C35.7458 24.845 35.7458 24.845 35.7458 25.529C35.7458 26.2613 35.7458 26.2613 35.0052 26.2613Z" fill="#1173AD"/>
<path d="M40.0615 27.4854C40.7563 27.4854 40.7563 27.4854 40.7555 28.1827C40.7555 28.9009 40.7555 28.9009 40.0373 28.9009C39.3258 28.9009 39.3258 28.9009 39.3258 28.221C39.3267 27.4854 39.3267 27.4854 40.0615 27.4854Z" fill="#1173AD"/>
<path d="M38.2444 28.2052C38.2444 28.9009 38.2444 28.9009 37.5529 28.9009C36.8272 28.9009 36.8272 28.9009 36.8272 28.1577C36.8272 27.4854 36.8272 27.4854 37.4971 27.4854C37.5112 27.4854 37.5246 27.4854 37.5387 27.4854C38.2444 27.4854 38.2444 27.4854 38.2444 28.2052Z" fill="#1173AD"/>
<path d="M36.8272 22.923C36.8272 22.2373 36.8272 22.2373 37.5254 22.2373C38.2444 22.2373 38.2444 22.2373 38.2444 22.9455C38.2444 23.6536 38.2444 23.6536 37.5654 23.6536C36.8272 23.6536 36.8272 23.6536 36.8272 22.923Z" fill="#1173AD"/>
<path d="M35.016 23.6537C34.3162 23.6537 34.3162 23.6537 34.3162 22.9589C34.3162 22.2366 34.3162 22.2366 35.0277 22.2366C35.7458 22.2366 35.7458 22.2366 35.7458 22.9497C35.7458 23.6537 35.7458 23.6537 35.016 23.6537Z" fill="#1173AD"/>
<path d="M38.2444 25.5457C38.2444 26.2614 38.2444 26.2614 37.5337 26.2614C36.8272 26.2614 36.8272 26.2614 36.8272 25.5415C36.8272 24.8442 36.8272 24.8442 37.5162 24.845C37.5304 24.845 37.5437 24.845 37.5579 24.845C38.2444 24.845 38.2444 24.845 38.2444 25.5457Z" fill="#1173AD"/>
<path d="M39.3267 22.9239C39.3267 22.2366 39.3267 22.2366 40.029 22.2366C40.7572 22.2366 40.7572 22.2366 40.7563 22.9847C40.7563 23.6529 40.7563 23.6529 40.0707 23.6529C39.3267 23.6537 39.3267 23.6537 39.3267 22.9239Z" fill="#1173AD"/>
<path d="M10.5659 28.9008C9.85107 28.9008 9.85107 28.9008 9.85107 28.1818C9.85107 27.4861 9.85107 27.4861 10.5467 27.4861C11.3049 27.4861 11.3049 27.4861 11.3049 28.2451C11.3041 28.9008 11.3041 28.9008 10.5659 28.9008Z" fill="#1173AD"/>
<path d="M13.0745 28.9008C12.3696 28.9008 12.3696 28.9008 12.3696 28.2126C12.3696 27.4861 12.3696 27.4861 13.0778 27.4861C13.8235 27.4861 13.8235 27.4861 13.8235 28.2142C13.8226 28.9008 13.8226 28.9008 13.0745 28.9008Z" fill="#1173AD"/>
<path d="M10.5642 26.2614C9.85023 26.2614 9.85023 26.2615 9.85107 25.5416C9.8519 24.8459 9.8519 24.8459 10.5484 24.8459C11.3041 24.8459 11.3041 24.8459 11.3041 25.6074C11.3041 26.2614 11.3041 26.2614 10.5642 26.2614Z" fill="#1173AD"/>
<path d="M13.1086 22.2373C13.8226 22.2373 13.8226 22.2373 13.8226 22.9571C13.8226 23.6536 13.8226 23.6536 13.1261 23.6528C12.3696 23.6528 12.3696 23.6528 12.3696 22.8922C12.3696 22.2373 12.3696 22.2373 13.1086 22.2373Z" fill="#1173AD"/>
<path d="M13.1286 24.8459C13.8226 24.8459 13.8226 24.8459 13.8226 25.5033C13.8226 26.2614 13.8226 26.2614 13.0644 26.2614C12.3696 26.2614 12.3696 26.2615 12.3688 25.6041C12.3696 24.8459 12.3696 24.8459 13.1286 24.8459Z" fill="#1173AD"/>
<path d="M10.5467 23.6528C9.85107 23.6528 9.85107 23.6528 9.85107 22.9563C9.85107 22.2381 9.85107 22.2381 10.6076 22.2373C11.3041 22.2373 11.3041 22.2373 11.3041 22.9346C11.3041 23.6528 11.3041 23.6528 10.5467 23.6528Z" fill="#1173AD"/>
<path d="M15.6264 23.6528C14.9066 23.6528 14.9066 23.6528 14.9066 22.9363C14.9066 22.2373 14.9066 22.2373 15.6006 22.2373C16.3221 22.2373 16.3221 22.2373 16.3221 22.953C16.3221 23.6528 16.3221 23.6528 15.6264 23.6528Z" fill="#1173AD"/>
<path d="M15.623 24.8459C16.3212 24.8459 16.3212 24.8459 16.322 25.5433C16.322 26.2614 16.322 26.2614 15.603 26.2614C14.9057 26.2614 14.9057 26.2614 14.9057 25.5658C14.9065 24.8459 14.9065 24.8459 15.623 24.8459Z" fill="#1173AD"/>
<path d="M15.6114 28.9008C14.9066 28.9008 14.9066 28.9008 14.9066 28.2101C14.9066 27.4861 14.9066 27.4861 15.6156 27.4861C16.3221 27.4861 16.3221 27.4861 16.3221 28.1734C16.3221 28.9008 16.3221 28.9008 15.6114 28.9008Z" fill="#1173AD"/>
</g>
<defs>
<clipPath id="clip0_979_2131">
<rect width="49.9967" height="50" fill="white"/>
</clipPath>
</defs>
</svg>
