<svg width="30" height="30" viewBox="0 0 30 30" fill="none" xmlns="http://www.w3.org/2000/svg">
<circle cx="15" cy="15" r="15" fill="#04BE00"/>
<path fill-rule="evenodd" clip-rule="evenodd" d="M14.4286 20.9286C14.4286 21.5203 14.9083 22 15.5 22C16.0918 22 16.5715 21.5203 16.5715 20.9286V15.5713H21.9286C22.5203 15.5713 23 15.0916 23 14.4999C23 13.9082 22.5203 13.4285 21.9286 13.4285H16.5715V8.07143C16.5715 7.47969 16.0918 7 15.5 7C14.9083 7 14.4286 7.47969 14.4286 8.07143V13.4285H9.07143C8.47969 13.4285 8 13.9082 8 14.4999C8 15.0916 8.47969 15.5713 9.07143 15.5713H14.4286V20.9286Z" fill="white"/>
</svg>
