<svg width="26" height="18" viewBox="0 0 26 18" fill="none" xmlns="http://www.w3.org/2000/svg">
<g clip-path="url(#clip0_1175_3273)">
<path d="M12 1H17.8601L16.1327 2.70357V16.0159H16.2331L16.675 16.0516H16.7855V2.83108L18.1112 1.47435L18.2819 1.74977L17.0918 2.9841V16.0567C17.4584 16.0924 17.8099 16.1077 18.1463 16.1077C19.4469 16.1077 20.4261 15.817 21.094 15.2304C21.7618 14.6439 22.2088 13.6799 22.4347 12.3333C23.203 14.598 23.9914 16.1485 24.7999 16.9799H12L13.6923 15.5722V2.58116L12 1ZM26 16.8779L25.4476 18H12.6478L12.3415 17.6634H25.3121L25.6686 16.8779C24.7697 15.7558 24.0517 14.5061 23.5093 13.129L23.4591 12.9913L23.8508 13.1392L23.9362 13.3534C24.4835 14.5827 25.1363 15.715 25.8996 16.7555L26 16.8779Z" fill="url(#paint0_linear_1175_3273)"/>
</g>
<g clip-path="url(#clip1_1175_3273)">
<path d="M12.7272 6.08789C13.0899 6.4541 13.0899 7.04883 12.7272 7.41504L5.29864 14.915C4.93592 15.2813 4.34685 15.2813 3.98413 14.915L0.269845 11.165C-0.0928781 10.7988 -0.0928781 10.2041 0.269845 9.83789C0.632568 9.47168 1.22163 9.47168 1.58435 9.83789L4.64284 12.9229L11.4156 6.08789C11.7783 5.72168 12.3674 5.72168 12.7301 6.08789H12.7272Z" fill="#23D138"/>
</g>
<defs>
<linearGradient id="paint0_linear_1175_3273" x1="19" y1="1" x2="19" y2="18" gradientUnits="userSpaceOnUse">
<stop stop-color="#F102E4"/>
<stop offset="1" stop-color="#920FE8"/>
</linearGradient>
<clipPath id="clip0_1175_3273">
<rect width="14" height="17" fill="white" transform="translate(12 1)"/>
</clipPath>
<clipPath id="clip1_1175_3273">
<rect width="13" height="13" fill="white" transform="translate(0 4)"/>
</clipPath>
</defs>
</svg>
