<svg width="24" height="24" viewBox="0 0 24 24" fill="none" xmlns="http://www.w3.org/2000/svg">
<g clip-path="url(#clip0_799_3084)">
<path d="M23.2453 16.1906C23.3953 15.7828 23.2688 15.3281 22.9453 15.0375L20.9157 13.1906C20.9672 12.8016 20.9953 12.4031 20.9953 12C20.9953 11.5969 20.9672 11.1984 20.9157 10.8094L22.9453 8.9625C23.2688 8.67188 23.3953 8.21719 23.2453 7.80938C23.0391 7.25156 22.7907 6.71719 22.5047 6.20156L22.2844 5.82188C21.975 5.30625 21.6282 4.81875 21.2485 4.35938C20.9719 4.02188 20.5125 3.90938 20.1 4.04063L17.4891 4.87031C16.861 4.3875 16.1672 3.98438 15.4266 3.67969L14.8407 1.00312C14.7469 0.576562 14.4188 0.239063 13.9875 0.16875C13.3407 0.0609378 12.675 0.00468779 11.9953 0.00468779C11.3156 0.00468779 10.65 0.0609378 10.0031 0.16875C9.5719 0.239063 9.24377 0.576562 9.15002 1.00312L8.56409 3.67969C7.82346 3.98438 7.12971 4.3875 6.50159 4.87031L3.89534 4.03594C3.48284 3.90469 3.02346 4.02187 2.7469 4.35469C2.36721 4.81406 2.02034 5.30156 1.71096 5.81719L1.49065 6.19688C1.20471 6.7125 0.956274 7.24688 0.750024 7.80469C0.600024 8.2125 0.726587 8.66719 1.05002 8.95781L3.07971 10.8047C3.02815 11.1984 3.00002 11.5969 3.00002 12C3.00002 12.4031 3.02815 12.8016 3.07971 13.1906L1.05002 15.0375C0.726587 15.3281 0.600024 15.7828 0.750024 16.1906C0.956274 16.7484 1.20471 17.2828 1.49065 17.7984L1.71096 18.1781C2.02034 18.6938 2.36721 19.1812 2.7469 19.6406C3.02346 19.9781 3.48284 20.0906 3.89534 19.9594L6.50627 19.1297C7.1344 19.6125 7.82815 20.0156 8.56877 20.3203L9.15471 22.9969C9.24846 23.4234 9.57659 23.7609 10.0078 23.8313C10.6547 23.9438 11.3203 24 12 24C12.6797 24 13.3453 23.9437 13.9922 23.8359C14.4235 23.7656 14.7516 23.4281 14.8453 23.0016L15.4313 20.325C16.1719 20.0203 16.8657 19.6172 17.4938 19.1344L20.1047 19.9641C20.5172 20.0953 20.9766 19.9781 21.2532 19.6453C21.6328 19.1859 21.9797 18.6984 22.2891 18.1828L22.5094 17.8031C22.7953 17.2875 23.0438 16.7531 23.25 16.1953L23.2453 16.1906ZM12 8.25C12.9946 8.25 13.9484 8.64509 14.6517 9.34835C15.3549 10.0516 15.75 11.0054 15.75 12C15.75 12.9946 15.3549 13.9484 14.6517 14.6517C13.9484 15.3549 12.9946 15.75 12 15.75C11.0055 15.75 10.0516 15.3549 9.34837 14.6517C8.64511 13.9484 8.25002 12.9946 8.25002 12C8.25002 11.0054 8.64511 10.0516 9.34837 9.34835C10.0516 8.64509 11.0055 8.25 12 8.25Z" fill="white"/>
</g>
<defs>
<clipPath id="clip0_799_3084">
<rect width="24" height="24" fill="white" transform="matrix(1 0 0 -1 0 24)"/>
</clipPath>
</defs>
</svg>
