<svg width="25" height="23" viewBox="0 0 25 23" fill="none" xmlns="http://www.w3.org/2000/svg">
<g clip-path="url(#clip0_989_2199)">
<path d="M15.6967 0.00475989C16.4073 0.00475989 17.119 -0.00117102 17.8295 0.00594608C18.5187 0.0130632 18.9374 0.376035 18.9528 0.958451C18.9682 1.5634 18.5412 1.94061 17.8188 1.96078C17.7797 1.96196 17.7393 1.96078 17.7002 1.96078C16.6552 1.97027 16.6694 1.97027 16.6682 3.02241C16.6682 3.35929 16.7394 3.50163 17.1059 3.54908C18.2731 3.69972 19.3668 4.09472 20.3679 4.71154C20.6597 4.89065 20.8543 4.90132 21.063 4.62139C21.1686 4.48023 21.3062 4.36161 21.4379 4.24299C21.8625 3.86104 22.2694 3.85748 22.6893 4.25723C23.1602 4.70679 23.6181 5.17177 24.0747 5.63557C24.605 6.17529 24.6323 6.59638 24.0664 7.09102C23.6121 7.48958 23.5516 7.77901 23.8695 8.34956C25.682 11.6033 25.2799 15.6493 22.9265 18.5626C20.5625 21.4889 16.6801 22.7048 13.0729 21.649C9.53095 20.6123 6.9083 17.4986 6.47297 13.8368C6.23099 11.8073 6.62006 9.90821 7.63187 8.14198C7.82641 7.80273 7.86555 7.60582 7.54765 7.30335C6.69123 6.48962 6.70784 6.25713 7.52867 5.42799C7.89046 5.06383 8.25225 4.69849 8.61878 4.34026C9.1407 3.8302 9.56654 3.78868 10.0268 4.33314C10.4657 4.85269 10.8085 4.88946 11.3861 4.52056C12.2378 3.97729 13.2152 3.68193 14.2211 3.55738C14.6315 3.50637 14.7324 3.35691 14.7264 2.96785C14.7122 1.96789 14.73 1.96789 13.755 1.95959C13.6174 1.9584 13.4774 1.96433 13.341 1.94654C12.7823 1.87418 12.4217 1.47444 12.4371 0.956079C12.4513 0.440089 12.8309 0.0308559 13.3884 0.0106908C14.1571 -0.0165914 14.9281 0.00357371 15.6979 0.00357371C15.6967 0.00713226 15.6967 0.00594608 15.6967 0.00475989ZM15.6789 20.0762C19.706 20.1046 23.0345 16.8059 23.0582 12.7622C23.0819 8.73151 19.7831 5.39596 15.7489 5.37105C11.6969 5.34614 8.39103 8.60459 8.3507 12.6625C8.31037 16.7394 11.5807 20.0465 15.6789 20.0762Z" fill="#0081DD"/>
<path d="M2.45548 13.5178C1.88374 13.5178 1.312 13.5178 0.740258 13.5178C0.289508 13.5178 0.019058 13.277 0.00126527 12.8464C-0.0165275 12.4039 0.272901 12.1347 0.701113 12.1264C1.88255 12.1027 3.06636 12.1038 4.2478 12.1252C4.67127 12.1335 4.969 12.385 4.95477 12.8345C4.94053 13.309 4.64161 13.5237 4.1707 13.519C3.59777 13.5118 3.02603 13.5166 2.45548 13.5178Z" fill="#0081DD"/>
<path d="M3.15652 10.3684C2.60494 10.3696 2.05337 10.372 1.50179 10.3684C1.01901 10.3661 0.678579 10.1573 0.692813 9.6425C0.705861 9.16566 1.02376 8.96994 1.48993 8.9735C2.61324 8.98061 3.73656 8.97943 4.85869 8.9735C5.33198 8.97112 5.63564 9.19413 5.64276 9.6603C5.64987 10.1336 5.33198 10.3601 4.87055 10.3661C4.3 10.3732 3.72826 10.3673 3.15652 10.3684Z" fill="#0081DD"/>
<path d="M3.1994 15.2828C3.75098 15.2828 4.30374 15.2852 4.85531 15.2828C5.32504 15.2804 5.63464 15.5105 5.64175 15.9732C5.65006 16.4358 5.34877 16.6861 4.87904 16.6872C3.73556 16.6908 2.59208 16.6955 1.44859 16.6861C0.987169 16.6825 0.68232 16.4453 0.694182 15.9672C0.706044 15.4892 1.02157 15.2816 1.48418 15.2816C2.05592 15.2828 2.62766 15.2828 3.1994 15.2828Z" fill="#0081DD"/>
<path d="M15.6792 20.0762C11.5809 20.0465 8.31062 16.7394 8.35095 12.6625C8.39129 8.60459 11.6972 5.34614 15.7492 5.37105C19.7834 5.39596 23.0822 8.73151 23.0584 12.7622C23.0359 16.8059 19.7063 20.1046 15.6792 20.0762ZM17.3339 11.0564L17.36 11.0837C17.3885 11.1146 17.4181 11.1442 17.4466 11.175L17.4751 11.2059C17.6198 11.4075 17.8345 11.3269 18.0195 11.3293C18.9044 11.3376 19.7881 11.334 20.673 11.3328C21.4215 11.3328 21.4334 11.3174 21.1605 10.6341C21.125 10.5464 21.0609 10.4693 21.0099 10.3862L21.0087 10.3779C20.9755 10.1858 20.9186 10.0067 20.7561 9.88092C20.7608 9.85483 20.7501 9.83703 20.7264 9.82636C20.7276 9.69944 20.6564 9.61403 20.5627 9.54167L20.5425 9.51202C20.4998 9.37561 20.431 9.25699 20.3006 9.18582L20.2579 9.20124L20.2982 9.18107C20.246 9.11346 20.195 9.04703 20.1428 8.97942L20.1452 8.98298C20.1048 8.94028 20.0645 8.89876 20.0242 8.85606L20.0301 8.86199C19.9898 8.81929 19.9483 8.77777 19.9079 8.73507L19.9127 8.73863C19.8391 8.57138 19.7205 8.45038 19.5473 8.38752L19.5497 8.38989C19.4916 8.33533 19.4335 8.27957 19.3742 8.22501L19.3386 8.2001C19.303 8.174 19.2662 8.14672 19.2306 8.12063L19.2235 8.1147C19.1606 8.00794 19.0741 7.93558 18.9471 7.92016L18.9507 7.92253C18.6957 7.65683 18.3766 7.505 18.0267 7.4101L18.0243 7.41129C17.6921 7.17998 17.3149 7.08272 16.9211 7.0329C16.844 7.02222 16.7681 7.01036 16.691 6.99968C16.1999 6.92495 15.7053 6.69721 15.2261 7.03883L15.2083 7.05781C15.1644 7.12067 15.0849 7.18235 15.0837 7.24641C15.0695 8.24399 15.0648 9.24276 15.0588 10.2415C15.0576 10.4147 15.1371 10.4977 15.315 10.4586C15.7741 10.359 16.207 10.5108 16.6471 10.5926L16.659 10.6009C16.7313 10.6377 16.8037 10.6757 16.8772 10.7124L16.8867 10.7196C16.9923 10.7967 17.0991 10.8738 17.2046 10.9509L17.2438 10.9793C17.2746 11.0042 17.3043 11.0303 17.3339 11.0564ZM17.4051 13.3659C18.5616 13.3647 19.7181 13.3636 20.8747 13.3624C21.4962 13.392 21.7999 13.1951 21.8118 12.7515C21.8248 12.2996 21.5283 12.0659 20.9186 12.0647C19.813 12.0611 18.7075 12.0564 17.6032 12.0694C17.3102 12.073 17.105 12.0172 16.9116 11.7563C16.5582 11.2782 16.0422 11.0861 15.4479 11.1869C14.735 11.3091 14.2475 11.8334 14.1585 12.5403C14.0731 13.2177 14.4112 13.8665 15.0398 14.1286C15.6899 14.4003 16.4609 14.29 16.9057 13.7182C17.0397 13.5462 17.1501 13.3576 17.4051 13.3659ZM18.9353 15.3907C18.5901 15.4477 18.3552 15.6731 18.3612 16.0906C18.3659 16.4856 19.1713 17.2697 19.5568 17.2471C19.9637 17.2234 20.2128 16.9909 20.2258 16.5746C20.2389 16.1594 19.4038 15.3718 18.9353 15.3907ZM13.034 15.9755C12.9806 15.6232 12.7671 15.3801 12.3365 15.3943C11.9249 15.4074 11.1492 16.2045 11.1788 16.5959C11.2108 17.0123 11.4433 17.2424 11.8787 17.2234C12.3092 17.2068 13.0471 16.4453 13.034 15.9755ZM13.0352 9.43848C13.021 8.93435 12.2061 8.18824 11.7577 8.22857C11.3556 8.26534 11.1717 8.53342 11.1776 8.91062C11.1836 9.30918 11.9997 10.0838 12.3828 10.0624C12.8003 10.0399 13.0127 9.79552 13.0352 9.43848ZM10.6474 12.0718C10.1955 12.0421 9.76607 12.0338 9.60356 12.5403C9.51223 12.8238 9.60119 13.0824 9.85504 13.2639C10.116 13.4513 11.1266 13.4573 11.384 13.2639C11.6248 13.0824 11.7209 12.8416 11.6296 12.5415C11.5477 12.2723 11.3722 12.1038 11.0899 12.0742C10.9345 12.0576 10.7767 12.0718 10.6474 12.0718ZM15.0387 17.8023C15.0315 18.4618 15.149 18.7287 15.5048 18.8188C15.7919 18.8912 16.0481 18.8259 16.232 18.5697C16.4111 18.3206 16.4182 17.2863 16.2367 17.0419C16.054 16.7964 15.8085 16.7086 15.5143 16.7952C15.2462 16.8735 15.0778 17.055 15.0422 17.3337C15.022 17.4867 15.0387 17.6457 15.0387 17.8023Z" fill="#FBFAFA"/>
<path d="M17.405 13.3659C17.1499 13.3576 17.0396 13.5462 16.9056 13.7182C16.4608 14.2888 15.6897 14.3991 15.0397 14.1286C14.411 13.8665 14.0718 13.2177 14.1584 12.5403C14.2485 11.8322 14.736 11.3091 15.4478 11.1869C16.042 11.0849 16.5568 11.2771 16.9115 11.7563C17.1049 12.0172 17.3101 12.073 17.603 12.0694C18.7086 12.0564 19.8129 12.0611 20.9184 12.0647C21.5281 12.0671 21.8247 12.3007 21.8116 12.7515C21.7986 13.1951 21.4961 13.3932 20.8745 13.3624C20.8223 13.2141 20.7144 13.1489 20.5614 13.1489C19.6053 13.1477 18.6493 13.1477 17.6932 13.1453C17.5366 13.1441 17.4299 13.1999 17.405 13.3659Z" fill="#0081DD"/>
<path d="M18.9352 15.3907C19.4026 15.3717 20.2388 16.1594 20.2246 16.5745C20.2116 16.9897 19.9613 17.2234 19.5556 17.2471C19.1713 17.2696 18.3659 16.4856 18.3599 16.0906C18.3552 15.673 18.5901 15.4477 18.9352 15.3907Z" fill="#0081DD"/>
<path d="M13.0338 15.9755C13.0468 16.4452 12.309 17.2068 11.8784 17.2246C11.4419 17.2424 11.2106 17.0122 11.1786 16.5971C11.1489 16.2056 11.9247 15.4085 12.3363 15.3955C12.7669 15.38 12.9804 15.6232 13.0338 15.9755Z" fill="#0081DD"/>
<path d="M13.0351 9.43847C13.0126 9.79551 12.8002 10.0399 12.3815 10.0624C11.9984 10.0837 11.1823 9.30917 11.1764 8.91061C11.1716 8.53341 11.3543 8.26533 11.7564 8.22856C12.206 8.18823 13.0209 8.93434 13.0351 9.43847Z" fill="#0081DD"/>
<path d="M10.6474 12.0718C10.7767 12.0718 10.9344 12.0587 11.0886 12.0742C11.3709 12.1038 11.5465 12.2722 11.6283 12.5415C11.7197 12.8404 11.6236 13.0812 11.3828 13.2639C11.1254 13.4572 10.1148 13.4513 9.85381 13.2639C9.59997 13.0812 9.511 12.8238 9.60234 12.5403C9.76603 12.0338 10.1954 12.0421 10.6474 12.0718Z" fill="#0081DD"/>
<path d="M15.0387 17.8023C15.0387 17.6457 15.022 17.4868 15.0422 17.3337C15.0778 17.055 15.2474 16.8735 15.5143 16.7952C15.8097 16.7086 16.0552 16.7964 16.2367 17.0419C16.4182 17.2863 16.4099 18.3218 16.232 18.5697C16.0481 18.8248 15.7919 18.8912 15.5048 18.8188C15.149 18.7287 15.0315 18.4606 15.0387 17.8023Z" fill="#0081DD"/>
<path d="M17.4048 13.3659C17.4297 13.1999 17.5365 13.1441 17.693 13.1441C18.6491 13.1465 19.6052 13.1465 20.5612 13.1477C20.7142 13.1477 20.8222 13.2129 20.8744 13.3612C19.7178 13.3635 18.5613 13.3647 17.4048 13.3659Z" fill="#0081DD"/>
<path d="M16.8867 10.7184C17.0931 10.6579 17.2414 10.6769 17.2046 10.9497C17.099 10.8738 16.9935 10.7967 16.8867 10.7184Z" fill="#D44E50"/>
<path d="M19.2256 8.1147C19.069 8.14198 18.9979 8.04709 18.9492 7.92017C19.0761 7.93559 19.1627 8.00794 19.2256 8.1147Z" fill="#D44E50"/>
<path d="M19.552 8.38992C19.444 8.38754 19.3373 8.38399 19.3764 8.22504C19.4357 8.2796 19.4939 8.33417 19.552 8.38992Z" fill="#D44E50"/>
<path d="M16.6602 10.5998C16.7776 10.5499 16.8713 10.5464 16.8784 10.7113C16.8049 10.6745 16.7325 10.6365 16.6602 10.5998Z" fill="#D44E50"/>
<path d="M21.1603 10.6329C21.1247 10.5452 21.0607 10.4681 21.0097 10.3862L21.0085 10.3779C20.9753 10.1858 20.9184 10.0066 20.7558 9.88091C20.7606 9.85481 20.7511 9.83702 20.7262 9.82634C20.7274 9.69942 20.6562 9.61402 20.5625 9.54166L20.5423 9.512C20.4996 9.37559 20.4308 9.25697 20.3004 9.1858L20.2576 9.20122L20.298 9.18106C20.2458 9.11345 20.1948 9.04702 20.1426 8.97941C20.1426 8.97941 20.1426 8.97941 20.1426 8.98059C20.1034 8.93908 20.0631 8.89756 20.024 8.85604L20.0299 8.86197C19.9908 8.82046 19.9504 8.78013 19.9113 8.73861H19.9125C19.8389 8.57136 19.7203 8.45037 19.5471 8.3875C19.5471 8.38869 19.5471 8.38869 19.5471 8.38987C19.4392 8.3875 19.3348 8.38276 19.3739 8.22499L19.3384 8.20008C19.2565 8.23567 19.2245 8.20483 19.2304 8.12061L19.2233 8.11349C19.0667 8.14078 18.9967 8.04588 18.9481 7.92015C18.9493 7.92015 18.9493 7.92015 18.9505 7.92133C18.6954 7.65563 18.3764 7.5038 18.0264 7.4089L18.0241 7.41009C17.6919 7.17878 17.3147 7.08151 16.9209 7.03169C16.8438 7.02102 16.7679 7.00916 16.6908 6.99848C16.1997 6.92375 15.7051 6.696 15.2259 7.03763L15.2081 7.0566C15.1642 7.11947 15.0847 7.18115 15.0835 7.24521C15.0693 8.24279 15.0645 9.24155 15.0586 10.2403C15.0574 10.4135 15.1369 10.4965 15.3148 10.4574C15.7739 10.3578 16.2068 10.5096 16.6469 10.5902L16.6588 10.5985C16.7762 10.5487 16.8699 10.5452 16.877 10.71L16.8865 10.7172C17.0929 10.6567 17.2412 10.6757 17.2044 10.9485L17.2436 10.9769C17.3266 10.9414 17.3539 10.9698 17.3325 11.054L17.3586 11.0813C17.444 11.0576 17.4713 11.0896 17.4452 11.1727L17.4737 11.2035C17.6184 11.4052 17.8331 11.3245 18.0181 11.3269C18.903 11.3352 19.7867 11.3316 20.6716 11.3304C21.4213 11.3316 21.4332 11.3162 21.1603 10.6329ZM18.1284 7.54887C18.1391 7.56073 18.1486 7.57259 18.1593 7.58327C18.1486 7.57259 18.1379 7.56073 18.1284 7.54887ZM18.0857 7.49668C18.0941 7.50854 18.1035 7.5204 18.1118 7.53226C18.1024 7.5204 18.0941 7.50854 18.0857 7.49668ZM18.884 7.90591C18.8757 7.90354 18.8663 7.90235 18.858 7.89998C18.8674 7.90235 18.8757 7.90354 18.884 7.90591ZM18.8176 7.89049C18.8058 7.88812 18.7927 7.88456 18.7809 7.881C18.7939 7.88456 18.8058 7.88812 18.8176 7.89049ZM18.7512 7.87388C18.737 7.87033 18.7239 7.86677 18.7097 7.86321C18.7239 7.86677 18.7381 7.87033 18.7512 7.87388ZM18.5567 7.81813C18.5448 7.81339 18.5318 7.80864 18.5199 7.80509C18.5318 7.80864 18.5436 7.81339 18.5567 7.81813ZM18.4938 7.79441C18.4819 7.78967 18.4713 7.78492 18.4594 7.78018C18.4713 7.78492 18.4819 7.79085 18.4938 7.79441ZM18.4321 7.7695C18.4191 7.76357 18.4072 7.75764 18.3953 7.75171C18.4084 7.75764 18.4203 7.76357 18.4321 7.7695ZM18.374 7.73985C18.3609 7.73273 18.3491 7.72561 18.336 7.71849C18.3479 7.72561 18.3609 7.73391 18.374 7.73985ZM18.2613 7.67105C18.2518 7.66393 18.2423 7.65563 18.2316 7.64851C18.2411 7.65563 18.2506 7.66393 18.2613 7.67105ZM18.2079 7.62953C18.1972 7.62004 18.1878 7.61055 18.1771 7.60106C18.1878 7.61055 18.1984 7.62004 18.2079 7.62953Z" fill="#D44E50"/>
<path d="M19.3406 8.20008C19.2587 8.23567 19.2267 8.20482 19.2326 8.12061C19.2682 8.1467 19.305 8.1728 19.3406 8.20008Z" fill="#D44E50"/>
<path d="M17.3599 11.0825C17.4453 11.0588 17.4726 11.0908 17.4465 11.1738C17.418 11.143 17.3883 11.1133 17.3599 11.0825Z" fill="#D44E50"/>
<path d="M17.2446 10.9781C17.3277 10.9426 17.3549 10.971 17.3336 11.0552C17.3039 11.0303 17.2743 11.0042 17.2446 10.9781Z" fill="#D44E50"/>
<path d="M20.0323 8.86197C19.992 8.81927 19.9505 8.77775 19.9102 8.73505C19.9505 8.77775 19.9908 8.81927 20.0323 8.86197Z" fill="#D44E50"/>
</g>
<defs>
<clipPath id="clip0_989_2199">
<rect width="25" height="22.0262" fill="white"/>
</clipPath>
</defs>
</svg>
