<svg width="100" height="100" viewBox="0 0 100 100" fill="none" xmlns="http://www.w3.org/2000/svg">
<path d="M55.4563 0.370243C62.5208 1.25777 67.7093 3.52051 69.8971 4.57499C76.5135 7.75601 82.216 12.5144 87.097 18.6611C87.097 18.6611 94.4602 28.0855 97.2631 41.8245C97.8079 44.4915 97.9485 46.9344 97.9485 46.9344C98.111 49.7507 97.8913 52.075 97.5443 54.4959C96.6876 60.4625 96.1648 64.6145 93.9198 69.6892C92.3118 73.3228 90.8049 77.0662 87.7955 79.8781C84.4478 74.7551 80.0018 71.104 73.8994 69.8518C71.1976 69.2982 68.522 68.6787 65.8904 67.8527C63.2237 66.5433 60.9567 64.7859 59.4367 62.176C59.3092 61.5785 59.7046 61.2314 60.0781 60.8843C62.2747 58.8237 63.8783 56.4731 63.7509 53.2876C63.7157 52.3869 64.1068 52.1057 64.9591 52.4001C65.9915 52.7516 66.6461 52.3166 67.0063 51.35C67.4632 50.1242 67.9773 48.9115 68.3375 47.6593C69.0844 45.0451 67.9289 43.8368 65.3281 44.6497C63.786 45.133 64.2034 44.2367 64.2342 43.4854C65.1392 43.2217 65.6752 42.488 66.2068 41.8114C69.9279 37.1013 70.2969 31.8202 68.645 26.2797C67.5291 22.5363 65.3545 19.5047 61.5894 18.1558C59.6256 17.4485 57.7189 16.8377 56.2295 15.3219C56.313 14.9924 56.1021 14.865 55.8473 14.7727C55.5969 14.3333 55.2191 14.0653 54.7446 13.9159C54.358 13.4326 53.8659 13.1207 53.2597 12.9845L53.286 13.0108C50.3601 11.2929 47.3111 10.959 44.1172 12.176C41.1121 12.8439 38.5025 14.3158 36.0862 16.1655C32.9362 18.5776 30.1816 21.3896 27.55 24.3509C26.5834 25.4405 26.0914 26.0688 27.8355 26.9915C29.3688 27.7999 29.8784 29.5838 30.2958 31.2358C30.8581 33.4546 30.9284 35.7393 30.8318 37.9933C30.7307 40.3395 30.9504 42.3869 33.3799 43.4897C30.6517 43.4326 30.3441 43.727 30.3309 46.4159C30.3266 47.1453 30.2387 47.8922 30.3705 48.5952C30.7307 50.4977 31.2096 52.3869 33.6347 52.5934C34.5222 52.6681 34.6496 53.1954 34.7243 53.9071C35.0625 57.053 36.6881 59.4651 39.0912 61.4203C38.2828 64.3817 36.4948 66.6356 34.0653 68.4282C33.2481 68.7094 32.4485 69.0785 31.6138 69.2542C28.7713 69.8518 25.8893 70.2868 23.0644 70.9546C17.9638 72.1629 14.0757 75.1418 11.1717 79.4651C10.192 79.4959 9.82734 78.7402 9.40119 78.068C8.11395 76.0425 4.05892 72.611 2.16979 60.278C1.23841 54.2103 0.49594 49.3597 1.43172 42.6813C1.73925 40.4669 3.26373 30.8711 9.98111 21.1172C12.0679 18.0855 14.5238 15.2472 17.3882 12.6154C20.1209 10.1022 23.0336 7.96251 26.1573 6.17429C29.6851 4.15759 32.7517 3.00645 34.509 2.41769C43.6778 -0.666664 51.7571 -0.0954861 55.4563 0.370243Z" fill="#D8E8EF"/>
<path d="M11.1754 79.4611C14.0794 75.1377 17.9675 72.1588 23.0681 70.9506C25.893 70.2827 28.775 69.8478 31.6175 69.2502C32.4566 69.0745 33.2562 68.7054 34.0734 68.4242C38.9763 71.491 44.2395 73.2397 50.1002 72.8091C55.996 73.165 61.1098 71.0428 65.8897 67.8486C68.5213 68.6746 71.1969 69.2898 73.8987 69.8478C80.0011 71.1 84.4471 74.7511 87.7948 79.8741C87.9046 80.4497 87.5444 80.8363 87.2281 81.2362C83.2653 86.3065 78.6523 90.4409 73.354 93.5516C70.6785 95.1202 67.2736 96.8513 62.3355 98.2441C59.2602 99.1096 52.4067 100.705 43.7079 99.6456C39.9824 99.1931 34.6357 98.1342 28.8497 95.3311C22.4355 92.2247 16.8603 87.6421 12.0497 81.7151C11.5313 81.0912 10.6394 80.5288 11.1754 79.4611Z" fill="#194794"/>
<path d="M56.225 15.3266C57.7144 16.8424 59.6167 17.4531 61.5849 18.1605C65.3456 19.5094 67.5246 22.5454 68.6405 26.2844C70.288 31.8249 69.919 37.1017 66.2023 41.8161C65.6663 42.4927 65.1347 43.2264 64.2297 43.4901C64.5855 40.498 64.3966 37.5278 63.6497 34.6192C62.9029 31.7062 61.3169 29.338 58.7688 27.6377C57.9296 27.0797 57.2926 26.9391 56.5018 27.7563C54.5644 29.751 52.0338 30.6561 49.433 31.4031C47.4296 31.7326 45.4307 32.0577 43.4273 32.396C39.4865 33.0595 37.1536 35.476 36.0861 39.2194C35.7698 40.331 35.4886 41.469 35.3612 42.6157C35.1898 44.1711 34.4605 44.1491 33.3842 43.4901C30.9547 42.3872 30.735 40.3398 30.8361 37.9936C30.9327 35.7396 30.8624 33.4549 30.3001 31.2361C29.8827 29.5841 29.3731 27.8002 27.8398 26.9918C26.0913 26.0691 26.5833 25.4408 27.5543 24.3512C30.1815 21.3899 32.9405 18.5735 36.0905 16.1658C38.5068 14.3161 41.1164 12.8442 44.1214 12.1763C47.2099 12.1104 50.2677 12.3565 53.2903 13.0111L53.2639 12.9848C53.4353 13.8108 54.002 14.0041 54.7489 13.9162C55.219 14.0656 55.6012 14.338 55.8516 14.773C55.9702 14.9575 56.0976 15.1421 56.225 15.3266Z" fill="#462A18"/>
<path d="M49.4336 31.3979C52.0344 30.651 54.565 29.7459 56.5024 27.7511C57.2932 26.9383 57.9303 27.0745 58.7694 27.6325C61.3131 29.3329 62.9035 31.6966 63.6504 34.614C64.3972 37.5227 64.5861 40.4928 64.2303 43.4849C64.1995 44.2362 63.7822 45.1325 65.3242 44.6492C67.9251 43.8364 69.0805 45.0446 68.3336 47.6589C67.9734 48.9155 67.4594 50.1237 67.0025 51.3496C66.6422 52.3162 65.9876 52.7511 64.9552 52.3996C64.1029 52.1097 63.7119 52.3908 63.747 53.2872C63.8744 56.4726 62.2709 58.8232 60.0742 60.8838C59.7008 61.2309 59.3098 61.578 59.4328 62.1756C58.6727 62.2854 58.1851 62.8434 57.6139 63.274C55.3646 64.9699 53.0713 66.5868 50.097 66.7054L50.0838 66.6527C50.0882 55.774 50.0926 44.8996 50.0794 34.0209C50.0838 33.1158 50.3694 32.0921 49.4336 31.3979Z" fill="#E8BD78"/>
<path d="M49.4322 31.3984C50.3724 32.0926 50.0825 33.1164 50.0869 34.0302C50.1 44.909 50.0912 55.7833 50.0912 66.6621C49.1511 66.6972 48.2417 66.6269 47.3015 66.4424C43.9274 65.7789 41.5594 63.5426 39.1036 61.4248C36.7004 59.4696 35.0793 57.0575 34.7366 53.9116C34.6575 53.1954 34.5345 52.6726 33.6471 52.5979C31.222 52.3914 30.7431 50.5021 30.3828 48.5997C30.251 47.8967 30.3389 47.1498 30.3433 46.4204C30.3609 43.7315 30.6684 43.4371 33.3923 43.4942C34.473 44.1533 35.1979 44.1752 35.3692 42.6199C35.4967 41.4731 35.7778 40.3352 36.0941 39.2236C37.1617 35.4802 39.4946 33.0636 43.4354 32.4002C45.4255 32.0531 47.4289 31.728 49.4322 31.3984Z" fill="#F0CC8B"/>
<path d="M39.1002 61.4199C41.556 63.5377 43.9284 65.7697 47.2981 66.4375C48.2383 66.622 49.1477 66.6923 50.0879 66.6572L50.101 66.7099C50.101 68.7442 50.101 70.7784 50.101 72.8171C44.2404 73.2477 38.9772 71.499 34.0742 68.4322C36.4993 66.6352 38.2918 64.3813 39.1002 61.4199Z" fill="#D8B06F"/>
<path d="M50.0957 72.8177C50.0957 70.7835 50.0957 68.7492 50.0957 66.7105C53.07 66.5919 55.3633 64.975 57.6127 63.2791C58.1838 62.8485 58.6715 62.2905 59.4315 62.1807C60.9516 64.7905 63.2185 66.548 65.8853 67.8573C61.1054 71.0471 55.9915 73.1736 50.0957 72.8177Z" fill="#D0A660"/>
<path d="M53.286 13.0065C50.2634 12.3518 47.2057 12.1102 44.1172 12.1717C47.3111 10.9547 50.3601 11.293 53.286 13.0065Z" fill="#4C2F1E"/>
<path d="M54.7447 13.9158C54.0022 14.0037 53.4311 13.8104 53.2598 12.9844C53.8616 13.1206 54.3581 13.4325 54.7447 13.9158Z" fill="#4C2F1E"/>
<path d="M56.226 15.3266C56.0986 15.142 55.9712 14.9575 55.8438 14.7773C56.103 14.8696 56.3094 14.9926 56.226 15.3266Z" fill="#4C2F1E"/>
</svg>
