<svg width="24" height="27" viewBox="0 0 24 27" fill="none" xmlns="http://www.w3.org/2000/svg">
<g clip-path="url(#clip0_1343_203)">
<path d="M19.9013 15.3131C19.4924 14.7212 18.8471 14.4253 17.9719 14.4253C16.046 14.4253 15.083 16.2689 15.083 19.956C15.083 21.2655 15.2249 22.303 15.5054 23.0717C15.7858 23.8404 16.2555 24.4595 16.9143 24.9289L17.0022 24.8302C15.9277 24.0139 15.3871 22.3506 15.3871 19.8369C15.3871 16.4015 16.2555 14.6838 17.9922 14.6838C18.5193 14.6838 19.1005 14.8607 19.7357 15.211L19.9046 15.3097L19.9013 15.3131Z" fill="#00C5FB"/>
<path d="M23.1785 15.8201C22.6312 14.7112 21.8844 13.9255 20.9417 13.4697V13.5786C21.8338 14.116 22.5197 14.9289 23.0062 16.0208C23.4928 17.1092 23.7327 18.3814 23.7327 19.8372C23.7327 21.7896 23.2022 23.395 22.1379 24.6502C21.0735 25.9053 19.7152 26.5345 18.0596 26.5345C16.8263 26.5345 15.7991 26.2318 14.9814 25.6264V25.6774C15.9579 26.4427 17.0088 26.8237 18.1305 26.8237C19.8875 26.8237 21.3033 26.1672 22.3811 24.8508C23.459 23.5345 23.9996 21.8066 23.9996 19.6705C23.9996 18.2147 23.7259 16.9324 23.1785 15.8235V15.8201Z" fill="#00C5FB"/>
<path d="M21.6483 24.3201C22.5944 23.1704 23.0674 21.6295 23.0674 19.6975C23.0674 17.6499 22.5876 16.0172 21.628 14.7961C20.6684 13.575 19.3845 12.9627 17.7829 12.9627C16.1813 12.9627 14.7723 13.5546 13.7823 14.7349C13.6303 14.9152 13.4951 15.109 13.3667 15.3063L13.0424 14.9254L14.796 8.48649C15.3299 6.50687 15.8536 4.96603 16.3638 3.86397C16.874 2.76191 17.5261 1.7721 18.3201 0.894538L18.0938 0.724467C17.2693 1.69387 16.6104 2.71089 16.1138 3.77893C15.6171 4.84698 15.1001 6.36741 14.5595 8.34703L12.7383 15.024L13.2079 15.5716C13.1674 15.6431 13.1268 15.7111 13.0897 15.7859L12.4882 15.2451L12.2889 14.4662L14.002 8.18716C14.6372 5.8538 15.1846 4.1837 15.6509 3.17348C16.1171 2.16326 16.8064 1.14964 17.7255 0.132622L17.5667 -0.00683594C17.1308 0.333305 16.4719 0.714263 15.5867 1.13944C14.7014 1.56462 13.8736 1.90136 13.1032 2.14626C13.7621 2.55103 14.0932 3.10886 14.0932 3.81975C14.0932 4.45922 13.8026 5.83339 13.2215 7.94566L12.2923 11.3131L10.1636 3.55104H9.88653L12.1639 11.8131L11.8463 12.9389L9.27158 3.55104H8.34239L6.22385 11.3131L4.4905 5.04426L5.31156 4.30615L5.08518 4.14629L4.18302 4.95242L6.09207 11.8097L5.74405 13.0138L3.47684 4.80276L4.83176 3.54764H0L1.48332 4.80276L4.36548 15.2349L3.0207 16.3301H7.54498L6.38603 15.2349L6.22723 14.6158L8.25792 7.15313L8.58567 8.34023L6.71378 15.1567L8.1971 16.8812H3.4836L3.68295 17.1499H8.7411L7.03815 15.0954L8.7411 8.84704L10.4947 15.2349L9.19724 16.3301H12.843C12.7721 16.507 12.7079 16.6907 12.6538 16.8778H9.64325L9.86963 17.1465H12.5829C12.4004 17.8574 12.3024 18.6397 12.3024 19.5037C12.3024 21.8506 13.0255 23.6194 14.4716 24.8167C15.4549 25.6262 16.5767 26.031 17.837 26.031C19.4352 26.031 20.7056 25.4561 21.6517 24.3064L21.6483 24.3201ZM14.4378 19.735C14.4378 18.7519 14.5054 17.8948 14.644 17.1567C14.6642 17.0614 14.6845 16.9696 14.7048 16.8744C15.1575 14.8403 16.1813 13.8165 17.7829 13.8165C18.7864 13.8165 19.5568 14.2485 20.1008 15.1124C20.6144 15.9424 20.8746 17.4118 20.8746 19.5173C20.8746 21.3778 20.6076 22.7894 20.0738 23.7588C19.5399 24.7282 18.7594 25.2078 17.739 25.2078C15.5427 25.2078 14.4412 23.3847 14.4412 19.7384L14.4378 19.735Z" fill="#00C5FB"/>
</g>
<defs>
<clipPath id="clip0_1343_203">
<rect width="24" height="26.8235" fill="white"/>
</clipPath>
</defs>
</svg>
