<svg width="31" height="32" viewBox="0 0 31 32" fill="none" xmlns="http://www.w3.org/2000/svg">
<path d="M15.5946 31C23.655 31 30.1892 24.2843 30.1892 16C30.1892 7.71573 23.655 1 15.5946 1C7.53422 1 1 7.71573 1 16C1 24.2843 7.53422 31 15.5946 31Z" fill="white" stroke="#217647" stroke-miterlimit="10"/>
<rect x="15.241" y="9.45703" width="8.55304" height="12.2566" stroke="#1E6F43" stroke-width="0.5"/>
<rect x="19.0146" y="10.9082" width="3.52063" height="1.70087" fill="#217647"/>
<rect x="19.0146" y="15.1602" width="3.52063" height="1.70087" fill="#217647"/>
<rect x="14.991" y="10.9082" width="3.52063" height="1.70087" fill="#217647"/>
<rect x="14.991" y="15.1602" width="3.52063" height="1.70087" fill="#217647"/>
<rect x="19.0146" y="13.0342" width="3.52063" height="1.70087" fill="#217647"/>
<rect x="19.0146" y="17.2866" width="3.52063" height="1.70087" fill="#217647"/>
<rect x="19.0146" y="19.4121" width="3.52063" height="1.70087" fill="#217647"/>
<rect x="14.991" y="13.0342" width="3.52063" height="1.70087" fill="#217647"/>
<rect x="14.991" y="17.2866" width="3.52063" height="1.70087" fill="#217647"/>
<rect x="14.991" y="19.4121" width="3.52063" height="1.70087" fill="#217647"/>
<path d="M16.5952 23.4645L7.58398 21.839V10.2383L16.5952 8.61279V23.4645Z" fill="#217647"/>
<path d="M14.738 22.561L12.775 19.506L10.994 22.561H8.93998L11.8 17.985L8.90098 13.487H10.994L12.957 16.529L14.725 13.487H16.779L13.932 18.05L16.831 22.561H14.738Z" fill="white"/>
</svg>
