<svg width="14" height="16" viewBox="0 0 14 16" fill="none" xmlns="http://www.w3.org/2000/svg">
<path d="M0.576177 15.8449C0.295476 15.8449 0.103416 15.8375 0 15.8227C0.103416 14.9658 0.554016 12.7941 1.3518 9.30748C2.16436 5.80609 2.57064 3.59003 2.57064 2.65928C2.57064 2.48199 2.46722 2.253 2.26039 1.9723C2.05355 1.67682 1.84672 1.43306 1.63989 1.241L1.3518 0.930748L1.41828 0.576178C3.44229 0.192059 5.58449 0 7.84488 0C10.5633 0 11.9224 1.0711 11.9224 3.2133C11.9224 4.26224 11.6565 5.22253 11.1247 6.09418C10.6076 6.95106 9.79501 7.62327 8.68698 8.1108C9.51431 10.8735 10.2235 12.6611 10.8144 13.4737C11.0803 13.8135 11.2872 13.9834 11.4349 13.9834C11.7008 13.9834 12.1145 13.8504 12.6759 13.5845L12.9418 13.4515L13.4515 14.2715C12.9049 14.7738 12.2696 15.1874 11.5457 15.5125C10.8366 15.8375 10.1644 16 9.52909 16C8.90859 16 8.39151 15.7341 7.97784 15.2022C7.57895 14.6556 7.2096 13.8578 6.86981 12.8089C6.54478 11.7599 6.21237 10.4155 5.87258 8.77562C5.39982 8.80517 5.03786 8.81994 4.7867 8.81994C4.03324 12.0554 3.61958 14.2419 3.54571 15.3795C2.91043 15.6898 1.92059 15.8449 0.576177 15.8449ZM5.65097 7.31302C6.5374 7.31302 7.23176 6.92151 7.73407 6.1385C8.25115 5.34072 8.5097 4.3952 8.5097 3.30194C8.5097 2.72576 8.40628 2.26039 8.19945 1.90582C7.99261 1.55125 7.68236 1.37396 7.2687 1.37396C7.09141 1.37396 6.87719 1.40351 6.62604 1.4626C6.38966 1.50693 6.27147 1.53647 6.27147 1.55125C6.03509 3.07295 5.65097 4.99354 5.11911 7.31302H5.65097Z" fill="#FFA500"/>
</svg>
