<svg width="15" height="15" viewBox="0 0 15 15" fill="none" xmlns="http://www.w3.org/2000/svg">
<g clip-path="url(#clip0_3229_811)">
<path d="M7.39836 15.0005C7.11518 14.6902 6.835 14.3799 6.5488 14.0726C6.4313 13.943 6.37105 13.8014 6.50963 13.6659C6.65424 13.5243 6.79282 13.6026 6.9073 13.7352C7.00973 13.8496 7.11517 13.9581 7.26882 14.1238C7.26882 13.6629 7.26882 13.2592 7.26882 12.8555C7.26882 12.6747 7.25074 12.4638 7.50983 12.4699C7.74482 12.4729 7.72976 12.6717 7.72976 12.8404C7.72976 13.2441 7.72976 13.6508 7.72976 14.1238C7.88943 13.9521 8.00391 13.8376 8.10935 13.7171C8.22082 13.5845 8.35036 13.5424 8.47991 13.6659C8.60644 13.7864 8.57631 13.922 8.46484 14.0455C8.17563 14.3618 7.88641 14.6811 7.5972 15.0005C7.53092 15.0005 7.46464 15.0005 7.39836 15.0005Z" fill="#283942"/>
<path d="M7.60278 0C7.88597 0.310303 8.16615 0.620606 8.45235 0.927897C8.57286 1.05744 8.6301 1.19904 8.49152 1.33461C8.3439 1.4762 8.20833 1.39185 8.09385 1.26531C7.99142 1.15385 7.88597 1.04539 7.73233 0.882707C7.73233 1.34063 7.73233 1.74433 7.73233 2.14501C7.73233 2.32276 7.7504 2.53364 7.49132 2.53063C7.25633 2.52762 7.27139 2.32878 7.27139 2.16007C7.27139 1.75638 7.27139 1.34967 7.27139 0.876682C7.11172 1.04539 6.99724 1.15987 6.8918 1.28038C6.78033 1.40691 6.6538 1.45812 6.52124 1.33461C6.3917 1.2141 6.42484 1.07853 6.5363 0.955011C6.82251 0.638682 7.11172 0.319341 7.40094 0C7.46721 0 7.53349 0 7.60278 0Z" fill="#283942"/>
<path d="M0 7.39866C0.310303 7.11547 0.620607 6.83229 0.927897 6.5491C1.05443 6.4316 1.19602 6.36532 1.33159 6.50692C1.47017 6.65153 1.39787 6.79011 1.26833 6.9076C1.15385 7.01003 1.04539 7.11547 0.876682 7.27213C1.22615 7.27213 1.52139 7.24201 1.80759 7.28117C2.05764 7.31431 2.51557 7.07932 2.50653 7.51013C2.49749 7.92287 2.04559 7.69089 1.79253 7.72403C1.51536 7.76018 1.22615 7.73307 0.87367 7.73307C1.04539 7.89274 1.15987 8.00722 1.28038 8.11266C1.40992 8.22413 1.45511 8.35368 1.33461 8.48322C1.21711 8.61276 1.07552 8.57661 0.955011 8.46816C0.63567 8.18195 0.319341 7.88973 0 7.60051C0 7.53122 0 7.46494 0 7.39866Z" fill="#283942"/>
<path d="M14.9982 7.60071C14.6879 7.8839 14.3775 8.16408 14.0703 8.45028C13.9437 8.56777 13.7991 8.63104 13.6666 8.49246C13.528 8.34785 13.6003 8.20927 13.7298 8.09178C13.8413 7.98935 13.9528 7.8839 14.1185 7.72724C13.7148 7.72724 13.3653 7.73929 13.0219 7.72122C12.817 7.71218 12.4766 7.84474 12.4766 7.48623C12.4766 7.15183 12.808 7.27836 13.0038 7.26932C13.3532 7.25124 13.7027 7.2633 14.1245 7.2633C13.9528 7.10362 13.8383 6.98914 13.7178 6.8837C13.5882 6.77223 13.54 6.6457 13.6605 6.51315C13.778 6.38661 13.9226 6.41975 14.0431 6.52821C14.3625 6.81742 14.6818 7.10664 14.9982 7.39886C14.9982 7.46514 14.9982 7.53142 14.9982 7.60071Z" fill="#283942"/>
<path d="M11.4886 7.50762C11.5036 9.69179 9.71412 11.4903 7.52392 11.4934C5.29155 11.4964 3.52914 9.75506 3.50806 7.52871C3.48395 5.32043 5.25841 3.52188 7.46969 3.50983C9.7081 3.49778 11.4765 5.25717 11.4886 7.50762ZM6.24354 6.69119C6.18329 6.25737 6.36104 5.87175 6.80691 5.61567C6.95152 5.53132 7.20157 5.54638 7.12625 5.25415C7.10818 5.18185 7.19856 5.19691 7.24977 5.1939C7.93364 5.13967 8.80731 5.95309 8.80731 6.63395C8.80731 6.83278 8.74706 7.07982 8.84045 7.2184C9.00916 7.46243 8.91878 7.63114 8.81032 7.82395C8.67476 8.06496 8.53015 8.30296 8.3765 8.52891C8.18369 8.81511 8.21382 9.00491 8.52412 9.16759C8.66873 9.24291 8.83443 9.28207 8.99108 9.33027C9.31645 9.42969 9.68701 9.42668 9.9702 9.61949C10.1841 9.76711 10.2504 9.6707 10.3498 9.52308C10.877 8.73678 11.106 7.88721 10.9463 6.93823C10.7023 5.51625 9.66291 4.39555 8.27709 4.08223C6.89428 3.76892 5.44218 4.33529 4.62876 5.5042C3.81233 6.67914 3.79426 8.21258 4.57152 9.41161C4.71312 9.62853 4.82157 9.80928 5.1138 9.57129C5.24937 9.46283 5.46327 9.44174 5.64403 9.40559C5.89408 9.35437 6.14413 9.31822 6.37911 9.21278C6.70448 9.06817 6.79185 8.76691 6.60506 8.47468C6.4484 8.23367 6.29175 7.99266 6.15015 7.7426C6.08086 7.61909 5.98747 7.44736 6.10496 7.33891C6.30078 7.16418 6.23752 6.96233 6.24354 6.69119Z" fill="#283942"/>
<path d="M2.98872 12.3311C3.23576 12.3311 3.40146 12.3401 3.56715 12.3281C3.73586 12.319 3.82624 12.4034 3.83528 12.551C3.84432 12.6986 3.769 12.801 3.60029 12.8101C3.21467 12.8282 2.82604 12.8523 2.44042 12.8703C2.23556 12.8824 2.13614 12.786 2.1271 12.5781C2.11505 12.1774 2.15723 11.7828 2.19037 11.3851C2.20242 11.2315 2.30184 11.1622 2.42837 11.1622C2.56997 11.1652 2.67541 11.2435 2.66938 11.4122C2.66336 11.596 2.66938 11.7798 2.66938 12.0057C2.99475 11.6803 3.29903 11.3791 3.60029 11.0808C3.71477 10.9694 3.83227 10.8519 3.99194 11.0115C4.15763 11.1772 4.02508 11.2917 3.91662 11.4002C3.62439 11.6984 3.32915 11.9906 2.98872 12.3311Z" fill="#283942"/>
<path d="M12.0203 2.66917C11.7703 2.66917 11.6076 2.66013 11.4449 2.67218C11.2611 2.68725 11.1617 2.59084 11.1587 2.43117C11.1557 2.28958 11.2461 2.19619 11.4148 2.19016C11.7914 2.17811 12.1649 2.151 12.5415 2.12991C12.7584 2.11786 12.8789 2.21426 12.8669 2.44021C12.8488 2.82583 12.8247 3.21446 12.8066 3.60008C12.7976 3.76578 12.6952 3.84411 12.5475 3.83507C12.3969 3.82603 12.3186 3.72661 12.3246 3.56393C12.3306 3.3892 12.3276 3.21145 12.3276 2.94634C11.9932 3.2958 11.701 3.60309 11.4057 3.90737C11.2973 4.01884 11.1828 4.15441 11.0171 3.99474C10.8333 3.82001 10.9779 3.6995 11.0985 3.58201C11.3816 3.2958 11.6709 3.0096 12.0203 2.66917Z" fill="#283942"/>
<path d="M2.67298 2.99446C2.67298 3.21439 2.66696 3.3831 2.67599 3.54879C2.68503 3.72654 2.6067 3.83499 2.43498 3.83499C2.28736 3.83499 2.2 3.74462 2.19397 3.57591C2.18192 3.19933 2.15481 2.82274 2.13372 2.44616C2.12167 2.22323 2.23012 2.11778 2.45306 2.12983C2.84169 2.15092 3.22731 2.17201 3.61594 2.19009C3.76959 2.19611 3.84189 2.30155 3.84189 2.42809C3.84189 2.57269 3.76356 2.67814 3.59184 2.67211C3.40807 2.6691 3.22128 2.67211 2.98931 2.67211C3.31769 3.00049 3.61896 3.30176 3.92323 3.60302C4.03771 3.7175 4.14918 3.83801 3.9865 3.99467C3.8208 4.15735 3.70933 4.02178 3.59787 3.91031C3.2966 3.6211 3.00136 3.32284 2.67298 2.99446Z" fill="#283942"/>
<path d="M12.0264 12.3245C11.695 11.9991 11.4028 11.7159 11.1166 11.4267C11.0051 11.3122 10.8273 11.1978 11.0051 11.014C11.1979 10.8152 11.3214 11.0019 11.4419 11.1224C11.7251 11.4026 12.0023 11.6858 12.3307 12.0172C12.3307 11.7882 12.3367 11.6105 12.3276 11.4328C12.3216 11.2671 12.403 11.1737 12.5536 11.1646C12.7042 11.1586 12.7976 11.2399 12.8066 11.4056C12.8247 11.7822 12.8458 12.1588 12.8669 12.5354C12.882 12.7794 12.7615 12.8698 12.5265 12.8728C12.1499 12.8758 11.7733 12.8427 11.3967 12.8095C11.228 12.7945 11.1497 12.6951 11.1557 12.5535C11.1617 12.4089 11.2551 12.3185 11.4238 12.3245C11.6046 12.3305 11.7823 12.3245 12.0264 12.3245Z" fill="#283942"/>
</g>
<defs>
<clipPath id="clip0_3229_811">
<rect width="15" height="15" fill="white"/>
</clipPath>
</defs>
</svg>
