<svg width="15" height="15" viewBox="0 0 15 15" fill="none" xmlns="http://www.w3.org/2000/svg">
<path d="M10.9594 13.8468C10.7706 13.7051 10.6505 13.6184 10.5332 13.5288C9.66076 12.8638 9.66076 12.8638 8.77686 13.5606C8.66816 13.6473 8.54516 13.7167 8.45362 13.815C8.25625 14.0289 8.11894 13.9682 7.91299 13.7947C7.56401 13.4998 7.28654 12.9245 6.8546 12.9737C6.48273 13.0142 6.15378 13.4825 5.80766 13.7629C5.71326 13.8381 5.62458 13.9191 5.52733 14C5.22411 13.6964 4.91804 13.3958 4.62341 13.0864C4.44319 12.8956 4.30303 12.9014 4.10851 13.0835C3.8053 13.3669 3.58218 13.9306 3.21032 13.8872C2.88422 13.8497 2.60389 13.3726 2.3207 13.0749C2.12904 12.8725 1.97744 12.9159 1.80295 13.0864C1.58269 13.3004 1.34526 13.497 1.11642 13.7022C0.939073 13.6097 1.01631 13.4507 1.01917 13.3322C1.02489 9.55647 1.03633 5.78078 1.05349 2.00219C1.05635 1.32858 1.31666 1.00478 1.89448 1.00478C4.99527 0.996106 8.09892 1.00189 11.2512 1.00189C10.9508 1.52806 10.9508 2.07157 10.9537 2.62376C10.9623 6.15661 10.9594 9.69235 10.9623 13.2252C10.9594 13.4044 10.9594 13.5866 10.9594 13.8468ZM5.78477 8.28442C6.96616 8.28442 8.14755 8.28731 9.32894 8.28152C9.48913 8.28152 9.71797 8.33356 9.71511 8.07337C9.71225 7.81318 9.48341 7.86811 9.32608 7.86811C6.98046 7.86521 4.63485 7.86811 2.28923 7.871C2.12332 7.871 1.9002 7.83341 1.9002 8.07915C1.9002 8.32778 2.12904 8.28152 2.29209 8.28442C3.45632 8.28731 4.62054 8.28442 5.78477 8.28442ZM5.78763 10.0306C4.64057 10.0306 3.49351 10.0277 2.34644 10.0335C2.17195 10.0335 1.90878 9.967 1.90306 10.2388C1.89734 10.5047 2.15479 10.4614 2.335 10.4614C4.64629 10.4614 6.95758 10.4643 9.26601 10.4614C9.44336 10.4614 9.69794 10.5279 9.70367 10.2474C9.70939 9.95544 9.44336 10.0364 9.27459 10.0364C8.11608 10.0277 6.95186 10.0306 5.78763 10.0306ZM4.29445 3.99122C4.94378 3.99122 5.59312 3.99411 6.24245 3.99122C6.41408 3.99122 6.62004 3.99122 6.61718 3.75127C6.61432 3.51131 6.41408 3.5142 6.23959 3.5142C4.92376 3.5142 3.60793 3.5142 2.29495 3.5142C2.12046 3.5142 1.90878 3.50842 1.89448 3.72814C1.87446 3.9999 2.11188 3.98833 2.29781 3.99122C2.96145 3.99411 3.62795 3.99122 4.29445 3.99122ZM4.29159 5.69404C3.62509 5.69404 2.95573 5.69404 2.28923 5.69404C2.1176 5.69404 1.9002 5.67959 1.90306 5.91376C1.90306 6.1595 2.13476 6.11903 2.29495 6.12192C3.61365 6.12481 4.93234 6.12481 6.25103 6.12192C6.3912 6.12192 6.59429 6.17396 6.60574 5.93978C6.61718 5.68248 6.4198 5.69694 6.24531 5.69694C5.59312 5.69404 4.94092 5.69404 4.29159 5.69404ZM8.69391 3.5142C8.43646 3.5142 8.18188 3.5142 7.92443 3.5142C7.7528 3.5142 7.60119 3.56624 7.60405 3.75994C7.60691 3.92473 7.74994 3.98544 7.89869 3.98544C8.41072 3.98833 8.92275 3.98833 9.43478 3.98544C9.58352 3.98544 9.72655 3.92473 9.72941 3.76283C9.73227 3.57202 9.58352 3.5142 9.40903 3.5142C9.17161 3.51709 8.93133 3.5142 8.69391 3.5142ZM8.65672 6.11903C8.92847 6.11903 9.20022 6.12192 9.47196 6.11903C9.59783 6.11614 9.71797 6.08144 9.71797 5.92244C9.71797 5.78078 9.62929 5.69694 9.49199 5.69694C8.94849 5.69115 8.405 5.69404 7.85864 5.69404C7.72419 5.69404 7.62408 5.75476 7.6155 5.9022C7.60405 6.09879 7.74994 6.11614 7.8901 6.11903C8.14755 6.12481 8.40213 6.12192 8.65672 6.11903Z" fill="#283942"/>
<path d="M13.1326 3.13267C13.1326 3.56632 13.124 3.99709 13.1355 4.43074C13.1412 4.65335 13.064 4.71407 12.8408 4.72852C11.4106 4.82103 11.4106 4.82682 11.4106 3.39864C11.4106 2.91295 11.3991 2.43014 11.4134 1.94445C11.4306 1.34311 11.7481 1.00486 12.2716 1.00197C12.7979 0.99908 13.1097 1.33733 13.124 1.94156C13.1326 2.34052 13.1269 2.73659 13.1269 3.13556C13.1297 3.13267 13.1297 3.13267 13.1326 3.13267Z" fill="#283942"/>
</svg>
