<svg width="15" height="15" viewBox="0 0 15 15" fill="none" xmlns="http://www.w3.org/2000/svg">
<g clip-path="url(#clip0_3230_828)">
<mask id="mask0_3230_828" style="mask-type:luminance" maskUnits="userSpaceOnUse" x="0" y="0" width="15" height="15">
<path d="M15 0H0V15H15V0Z" fill="white"/>
</mask>
<g mask="url(#mask0_3230_828)">
<path d="M7.69233 1.04668e-05C11.112 -0.00598889 14.1296 2.56774 14.6456 5.93338C14.6756 6.14935 14.7656 6.44932 14.4176 6.43132C14.0936 6.41333 13.6617 6.6893 13.4577 6.20335C13.3677 5.98137 13.3617 5.7234 13.2957 5.48942C12.6658 3.20967 10.656 1.51185 8.29827 1.26588C5.91652 1.0199 3.63676 2.24377 2.53888 4.36155C2.3529 4.71551 2.08293 5.09947 2.83885 5.08147C3.08482 5.07547 3.13282 5.27345 3.00683 5.47143C2.52688 6.20335 2.04693 6.92927 1.55499 7.64919C1.399 7.87717 1.21302 7.85317 1.09303 7.6012C0.739072 6.89328 0.38511 6.18535 0.0491459 5.46543C-0.0888394 5.16546 0.0791427 5.02747 0.361113 5.06947C0.85906 5.15946 0.997045 4.87149 1.15303 4.46953C2.19092 1.78782 4.81864 0.00600983 7.69233 1.04668e-05Z" fill="#283942"/>
<path d="M7.7229 3.85733C8.88078 3.85733 10.0387 3.86933 11.1965 3.85133C11.5805 3.84533 11.7125 3.95932 11.6345 4.34327C11.3825 5.63914 11.1425 6.935 10.9086 8.23686C10.8606 8.51283 10.7406 8.61482 10.4646 8.61482C9.04276 8.60882 7.62091 8.60282 6.19906 8.61482C5.8691 8.61482 5.80311 8.43484 5.74311 8.17087C5.56313 7.33696 5.32916 6.51504 5.17917 5.67513C5.09518 5.19518 4.8912 4.99721 4.41725 5.0752C3.86531 5.16519 3.60134 4.99121 3.65533 4.36727C3.68533 3.97131 3.78732 3.83933 4.18928 3.85133C5.36515 3.86933 6.54103 3.85733 7.7229 3.85733ZM7.05697 5.0812C6.95498 5.0812 6.85899 5.0812 6.757 5.0812C6.57702 5.0872 6.36705 5.0572 6.36705 5.32717C6.36705 5.56714 6.52903 5.62714 6.72701 5.62714C6.94898 5.62714 7.17096 5.62714 7.38694 5.62114C7.56092 5.61514 7.7109 5.56714 7.7169 5.35717C7.7229 5.14719 7.59691 5.0752 7.41093 5.0752C7.29695 5.0752 7.17696 5.0812 7.05697 5.0812ZM9.5947 5.0572C9.40872 5.17719 8.97077 4.88922 8.97077 5.35117C8.97077 5.74713 9.35473 5.60314 9.5887 5.60914C9.82268 5.61514 10.1826 5.74113 10.1826 5.32717C10.1826 4.93121 9.82868 5.13519 9.5947 5.0572ZM7.26695 7.38495C7.45893 7.37895 7.7049 7.43295 7.7169 7.13298C7.7349 6.79101 7.45893 6.83301 7.24895 6.83901C7.04497 6.84501 6.751 6.76702 6.763 7.10898C6.775 7.41495 7.03897 7.39695 7.26695 7.38495ZM9.42672 7.38495C9.6307 7.39695 9.88867 7.39095 9.87067 7.07898C9.85867 6.79101 9.5947 6.84501 9.39672 6.83901C9.19274 6.83301 8.95277 6.82701 8.95277 7.11498C8.95277 7.40895 9.19274 7.38495 9.42672 7.38495Z" fill="#283942"/>
<path d="M8.02076 14.0628C4.70911 14.0688 1.96741 12.107 1.03151 9.26931C0.965517 9.07133 0.671548 8.69937 1.1155 8.63937C1.45746 8.59138 1.94341 8.3634 2.18338 8.88535C2.29737 9.12532 2.36936 9.3773 2.48935 9.61727C4.37915 13.4089 9.59259 13.9668 12.2203 10.6612C12.4243 10.4032 12.8562 10.0492 12.0643 9.95923C11.8003 9.92924 11.8483 9.71326 11.9863 9.54528C12.5862 8.83135 13.1862 8.11143 13.7921 7.39751C13.9661 7.19353 14.1581 7.18153 14.2541 7.4575C14.494 8.17142 14.71 8.89135 14.926 9.60527C15.004 9.86924 14.878 10.0132 14.614 9.96523C14.1521 9.88124 13.9961 10.1692 13.7921 10.5052C12.4183 12.7969 10.3665 13.9488 8.02076 14.0628Z" fill="#283942"/>
<path d="M7.54293 9.5991C7.48293 9.97106 7.29095 10.217 6.901 10.193C6.51704 10.169 6.31906 9.91707 6.33706 9.54511C6.35505 9.19114 6.58904 8.99316 6.931 8.99316C7.32096 8.99316 7.50093 9.24514 7.54293 9.5991Z" fill="#283942"/>
<path d="M9.70742 10.2052C9.34746 10.1392 9.13148 9.9292 9.14948 9.54525C9.17348 9.19128 9.39545 8.9873 9.74342 8.9873C10.1214 8.9933 10.3553 9.23328 10.3433 9.60524C10.3373 9.9772 10.0974 10.1812 9.70742 10.2052Z" fill="#283942"/>
</g>
</g>
<defs>
<clipPath id="clip0_3230_828">
<rect width="15" height="15" fill="white"/>
</clipPath>
</defs>
</svg>
