<svg width="15" height="15" viewBox="0 0 15 15" fill="none" xmlns="http://www.w3.org/2000/svg">
<g clip-path="url(#clip0_3226_773)">
<mask id="mask0_3226_773" style="mask-type:luminance" maskUnits="userSpaceOnUse" x="0" y="0" width="15" height="15">
<path d="M15 0H0V15H15V0Z" fill="white"/>
</mask>
<g mask="url(#mask0_3226_773)">
<path d="M3.92704 6.93669C3.84101 7.61714 3.75498 8.27412 3.66112 8.92328C3.64548 9.02495 3.72369 9.0797 3.77062 9.15009C4.26335 9.84618 4.76391 10.5423 5.25665 11.2305C5.35832 11.3635 5.42089 11.5121 5.46 11.6763C5.6477 12.4897 5.84323 13.3031 6.03876 14.1165C6.14044 14.5389 5.95273 14.883 5.58514 14.9769C5.19408 15.0707 4.87341 14.8596 4.76391 14.4138C4.59184 13.6942 4.41196 12.9747 4.24771 12.2551C4.20861 12.0752 4.13039 11.911 4.0209 11.7624C3.73151 11.3635 3.44995 10.9646 3.12146 10.511C2.98068 11.0976 2.85554 11.6216 2.72258 12.1378C2.69129 12.2551 2.66783 12.3802 2.60526 12.4819C2.14381 13.2171 1.67454 13.9523 1.20527 14.6875C1.08013 14.883 0.892421 14.9847 0.657785 14.9925C0.133765 15.0003 -0.171261 14.445 0.102481 13.9836C0.368401 13.5456 0.634322 13.0998 0.931527 12.6853C1.30694 12.1612 1.5494 11.5825 1.66672 10.949C1.74493 10.5188 1.86225 10.1043 1.96392 9.68193C2.03431 9.40037 2.07342 9.13445 1.97957 8.82942C1.87007 8.454 2.02649 8.0473 2.07342 7.64842C2.15945 6.85848 2.27677 6.06072 2.3628 5.27078C2.40191 4.89536 2.56616 4.60598 2.84772 4.37916C3.05889 4.2071 3.38738 4.16799 3.59855 4.33224C3.84101 4.51212 4.06782 4.7233 4.11475 5.05961C4.13039 5.17693 4.17732 5.27078 4.24771 5.36463C4.56056 5.82608 4.87341 6.28753 5.17843 6.74898C5.24882 6.85066 5.32704 6.90541 5.43653 6.94451C5.89798 7.07747 6.35161 7.2339 6.80524 7.36686C7.09462 7.45289 7.25105 7.62496 7.25887 7.92216C7.25887 7.99255 7.26669 8.05512 7.32926 8.10987C7.64993 8.37579 7.96278 8.64171 8.43205 8.5635C8.96389 8.46965 9.51137 8.53222 10.0432 8.52439C10.7784 8.51657 11.5058 8.50093 12.241 8.53222C13.0074 8.5635 13.7739 8.55568 14.5404 8.5635C14.8298 8.5635 14.9158 8.70428 14.7907 8.9702C14.1884 10.1747 13.5862 11.387 12.9918 12.5914C12.9058 12.7635 12.7885 12.8026 12.6164 12.8026C11.2086 12.7948 9.79294 12.7948 8.38512 12.8026C8.14266 12.8026 8.04099 12.7009 8.01752 12.4741C7.89239 11.3557 7.76725 10.2451 7.64211 9.12663C7.62647 8.9702 7.57172 8.86853 7.44658 8.78249C7.21194 8.60261 7.01641 8.34451 6.65664 8.44618C6.57843 8.46965 6.46893 8.4149 6.3829 8.38361C6.07005 8.28976 5.77284 8.16462 5.46 8.10205C4.82648 7.98473 4.34939 7.67971 4.07565 7.0853C4.06 7.04619 4.02872 7.01491 3.99743 6.98362C3.98961 6.96798 3.97397 6.96016 3.92704 6.93669ZM14.2197 9.00931C13.727 9.00931 13.2499 9.00149 12.765 9.01713C12.5695 9.02495 12.6711 9.20484 12.6555 9.30651C12.6398 9.40819 12.6398 9.51769 12.8041 9.51769C13.0857 9.50987 13.3594 9.51769 13.641 9.51769C14.0711 9.50987 14.1024 9.4864 14.2197 9.00931ZM12.8041 11.8953C12.6868 11.8562 12.6398 11.9031 12.6555 11.9814C12.6868 12.2004 12.5538 12.2082 12.3896 12.2082C11.2086 12.2004 10.0276 12.2004 8.83875 12.2082C8.67451 12.2082 8.53372 12.216 8.58065 11.9892C8.58847 11.9344 8.57283 11.8797 8.50244 11.8797C8.46333 11.8797 8.43987 11.8953 8.42423 11.9344C8.33819 12.13 8.4868 12.3568 8.69797 12.3568C9.86333 12.3568 11.0287 12.3568 12.194 12.3568C12.6477 12.3568 12.6477 12.3568 12.8041 11.8953ZM13.7426 9.95567C13.4454 9.95567 13.156 9.96349 12.8588 9.95567C12.679 9.94785 12.6477 10.0182 12.6398 10.1747C12.6242 10.4171 12.7102 10.5032 12.9449 10.4719C13.0231 10.464 13.1013 10.4719 13.1795 10.4719C13.6019 10.4719 13.6488 10.4328 13.7426 9.95567ZM13.2734 10.9099C13.1091 10.9099 12.9449 10.902 12.7885 10.9099C12.5616 10.9255 12.6711 11.0976 12.6555 11.2071C12.6398 11.3009 12.6164 11.4104 12.7885 11.4261C13.07 11.4417 13.1795 11.3478 13.2734 10.9099ZM8.58065 9.25959C8.61976 9.07188 8.54937 8.97802 8.35384 9.00931C8.25216 9.02495 8.08009 8.93892 8.11138 9.16573C8.13484 9.32216 8.06445 9.52551 8.35384 9.51769C8.55719 9.51769 8.61194 9.43947 8.58065 9.25959ZM8.58065 10.2216C8.56501 10.1121 8.65104 9.93221 8.40076 9.95567C8.29909 9.96349 8.16613 9.93221 8.20523 10.1043C8.23652 10.2372 8.12702 10.4562 8.40858 10.4719C8.61976 10.4797 8.58065 10.3467 8.58065 10.2216ZM8.58847 11.1758C8.55719 11.0741 8.65886 10.9099 8.43987 10.9099C8.30691 10.9099 8.29909 10.9959 8.32255 11.0819C8.35384 11.1992 8.25216 11.3948 8.46333 11.4104C8.66668 11.4339 8.54155 11.254 8.58847 11.1758Z" fill="#283942"/>
<path d="M10.5644 5.34894C10.0873 5.34894 9.61018 5.34112 9.12527 5.34894C8.9532 5.34894 8.88281 5.30984 8.88281 5.12213C8.89063 4.30091 8.89063 3.4875 8.88281 2.66628C8.88281 2.47857 8.93756 2.43164 9.11745 2.43164C10.0638 2.43946 11.018 2.43946 11.9644 2.43164C12.1365 2.43164 12.2147 2.47075 12.2068 2.65846C12.199 3.47968 12.199 4.29308 12.2068 5.11431C12.2068 5.30202 12.1443 5.34894 11.9644 5.34894C11.5029 5.34112 11.0337 5.34894 10.5644 5.34894Z" fill="#283942"/>
<path d="M11.5642 5.47374C11.9709 5.47374 12.3776 5.48156 12.7921 5.47374C12.9486 5.47374 13.0268 5.50503 13.0268 5.68492C13.0189 6.52178 13.0189 7.35083 13.0268 8.1877C13.0268 8.32848 12.9877 8.38323 12.8312 8.38323C11.9787 8.37541 11.1262 8.37541 10.2737 8.38323C10.1329 8.38323 10.1016 8.32848 10.1016 8.19552C10.1016 7.35083 10.1095 6.50614 10.1016 5.66927C10.1016 5.49721 10.172 5.46592 10.3206 5.47374C10.7273 5.47374 11.1497 5.47374 11.5642 5.47374Z" fill="#283942"/>
<path d="M5.46394 2.92443C5.45612 3.67526 4.86953 4.26968 4.11869 4.26968C3.36004 4.26968 2.75781 3.66744 2.75781 2.91661C2.76563 2.16577 3.3835 1.56354 4.12651 1.57136C4.88517 1.57919 5.46394 2.18142 5.46394 2.92443Z" fill="#283942"/>
<path d="M9.93954 6.91273C9.93954 7.33508 9.93172 7.76524 9.93954 8.18759C9.93954 8.33619 9.89261 8.38312 9.74401 8.38312C9.26691 8.37529 8.78982 8.37529 8.31273 8.38312C8.17195 8.38312 8.10938 8.34401 8.10938 8.19541C8.11719 7.35072 8.11719 6.50603 8.10938 5.66916C8.10938 5.52056 8.16412 5.47363 8.3049 5.47363C8.78199 5.48145 9.25909 5.48145 9.73619 5.47363C9.90825 5.47363 9.93172 5.54402 9.93172 5.69263C9.93172 6.09151 9.93954 6.50603 9.93954 6.91273Z" fill="#283942"/>
<path d="M9.80684 0.9375C10.1509 0.9375 10.5029 0.945321 10.847 0.9375C10.9956 0.9375 11.0425 0.984427 11.0425 1.13303C11.0347 1.46152 11.0347 1.79001 11.0425 2.12632C11.0425 2.25928 10.9956 2.30621 10.8627 2.30621C10.1431 2.29839 9.42361 2.30621 8.70406 2.30621C8.5711 2.30621 8.51635 2.25928 8.52417 2.12632C8.53199 1.79783 8.53199 1.46934 8.52417 1.13303C8.52417 0.984427 8.5711 0.9375 8.7197 0.9375C9.07947 0.945321 9.43925 0.9375 9.80684 0.9375Z" fill="#283942"/>
<path d="M12.4932 14.5702C12.0239 14.5702 11.6641 14.2182 11.6641 13.749C11.6641 13.2875 12.0239 12.9199 12.4853 12.9199C12.939 12.9199 13.3144 13.2953 13.3144 13.749C13.3222 14.2026 12.9546 14.5702 12.4932 14.5702ZM12.4932 14.1244C12.6965 14.1244 12.8686 13.9367 12.8608 13.7333C12.8529 13.5378 12.6887 13.3657 12.4932 13.3657C12.2898 13.3579 12.1099 13.5378 12.1099 13.7411C12.1177 13.9445 12.2976 14.1244 12.4932 14.1244Z" fill="#283942"/>
<path d="M8.43856 14.5703C7.97711 14.5703 7.60169 14.2105 7.59387 13.7569C7.58605 13.3111 7.96929 12.92 8.42292 12.92C8.87655 12.9122 9.25196 13.2876 9.25979 13.7413C9.26761 14.2027 8.90783 14.5625 8.43856 14.5703ZM8.05532 13.7491C8.06314 13.9524 8.25085 14.1323 8.44638 14.1245C8.64973 14.1167 8.8218 13.929 8.80616 13.7256C8.79834 13.5301 8.61845 13.3659 8.43074 13.3659C8.23521 13.358 8.0475 13.5457 8.05532 13.7491Z" fill="#283942"/>
</g>
</g>
<defs>
<clipPath id="clip0_3226_773">
<rect width="15" height="15" fill="white"/>
</clipPath>
</defs>
</svg>
