<svg width="15" height="13" viewBox="0 0 15 13" fill="none" xmlns="http://www.w3.org/2000/svg">
<path d="M14.2086 5.74835C13.5983 5.74676 12.988 5.742 12.3792 5.74676C12.2714 5.74676 12.2397 5.72139 12.2413 5.61042C12.2444 4.1012 12.2429 2.59039 12.2444 1.08117C12.2444 0.602404 12.506 0.218758 12.9166 0.0855909C13.4572 -0.088794 14.0105 0.202904 14.1769 0.746668C14.1849 0.773619 14.1658 0.814837 14.2118 0.827519C14.2086 2.46832 14.2086 4.10913 14.2086 5.74835Z" fill="#066FC7"/>
<path d="M8.55688 12.9999C8.48079 12.9999 8.43164 12.9999 8.38091 12.9999C6.06476 12.9999 3.74862 12.9999 1.43247 12.9999C0.674685 12.9999 0.042144 12.4165 0.00885229 11.6619C-0.0085862 11.2497 0.00568272 10.8375 0.00251209 10.4253C0.00251209 10.3619 0.0167798 10.3286 0.0865337 10.3381C0.108728 10.3413 0.132508 10.3381 0.156288 10.3381C2.71658 10.3381 5.27845 10.3397 7.83873 10.335C7.96397 10.335 7.99727 10.3635 7.99727 10.4919C7.99885 10.9263 7.96873 11.3622 8.01471 11.7966C8.06068 12.2215 8.22555 12.5956 8.5014 12.9222C8.51567 12.9396 8.52835 12.9602 8.55688 12.9999Z" fill="#066FC7"/>
<path d="M11.8417 0.000396387C8.9517 0.000396387 6.06326 -0.00118905 3.17322 0.00198159C2.96713 0.00198159 2.77214 0.0542971 2.60409 0.182708C2.33459 0.387214 2.23789 0.66623 2.2363 0.99439C2.21728 3.84321 2.19825 6.69202 2.17289 9.54084C2.1713 9.66608 2.2252 9.66925 2.31874 9.66925C4.29721 9.66766 6.27569 9.66766 8.25416 9.66766C8.54269 9.66766 8.66793 9.78973 8.66793 10.0767C8.66952 10.5348 8.66635 10.9946 8.66793 11.4527C8.66952 11.7428 8.72976 12.0171 8.87402 12.2755C9.24816 12.9445 10.1454 13.2029 10.8065 12.8224C11.3154 12.5292 11.5675 12.0837 11.5691 11.5003C11.5722 8.03954 11.5706 4.58038 11.5706 1.11963C11.5706 1.02293 11.5738 0.924636 11.5833 0.827932C11.6119 0.533063 11.726 0.268315 11.9052 0.0130789C11.8671 0.00515233 11.8544 0.000396387 11.8417 0.000396387ZM8.62354 1.01976C8.65525 0.961099 8.70122 0.915125 8.7583 0.883418C8.81695 0.851712 8.88195 0.835859 8.95804 0.835859C9.05316 0.835859 9.13402 0.861224 9.19901 0.911954C9.26401 0.962684 9.30523 1.03244 9.32584 1.12439H9.07694C9.05633 1.06573 9.01512 1.03719 8.95488 1.03719C8.91207 1.03719 8.87719 1.05463 8.85183 1.08792C8.82646 1.12122 8.81378 1.16878 8.81378 1.2306C8.81378 1.29243 8.82646 1.33999 8.85183 1.37328C8.87719 1.40657 8.91207 1.42401 8.95488 1.42401C9.01512 1.42401 9.05633 1.39548 9.07694 1.33682H9.32584C9.30523 1.4256 9.26401 1.49694 9.19901 1.54767C9.13402 1.5984 9.05475 1.62376 8.95963 1.62376C8.88512 1.62376 8.81854 1.60791 8.75988 1.5762C8.70122 1.5445 8.65684 1.49852 8.62513 1.43986C8.59342 1.38121 8.57598 1.31145 8.57598 1.23219C8.57598 1.14817 8.59184 1.07841 8.62354 1.01976ZM8.23514 0.548916C8.26051 0.525136 8.29538 0.512454 8.33502 0.512454C8.37465 0.512454 8.40794 0.525136 8.43489 0.548916C8.46025 0.572696 8.47452 0.602817 8.47452 0.639279C8.47452 0.674156 8.46184 0.704277 8.43489 0.729642C8.40952 0.753422 8.37623 0.766105 8.33502 0.766105C8.2938 0.766105 8.26051 0.753422 8.23514 0.729642C8.20977 0.705863 8.19551 0.675742 8.19551 0.639279C8.19709 0.602817 8.20977 0.572696 8.23514 0.548916ZM8.45233 0.845371V1.60949H8.2177V0.845371H8.45233ZM7.35212 1.01976C7.387 0.959513 7.43456 0.913539 7.4948 0.881833C7.55504 0.850126 7.62321 0.834273 7.69772 0.834273C7.77223 0.834273 7.8404 0.850126 7.90064 0.881833C7.96088 0.913539 8.00844 0.959513 8.04332 1.01976C8.07819 1.08 8.09563 1.14817 8.09563 1.22743C8.09563 1.3067 8.07819 1.37487 8.04332 1.43511C8.00844 1.49535 7.96088 1.54132 7.89905 1.57303C7.83881 1.60474 7.77064 1.62059 7.69613 1.62059C7.62162 1.62059 7.55345 1.60474 7.4948 1.57303C7.43456 1.54132 7.38858 1.49535 7.3537 1.43669C7.31883 1.37804 7.30297 1.30828 7.30297 1.22902C7.2998 1.14817 7.31724 1.08 7.35212 1.01976ZM6.66726 0.845371L6.83214 1.39072L6.99701 0.845371H7.2459L6.97481 1.60949H6.68628L6.4152 0.845371H6.66726ZM5.56705 0.845371H5.80168V0.946831C5.82546 0.913539 5.85716 0.886589 5.8968 0.86598C5.93643 0.846956 5.9824 0.835859 6.03155 0.835859C6.12033 0.835859 6.19167 0.864394 6.24557 0.923051C6.29947 0.981708 6.32642 1.06097 6.32642 1.16243V1.60949H6.09338V1.19414C6.09338 1.14341 6.08069 1.10378 6.05374 1.07524C6.02679 1.04671 5.99192 1.03244 5.94753 1.03244C5.90314 1.03244 5.86668 1.04671 5.84131 1.07524C5.81436 1.10378 5.80168 1.14341 5.80168 1.19414V1.60949H5.56705V0.845371ZM5.16279 0.648791H5.39742V1.60949H5.16279V0.648791ZM4.35428 1.03085H4.9567V1.22585H4.35428V1.03085ZM3.62821 0.648791H4.21636V0.835859H3.86125V1.03085H4.17514V1.21158H3.86125V1.42243H4.21636V1.60949H3.62821V0.648791ZM3.70747 2.35142C4.24807 2.34825 4.78866 2.34984 5.32925 2.34984C5.86509 2.34984 6.40093 2.34984 6.93676 2.34984C7.08737 2.34984 7.18725 2.43069 7.24749 2.56227C7.30456 2.68592 7.27285 2.79848 7.19042 2.89677C7.12225 2.97921 7.03347 3.0236 6.92567 3.0236C5.85399 3.0236 4.78232 3.02518 3.71065 3.02201C3.51882 3.02201 3.36029 2.85714 3.36504 2.678C3.36663 2.50203 3.51407 2.35301 3.70747 2.35142ZM3.37614 5.05597C3.41261 4.91329 3.52675 4.81342 3.66626 4.79915C3.70747 4.7944 3.74869 4.7944 3.7915 4.7944C5.74302 4.7944 7.69296 4.7944 9.64449 4.79281C9.80777 4.79281 9.94728 4.82452 10.0313 4.97988C10.1518 5.20182 9.98533 5.46657 9.71424 5.47133C9.41303 5.47608 9.11341 5.47291 8.8122 5.47291C8.1099 5.47291 7.40602 5.47291 6.70372 5.47291C5.72875 5.47291 4.7522 5.47291 3.77723 5.47291C3.67735 5.47291 3.58382 5.4634 3.50455 5.39682C3.39675 5.30804 3.33968 5.19865 3.37614 5.05597ZM10.0709 7.59724C10.0583 7.73675 9.95045 7.86516 9.80777 7.90162C9.75546 7.9143 9.69839 7.91747 9.6429 7.91747C7.69138 7.91747 5.74144 7.91747 3.78991 7.91906C3.64406 7.91906 3.51565 7.89369 3.42687 7.7637C3.28261 7.55126 3.40943 7.27542 3.66467 7.2453C3.72016 7.23896 3.77564 7.23896 3.83113 7.23896C4.79342 7.23896 5.75412 7.23896 6.71641 7.23896C7.68662 7.23896 8.65842 7.23896 9.62864 7.23896C9.71107 7.23896 9.79509 7.23103 9.87277 7.27225C9.9996 7.33725 10.082 7.47358 10.0709 7.59724ZM10.1661 1.28292H9.63656C9.63973 1.33048 9.65559 1.36694 9.68254 1.39231C9.70949 1.41767 9.74278 1.43035 9.78241 1.43035C9.84107 1.43035 9.8807 1.40499 9.90448 1.35584H10.1534C10.1407 1.40657 10.1169 1.45096 10.0836 1.49059C10.0503 1.53023 10.0091 1.56193 9.95838 1.58571C9.90765 1.60791 9.85216 1.62059 9.79034 1.62059C9.71583 1.62059 9.64924 1.60474 9.59059 1.57303C9.53193 1.54132 9.48596 1.49535 9.45425 1.43669C9.42096 1.37804 9.40511 1.30828 9.40511 1.22902C9.40511 1.14975 9.42096 1.08 9.45425 1.02134C9.48596 0.962684 9.53193 0.91671 9.59059 0.885004C9.64924 0.853297 9.71583 0.837444 9.79192 0.837444C9.86643 0.837444 9.93143 0.853297 9.9885 0.883418C10.0456 0.915125 10.0915 0.957928 10.1233 1.01658C10.155 1.07366 10.1724 1.14182 10.1724 1.21792C10.1708 1.23694 10.1692 1.25914 10.1661 1.28292Z" fill="#066FC7"/>
<path d="M9.78733 1.02148C9.74769 1.02148 9.7144 1.03258 9.68745 1.05636C9.6605 1.07856 9.64465 1.11185 9.63672 1.15307H9.93C9.93 1.11343 9.91574 1.08173 9.88879 1.05795C9.86342 1.03417 9.82854 1.02148 9.78733 1.02148Z" fill="#066FC7"/>
<path d="M7.69442 1.41759C7.73881 1.41759 7.77686 1.40173 7.80857 1.36844C7.84027 1.33515 7.85613 1.28917 7.85613 1.22735C7.85613 1.16552 7.84027 1.11955 7.81015 1.08625C7.78003 1.05296 7.74198 1.03711 7.69759 1.03711C7.65162 1.03711 7.61357 1.05296 7.58345 1.08625C7.55333 1.11796 7.53906 1.16552 7.53906 1.22735C7.53906 1.28917 7.55333 1.33515 7.58345 1.36844C7.61199 1.40173 7.64845 1.41759 7.69442 1.41759Z" fill="#066FC7"/>
</svg>
