<svg width="12" height="13" viewBox="0 0 12 13" fill="none" xmlns="http://www.w3.org/2000/svg">
<g clip-path="url(#clip0_180_2)">
<path d="M1.44933 0.00786672C1.78506 0.107575 2.06904 0.27544 2.25205 0.588449C2.35429 0.762624 2.41865 0.950682 2.41992 1.15136C2.42244 3.06728 2.42118 4.98321 2.42118 6.89913C2.42118 6.90796 2.41865 6.91806 2.41739 6.9269C2.35429 6.94961 2.28865 6.9534 2.22302 6.9534C1.64749 6.95214 1.07069 6.9534 0.495159 6.95214C0.196033 6.95214 0.00545043 6.76787 0.0041883 6.47C0.00166403 4.76991 -0.00212238 3.06981 0.00545043 1.37097C0.00923684 0.553109 0.652926 -0.0426187 1.44933 0.00786672Z" fill="#175739"/>
<path d="M8.62857 1.76556C8.62857 1.73653 8.61847 1.71381 8.59954 1.69614C8.58061 1.67973 8.55284 1.6709 8.51876 1.6709H8.37109V1.85517H8.52129C8.55537 1.85517 8.58187 1.8476 8.6008 1.83245C8.61973 1.81731 8.62857 1.79459 8.62857 1.76556Z" fill="#1DB261"/>
<path d="M6.67094 1.85257C6.71133 1.85257 6.74541 1.83742 6.77317 1.80839C6.8022 1.77937 6.81609 1.73898 6.81609 1.68849C6.81609 1.63801 6.8022 1.59762 6.77444 1.56859C6.74667 1.53956 6.71259 1.52441 6.6722 1.52441C6.63182 1.52441 6.59774 1.5383 6.56997 1.56733C6.5422 1.59636 6.52832 1.63548 6.52832 1.68723C6.52832 1.73772 6.5422 1.7781 6.56997 1.80839C6.59648 1.83742 6.63055 1.85257 6.67094 1.85257Z" fill="#1DB261"/>
<path d="M8.58158 1.50037C8.59925 1.48523 8.60809 1.46377 8.60809 1.43601C8.60809 1.40698 8.59925 1.38552 8.58158 1.37037C8.56391 1.35523 8.53867 1.34766 8.50459 1.34766H8.37207V1.52183H8.50459C8.53741 1.52309 8.56391 1.51552 8.58158 1.50037Z" fill="#1DB261"/>
<path d="M11.7949 3.52525C11.7949 3.2034 11.7583 2.88534 11.6713 2.5736C11.2447 1.02874 9.90048 0.00514951 8.27737 0.00262524C6.03835 -0.0024233 3.80058 0.00136311 1.56155 0.00136311C1.52368 0.00136311 1.48708 0.00514951 1.44922 0.00767379C1.78495 0.107383 2.06893 0.275247 2.25194 0.588256C2.35417 0.762431 2.41854 0.950489 2.4198 1.15117C2.42233 3.06709 2.42106 4.98301 2.42106 6.89894C2.42106 6.90777 2.41854 6.91787 2.41728 6.9267C2.41854 6.98855 2.42106 7.04913 2.42106 7.11098C2.42106 8.67476 2.4198 10.2373 2.42233 11.8011C2.42233 12.3413 2.78834 12.7653 3.3197 12.8587C3.64029 12.9143 3.91165 12.7982 4.17291 12.6353C4.7131 12.2984 5.25708 12.3009 5.80106 12.6265C6.68582 13.1566 7.56679 13.1541 8.44271 12.6051C8.65097 12.4738 8.87436 12.4044 9.12174 12.3867C9.50922 12.3577 9.83359 12.5041 10.1592 12.6959C10.9342 13.1516 11.7949 12.6467 11.7949 11.7468C11.7962 9.00418 11.7962 6.26534 11.7949 3.52525ZM9.30223 1.14107H9.50543V2.01952H9.30223V1.14107ZM8.9665 1.09942C8.98922 1.07797 9.01825 1.06787 9.05359 1.06787C9.08893 1.06787 9.1167 1.07797 9.13941 1.09942C9.16213 1.12088 9.17349 1.14612 9.17349 1.17894C9.17349 1.20923 9.16213 1.23573 9.13941 1.25719C9.1167 1.27864 9.08767 1.28874 9.05359 1.28874C9.01825 1.28874 8.98922 1.27864 8.9665 1.25719C8.94378 1.23573 8.93242 1.21049 8.93242 1.17894C8.93242 1.14738 8.94378 1.12088 8.9665 1.09942ZM9.15456 1.3569V2.01952H8.95135V1.3569H9.15456ZM8.16883 1.18651H8.54369C8.62825 1.18651 8.69514 1.20544 8.7431 1.24457C8.79106 1.28369 8.81504 1.33544 8.81504 1.40233C8.81504 1.45156 8.80242 1.49195 8.77592 1.52476C8.75068 1.55758 8.71534 1.5803 8.67369 1.59292C8.72165 1.60301 8.76077 1.62699 8.7898 1.66486C8.81883 1.70272 8.83398 1.74564 8.83398 1.7936C8.83398 1.86301 8.81 1.91855 8.76077 1.95894C8.71155 1.99932 8.64339 2.01952 8.55631 2.01952H8.16757V1.18651H8.16883ZM7.31815 1.3569L7.47087 1.77088L7.62233 1.3569H7.84194L7.42669 2.33505H7.20835L7.3598 1.99806L7.0897 1.35816H7.31815V1.3569ZM6.35767 1.50835C6.38291 1.45661 6.41825 1.41748 6.46242 1.38971C6.5066 1.36195 6.55582 1.34806 6.61135 1.34806C6.65805 1.34806 6.69844 1.35816 6.73378 1.37709C6.76912 1.39602 6.79563 1.42127 6.81456 1.45156V1.35816H7.01776V2.01952H6.81582V1.92612C6.79563 1.95641 6.76912 1.98165 6.73378 2.00059C6.69844 2.01952 6.65805 2.02962 6.61135 2.02962C6.55708 2.02962 6.50786 2.01573 6.46368 1.98797C6.41951 1.9602 6.38417 1.91981 6.35893 1.86806C6.33369 1.81631 6.3198 1.75573 6.3198 1.68758C6.31854 1.61942 6.33242 1.55884 6.35767 1.50835ZM5.28359 1.18651L5.40349 1.7936L5.55242 1.18651H5.77582L5.91844 1.7936L6.03961 1.18651H6.25796L6.03961 2.01952H5.79349L5.66097 1.47049L5.52339 2.01952H5.27728L5.06524 1.18651H5.28359ZM4.28902 1.34932H3.98106V1.51845H4.25368V1.67496H3.98106V1.85797H4.28902V2.01952H3.77786V1.18651H4.28902V1.34932ZM4.40893 1.51845H4.93145V1.68758H4.40893V1.51845ZM4.7131 3.11884C4.80271 3.04942 4.90621 3.02039 5.01728 3.02039C6.40941 3.02039 7.80155 3.01913 9.19368 3.02165C9.47893 3.02165 9.68339 3.22233 9.67834 3.4836C9.6733 3.73981 9.47262 3.92534 9.19242 3.92534C8.49446 3.92661 7.79524 3.92534 7.09728 3.92534C6.39427 3.92534 5.69126 3.92661 4.98825 3.92408C4.78378 3.92282 4.62097 3.79913 4.56165 3.6136C4.50233 3.43563 4.56417 3.23369 4.7131 3.11884ZM7.3699 8.7669C6.59116 8.76816 5.81368 8.76816 5.03495 8.7669C4.74339 8.7669 4.54398 8.58389 4.54145 8.31884C4.53893 8.04622 4.73835 7.86068 5.03747 7.86068C5.42873 7.85942 5.82 7.86068 6.21126 7.86068C6.59747 7.86068 6.98495 7.85942 7.37116 7.86068C7.6564 7.86195 7.86213 8.05379 7.86087 8.31505C7.86213 8.57631 7.6564 8.76564 7.3699 8.7669ZM9.4499 6.28554C9.38301 6.32466 9.3098 6.34738 9.23534 6.34738C7.81543 6.34865 6.39427 6.35117 4.97436 6.34486C4.75475 6.3436 4.57805 6.17447 4.5465 5.97884C4.51242 5.76301 4.61592 5.56486 4.80776 5.47903C4.88854 5.44243 4.9731 5.44369 5.05767 5.44369C5.74174 5.44369 6.42582 5.44369 7.1099 5.44369C7.81291 5.44369 8.51592 5.44243 9.21893 5.44496C9.44106 5.44622 9.60767 5.57874 9.6632 5.78826C9.71242 5.97631 9.62407 6.18331 9.4499 6.28554ZM9.85504 2.01952H9.65184V1.14107H9.85504V2.01952Z" fill="#00B24C"/>
</g>
<defs>
<clipPath id="clip0_180_2">
<rect width="11.9903" height="13" fill="white"/>
</clipPath>
</defs>
</svg>
