<svg width="15" height="15" viewBox="0 0 15 15" fill="none" xmlns="http://www.w3.org/2000/svg">
<mask id="mask0_3226_747" style="mask-type:luminance" maskUnits="userSpaceOnUse" x="0" y="1" width="15" height="13">
<path d="M15 1H0V14H15V1Z" fill="white"/>
</mask>
<g mask="url(#mask0_3226_747)">
<path d="M7.58458 11.0278C7.11244 11.0278 6.66657 11.0278 6.22069 11.0278C4.36578 11.0288 2.51088 11.0302 0.655972 11.0307C0.306364 11.0307 0.0802007 10.859 0.0134112 10.5419C0.00373823 10.4971 0.00189576 10.4497 0.00189576 10.4039C0.000974529 7.64926 0.000974529 4.89463 0.000974529 2.13951C0.000974529 1.97268 -0.00086794 1.80634 0.000513912 1.63951C0.00465947 1.25756 0.247405 1.00146 0.611292 1.00098C1.5551 0.999512 2.49936 1.00049 3.44317 1.00049C5.15528 1 6.86786 1 8.57997 1C8.61267 1 8.64538 1 8.67808 1C8.679 1.00634 8.68038 1.01268 8.68131 1.01902C8.62833 1.03171 8.5749 1.0439 8.52193 1.05756C7.80061 1.24293 7.14699 1.5761 6.56799 2.06829C6.50351 2.12292 6.4404 2.14439 6.35933 2.14439C4.6767 2.14195 2.99407 2.14146 1.31097 2.14097C1.11521 2.14097 1.07606 2.18244 1.07606 2.39219C1.07606 4.81024 1.07606 7.22828 1.07606 9.64584C1.07606 9.8512 1.10646 9.8834 1.29623 9.8834C2.85864 9.8834 4.42106 9.88389 5.98301 9.88193C6.05348 9.88193 6.10461 9.8995 6.15482 9.95364C6.55602 10.3863 7.02216 10.7229 7.53621 10.9863C7.54542 10.9912 7.55233 11.0005 7.58458 11.0278Z" fill="#283942"/>
<path d="M3.82812 13.1771C3.82812 12.9317 3.82812 12.6932 3.82812 12.4449C4.198 12.4449 4.56235 12.4449 4.90874 12.4449C4.9981 12.1805 5.07963 11.9298 5.16714 11.6815C5.23992 11.4742 5.36105 11.3825 5.59366 11.3869C6.51167 11.4049 7.42969 11.3952 8.3477 11.3922C8.42325 11.3917 8.46931 11.4186 8.51029 11.481C8.67751 11.7376 8.75719 12.0308 8.82905 12.3274C8.8378 12.3639 8.84747 12.4005 8.85807 12.4439C9.22656 12.4439 9.59137 12.4439 9.96263 12.4439C9.96263 12.6908 9.96263 12.9288 9.96263 13.1771C7.92256 13.1771 5.88018 13.1771 3.82812 13.1771Z" fill="#283942"/>
<path d="M7.92188 4.90574C8.16048 4.75159 8.38663 4.60476 8.61418 4.4594C8.95181 4.24379 9.28991 4.02769 9.62985 3.81647C9.66301 3.79599 9.72428 3.78916 9.75514 3.80769C10.3346 4.1672 10.9117 4.53208 11.505 4.90525C11.4438 4.94525 11.3931 4.97842 11.3429 5.01159C10.8463 5.33793 10.348 5.66184 9.85463 5.99354C9.74593 6.06671 9.66716 6.07452 9.55293 5.99647C9.04395 5.64769 8.52713 5.31159 8.01308 4.97062C7.98637 4.95306 7.96057 4.93354 7.92188 4.90574Z" fill="#283942"/>
<path d="M7.72539 5.20312C7.99992 5.38556 8.26523 5.56312 8.53147 5.73922C8.84146 5.9441 9.15331 6.14605 9.46145 6.35434C9.49462 6.37678 9.52916 6.42995 9.52916 6.46898C9.53331 7.13532 9.5324 7.80167 9.53194 8.46801C9.53194 8.47874 9.52825 8.48946 9.52365 8.51678C9.39836 8.43434 9.27859 8.35629 9.15929 8.27775C8.69729 7.97239 8.23483 7.66751 7.77467 7.35922C7.74427 7.33922 7.71341 7.28995 7.71341 7.25385C7.70973 6.58361 7.71112 5.91337 7.71158 5.24264C7.71204 5.2363 7.71664 5.22948 7.72539 5.20312Z" fill="#283942"/>
<path d="M11.6944 5.17969C11.6944 5.37627 11.6944 5.54554 11.6944 5.71432C11.6935 6.21334 11.6949 6.71286 11.6889 7.21188C11.6884 7.2592 11.6571 7.32456 11.6203 7.34944C11.0579 7.73139 10.4922 8.10749 9.92751 8.48505C9.91876 8.4909 9.90862 8.4948 9.87592 8.5109C9.87592 8.40944 9.87592 8.31968 9.87592 8.22993C9.87638 7.66115 9.87868 7.09237 9.875 6.5231C9.87454 6.42505 9.90908 6.37188 9.98509 6.32164C10.548 5.94944 11.1081 5.57188 11.6944 5.17969Z" fill="#283942"/>
<path d="M3.22647 4.80404C2.70183 4.80404 2.18732 4.80404 1.66406 4.80404C1.66406 4.25136 1.66406 3.70404 1.66406 3.14648C2.18455 3.14648 2.70137 3.14648 3.22647 3.14648C3.22647 3.69478 3.22647 4.24258 3.22647 4.80404Z" fill="#283942"/>
<path d="M1.65625 6.84506C1.65625 6.29189 1.65625 5.7475 1.65625 5.19336C2.17675 5.19336 2.69402 5.19336 3.21958 5.19336C3.21958 5.73824 3.21958 6.28604 3.21958 6.84506C2.70461 6.84506 2.1878 6.84506 1.65625 6.84506Z" fill="#283942"/>
<path d="M3.22143 7.23438C3.22143 7.78754 3.22143 8.33144 3.22143 8.8807C2.69817 8.8807 2.18089 8.8807 1.65625 8.8807C1.65625 8.33046 1.65625 7.78706 1.65625 7.23438C2.17905 7.23438 2.69586 7.23438 3.22143 7.23438Z" fill="#283942"/>
<path d="M4.85717 4.80355C4.4486 4.80355 4.03681 4.80355 3.61719 4.80355C3.61719 4.24892 3.61719 3.70112 3.61719 3.14453C4.13768 3.14453 4.65496 3.14453 5.18421 3.14453C5.18421 3.40404 5.18743 3.66209 5.18144 3.91965C5.18006 3.96941 5.13999 4.01721 5.12156 4.06746C5.03359 4.30892 4.94745 4.55136 4.85717 4.80355Z" fill="#283942"/>
<path d="M10.6875 1.00049C11.3715 1.00049 12.0555 1.00049 12.7391 1.00049C12.8782 1.00049 13.0173 1.00049 13.1559 1C13.53 0.999514 13.7801 1.23707 13.7884 1.62976C13.7994 2.12927 13.7916 2.62927 13.7911 3.12878C13.7911 3.13414 13.7833 3.13951 13.7727 3.15366C12.998 2.03024 11.9722 1.31122 10.6875 1.00049Z" fill="#283942"/>
<path d="M5.21323 8.88073C4.65864 8.88073 4.14137 8.88073 3.61719 8.88073C3.61719 8.32903 3.61719 7.78464 3.61719 7.22561C3.75399 7.22561 3.88481 7.22561 4.01562 7.22561C4.24593 7.22561 4.47624 7.22854 4.70701 7.22464C4.77103 7.22366 4.7913 7.24805 4.80973 7.31098C4.91429 7.66415 5.0322 8.01342 5.13078 8.36854C5.175 8.52805 5.18513 8.69829 5.21323 8.88073Z" fill="#283942"/>
<path d="M3.61719 5.18945C4.00963 5.18945 4.39241 5.18945 4.78716 5.18945C4.68167 5.74067 4.6743 6.29043 4.72635 6.84847C4.35325 6.84847 3.98983 6.84847 3.61719 6.84847C3.61719 6.29482 3.61719 5.7475 3.61719 5.18945Z" fill="#283942"/>
<path d="M12.9139 9.62768C13.5376 10.4282 14.1111 11.1769 14.6979 11.9135C15.0254 12.3252 15.1567 12.7643 14.7352 13.1496C14.3004 13.5472 13.8711 13.3989 13.5201 12.9516C13.0323 12.3296 12.522 11.7262 12.0627 11.0818C11.7684 10.6687 11.5058 10.5989 11.0139 10.7574C8.48604 11.5721 5.82367 10.0321 5.11201 7.40329C4.38378 4.71305 5.80755 1.9872 8.3543 1.19599C10.2654 0.602326 12.3557 1.38867 13.4985 3.13062C14.6588 4.90037 14.6247 7.27256 13.4114 8.97792C13.264 9.18475 13.1033 9.38085 12.9139 9.62768ZM12.7983 6.00525C12.802 4.14769 11.4358 2.67989 9.69516 2.67013C7.91579 2.66037 6.48419 4.14427 6.48327 5.99988C6.48189 7.83061 7.96277 9.38475 9.69055 9.3667C11.4082 9.34817 12.7951 7.84866 12.7983 6.00525Z" fill="#283942"/>
</g>
</svg>
