<svg width="15" height="15" viewBox="0 0 15 15" fill="none" xmlns="http://www.w3.org/2000/svg">
<g clip-path="url(#clip0_3225_740)">
<path d="M8.26888 15.0002C8.26888 12.4158 8.26888 9.90152 8.26562 7.3872C8.26562 7.20897 8.29819 7.09757 8.48382 7.00846C10.6364 5.95499 12.7792 4.88879 14.9937 3.79395C14.9937 4.20451 14.9937 4.55461 14.9937 4.9047C14.9937 6.92889 14.9904 8.95308 14.997 10.9773C14.997 11.2892 14.9611 11.5565 14.6452 11.7188C12.5448 12.7946 10.4443 13.8799 8.26888 15.0002Z" fill="#283942"/>
<path d="M1.01319 3.79102C1.71986 4.14111 2.35164 4.46575 2.98993 4.76174C3.20486 4.86358 3.20812 5.00998 3.20812 5.19776C3.20486 6.12711 3.21463 7.05645 3.2016 7.9858C3.19509 8.40591 3.33187 8.62552 3.7943 8.46956C4.019 8.39318 4.17858 8.46002 4.32512 8.62552C4.44561 8.75919 4.57913 8.8865 4.70614 9.0138C4.81035 9.12201 4.91456 9.24614 5.08716 9.18249C5.27278 9.11883 5.30535 8.95652 5.30535 8.78465C5.30535 7.9858 5.32489 7.18376 5.29884 6.38809C5.28255 5.96161 5.38351 5.92023 5.74824 6.12711C6.39304 6.49312 7.33094 6.61724 7.65659 7.18694C7.97248 7.73436 7.74452 8.58414 7.74452 9.30025C7.74778 11.1717 7.74452 13.0463 7.74452 14.9845C7.41235 14.819 7.12252 14.6726 6.83268 14.5262C5.09693 13.6351 3.36443 12.7375 1.61891 11.8623C1.18253 11.6427 0.993649 11.3722 1.00016 10.8725C1.02947 8.53958 1.01319 6.20986 1.01319 3.79102Z" fill="#283942"/>
<path d="M5.60938 5.4585C7.82384 4.36684 9.97969 3.30382 12.1323 2.23762C12.2528 2.17715 12.357 2.11668 12.5035 2.19306C13.2135 2.56862 13.9267 2.93463 14.7082 3.33883C12.9464 4.21089 11.2172 4.96518 9.59867 5.90407C8.46864 6.55971 7.49819 6.67428 6.4398 5.88816C6.21184 5.71948 5.92201 5.61763 5.60938 5.4585Z" fill="#283942"/>
<path d="M10.3078 1.06621C8.59809 1.9128 6.97306 2.71802 5.34803 3.52324C4.73905 3.82242 4.12682 4.35392 3.5211 4.34756C2.89258 4.34119 2.27057 3.81287 1.64531 3.51051C1.56064 3.46914 1.48248 3.41503 1.33594 3.33228C2.28686 2.83897 3.19218 2.37111 4.09425 1.90326C5.22428 1.32082 6.36083 0.751123 7.48434 0.152778C7.86211 -0.0509139 8.18125 -0.0540966 8.55576 0.162326C9.09635 0.471047 9.66625 0.738392 10.3078 1.06621Z" fill="#283942"/>
</g>
<defs>
<clipPath id="clip0_3225_740">
<rect width="15" height="15" fill="white"/>
</clipPath>
</defs>
</svg>
