<svg width="15" height="15" viewBox="0 0 15 15" fill="none" xmlns="http://www.w3.org/2000/svg">
<g clip-path="url(#clip0_3226_765)">
<mask id="mask0_3226_765" style="mask-type:luminance" maskUnits="userSpaceOnUse" x="0" y="0" width="15" height="15">
<path d="M15 0H0V15H15V0Z" fill="white"/>
</mask>
<g mask="url(#mask0_3226_765)">
<path d="M11.9992 6.96892C11.7048 6.67475 11.4042 6.37447 11.0806 6.05183C11.5386 5.59565 12.0053 5.13202 12.5006 4.63856C12.4049 4.63314 12.3466 4.62636 12.2882 4.62636C9.58335 4.62568 6.87847 4.62365 4.17358 4.62704C2.89475 4.6284 1.88593 5.40993 1.57724 6.6334C1.54061 6.77913 1.54061 6.93368 1.51076 7.08144C1.50126 7.12821 1.45174 7.20277 1.41917 7.20345C1.02229 7.21159 0.624734 7.20887 0.179688 7.20887C0.217 6.91809 0.226499 6.64357 0.290271 6.38193C0.742103 4.51723 2.26313 3.32087 4.18579 3.31816C6.86829 3.31409 9.55079 3.3168 12.2333 3.3168C12.3045 3.3168 12.3764 3.3168 12.4477 3.3168C12.4578 3.30121 12.4673 3.28495 12.4775 3.26936C12.0148 2.8064 11.5515 2.34277 11.0996 1.89134C11.4124 1.58225 11.717 1.2813 12.0019 1C12.9924 1.98013 14.0033 2.97993 15.0019 3.96819C14.0019 4.96799 12.9992 5.96913 11.9992 6.96892Z" fill="#283942"/>
<path d="M2.45849 11.6864C2.50123 11.7352 2.54058 11.7867 2.58671 11.8328C2.96731 12.2144 3.34451 12.5988 3.73189 12.9729C3.84112 13.0787 3.83366 13.141 3.7285 13.2413C3.47273 13.4847 3.2285 13.7395 2.97002 14.0005C2.92185 13.9598 2.8825 13.9314 2.84858 13.8968C1.92524 12.9709 1.00394 12.0436 0.0785692 11.1204C-0.0157321 11.0262 -0.0333711 10.9679 0.0711065 10.8649C0.995801 9.94846 1.91507 9.02662 2.83637 8.10681C2.87097 8.07224 2.91032 8.04106 2.9707 7.98819C3.25021 8.27423 3.52633 8.55146 3.79227 8.83886C3.8133 8.86191 3.77735 8.97036 3.73868 9.01035C3.36079 9.39468 2.9768 9.77223 2.59553 10.1525C2.54872 10.1986 2.50666 10.2494 2.43135 10.3314C2.52565 10.3436 2.5806 10.3565 2.63624 10.3565C5.40353 10.3572 8.17083 10.3619 10.9381 10.3545C12.2224 10.3511 13.3452 9.29843 13.4544 8.02412C13.4741 7.79366 13.4795 7.78823 13.7027 7.78823C13.989 7.78756 14.2753 7.79501 14.5616 7.78552C14.7136 7.7801 14.757 7.83433 14.7455 7.98074C14.6803 8.81649 14.39 9.56413 13.8608 10.2115C13.2706 10.9333 12.5053 11.38 11.5928 11.5583C11.2984 11.6159 10.9911 11.6234 10.6898 11.624C8.03515 11.6288 5.37979 11.6268 2.72511 11.6274C2.6437 11.6274 2.56229 11.6356 2.48088 11.6403C2.47206 11.6545 2.46527 11.6701 2.45849 11.6864Z" fill="#283942"/>
</g>
</g>
<defs>
<clipPath id="clip0_3226_765">
<rect width="15" height="15" fill="white"/>
</clipPath>
</defs>
</svg>
