<svg width="15" height="15" viewBox="0 0 15 15" fill="none" xmlns="http://www.w3.org/2000/svg">
<g clip-path="url(#clip0_3244_704)">
<path d="M8.22757 3.18359C8.24099 3.28051 8.24938 3.31766 8.24938 3.3532C8.24938 6.15408 8.24938 8.95657 8.24938 11.8285C7.63689 11.4796 7.05965 11.1533 6.48744 10.8238C5.89341 10.4814 5.29939 10.1406 4.71375 9.78682C4.43855 9.62045 4.14322 9.68829 3.85627 9.68668C3.68511 9.68668 3.75391 9.84013 3.75391 9.92574C3.7472 10.5428 3.75727 11.1598 3.7472 11.7768C3.74216 12.1257 3.58611 12.4084 3.22533 12.5215C2.90818 12.62 2.62459 12.5425 2.40309 12.2808C2.26549 12.1177 2.24703 11.9335 2.24703 11.7397C2.24535 11.1614 2.22857 10.5815 2.25374 10.0049C2.26549 9.72221 2.16313 9.64953 1.89464 9.67537C1.64294 9.70122 1.38787 9.68183 1.13952 9.62368C0.481732 9.47185 0.0118805 8.91296 0.00349032 8.26039C-0.00322184 7.81135 0.00181228 7.36069 0.00181228 6.91164C0.00181228 5.93117 0.614297 5.33675 1.64294 5.32867C2.49706 5.32221 3.35286 5.32221 4.20698 5.33029C4.43184 5.33191 4.6181 5.27376 4.80772 5.1623C5.92697 4.50812 7.05462 3.86201 8.22757 3.18359Z" fill="#283942"/>
<path d="M9 5.13477C10.5488 6.35591 10.4045 8.83535 9 9.84974C9 9.04534 9 8.27001 9 7.49468C9 6.72904 9 5.96178 9 5.13477Z" fill="#283942"/>
<path d="M13.5085 8.22514C13.2568 8.22514 13.0018 8.23967 12.7517 8.2219C12.3003 8.1896 12.0251 7.91177 12.0235 7.51118C12.0201 7.1106 12.292 6.81339 12.74 6.79239C13.2568 6.76816 13.777 6.76816 14.2939 6.794C14.7385 6.81662 15.0087 7.11867 15.002 7.51926C14.9953 7.91823 14.7201 8.19283 14.267 8.22352C14.0136 8.23967 13.7602 8.22514 13.5085 8.22514Z" fill="#283942"/>
<path d="M13.4933 2.72799C13.5168 2.94605 13.4329 3.13181 13.255 3.26588C12.8254 3.58732 12.4009 3.91522 11.9512 4.2092C11.6206 4.42564 11.1877 4.32065 10.9645 4.01536C10.7296 3.69392 10.7631 3.3111 11.092 3.05428C11.5048 2.73122 11.9361 2.43401 12.3657 2.13196C12.6039 1.96397 12.8758 1.96235 13.1191 2.09319C13.3591 2.22241 13.5134 2.43401 13.4933 2.72799Z" fill="#283942"/>
<path d="M13.4929 12.2453C13.4828 12.8462 12.8787 13.1918 12.3921 12.8849C11.9256 12.5926 11.4809 12.2631 11.0496 11.9239C10.7493 11.6864 10.7325 11.2923 10.959 10.9902C11.1805 10.6962 11.595 10.5799 11.9122 10.7851C12.3837 11.0888 12.83 11.4344 13.2764 11.772C13.4425 11.8964 13.513 12.0789 13.4929 12.2453Z" fill="#283942"/>
</g>
<defs>
<clipPath id="clip0_3244_704">
<rect width="15" height="15" fill="white"/>
</clipPath>
</defs>
</svg>
