<svg width="15" height="15" viewBox="0 0 15 15" fill="none" xmlns="http://www.w3.org/2000/svg">
<g clip-path="url(#clip0_3244_677)">
<mask id="mask0_3244_677" style="mask-type:luminance" maskUnits="userSpaceOnUse" x="0" y="0" width="15" height="15">
<path d="M15 0H0V15H15V0Z" fill="white"/>
</mask>
<g mask="url(#mask0_3244_677)">
<mask id="mask1_3244_677" style="mask-type:luminance" maskUnits="userSpaceOnUse" x="0" y="0" width="15" height="15">
<path d="M15 0H0V15H15V0Z" fill="white"/>
</mask>
<g mask="url(#mask1_3244_677)">
<path d="M7.5 9.375C8.16304 9.375 8.79893 9.11161 9.26777 8.64277C9.73661 8.17393 10 7.53804 10 6.875V3.75C10 3.08696 9.73661 2.45107 9.26777 1.98223C8.79893 1.51339 8.16304 1.25 7.5 1.25C6.83696 1.25 6.20107 1.51339 5.73223 1.98223C5.26339 2.45107 5 3.08696 5 3.75V6.875C5 7.53804 5.26339 8.17393 5.73223 8.64277C6.20107 9.11161 6.83696 9.375 7.5 9.375Z" fill="#283942"/>
<path d="M11.875 6.875C11.875 6.70924 11.8092 6.55027 11.6919 6.43306C11.5747 6.31585 11.4158 6.25 11.25 6.25C11.0842 6.25 10.9253 6.31585 10.8081 6.43306C10.6908 6.55027 10.625 6.70924 10.625 6.875C10.625 7.7038 10.2958 8.49866 9.70971 9.08471C9.12366 9.67076 8.3288 10 7.5 10C6.6712 10 5.87634 9.67076 5.29029 9.08471C4.70424 8.49866 4.375 7.7038 4.375 6.875C4.375 6.70924 4.30915 6.55027 4.19194 6.43306C4.07473 6.31585 3.91576 6.25 3.75 6.25C3.58424 6.25 3.42527 6.31585 3.30806 6.43306C3.19085 6.55027 3.125 6.70924 3.125 6.875C3.12623 7.92615 3.50588 8.94173 4.19449 9.73592C4.8831 10.5301 5.83463 11.0498 6.875 11.2V12.5H5.55625C5.40872 12.5 5.26724 12.5586 5.16292 12.6629C5.05861 12.7672 5 12.9087 5 13.0562V13.1938C5 13.3413 5.05861 13.4828 5.16292 13.5871C5.26724 13.6914 5.40872 13.75 5.55625 13.75H9.44375C9.59128 13.75 9.73276 13.6914 9.83708 13.5871C9.94139 13.4828 10 13.3413 10 13.1938V13.0562C10 12.9087 9.94139 12.7672 9.83708 12.6629C9.73276 12.5586 9.59128 12.5 9.44375 12.5H8.125V11.2C9.16537 11.0498 10.1169 10.5301 10.8055 9.73592C11.4941 8.94173 11.8738 7.92615 11.875 6.875Z" fill="#283942"/>
</g>
</g>
</g>
<defs>
<clipPath id="clip0_3244_677">
<rect width="15" height="15" fill="white"/>
</clipPath>
</defs>
</svg>
