<svg width="15" height="15" viewBox="0 0 15 15" fill="none" xmlns="http://www.w3.org/2000/svg">
<g clip-path="url(#clip0_3244_712)">
<path d="M0 7.50591C0 5.26675 0 3.0276 0 0.788436C0 0.279895 0.270181 0.00197109 0.782935 0.00197109C4.41559 0 8.04825 0 11.6809 0C12.101 0 12.3968 0.285808 12.3988 0.70565C12.4027 2.64717 12.4007 4.58673 12.4007 6.52825C12.4007 6.70171 12.3455 6.74113 12.1799 6.68397C12.03 6.63272 11.8762 6.61104 11.7223 6.63075C11.5488 6.65243 11.4975 6.59527 11.4975 6.41787C11.5034 4.92576 11.5014 3.43167 11.5014 1.93955C11.5014 1.66557 11.4699 1.63403 11.1918 1.63403C7.86287 1.63403 4.53589 1.63403 1.20694 1.63403C0.93676 1.63403 0.905206 1.66557 0.905206 1.92576C0.905206 5.88568 0.905206 9.8456 0.905206 13.8035C0.905206 14.0696 0.9269 14.0933 1.18722 14.0933C4.53392 14.0933 7.87865 14.0933 11.2253 14.0933C11.4659 14.0933 11.5014 14.0618 11.4995 13.8134C11.4975 13.6794 11.5389 13.6183 11.6809 13.6124C11.8663 13.6064 12.0477 13.569 12.2272 13.5197C12.3455 13.4862 12.4086 13.5177 12.4047 13.6557C12.3988 13.8706 12.4086 14.0854 12.4007 14.3003C12.385 14.724 12.099 14.998 11.677 14.998C8.03839 14.998 4.39982 14.998 0.759269 14.998C0.283986 15 0 14.7181 0 14.2431C0 11.998 0 9.75296 0 7.50591ZM7.97923 1.08804C8.71286 1.08804 9.44846 1.08804 10.1821 1.08804C10.474 1.08804 10.7678 1.09198 11.0597 1.08607C11.2115 1.0841 11.3338 0.963863 11.3259 0.829829C11.318 0.676084 11.2253 0.593298 11.0774 0.571616C11.0439 0.567674 11.0064 0.569645 10.9709 0.569645C8.97712 0.569645 6.9833 0.569645 4.98948 0.569645C4.77452 0.569645 4.65225 0.666229 4.65225 0.829829C4.65225 0.997372 4.7686 1.08804 4.98751 1.08804C5.98541 1.08804 6.98133 1.08804 7.97923 1.08804ZM1.7473 1.0841C1.88535 1.08607 2.00763 0.963863 2.00763 0.823916C2.00763 0.689882 1.89719 0.571616 1.76505 0.563732C1.63095 0.555848 1.49882 0.678055 1.4929 0.816032C1.48698 0.950066 1.60926 1.08016 1.7473 1.0841ZM2.43952 1.08213C2.5756 1.08607 2.7097 0.961892 2.7097 0.827858C2.71167 0.691853 2.58546 0.563732 2.44938 0.561761C2.32119 0.55979 2.20089 0.674113 2.19301 0.808147C2.18709 0.950066 2.30147 1.07819 2.43952 1.08213ZM1.05114 1.0841C1.18919 1.08607 1.31146 0.959921 1.30949 0.819974C1.30555 0.687911 1.18722 0.563732 1.061 0.561761C0.924928 0.557819 0.798712 0.680026 0.796739 0.819974C0.792795 0.959921 0.913095 1.08213 1.05114 1.0841Z" fill="#283942"/>
<path d="M10.3352 9.81999C10.2307 9.4987 10.1281 9.17939 10.0216 8.8581C9.63902 7.69515 9.25643 6.53024 8.8758 5.3673C8.84228 5.2648 8.81072 5.16427 8.8127 5.05389C8.81664 4.83313 8.91722 4.66362 9.09471 4.60054C9.28798 4.53155 9.48125 4.58477 9.62324 4.75823C9.76918 4.9376 9.82045 5.1623 9.90328 5.37124C10.1656 6.0217 10.422 6.67413 10.6823 7.32656C10.7592 7.51973 10.8203 7.54732 10.988 7.44877C11.3469 7.23589 11.7038 7.14325 12.0588 7.45468C12.1081 7.49805 12.1456 7.46059 12.187 7.44088C12.4809 7.29897 12.7708 7.28517 13.0508 7.47636C13.1435 7.53944 13.2362 7.53747 13.3368 7.4941C13.7174 7.32853 14.1138 7.54141 14.2183 7.94351C14.4155 8.70238 14.6462 9.45337 14.8928 10.1984C15.0229 10.5927 14.9993 10.9829 14.9815 11.3811C14.948 12.1518 14.7685 12.1321 14.2045 12.2799C13.388 12.4948 12.5716 12.7136 11.7551 12.9383C11.5086 13.0053 11.3035 12.9678 11.1181 12.7825C10.7375 12.4041 10.351 12.0296 9.96047 11.661C9.5838 11.3042 9.33728 10.8489 9.04344 10.433C8.79298 10.0782 8.55435 9.71355 8.31375 9.35284C8.27036 9.28977 8.23092 9.22078 8.20134 9.15179C8.08301 8.87781 8.14217 8.58412 8.33939 8.43826C8.56618 8.27268 8.89947 8.28057 9.11246 8.49542C9.35306 8.73589 9.56605 9.00002 9.79087 9.25626C9.9585 9.44745 10.1242 9.64259 10.2898 9.83576C10.3076 9.82985 10.3214 9.8259 10.3352 9.81999Z" fill="#283942"/>
<path d="M2.91082 7.38215C3.13762 7.38215 3.36441 7.38018 3.59121 7.38412C3.76672 7.38609 3.87322 7.48464 3.87519 7.6581C3.88111 8.11736 3.88111 8.57663 3.87519 9.03786C3.87322 9.22315 3.7687 9.32367 3.58134 9.32564C3.12775 9.32958 2.67417 9.32958 2.22058 9.32564C2.02534 9.32367 1.93462 9.23103 1.93265 9.03786C1.9287 8.58451 1.9287 8.13116 1.93265 7.67781C1.93462 7.47085 2.01942 7.38806 2.23044 7.38412C2.45526 7.3782 2.68403 7.38215 2.91082 7.38215Z" fill="#283942"/>
<path d="M1.93144 11.3375C1.93144 11.1049 1.9275 10.8723 1.93144 10.6397C1.93538 10.4584 2.0261 10.3657 2.20951 10.3657C2.66902 10.3638 3.12852 10.3638 3.58606 10.3657C3.77341 10.3677 3.87201 10.4623 3.87399 10.6535C3.87793 11.1069 3.87793 11.5602 3.87399 12.0116C3.87201 12.2107 3.77144 12.3073 3.57225 12.3073C3.12458 12.3092 2.6769 12.3092 2.2312 12.3073C2.02413 12.3053 1.93341 12.2087 1.93144 11.9978C1.92947 11.779 1.93144 11.5582 1.93144 11.3375Z" fill="#283942"/>
<path d="M2.79991 5.5529C2.69145 5.55684 2.60467 5.51545 2.52776 5.44252C2.20039 5.12912 1.87104 4.81571 1.5417 4.50428C1.43915 4.4077 1.43323 4.31111 1.52986 4.21059C1.62847 4.10612 1.72905 4.00362 1.82765 3.90113C1.92626 3.8006 2.0229 3.80454 2.1215 3.90113C2.30885 4.08444 2.50015 4.26578 2.68356 4.45303C2.75258 4.52202 2.78414 4.51611 2.8433 4.44121C3.22787 3.9642 3.62032 3.49114 4.00883 3.01611C4.13899 2.85645 4.20407 2.84857 4.35987 2.9826C4.45058 3.05947 4.53539 3.14423 4.63005 3.21716C4.76415 3.31966 4.76415 3.42412 4.65766 3.5483C4.26915 4.00757 3.88458 4.47077 3.49607 4.93004C3.35803 5.09364 3.21998 5.25724 3.07798 5.41887C3.00699 5.5056 2.91627 5.55684 2.79991 5.5529Z" fill="#283942"/>
<path d="M7.39153 3.20127C8.04234 3.20127 8.69314 3.20522 9.34394 3.19733C9.50368 3.19536 9.56679 3.23675 9.56482 3.40824C9.5589 3.88327 9.56679 3.88327 9.08954 3.88327C7.87668 3.88327 6.66579 3.88327 5.45293 3.88327C5.18078 3.88327 5.17881 3.88327 5.18078 3.62112C5.18275 3.14017 5.12753 3.20522 5.59887 3.20325C6.19642 3.1993 6.79398 3.20127 7.39153 3.20127Z" fill="#283942"/>
<path d="M6.69251 5.36568C6.25667 5.36568 5.82083 5.35977 5.38696 5.36766C5.22919 5.36963 5.17595 5.31641 5.17989 5.16069C5.19567 4.61864 5.09706 4.6896 5.6532 4.68763C6.42233 4.68369 7.19146 4.68763 7.96256 4.68763C8.18344 4.68763 8.19133 4.69551 8.19133 4.92022C8.19133 5.36568 8.19133 5.36568 7.74957 5.36568C7.39656 5.36568 7.04552 5.36568 6.69251 5.36568Z" fill="#283942"/>
<path d="M6.25399 8.01661C5.8359 8.01661 5.41781 8.0107 5.00169 8.02055C4.86364 8.02449 4.83406 7.98113 4.83603 7.84907C4.84194 7.38192 4.83603 7.37995 5.29553 7.38192C6.041 7.38192 6.78843 7.38586 7.5339 7.37995C7.66997 7.37798 7.70547 7.42134 7.70547 7.5534C7.7035 8.01858 7.70942 8.01858 7.24005 8.01858C6.91071 8.01661 6.58136 8.01661 6.25399 8.01661Z" fill="#283942"/>
<path d="M6.25883 11.0029C5.83482 11.0029 5.41082 10.9989 4.98681 11.0048C4.87045 11.0068 4.82312 10.9733 4.83693 10.8531C4.85468 10.6954 4.7679 10.4845 4.8744 10.3918C4.96512 10.313 5.17022 10.3662 5.32404 10.3662C6.05176 10.3642 6.78145 10.3682 7.50916 10.3623C7.64918 10.3603 7.70835 10.3859 7.7044 10.5436C7.69651 11.0009 7.70243 11.0009 7.2449 11.0009C6.91555 11.0029 6.5862 11.0029 6.25883 11.0029Z" fill="#283942"/>
<path d="M5.82324 8.68469C6.10328 8.68469 6.38332 8.68666 6.66336 8.68272C6.75211 8.68075 6.78563 8.70637 6.79155 8.80296C6.81916 9.3253 6.8231 9.3253 6.29852 9.3253C5.86268 9.3253 5.42881 9.32135 4.99297 9.32727C4.87859 9.32924 4.82928 9.29967 4.83717 9.17747C4.84703 9.0592 4.84703 8.93896 4.83717 8.8207C4.82731 8.70637 4.87661 8.68075 4.98114 8.68272C5.26118 8.68863 5.54319 8.68469 5.82324 8.68469Z" fill="#283942"/>
<path d="M5.80229 12.3116C5.52816 12.3116 5.25206 12.3077 4.97794 12.3136C4.8675 12.3156 4.83595 12.2801 4.832 12.1697C4.8182 11.6671 4.81425 11.6671 5.31517 11.6671C5.75101 11.6671 6.18685 11.671 6.62269 11.6651C6.74891 11.6631 6.78441 11.7045 6.78638 11.8287C6.78835 12.3116 6.7923 12.3116 6.30321 12.3116C6.13558 12.3116 5.96795 12.3116 5.80229 12.3116Z" fill="#283942"/>
</g>
<defs>
<clipPath id="clip0_3244_712">
<rect width="15" height="15" fill="white"/>
</clipPath>
</defs>
</svg>
