<svg width="15" height="15" viewBox="0 0 15 15" fill="none" xmlns="http://www.w3.org/2000/svg">
<path d="M2.19963 10.2302C1.95188 10.2207 1.69758 10.3075 1.4708 10.4661C1.29908 10.5868 1.15882 10.5719 1.01594 10.42C0.719686 10.1055 0.419503 9.79633 0.118008 9.48719C-0.0432257 9.32313 -0.0366714 9.17398 0.121941 9.00993C2.65712 6.39176 5.18967 3.76952 7.72484 1.14864C7.91754 0.949329 8.02371 0.950684 8.22034 1.15135C8.51659 1.45371 8.80629 1.76285 9.10516 2.06385C9.24542 2.20486 9.25853 2.33909 9.15628 2.51264C8.78138 3.14989 8.84824 3.84816 9.32145 4.34712C9.78549 4.83658 10.4789 4.91251 11.0937 4.52609C11.2759 4.4122 11.407 4.44067 11.5473 4.58982C11.8265 4.88675 12.1122 5.17555 12.3941 5.46977C12.6182 5.70434 12.6169 5.79789 12.3875 6.03652C11.137 7.33272 9.88511 8.63028 8.63326 9.92513C7.38664 11.2146 6.13872 12.5026 4.89079 13.7907C4.61945 14.0714 4.54604 14.07 4.27077 13.7866C4.01122 13.5182 3.7556 13.2443 3.4895 12.9826C3.31385 12.8091 3.29287 12.6531 3.4292 12.4308C3.7189 11.9576 3.71366 11.4545 3.46066 10.9637C3.21947 10.5 2.74756 10.2275 2.19963 10.2302ZM10.4684 6.35922C10.4737 6.22227 10.3741 6.12194 10.2744 6.01889C9.41321 5.13081 8.5533 4.24 7.69207 3.35192C7.44694 3.09973 7.27915 3.10244 7.03009 3.36005C6.51624 3.89155 6.00239 4.42305 5.48854 4.95454C4.41496 6.06499 3.34007 7.17545 2.26779 8.28725C2.0384 8.52588 2.02136 8.71028 2.22323 8.91908C3.11591 9.84649 4.01122 10.7725 4.90784 11.6945C5.09398 11.8857 5.28405 11.8871 5.46494 11.7C7.08646 10.0241 8.70798 8.34555 10.3295 6.66835C10.4081 6.58836 10.4671 6.50158 10.4684 6.35922Z" fill="#283942"/>
<path d="M11.1005 7.65039C11.402 7.34804 11.7061 7.04703 12.0063 6.74468C12.0679 6.68231 12.14 6.6918 12.2121 6.6918C13.0366 6.6918 13.8611 6.69315 14.6857 6.69044C14.9006 6.68909 14.999 6.79213 14.9963 7.01449C14.9924 7.4199 14.9819 7.8253 14.999 8.2307C15.0108 8.49238 14.9111 8.60356 14.6699 8.66458C13.8625 8.87202 13.4299 9.72486 13.7209 10.5194C13.8926 10.9872 14.2256 11.2855 14.6948 11.3939C14.9256 11.4468 15.0042 11.558 14.9976 11.7925C14.9845 12.198 14.9885 12.6034 14.9963 13.0088C15.0003 13.242 14.9098 13.3531 14.6804 13.3531C11.7166 13.3518 8.75278 13.3518 5.78896 13.3518C5.75095 13.3518 5.71293 13.3409 5.60938 13.326C5.95019 12.9857 6.25562 12.6834 6.55843 12.3783C6.64232 12.2929 6.74326 12.3254 6.83633 12.3254C8.78817 12.3227 10.7387 12.324 12.6906 12.3227C13.0655 12.3227 13.1782 12.2102 13.1782 11.8346C13.1782 10.6265 13.1782 9.41979 13.1769 8.21172C13.1769 7.83886 13.0576 7.71819 12.6893 7.71819C12.1715 7.71683 11.6524 7.71819 11.1346 7.71819C11.1241 7.69378 11.1123 7.67209 11.1005 7.65039Z" fill="#283942"/>
<path d="M6.90625 11.9899C7.47385 11.4109 8.04406 10.832 8.60904 10.2503C9.29199 9.54799 9.97363 8.84565 10.65 8.13789C10.7431 8.04027 10.8335 7.99281 10.9672 7.99417C11.4981 8.00095 12.0277 7.99417 12.5586 7.99688C12.8654 7.99959 12.982 8.12433 12.982 8.44567C12.9833 9.4924 12.982 10.5391 12.9807 11.5858C12.9807 11.918 12.8549 12.0523 12.5429 12.0523C10.7064 12.0523 8.87121 12.0509 7.03471 12.0509C7.00456 12.0509 6.9731 12.0509 6.94295 12.0509C6.93116 12.0319 6.91936 12.0102 6.90625 11.9899Z" fill="#283942"/>
<path d="M7.44569 3.51471C7.54139 3.52827 7.62921 3.57843 7.70786 3.65979C8.46815 4.44754 9.23369 5.23123 9.99267 6.02034C10.1867 6.22101 10.1854 6.40812 9.98611 6.61556C8.46684 8.19108 6.94495 9.76523 5.42175 11.3367C5.21726 11.5468 5.03636 11.5414 4.82925 11.3285C4.07813 10.5557 3.32833 9.78015 2.57853 9.00324C2.36879 8.7863 2.36879 8.59377 2.58377 8.37005C4.08731 6.81081 5.59347 5.25428 7.09832 3.69639C7.1927 3.60013 7.2897 3.512 7.44569 3.51471Z" fill="#283942"/>
</svg>
