<svg width="15" height="15" viewBox="0 0 15 15" fill="none" xmlns="http://www.w3.org/2000/svg">
<g clip-path="url(#clip0_3244_688)">
<path d="M0 9.7874C0.110098 9.74839 0.0869196 9.63378 0.108939 9.55332C0.439234 8.35727 1.25628 7.62208 2.43027 7.46968C3.16155 7.37458 3.87777 7.40506 4.59978 7.74278C4.45608 7.86836 4.33903 7.96834 4.22661 8.07197C3.55211 8.69377 3.1546 9.48626 2.95758 10.3934C2.91934 10.5689 2.88225 10.6445 2.69451 10.6421C1.79634 10.6287 0.898169 10.6323 0 10.6299C0 10.3495 0 10.0678 0 9.7874Z" fill="#283942"/>
<path d="M15.0015 10.6294C14.159 10.6319 13.3164 10.6331 12.4739 10.6392C12.3394 10.6404 12.2583 10.6221 12.2108 10.4563C11.7959 9.03227 11.5827 8.68967 10.5547 7.75819C11.0009 7.49972 11.4784 7.43388 11.9547 7.42657C13.2793 7.40462 14.3722 7.83866 14.9482 9.21637C14.9517 9.22613 14.9829 9.22369 15.0015 9.22613C15.0015 9.69431 15.0015 10.1613 15.0015 10.6294Z" fill="#283942"/>
<path d="M7.56837 11.9954C6.25762 11.9954 4.94687 11.9905 3.63612 12.0003C3.41013 12.0015 3.33596 11.9466 3.33596 11.6943C3.32901 9.2217 4.8275 7.55991 7.22416 7.42214C8.62067 7.34167 9.89897 7.65135 10.8667 8.81448C11.5736 9.66549 11.8239 10.6835 11.8205 11.793C11.8193 12.0527 11.6663 11.993 11.5342 11.993C10.2119 11.9966 8.8907 11.9954 7.56837 11.9954Z" fill="#283942"/>
<path d="M7.52134 6.57937C6.3995 6.57571 5.41441 5.52597 5.4063 4.32504C5.39819 3.03633 6.37285 2 7.59088 2C8.80196 2 9.7743 3.02902 9.76039 4.29334C9.74533 5.54426 8.72779 6.58303 7.52134 6.57937Z" fill="#283942"/>
<path d="M4.61456 5.22632C4.60992 6.1139 3.91341 6.84299 3.06971 6.84421C2.22948 6.84543 1.54572 6.11025 1.54688 5.20559C1.54804 4.32532 2.22717 3.62427 3.07898 3.62305C3.95049 3.62183 4.61919 4.31922 4.61456 5.22632Z" fill="#283942"/>
<path d="M13.6135 5.20929C13.6123 6.1176 12.9088 6.85401 12.0512 6.84547C11.2099 6.83694 10.5388 6.09809 10.5469 5.18856C10.5551 4.31194 11.2423 3.61699 12.0953 3.62309C12.9529 3.62918 13.6146 4.32048 13.6135 5.20929Z" fill="#283942"/>
</g>
<defs>
<clipPath id="clip0_3244_688">
<rect width="15" height="15" fill="white"/>
</clipPath>
</defs>
</svg>
