<svg width="102" height="93" viewBox="0 0 102 93" fill="none" xmlns="http://www.w3.org/2000/svg">
<path d="M51.6365 79.9999C39.6559 79.9999 27.6753 79.9999 15.6946 79.9999C13.6729 79.9999 12.5497 78.6365 12.6246 76.8943C12.6995 73.7887 12.6246 70.6073 12.6246 67.5017C12.6246 65.911 13.3734 65.0021 14.871 64.6233C18.0908 63.9416 20.3371 61.139 20.2623 57.9576C20.1874 54.7763 17.941 52.0494 14.7212 51.5192C13.598 51.2919 12.6995 50.2315 12.6995 49.0953C12.6995 45.6867 12.6995 42.2023 12.6995 38.7937C12.6995 37.203 13.8227 36.1426 15.47 36.1426C19.214 36.1426 22.9579 36.1426 26.627 36.1426C46.9191 36.1426 67.2862 36.1426 87.5783 36.1426C89.5252 36.1426 90.7232 37.3545 90.7232 39.3239C90.6484 42.5053 90.7232 45.6867 90.7232 48.7923C90.7232 50.3072 89.9745 51.2162 88.4769 51.5192C85.332 52.2009 83.0856 54.9278 83.1605 58.1849C83.2354 61.3662 85.5566 64.0931 88.6266 64.6233C89.8247 64.8506 90.7232 65.8353 90.7232 67.0472C90.7232 70.5316 90.7232 73.9402 90.7232 77.4245C90.7232 79.0152 89.6001 79.9999 87.9527 79.9999C82.5615 79.9999 77.1702 79.9999 71.704 79.9999C68.3345 79.9999 65.0398 79.9999 61.6703 79.9999C58.3007 79.9999 55.006 79.9999 51.6365 79.9999ZM15.5449 77.1215C33.7404 77.1215 51.936 77.1215 70.1316 77.1215C70.3562 76.2126 70.8804 75.6824 71.8538 75.6824C72.8272 75.6824 73.4262 76.2126 73.6509 77.1215C78.4431 77.1215 83.1605 77.1215 87.8778 77.1215C87.8778 73.8644 87.8778 70.6073 87.8778 67.426C87.7281 67.3502 87.5783 67.2745 87.4286 67.2745C83.7595 66.3655 80.4648 62.6539 80.4648 58.0334C80.4648 53.6401 83.6098 49.8527 87.4286 48.9438C87.803 48.868 87.9527 48.6408 87.9527 48.2621C87.9527 45.3837 87.9527 42.5053 87.9527 39.6269C87.9527 39.3997 87.9527 39.2482 87.8778 39.021C83.0856 39.021 78.3682 39.021 73.6509 39.021C73.3514 39.9299 72.8272 40.4601 71.9287 40.4601C70.9552 40.5359 70.3562 40.0057 70.0567 39.021C51.8611 39.021 33.6656 39.021 15.5449 39.021C15.5449 39.1724 15.47 39.2482 15.47 39.3997C15.47 42.3538 15.47 45.3079 15.47 48.2621C15.47 48.7165 15.6946 48.7923 15.9942 48.868C19.8879 50.08 22.2091 52.5796 22.883 56.6699C23.5569 61.2147 20.8613 65.608 16.5183 67.0472C16.2188 67.1987 15.8444 67.2745 15.5449 67.426C15.5449 70.6073 15.5449 73.8644 15.5449 77.1215Z" fill="black" stroke="black" stroke-width="2" stroke-miterlimit="10"/>
<path d="M74.8493 15.4639C73.1271 12.7371 71.4049 10.0102 69.6827 7.2833C68.3349 8.11652 67.0619 8.94973 65.789 9.78294C63.1682 11.4494 60.6223 13.0401 58.0765 14.7065C57.9267 14.858 57.7021 15.161 57.7021 15.3882C57.7769 16.2972 57.5523 16.8274 56.8035 17.2819C56.1296 17.6606 55.5306 17.5849 54.7818 17.0546C54.7818 17.0546 54.7069 16.9789 54.632 16.9789C52.2359 18.4938 49.8398 20.0087 47.4437 21.5994C40.7046 25.917 34.0404 30.2346 27.3013 34.4764C27.0017 34.6279 26.4776 34.7794 26.0283 34.8551C25.4293 34.9308 24.98 34.5521 24.7554 33.9461C24.6056 33.4159 24.7554 32.8857 25.2047 32.507C25.3544 32.3555 25.5042 32.204 25.7288 32.1282C39.7311 23.1144 53.8084 14.1005 67.8107 5.08665C69.7576 3.8747 71.0305 4.17769 72.2286 6.07136C73.8759 8.64674 75.5232 11.2979 77.1706 13.949C78.0691 15.3125 77.9194 16.4487 76.7962 17.5849C74.4749 19.7815 74.1005 23.2659 75.7479 25.917C77.3952 28.5681 80.6899 29.7043 83.6102 28.5681C85.2575 27.9622 86.2309 28.3409 87.2043 29.8558C87.5787 30.5375 88.028 31.1435 88.4024 31.8252C88.7768 32.3555 88.7768 32.8857 88.3275 33.4159C87.8783 33.9461 87.2043 34.0976 86.6053 33.7189C86.3058 33.5674 86.0063 33.2644 85.7816 33.0372C85.557 32.8099 85.4073 32.507 85.2575 32.204C84.6585 31.295 84.6585 31.295 83.6102 31.5222C78.144 32.8857 73.0522 29.4013 72.0788 23.7203C71.6295 20.842 72.4532 18.1908 74.4001 15.9942C74.5498 15.8427 74.6996 15.6912 74.8493 15.4639Z" fill="black" stroke="black" stroke-width="2" stroke-miterlimit="10"/>
<path d="M8.58221 46.52C9.85515 48.5652 11.1281 50.5346 12.3262 52.504C12.7754 53.1857 13.2247 53.8674 13.674 54.6249C14.1232 55.3824 14.0484 56.2156 13.3745 56.6701C12.6257 57.0488 11.7271 56.8216 11.2778 56.1398C9.55564 53.413 7.75854 50.6103 6.11121 47.8077C5.28754 46.52 5.66194 45.0808 6.86 44.1719C7.68366 43.6416 8.50733 43.1114 9.331 42.5812C10.0049 42.2025 10.6788 42.3539 11.1281 43.0357C11.5774 43.7174 11.5025 44.4749 10.9035 44.9293C10.1547 45.4596 9.40588 45.9898 8.58221 46.52Z" fill="black" stroke="black" stroke-width="2" stroke-miterlimit="10"/>
<path d="M59.7998 19.3271C60.0244 19.4786 60.5485 19.7059 60.8481 20.0846C61.2973 20.6906 61.6717 21.4481 62.121 22.1298C62.6452 23.0387 62.4205 23.872 61.522 24.4022C60.6234 25.0082 59.7998 24.7809 59.2007 23.9477C58.7515 23.3417 58.3771 22.66 58.0027 22.054C57.6283 21.4481 57.5534 20.8421 57.9278 20.3119C58.3022 19.7059 58.8263 19.4029 59.7998 19.3271Z" fill="black" stroke="black" stroke-width="2" stroke-miterlimit="10"/>
<path d="M66.539 29.8559C66.539 30.7649 66.0148 31.4466 65.266 31.6738C64.5921 31.9011 63.9182 31.6738 63.4689 30.9921C63.0197 30.3861 62.5704 29.7044 62.1211 28.9469C61.597 28.1137 61.8965 27.2048 62.7201 26.6745C63.5438 26.1443 64.4424 26.2958 64.9665 27.129C65.4907 27.8107 65.9399 28.4925 66.3143 29.1742C66.4641 29.4014 66.539 29.7044 66.539 29.8559Z" fill="black" stroke="black" stroke-width="2" stroke-miterlimit="10"/>
<path d="M73.5014 62.3515C73.5014 62.7302 73.5014 63.1847 73.5014 63.5634C73.5014 64.5481 72.8275 65.1541 71.7792 65.1541C70.8057 65.1541 70.1318 64.4724 70.1318 63.4877C70.1318 62.7302 70.1318 61.897 70.1318 61.1395C70.1318 60.1548 70.8057 59.5488 71.7792 59.5488C72.8275 59.5488 73.4265 60.1548 73.5014 61.1395C73.5763 61.5182 73.5014 61.9727 73.5014 62.3515Z" fill="black" stroke="black" stroke-width="2" stroke-miterlimit="10"/>
<path d="M70.1318 53.7159C70.1318 53.3372 70.1318 52.9584 70.1318 52.5797C70.1318 51.595 70.8057 50.989 71.7043 50.989C72.7526 50.989 73.4265 51.5192 73.5014 52.5039C73.5763 53.4129 73.5763 54.2461 73.5014 55.1551C73.4265 56.1398 72.7526 56.67 71.7043 56.5943C70.8057 56.5185 70.2067 55.9126 70.1318 55.0036C70.1318 54.5491 70.1318 54.1704 70.1318 53.7159Z" fill="black" stroke="black" stroke-width="2" stroke-miterlimit="10"/>
<path d="M70.1318 70.5319C70.1318 70.0774 70.1318 69.6987 70.1318 69.2442C70.2067 68.3352 70.8057 67.805 71.7043 67.7292C72.7526 67.7292 73.4265 68.1837 73.5014 69.0927C73.5763 70.0017 73.5763 70.9106 73.5014 71.8953C73.4265 72.88 72.7526 73.3345 71.7792 73.3345C70.8806 73.3345 70.2067 72.7285 70.2067 71.8953C70.1318 71.4408 70.1318 70.9864 70.1318 70.5319Z" fill="black" stroke="black" stroke-width="2" stroke-miterlimit="10"/>
<path d="M70.1318 45.6111C70.1318 45.1566 70.1318 44.7021 70.1318 44.2477C70.2067 43.4144 70.8057 42.8085 71.7043 42.8085C72.7526 42.8085 73.4265 43.263 73.5014 44.1719C73.5763 45.1566 73.5763 46.1413 73.5014 47.0503C73.4265 47.9592 72.6777 48.4895 71.6294 48.4137C70.7309 48.338 70.1318 47.8078 70.1318 46.8988C70.1318 46.5201 70.1318 46.0656 70.1318 45.6111Z" fill="black" stroke="black" stroke-width="2" stroke-miterlimit="10"/>
</svg>
